%FSLAX25Y25*%
%MOIN*%
G70*
G01*
G75*
G04 Layer_Color=2752767*
%ADD10C,0.01969*%
%ADD11R,0.03543X0.03150*%
%ADD12R,0.03150X0.03543*%
%ADD13R,0.04724X0.08661*%
%ADD14R,0.13780X0.08661*%
%ADD15R,0.05512X0.03937*%
%ADD16R,0.03937X0.05512*%
%ADD17R,0.18110X0.07087*%
%ADD18O,0.00709X0.06299*%
%ADD19O,0.06299X0.00709*%
%ADD20O,0.04921X0.01575*%
%ADD21R,0.05118X0.04724*%
%ADD22R,0.04724X0.05118*%
%ADD23R,0.04331X0.03937*%
%ADD24R,0.03937X0.04331*%
%ADD25O,0.08661X0.02362*%
%ADD26R,0.08661X0.02362*%
%ADD27R,0.07874X0.21654*%
%ADD28R,0.03937X0.02362*%
%ADD29C,0.02000*%
%ADD30C,0.00600*%
%ADD31C,0.00787*%
%ADD32C,0.00700*%
%ADD33C,0.04000*%
%ADD34C,0.01000*%
%ADD35C,0.01500*%
%ADD36C,0.31032*%
%ADD37C,0.11024*%
%ADD38C,0.09449*%
%ADD39R,0.07874X0.11811*%
%ADD40O,0.05906X0.07087*%
%ADD41R,0.05906X0.07087*%
%ADD42O,0.05512X0.06693*%
%ADD43R,0.05512X0.06693*%
%ADD44O,0.06693X0.05512*%
%ADD45R,0.06693X0.05512*%
%ADD46C,0.06693*%
%ADD47C,0.03937*%
%ADD48O,0.11811X0.07000*%
%ADD49O,0.07000X0.11811*%
%ADD50C,0.02500*%
%ADD51C,0.08000*%
%ADD52C,0.00800*%
%ADD53C,0.00984*%
%ADD54C,0.02362*%
%ADD55R,0.03937X0.03937*%
%ADD56C,0.02769*%
%ADD57R,0.04343X0.03950*%
%ADD58R,0.03950X0.04343*%
%ADD59R,0.05524X0.09461*%
%ADD60R,0.14579X0.09461*%
%ADD61R,0.06112X0.04537*%
%ADD62R,0.04537X0.06112*%
%ADD63R,0.18910X0.07887*%
%ADD64O,0.01509X0.07099*%
%ADD65O,0.07099X0.01509*%
%ADD66O,0.05721X0.02375*%
%ADD67R,0.05918X0.05524*%
%ADD68R,0.05524X0.05918*%
%ADD69R,0.05131X0.04737*%
%ADD70R,0.04737X0.05131*%
%ADD71O,0.09461X0.03162*%
%ADD72R,0.09461X0.03162*%
%ADD73R,0.08674X0.22453*%
%ADD74R,0.04737X0.03162*%
%ADD75C,0.31832*%
%ADD76C,0.11824*%
%ADD77C,0.10249*%
%ADD78R,0.08674X0.12611*%
%ADD79O,0.06906X0.08087*%
%ADD80R,0.06906X0.08087*%
%ADD81O,0.06512X0.07693*%
%ADD82R,0.06512X0.07693*%
%ADD83O,0.07693X0.06512*%
%ADD84R,0.07693X0.06512*%
%ADD85C,0.07493*%
%ADD86C,0.04737*%
%ADD87O,0.12611X0.07800*%
%ADD88O,0.07800X0.12611*%
%ADD89C,0.03300*%
%ADD90C,0.00394*%
%ADD91C,0.00197*%
%ADD92C,0.00667*%
D91*
X5031873Y4222094D02*
Y4226094D01*
X5035873D01*
Y4222094D01*
X5031873D01*
X4637148Y4220480D02*
Y4224480D01*
X4641148D01*
Y4220480D01*
X4637148D01*
X4637148Y4453512D02*
Y4457512D01*
X4641148D01*
Y4453512D01*
X4637148D01*
X4722810Y4484435D02*
X4720810Y4488435D01*
X4724810D01*
X4722810Y4484435D01*
X4752337D02*
X4750337Y4488435D01*
X4754337D01*
X4752337Y4484435D01*
X4777928D02*
X4775928Y4488435D01*
X4779928D01*
X4777928Y4484435D01*
X4807455D02*
X4805455Y4488435D01*
X4809455D01*
X4807455Y4484435D01*
X4833046D02*
X4831046Y4488435D01*
X4835046D01*
X4833046Y4484435D01*
X4862573D02*
X4860574Y4488435D01*
X4864573D01*
X4862573Y4484435D01*
X4874581Y4499199D02*
X4875581Y4500198D01*
X4876581D01*
X4875581Y4501199D01*
X4876581Y4502198D01*
X4875581D01*
X4874581Y4503198D01*
X4873581Y4502198D01*
X4872581D01*
X4873581Y4501199D01*
X4872581Y4500198D01*
X4873581D01*
X4874581Y4499199D01*
X4710802D02*
X4711802Y4500198D01*
X4712802D01*
X4711802Y4501199D01*
X4712802Y4502198D01*
X4711802D01*
X4710802Y4503198D01*
X4709802Y4502198D01*
X4708802D01*
X4709802Y4501199D01*
X4708802Y4500198D01*
X4709802D01*
X4710802Y4499199D01*
X4743869Y4447491D02*
X4744869Y4449491D01*
X4743869Y4451491D01*
X4745869Y4450491D01*
X4747869Y4451491D01*
X4746869Y4449491D01*
X4747869Y4447491D01*
X4745869Y4448491D01*
X4743869Y4447491D01*
X4753869D02*
X4754869Y4449491D01*
X4753869Y4451491D01*
X4755869Y4450491D01*
X4757869Y4451491D01*
X4756869Y4449491D01*
X4757869Y4447491D01*
X4755869Y4448491D01*
X4753869Y4447491D01*
X4850424Y4230697D02*
X4851424Y4232697D01*
X4850424Y4234697D01*
X4852424Y4233698D01*
X4854424Y4234697D01*
X4853424Y4232697D01*
X4854424Y4230697D01*
X4852424Y4231697D01*
X4850424Y4230697D01*
X4860424D02*
X4861424Y4232697D01*
X4860424Y4234697D01*
X4862424Y4233698D01*
X4864424Y4234697D01*
X4863424Y4232697D01*
X4864424Y4230697D01*
X4862424Y4231697D01*
X4860424Y4230697D01*
X4929369Y4464189D02*
X4930369Y4466189D01*
X4929369Y4468189D01*
X4931369Y4467189D01*
X4933369Y4468189D01*
X4932369Y4466189D01*
X4933369Y4464189D01*
X4931369Y4465189D01*
X4929369Y4464189D01*
X4939369D02*
X4940369Y4466189D01*
X4939369Y4468189D01*
X4941369Y4467189D01*
X4943369Y4468189D01*
X4942369Y4466189D01*
X4943369Y4464189D01*
X4941369Y4465189D01*
X4939369Y4464189D01*
X4734369Y4358689D02*
Y4357689D01*
X4736369D01*
Y4358689D01*
X4737369D01*
Y4360689D01*
X4736369D01*
Y4361689D01*
X4734369D01*
Y4360689D01*
X4733369D01*
Y4358689D01*
X4734369D01*
X4724369D02*
Y4357689D01*
X4726369D01*
Y4358689D01*
X4727369D01*
Y4360689D01*
X4726369D01*
Y4361689D01*
X4724369D01*
Y4360689D01*
X4723369D01*
Y4358689D01*
X4724369D01*
X4750869Y4383689D02*
Y4382689D01*
X4752869D01*
Y4383689D01*
X4753869D01*
Y4385689D01*
X4752869D01*
Y4386689D01*
X4750869D01*
Y4385689D01*
X4749869D01*
Y4383689D01*
X4750869D01*
X4760869D02*
Y4382689D01*
X4762869D01*
Y4383689D01*
X4763869D01*
Y4385689D01*
X4762869D01*
Y4386689D01*
X4760869D01*
Y4385689D01*
X4759869D01*
Y4383689D01*
X4760869D01*
X4788369Y4310689D02*
Y4309689D01*
X4790369D01*
Y4310689D01*
X4791369D01*
Y4312689D01*
X4790369D01*
Y4313689D01*
X4788369D01*
Y4312689D01*
X4787369D01*
Y4310689D01*
X4788369D01*
X4798369D02*
Y4309689D01*
X4800369D01*
Y4310689D01*
X4801369D01*
Y4312689D01*
X4800369D01*
Y4313689D01*
X4798369D01*
Y4312689D01*
X4797369D01*
Y4310689D01*
X4798369D01*
X4685869Y4473189D02*
Y4472189D01*
X4687869D01*
Y4473189D01*
X4688869D01*
Y4475189D01*
X4687869D01*
Y4476189D01*
X4685869D01*
Y4475189D01*
X4684869D01*
Y4473189D01*
X4685869D01*
X4675869D02*
Y4472189D01*
X4677869D01*
Y4473189D01*
X4678869D01*
Y4475189D01*
X4677869D01*
Y4476189D01*
X4675869D01*
Y4475189D01*
X4674869D01*
Y4473189D01*
X4675869D01*
X4685869Y4396189D02*
Y4395189D01*
X4687869D01*
Y4396189D01*
X4688869D01*
Y4398189D01*
X4687869D01*
Y4399189D01*
X4685869D01*
Y4398189D01*
X4684869D01*
Y4396189D01*
X4685869D01*
X4675869D02*
Y4395189D01*
X4677869D01*
Y4396189D01*
X4678869D01*
Y4398189D01*
X4677869D01*
Y4399189D01*
X4675869D01*
Y4398189D01*
X4674869D01*
Y4396189D01*
X4675869D01*
X4749369Y4321689D02*
Y4320689D01*
X4751369D01*
Y4321689D01*
X4752369D01*
Y4323689D01*
X4751369D01*
Y4324689D01*
X4749369D01*
Y4323689D01*
X4748369D01*
Y4321689D01*
X4749369D01*
Y4311689D02*
Y4310689D01*
X4751369D01*
Y4311689D01*
X4752369D01*
Y4313689D01*
X4751369D01*
Y4314689D01*
X4749369D01*
Y4313689D01*
X4748369D01*
Y4311689D01*
X4749369D01*
X4758369Y4256189D02*
Y4255189D01*
X4760369D01*
Y4256189D01*
X4761369D01*
Y4258189D01*
X4760369D01*
Y4259189D01*
X4758369D01*
Y4258189D01*
X4757369D01*
Y4256189D01*
X4758369D01*
X4748369D02*
Y4255189D01*
X4750369D01*
Y4256189D01*
X4751369D01*
Y4258189D01*
X4750369D01*
Y4259189D01*
X4748369D01*
Y4258189D01*
X4747369D01*
Y4256189D01*
X4748369D01*
X4842369Y4310689D02*
Y4309689D01*
X4844369D01*
Y4310689D01*
X4845369D01*
Y4312689D01*
X4844369D01*
Y4313689D01*
X4842369D01*
Y4312689D01*
X4841369D01*
Y4310689D01*
X4842369D01*
X4852369D02*
Y4309689D01*
X4854369D01*
Y4310689D01*
X4855369D01*
Y4312689D01*
X4854369D01*
Y4313689D01*
X4852369D01*
Y4312689D01*
X4851369D01*
Y4310689D01*
X4852369D01*
X4966869Y4518689D02*
Y4517689D01*
X4968869D01*
Y4518689D01*
X4969869D01*
Y4520689D01*
X4968869D01*
Y4521689D01*
X4966869D01*
Y4520689D01*
X4965869D01*
Y4518689D01*
X4966869D01*
Y4508689D02*
Y4507689D01*
X4968869D01*
Y4508689D01*
X4969869D01*
Y4510689D01*
X4968869D01*
Y4511689D01*
X4966869D01*
Y4510689D01*
X4965869D01*
Y4508689D01*
X4966869D01*
X4881869Y4391689D02*
Y4390689D01*
X4883869D01*
Y4391689D01*
X4884869D01*
Y4393689D01*
X4883869D01*
Y4394689D01*
X4881869D01*
Y4393689D01*
X4880869D01*
Y4391689D01*
X4881869D01*
X4891869D02*
Y4390689D01*
X4893869D01*
Y4391689D01*
X4894869D01*
Y4393689D01*
X4893869D01*
Y4394689D01*
X4891869D01*
Y4393689D01*
X4890869D01*
Y4391689D01*
X4891869D01*
X4896869Y4355189D02*
Y4354189D01*
X4898869D01*
Y4355189D01*
X4899869D01*
Y4357189D01*
X4898869D01*
Y4358189D01*
X4896869D01*
Y4357189D01*
X4895869D01*
Y4355189D01*
X4896869D01*
X4906869D02*
Y4354189D01*
X4908869D01*
Y4355189D01*
X4909869D01*
Y4357189D01*
X4908869D01*
Y4358189D01*
X4906869D01*
Y4357189D01*
X4905869D01*
Y4355189D01*
X4906869D01*
X4797424Y4233189D02*
Y4232189D01*
X4799424D01*
Y4233189D01*
X4800424D01*
Y4235189D01*
X4799424D01*
Y4236189D01*
X4797424D01*
Y4235189D01*
X4796424D01*
Y4233189D01*
X4797424D01*
X4807424D02*
Y4232189D01*
X4809424D01*
Y4233189D01*
X4810424D01*
Y4235189D01*
X4809424D01*
Y4236189D01*
X4807424D01*
Y4235189D01*
X4806424D01*
Y4233189D01*
X4807424D01*
X4653869Y4318374D02*
X4654869D01*
X4655869Y4319374D01*
X4656869Y4318374D01*
X4657869D01*
Y4319374D01*
X4656869Y4320374D01*
X4657869Y4321374D01*
Y4322374D01*
X4656869D01*
X4655869Y4321374D01*
X4654869Y4322374D01*
X4653869D01*
Y4321374D01*
X4654869Y4320374D01*
X4653869Y4319374D01*
Y4318374D01*
Y4308532D02*
X4654869D01*
X4655869Y4309531D01*
X4656869Y4308532D01*
X4657869D01*
Y4309531D01*
X4656869Y4310532D01*
X4657869Y4311531D01*
Y4312532D01*
X4656869D01*
X4655869Y4311531D01*
X4654869Y4312532D01*
X4653869D01*
Y4311531D01*
X4654869Y4310532D01*
X4653869Y4309531D01*
Y4308532D01*
Y4298689D02*
X4654869D01*
X4655869Y4299689D01*
X4656869Y4298689D01*
X4657869D01*
Y4299689D01*
X4656869Y4300689D01*
X4657869Y4301689D01*
Y4302689D01*
X4656869D01*
X4655869Y4301689D01*
X4654869Y4302689D01*
X4653869D01*
Y4301689D01*
X4654869Y4300689D01*
X4653869Y4299689D01*
Y4298689D01*
Y4288847D02*
X4654869D01*
X4655869Y4289846D01*
X4656869Y4288847D01*
X4657869D01*
Y4289846D01*
X4656869Y4290847D01*
X4657869Y4291846D01*
Y4292847D01*
X4656869D01*
X4655869Y4291846D01*
X4654869Y4292847D01*
X4653869D01*
Y4291846D01*
X4654869Y4290847D01*
X4653869Y4289846D01*
Y4288847D01*
X4823369Y4334161D02*
X4824369D01*
X4825369Y4335161D01*
X4826369Y4334161D01*
X4827369D01*
Y4335161D01*
X4826369Y4336161D01*
X4827369Y4337161D01*
Y4338161D01*
X4826369D01*
X4825369Y4337161D01*
X4824369Y4338161D01*
X4823369D01*
Y4337161D01*
X4824369Y4336161D01*
X4823369Y4335161D01*
Y4334161D01*
Y4344004D02*
X4824369D01*
X4825369Y4345004D01*
X4826369Y4344004D01*
X4827369D01*
Y4345004D01*
X4826369Y4346004D01*
X4827369Y4347004D01*
Y4348004D01*
X4826369D01*
X4825369Y4347004D01*
X4824369Y4348004D01*
X4823369D01*
Y4347004D01*
X4824369Y4346004D01*
X4823369Y4345004D01*
Y4344004D01*
Y4353846D02*
X4824369D01*
X4825369Y4354847D01*
X4826369Y4353846D01*
X4827369D01*
Y4354847D01*
X4826369Y4355846D01*
X4827369Y4356846D01*
Y4357846D01*
X4826369D01*
X4825369Y4356846D01*
X4824369Y4357846D01*
X4823369D01*
Y4356846D01*
X4824369Y4355846D01*
X4823369Y4354847D01*
Y4353846D01*
Y4363689D02*
X4824369D01*
X4825369Y4364689D01*
X4826369Y4363689D01*
X4827369D01*
Y4364689D01*
X4826369Y4365689D01*
X4827369Y4366689D01*
Y4367689D01*
X4826369D01*
X4825369Y4366689D01*
X4824369Y4367689D01*
X4823369D01*
Y4366689D01*
X4824369Y4365689D01*
X4823369Y4364689D01*
Y4363689D01*
X4648626Y4509860D02*
X4650626Y4511860D01*
X4652626Y4509860D01*
X4650626Y4507860D01*
X4648626Y4509860D01*
X4648526Y4490569D02*
X4650526Y4492569D01*
X4652526Y4490569D01*
X4650526Y4488568D01*
X4648526Y4490569D01*
X4637503Y4500805D02*
X4639503Y4502805D01*
X4641503Y4500805D01*
X4639503Y4498805D01*
X4637503Y4500805D01*
X4674869Y4418484D02*
Y4422484D01*
X4678869D01*
Y4418484D01*
X4674869D01*
X4675669Y4419284D02*
Y4421684D01*
X4678069D01*
Y4419284D01*
X4675669D01*
X4981569Y4362389D02*
Y4366389D01*
X4985569D01*
Y4362389D01*
X4981569D01*
X4982369Y4363189D02*
Y4365589D01*
X4984769D01*
Y4363189D01*
X4982369D01*
X4928969Y4384789D02*
Y4388789D01*
X4932969D01*
Y4384789D01*
X4928969D01*
X4929769Y4385589D02*
Y4387989D01*
X4932169D01*
Y4385589D01*
X4929769D01*
X4916969Y4376489D02*
Y4380489D01*
X4920969D01*
Y4376489D01*
X4916969D01*
X4917769Y4377289D02*
Y4379689D01*
X4920169D01*
Y4377289D01*
X4917769D01*
X4914869Y4373189D02*
Y4377189D01*
X4918869D01*
Y4373189D01*
X4914869D01*
X4915669Y4373989D02*
Y4376389D01*
X4918069D01*
Y4373989D01*
X4915669D01*
X4701676Y4423689D02*
Y4427689D01*
X4705676D01*
Y4423689D01*
X4701676D01*
X4702476Y4424489D02*
Y4426889D01*
X4704876D01*
Y4424489D01*
X4702476D01*
X4674869Y4375689D02*
Y4379689D01*
X4678869D01*
Y4375689D01*
X4674869D01*
X4675669Y4376489D02*
Y4378889D01*
X4678069D01*
Y4376489D01*
X4675669D01*
X4739888Y4235189D02*
Y4239189D01*
X4743888D01*
Y4235189D01*
X4739888D01*
X4740688Y4235989D02*
Y4238389D01*
X4743089D01*
Y4235989D01*
X4740688D01*
X4739888Y4231189D02*
Y4235189D01*
X4743888D01*
Y4231189D01*
X4739888D01*
X4740688Y4231989D02*
Y4234389D01*
X4743089D01*
Y4231989D01*
X4740688D01*
X5065369Y4215689D02*
Y4219689D01*
X5069369D01*
Y4215689D01*
X5065369D01*
X5066169Y4216489D02*
Y4218889D01*
X5068569D01*
Y4216489D01*
X5066169D01*
X5069369Y4215689D02*
Y4219689D01*
X5073369D01*
Y4215689D01*
X5069369D01*
X5070169Y4216489D02*
Y4218889D01*
X5072569D01*
Y4216489D01*
X5070169D01*
X5073369Y4215689D02*
Y4219689D01*
X5077369D01*
Y4215689D01*
X5073369D01*
X5074169Y4216489D02*
Y4218889D01*
X5076569D01*
Y4216489D01*
X5074169D01*
X5011369Y4359189D02*
Y4363189D01*
X5015369D01*
Y4359189D01*
X5011369D01*
X5012169Y4359989D02*
Y4362389D01*
X5014569D01*
Y4359989D01*
X5012169D01*
X4982369Y4321189D02*
Y4325189D01*
X4986369D01*
Y4321189D01*
X4982369D01*
X4983169Y4321989D02*
Y4324389D01*
X4985569D01*
Y4321989D01*
X4983169D01*
X4983869Y4332689D02*
Y4336689D01*
X4987869D01*
Y4332689D01*
X4983869D01*
X4984669Y4333489D02*
Y4335889D01*
X4987069D01*
Y4333489D01*
X4984669D01*
X4975369Y4332689D02*
Y4336689D01*
X4979369D01*
Y4332689D01*
X4975369D01*
X4976169Y4333489D02*
Y4335889D01*
X4978569D01*
Y4333489D01*
X4976169D01*
X4987369Y4326189D02*
Y4330189D01*
X4991369D01*
Y4326189D01*
X4987369D01*
X4988169Y4326989D02*
Y4329389D01*
X4990569D01*
Y4326989D01*
X4988169D01*
X4966369Y4348189D02*
Y4352189D01*
X4970369D01*
Y4348189D01*
X4966369D01*
X4967169Y4348989D02*
Y4351389D01*
X4969569D01*
Y4348989D01*
X4967169D01*
X4909869Y4313689D02*
Y4317689D01*
X4913869D01*
Y4313689D01*
X4909869D01*
X4910669Y4314489D02*
Y4316889D01*
X4913069D01*
Y4314489D01*
X4910669D01*
X4904869Y4313689D02*
Y4317689D01*
X4908869D01*
Y4313689D01*
X4904869D01*
X4905669Y4314489D02*
Y4316889D01*
X4908069D01*
Y4314489D01*
X4905669D01*
X5005869Y4442189D02*
Y4446189D01*
X5009869D01*
Y4442189D01*
X5005869D01*
X5006669Y4442989D02*
Y4445389D01*
X5009069D01*
Y4442989D01*
X5006669D01*
X4982369Y4425189D02*
Y4429189D01*
X4986369D01*
Y4425189D01*
X4982369D01*
X4983169Y4425989D02*
Y4428389D01*
X4985569D01*
Y4425989D01*
X4983169D01*
X4977369Y4425189D02*
Y4429189D01*
X4981369D01*
Y4425189D01*
X4977369D01*
X4978169Y4425989D02*
Y4428389D01*
X4980569D01*
Y4425989D01*
X4978169D01*
X4994369Y4405689D02*
Y4409689D01*
X4998369D01*
Y4405689D01*
X4994369D01*
X4995169Y4406489D02*
Y4408889D01*
X4997569D01*
Y4406489D01*
X4995169D01*
X4994369Y4410689D02*
Y4414689D01*
X4998369D01*
Y4410689D01*
X4994369D01*
X4995169Y4411489D02*
Y4413889D01*
X4997569D01*
Y4411489D01*
X4995169D01*
X4988869Y4379689D02*
Y4383689D01*
X4992869D01*
Y4379689D01*
X4988869D01*
X4989669Y4380489D02*
Y4382889D01*
X4992069D01*
Y4380489D01*
X4989669D01*
X4993869Y4384189D02*
Y4388189D01*
X4997869D01*
Y4384189D01*
X4993869D01*
X4994669Y4384989D02*
Y4387389D01*
X4997069D01*
Y4384989D01*
X4994669D01*
X4963869Y4378689D02*
Y4382689D01*
X4967869D01*
Y4378689D01*
X4963869D01*
X4964669Y4379489D02*
Y4381889D01*
X4967069D01*
Y4379489D01*
X4964669D01*
X4948369Y4425189D02*
Y4429189D01*
X4952369D01*
Y4425189D01*
X4948369D01*
X4949169Y4425989D02*
Y4428389D01*
X4951569D01*
Y4425989D01*
X4949169D01*
X4948369Y4391689D02*
Y4395689D01*
X4952369D01*
Y4391689D01*
X4948369D01*
X4949169Y4392489D02*
Y4394889D01*
X4951569D01*
Y4392489D01*
X4949169D01*
X4948369Y4414004D02*
Y4418004D01*
X4952369D01*
Y4414004D01*
X4948369D01*
X4949169Y4414804D02*
Y4417204D01*
X4951569D01*
Y4414804D01*
X4949169D01*
X4931369Y4421189D02*
Y4425189D01*
X4935369D01*
Y4421189D01*
X4931369D01*
X4932169Y4421989D02*
Y4424389D01*
X4934569D01*
Y4421989D01*
X4932169D01*
X4902869Y4321189D02*
Y4325189D01*
X4906869D01*
Y4321189D01*
X4902869D01*
X4903669Y4321989D02*
Y4324389D01*
X4906069D01*
Y4321989D01*
X4903669D01*
X4898869Y4321189D02*
Y4325189D01*
X4902869D01*
Y4321189D01*
X4898869D01*
X4899669Y4321989D02*
Y4324389D01*
X4902069D01*
Y4321989D01*
X4899669D01*
X4894869Y4321189D02*
Y4325189D01*
X4898869D01*
Y4321189D01*
X4894869D01*
X4895669Y4321989D02*
Y4324389D01*
X4898069D01*
Y4321989D01*
X4895669D01*
X4691369Y4432189D02*
Y4436189D01*
X4695369D01*
Y4432189D01*
X4691369D01*
X4692169Y4432989D02*
Y4435389D01*
X4694569D01*
Y4432989D01*
X4692169D01*
X4691369Y4436189D02*
Y4440189D01*
X4695369D01*
Y4436189D01*
X4691369D01*
X4692169Y4436989D02*
Y4439389D01*
X4694569D01*
Y4436989D01*
X4692169D01*
X4691369Y4440189D02*
Y4444189D01*
X4695369D01*
Y4440189D01*
X4691369D01*
X4692169Y4440989D02*
Y4443389D01*
X4694569D01*
Y4440989D01*
X4692169D01*
X4738369Y4282189D02*
Y4286189D01*
X4742369D01*
Y4282189D01*
X4738369D01*
X4739169Y4282989D02*
Y4285389D01*
X4741569D01*
Y4282989D01*
X4739169D01*
X4714869Y4300689D02*
Y4304689D01*
X4718869D01*
Y4300689D01*
X4714869D01*
X4715669Y4301489D02*
Y4303889D01*
X4718069D01*
Y4301489D01*
X4715669D01*
X4718869Y4300689D02*
Y4304689D01*
X4722869D01*
Y4300689D01*
X4718869D01*
X4719669Y4301489D02*
Y4303889D01*
X4722069D01*
Y4301489D01*
X4719669D01*
X4702869Y4311689D02*
Y4315689D01*
X4706869D01*
Y4311689D01*
X4702869D01*
X4703669Y4312489D02*
Y4314889D01*
X4706069D01*
Y4312489D01*
X4703669D01*
X4702869Y4307689D02*
Y4311689D01*
X4706869D01*
Y4307689D01*
X4702869D01*
X4703669Y4308489D02*
Y4310889D01*
X4706069D01*
Y4308489D01*
X4703669D01*
X4736369Y4303189D02*
Y4307189D01*
X4740369D01*
Y4303189D01*
X4736369D01*
X4737169Y4303989D02*
Y4306389D01*
X4739569D01*
Y4303989D01*
X4737169D01*
X4913869Y4362189D02*
Y4366189D01*
X4917869D01*
Y4362189D01*
X4913869D01*
X4914669Y4362989D02*
Y4365389D01*
X4917069D01*
Y4362989D01*
X4914669D01*
X4948369Y4405189D02*
Y4409189D01*
X4952369D01*
Y4405189D01*
X4948369D01*
X4949169Y4405989D02*
Y4408389D01*
X4951569D01*
Y4405989D01*
X4949169D01*
X4713369Y4435689D02*
Y4439689D01*
X4717369D01*
Y4435689D01*
X4713369D01*
X4714169Y4436489D02*
Y4438889D01*
X4716569D01*
Y4436489D01*
X4714169D01*
X4859369Y4348189D02*
Y4352189D01*
X4863369D01*
Y4348189D01*
X4859369D01*
X4860169Y4348989D02*
Y4351389D01*
X4862569D01*
Y4348989D01*
X4860169D01*
X4858869Y4363689D02*
Y4367689D01*
X4862869D01*
Y4363689D01*
X4858869D01*
X4859669Y4364489D02*
Y4366889D01*
X4862069D01*
Y4364489D01*
X4859669D01*
X5005369Y4371189D02*
Y4375189D01*
X5009369D01*
Y4371189D01*
X5005369D01*
X5006169Y4371989D02*
Y4374389D01*
X5008569D01*
Y4371989D01*
X5006169D01*
X5000369Y4371189D02*
Y4375189D01*
X5004369D01*
Y4371189D01*
X5000369D01*
X5001169Y4371989D02*
Y4374389D01*
X5003569D01*
Y4371989D01*
X5001169D01*
X4914869Y4403189D02*
Y4407189D01*
X4918869D01*
Y4403189D01*
X4914869D01*
X4915669Y4403989D02*
Y4406389D01*
X4918069D01*
Y4403989D01*
X4915669D01*
X4914869Y4410689D02*
Y4414689D01*
X4918869D01*
Y4410689D01*
X4914869D01*
X4915669Y4411489D02*
Y4413889D01*
X4918069D01*
Y4411489D01*
X4915669D01*
X4994369Y4439189D02*
Y4443189D01*
X4998369D01*
Y4439189D01*
X4994369D01*
X4995169Y4439989D02*
Y4442389D01*
X4997569D01*
Y4439989D01*
X4995169D01*
X4999369Y4433689D02*
Y4437689D01*
X5003369D01*
Y4433689D01*
X4999369D01*
X5000169Y4434489D02*
Y4436889D01*
X5002569D01*
Y4434489D01*
X5000169D01*
X4914869Y4425689D02*
Y4429689D01*
X4918869D01*
Y4425689D01*
X4914869D01*
X4915669Y4426489D02*
Y4428889D01*
X4918069D01*
Y4426489D01*
X4915669D01*
X4914869Y4418189D02*
Y4422189D01*
X4918869D01*
Y4418189D01*
X4914869D01*
X4915669Y4418989D02*
Y4421389D01*
X4918069D01*
Y4418989D01*
X4915669D01*
X4967369Y4455689D02*
Y4459689D01*
X4971369D01*
Y4455689D01*
X4967369D01*
X4968169Y4456489D02*
Y4458889D01*
X4970569D01*
Y4456489D01*
X4968169D01*
X4918869Y4453189D02*
Y4457189D01*
X4922869D01*
Y4453189D01*
X4918869D01*
X4919669Y4453989D02*
Y4456389D01*
X4922069D01*
Y4453989D01*
X4919669D01*
X4950869Y4463189D02*
Y4467189D01*
X4954869D01*
Y4463189D01*
X4950869D01*
X4951669Y4463989D02*
Y4466389D01*
X4954069D01*
Y4463989D01*
X4951669D01*
X4950869Y4467189D02*
Y4471189D01*
X4954869D01*
Y4467189D01*
X4950869D01*
X4951669Y4467989D02*
Y4470389D01*
X4954069D01*
Y4467989D01*
X4951669D01*
X4920869Y4450189D02*
Y4454189D01*
X4924869D01*
Y4450189D01*
X4920869D01*
X4921669Y4450989D02*
Y4453389D01*
X4924069D01*
Y4450989D01*
X4921669D01*
X5004869Y4456189D02*
Y4460189D01*
X5008869D01*
Y4456189D01*
X5004869D01*
X5005669Y4456989D02*
Y4459389D01*
X5008069D01*
Y4456989D01*
X5005669D01*
X5035869Y4411689D02*
Y4415689D01*
X5039869D01*
Y4411689D01*
X5035869D01*
X5036669Y4412489D02*
Y4414889D01*
X5039069D01*
Y4412489D01*
X5036669D01*
X4946369Y4339189D02*
Y4343189D01*
X4950369D01*
Y4339189D01*
X4946369D01*
X4947169Y4339989D02*
Y4342389D01*
X4949569D01*
Y4339989D01*
X4947169D01*
X4992369Y4321689D02*
Y4325689D01*
X4996369D01*
Y4321689D01*
X4992369D01*
X4993169Y4322489D02*
Y4324889D01*
X4995569D01*
Y4322489D01*
X4993169D01*
X4981369Y4348689D02*
Y4352689D01*
X4985369D01*
Y4348689D01*
X4981369D01*
X4982169Y4349489D02*
Y4351889D01*
X4984569D01*
Y4349489D01*
X4982169D01*
X5039369Y4299189D02*
Y4303189D01*
X5043369D01*
Y4299189D01*
X5039369D01*
X5040169Y4299989D02*
Y4302389D01*
X5042569D01*
Y4299989D01*
X5040169D01*
X5001369Y4458689D02*
Y4462689D01*
X5005369D01*
Y4458689D01*
X5001369D01*
X5002169Y4459489D02*
Y4461889D01*
X5004569D01*
Y4459489D01*
X5002169D01*
X4955869Y4268189D02*
Y4272189D01*
X4959869D01*
Y4268189D01*
X4955869D01*
X4956669Y4268989D02*
Y4271389D01*
X4959069D01*
Y4268989D01*
X4956669D01*
X4955869Y4317189D02*
Y4321189D01*
X4959869D01*
Y4317189D01*
X4955869D01*
X4956669Y4317989D02*
Y4320389D01*
X4959069D01*
Y4317989D01*
X4956669D01*
X4988369Y4317689D02*
Y4321689D01*
X4992369D01*
Y4317689D01*
X4988369D01*
X4989169Y4318489D02*
Y4320889D01*
X4991569D01*
Y4318489D01*
X4989169D01*
X4955869Y4306689D02*
Y4310689D01*
X4959869D01*
Y4306689D01*
X4955869D01*
X4956669Y4307489D02*
Y4309889D01*
X4959069D01*
Y4307489D01*
X4956669D01*
X4955869Y4281189D02*
Y4285189D01*
X4959869D01*
Y4281189D01*
X4955869D01*
X4956669Y4281989D02*
Y4284389D01*
X4959069D01*
Y4281989D01*
X4956669D01*
X4955869Y4291189D02*
Y4295189D01*
X4959869D01*
Y4291189D01*
X4955869D01*
X4956669Y4291989D02*
Y4294389D01*
X4959069D01*
Y4291989D01*
X4956669D01*
X5030869Y4361689D02*
Y4365689D01*
X5034869D01*
Y4361689D01*
X5030869D01*
X5031669Y4362489D02*
Y4364889D01*
X5034069D01*
Y4362489D01*
X5031669D01*
X5034869Y4361689D02*
Y4365689D01*
X5038869D01*
Y4361689D01*
X5034869D01*
X5035669Y4362489D02*
Y4364889D01*
X5038069D01*
Y4362489D01*
X5035669D01*
X5041369Y4377189D02*
Y4381189D01*
X5045369D01*
Y4377189D01*
X5041369D01*
X5042169Y4377989D02*
Y4380389D01*
X5044569D01*
Y4377989D01*
X5042169D01*
X5032369Y4337189D02*
Y4341189D01*
X5036369D01*
Y4337189D01*
X5032369D01*
X5033169Y4337989D02*
Y4340389D01*
X5035569D01*
Y4337989D01*
X5033169D01*
X5032369Y4333189D02*
Y4337189D01*
X5036369D01*
Y4333189D01*
X5032369D01*
X5033169Y4333989D02*
Y4336389D01*
X5035569D01*
Y4333989D01*
X5033169D01*
X5032369Y4329189D02*
Y4333189D01*
X5036369D01*
Y4329189D01*
X5032369D01*
X5033169Y4329989D02*
Y4332389D01*
X5035569D01*
Y4329989D01*
X5033169D01*
X5028869Y4410189D02*
Y4414189D01*
X5032869D01*
Y4410189D01*
X5028869D01*
X5029669Y4410989D02*
Y4413389D01*
X5032069D01*
Y4410989D01*
X5029669D01*
X5027369Y4390189D02*
Y4394189D01*
X5031369D01*
Y4390189D01*
X5027369D01*
X5028169Y4390989D02*
Y4393389D01*
X5030569D01*
Y4390989D01*
X5028169D01*
X5044369Y4384689D02*
Y4388689D01*
X5048369D01*
Y4384689D01*
X5044369D01*
X5045169Y4385489D02*
Y4387889D01*
X5047569D01*
Y4385489D01*
X5045169D01*
X5027369Y4398189D02*
Y4402189D01*
X5031369D01*
Y4398189D01*
X5027369D01*
X5028169Y4398989D02*
Y4401389D01*
X5030569D01*
Y4398989D01*
X5028169D01*
X5032369Y4418689D02*
Y4422689D01*
X5036369D01*
Y4418689D01*
X5032369D01*
X5033169Y4419489D02*
Y4421889D01*
X5035569D01*
Y4419489D01*
X5033169D01*
X5049869Y4398689D02*
Y4402689D01*
X5053869D01*
Y4398689D01*
X5049869D01*
X5050669Y4399489D02*
Y4401889D01*
X5053069D01*
Y4399489D01*
X5050669D01*
X4983869Y4488689D02*
Y4492689D01*
X4987869D01*
Y4488689D01*
X4983869D01*
X4984669Y4489489D02*
Y4491889D01*
X4987069D01*
Y4489489D01*
X4984669D01*
X4987869Y4488689D02*
Y4492689D01*
X4991869D01*
Y4488689D01*
X4987869D01*
X4988669Y4489489D02*
Y4491889D01*
X4991069D01*
Y4489489D01*
X4988669D01*
X4991869Y4488689D02*
Y4492689D01*
X4995869D01*
Y4488689D01*
X4991869D01*
X4992669Y4489489D02*
Y4491889D01*
X4995069D01*
Y4489489D01*
X4992669D01*
X4856869Y4442689D02*
Y4446689D01*
X4860869D01*
Y4442689D01*
X4856869D01*
X4857669Y4443489D02*
Y4445889D01*
X4860069D01*
Y4443489D01*
X4857669D01*
X4852869Y4442689D02*
Y4446689D01*
X4856869D01*
Y4442689D01*
X4852869D01*
X4853669Y4443489D02*
Y4445889D01*
X4856069D01*
Y4443489D01*
X4853669D01*
X4848869Y4442689D02*
Y4446689D01*
X4852869D01*
Y4442689D01*
X4848869D01*
X4849669Y4443489D02*
Y4445889D01*
X4852069D01*
Y4443489D01*
X4849669D01*
X4815369Y4406189D02*
Y4410189D01*
X4819369D01*
Y4406189D01*
X4815369D01*
X4816169Y4406989D02*
Y4409389D01*
X4818569D01*
Y4406989D01*
X4816169D01*
X4811369Y4406189D02*
Y4410189D01*
X4815369D01*
Y4406189D01*
X4811369D01*
X4812169Y4406989D02*
Y4409389D01*
X4814569D01*
Y4406989D01*
X4812169D01*
X4807369Y4406189D02*
Y4410189D01*
X4811369D01*
Y4406189D01*
X4807369D01*
X4808169Y4406989D02*
Y4409389D01*
X4810569D01*
Y4406989D01*
X4808169D01*
X4811869Y4425689D02*
Y4429689D01*
X4815869D01*
Y4425689D01*
X4811869D01*
X4812669Y4426489D02*
Y4428889D01*
X4815069D01*
Y4426489D01*
X4812669D01*
X4815869Y4425689D02*
Y4429689D01*
X4819869D01*
Y4425689D01*
X4815869D01*
X4816669Y4426489D02*
Y4428889D01*
X4819069D01*
Y4426489D01*
X4816669D01*
X4819869Y4425689D02*
Y4429689D01*
X4823869D01*
Y4425689D01*
X4819869D01*
X4820669Y4426489D02*
Y4428889D01*
X4823069D01*
Y4426489D01*
X4820669D01*
X4799869Y4382689D02*
Y4386689D01*
X4803869D01*
Y4382689D01*
X4799869D01*
X4800669Y4383489D02*
Y4385889D01*
X4803069D01*
Y4383489D01*
X4800669D01*
X4795869Y4382689D02*
Y4386689D01*
X4799869D01*
Y4382689D01*
X4795869D01*
X4796669Y4383489D02*
Y4385889D01*
X4799069D01*
Y4383489D01*
X4796669D01*
X4791869Y4382689D02*
Y4386689D01*
X4795869D01*
Y4382689D01*
X4791869D01*
X4792669Y4383489D02*
Y4385889D01*
X4795069D01*
Y4383489D01*
X4792669D01*
X4826869Y4382189D02*
Y4386189D01*
X4830869D01*
Y4382189D01*
X4826869D01*
X4827669Y4382989D02*
Y4385389D01*
X4830069D01*
Y4382989D01*
X4827669D01*
X4830869Y4382189D02*
Y4386189D01*
X4834869D01*
Y4382189D01*
X4830869D01*
X4831669Y4382989D02*
Y4385389D01*
X4834069D01*
Y4382989D01*
X4831669D01*
X5077869Y4402189D02*
Y4406189D01*
X5081869D01*
Y4402189D01*
X5077869D01*
X5078669Y4402989D02*
Y4405389D01*
X5081069D01*
Y4402989D01*
X5078669D01*
X5077869Y4398189D02*
Y4402189D01*
X5081869D01*
Y4398189D01*
X5077869D01*
X5078669Y4398989D02*
Y4401389D01*
X5081069D01*
Y4398989D01*
X5078669D01*
X5077869Y4394189D02*
Y4398189D01*
X5081869D01*
Y4394189D01*
X5077869D01*
X5078669Y4394989D02*
Y4397389D01*
X5081069D01*
Y4394989D01*
X5078669D01*
X5079869Y4356189D02*
Y4360189D01*
X5083869D01*
Y4356189D01*
X5079869D01*
X5080669Y4356989D02*
Y4359389D01*
X5083069D01*
Y4356989D01*
X5080669D01*
X5079869Y4352189D02*
Y4356189D01*
X5083869D01*
Y4352189D01*
X5079869D01*
X5080669Y4352989D02*
Y4355389D01*
X5083069D01*
Y4352989D01*
X5080669D01*
X5079869Y4348189D02*
Y4352189D01*
X5083869D01*
Y4348189D01*
X5079869D01*
X5080669Y4348989D02*
Y4351389D01*
X5083069D01*
Y4348989D01*
X5080669D01*
X5078869Y4253189D02*
Y4257189D01*
X5082869D01*
Y4253189D01*
X5078869D01*
X5079669Y4253989D02*
Y4256389D01*
X5082069D01*
Y4253989D01*
X5079669D01*
X5078869Y4257189D02*
Y4261189D01*
X5082869D01*
Y4257189D01*
X5078869D01*
X5079669Y4257989D02*
Y4260389D01*
X5082069D01*
Y4257989D01*
X5079669D01*
X5078869Y4261189D02*
Y4265189D01*
X5082869D01*
Y4261189D01*
X5078869D01*
X5079669Y4261989D02*
Y4264389D01*
X5082069D01*
Y4261989D01*
X5079669D01*
X5078869Y4307189D02*
Y4311189D01*
X5082869D01*
Y4307189D01*
X5078869D01*
X5079669Y4307989D02*
Y4310389D01*
X5082069D01*
Y4307989D01*
X5079669D01*
X5078869Y4303189D02*
Y4307189D01*
X5082869D01*
Y4303189D01*
X5078869D01*
X5079669Y4303989D02*
Y4306389D01*
X5082069D01*
Y4303989D01*
X5079669D01*
X5078869Y4299189D02*
Y4303189D01*
X5082869D01*
Y4299189D01*
X5078869D01*
X5079669Y4299989D02*
Y4302389D01*
X5082069D01*
Y4299989D01*
X5079669D01*
X4967369Y4403189D02*
Y4407189D01*
X4971369D01*
Y4403189D01*
X4967369D01*
X4968169Y4403989D02*
Y4406389D01*
X4970569D01*
Y4403989D01*
X4968169D01*
X4971369Y4403189D02*
Y4407189D01*
X4975369D01*
Y4403189D01*
X4971369D01*
X4972169Y4403989D02*
Y4406389D01*
X4974569D01*
Y4403989D01*
X4972169D01*
X4975369Y4403189D02*
Y4407189D01*
X4979369D01*
Y4403189D01*
X4975369D01*
X4976169Y4403989D02*
Y4406389D01*
X4978569D01*
Y4403989D01*
X4976169D01*
X4975369Y4407189D02*
Y4411189D01*
X4979369D01*
Y4407189D01*
X4975369D01*
X4976169Y4407989D02*
Y4410389D01*
X4978569D01*
Y4407989D01*
X4976169D01*
X4971369Y4407189D02*
Y4411189D01*
X4975369D01*
Y4407189D01*
X4971369D01*
X4972169Y4407989D02*
Y4410389D01*
X4974569D01*
Y4407989D01*
X4972169D01*
X4967369Y4407189D02*
Y4411189D01*
X4971369D01*
Y4407189D01*
X4967369D01*
X4968169Y4407989D02*
Y4410389D01*
X4970569D01*
Y4407989D01*
X4968169D01*
X5055869Y4431189D02*
Y4435189D01*
X5059869D01*
Y4431189D01*
X5055869D01*
X5056669Y4431989D02*
Y4434389D01*
X5059069D01*
Y4431989D01*
X5056669D01*
X5059869Y4431189D02*
Y4435189D01*
X5063869D01*
Y4431189D01*
X5059869D01*
X5060669Y4431989D02*
Y4434389D01*
X5063069D01*
Y4431989D01*
X5060669D01*
X5063869Y4431189D02*
Y4435189D01*
X5067869D01*
Y4431189D01*
X5063869D01*
X5064669Y4431989D02*
Y4434389D01*
X5067069D01*
Y4431989D01*
X5064669D01*
X5063869Y4435189D02*
Y4439189D01*
X5067869D01*
Y4435189D01*
X5063869D01*
X5064669Y4435989D02*
Y4438389D01*
X5067069D01*
Y4435989D01*
X5064669D01*
X5059869Y4435189D02*
Y4439189D01*
X5063869D01*
Y4435189D01*
X5059869D01*
X5060669Y4435989D02*
Y4438389D01*
X5063069D01*
Y4435989D01*
X5060669D01*
X5055869Y4435189D02*
Y4439189D01*
X5059869D01*
Y4435189D01*
X5055869D01*
X5056669Y4435989D02*
Y4438389D01*
X5059069D01*
Y4435989D01*
X5056669D01*
X5036369Y4483189D02*
Y4487189D01*
X5040369D01*
Y4483189D01*
X5036369D01*
X5037169Y4483989D02*
Y4486389D01*
X5039569D01*
Y4483989D01*
X5037169D01*
X5040369Y4483189D02*
Y4487189D01*
X5044369D01*
Y4483189D01*
X5040369D01*
X5041169Y4483989D02*
Y4486389D01*
X5043569D01*
Y4483989D01*
X5041169D01*
X5044369Y4483189D02*
Y4487189D01*
X5048369D01*
Y4483189D01*
X5044369D01*
X5045169Y4483989D02*
Y4486389D01*
X5047569D01*
Y4483989D01*
X5045169D01*
X5044369Y4487189D02*
Y4491189D01*
X5048369D01*
Y4487189D01*
X5044369D01*
X5045169Y4487989D02*
Y4490389D01*
X5047569D01*
Y4487989D01*
X5045169D01*
X5040369Y4487189D02*
Y4491189D01*
X5044369D01*
Y4487189D01*
X5040369D01*
X5041169Y4487989D02*
Y4490389D01*
X5043569D01*
Y4487989D01*
X5041169D01*
X5036369Y4487189D02*
Y4491189D01*
X5040369D01*
Y4487189D01*
X5036369D01*
X5037169Y4487989D02*
Y4490389D01*
X5039569D01*
Y4487989D01*
X5037169D01*
X5071869Y4479689D02*
Y4483689D01*
X5075869D01*
Y4479689D01*
X5071869D01*
X5072669Y4480489D02*
Y4482889D01*
X5075069D01*
Y4480489D01*
X5072669D01*
X5071869Y4475689D02*
Y4479689D01*
X5075869D01*
Y4475689D01*
X5071869D01*
X5072669Y4476489D02*
Y4478889D01*
X5075069D01*
Y4476489D01*
X5072669D01*
X5071869Y4471689D02*
Y4475689D01*
X5075869D01*
Y4471689D01*
X5071869D01*
X5072669Y4472489D02*
Y4474889D01*
X5075069D01*
Y4472489D01*
X5072669D01*
X5075869Y4471689D02*
Y4475689D01*
X5079869D01*
Y4471689D01*
X5075869D01*
X5076669Y4472489D02*
Y4474889D01*
X5079069D01*
Y4472489D01*
X5076669D01*
X5075869Y4475689D02*
Y4479689D01*
X5079869D01*
Y4475689D01*
X5075869D01*
X5076669Y4476489D02*
Y4478889D01*
X5079069D01*
Y4476489D01*
X5076669D01*
X5075869Y4479689D02*
Y4483689D01*
X5079869D01*
Y4479689D01*
X5075869D01*
X5076669Y4480489D02*
Y4482889D01*
X5079069D01*
Y4480489D01*
X5076669D01*
X5075369Y4518689D02*
Y4522689D01*
X5079369D01*
Y4518689D01*
X5075369D01*
X5076169Y4519489D02*
Y4521889D01*
X5078569D01*
Y4519489D01*
X5076169D01*
X5071369Y4518689D02*
Y4522689D01*
X5075369D01*
Y4518689D01*
X5071369D01*
X5072169Y4519489D02*
Y4521889D01*
X5074569D01*
Y4519489D01*
X5072169D01*
X5067369Y4518689D02*
Y4522689D01*
X5071369D01*
Y4518689D01*
X5067369D01*
X5068169Y4519489D02*
Y4521889D01*
X5070569D01*
Y4519489D01*
X5068169D01*
X5067369Y4514689D02*
Y4518689D01*
X5071369D01*
Y4514689D01*
X5067369D01*
X5068169Y4515489D02*
Y4517889D01*
X5070569D01*
Y4515489D01*
X5068169D01*
X5071369Y4514689D02*
Y4518689D01*
X5075369D01*
Y4514689D01*
X5071369D01*
X5072169Y4515489D02*
Y4517889D01*
X5074569D01*
Y4515489D01*
X5072169D01*
X5075369Y4514689D02*
Y4518689D01*
X5079369D01*
Y4514689D01*
X5075369D01*
X5076169Y4515489D02*
Y4517889D01*
X5078569D01*
Y4515489D01*
X5076169D01*
X5011869Y4518689D02*
Y4522689D01*
X5015869D01*
Y4518689D01*
X5011869D01*
X5012669Y4519489D02*
Y4521889D01*
X5015069D01*
Y4519489D01*
X5012669D01*
X5007869Y4518689D02*
Y4522689D01*
X5011869D01*
Y4518689D01*
X5007869D01*
X5008669Y4519489D02*
Y4521889D01*
X5011069D01*
Y4519489D01*
X5008669D01*
X5003869Y4518689D02*
Y4522689D01*
X5007869D01*
Y4518689D01*
X5003869D01*
X5004669Y4519489D02*
Y4521889D01*
X5007069D01*
Y4519489D01*
X5004669D01*
X5003869Y4514689D02*
Y4518689D01*
X5007869D01*
Y4514689D01*
X5003869D01*
X5004669Y4515489D02*
Y4517889D01*
X5007069D01*
Y4515489D01*
X5004669D01*
X5007869Y4514689D02*
Y4518689D01*
X5011869D01*
Y4514689D01*
X5007869D01*
X5008669Y4515489D02*
Y4517889D01*
X5011069D01*
Y4515489D01*
X5008669D01*
X5011869Y4514689D02*
Y4518689D01*
X5015869D01*
Y4514689D01*
X5011869D01*
X5012669Y4515489D02*
Y4517889D01*
X5015069D01*
Y4515489D01*
X5012669D01*
X4904869Y4483189D02*
Y4487189D01*
X4908869D01*
Y4483189D01*
X4904869D01*
X4905669Y4483989D02*
Y4486389D01*
X4908069D01*
Y4483989D01*
X4905669D01*
X4900869Y4483189D02*
Y4487189D01*
X4904869D01*
Y4483189D01*
X4900869D01*
X4901669Y4483989D02*
Y4486389D01*
X4904069D01*
Y4483989D01*
X4901669D01*
X4896869Y4483189D02*
Y4487189D01*
X4900869D01*
Y4483189D01*
X4896869D01*
X4897669Y4483989D02*
Y4486389D01*
X4900069D01*
Y4483989D01*
X4897669D01*
X4896869Y4479189D02*
Y4483189D01*
X4900869D01*
Y4479189D01*
X4896869D01*
X4897669Y4479989D02*
Y4482389D01*
X4900069D01*
Y4479989D01*
X4897669D01*
X4900869Y4479189D02*
Y4483189D01*
X4904869D01*
Y4479189D01*
X4900869D01*
X4901669Y4479989D02*
Y4482389D01*
X4904069D01*
Y4479989D01*
X4901669D01*
X4904869Y4479189D02*
Y4483189D01*
X4908869D01*
Y4479189D01*
X4904869D01*
X4905669Y4479989D02*
Y4482389D01*
X4908069D01*
Y4479989D01*
X4905669D01*
X4904869Y4518689D02*
Y4522689D01*
X4908869D01*
Y4518689D01*
X4904869D01*
X4905669Y4519489D02*
Y4521889D01*
X4908069D01*
Y4519489D01*
X4905669D01*
X4900869Y4518689D02*
Y4522689D01*
X4904869D01*
Y4518689D01*
X4900869D01*
X4901669Y4519489D02*
Y4521889D01*
X4904069D01*
Y4519489D01*
X4901669D01*
X4896869Y4518689D02*
Y4522689D01*
X4900869D01*
Y4518689D01*
X4896869D01*
X4897669Y4519489D02*
Y4521889D01*
X4900069D01*
Y4519489D01*
X4897669D01*
X4896869Y4514689D02*
Y4518689D01*
X4900869D01*
Y4514689D01*
X4896869D01*
X4897669Y4515489D02*
Y4517889D01*
X4900069D01*
Y4515489D01*
X4897669D01*
X4900869Y4514689D02*
Y4518689D01*
X4904869D01*
Y4514689D01*
X4900869D01*
X4901669Y4515489D02*
Y4517889D01*
X4904069D01*
Y4515489D01*
X4901669D01*
X4904869Y4514689D02*
Y4518689D01*
X4908869D01*
Y4514689D01*
X4904869D01*
X4905669Y4515489D02*
Y4517889D01*
X4908069D01*
Y4515489D01*
X4905669D01*
X4683369Y4511689D02*
Y4515689D01*
X4687369D01*
Y4511689D01*
X4683369D01*
X4684169Y4512489D02*
Y4514889D01*
X4686569D01*
Y4512489D01*
X4684169D01*
X4679369Y4511689D02*
Y4515689D01*
X4683369D01*
Y4511689D01*
X4679369D01*
X4680169Y4512489D02*
Y4514889D01*
X4682569D01*
Y4512489D01*
X4680169D01*
X4675369Y4511689D02*
Y4515689D01*
X4679369D01*
Y4511689D01*
X4675369D01*
X4676169Y4512489D02*
Y4514889D01*
X4678569D01*
Y4512489D01*
X4676169D01*
X4675369Y4507689D02*
Y4511689D01*
X4679369D01*
Y4507689D01*
X4675369D01*
X4676169Y4508489D02*
Y4510889D01*
X4678569D01*
Y4508489D01*
X4676169D01*
X4679369Y4507689D02*
Y4511689D01*
X4683369D01*
Y4507689D01*
X4679369D01*
X4680169Y4508489D02*
Y4510889D01*
X4682569D01*
Y4508489D01*
X4680169D01*
X4683369Y4507689D02*
Y4511689D01*
X4687369D01*
Y4507689D01*
X4683369D01*
X4684169Y4508489D02*
Y4510889D01*
X4686569D01*
Y4508489D01*
X4684169D01*
X4824869Y4470189D02*
Y4474189D01*
X4828869D01*
Y4470189D01*
X4824869D01*
X4825669Y4470989D02*
Y4473389D01*
X4828069D01*
Y4470989D01*
X4825669D01*
X4788869Y4440689D02*
Y4444689D01*
X4792869D01*
Y4440689D01*
X4788869D01*
X4789669Y4441489D02*
Y4443889D01*
X4792069D01*
Y4441489D01*
X4789669D01*
X4711869Y4388189D02*
Y4392189D01*
X4715869D01*
Y4388189D01*
X4711869D01*
X4712669Y4388989D02*
Y4391389D01*
X4715069D01*
Y4388989D01*
X4712669D01*
X4773569Y4449689D02*
Y4453689D01*
X4777569D01*
Y4449689D01*
X4773569D01*
X4774369Y4450489D02*
Y4452889D01*
X4776769D01*
Y4450489D01*
X4774369D01*
X4815869Y4448189D02*
Y4452189D01*
X4819869D01*
Y4448189D01*
X4815869D01*
X4816669Y4448989D02*
Y4451389D01*
X4819069D01*
Y4448989D01*
X4816669D01*
X4911369Y4301189D02*
Y4305189D01*
X4915369D01*
Y4301189D01*
X4911369D01*
X4912169Y4301989D02*
Y4304389D01*
X4914569D01*
Y4301989D01*
X4912169D01*
X4907369Y4301189D02*
Y4305189D01*
X4911369D01*
Y4301189D01*
X4907369D01*
X4908169Y4301989D02*
Y4304389D01*
X4910569D01*
Y4301989D01*
X4908169D01*
X4903369Y4301189D02*
Y4305189D01*
X4907369D01*
Y4301189D01*
X4903369D01*
X4904169Y4301989D02*
Y4304389D01*
X4906569D01*
Y4301989D01*
X4904169D01*
X4903369Y4297189D02*
Y4301189D01*
X4907369D01*
Y4297189D01*
X4903369D01*
X4904169Y4297989D02*
Y4300389D01*
X4906569D01*
Y4297989D01*
X4904169D01*
X4907369Y4297189D02*
Y4301189D01*
X4911369D01*
Y4297189D01*
X4907369D01*
X4908169Y4297989D02*
Y4300389D01*
X4910569D01*
Y4297989D01*
X4908169D01*
X4911369Y4297189D02*
Y4301189D01*
X4915369D01*
Y4297189D01*
X4911369D01*
X4912169Y4297989D02*
Y4300389D01*
X4914569D01*
Y4297989D01*
X4912169D01*
X4830369Y4300189D02*
Y4304189D01*
X4834369D01*
Y4300189D01*
X4830369D01*
X4831169Y4300989D02*
Y4303389D01*
X4833569D01*
Y4300989D01*
X4831169D01*
X4826369Y4300189D02*
Y4304189D01*
X4830369D01*
Y4300189D01*
X4826369D01*
X4827169Y4300989D02*
Y4303389D01*
X4829569D01*
Y4300989D01*
X4827169D01*
X4822369Y4300189D02*
Y4304189D01*
X4826369D01*
Y4300189D01*
X4822369D01*
X4823169Y4300989D02*
Y4303389D01*
X4825569D01*
Y4300989D01*
X4823169D01*
X4822369Y4296189D02*
Y4300189D01*
X4826369D01*
Y4296189D01*
X4822369D01*
X4823169Y4296989D02*
Y4299389D01*
X4825569D01*
Y4296989D01*
X4823169D01*
X4826369Y4296189D02*
Y4300189D01*
X4830369D01*
Y4296189D01*
X4826369D01*
X4827169Y4296989D02*
Y4299389D01*
X4829569D01*
Y4296989D01*
X4827169D01*
X4830369Y4296189D02*
Y4300189D01*
X4834369D01*
Y4296189D01*
X4830369D01*
X4831169Y4296989D02*
Y4299389D01*
X4833569D01*
Y4296989D01*
X4831169D01*
X4780369Y4302689D02*
Y4306689D01*
X4784369D01*
Y4302689D01*
X4780369D01*
X4781169Y4303489D02*
Y4305889D01*
X4783569D01*
Y4303489D01*
X4781169D01*
X4776369Y4302689D02*
Y4306689D01*
X4780369D01*
Y4302689D01*
X4776369D01*
X4777169Y4303489D02*
Y4305889D01*
X4779569D01*
Y4303489D01*
X4777169D01*
X4772369Y4302689D02*
Y4306689D01*
X4776369D01*
Y4302689D01*
X4772369D01*
X4773169Y4303489D02*
Y4305889D01*
X4775569D01*
Y4303489D01*
X4773169D01*
X4772369Y4298689D02*
Y4302689D01*
X4776369D01*
Y4298689D01*
X4772369D01*
X4773169Y4299489D02*
Y4301889D01*
X4775569D01*
Y4299489D01*
X4773169D01*
X4776369Y4298689D02*
Y4302689D01*
X4780369D01*
Y4298689D01*
X4776369D01*
X4777169Y4299489D02*
Y4301889D01*
X4779569D01*
Y4299489D01*
X4777169D01*
X4780369Y4298689D02*
Y4302689D01*
X4784369D01*
Y4298689D01*
X4780369D01*
X4781169Y4299489D02*
Y4301889D01*
X4783569D01*
Y4299489D01*
X4781169D01*
X4798869Y4350189D02*
Y4354189D01*
X4802869D01*
Y4350189D01*
X4798869D01*
X4799669Y4350989D02*
Y4353389D01*
X4802069D01*
Y4350989D01*
X4799669D01*
X4794869Y4350189D02*
Y4354189D01*
X4798869D01*
Y4350189D01*
X4794869D01*
X4795669Y4350989D02*
Y4353389D01*
X4798069D01*
Y4350989D01*
X4795669D01*
X4790869Y4350189D02*
Y4354189D01*
X4794869D01*
Y4350189D01*
X4790869D01*
X4791669Y4350989D02*
Y4353389D01*
X4794069D01*
Y4350989D01*
X4791669D01*
X4790869Y4346189D02*
Y4350189D01*
X4794869D01*
Y4346189D01*
X4790869D01*
X4791669Y4346989D02*
Y4349389D01*
X4794069D01*
Y4346989D01*
X4791669D01*
X4794869Y4346189D02*
Y4350189D01*
X4798869D01*
Y4346189D01*
X4794869D01*
X4795669Y4346989D02*
Y4349389D01*
X4798069D01*
Y4346989D01*
X4795669D01*
X4798869Y4346189D02*
Y4350189D01*
X4802869D01*
Y4346189D01*
X4798869D01*
X4799669Y4346989D02*
Y4349389D01*
X4802069D01*
Y4346989D01*
X4799669D01*
X4698869Y4354689D02*
Y4358689D01*
X4702869D01*
Y4354689D01*
X4698869D01*
X4699669Y4355489D02*
Y4357889D01*
X4702069D01*
Y4355489D01*
X4699669D01*
X4694869Y4354689D02*
Y4358689D01*
X4698869D01*
Y4354689D01*
X4694869D01*
X4695669Y4355489D02*
Y4357889D01*
X4698069D01*
Y4355489D01*
X4695669D01*
X4690869Y4354689D02*
Y4358689D01*
X4694869D01*
Y4354689D01*
X4690869D01*
X4691669Y4355489D02*
Y4357889D01*
X4694069D01*
Y4355489D01*
X4691669D01*
X4690869Y4350689D02*
Y4354689D01*
X4694869D01*
Y4350689D01*
X4690869D01*
X4691669Y4351489D02*
Y4353889D01*
X4694069D01*
Y4351489D01*
X4691669D01*
X4694869Y4350689D02*
Y4354689D01*
X4698869D01*
Y4350689D01*
X4694869D01*
X4695669Y4351489D02*
Y4353889D01*
X4698069D01*
Y4351489D01*
X4695669D01*
X4698869Y4350689D02*
Y4354689D01*
X4702869D01*
Y4350689D01*
X4698869D01*
X4699669Y4351489D02*
Y4353889D01*
X4702069D01*
Y4351489D01*
X4699669D01*
X4647369Y4399189D02*
Y4403189D01*
X4651369D01*
Y4399189D01*
X4647369D01*
X4648169Y4399989D02*
Y4402389D01*
X4650569D01*
Y4399989D01*
X4648169D01*
X4643369Y4399189D02*
Y4403189D01*
X4647369D01*
Y4399189D01*
X4643369D01*
X4644169Y4399989D02*
Y4402389D01*
X4646569D01*
Y4399989D01*
X4644169D01*
X4639369Y4399189D02*
Y4403189D01*
X4643369D01*
Y4399189D01*
X4639369D01*
X4640169Y4399989D02*
Y4402389D01*
X4642569D01*
Y4399989D01*
X4640169D01*
X4639369Y4395189D02*
Y4399189D01*
X4643369D01*
Y4395189D01*
X4639369D01*
X4640169Y4395989D02*
Y4398389D01*
X4642569D01*
Y4395989D01*
X4640169D01*
X4643369Y4395189D02*
Y4399189D01*
X4647369D01*
Y4395189D01*
X4643369D01*
X4644169Y4395989D02*
Y4398389D01*
X4646569D01*
Y4395989D01*
X4644169D01*
X4647369Y4395189D02*
Y4399189D01*
X4651369D01*
Y4395189D01*
X4647369D01*
X4648169Y4395989D02*
Y4398389D01*
X4650569D01*
Y4395989D01*
X4648169D01*
X4648869Y4353689D02*
Y4357689D01*
X4652869D01*
Y4353689D01*
X4648869D01*
X4649669Y4354489D02*
Y4356889D01*
X4652069D01*
Y4354489D01*
X4649669D01*
X4644869Y4353689D02*
Y4357689D01*
X4648869D01*
Y4353689D01*
X4644869D01*
X4645669Y4354489D02*
Y4356889D01*
X4648069D01*
Y4354489D01*
X4645669D01*
X4640869Y4353689D02*
Y4357689D01*
X4644869D01*
Y4353689D01*
X4640869D01*
X4641669Y4354489D02*
Y4356889D01*
X4644069D01*
Y4354489D01*
X4641669D01*
X4640869Y4349689D02*
Y4353689D01*
X4644869D01*
Y4349689D01*
X4640869D01*
X4641669Y4350489D02*
Y4352889D01*
X4644069D01*
Y4350489D01*
X4641669D01*
X4644869Y4349689D02*
Y4353689D01*
X4648869D01*
Y4349689D01*
X4644869D01*
X4645669Y4350489D02*
Y4352889D01*
X4648069D01*
Y4350489D01*
X4645669D01*
X4648869Y4349689D02*
Y4353689D01*
X4652869D01*
Y4349689D01*
X4648869D01*
X4649669Y4350489D02*
Y4352889D01*
X4652069D01*
Y4350489D01*
X4649669D01*
X4999869Y4305189D02*
Y4309189D01*
X5003869D01*
Y4305189D01*
X4999869D01*
X5000669Y4305989D02*
Y4308389D01*
X5003069D01*
Y4305989D01*
X5000669D01*
X4995869Y4305189D02*
Y4309189D01*
X4999869D01*
Y4305189D01*
X4995869D01*
X4996669Y4305989D02*
Y4308389D01*
X4999069D01*
Y4305989D01*
X4996669D01*
X4991869Y4305189D02*
Y4309189D01*
X4995869D01*
Y4305189D01*
X4991869D01*
X4992669Y4305989D02*
Y4308389D01*
X4995069D01*
Y4305989D01*
X4992669D01*
X4991869Y4301189D02*
Y4305189D01*
X4995869D01*
Y4301189D01*
X4991869D01*
X4992669Y4301989D02*
Y4304389D01*
X4995069D01*
Y4301989D01*
X4992669D01*
X4995869Y4301189D02*
Y4305189D01*
X4999869D01*
Y4301189D01*
X4995869D01*
X4996669Y4301989D02*
Y4304389D01*
X4999069D01*
Y4301989D01*
X4996669D01*
X4999869Y4301189D02*
Y4305189D01*
X5003869D01*
Y4301189D01*
X4999869D01*
X5000669Y4301989D02*
Y4304389D01*
X5003069D01*
Y4301989D01*
X5000669D01*
X4999369Y4261189D02*
Y4265189D01*
X5003369D01*
Y4261189D01*
X4999369D01*
X5000169Y4261989D02*
Y4264389D01*
X5002569D01*
Y4261989D01*
X5000169D01*
X4995369Y4261189D02*
Y4265189D01*
X4999369D01*
Y4261189D01*
X4995369D01*
X4996169Y4261989D02*
Y4264389D01*
X4998569D01*
Y4261989D01*
X4996169D01*
X4991369Y4261189D02*
Y4265189D01*
X4995369D01*
Y4261189D01*
X4991369D01*
X4992169Y4261989D02*
Y4264389D01*
X4994569D01*
Y4261989D01*
X4992169D01*
X4991369Y4257189D02*
Y4261189D01*
X4995369D01*
Y4257189D01*
X4991369D01*
X4992169Y4257989D02*
Y4260389D01*
X4994569D01*
Y4257989D01*
X4992169D01*
X4995369Y4257189D02*
Y4261189D01*
X4999369D01*
Y4257189D01*
X4995369D01*
X4996169Y4257989D02*
Y4260389D01*
X4998569D01*
Y4257989D01*
X4996169D01*
X4999369Y4257189D02*
Y4261189D01*
X5003369D01*
Y4257189D01*
X4999369D01*
X5000169Y4257989D02*
Y4260389D01*
X5002569D01*
Y4257989D01*
X5000169D01*
X4925369Y4256689D02*
Y4260689D01*
X4929369D01*
Y4256689D01*
X4925369D01*
X4926169Y4257489D02*
Y4259889D01*
X4928569D01*
Y4257489D01*
X4926169D01*
X4921369Y4256689D02*
Y4260689D01*
X4925369D01*
Y4256689D01*
X4921369D01*
X4922169Y4257489D02*
Y4259889D01*
X4924569D01*
Y4257489D01*
X4922169D01*
X4917369Y4256689D02*
Y4260689D01*
X4921369D01*
Y4256689D01*
X4917369D01*
X4918169Y4257489D02*
Y4259889D01*
X4920569D01*
Y4257489D01*
X4918169D01*
X4917369Y4252689D02*
Y4256689D01*
X4921369D01*
Y4252689D01*
X4917369D01*
X4918169Y4253489D02*
Y4255889D01*
X4920569D01*
Y4253489D01*
X4918169D01*
X4921369Y4252689D02*
Y4256689D01*
X4925369D01*
Y4252689D01*
X4921369D01*
X4922169Y4253489D02*
Y4255889D01*
X4924569D01*
Y4253489D01*
X4922169D01*
X4925369Y4252689D02*
Y4256689D01*
X4929369D01*
Y4252689D01*
X4925369D01*
X4926169Y4253489D02*
Y4255889D01*
X4928569D01*
Y4253489D01*
X4926169D01*
X4990869Y4219689D02*
Y4223689D01*
X4994869D01*
Y4219689D01*
X4990869D01*
X4991669Y4220489D02*
Y4222889D01*
X4994069D01*
Y4220489D01*
X4991669D01*
X4986869Y4219689D02*
Y4223689D01*
X4990869D01*
Y4219689D01*
X4986869D01*
X4987669Y4220489D02*
Y4222889D01*
X4990069D01*
Y4220489D01*
X4987669D01*
X4982869Y4219689D02*
Y4223689D01*
X4986869D01*
Y4219689D01*
X4982869D01*
X4983669Y4220489D02*
Y4222889D01*
X4986069D01*
Y4220489D01*
X4983669D01*
X4982869Y4215689D02*
Y4219689D01*
X4986869D01*
Y4215689D01*
X4982869D01*
X4983669Y4216489D02*
Y4218889D01*
X4986069D01*
Y4216489D01*
X4983669D01*
X4986869Y4215689D02*
Y4219689D01*
X4990869D01*
Y4215689D01*
X4986869D01*
X4987669Y4216489D02*
Y4218889D01*
X4990069D01*
Y4216489D01*
X4987669D01*
X4990869Y4215689D02*
Y4219689D01*
X4994869D01*
Y4215689D01*
X4990869D01*
X4991669Y4216489D02*
Y4218889D01*
X4994069D01*
Y4216489D01*
X4991669D01*
X4937369Y4220189D02*
Y4224189D01*
X4941369D01*
Y4220189D01*
X4937369D01*
X4938169Y4220989D02*
Y4223389D01*
X4940569D01*
Y4220989D01*
X4938169D01*
X4933369Y4220189D02*
Y4224189D01*
X4937369D01*
Y4220189D01*
X4933369D01*
X4934169Y4220989D02*
Y4223389D01*
X4936569D01*
Y4220989D01*
X4934169D01*
X4929369Y4220189D02*
Y4224189D01*
X4933369D01*
Y4220189D01*
X4929369D01*
X4930169Y4220989D02*
Y4223389D01*
X4932569D01*
Y4220989D01*
X4930169D01*
X4929369Y4216189D02*
Y4220189D01*
X4933369D01*
Y4216189D01*
X4929369D01*
X4930169Y4216989D02*
Y4219389D01*
X4932569D01*
Y4216989D01*
X4930169D01*
X4933369Y4216189D02*
Y4220189D01*
X4937369D01*
Y4216189D01*
X4933369D01*
X4934169Y4216989D02*
Y4219389D01*
X4936569D01*
Y4216989D01*
X4934169D01*
X4937369Y4216189D02*
Y4220189D01*
X4941369D01*
Y4216189D01*
X4937369D01*
X4938169Y4216989D02*
Y4219389D01*
X4940569D01*
Y4216989D01*
X4938169D01*
X4886369Y4220689D02*
Y4224689D01*
X4890369D01*
Y4220689D01*
X4886369D01*
X4887169Y4221489D02*
Y4223889D01*
X4889569D01*
Y4221489D01*
X4887169D01*
X4882369Y4220689D02*
Y4224689D01*
X4886369D01*
Y4220689D01*
X4882369D01*
X4883169Y4221489D02*
Y4223889D01*
X4885569D01*
Y4221489D01*
X4883169D01*
X4878369Y4220689D02*
Y4224689D01*
X4882369D01*
Y4220689D01*
X4878369D01*
X4879169Y4221489D02*
Y4223889D01*
X4881569D01*
Y4221489D01*
X4879169D01*
X4878369Y4216689D02*
Y4220689D01*
X4882369D01*
Y4216689D01*
X4878369D01*
X4879169Y4217489D02*
Y4219889D01*
X4881569D01*
Y4217489D01*
X4879169D01*
X4882369Y4216689D02*
Y4220689D01*
X4886369D01*
Y4216689D01*
X4882369D01*
X4883169Y4217489D02*
Y4219889D01*
X4885569D01*
Y4217489D01*
X4883169D01*
X4886369Y4216689D02*
Y4220689D01*
X4890369D01*
Y4216689D01*
X4886369D01*
X4887169Y4217489D02*
Y4219889D01*
X4889569D01*
Y4217489D01*
X4887169D01*
X4887369Y4262189D02*
Y4266189D01*
X4891369D01*
Y4262189D01*
X4887369D01*
X4888169Y4262989D02*
Y4265389D01*
X4890569D01*
Y4262989D01*
X4888169D01*
X4883369Y4262189D02*
Y4266189D01*
X4887369D01*
Y4262189D01*
X4883369D01*
X4884169Y4262989D02*
Y4265389D01*
X4886569D01*
Y4262989D01*
X4884169D01*
X4879369Y4262189D02*
Y4266189D01*
X4883369D01*
Y4262189D01*
X4879369D01*
X4880169Y4262989D02*
Y4265389D01*
X4882569D01*
Y4262989D01*
X4880169D01*
X4879369Y4258189D02*
Y4262189D01*
X4883369D01*
Y4258189D01*
X4879369D01*
X4880169Y4258989D02*
Y4261389D01*
X4882569D01*
Y4258989D01*
X4880169D01*
X4883369Y4258189D02*
Y4262189D01*
X4887369D01*
Y4258189D01*
X4883369D01*
X4884169Y4258989D02*
Y4261389D01*
X4886569D01*
Y4258989D01*
X4884169D01*
X4887369Y4258189D02*
Y4262189D01*
X4891369D01*
Y4258189D01*
X4887369D01*
X4888169Y4258989D02*
Y4261389D01*
X4890569D01*
Y4258989D01*
X4888169D01*
X4831869Y4262189D02*
Y4266189D01*
X4835869D01*
Y4262189D01*
X4831869D01*
X4832669Y4262989D02*
Y4265389D01*
X4835069D01*
Y4262989D01*
X4832669D01*
X4827869Y4262189D02*
Y4266189D01*
X4831869D01*
Y4262189D01*
X4827869D01*
X4828669Y4262989D02*
Y4265389D01*
X4831069D01*
Y4262989D01*
X4828669D01*
X4823869Y4262189D02*
Y4266189D01*
X4827869D01*
Y4262189D01*
X4823869D01*
X4824669Y4262989D02*
Y4265389D01*
X4827069D01*
Y4262989D01*
X4824669D01*
X4823869Y4258189D02*
Y4262189D01*
X4827869D01*
Y4258189D01*
X4823869D01*
X4824669Y4258989D02*
Y4261389D01*
X4827069D01*
Y4258989D01*
X4824669D01*
X4827869Y4258189D02*
Y4262189D01*
X4831869D01*
Y4258189D01*
X4827869D01*
X4828669Y4258989D02*
Y4261389D01*
X4831069D01*
Y4258989D01*
X4828669D01*
X4831869Y4258189D02*
Y4262189D01*
X4835869D01*
Y4258189D01*
X4831869D01*
X4832669Y4258989D02*
Y4261389D01*
X4835069D01*
Y4258989D01*
X4832669D01*
X4833369Y4221189D02*
Y4225189D01*
X4837369D01*
Y4221189D01*
X4833369D01*
X4834169Y4221989D02*
Y4224389D01*
X4836569D01*
Y4221989D01*
X4834169D01*
X4829369Y4221189D02*
Y4225189D01*
X4833369D01*
Y4221189D01*
X4829369D01*
X4830169Y4221989D02*
Y4224389D01*
X4832569D01*
Y4221989D01*
X4830169D01*
X4825369Y4221189D02*
Y4225189D01*
X4829369D01*
Y4221189D01*
X4825369D01*
X4826169Y4221989D02*
Y4224389D01*
X4828569D01*
Y4221989D01*
X4826169D01*
X4825369Y4217189D02*
Y4221189D01*
X4829369D01*
Y4217189D01*
X4825369D01*
X4826169Y4217989D02*
Y4220389D01*
X4828569D01*
Y4217989D01*
X4826169D01*
X4829369Y4217189D02*
Y4221189D01*
X4833369D01*
Y4217189D01*
X4829369D01*
X4830169Y4217989D02*
Y4220389D01*
X4832569D01*
Y4217989D01*
X4830169D01*
X4833369Y4217189D02*
Y4221189D01*
X4837369D01*
Y4217189D01*
X4833369D01*
X4834169Y4217989D02*
Y4220389D01*
X4836569D01*
Y4217989D01*
X4834169D01*
X4777869Y4220689D02*
Y4224689D01*
X4781869D01*
Y4220689D01*
X4777869D01*
X4778669Y4221489D02*
Y4223889D01*
X4781069D01*
Y4221489D01*
X4778669D01*
X4773869Y4220689D02*
Y4224689D01*
X4777869D01*
Y4220689D01*
X4773869D01*
X4774669Y4221489D02*
Y4223889D01*
X4777069D01*
Y4221489D01*
X4774669D01*
X4769869Y4220689D02*
Y4224689D01*
X4773869D01*
Y4220689D01*
X4769869D01*
X4770669Y4221489D02*
Y4223889D01*
X4773069D01*
Y4221489D01*
X4770669D01*
X4769869Y4216689D02*
Y4220689D01*
X4773869D01*
Y4216689D01*
X4769869D01*
X4770669Y4217489D02*
Y4219889D01*
X4773069D01*
Y4217489D01*
X4770669D01*
X4773869Y4216689D02*
Y4220689D01*
X4777869D01*
Y4216689D01*
X4773869D01*
X4774669Y4217489D02*
Y4219889D01*
X4777069D01*
Y4217489D01*
X4774669D01*
X4777869Y4216689D02*
Y4220689D01*
X4781869D01*
Y4216689D01*
X4777869D01*
X4778669Y4217489D02*
Y4219889D01*
X4781069D01*
Y4217489D01*
X4778669D01*
X4693869Y4220189D02*
Y4224189D01*
X4697869D01*
Y4220189D01*
X4693869D01*
X4694669Y4220989D02*
Y4223389D01*
X4697069D01*
Y4220989D01*
X4694669D01*
X4689869Y4220189D02*
Y4224189D01*
X4693869D01*
Y4220189D01*
X4689869D01*
X4690669Y4220989D02*
Y4223389D01*
X4693069D01*
Y4220989D01*
X4690669D01*
X4685869Y4220189D02*
Y4224189D01*
X4689869D01*
Y4220189D01*
X4685869D01*
X4686669Y4220989D02*
Y4223389D01*
X4689069D01*
Y4220989D01*
X4686669D01*
X4685869Y4216189D02*
Y4220189D01*
X4689869D01*
Y4216189D01*
X4685869D01*
X4686669Y4216989D02*
Y4219389D01*
X4689069D01*
Y4216989D01*
X4686669D01*
X4689869Y4216189D02*
Y4220189D01*
X4693869D01*
Y4216189D01*
X4689869D01*
X4690669Y4216989D02*
Y4219389D01*
X4693069D01*
Y4216989D01*
X4690669D01*
X4693869Y4216189D02*
Y4220189D01*
X4697869D01*
Y4216189D01*
X4693869D01*
X4694669Y4216989D02*
Y4219389D01*
X4697069D01*
Y4216989D01*
X4694669D01*
X4779369Y4258189D02*
Y4262189D01*
X4783369D01*
Y4258189D01*
X4779369D01*
X4780169Y4258989D02*
Y4261389D01*
X4782569D01*
Y4258989D01*
X4780169D01*
X4775369Y4258189D02*
Y4262189D01*
X4779369D01*
Y4258189D01*
X4775369D01*
X4776169Y4258989D02*
Y4261389D01*
X4778569D01*
Y4258989D01*
X4776169D01*
X4771369Y4258189D02*
Y4262189D01*
X4775369D01*
Y4258189D01*
X4771369D01*
X4772169Y4258989D02*
Y4261389D01*
X4774569D01*
Y4258989D01*
X4772169D01*
X4710869Y4258689D02*
Y4262689D01*
X4714869D01*
Y4258689D01*
X4710869D01*
X4711669Y4259489D02*
Y4261889D01*
X4714069D01*
Y4259489D01*
X4711669D01*
X4706869Y4258689D02*
Y4262689D01*
X4710869D01*
Y4258689D01*
X4706869D01*
X4707669Y4259489D02*
Y4261889D01*
X4710069D01*
Y4259489D01*
X4707669D01*
X4702869Y4258689D02*
Y4262689D01*
X4706869D01*
Y4258689D01*
X4702869D01*
X4703669Y4259489D02*
Y4261889D01*
X4706069D01*
Y4259489D01*
X4703669D01*
X4642869Y4258689D02*
Y4262689D01*
X4646869D01*
Y4258689D01*
X4642869D01*
X4643669Y4259489D02*
Y4261889D01*
X4646069D01*
Y4259489D01*
X4643669D01*
X4646869Y4258689D02*
Y4262689D01*
X4650869D01*
Y4258689D01*
X4646869D01*
X4647669Y4259489D02*
Y4261889D01*
X4650069D01*
Y4259489D01*
X4647669D01*
X4650869Y4258689D02*
Y4262689D01*
X4654869D01*
Y4258689D01*
X4650869D01*
X4651669Y4259489D02*
Y4261889D01*
X4654069D01*
Y4259489D01*
X4651669D01*
X4771369Y4262189D02*
Y4266189D01*
X4775369D01*
Y4262189D01*
X4771369D01*
X4772169Y4262989D02*
Y4265389D01*
X4774569D01*
Y4262989D01*
X4772169D01*
X4775369Y4262189D02*
Y4266189D01*
X4779369D01*
Y4262189D01*
X4775369D01*
X4776169Y4262989D02*
Y4265389D01*
X4778569D01*
Y4262989D01*
X4776169D01*
X4779369Y4262189D02*
Y4266189D01*
X4783369D01*
Y4262189D01*
X4779369D01*
X4780169Y4262989D02*
Y4265389D01*
X4782569D01*
Y4262989D01*
X4780169D01*
X4702869Y4262689D02*
Y4266689D01*
X4706869D01*
Y4262689D01*
X4702869D01*
X4703669Y4263489D02*
Y4265889D01*
X4706069D01*
Y4263489D01*
X4703669D01*
X4706869Y4262689D02*
Y4266689D01*
X4710869D01*
Y4262689D01*
X4706869D01*
X4707669Y4263489D02*
Y4265889D01*
X4710069D01*
Y4263489D01*
X4707669D01*
X4710869Y4262689D02*
Y4266689D01*
X4714869D01*
Y4262689D01*
X4710869D01*
X4711669Y4263489D02*
Y4265889D01*
X4714069D01*
Y4263489D01*
X4711669D01*
X4650869Y4263189D02*
Y4267189D01*
X4654869D01*
Y4263189D01*
X4650869D01*
X4651669Y4263989D02*
Y4266389D01*
X4654069D01*
Y4263989D01*
X4651669D01*
X4646869Y4263189D02*
Y4267189D01*
X4650869D01*
Y4263189D01*
X4646869D01*
X4647669Y4263989D02*
Y4266389D01*
X4650069D01*
Y4263989D01*
X4647669D01*
X4642869Y4263189D02*
Y4267189D01*
X4646869D01*
Y4263189D01*
X4642869D01*
X4643669Y4263989D02*
Y4266389D01*
X4646069D01*
Y4263989D01*
X4643669D01*
X4932369Y4434689D02*
Y4438689D01*
X4936369D01*
Y4434689D01*
X4932369D01*
X4933169Y4435489D02*
Y4437889D01*
X4935569D01*
Y4435489D01*
X4933169D01*
X4942869Y4435689D02*
Y4439689D01*
X4946869D01*
Y4435689D01*
X4942869D01*
X4943669Y4436489D02*
Y4438889D01*
X4946069D01*
Y4436489D01*
X4943669D01*
X4931869Y4446189D02*
Y4450189D01*
X4935869D01*
Y4446189D01*
X4931869D01*
X4932669Y4446989D02*
Y4449389D01*
X4935069D01*
Y4446989D01*
X4932669D01*
X4819869Y4309689D02*
Y4313689D01*
X4823869D01*
Y4309689D01*
X4819869D01*
X4820669Y4310489D02*
Y4312889D01*
X4823069D01*
Y4310489D01*
X4820669D01*
X4823869Y4309689D02*
Y4313689D01*
X4827869D01*
Y4309689D01*
X4823869D01*
X4824669Y4310489D02*
Y4312889D01*
X4827069D01*
Y4310489D01*
X4824669D01*
X4884369Y4309636D02*
Y4313635D01*
X4888369D01*
Y4309636D01*
X4884369D01*
X4885169Y4310435D02*
Y4312835D01*
X4887569D01*
Y4310435D01*
X4885169D01*
X4877369Y4317189D02*
Y4321189D01*
X4881369D01*
Y4317189D01*
X4877369D01*
X4878169Y4317989D02*
Y4320389D01*
X4880569D01*
Y4317989D01*
X4878169D01*
X4934369Y4373189D02*
Y4377189D01*
X4938369D01*
Y4373189D01*
X4934369D01*
X4935169Y4373989D02*
Y4376389D01*
X4937569D01*
Y4373989D01*
X4935169D01*
X4930869Y4366689D02*
Y4370689D01*
X4934869D01*
Y4366689D01*
X4930869D01*
X4931669Y4367489D02*
Y4369889D01*
X4934069D01*
Y4367489D01*
X4931669D01*
X5011869Y4443189D02*
Y4447189D01*
X5015869D01*
Y4443189D01*
X5011869D01*
X5012669Y4443989D02*
Y4446389D01*
X5015069D01*
Y4443989D01*
X5012669D01*
X4978369Y4500689D02*
Y4504689D01*
X4982369D01*
Y4500689D01*
X4978369D01*
X4979169Y4501489D02*
Y4503889D01*
X4981569D01*
Y4501489D01*
X4979169D01*
X4942869Y4440189D02*
Y4444189D01*
X4946869D01*
Y4440189D01*
X4942869D01*
X4943669Y4440989D02*
Y4443389D01*
X4946069D01*
Y4440989D01*
X4943669D01*
X5004869Y4430689D02*
Y4434689D01*
X5008869D01*
Y4430689D01*
X5004869D01*
X5005669Y4431489D02*
Y4433889D01*
X5008069D01*
Y4431489D01*
X5005669D01*
X5011509Y4430330D02*
Y4434330D01*
X5015509D01*
Y4430330D01*
X5011509D01*
X5012309Y4431130D02*
Y4433530D01*
X5014709D01*
Y4431130D01*
X5012309D01*
X5011869Y4391189D02*
Y4395189D01*
X5015869D01*
Y4391189D01*
X5011869D01*
X5012669Y4391989D02*
Y4394389D01*
X5015069D01*
Y4391989D01*
X5012669D01*
X4888369Y4309636D02*
Y4313635D01*
X4892369D01*
Y4309636D01*
X4888369D01*
X4889169Y4310435D02*
Y4312835D01*
X4891569D01*
Y4310435D01*
X4889169D01*
X4873369Y4317189D02*
Y4321189D01*
X4877369D01*
Y4317189D01*
X4873369D01*
X4874169Y4317989D02*
Y4320389D01*
X4876569D01*
Y4317989D01*
X4874169D01*
X4940369Y4507189D02*
Y4511189D01*
X4944369D01*
Y4507189D01*
X4940369D01*
X4941169Y4507989D02*
Y4510389D01*
X4943569D01*
Y4507989D01*
X4941169D01*
X4741707Y4397338D02*
Y4401339D01*
X4745707D01*
Y4397338D01*
X4741707D01*
X4742508Y4398138D02*
Y4400539D01*
X4744907D01*
Y4398138D01*
X4742508D01*
X4749869Y4361689D02*
Y4365689D01*
X4753869D01*
Y4361689D01*
X4749869D01*
X4750669Y4362489D02*
Y4364889D01*
X4753069D01*
Y4362489D01*
X4750669D01*
X4715963Y4451256D02*
Y4455256D01*
X4719963D01*
Y4451256D01*
X4715963D01*
X4716763Y4452056D02*
Y4454456D01*
X4719163D01*
Y4452056D01*
X4716763D01*
X4818097Y4470195D02*
Y4474194D01*
X4822097D01*
Y4470195D01*
X4818097D01*
X4818897Y4470995D02*
Y4473394D01*
X4821297D01*
Y4470995D01*
X4818897D01*
X4859369Y4402689D02*
Y4406689D01*
X4863369D01*
Y4402689D01*
X4859369D01*
X4860169Y4403489D02*
Y4405889D01*
X4862569D01*
Y4403489D01*
X4860169D01*
X4859318Y4421058D02*
Y4425058D01*
X4863317D01*
Y4421058D01*
X4859318D01*
X4860118Y4421858D02*
Y4424258D01*
X4862518D01*
Y4421858D01*
X4860118D01*
X4836109Y4408689D02*
Y4412689D01*
X4840109D01*
Y4408689D01*
X4836109D01*
X4836909Y4409489D02*
Y4411889D01*
X4839309D01*
Y4409489D01*
X4836909D01*
X4836109Y4421058D02*
Y4425058D01*
X4840109D01*
Y4421058D01*
X4836109D01*
X4836909Y4421858D02*
Y4424258D01*
X4839309D01*
Y4421858D01*
X4836909D01*
X4850869Y4432689D02*
Y4436689D01*
X4854869D01*
Y4432689D01*
X4850869D01*
X4851669Y4433489D02*
Y4435889D01*
X4854069D01*
Y4433489D01*
X4851669D01*
X4851869Y4420689D02*
Y4424689D01*
X4855869D01*
Y4420689D01*
X4851869D01*
X4852669Y4421489D02*
Y4423889D01*
X4855069D01*
Y4421489D01*
X4852669D01*
X4770436Y4462689D02*
Y4466689D01*
X4774436D01*
Y4462689D01*
X4770436D01*
X4771236Y4463489D02*
Y4465889D01*
X4773636D01*
Y4463489D01*
X4771236D01*
X4827274Y4447689D02*
Y4451689D01*
X4831274D01*
Y4447689D01*
X4827274D01*
X4828074Y4448489D02*
Y4450889D01*
X4830474D01*
Y4448489D01*
X4828074D01*
X4941369Y4370189D02*
Y4374189D01*
X4945369D01*
Y4370189D01*
X4941369D01*
X4942169Y4370989D02*
Y4373389D01*
X4944569D01*
Y4370989D01*
X4942169D01*
X4952331Y4479207D02*
Y4483207D01*
X4956331D01*
Y4479207D01*
X4952331D01*
X4953131Y4480007D02*
Y4482407D01*
X4955531D01*
Y4480007D01*
X4953131D01*
X4986369Y4468689D02*
Y4472689D01*
X4990369D01*
Y4468689D01*
X4986369D01*
X4987169Y4469489D02*
Y4471889D01*
X4989569D01*
Y4469489D01*
X4987169D01*
X5002887Y4450707D02*
Y4454707D01*
X5006887D01*
Y4450707D01*
X5002887D01*
X5003687Y4451507D02*
Y4453907D01*
X5006087D01*
Y4451507D01*
X5003687D01*
X4967869Y4439189D02*
Y4443189D01*
X4971869D01*
Y4439189D01*
X4967869D01*
X4968669Y4439989D02*
Y4442389D01*
X4971069D01*
Y4439989D01*
X4968669D01*
X4963369Y4439689D02*
Y4443689D01*
X4967369D01*
Y4439689D01*
X4963369D01*
X4964169Y4440489D02*
Y4442889D01*
X4966569D01*
Y4440489D01*
X4964169D01*
X5011052Y4398189D02*
Y4402189D01*
X5015052D01*
Y4398189D01*
X5011052D01*
X5011853Y4398989D02*
Y4401389D01*
X5014252D01*
Y4398989D01*
X5011853D01*
X5009869Y4376189D02*
Y4380189D01*
X5013869D01*
Y4376189D01*
X5009869D01*
X5010669Y4376989D02*
Y4379389D01*
X5013069D01*
Y4376989D01*
X5010669D01*
X4843369Y4334689D02*
Y4338689D01*
X4847369D01*
Y4334689D01*
X4843369D01*
X4844169Y4335489D02*
Y4337889D01*
X4846569D01*
Y4335489D01*
X4844169D01*
X4914869Y4395689D02*
Y4399689D01*
X4918869D01*
Y4395689D01*
X4914869D01*
X4915669Y4396489D02*
Y4398889D01*
X4918069D01*
Y4396489D01*
X4915669D01*
X4903869Y4373689D02*
Y4377689D01*
X4907869D01*
Y4373689D01*
X4903869D01*
X4904669Y4374489D02*
Y4376889D01*
X4907069D01*
Y4374489D01*
X4904669D01*
X4843369Y4358689D02*
Y4362689D01*
X4847369D01*
Y4358689D01*
X4843369D01*
X4844169Y4359489D02*
Y4361889D01*
X4846569D01*
Y4359489D01*
X4844169D01*
X4848869Y4377689D02*
Y4381689D01*
X4852869D01*
Y4377689D01*
X4848869D01*
X4849669Y4378489D02*
Y4380889D01*
X4852069D01*
Y4378489D01*
X4849669D01*
X4914869Y4384689D02*
Y4388689D01*
X4918869D01*
Y4384689D01*
X4914869D01*
X4915669Y4385489D02*
Y4387889D01*
X4918069D01*
Y4385489D01*
X4915669D01*
X4930369Y4395689D02*
Y4399689D01*
X4934369D01*
Y4395689D01*
X4930369D01*
X4931169Y4396489D02*
Y4398889D01*
X4933569D01*
Y4396489D01*
X4931169D01*
X4930369Y4404689D02*
Y4408689D01*
X4934369D01*
Y4404689D01*
X4930369D01*
X4931169Y4405489D02*
Y4407889D01*
X4933569D01*
Y4405489D01*
X4931169D01*
X4934869Y4443189D02*
Y4447189D01*
X4938869D01*
Y4443189D01*
X4934869D01*
X4935669Y4443989D02*
Y4446389D01*
X4938069D01*
Y4443989D01*
X4935669D01*
X4952369Y4348189D02*
Y4352189D01*
X4956369D01*
Y4348189D01*
X4952369D01*
X4953169Y4348989D02*
Y4351389D01*
X4955569D01*
Y4348989D01*
X4953169D01*
X4965869Y4239689D02*
Y4243689D01*
X4969869D01*
Y4239689D01*
X4965869D01*
X4966669Y4240489D02*
Y4242889D01*
X4969069D01*
Y4240489D01*
X4966669D01*
X4968369Y4363689D02*
Y4367689D01*
X4972369D01*
Y4363689D01*
X4968369D01*
X4969169Y4364489D02*
Y4366889D01*
X4971569D01*
Y4364489D01*
X4969169D01*
X4950869Y4277689D02*
Y4281689D01*
X4954869D01*
Y4277689D01*
X4950869D01*
X4951669Y4278489D02*
Y4280889D01*
X4954069D01*
Y4278489D01*
X4951669D01*
X4939869Y4279189D02*
Y4283189D01*
X4943869D01*
Y4279189D01*
X4939869D01*
X4940669Y4279989D02*
Y4282389D01*
X4943069D01*
Y4279989D01*
X4940669D01*
X4965869Y4301689D02*
Y4305689D01*
X4969869D01*
Y4301689D01*
X4965869D01*
X4966669Y4302489D02*
Y4304889D01*
X4969069D01*
Y4302489D01*
X4966669D01*
X4966387Y4286689D02*
Y4290689D01*
X4970387D01*
Y4286689D01*
X4966387D01*
X4967187Y4287489D02*
Y4289889D01*
X4969587D01*
Y4287489D01*
X4967187D01*
X4966369Y4312189D02*
Y4316189D01*
X4970369D01*
Y4312189D01*
X4966369D01*
X4967169Y4312989D02*
Y4315389D01*
X4969569D01*
Y4312989D01*
X4967169D01*
X4966369Y4329689D02*
Y4333689D01*
X4970369D01*
Y4329689D01*
X4966369D01*
X4967169Y4330489D02*
Y4332889D01*
X4969569D01*
Y4330489D01*
X4967169D01*
X5051369Y4271689D02*
Y4275689D01*
X5055369D01*
Y4271689D01*
X5051369D01*
X5052169Y4272489D02*
Y4274889D01*
X5054569D01*
Y4272489D01*
X5052169D01*
X5023469Y4298984D02*
Y4302984D01*
X5027469D01*
Y4298984D01*
X5023469D01*
X5024269Y4299784D02*
Y4302184D01*
X5026669D01*
Y4299784D01*
X5024269D01*
X4878369Y4410189D02*
Y4414189D01*
X4882369D01*
Y4410189D01*
X4878369D01*
X4879169Y4410989D02*
Y4413389D01*
X4881569D01*
Y4410989D01*
X4879169D01*
X5026869Y4329189D02*
Y4333189D01*
X5030869D01*
Y4329189D01*
X5026869D01*
X5027669Y4329989D02*
Y4332389D01*
X5030069D01*
Y4329989D01*
X5027669D01*
X4880369Y4349689D02*
Y4353689D01*
X4884369D01*
Y4349689D01*
X4880369D01*
X4881169Y4350489D02*
Y4352889D01*
X4883569D01*
Y4350489D01*
X4881169D01*
X4880369Y4345689D02*
Y4349689D01*
X4884369D01*
Y4345689D01*
X4880369D01*
X4881169Y4346489D02*
Y4348889D01*
X4883569D01*
Y4346489D01*
X4881169D01*
X4880369Y4341689D02*
Y4345689D01*
X4884369D01*
Y4341689D01*
X4880369D01*
X4881169Y4342489D02*
Y4344889D01*
X4883569D01*
Y4342489D01*
X4881169D01*
X4881869Y4436189D02*
Y4440189D01*
X4885869D01*
Y4436189D01*
X4881869D01*
X4882669Y4436989D02*
Y4439389D01*
X4885069D01*
Y4436989D01*
X4882669D01*
X4881869Y4440189D02*
Y4444189D01*
X4885869D01*
Y4440189D01*
X4881869D01*
X4882669Y4440989D02*
Y4443389D01*
X4885069D01*
Y4440989D01*
X4882669D01*
X4881869Y4444189D02*
Y4448189D01*
X4885869D01*
Y4444189D01*
X4881869D01*
X4882669Y4444989D02*
Y4447389D01*
X4885069D01*
Y4444989D01*
X4882669D01*
X4875869Y4429189D02*
Y4433189D01*
X4879869D01*
Y4429189D01*
X4875869D01*
X4876669Y4429989D02*
Y4432389D01*
X4879069D01*
Y4429989D01*
X4876669D01*
X4875869Y4421189D02*
Y4425189D01*
X4879869D01*
Y4421189D01*
X4875869D01*
X4876669Y4421989D02*
Y4424389D01*
X4879069D01*
Y4421989D01*
X4876669D01*
X4792369Y4464189D02*
Y4468189D01*
X4796369D01*
Y4464189D01*
X4792369D01*
X4793169Y4464989D02*
Y4467389D01*
X4795569D01*
Y4464989D01*
X4793169D01*
X4848869Y4369189D02*
Y4373189D01*
X4852869D01*
Y4369189D01*
X4848869D01*
X4849669Y4369989D02*
Y4372389D01*
X4852069D01*
Y4369989D01*
X4849669D01*
X4898869Y4393689D02*
Y4397689D01*
X4902869D01*
Y4393689D01*
X4898869D01*
X4899669Y4394489D02*
Y4396889D01*
X4902069D01*
Y4394489D01*
X4899669D01*
X4766302Y4462689D02*
Y4466689D01*
X4770302D01*
Y4462689D01*
X4766302D01*
X4767102Y4463489D02*
Y4465889D01*
X4769502D01*
Y4463489D01*
X4767102D01*
X4813963Y4470195D02*
Y4474194D01*
X4817963D01*
Y4470195D01*
X4813963D01*
X4814763Y4470995D02*
Y4473394D01*
X4817163D01*
Y4470995D01*
X4814763D01*
X4823140Y4447689D02*
Y4451689D01*
X4827140D01*
Y4447689D01*
X4823140D01*
X4823940Y4448489D02*
Y4450889D01*
X4826340D01*
Y4448489D01*
X4823940D01*
X4715963Y4447122D02*
Y4451122D01*
X4719963D01*
Y4447122D01*
X4715963D01*
X4716763Y4447922D02*
Y4450322D01*
X4719163D01*
Y4447922D01*
X4716763D01*
X4940369Y4503189D02*
Y4507189D01*
X4944369D01*
Y4503189D01*
X4940369D01*
X4941169Y4503989D02*
Y4506389D01*
X4943569D01*
Y4503989D01*
X4941169D01*
X4868802Y4463689D02*
Y4467689D01*
X4872802D01*
Y4463689D01*
X4868802D01*
X4869602Y4464489D02*
Y4466889D01*
X4872002D01*
Y4464489D01*
X4869602D01*
X4872936Y4463689D02*
Y4467689D01*
X4876936D01*
Y4463689D01*
X4872936D01*
X4873736Y4464489D02*
Y4466889D01*
X4876136D01*
Y4464489D01*
X4873736D01*
D92*
X4754337Y4515962D02*
G03*
X4754337Y4515962I-2000J0D01*
G01*
X4809455D02*
G03*
X4809455Y4515962I-2000J0D01*
G01*
X4864573D02*
G03*
X4864573Y4515962I-2000J0D01*
G01*
M02*
