%FSLAX25Y25*%
%MOIN*%
G70*
G01*
G75*
G04 Layer_Color=255*
%ADD10C,0.01969*%
%ADD11R,0.03543X0.03150*%
%ADD12R,0.03150X0.03543*%
%ADD13R,0.04724X0.08661*%
%ADD14R,0.13780X0.08661*%
%ADD15R,0.05512X0.03937*%
%ADD16R,0.03937X0.05512*%
%ADD17R,0.18110X0.07087*%
%ADD18O,0.00709X0.06299*%
%ADD19O,0.06299X0.00709*%
%ADD20O,0.04921X0.01575*%
%ADD21R,0.05118X0.04724*%
%ADD22R,0.04724X0.05118*%
%ADD23R,0.04331X0.03937*%
%ADD24R,0.03937X0.04331*%
%ADD25O,0.08661X0.02362*%
%ADD26R,0.08661X0.02362*%
%ADD27R,0.07874X0.21654*%
%ADD28R,0.03937X0.02362*%
%ADD29C,0.02000*%
%ADD30C,0.00600*%
%ADD31C,0.00787*%
%ADD32C,0.00700*%
%ADD33C,0.04000*%
%ADD34C,0.01000*%
%ADD35C,0.01500*%
%ADD36C,0.31032*%
%ADD37C,0.11024*%
%ADD38C,0.09449*%
%ADD39R,0.07874X0.11811*%
%ADD40O,0.05906X0.07087*%
%ADD41R,0.05906X0.07087*%
%ADD42O,0.05512X0.06693*%
%ADD43R,0.05512X0.06693*%
%ADD44O,0.06693X0.05512*%
%ADD45R,0.06693X0.05512*%
%ADD46C,0.06693*%
%ADD47C,0.03937*%
%ADD48O,0.11811X0.07000*%
%ADD49O,0.07000X0.11811*%
%ADD50C,0.02500*%
%ADD51C,0.08000*%
D36*
X5033873Y4224094D02*
D03*
X4639148Y4222480D02*
D03*
X4639148Y4455512D02*
D03*
D37*
X4752337Y4515962D02*
D03*
X4807455D02*
D03*
X4862573D02*
D03*
D38*
X4722810Y4486435D02*
D03*
X4752337D02*
D03*
X4777928D02*
D03*
X4807455D02*
D03*
X4833046D02*
D03*
X4862573D02*
D03*
D39*
X4874581Y4501199D02*
D03*
X4710802D02*
D03*
D40*
X4745869Y4449491D02*
D03*
X4852424Y4232697D02*
D03*
X4931369Y4466189D02*
D03*
D41*
X4755869Y4449491D02*
D03*
X4862424Y4232697D02*
D03*
X4941369Y4466189D02*
D03*
D42*
X4735369Y4359689D02*
D03*
X4751869Y4384689D02*
D03*
X4789369Y4311689D02*
D03*
X4686869Y4474189D02*
D03*
X4686869Y4397189D02*
D03*
X4759369Y4257189D02*
D03*
X4843369Y4311689D02*
D03*
X4882869Y4392689D02*
D03*
X4897869Y4356189D02*
D03*
X4798424Y4234189D02*
D03*
D43*
X4725369Y4359689D02*
D03*
X4761869Y4384689D02*
D03*
X4799369Y4311689D02*
D03*
X4676869Y4474189D02*
D03*
X4676869Y4397189D02*
D03*
X4749369Y4257189D02*
D03*
X4853369Y4311689D02*
D03*
X4892869Y4392689D02*
D03*
X4907869Y4356189D02*
D03*
X4808424Y4234189D02*
D03*
D44*
X4750369Y4322689D02*
D03*
X4967869Y4519689D02*
D03*
D45*
X4750369Y4312689D02*
D03*
X4967869Y4509689D02*
D03*
D46*
X4655869Y4320374D02*
D03*
Y4310532D02*
D03*
Y4300689D02*
D03*
Y4290847D02*
D03*
X4825369Y4336161D02*
D03*
Y4346004D02*
D03*
Y4355846D02*
D03*
Y4365689D02*
D03*
D47*
X4665769Y4220789D02*
D03*
X5007769Y4217089D02*
D03*
X5058469Y4522589D02*
D03*
D48*
X4650626Y4509860D02*
D03*
X4650526Y4490569D02*
D03*
D49*
X4639503Y4500805D02*
D03*
M02*
