%FSLAX25Y25*%
%MOIN*%
G70*
G01*
G75*
G04 Layer_Color=8388736*
%ADD10C,0.01969*%
%ADD11R,0.03543X0.03150*%
%ADD12R,0.03150X0.03543*%
%ADD13R,0.04724X0.08661*%
%ADD14R,0.13780X0.08661*%
%ADD15R,0.05512X0.03937*%
%ADD16R,0.03937X0.05512*%
%ADD17R,0.18110X0.07087*%
%ADD18O,0.00709X0.06299*%
%ADD19O,0.06299X0.00709*%
%ADD20O,0.04921X0.01575*%
%ADD21R,0.05118X0.04724*%
%ADD22R,0.04724X0.05118*%
%ADD23R,0.04331X0.03937*%
%ADD24R,0.03937X0.04331*%
%ADD25O,0.08661X0.02362*%
%ADD26R,0.08661X0.02362*%
%ADD27R,0.07874X0.21654*%
%ADD28R,0.03937X0.02362*%
%ADD29C,0.02000*%
%ADD30C,0.00600*%
%ADD31C,0.00787*%
%ADD32C,0.00700*%
%ADD33C,0.04000*%
%ADD34C,0.01000*%
%ADD35C,0.01500*%
%ADD36C,0.31032*%
%ADD37C,0.11024*%
%ADD38C,0.09449*%
%ADD39R,0.07874X0.11811*%
%ADD40O,0.05906X0.07087*%
%ADD41R,0.05906X0.07087*%
%ADD42O,0.05512X0.06693*%
%ADD43R,0.05512X0.06693*%
%ADD44O,0.06693X0.05512*%
%ADD45R,0.06693X0.05512*%
%ADD46C,0.06693*%
%ADD47C,0.03937*%
%ADD48O,0.11811X0.07000*%
%ADD49O,0.07000X0.11811*%
%ADD50C,0.02500*%
%ADD51C,0.08000*%
%ADD52C,0.00800*%
%ADD53C,0.00984*%
%ADD54C,0.02362*%
%ADD55R,0.03937X0.03937*%
%ADD56C,0.02769*%
%ADD57R,0.04343X0.03950*%
%ADD58R,0.03950X0.04343*%
%ADD59R,0.05524X0.09461*%
%ADD60R,0.14579X0.09461*%
%ADD61R,0.06112X0.04537*%
%ADD62R,0.04537X0.06112*%
%ADD63R,0.18910X0.07887*%
%ADD64O,0.01509X0.07099*%
%ADD65O,0.07099X0.01509*%
%ADD66O,0.05721X0.02375*%
%ADD67R,0.05918X0.05524*%
%ADD68R,0.05524X0.05918*%
%ADD69R,0.05131X0.04737*%
%ADD70R,0.04737X0.05131*%
%ADD71O,0.09461X0.03162*%
%ADD72R,0.09461X0.03162*%
%ADD73R,0.08674X0.22453*%
%ADD74R,0.04737X0.03162*%
%ADD75C,0.31832*%
%ADD76C,0.11824*%
%ADD77C,0.10249*%
%ADD78R,0.08674X0.12611*%
%ADD79O,0.06906X0.08087*%
%ADD80R,0.06906X0.08087*%
%ADD81O,0.06512X0.07693*%
%ADD82R,0.06512X0.07693*%
%ADD83O,0.07693X0.06512*%
%ADD84R,0.07693X0.06512*%
%ADD85C,0.07493*%
%ADD86C,0.04737*%
%ADD87O,0.12611X0.07800*%
%ADD88O,0.07800X0.12611*%
%ADD89C,0.03300*%
D30*
X4592368Y4521189D02*
Y4527187D01*
X4589369Y4524188D01*
X4593367D01*
X4595367Y4521189D02*
Y4522189D01*
X4596367D01*
Y4521189D01*
X4595367D01*
X4604364Y4527187D02*
X4602364Y4526188D01*
X4600365Y4524188D01*
Y4522189D01*
X4601365Y4521189D01*
X4603364D01*
X4604364Y4522189D01*
Y4523188D01*
X4603364Y4524188D01*
X4600365D01*
X4610362Y4527187D02*
X4606363D01*
Y4524188D01*
X4608363Y4525188D01*
X4609362D01*
X4610362Y4524188D01*
Y4522189D01*
X4609362Y4521189D01*
X4607363D01*
X4606363Y4522189D01*
X4612361Y4521189D02*
Y4525188D01*
X4613361D01*
X4614360Y4524188D01*
Y4521189D01*
Y4524188D01*
X4615360Y4525188D01*
X4616360Y4524188D01*
Y4521189D01*
X4618359D02*
Y4525188D01*
X4619359D01*
X4620359Y4524188D01*
Y4521189D01*
Y4524188D01*
X4621358Y4525188D01*
X4622358Y4524188D01*
Y4521189D01*
X4642869Y4547688D02*
X4643868Y4548687D01*
X4645868D01*
X4646867Y4547688D01*
Y4546688D01*
X4645868Y4545688D01*
X4644868D01*
X4645868D01*
X4646867Y4544688D01*
Y4543689D01*
X4645868Y4542689D01*
X4643868D01*
X4642869Y4543689D01*
X4648867Y4542689D02*
Y4543689D01*
X4649866D01*
Y4542689D01*
X4648867D01*
X4657864Y4548687D02*
X4655864Y4547688D01*
X4653865Y4545688D01*
Y4543689D01*
X4654865Y4542689D01*
X4656864D01*
X4657864Y4543689D01*
Y4544688D01*
X4656864Y4545688D01*
X4653865D01*
X4659863Y4547688D02*
X4660863Y4548687D01*
X4662862D01*
X4663862Y4547688D01*
Y4543689D01*
X4662862Y4542689D01*
X4660863D01*
X4659863Y4543689D01*
Y4547688D01*
X4665861Y4542689D02*
Y4546688D01*
X4666861D01*
X4667860Y4545688D01*
Y4542689D01*
Y4545688D01*
X4668860Y4546688D01*
X4669860Y4545688D01*
Y4542689D01*
X4671859D02*
Y4546688D01*
X4672859D01*
X4673859Y4545688D01*
Y4542689D01*
Y4545688D01*
X4674858Y4546688D01*
X4675858Y4545688D01*
Y4542689D01*
X4586868Y4504187D02*
X4584868Y4503188D01*
X4582869Y4501188D01*
Y4499189D01*
X4583868Y4498189D01*
X4585868D01*
X4586868Y4499189D01*
Y4500188D01*
X4585868Y4501188D01*
X4582869D01*
X4588867Y4498189D02*
Y4499189D01*
X4589867D01*
Y4498189D01*
X4588867D01*
X4597864D02*
X4593865D01*
X4597864Y4502188D01*
Y4503188D01*
X4596864Y4504187D01*
X4594865D01*
X4593865Y4503188D01*
X4599863D02*
X4600863Y4504187D01*
X4602862D01*
X4603862Y4503188D01*
Y4499189D01*
X4602862Y4498189D01*
X4600863D01*
X4599863Y4499189D01*
Y4503188D01*
X4605861Y4498189D02*
Y4502188D01*
X4606861D01*
X4607861Y4501188D01*
Y4498189D01*
Y4501188D01*
X4608860Y4502188D01*
X4609860Y4501188D01*
Y4498189D01*
X4611860D02*
Y4502188D01*
X4612859D01*
X4613859Y4501188D01*
Y4498189D01*
Y4501188D01*
X4614858Y4502188D01*
X4615858Y4501188D01*
Y4498189D01*
X4584369Y4209689D02*
X4586368D01*
X4585368D01*
Y4215687D01*
X4584369Y4214687D01*
X4593366Y4209689D02*
X4589367D01*
X4593366Y4213688D01*
Y4214687D01*
X4592366Y4215687D01*
X4590367D01*
X4589367Y4214687D01*
X4595365Y4209689D02*
Y4210689D01*
X4596365D01*
Y4209689D01*
X4595365D01*
X4600364Y4215687D02*
X4604362D01*
Y4214687D01*
X4600364Y4210689D01*
Y4209689D01*
X4606362Y4214687D02*
X4607361Y4215687D01*
X4609361D01*
X4610360Y4214687D01*
Y4210689D01*
X4609361Y4209689D01*
X4607361D01*
X4606362Y4210689D01*
Y4214687D01*
X4612360Y4209689D02*
Y4213688D01*
X4613359D01*
X4614359Y4212688D01*
Y4209689D01*
Y4212688D01*
X4615359Y4213688D01*
X4616359Y4212688D01*
Y4209689D01*
X4618358D02*
Y4213688D01*
X4619357D01*
X4620357Y4212688D01*
Y4209689D01*
Y4212688D01*
X4621357Y4213688D01*
X4622356Y4212688D01*
Y4209689D01*
X4834369Y4180689D02*
X4836368D01*
X4835368D01*
Y4186687D01*
X4834369Y4185687D01*
X4839367Y4180689D02*
X4841367D01*
X4840367D01*
Y4186687D01*
X4839367Y4185687D01*
X4844365D02*
X4845365Y4186687D01*
X4847364D01*
X4848364Y4185687D01*
Y4184688D01*
X4847364Y4183688D01*
X4848364Y4182688D01*
Y4181689D01*
X4847364Y4180689D01*
X4845365D01*
X4844365Y4181689D01*
Y4182688D01*
X4845365Y4183688D01*
X4844365Y4184688D01*
Y4185687D01*
X4845365Y4183688D02*
X4847364D01*
X4850364Y4180689D02*
Y4181689D01*
X4851363D01*
Y4180689D01*
X4850364D01*
X4855362Y4185687D02*
X4856362Y4186687D01*
X4858361D01*
X4859361Y4185687D01*
Y4181689D01*
X4858361Y4180689D01*
X4856362D01*
X4855362Y4181689D01*
Y4185687D01*
X4861360D02*
X4862360Y4186687D01*
X4864359D01*
X4865359Y4185687D01*
Y4181689D01*
X4864359Y4180689D01*
X4862360D01*
X4861360Y4181689D01*
Y4185687D01*
X4867358Y4180689D02*
Y4184688D01*
X4868358D01*
X4869357Y4183688D01*
Y4180689D01*
Y4183688D01*
X4870357Y4184688D01*
X4871357Y4183688D01*
Y4180689D01*
X4873356D02*
Y4184688D01*
X4874356D01*
X4875356Y4183688D01*
Y4180689D01*
Y4183688D01*
X4876355Y4184688D01*
X4877355Y4183688D01*
Y4180689D01*
X5093369Y4368687D02*
X5094368Y4369687D01*
X5096368D01*
X5097367Y4368687D01*
Y4367688D01*
X5096368Y4366688D01*
X5097367Y4365688D01*
Y4364689D01*
X5096368Y4363689D01*
X5094368D01*
X5093369Y4364689D01*
Y4365688D01*
X5094368Y4366688D01*
X5093369Y4367688D01*
Y4368687D01*
X5094368Y4366688D02*
X5096368D01*
X5102366Y4363689D02*
Y4369687D01*
X5099367Y4366688D01*
X5103365D01*
X5105365Y4363689D02*
Y4364689D01*
X5106364D01*
Y4363689D01*
X5105365D01*
X5110363Y4368687D02*
X5111363Y4369687D01*
X5113362D01*
X5114362Y4368687D01*
Y4364689D01*
X5113362Y4363689D01*
X5111363D01*
X5110363Y4364689D01*
Y4368687D01*
X5116361Y4364689D02*
X5117361Y4363689D01*
X5119360D01*
X5120360Y4364689D01*
Y4368687D01*
X5119360Y4369687D01*
X5117361D01*
X5116361Y4368687D01*
Y4367688D01*
X5117361Y4366688D01*
X5120360D01*
X5122359Y4363689D02*
Y4367688D01*
X5123359D01*
X5124359Y4366688D01*
Y4363689D01*
Y4366688D01*
X5125359Y4367688D01*
X5126358Y4366688D01*
Y4363689D01*
X5128357D02*
Y4367688D01*
X5129357D01*
X5130357Y4366688D01*
Y4363689D01*
Y4366688D01*
X5131356Y4367688D01*
X5132356Y4366688D01*
Y4363689D01*
X5043369Y4188689D02*
X5045368D01*
X5044368D01*
Y4194687D01*
X5043369Y4193687D01*
X5048367Y4189689D02*
X5049367Y4188689D01*
X5051366D01*
X5052366Y4189689D01*
Y4193687D01*
X5051366Y4194687D01*
X5049367D01*
X5048367Y4193687D01*
Y4192688D01*
X5049367Y4191688D01*
X5052366D01*
X5054365Y4188689D02*
Y4189689D01*
X5055365D01*
Y4188689D01*
X5054365D01*
X5063362D02*
X5059364D01*
X5063362Y4192688D01*
Y4193687D01*
X5062363Y4194687D01*
X5060363D01*
X5059364Y4193687D01*
X5069360Y4188689D02*
X5065362D01*
X5069360Y4192688D01*
Y4193687D01*
X5068361Y4194687D01*
X5066361D01*
X5065362Y4193687D01*
X5071360Y4188689D02*
Y4192688D01*
X5072359D01*
X5073359Y4191688D01*
Y4188689D01*
Y4191688D01*
X5074359Y4192688D01*
X5075359Y4191688D01*
Y4188689D01*
X5077358D02*
Y4192688D01*
X5078357D01*
X5079357Y4191688D01*
Y4188689D01*
Y4191688D01*
X5080357Y4192688D01*
X5081356Y4191688D01*
Y4188689D01*
X5095868Y4210189D02*
Y4216187D01*
X5092869Y4213188D01*
X5096867D01*
X5098867Y4210189D02*
Y4211189D01*
X5099866D01*
Y4210189D01*
X5098867D01*
X5103865Y4216187D02*
X5107864D01*
Y4215187D01*
X5103865Y4211189D01*
Y4210189D01*
X5109863Y4215187D02*
X5110863Y4216187D01*
X5112862D01*
X5113862Y4215187D01*
Y4211189D01*
X5112862Y4210189D01*
X5110863D01*
X5109863Y4211189D01*
Y4215187D01*
X5115861Y4210189D02*
Y4214188D01*
X5116861D01*
X5117860Y4213188D01*
Y4210189D01*
Y4213188D01*
X5118860Y4214188D01*
X5119860Y4213188D01*
Y4210189D01*
X5121859D02*
Y4214188D01*
X5122859D01*
X5123859Y4213188D01*
Y4210189D01*
Y4213188D01*
X5124858Y4214188D01*
X5125858Y4213188D01*
Y4210189D01*
D34*
X4611869Y4534269D02*
X4623969D01*
X4611869Y4515962D02*
X4745425D01*
X4612869Y4528787D02*
Y4534269D01*
Y4515962D02*
Y4519589D01*
X4610869Y4528269D02*
X4612869Y4534269D01*
X4614869Y4528269D01*
X4612869Y4515962D02*
X4614869Y4521962D01*
X4610869D02*
X4612869Y4515962D01*
X4639526Y4534982D02*
Y4546689D01*
X4625369Y4535669D02*
Y4546689D01*
X4632447Y4545689D02*
X4639526D01*
X4625369D02*
X4632447D01*
X4633526Y4547689D02*
X4639526Y4545689D01*
X4633526Y4543689D02*
X4639526Y4545689D01*
X4625369D02*
X4631369Y4543689D01*
X4625369Y4545689D02*
X4631369Y4547689D01*
X4581869Y4534269D02*
X4623969D01*
X4581869Y4509860D02*
X4643321D01*
X4582869Y4522065D02*
Y4534269D01*
Y4509860D02*
Y4522065D01*
X4580869Y4528269D02*
X4582869Y4534269D01*
X4584869Y4528269D01*
X4582869Y4509860D02*
X4584869Y4515860D01*
X4580869D02*
X4582869Y4509860D01*
X4606369Y4203189D02*
X4623969D01*
X4603469Y4253189D02*
X4608369D01*
X4607369Y4203189D02*
Y4208089D01*
Y4217287D02*
Y4253189D01*
Y4203189D02*
X4609369Y4209189D01*
X4605369D02*
X4607369Y4203189D01*
X4605369Y4247189D02*
X4607369Y4253189D01*
X4609369Y4247189D01*
X5089936Y4179689D02*
Y4201789D01*
X4625369Y4179689D02*
Y4201789D01*
X4878955Y4180689D02*
X5089936D01*
X4625369D02*
X4832769D01*
X5083936Y4182689D02*
X5089936Y4180689D01*
X5083936Y4178689D02*
X5089936Y4180689D01*
X4625369D02*
X4631369Y4178689D01*
X4625369Y4180689D02*
X4631369Y4182689D01*
X5091336Y4203189D02*
X5131409D01*
X5091336Y4534269D02*
X5131409D01*
X5130409Y4203189D02*
Y4362089D01*
Y4371287D02*
Y4534269D01*
Y4203189D02*
X5132409Y4209189D01*
X5128409D02*
X5130409Y4203189D01*
X5128409Y4528269D02*
X5130409Y4534269D01*
X5132409Y4528269D01*
X5089936Y4190189D02*
Y4203189D01*
X5014269Y4184689D02*
Y4192189D01*
X5082956Y4191189D02*
X5089936D01*
X5014269D02*
X5041769D01*
X5083936Y4193189D02*
X5089936Y4191189D01*
X5083936Y4189189D02*
X5089936Y4191189D01*
X5014269D02*
X5020269Y4189189D01*
X5014269Y4191189D02*
X5020269Y4193189D01*
X5089936Y4203189D02*
X5102936D01*
X5014269Y4184689D02*
X5102936D01*
X5101936Y4193939D02*
Y4203189D01*
Y4184689D02*
Y4193939D01*
X5099936Y4197189D02*
X5101936Y4203189D01*
X5103936Y4197189D01*
X5101936Y4184689D02*
X5103936Y4190689D01*
X5099936D02*
X5101936Y4184689D01*
M02*
