M48
;Layer_Color=9474304
;FILE_FORMAT=2:5
INCH,LZ
;TYPE=PLATED
T1F00S00C0.01200
T2F00S00C0.03543
T3F00S00C0.03937
T5F00S00C0.05118
T6F00S00C0.07874
T8F00S00C0.09449
;TYPE=NON_PLATED
T9F00S00C0.16150
%
T01
X4779869Y4218689
X4775869
X4771869
X4695869Y4218189
X4691869
X4687869
X4880369Y4218689
X4884369
X4888369
X4931369Y4218189
X4935369
X4939369
X4984869Y4217689
X4988869
X4992869
X5067369
X5071369
X5075369
X5080869Y4255189
Y4259189
Y4263189
Y4301189
Y4305189
Y4309189
X5081869Y4350189
Y4354189
Y4358189
X5036869Y4363689
X5032869
X5013369Y4361189
X5007369Y4373189
X5002369
X5034369Y4339189
Y4335189
Y4331189
X5028869
X5025469Y4300984
X5041369Y4301189
X5053369Y4273689
X5001369Y4263189
Y4259189
X5001869Y4303189
Y4307189
X4997869
X4993869
Y4303189
X4997869
X4994369Y4323689
X4990369Y4319689
X4984369Y4323189
X4989369Y4328189
X4985869Y4334689
X4977369
X4968369Y4331689
Y4314189
X4967869Y4303689
X4957869Y4308689
Y4319189
Y4293189
Y4283189
X4952869Y4279689
X4941869Y4281189
X4957869Y4270189
X4968387Y4288689
X4967869Y4241689
X4984869Y4221689
X4988869
X4992869
X4993369Y4259189
Y4263189
X4997369
Y4259189
X4927369Y4258689
X4923369
X4919369
Y4254689
X4923369
X4927369
X4931369Y4222189
X4935369
X4939369
X4888369Y4222689
X4884369
X4880369
X4881369Y4260189
Y4264189
X4885369
X4889369
Y4260189
X4885369
X4886369Y4311636
X4890369
X4896869Y4323189
X4900869
X4904869
X4906869Y4315689
X4911869
X4913369Y4303189
X4909369
X4905369
Y4299189
X4909369
X4913369
X4879369Y4319189
X4875369
X4882369Y4343689
Y4347689
Y4351689
X4861369Y4350189
X4860869Y4365689
X4850869Y4371189
X4845369Y4360689
Y4336689
X4915869Y4364189
X4932869Y4368689
X4943369Y4372189
X4954369Y4350189
X4968369
X4983369Y4350689
X4983569Y4364389
X4970369Y4365689
X4948369Y4341189
X4825869Y4311689
X4821869
X4824369Y4302189
X4828369
X4832369
Y4298189
X4828369
X4824369
X4825869Y4264189
X4829869
X4833869
Y4260189
X4829869
X4825869
X4827369Y4223189
X4831369
X4835369
Y4219189
X4831369
X4827369
X4779869Y4222689
X4775869
X4771869
X4773369Y4260189
X4777369
X4781369
Y4264189
X4777369
X4773369
X4774369Y4300689
Y4304689
X4778369
X4782369
Y4300689
X4778369
X4738369Y4305189
X4720869Y4302689
X4716869
X4704869Y4309689
Y4313689
X4700869Y4352689
Y4356689
X4696869
X4692869
Y4352689
X4696869
X4751869Y4363689
X4792869Y4352189
X4796869
X4800869
Y4348189
X4796869
X4792869
X4740369Y4284189
X4712869Y4264689
Y4260689
X4708869
X4704869
Y4264689
X4708869
X4695869Y4222189
X4691869
X4687869
X4741888Y4233189
Y4237189
X4652869Y4260689
X4648869
X4644869
Y4265189
X4648869
X4652869
X4650869Y4351689
Y4355689
X4646869
X4642869
Y4351689
X4646869
X4645369Y4397189
Y4401189
X4649369
Y4397189
X4641369
Y4401189
X4676869Y4420484
Y4377689
X4677369Y4509689
Y4513689
X4681369
X4685369
Y4509689
X4681369
X4693369Y4442189
Y4438189
Y4434189
X4703676Y4425689
X4715369Y4437689
X4717963Y4449122
Y4453256
X4775569Y4451689
X4772436Y4464689
X4768302
X4794369Y4466189
X4790869Y4442689
X4817869Y4450189
X482514Y4449689
X4829274
X4826869Y4472189
X4820097Y4472195
X4815963
X4817869Y4427689
X4813869
X4821869
X4838109Y4423058
Y4410689
X4817369Y4408189
X4813369
X4809369
X4801869Y4384689
X4797869
X4793869
X4828869Y4384189
X4832869
X4743707Y4399339
X4713869Y4390189
X4850869Y4379689
X4861369Y4404689
X4861317Y4423058
X4853869Y4422689
X4852869Y4434689
X4854869Y4444689
X4858869
X4850869
X4883869Y4446189
Y4442189
Y4438189
X4877869Y4431189
Y4423189
X4880369Y4412189
X4916869Y4412689
Y4405189
Y4397689
Y4386689
X4918969Y4378489
X4916869Y4375189
X4905869Y4375689
X4900869Y4395689
X4932369Y4397689
Y4406689
X4933369Y4423189
X4934369Y4436689
X4936869Y4445189
X4933869Y4448189
X4922869Y4452189
X4920869Y4455189
X4916869Y4427689
Y4420189
X4950369Y4416004
Y4407189
Y4393689
X4930969Y4386789
X4936369Y4375189
X4965869Y4380689
X4990869Y4381689
X4995869Y4386189
X4996369Y4407689
Y4412689
X4977369Y4409189
Y4405189
X4973369
X4969369
Y4409189
X4973369
X4979369Y4427189
X4984369
X4996369Y4441189
X4969869
X4965369Y4441689
X4969369Y4457689
X4952869Y4465189
Y4469189
X4954331Y4481207
X4942369Y4505189
Y4509189
X4906869Y4516689
Y4520689
X4902869
X4898869
Y4516689
X4902869
Y4485189
X4906869
Y4481189
X4902869
X4898869
Y4485189
X4874936Y4465689
X4870802
X4944869Y4442189
Y4437689
X4950369Y4427189
X4988369Y4470689
X4989869Y4490689
X4985869
X4993869
X4980369Y4502689
X5005869Y4516689
Y4520689
X5009869
X5013869
Y4516689
X5009869
X5038369Y4489189
Y4485189
X5042369
X5046369
Y4489189
X5042369
X5073869Y4481689
Y4477689
Y4473689
X5077869
Y4477689
Y4481689
X5077369Y4516689
Y4520689
X5073369
X5069369
Y4516689
X5073369
X5065869Y4437189
Y4433189
X5061869
X5057869
Y4437189
X5061869
X5034369Y4420689
X5037869Y4413689
X5030869Y4412189
X5029369Y4400189
Y4392189
X5013869Y4393189
X5013052Y4400189
X5011869Y4378189
X5043369Y4379189
X5046369Y4386689
X5051869Y4400689
X5079869Y4400189
Y4404189
Y4396189
X5013509Y443233
X5006869Y4432689
X5001369Y4435689
X5007869Y4444189
X5013869Y4445189
X5004887Y4452707
X5006869Y4458189
X5003369Y4460689
T02
X4907869Y4356189
X4897869
X4853369Y4311689
X4843369
X4799369
X4789369
X4750369Y4312689
Y4322689
X4735369Y4359689
X4725369
X4749369Y4257189
X4759369
X4798424Y4234189
X4808424
X4686869Y4397189
X4676869
X4676869Y4474189
X4686869
X4751869Y4384689
X4761869
X4882869Y4392689
X4892869
X4967869Y4509689
Y4519689
T03
X4862424Y4232697
X4852424
X4755869Y4449491
X4745869
X4931369Y4466189
X4941369
T05
X4825369Y4365689
Y4355846
Y4346004
Y4336161
X4655869Y4320374
Y4310532
Y4300689
Y4290847
T06
X4833046Y4486435
X4807455
X4777928
X4752337
X472281
X4862573
T08
X4807455Y4515962
X4752337
X4862573
T09
X5033873Y4224094
X4639148Y422248
X4639148Y4455512
M30
