%FSLAX25Y25*%
%MOIN*%
G70*
G01*
G75*
%ADD10C,0.01969*%
%ADD11R,0.03543X0.03150*%
%ADD12R,0.03150X0.03543*%
%ADD13R,0.04724X0.08661*%
%ADD14R,0.13780X0.08661*%
%ADD15R,0.05512X0.03937*%
%ADD16R,0.03937X0.05512*%
%ADD17R,0.18110X0.07087*%
%ADD18O,0.00709X0.06299*%
%ADD19O,0.06299X0.00709*%
%ADD20O,0.04921X0.01575*%
%ADD21R,0.05118X0.04724*%
%ADD22R,0.04724X0.05118*%
%ADD23R,0.04331X0.03937*%
%ADD24R,0.03937X0.04331*%
%ADD25O,0.08661X0.02362*%
%ADD26R,0.08661X0.02362*%
%ADD27R,0.07874X0.21654*%
%ADD28R,0.03937X0.02362*%
%ADD29C,0.02000*%
%ADD30C,0.00600*%
%ADD31C,0.00787*%
%ADD32C,0.00700*%
%ADD33C,0.04000*%
%ADD34C,0.01000*%
%ADD35C,0.01500*%
%ADD36C,0.31032*%
%ADD37C,0.11024*%
%ADD38C,0.09449*%
%ADD39R,0.07874X0.11811*%
%ADD40O,0.05906X0.07087*%
%ADD41R,0.05906X0.07087*%
%ADD42O,0.05512X0.06693*%
%ADD43R,0.05512X0.06693*%
%ADD44O,0.06693X0.05512*%
%ADD45R,0.06693X0.05512*%
%ADD46C,0.06693*%
%ADD47C,0.03937*%
%ADD48O,0.11811X0.07000*%
%ADD49O,0.07000X0.11811*%
%ADD50C,0.02500*%
%ADD51C,0.08000*%
%ADD52C,0.00800*%
%ADD53C,0.00984*%
%ADD54C,0.02362*%
D31*
X4752694Y4425189D02*
G03*
X4755194Y4425189I1250J0D01*
G01*
X5041119Y4509689D02*
G03*
X5043619Y4509689I1250J0D01*
G01*
X4786180Y4269973D02*
X4812558D01*
Y4282283D01*
X4786180Y4269973D02*
Y4282283D01*
X4812558D01*
X4663680Y4438700D02*
X4690058D01*
X4663680Y4426390D02*
Y4438700D01*
X4690058Y4426390D02*
Y4438700D01*
X4663680Y4426390D02*
X4690058D01*
X4866558Y4269973D02*
Y4282283D01*
X4840180Y4269973D02*
X4866558D01*
X4840180Y4282283D02*
X4866558D01*
X4840180Y4269973D02*
Y4282084D01*
X4947224Y4378208D02*
X4999192D01*
X4947224Y4430177D02*
X4999192D01*
X4947224Y4378208D02*
Y4430177D01*
X4999192Y4378208D02*
Y4430177D01*
X4979668Y4244291D02*
X5017070D01*
X4979668Y4332087D02*
X5017070D01*
Y4244291D02*
Y4332087D01*
X4979668Y4244291D02*
Y4332087D01*
X4749357Y4405189D02*
Y4425189D01*
X4749408Y4405189D02*
X4758508D01*
X4758707Y4410760D02*
Y4419618D01*
X4755194Y4425189D02*
X4758707D01*
X4749508D02*
X4752694D01*
X4758707Y4405189D02*
Y4410760D01*
Y4419618D02*
Y4425189D01*
X5031877Y4509689D02*
X5041119D01*
X5043619D02*
X5052861D01*
Y4469689D02*
Y4509689D01*
X5031877Y4469689D02*
X5052861D01*
X5031877D02*
Y4509689D01*
X4747969Y4290094D02*
X4750969D01*
X4747969Y4278283D02*
X4750969D01*
X4747969D02*
Y4290094D01*
X4750969Y4278283D02*
Y4290094D01*
D32*
X4738829Y4225589D02*
G03*
X4738829Y4218789I3400J-3400D01*
G01*
X4752428D02*
G03*
X4752428Y4225589I-3400J3400D01*
G01*
X4863498Y4442589D02*
G03*
X4863498Y4435789I3400J-3400D01*
G01*
X4877098D02*
G03*
X4877098Y4442589I-3400J3400D01*
G01*
X4846409Y4435789D02*
G03*
X4846409Y4442589I-3400J3400D01*
G01*
X4832809D02*
G03*
X4832809Y4435789I3400J-3400D01*
G01*
X4794329Y4443089D02*
G03*
X4794329Y4436289I3400J-3400D01*
G01*
X4807928D02*
G03*
X4807928Y4443089I-3400J3400D01*
G01*
X4700276Y4415149D02*
G03*
X4707076Y4415149I3400J3400D01*
G01*
Y4428749D02*
G03*
X4700276Y4428749I-3400J-3400D01*
G01*
X4930069Y4491589D02*
G03*
X4930069Y4484789I3400J-3400D01*
G01*
X4943669D02*
G03*
X4943669Y4491589I-3400J3400D01*
G01*
X4945969Y4358489D02*
G03*
X4944969Y4357489I0J-1000D01*
G01*
X4951769D02*
G03*
X4950769Y4358489I-1000J0D01*
G01*
Y4343889D02*
G03*
X4951769Y4344889I0J1000D01*
G01*
X4944969D02*
G03*
X4945969Y4343889I1000J0D01*
G01*
X5017069Y4418289D02*
G03*
X5018069Y4417289I1000J0D01*
G01*
Y4424089D02*
G03*
X5017069Y4423089I0J-1000D01*
G01*
X5031669D02*
G03*
X5030669Y4424089I-1000J0D01*
G01*
Y4417289D02*
G03*
X5031669Y4418289I0J1000D01*
G01*
X4770819Y4393789D02*
G03*
X4771819Y4392789I1000J0D01*
G01*
Y4399589D02*
G03*
X4770819Y4398589I0J-1000D01*
G01*
X4785419D02*
G03*
X4784419Y4399589I-1000J0D01*
G01*
Y4392789D02*
G03*
X4785419Y4393789I0J1000D01*
G01*
X4737929Y4398589D02*
G03*
X4736929Y4399589I-1000J0D01*
G01*
Y4392789D02*
G03*
X4737929Y4393789I0J1000D01*
G01*
X4723329D02*
G03*
X4724329Y4392789I1000J0D01*
G01*
Y4399589D02*
G03*
X4723329Y4398589I0J-1000D01*
G01*
X4784003Y4438089D02*
G03*
X4783003Y4439089I-1000J0D01*
G01*
Y4432289D02*
G03*
X4784003Y4433289I0J1000D01*
G01*
X4769403D02*
G03*
X4770403Y4432289I1000J0D01*
G01*
Y4439089D02*
G03*
X4769403Y4438089I0J-1000D01*
G01*
X4734240D02*
G03*
X4733240Y4439089I-1000J0D01*
G01*
Y4432289D02*
G03*
X4734240Y4433289I0J1000D01*
G01*
X4719640D02*
G03*
X4720639Y4432289I1000J0D01*
G01*
Y4439089D02*
G03*
X4719640Y4438089I0J-1000D01*
G01*
X4993969Y4513179D02*
G03*
X4992969Y4512179I0J-1000D01*
G01*
X4999769D02*
G03*
X4998769Y4513179I-1000J0D01*
G01*
Y4498579D02*
G03*
X4999769Y4499579I0J1000D01*
G01*
X4992969D02*
G03*
X4993969Y4498579I1000J0D01*
G01*
X4700272Y4308126D02*
G03*
X4701272Y4309126I0J1000D01*
G01*
Y4313126D02*
G03*
X4700272Y4314126I-1000J0D01*
G01*
X4689272D02*
G03*
X4688272Y4313126I0J-1000D01*
G01*
Y4309126D02*
G03*
X4689272Y4308126I1000J0D01*
G01*
X4708849Y4315189D02*
G03*
X4707849Y4314189I0J-1000D01*
G01*
Y4310189D02*
G03*
X4708849Y4309189I1000J0D01*
G01*
X4719849D02*
G03*
X4720849Y4310189I0J1000D01*
G01*
Y4314189D02*
G03*
X4719849Y4315189I-1000J0D01*
G01*
X5034869Y4275961D02*
G03*
X5035869Y4274961I1000J0D01*
G01*
X5039869D02*
G03*
X5040869Y4275961I0J1000D01*
G01*
Y4286961D02*
G03*
X5039869Y4287960I-1000J0D01*
G01*
X5035869D02*
G03*
X5034869Y4286961I0J-1000D01*
G01*
X4747215Y4235189D02*
G03*
X4746215Y4234189I0J-1000D01*
G01*
Y4230189D02*
G03*
X4747215Y4229189I1000J0D01*
G01*
X4758215D02*
G03*
X4759215Y4230189I0J1000D01*
G01*
Y4234189D02*
G03*
X4758215Y4235189I-1000J0D01*
G01*
X4990469Y4509457D02*
G03*
X4985269Y4509457I-2600J-2600D01*
G01*
Y4499857D02*
G03*
X4990469Y4499857I2600J2600D01*
G01*
X4951469Y4517007D02*
G03*
X4946269Y4517007I-2600J-2600D01*
G01*
Y4507407D02*
G03*
X4951469Y4507407I2600J2600D01*
G01*
X4949169Y4273589D02*
G03*
X4949169Y4278789I-2600J2600D01*
G01*
X4939569D02*
G03*
X4939569Y4273589I2600J-2600D01*
G01*
X4932769Y4353889D02*
G03*
X4933769Y4352889I1000J0D01*
G01*
X4936969D02*
G03*
X4937969Y4353889I0J1000D01*
G01*
X4933769Y4363489D02*
G03*
X4932769Y4362489I0J-1000D01*
G01*
X4937969D02*
G03*
X4936969Y4363489I-1000J0D01*
G01*
X4904069Y4395289D02*
G03*
X4903069Y4394289I0J-1000D01*
G01*
Y4391089D02*
G03*
X4904069Y4390089I1000J0D01*
G01*
X4913669Y4394289D02*
G03*
X4912669Y4395289I-1000J0D01*
G01*
Y4390089D02*
G03*
X4913669Y4391089I0J1000D01*
G01*
X4954269Y4353889D02*
G03*
X4955269Y4352889I1000J0D01*
G01*
X4958469D02*
G03*
X4959469Y4353889I0J1000D01*
G01*
X4955269Y4363489D02*
G03*
X4954269Y4362489I0J-1000D01*
G01*
X4959469D02*
G03*
X4958469Y4363489I-1000J0D01*
G01*
X4929169Y4417589D02*
G03*
X4930169Y4418589I0J1000D01*
G01*
Y4421789D02*
G03*
X4929169Y4422789I-1000J0D01*
G01*
X4919569Y4418589D02*
G03*
X4920569Y4417589I1000J0D01*
G01*
Y4422789D02*
G03*
X4919569Y4421789I0J-1000D01*
G01*
X4929169Y4410089D02*
G03*
X4930169Y4411089I0J1000D01*
G01*
Y4414289D02*
G03*
X4929169Y4415289I-1000J0D01*
G01*
X4919569Y4411089D02*
G03*
X4920569Y4410089I1000J0D01*
G01*
Y4415289D02*
G03*
X4919569Y4414289I0J-1000D01*
G01*
X4714769Y4407289D02*
G03*
X4713769Y4406289I0J-1000D01*
G01*
Y4403089D02*
G03*
X4714769Y4402089I1000J0D01*
G01*
X4724369Y4406289D02*
G03*
X4723369Y4407289I-1000J0D01*
G01*
Y4402089D02*
G03*
X4724369Y4403089I0J1000D01*
G01*
X4785269Y4411143D02*
G03*
X4786269Y4410143I1000J0D01*
G01*
X4789469D02*
G03*
X4790469Y4411143I0J1000D01*
G01*
X4786269Y4420742D02*
G03*
X4785269Y4419743I0J-1000D01*
G01*
X4790469D02*
G03*
X4789469Y4420742I-1000J0D01*
G01*
X4715269Y4410871D02*
G03*
X4716269Y4409871I1000J0D01*
G01*
X4719469D02*
G03*
X4720469Y4410871I0J1000D01*
G01*
X4716269Y4420471D02*
G03*
X4715269Y4419471I0J-1000D01*
G01*
X4720469D02*
G03*
X4719469Y4420471I-1000J0D01*
G01*
X4864858Y4433289D02*
G03*
X4863858Y4432289I0J-1000D01*
G01*
Y4429089D02*
G03*
X4864858Y4428089I1000J0D01*
G01*
X4874458Y4432289D02*
G03*
X4873458Y4433289I-1000J0D01*
G01*
Y4428089D02*
G03*
X4874458Y4429089I0J1000D01*
G01*
X4875738Y4445589D02*
G03*
X4876738Y4446589I0J1000D01*
G01*
Y4449789D02*
G03*
X4875738Y4450789I-1000J0D01*
G01*
X4866138Y4446589D02*
G03*
X4867138Y4445589I1000J0D01*
G01*
Y4450789D02*
G03*
X4866138Y4449789I0J-1000D01*
G01*
X4841649Y4433289D02*
G03*
X4840649Y4432289I0J-1000D01*
G01*
Y4429089D02*
G03*
X4841649Y4428089I1000J0D01*
G01*
X4851249Y4432289D02*
G03*
X4850249Y4433289I-1000J0D01*
G01*
Y4428089D02*
G03*
X4851249Y4429089I0J1000D01*
G01*
X4755669Y4358289D02*
G03*
X4754669Y4357289I0J-1000D01*
G01*
Y4354089D02*
G03*
X4755669Y4353089I1000J0D01*
G01*
X4765269Y4357289D02*
G03*
X4764269Y4358289I-1000J0D01*
G01*
Y4353089D02*
G03*
X4765269Y4354089I0J1000D01*
G01*
X4755669Y4366289D02*
G03*
X4754669Y4365289I0J-1000D01*
G01*
Y4362089D02*
G03*
X4755669Y4361089I1000J0D01*
G01*
X4765269Y4365289D02*
G03*
X4764269Y4366289I-1000J0D01*
G01*
Y4361089D02*
G03*
X4765269Y4362089I0J1000D01*
G01*
X4963969Y4452989D02*
G03*
X4962969Y4453989I-1000J0D01*
G01*
X4959769D02*
G03*
X4958769Y4452989I0J-1000D01*
G01*
X4962969Y4443389D02*
G03*
X4963969Y4444389I0J1000D01*
G01*
X4958769D02*
G03*
X4959769Y4443389I1000J0D01*
G01*
X4980844Y4353889D02*
G03*
X4981844Y4352889I1000J0D01*
G01*
X4985044D02*
G03*
X4986044Y4353889I0J1000D01*
G01*
X4981844Y4363489D02*
G03*
X4980844Y4362489I0J-1000D01*
G01*
X4986044D02*
G03*
X4985044Y4363489I-1000J0D01*
G01*
X5025669Y4375589D02*
G03*
X5026669Y4376589I0J1000D01*
G01*
Y4379789D02*
G03*
X5025669Y4380789I-1000J0D01*
G01*
X5016069Y4376589D02*
G03*
X5017069Y4375589I1000J0D01*
G01*
Y4380789D02*
G03*
X5016069Y4379789I0J-1000D01*
G01*
X5025992Y4389589D02*
G03*
X5026992Y4390589I0J1000D01*
G01*
Y4393789D02*
G03*
X5025992Y4394789I-1000J0D01*
G01*
X5016392Y4390589D02*
G03*
X5017392Y4389589I1000J0D01*
G01*
Y4394789D02*
G03*
X5016392Y4393789I0J-1000D01*
G01*
X4987469Y4454489D02*
G03*
X4986469Y4455489I-1000J0D01*
G01*
X4983269D02*
G03*
X4982269Y4454489I0J-1000D01*
G01*
X4986469Y4444889D02*
G03*
X4987469Y4445889I0J1000D01*
G01*
X4982269D02*
G03*
X4983269Y4444889I1000J0D01*
G01*
X5025751Y4429730D02*
G03*
X5026751Y4430730I0J1000D01*
G01*
Y4433930D02*
G03*
X5025751Y4434930I-1000J0D01*
G01*
X5016151Y4430730D02*
G03*
X5017151Y4429730I1000J0D01*
G01*
Y4434930D02*
G03*
X5016151Y4433930I0J-1000D01*
G01*
X4965769Y4353889D02*
G03*
X4966769Y4352889I1000J0D01*
G01*
X4969969D02*
G03*
X4970969Y4353889I0J1000D01*
G01*
X4966769Y4363489D02*
G03*
X4965769Y4362489I0J-1000D01*
G01*
X4970969D02*
G03*
X4969969Y4363489I-1000J0D01*
G01*
X4997269Y4445889D02*
G03*
X4998269Y4444889I1000J0D01*
G01*
X5001469D02*
G03*
X5002469Y4445889I0J1000D01*
G01*
X4998269Y4455489D02*
G03*
X4997269Y4454489I0J-1000D01*
G01*
X5002469D02*
G03*
X5001469Y4455489I-1000J0D01*
G01*
X4920569Y4377789D02*
G03*
X4919569Y4376789I0J-1000D01*
G01*
Y4373589D02*
G03*
X4920569Y4372589I1000J0D01*
G01*
X4930169Y4376789D02*
G03*
X4929169Y4377789I-1000J0D01*
G01*
Y4372589D02*
G03*
X4930169Y4373589I0J1000D01*
G01*
X5025992Y4397589D02*
G03*
X5026992Y4398589I0J1000D01*
G01*
Y4401789D02*
G03*
X5025992Y4402789I-1000J0D01*
G01*
X5016392Y4398589D02*
G03*
X5017392Y4397589I1000J0D01*
G01*
Y4402789D02*
G03*
X5016392Y4401789I0J-1000D01*
G01*
X5025669Y4437089D02*
G03*
X5026669Y4438089I0J1000D01*
G01*
Y4441289D02*
G03*
X5025669Y4442289I-1000J0D01*
G01*
X5016069Y4438089D02*
G03*
X5017069Y4437089I1000J0D01*
G01*
Y4442289D02*
G03*
X5016069Y4441289I0J-1000D01*
G01*
X4834169Y4450789D02*
G03*
X4833169Y4449789I0J-1000D01*
G01*
Y4446589D02*
G03*
X4834169Y4445589I1000J0D01*
G01*
X4843769Y4449789D02*
G03*
X4842769Y4450789I-1000J0D01*
G01*
Y4445589D02*
G03*
X4843769Y4446589I0J1000D01*
G01*
X4904069Y4383289D02*
G03*
X4903069Y4382289I0J-1000D01*
G01*
Y4379089D02*
G03*
X4904069Y4378089I1000J0D01*
G01*
X4913669Y4382289D02*
G03*
X4912669Y4383289I-1000J0D01*
G01*
Y4378089D02*
G03*
X4913669Y4379089I0J1000D01*
G01*
X4795688Y4433789D02*
G03*
X4794688Y4432789I0J-1000D01*
G01*
Y4429589D02*
G03*
X4795688Y4428589I1000J0D01*
G01*
X4805288Y4432789D02*
G03*
X4804288Y4433789I-1000J0D01*
G01*
Y4428589D02*
G03*
X4805288Y4429589I0J1000D01*
G01*
X4806569Y4445589D02*
G03*
X4807569Y4446589I0J1000D01*
G01*
Y4449789D02*
G03*
X4806569Y4450789I-1000J0D01*
G01*
X4796969Y4446589D02*
G03*
X4797969Y4445589I1000J0D01*
G01*
Y4450789D02*
G03*
X4796969Y4449789I0J-1000D01*
G01*
X4701976Y4399309D02*
G03*
X4700976Y4398309I0J-1000D01*
G01*
Y4395109D02*
G03*
X4701976Y4394109I1000J0D01*
G01*
X4711576Y4398309D02*
G03*
X4710576Y4399309I-1000J0D01*
G01*
Y4394109D02*
G03*
X4711576Y4395109I0J1000D01*
G01*
X5027447Y4409589D02*
G03*
X5028447Y4410589I0J1000D01*
G01*
Y4413789D02*
G03*
X5027447Y4414789I-1000J0D01*
G01*
X5017847Y4410589D02*
G03*
X5018847Y4409589I1000J0D01*
G01*
Y4414789D02*
G03*
X5017847Y4413789I0J-1000D01*
G01*
X4920569Y4400289D02*
G03*
X4919569Y4399289I0J-1000D01*
G01*
Y4396089D02*
G03*
X4920569Y4395089I1000J0D01*
G01*
X4930169Y4399289D02*
G03*
X4929169Y4400289I-1000J0D01*
G01*
Y4395089D02*
G03*
X4930169Y4396089I0J1000D01*
G01*
X4971469Y4452989D02*
G03*
X4970469Y4453989I-1000J0D01*
G01*
X4967269D02*
G03*
X4966269Y4452989I0J-1000D01*
G01*
X4970469Y4443389D02*
G03*
X4971469Y4444389I0J1000D01*
G01*
X4966269D02*
G03*
X4967269Y4443389I1000J0D01*
G01*
X4920569Y4407789D02*
G03*
X4919569Y4406789I0J-1000D01*
G01*
Y4403589D02*
G03*
X4920569Y4402589I1000J0D01*
G01*
X4930169Y4406789D02*
G03*
X4929169Y4407789I-1000J0D01*
G01*
Y4402589D02*
G03*
X4930169Y4403589I0J1000D01*
G01*
X4920569Y4430289D02*
G03*
X4919569Y4429289I0J-1000D01*
G01*
Y4426089D02*
G03*
X4920569Y4425089I1000J0D01*
G01*
X4930169Y4429289D02*
G03*
X4929169Y4430289I-1000J0D01*
G01*
Y4425089D02*
G03*
X4930169Y4426089I0J1000D01*
G01*
X4935969Y4518007D02*
G03*
X4934969Y4519007I-1000J0D01*
G01*
X4931769D02*
G03*
X4930769Y4518007I0J-1000D01*
G01*
X4934969Y4508407D02*
G03*
X4935969Y4509407I0J1000D01*
G01*
X4930769D02*
G03*
X4931769Y4508407I1000J0D01*
G01*
X4920569Y4445289D02*
G03*
X4919569Y4444289I0J-1000D01*
G01*
Y4441089D02*
G03*
X4920569Y4440089I1000J0D01*
G01*
X4930169Y4444289D02*
G03*
X4929169Y4445289I-1000J0D01*
G01*
Y4440089D02*
G03*
X4930169Y4441089I0J1000D01*
G01*
X4749060Y4432789D02*
G03*
X4748060Y4431789I0J-1000D01*
G01*
Y4428589D02*
G03*
X4749060Y4427589I1000J0D01*
G01*
X4758660Y4431789D02*
G03*
X4757660Y4432789I-1000J0D01*
G01*
Y4427589D02*
G03*
X4758660Y4428589I0J1000D01*
G01*
X4914543Y4493789D02*
G03*
X4913543Y4492789I0J-1000D01*
G01*
Y4489589D02*
G03*
X4914543Y4488589I1000J0D01*
G01*
X4924143Y4492789D02*
G03*
X4923143Y4493789I-1000J0D01*
G01*
Y4488589D02*
G03*
X4924143Y4489589I0J1000D01*
G01*
X4809969Y4240189D02*
G03*
X4810969Y4241189I0J1000D01*
G01*
Y4244389D02*
G03*
X4809969Y4245389I-1000J0D01*
G01*
X4800369Y4241189D02*
G03*
X4801369Y4240189I1000J0D01*
G01*
Y4245389D02*
G03*
X4800369Y4244389I0J-1000D01*
G01*
X4920569Y4389289D02*
G03*
X4919569Y4388289I0J-1000D01*
G01*
Y4385089D02*
G03*
X4920569Y4384089I1000J0D01*
G01*
X4930169Y4388289D02*
G03*
X4929169Y4389289I-1000J0D01*
G01*
Y4384089D02*
G03*
X4930169Y4385089I0J1000D01*
G01*
X4667569Y4459189D02*
G03*
X4666569Y4458189I0J-1000D01*
G01*
Y4454989D02*
G03*
X4667569Y4453989I1000J0D01*
G01*
X4677169Y4458189D02*
G03*
X4676169Y4459189I-1000J0D01*
G01*
Y4453989D02*
G03*
X4677169Y4454989I0J1000D01*
G01*
X4712703Y4318589D02*
G03*
X4713702Y4319589I0J1000D01*
G01*
Y4322789D02*
G03*
X4712703Y4323789I-1000J0D01*
G01*
X4703102Y4319589D02*
G03*
X4704102Y4318589I1000J0D01*
G01*
Y4323789D02*
G03*
X4703102Y4322789I0J-1000D01*
G01*
X4791669Y4403089D02*
G03*
X4792669Y4404089I0J1000D01*
G01*
Y4407289D02*
G03*
X4791669Y4408289I-1000J0D01*
G01*
X4782069Y4404089D02*
G03*
X4783069Y4403089I1000J0D01*
G01*
Y4408289D02*
G03*
X4782069Y4407289I0J-1000D01*
G01*
X4818469Y4313389D02*
G03*
X4817469Y4314389I-1000J0D01*
G01*
X4814269D02*
G03*
X4813269Y4313389I0J-1000D01*
G01*
X4817469Y4303789D02*
G03*
X4818469Y4304789I0J1000D01*
G01*
X4813269D02*
G03*
X4814269Y4303789I1000J0D01*
G01*
X4725169Y4308289D02*
G03*
X4724169Y4307289I0J-1000D01*
G01*
Y4304089D02*
G03*
X4725169Y4303089I1000J0D01*
G01*
X4734769Y4307289D02*
G03*
X4733769Y4308289I-1000J0D01*
G01*
Y4303089D02*
G03*
X4734769Y4304089I0J1000D01*
G01*
X4675169Y4381289D02*
G03*
X4674169Y4380289I0J-1000D01*
G01*
Y4377089D02*
G03*
X4675169Y4376089I1000J0D01*
G01*
X4684769Y4380289D02*
G03*
X4683769Y4381289I-1000J0D01*
G01*
Y4376089D02*
G03*
X4684769Y4377089I0J1000D01*
G01*
X4961551Y4329289D02*
G03*
X4960551Y4328289I0J-1000D01*
G01*
Y4325089D02*
G03*
X4961551Y4324089I1000J0D01*
G01*
X4971151Y4328289D02*
G03*
X4970151Y4329289I-1000J0D01*
G01*
Y4324089D02*
G03*
X4971151Y4325089I0J1000D01*
G01*
X4961551Y4321789D02*
G03*
X4960551Y4320789I0J-1000D01*
G01*
Y4317589D02*
G03*
X4961551Y4316589I1000J0D01*
G01*
X4971151Y4320789D02*
G03*
X4970151Y4321789I-1000J0D01*
G01*
Y4316589D02*
G03*
X4971151Y4317589I0J1000D01*
G01*
X4961569Y4295907D02*
G03*
X4960569Y4294907I0J-1000D01*
G01*
Y4291707D02*
G03*
X4961569Y4290707I1000J0D01*
G01*
X4971169Y4294907D02*
G03*
X4970169Y4295907I-1000J0D01*
G01*
Y4290707D02*
G03*
X4971169Y4291707I0J1000D01*
G01*
X4961569Y4311289D02*
G03*
X4960569Y4310289I0J-1000D01*
G01*
Y4307089D02*
G03*
X4961569Y4306089I1000J0D01*
G01*
X4971169Y4310289D02*
G03*
X4970169Y4311289I-1000J0D01*
G01*
Y4306089D02*
G03*
X4971169Y4307089I0J1000D01*
G01*
X4961569Y4285789D02*
G03*
X4960569Y4284789I0J-1000D01*
G01*
Y4281589D02*
G03*
X4961569Y4280589I1000J0D01*
G01*
X4971169Y4284789D02*
G03*
X4970169Y4285789I-1000J0D01*
G01*
Y4280589D02*
G03*
X4971169Y4281589I0J1000D01*
G01*
X4961050Y4249844D02*
G03*
X4960051Y4248844I0J-1000D01*
G01*
Y4245644D02*
G03*
X4961050Y4244644I1000J0D01*
G01*
X4970650Y4248844D02*
G03*
X4969651Y4249844I-1000J0D01*
G01*
Y4244644D02*
G03*
X4970650Y4245644I0J1000D01*
G01*
X5037419Y4298384D02*
G03*
X5038419Y4299384I0J1000D01*
G01*
Y4302584D02*
G03*
X5037419Y4303584I-1000J0D01*
G01*
X5027819Y4299384D02*
G03*
X5028819Y4298384I1000J0D01*
G01*
Y4303584D02*
G03*
X5027819Y4302584I0J-1000D01*
G01*
X4701976Y4437789D02*
G03*
X4700976Y4436789I0J-1000D01*
G01*
Y4433589D02*
G03*
X4701976Y4432589I1000J0D01*
G01*
X4711576Y4436789D02*
G03*
X4710576Y4437789I-1000J0D01*
G01*
Y4432589D02*
G03*
X4711576Y4433589I0J1000D01*
G01*
X5036087Y4323089D02*
G03*
X5037087Y4324089I0J1000D01*
G01*
Y4327289D02*
G03*
X5036087Y4328289I-1000J0D01*
G01*
X5026487Y4324089D02*
G03*
X5027487Y4323089I1000J0D01*
G01*
Y4328289D02*
G03*
X5026487Y4327289I0J-1000D01*
G01*
X4857669Y4363089D02*
G03*
X4858669Y4364089I0J1000D01*
G01*
Y4367289D02*
G03*
X4857669Y4368289I-1000J0D01*
G01*
X4848069Y4364089D02*
G03*
X4849069Y4363089I1000J0D01*
G01*
Y4368289D02*
G03*
X4848069Y4367289I0J-1000D01*
G01*
X5027269Y4277989D02*
G03*
X5028269Y4276989I1000J0D01*
G01*
X5031469D02*
G03*
X5032469Y4277989I0J1000D01*
G01*
X5028269Y4287589D02*
G03*
X5027269Y4286589I0J-1000D01*
G01*
X5032469D02*
G03*
X5031469Y4287589I-1000J0D01*
G01*
X5007969Y4508957D02*
G03*
X5006969Y4509957I-1000J0D01*
G01*
X5003769D02*
G03*
X5002769Y4508957I0J-1000D01*
G01*
X5006969Y4499357D02*
G03*
X5007969Y4500357I0J1000D01*
G01*
X5002769D02*
G03*
X5003769Y4499357I1000J0D01*
G01*
X4747669Y4241789D02*
G03*
X4746669Y4240789I0J-1000D01*
G01*
Y4237589D02*
G03*
X4747669Y4236589I1000J0D01*
G01*
X4757269Y4240789D02*
G03*
X4756269Y4241789I-1000J0D01*
G01*
Y4236589D02*
G03*
X4757269Y4237589I0J1000D01*
G01*
X4751395Y4293989D02*
G03*
X4752395Y4292989I1000J0D01*
G01*
X4755595D02*
G03*
X4756595Y4293989I0J1000D01*
G01*
X4752395Y4303589D02*
G03*
X4751395Y4302589I0J-1000D01*
G01*
X4756595D02*
G03*
X4755595Y4303589I-1000J0D01*
G01*
X4983469Y4467489D02*
G03*
X4982469Y4468489I-1000J0D01*
G01*
X4979269D02*
G03*
X4978269Y4467489I0J-1000D01*
G01*
X4982469Y4457889D02*
G03*
X4983469Y4458889I0J1000D01*
G01*
X4978269D02*
G03*
X4979269Y4457889I1000J0D01*
G01*
X4864069Y4250089D02*
G03*
X4865069Y4251089I0J1000D01*
G01*
Y4254289D02*
G03*
X4864069Y4255289I-1000J0D01*
G01*
X4854469Y4251089D02*
G03*
X4855469Y4250089I1000J0D01*
G01*
Y4255289D02*
G03*
X4854469Y4254289I0J-1000D01*
G01*
X4874469Y4313335D02*
G03*
X4873469Y4314335I-1000J0D01*
G01*
X4870269D02*
G03*
X4869269Y4313335I0J-1000D01*
G01*
X4873469Y4303735D02*
G03*
X4874469Y4304736I0J1000D01*
G01*
X4869269D02*
G03*
X4870269Y4303735I1000J0D01*
G01*
X4704269Y4278749D02*
G03*
X4705269Y4277749I1000J0D01*
G01*
X4708469D02*
G03*
X4709469Y4278749I0J1000D01*
G01*
X4705269Y4288349D02*
G03*
X4704269Y4287349I0J-1000D01*
G01*
X4709469D02*
G03*
X4708469Y4288349I-1000J0D01*
G01*
X4686769Y4278749D02*
G03*
X4687769Y4277749I1000J0D01*
G01*
X4690969D02*
G03*
X4691969Y4278749I0J1000D01*
G01*
X4687769Y4288349D02*
G03*
X4686769Y4287349I0J-1000D01*
G01*
X4691969D02*
G03*
X4690969Y4288349I-1000J0D01*
G01*
X5053187Y4458589D02*
Y4463789D01*
X5042587D02*
X5053187D01*
X5042587Y4458589D02*
Y4463789D01*
Y4458589D02*
X5053187D01*
X5040169D02*
Y4463789D01*
X5029569D02*
X5040169D01*
X5029569Y4458589D02*
Y4463789D01*
Y4458589D02*
X5040169D01*
X5010769Y4499439D02*
X5015969D01*
Y4510039D01*
X5010769D02*
X5015969D01*
X5010769Y4499439D02*
Y4510039D01*
X5004069Y4477089D02*
Y4482289D01*
Y4477089D02*
X5014669D01*
Y4482289D01*
X5004069D02*
X5014669D01*
X5003819Y4469589D02*
Y4474789D01*
Y4469589D02*
X5014419D01*
Y4474789D01*
X5003819D02*
X5014419D01*
X5036919Y4515089D02*
Y4520289D01*
Y4515089D02*
X5047519D01*
Y4520289D01*
X5036919D02*
X5047519D01*
X5002669Y4484589D02*
Y4489789D01*
Y4484589D02*
X5013269D01*
Y4489789D01*
X5002669D02*
X5013269D01*
X4753551Y4345089D02*
Y4350289D01*
X4742950D02*
X4753551D01*
X4742950Y4345089D02*
Y4350289D01*
Y4345089D02*
X4753551D01*
X4770369Y4344989D02*
Y4350189D01*
X4759769D02*
X4770369D01*
X4759769Y4344989D02*
Y4350189D01*
Y4344989D02*
X4770369D01*
X4874376Y4420458D02*
Y4425658D01*
X4863776D02*
X4874376D01*
X4863776Y4420458D02*
Y4425658D01*
Y4420458D02*
X4874376D01*
X5027169Y4290089D02*
Y4295289D01*
Y4290089D02*
X5037769D01*
Y4295289D01*
X5027169D02*
X5037769D01*
X4948169Y4291089D02*
Y4296289D01*
X4937569D02*
X4948169D01*
X4937569Y4291089D02*
Y4296289D01*
Y4291089D02*
X4948169D01*
X4851167Y4420458D02*
Y4425658D01*
X4840567D02*
X4851167D01*
X4840567Y4420458D02*
Y4425658D01*
Y4420458D02*
X4851167D01*
X4805207Y4421089D02*
Y4426289D01*
X4794606D02*
X4805207D01*
X4794606Y4421089D02*
Y4426289D01*
Y4421089D02*
X4805207D01*
X4711494Y4401609D02*
Y4406809D01*
X4700894D02*
X4711494D01*
X4700894Y4401609D02*
Y4406809D01*
Y4401609D02*
X4711494D01*
X4948069Y4298589D02*
Y4303789D01*
X4937469D02*
X4948069D01*
X4937469Y4298589D02*
Y4303789D01*
Y4298589D02*
X4948069D01*
X4913543Y4496089D02*
Y4501289D01*
Y4496089D02*
X4924143D01*
Y4501289D01*
X4913543D02*
X4924143D01*
X4930169Y4432589D02*
Y4437789D01*
X4919569D02*
X4930169D01*
X4919569Y4432589D02*
Y4437789D01*
Y4432589D02*
X4930169D01*
X4989769Y4444889D02*
X4994969D01*
Y4455489D01*
X4989769D02*
X4994969D01*
X4989769Y4444889D02*
Y4455489D01*
X4950169Y4306089D02*
Y4311289D01*
X4939569D02*
X4950169D01*
X4939569Y4306089D02*
Y4311289D01*
Y4306089D02*
X4950169D01*
Y4313589D02*
Y4318789D01*
X4939569D02*
X4950169D01*
X4939569Y4313589D02*
Y4318789D01*
Y4313589D02*
X4950169D01*
X4979269Y4337389D02*
X4984469D01*
Y4347989D01*
X4979269D02*
X4984469D01*
X4979269Y4337389D02*
Y4347989D01*
X4986769Y4337389D02*
X4991969D01*
Y4347989D01*
X4986769D02*
X4991969D01*
X4986769Y4337389D02*
Y4347989D01*
X4994269Y4337389D02*
X4999469D01*
Y4347989D01*
X4994269D02*
X4999469D01*
X4994269Y4337389D02*
Y4347989D01*
X5001769Y4337389D02*
X5006969D01*
Y4347989D01*
X5001769D02*
X5006969D01*
X5001769Y4337389D02*
Y4347989D01*
X5009269Y4337389D02*
X5014469D01*
Y4347989D01*
X5009269D02*
X5014469D01*
X5009269Y4337389D02*
Y4347989D01*
X5016769Y4337389D02*
X5021969D01*
Y4347989D01*
X5016769D02*
X5021969D01*
X5016769Y4337389D02*
Y4347989D01*
X5024269Y4337389D02*
X5029469D01*
Y4347989D01*
X5024269D02*
X5029469D01*
X5024269Y4337389D02*
Y4347989D01*
X5026569Y4315589D02*
Y4320789D01*
Y4315589D02*
X5037169D01*
Y4320789D01*
X5026569D02*
X5037169D01*
X5026551Y4308089D02*
Y4313289D01*
Y4308089D02*
X5037151D01*
Y4313289D01*
X5026551D02*
X5037151D01*
X5039569Y4313089D02*
Y4318289D01*
Y4313089D02*
X5050169D01*
Y4318289D01*
X5039569D02*
X5050169D01*
X5039569Y4305589D02*
Y4310789D01*
Y4305589D02*
X5050169D01*
Y4310789D01*
X5039569D02*
X5050169D01*
X5040669Y4294089D02*
Y4299289D01*
Y4294089D02*
X5051269D01*
Y4299289D01*
X5040669D02*
X5051269D01*
X4960569Y4267589D02*
Y4272789D01*
Y4267589D02*
X4971169D01*
Y4272789D01*
X4960569D02*
X4971169D01*
X4985769Y4468489D02*
X4990969D01*
X4985769Y4457889D02*
Y4468489D01*
Y4457889D02*
X4990969D01*
Y4468489D01*
X4993269Y4457889D02*
X4998469D01*
Y4468489D01*
X4993269D02*
X4998469D01*
X4993269Y4457889D02*
Y4468489D01*
X4770569Y4403089D02*
Y4408289D01*
Y4403089D02*
X4781169D01*
Y4408289D01*
X4770569D02*
X4781169D01*
X4726669Y4402089D02*
Y4407289D01*
Y4402089D02*
X4737269D01*
Y4407289D01*
X4726669D02*
X4737269D01*
X5050769Y4287507D02*
X5055969D01*
X5050769Y4276907D02*
Y4287507D01*
Y4276907D02*
X5055969D01*
Y4287507D01*
X5043269Y4276989D02*
X5048469D01*
Y4287589D01*
X5043269D02*
X5048469D01*
X5043269Y4276989D02*
Y4287589D01*
X4778769Y4410139D02*
X4783969D01*
Y4420739D01*
X4778769D02*
X4783969D01*
X4778769Y4410139D02*
Y4420739D01*
X4722778Y4409871D02*
X4727978D01*
Y4420471D01*
X4722778D02*
X4727978D01*
X4722778Y4409871D02*
Y4420471D01*
X5041069Y4263089D02*
Y4268289D01*
Y4263089D02*
X5051669D01*
Y4268289D01*
X5041069D02*
X5051669D01*
X5041069Y4255589D02*
Y4260789D01*
Y4255589D02*
X5051669D01*
Y4260789D01*
X5041069D02*
X5051669D01*
X4948169Y4283539D02*
Y4288739D01*
X4937569D02*
X4948169D01*
X4937569Y4283539D02*
Y4288739D01*
Y4283539D02*
X4948169D01*
X4848151Y4355589D02*
Y4360789D01*
Y4355589D02*
X4858751D01*
Y4360789D01*
X4848151D02*
X4858751D01*
X4858669Y4340589D02*
Y4345789D01*
X4848069D02*
X4858669D01*
X4848069Y4340589D02*
Y4345789D01*
Y4340589D02*
X4858669D01*
X4848151Y4348089D02*
Y4353289D01*
Y4348089D02*
X4858751D01*
Y4353289D01*
X4848151D02*
X4858751D01*
X5033269Y4257389D02*
X5038469D01*
Y4267989D01*
X5033269D02*
X5038469D01*
X5033269Y4257389D02*
Y4267989D01*
X4788261Y4441589D02*
Y4446789D01*
X4777662D02*
X4788261D01*
X4777662Y4441589D02*
Y4446789D01*
Y4441589D02*
X4788261D01*
X4722861D02*
Y4446789D01*
Y4441589D02*
X4733462D01*
Y4446789D01*
X4722861D02*
X4733462D01*
X4744269Y4303507D02*
X4749469D01*
X4744269Y4292907D02*
Y4303507D01*
Y4292907D02*
X4749469D01*
Y4303507D01*
X4758269D02*
X4763469D01*
X4758269Y4292907D02*
Y4303507D01*
Y4292907D02*
X4763469D01*
Y4303507D01*
X4956607Y4473389D02*
X4961807D01*
Y4483989D01*
X4956607D02*
X4961807D01*
X4956607Y4473389D02*
Y4483989D01*
X4951269Y4443389D02*
X4956469D01*
Y4453989D01*
X4951269D02*
X4956469D01*
X4951269Y4443389D02*
Y4453989D01*
X4965269Y4473389D02*
X4970469D01*
Y4483989D01*
X4965269D02*
X4970469D01*
X4965269Y4473389D02*
Y4483989D01*
X4972769Y4473889D02*
X4977969D01*
Y4484489D01*
X4972769D02*
X4977969D01*
X4972769Y4473889D02*
Y4484489D01*
X4858669Y4333089D02*
Y4338289D01*
X4848069D02*
X4858669D01*
X4848069Y4333089D02*
Y4338289D01*
Y4333089D02*
X4858669D01*
X4777744Y4449089D02*
Y4454289D01*
Y4449089D02*
X4788343D01*
Y4454289D01*
X4777744D02*
X4788343D01*
X4733380Y4449089D02*
Y4454289D01*
X4722780D02*
X4733380D01*
X4722780Y4449089D02*
Y4454289D01*
Y4449089D02*
X4733380D01*
X4772269Y4410139D02*
X4777469D01*
Y4420739D01*
X4772269D02*
X4777469D01*
X4772269Y4410139D02*
Y4420739D01*
X4730269Y4420389D02*
X4735469D01*
X4730269Y4409789D02*
Y4420389D01*
Y4409789D02*
X4735469D01*
Y4420389D01*
X4800669Y4393589D02*
Y4398789D01*
X4790069D02*
X4800669D01*
X4790069Y4393589D02*
Y4398789D01*
Y4393589D02*
X4800669D01*
X4724188Y4385089D02*
Y4390289D01*
Y4385089D02*
X4734789D01*
Y4390289D01*
X4724188D02*
X4734789D01*
X4716369Y4275240D02*
X4737369D01*
Y4299240D01*
X4716369Y4275240D02*
Y4299240D01*
X4737369D01*
X4738829Y4218789D02*
X4752428D01*
X4738829Y4225589D02*
X4752428D01*
X4863498Y4435789D02*
X4877098D01*
X4863498Y4442589D02*
X4877098D01*
X4832809D02*
X4846409D01*
X4832809Y4435789D02*
X4846409D01*
X4794329Y4436289D02*
X4807928D01*
X4794329Y4443089D02*
X4807928D01*
X4707076Y4415149D02*
Y4428749D01*
X4700276Y4415149D02*
Y4428749D01*
X4930069Y4484789D02*
X4943669D01*
X4930069Y4491589D02*
X4943669D01*
X4951769Y4344889D02*
Y4357489D01*
X4945969Y4358489D02*
X4950769D01*
X4945969Y4343889D02*
X4950769D01*
X4944969Y4344889D02*
Y4357489D01*
X5018069Y4424089D02*
X5030669D01*
X5017069Y4418289D02*
Y4423089D01*
X5031669Y4418289D02*
Y4423089D01*
X5018069Y4417289D02*
X5030669D01*
X4771819Y4399589D02*
X4784419D01*
X4770819Y4393789D02*
Y4398589D01*
X4785419Y4393789D02*
Y4398589D01*
X4771819Y4392789D02*
X4784419D01*
X4724329Y4392789D02*
X4736929D01*
X4737929Y4393789D02*
Y4398589D01*
X4723329Y4393789D02*
Y4398589D01*
X4724329Y4399589D02*
X4736929D01*
X4770403Y4432289D02*
X4783003D01*
X4784003Y4433289D02*
Y4438089D01*
X4769403Y4433289D02*
Y4438089D01*
X4770403Y4439089D02*
X4783003D01*
X4720639Y4432289D02*
X4733240D01*
X4734240Y4433289D02*
Y4438089D01*
X4719640Y4433289D02*
Y4438089D01*
X4720639Y4439089D02*
X4733240D01*
X4999769Y4499579D02*
Y4512179D01*
X4993969Y4513179D02*
X4998769D01*
X4993969Y4498579D02*
X4998769D01*
X4992969Y4499579D02*
Y4512179D01*
X4917369Y4357439D02*
Y4363439D01*
X4930369Y4357439D02*
Y4363439D01*
X4917369Y4357439D02*
X4930369D01*
X4917369Y4363439D02*
X4930369D01*
X4767369Y4446337D02*
X4773369D01*
X4767369Y4459337D02*
X4773369D01*
Y4446337D02*
Y4459337D01*
X4767369Y4446337D02*
Y4459337D01*
X4840715Y4456689D02*
Y4462689D01*
X4853715Y4456689D02*
Y4462689D01*
X4840715Y4456689D02*
X4853715D01*
X4840715Y4462689D02*
X4853715D01*
X4869215Y4456689D02*
Y4462689D01*
X4856215Y4456689D02*
Y4462689D01*
X4869215D01*
X4856215Y4456689D02*
X4869215D01*
X4804215D02*
Y4462689D01*
X4791215Y4456689D02*
Y4462689D01*
X4804215D01*
X4791215Y4456689D02*
X4804215D01*
X4788715D02*
Y4462689D01*
X4775715Y4456689D02*
Y4462689D01*
X4788715D01*
X4775715Y4456689D02*
X4788715D01*
X4728715D02*
Y4462689D01*
X4715715Y4456689D02*
Y4462689D01*
X4728715D01*
X4715715Y4456689D02*
X4728715D01*
X4689272Y4314126D02*
X4700272D01*
X4689272Y4308126D02*
X4700272D01*
X4701272Y4309126D02*
Y4313126D01*
X4688272Y4309126D02*
Y4313126D01*
X4708849Y4309189D02*
X4719849D01*
X4708849Y4315189D02*
X4719849D01*
X4707849Y4310189D02*
Y4314189D01*
X4720849Y4310189D02*
Y4314189D01*
X5040869Y4275961D02*
Y4286961D01*
X5034869Y4275961D02*
Y4286961D01*
X5035869Y4274961D02*
X5039869D01*
X5035869Y4287960D02*
X5039869D01*
X4747215Y4229189D02*
X4758215D01*
X4747215Y4235189D02*
X4758215D01*
X4746215Y4230189D02*
Y4234189D01*
X4759215Y4230189D02*
Y4234189D01*
X4985269Y4499857D02*
Y4509457D01*
X4990469Y4499857D02*
Y4509457D01*
X4946269Y4507407D02*
Y4517007D01*
X4951469Y4507407D02*
Y4517007D01*
X4939569Y4278789D02*
X4949169D01*
X4939569Y4273589D02*
X4949169D01*
X4933769Y4352889D02*
X4936969D01*
X4932769Y4353889D02*
Y4362489D01*
X4937969Y4353889D02*
Y4362489D01*
X4933769Y4363489D02*
X4936969D01*
X4903069Y4391089D02*
Y4394289D01*
X4904069Y4395289D02*
X4912669D01*
X4904069Y4390089D02*
X4912669D01*
X4913669Y4391089D02*
Y4394289D01*
X4955269Y4352889D02*
X4958469D01*
X4954269Y4353889D02*
Y4362489D01*
X4959469Y4353889D02*
Y4362489D01*
X4955269Y4363489D02*
X4958469D01*
X4930169Y4418589D02*
Y4421789D01*
X4920569Y4417589D02*
X4929169D01*
X4920569Y4422789D02*
X4929169D01*
X4919569Y4418589D02*
Y4421789D01*
X4930169Y4411089D02*
Y4414289D01*
X4920569Y4410089D02*
X4929169D01*
X4920569Y4415289D02*
X4929169D01*
X4919569Y4411089D02*
Y4414289D01*
X4713769Y4403089D02*
Y4406289D01*
X4714769Y4407289D02*
X4723369D01*
X4714769Y4402089D02*
X4723369D01*
X4724369Y4403089D02*
Y4406289D01*
X4786269Y4410143D02*
X4789469D01*
X4785269Y4411143D02*
Y4419743D01*
X4790469Y4411143D02*
Y4419743D01*
X4786269Y4420742D02*
X4789469D01*
X4716269Y4409871D02*
X4719469D01*
X4715269Y4410871D02*
Y4419471D01*
X4720469Y4410871D02*
Y4419471D01*
X4716269Y4420471D02*
X4719469D01*
X4863858Y4429089D02*
Y4432289D01*
X4864858Y4433289D02*
X4873458D01*
X4864858Y4428089D02*
X4873458D01*
X4874458Y4429089D02*
Y4432289D01*
X4876738Y4446589D02*
Y4449789D01*
X4867138Y4445589D02*
X4875738D01*
X4867138Y4450789D02*
X4875738D01*
X4866138Y4446589D02*
Y4449789D01*
X4840649Y4429089D02*
Y4432289D01*
X4841649Y4433289D02*
X4850249D01*
X4841649Y4428089D02*
X4850249D01*
X4851249Y4429089D02*
Y4432289D01*
X4754669Y4354089D02*
Y4357289D01*
X4755669Y4358289D02*
X4764269D01*
X4755669Y4353089D02*
X4764269D01*
X4765269Y4354089D02*
Y4357289D01*
X4754669Y4362089D02*
Y4365289D01*
X4755669Y4366289D02*
X4764269D01*
X4755669Y4361089D02*
X4764269D01*
X4765269Y4362089D02*
Y4365289D01*
X4959769Y4453989D02*
X4962969D01*
X4963969Y4444389D02*
Y4452989D01*
X4958769Y4444389D02*
Y4452989D01*
X4959769Y4443389D02*
X4962969D01*
X4981844Y4352889D02*
X4985044D01*
X4980844Y4353889D02*
Y4362489D01*
X4986044Y4353889D02*
Y4362489D01*
X4981844Y4363489D02*
X4985044D01*
X5026669Y4376589D02*
Y4379789D01*
X5017069Y4375589D02*
X5025669D01*
X5017069Y4380789D02*
X5025669D01*
X5016069Y4376589D02*
Y4379789D01*
X5026992Y4390589D02*
Y4393789D01*
X5017392Y4389589D02*
X5025992D01*
X5017392Y4394789D02*
X5025992D01*
X5016392Y4390589D02*
Y4393789D01*
X4983269Y4455489D02*
X4986469D01*
X4987469Y4445889D02*
Y4454489D01*
X4982269Y4445889D02*
Y4454489D01*
X4983269Y4444889D02*
X4986469D01*
X5026751Y4430730D02*
Y4433930D01*
X5017151Y4429730D02*
X5025751D01*
X5017151Y4434930D02*
X5025751D01*
X5016151Y4430730D02*
Y4433930D01*
X4966769Y4352889D02*
X4969969D01*
X4965769Y4353889D02*
Y4362489D01*
X4970969Y4353889D02*
Y4362489D01*
X4966769Y4363489D02*
X4969969D01*
X4998269Y4444889D02*
X5001469D01*
X4997269Y4445889D02*
Y4454489D01*
X5002469Y4445889D02*
Y4454489D01*
X4998269Y4455489D02*
X5001469D01*
X4919569Y4373589D02*
Y4376789D01*
X4920569Y4377789D02*
X4929169D01*
X4920569Y4372589D02*
X4929169D01*
X4930169Y4373589D02*
Y4376789D01*
X5026992Y4398589D02*
Y4401789D01*
X5017392Y4397589D02*
X5025992D01*
X5017392Y4402789D02*
X5025992D01*
X5016392Y4398589D02*
Y4401789D01*
X5026669Y4438089D02*
Y4441289D01*
X5017069Y4437089D02*
X5025669D01*
X5017069Y4442289D02*
X5025669D01*
X5016069Y4438089D02*
Y4441289D01*
X4833169Y4446589D02*
Y4449789D01*
X4834169Y4450789D02*
X4842769D01*
X4834169Y4445589D02*
X4842769D01*
X4843769Y4446589D02*
Y4449789D01*
X4903069Y4379089D02*
Y4382289D01*
X4904069Y4383289D02*
X4912669D01*
X4904069Y4378089D02*
X4912669D01*
X4913669Y4379089D02*
Y4382289D01*
X4794688Y4429589D02*
Y4432789D01*
X4795688Y4433789D02*
X4804288D01*
X4795688Y4428589D02*
X4804288D01*
X4805288Y4429589D02*
Y4432789D01*
X4807569Y4446589D02*
Y4449789D01*
X4797969Y4445589D02*
X4806569D01*
X4797969Y4450789D02*
X4806569D01*
X4796969Y4446589D02*
Y4449789D01*
X4700976Y4395109D02*
Y4398309D01*
X4701976Y4399309D02*
X4710576D01*
X4701976Y4394109D02*
X4710576D01*
X4711576Y4395109D02*
Y4398309D01*
X5028447Y4410589D02*
Y4413789D01*
X5018847Y4409589D02*
X5027447D01*
X5018847Y4414789D02*
X5027447D01*
X5017847Y4410589D02*
Y4413789D01*
X4919569Y4396089D02*
Y4399289D01*
X4920569Y4400289D02*
X4929169D01*
X4920569Y4395089D02*
X4929169D01*
X4930169Y4396089D02*
Y4399289D01*
X4967269Y4453989D02*
X4970469D01*
X4971469Y4444389D02*
Y4452989D01*
X4966269Y4444389D02*
Y4452989D01*
X4967269Y4443389D02*
X4970469D01*
X4919569Y4403589D02*
Y4406789D01*
X4920569Y4407789D02*
X4929169D01*
X4920569Y4402589D02*
X4929169D01*
X4930169Y4403589D02*
Y4406789D01*
X4919569Y4426089D02*
Y4429289D01*
X4920569Y4430289D02*
X4929169D01*
X4920569Y4425089D02*
X4929169D01*
X4930169Y4426089D02*
Y4429289D01*
X4931769Y4519007D02*
X4934969D01*
X4935969Y4509407D02*
Y4518007D01*
X4930769Y4509407D02*
Y4518007D01*
X4931769Y4508407D02*
X4934969D01*
X4919569Y4441089D02*
Y4444289D01*
X4920569Y4445289D02*
X4929169D01*
X4920569Y4440089D02*
X4929169D01*
X4930169Y4441089D02*
Y4444289D01*
X4748060Y4428589D02*
Y4431789D01*
X4749060Y4432789D02*
X4757660D01*
X4749060Y4427589D02*
X4757660D01*
X4758660Y4428589D02*
Y4431789D01*
X4913543Y4489589D02*
Y4492789D01*
X4914543Y4493789D02*
X4923143D01*
X4914543Y4488589D02*
X4923143D01*
X4924143Y4489589D02*
Y4492789D01*
X4810969Y4241189D02*
Y4244389D01*
X4801369Y4240189D02*
X4809969D01*
X4801369Y4245389D02*
X4809969D01*
X4800369Y4241189D02*
Y4244389D01*
X4919569Y4385089D02*
Y4388289D01*
X4920569Y4389289D02*
X4929169D01*
X4920569Y4384089D02*
X4929169D01*
X4930169Y4385089D02*
Y4388289D01*
X4666569Y4454989D02*
Y4458189D01*
X4667569Y4459189D02*
X4676169D01*
X4667569Y4453989D02*
X4676169D01*
X4677169Y4454989D02*
Y4458189D01*
X4713702Y4319589D02*
Y4322789D01*
X4704102Y4318589D02*
X4712703D01*
X4704102Y4323789D02*
X4712703D01*
X4703102Y4319589D02*
Y4322789D01*
X4792669Y4404089D02*
Y4407289D01*
X4783069Y4403089D02*
X4791669D01*
X4783069Y4408289D02*
X4791669D01*
X4782069Y4404089D02*
Y4407289D01*
X4814269Y4314389D02*
X4817469D01*
X4818469Y4304789D02*
Y4313389D01*
X4813269Y4304789D02*
Y4313389D01*
X4814269Y4303789D02*
X4817469D01*
X4724169Y4304089D02*
Y4307289D01*
X4725169Y4308289D02*
X4733769D01*
X4725169Y4303089D02*
X4733769D01*
X4734769Y4304089D02*
Y4307289D01*
X4674169Y4377089D02*
Y4380289D01*
X4675169Y4381289D02*
X4683769D01*
X4675169Y4376089D02*
X4683769D01*
X4684769Y4377089D02*
Y4380289D01*
X4960551Y4325089D02*
Y4328289D01*
X4961551Y4329289D02*
X4970151D01*
X4961551Y4324089D02*
X4970151D01*
X4971151Y4325089D02*
Y4328289D01*
X4960551Y4317589D02*
Y4320789D01*
X4961551Y4321789D02*
X4970151D01*
X4961551Y4316589D02*
X4970151D01*
X4971151Y4317589D02*
Y4320789D01*
X4960569Y4291707D02*
Y4294907D01*
X4961569Y4295907D02*
X4970169D01*
X4961569Y4290707D02*
X4970169D01*
X4971169Y4291707D02*
Y4294907D01*
X4960569Y4307089D02*
Y4310289D01*
X4961569Y4311289D02*
X4970169D01*
X4961569Y4306089D02*
X4970169D01*
X4971169Y4307089D02*
Y4310289D01*
X4960569Y4281589D02*
Y4284789D01*
X4961569Y4285789D02*
X4970169D01*
X4961569Y4280589D02*
X4970169D01*
X4971169Y4281589D02*
Y4284789D01*
X4960051Y4245644D02*
Y4248844D01*
X4961050Y4249844D02*
X4969651D01*
X4961050Y4244644D02*
X4969651D01*
X4970650Y4245644D02*
Y4248844D01*
X5038419Y4299384D02*
Y4302584D01*
X5028819Y4298384D02*
X5037419D01*
X5028819Y4303584D02*
X5037419D01*
X5027819Y4299384D02*
Y4302584D01*
X4700976Y4433589D02*
Y4436789D01*
X4701976Y4437789D02*
X4710576D01*
X4701976Y4432589D02*
X4710576D01*
X4711576Y4433589D02*
Y4436789D01*
X5037087Y4324089D02*
Y4327289D01*
X5027487Y4323089D02*
X5036087D01*
X5027487Y4328289D02*
X5036087D01*
X5026487Y4324089D02*
Y4327289D01*
X4858669Y4364089D02*
Y4367289D01*
X4849069Y4363089D02*
X4857669D01*
X4849069Y4368289D02*
X4857669D01*
X4848069Y4364089D02*
Y4367289D01*
X5028269Y4276989D02*
X5031469D01*
X5027269Y4277989D02*
Y4286589D01*
X5032469Y4277989D02*
Y4286589D01*
X5028269Y4287589D02*
X5031469D01*
X5003769Y4509957D02*
X5006969D01*
X5007969Y4500357D02*
Y4508957D01*
X5002769Y4500357D02*
Y4508957D01*
X5003769Y4499357D02*
X5006969D01*
X4746669Y4237589D02*
Y4240789D01*
X4747669Y4241789D02*
X4756269D01*
X4747669Y4236589D02*
X4756269D01*
X4757269Y4237589D02*
Y4240789D01*
X4752395Y4292989D02*
X4755595D01*
X4751395Y4293989D02*
Y4302589D01*
X4756595Y4293989D02*
Y4302589D01*
X4752395Y4303589D02*
X4755595D01*
X4979269Y4468489D02*
X4982469D01*
X4983469Y4458889D02*
Y4467489D01*
X4978269Y4458889D02*
Y4467489D01*
X4979269Y4457889D02*
X4982469D01*
X4865069Y4251089D02*
Y4254289D01*
X4855469Y4250089D02*
X4864069D01*
X4855469Y4255289D02*
X4864069D01*
X4854469Y4251089D02*
Y4254289D01*
X4870269Y4314335D02*
X4873469D01*
X4874469Y4304736D02*
Y4313335D01*
X4869269Y4304736D02*
Y4313335D01*
X4870269Y4303735D02*
X4873469D01*
X4705269Y4277749D02*
X4708469D01*
X4704269Y4278749D02*
Y4287349D01*
X4709469Y4278749D02*
Y4287349D01*
X4705269Y4288349D02*
X4708469D01*
X4687769Y4277749D02*
X4690969D01*
X4686769Y4278749D02*
Y4287349D01*
X4691969Y4278749D02*
Y4287349D01*
X4687769Y4288349D02*
X4690969D01*
X4699869Y4409189D02*
X4708369D01*
X4686369D02*
X4699869D01*
X4738590Y4389910D02*
X4740369Y4391689D01*
Y4402189D01*
X4735369Y4453689D02*
Y4458189D01*
X4730369D02*
X4738869D01*
X4708369Y4409189D02*
X4712869Y4413689D01*
Y4410689D02*
Y4419189D01*
X4700269Y4456689D02*
Y4462689D01*
X4713269Y4456689D02*
Y4462689D01*
X4700269Y4456689D02*
X4713269D01*
X4700269Y4462689D02*
X4713269D01*
X4734869Y4447689D02*
Y4453189D01*
Y4442689D02*
Y4447689D01*
Y4453189D02*
X4735369Y4453689D01*
X4736869Y4389689D02*
X4739869D01*
X4738369Y4404189D02*
Y4406689D01*
Y4402189D02*
Y4404189D01*
X4740369Y4402189D01*
D34*
X4905111Y4412680D02*
G03*
X4908869Y4416439I0J3758D01*
G01*
X4893627Y4458697D02*
G03*
X4889869Y4454939I0J-3758D01*
G01*
X4908877D02*
G03*
X4905119Y4458697I-3758J0D01*
G01*
X4889861Y4416439D02*
G03*
X4893619Y4412680I3758J0D01*
G01*
X4701010Y4552435D02*
X4884227D01*
X4701010Y4469505D02*
Y4552435D01*
X4884227Y4469505D02*
Y4552380D01*
X4701010Y4469505D02*
X4884227D01*
X4739122Y4445491D02*
Y4453490D01*
X4845677Y4228698D02*
Y4236697D01*
X4924622Y4462189D02*
Y4470189D01*
X4740615Y4355689D02*
Y4363689D01*
X4746622Y4380689D02*
Y4388689D01*
X4784122Y4307689D02*
Y4315689D01*
X4692115Y4470189D02*
Y4478189D01*
X4692115Y4393189D02*
Y4401189D01*
X4746369Y4327936D02*
X4754369D01*
X4764615Y4253189D02*
Y4261189D01*
X4838122Y4307689D02*
Y4315689D01*
X4963869Y4524936D02*
X4971869D01*
X4877622Y4388689D02*
Y4396689D01*
X4892622Y4352189D02*
Y4360189D01*
X4793177Y4230189D02*
Y4238189D01*
X4644369Y4323874D02*
Y4330374D01*
Y4293374D02*
Y4317874D01*
X4640869Y4287374D02*
X4644369D01*
X4640869Y4293374D02*
X4644369D01*
X4640869Y4287374D02*
Y4293374D01*
Y4317874D02*
Y4323874D01*
X4644369D01*
X4640869Y4317874D02*
X4644369D01*
X4655754Y4279835D02*
X4667369D01*
X4667483Y4280020D02*
Y4330413D01*
X4644369D02*
X4655983D01*
X4655869D02*
X4667483D01*
X4644408Y4279835D02*
X4655869D01*
X4644369Y4279874D02*
X4644408Y4279835D01*
X4644369Y4279874D02*
Y4287374D01*
X4836869Y4326161D02*
Y4332661D01*
Y4338661D02*
Y4363161D01*
Y4369161D02*
X4840369D01*
X4836869Y4363161D02*
X4840369D01*
Y4369161D01*
Y4332661D02*
Y4338661D01*
X4836869Y4332661D02*
X4840369D01*
X4836869Y4338661D02*
X4840369D01*
X4813869Y4376701D02*
X4825483D01*
X4813755Y4326122D02*
Y4376516D01*
X4825254Y4326122D02*
X4836869D01*
X4813755D02*
X4825369D01*
Y4376701D02*
X4836829D01*
X4836869Y4376661D01*
Y4369161D02*
Y4376661D01*
X4639526Y4490569D02*
Y4493068D01*
Y4490569D02*
X4643026D01*
X4639526Y4508569D02*
Y4533482D01*
X4658026Y4490569D02*
X4660526D01*
Y4533482D01*
X4639526D02*
X4660526D01*
X4908869Y4416439D02*
Y4454939D01*
X4889869Y4416439D02*
Y4454939D01*
X5018924Y4242982D02*
Y4248981D01*
X5020924Y4246981D01*
X5022923Y4248981D01*
Y4242982D01*
X5024923Y4248981D02*
X5026922D01*
X5025922D01*
Y4242982D01*
X5024923D01*
X5026922D01*
X5029921Y4247981D02*
X5030920Y4248981D01*
X5032920D01*
X5033920Y4247981D01*
Y4246981D01*
X5032920Y4245982D01*
X5031920D01*
X5032920D01*
X5033920Y4244982D01*
Y4243982D01*
X5032920Y4242982D01*
X5030920D01*
X5029921Y4243982D01*
X4624200Y4241368D02*
Y4247367D01*
X4626199Y4245367D01*
X4628199Y4247367D01*
Y4241368D01*
X4630198Y4247367D02*
X4632198D01*
X4631198D01*
Y4241368D01*
X4630198D01*
X4632198D01*
X4639195D02*
X4635196D01*
X4639195Y4245367D01*
Y4246367D01*
X4638195Y4247367D01*
X4636196D01*
X4635196Y4246367D01*
X4624200Y4474400D02*
Y4480398D01*
X4626199Y4478399D01*
X4628199Y4480398D01*
Y4474400D01*
X4630198Y4480398D02*
X4632198D01*
X4631198D01*
Y4474400D01*
X4630198D01*
X4632198D01*
X4635196D02*
X4637196D01*
X4636196D01*
Y4480398D01*
X4635196Y4479398D01*
X4883535Y4234688D02*
X4880869D01*
Y4230689D01*
X4883535D01*
X4880869Y4232688D02*
X4882202D01*
X4884867Y4230689D02*
Y4234688D01*
X4886200Y4233355D01*
X4887533Y4234688D01*
Y4230689D01*
X4888866Y4234688D02*
X4890199D01*
X4889532D01*
Y4230689D01*
X4888866D01*
X4890199D01*
X4892199D02*
Y4233355D01*
X4893531Y4234688D01*
X4894864Y4233355D01*
Y4230689D01*
Y4232688D01*
X4892199D01*
X4896197Y4230022D02*
X4898863D01*
X4902862Y4230689D02*
X4900196D01*
X4902862Y4233355D01*
Y4234021D01*
X4902195Y4234688D01*
X4900862D01*
X4900196Y4234021D01*
X4904195D02*
X4904861Y4234688D01*
X4906194D01*
X4906860Y4234021D01*
Y4231355D01*
X4906194Y4230689D01*
X4904861D01*
X4904195Y4231355D01*
Y4234021D01*
X4910859Y4230689D02*
X4908193D01*
X4910859Y4233355D01*
Y4234021D01*
X4910192Y4234688D01*
X4908860D01*
X4908193Y4234021D01*
X4912192Y4230689D02*
X4913525D01*
X4912859D01*
Y4234688D01*
X4912192Y4234021D01*
X4915524D02*
X4916191Y4234688D01*
X4917524D01*
X4918190Y4234021D01*
Y4231355D01*
X4917524Y4230689D01*
X4916191D01*
X4915524Y4231355D01*
Y4234021D01*
X4919523D02*
X4920189Y4234688D01*
X4921522D01*
X4922189Y4234021D01*
Y4233355D01*
X4921522Y4232688D01*
X4922189Y4232022D01*
Y4231355D01*
X4921522Y4230689D01*
X4920189D01*
X4919523Y4231355D01*
Y4232022D01*
X4920189Y4232688D01*
X4919523Y4233355D01*
Y4234021D01*
X4920189Y4232688D02*
X4921522D01*
X4923521Y4230689D02*
X4924855D01*
X4924188D01*
Y4234688D01*
X4923521Y4234021D01*
X4929520Y4230689D02*
X4926854D01*
X4929520Y4233355D01*
Y4234021D01*
X4928853Y4234688D01*
X4927520D01*
X4926854Y4234021D01*
X4930853Y4230022D02*
X4933518D01*
X4934851Y4234688D02*
Y4232022D01*
X4936184Y4230689D01*
X4937517Y4232022D01*
Y4234688D01*
X4938850Y4230689D02*
X4940183D01*
X4939516D01*
Y4234688D01*
X4938850Y4234021D01*
X4942182Y4230689D02*
Y4231355D01*
X4942849D01*
Y4230689D01*
X4942182D01*
X4945515Y4234021D02*
X4946181Y4234688D01*
X4947514D01*
X4948180Y4234021D01*
Y4231355D01*
X4947514Y4230689D01*
X4946181D01*
X4945515Y4231355D01*
Y4234021D01*
D52*
X4763467Y4449491D02*
G03*
X4763467Y4449491I-12598J0D01*
G01*
X4870022Y4232697D02*
G03*
X4870022Y4232697I-12598J0D01*
G01*
X4948967Y4466189D02*
G03*
X4948967Y4466189I-12598J0D01*
G01*
X4741476Y4359689D02*
G03*
X4741476Y4359689I-11107J0D01*
G01*
X4767976Y4384689D02*
G03*
X4767976Y4384689I-11107J0D01*
G01*
X4805476Y4311689D02*
G03*
X4805476Y4311689I-11107J0D01*
G01*
X4692976Y4474189D02*
G03*
X4692976Y4474189I-11107J0D01*
G01*
X4692976Y4397189D02*
G03*
X4692976Y4397189I-11107J0D01*
G01*
X4761476Y4317689D02*
G03*
X4761476Y4317689I-11107J0D01*
G01*
X4765475Y4257189D02*
G03*
X4765475Y4257189I-11107J0D01*
G01*
X4859476Y4311689D02*
G03*
X4859476Y4311689I-11107J0D01*
G01*
X4978976Y4514689D02*
G03*
X4978976Y4514689I-11107J0D01*
G01*
X4898976Y4392689D02*
G03*
X4898976Y4392689I-11107J0D01*
G01*
X4913976Y4356189D02*
G03*
X4913976Y4356189I-11107J0D01*
G01*
X4814531Y4234189D02*
G03*
X4814531Y4234189I-11107J0D01*
G01*
X4917818Y4503992D02*
X4923330D01*
Y4507252D01*
Y4515126D02*
Y4518386D01*
X4917818D02*
X4923330D01*
X4739949Y4443991D02*
Y4454991D01*
X4740369Y4443090D02*
Y4455490D01*
X4846504Y4227197D02*
Y4238197D01*
X4846924Y4226297D02*
Y4238697D01*
X4925449Y4460689D02*
Y4471689D01*
X4925869Y4459789D02*
Y4472189D01*
X4739789Y4354189D02*
Y4365189D01*
X4747449Y4379189D02*
Y4390189D01*
X4784949Y4306189D02*
Y4317189D01*
X4691289Y4468689D02*
Y4479689D01*
X4691289Y4391689D02*
Y4402689D01*
X4744869Y4327109D02*
X4755869D01*
X4763789Y4251689D02*
Y4262689D01*
X4838949Y4306189D02*
Y4317189D01*
X4962369Y4524109D02*
X4973369D01*
X4878449Y4387189D02*
Y4398189D01*
X4893449Y4350689D02*
Y4361689D01*
X4794004Y4228689D02*
Y4239689D01*
X4960782Y4456492D02*
X4966294D01*
Y4459752D01*
Y4467626D02*
Y4470886D01*
X4960782D02*
X4966294D01*
X4960782Y4500386D02*
X4966294D01*
X4960782Y4497126D02*
Y4500386D01*
Y4485992D02*
Y4489252D01*
Y4485992D02*
X4966294D01*
X4696566Y4295370D02*
Y4300882D01*
X4693306Y4295370D02*
X4696566D01*
X4682172D02*
X4685432D01*
X4682172D02*
Y4300882D01*
X4714066Y4295370D02*
Y4300882D01*
X4710806Y4295370D02*
X4714066D01*
X4699672D02*
X4702932D01*
X4699672D02*
Y4300882D01*
X4875613Y4452492D02*
X4881125D01*
X4875613D02*
Y4455752D01*
Y4463626D02*
Y4466886D01*
X4881125D01*
X4828782Y4466886D02*
X4834294D01*
Y4463626D02*
Y4466886D01*
Y4452492D02*
Y4455752D01*
X4828782Y4452492D02*
X4834294D01*
X4810943D02*
X4816455D01*
X4810943D02*
Y4455752D01*
Y4463626D02*
Y4466886D01*
X4816455D01*
X4705251Y4439992D02*
X4710762D01*
X4705251D02*
Y4443252D01*
Y4451126D02*
Y4454386D01*
X4710762D01*
X4801423Y4220188D02*
X4800924Y4220688D01*
X4799924D01*
X4799424Y4220188D01*
Y4218189D01*
X4799924Y4217689D01*
X4800924D01*
X4801423Y4218189D01*
X4802423D02*
X4802923Y4217689D01*
X4803922D01*
X4804422Y4218189D01*
Y4220188D01*
X4803922Y4220688D01*
X4802923D01*
X4802423Y4220188D01*
Y4219688D01*
X4802923Y4219189D01*
X4804422D01*
X4805422Y4218189D02*
X4805922Y4217689D01*
X4806921D01*
X4807421Y4218189D01*
Y4220188D01*
X4806921Y4220688D01*
X4805922D01*
X4805422Y4220188D01*
Y4219688D01*
X4805922Y4219189D01*
X4807421D01*
X4883869Y4432688D02*
Y4432188D01*
X4884868Y4431189D01*
X4885868Y4432188D01*
Y4432688D01*
X4884868Y4431189D02*
Y4429689D01*
X4886868D02*
X4887867D01*
X4887368D01*
Y4432688D01*
X4886868Y4432188D01*
X4901073Y4508688D02*
Y4506189D01*
X4901574Y4505689D01*
X4902573D01*
X4903073Y4506189D01*
Y4508688D01*
X4906072Y4505689D02*
X4904073D01*
X4906072Y4507688D01*
Y4508188D01*
X4905572Y4508688D01*
X4904572D01*
X4904073Y4508188D01*
X4907072D02*
X4907571Y4508688D01*
X4908571D01*
X4909071Y4508188D01*
Y4506189D01*
X4908571Y4505689D01*
X4907571D01*
X4907072Y4506189D01*
Y4508188D01*
X4910071D02*
X4910571Y4508688D01*
X4911570D01*
X4912070Y4508188D01*
Y4507688D01*
X4911570Y4507188D01*
X4912070Y4506689D01*
Y4506189D01*
X4911570Y4505689D01*
X4910571D01*
X4910071Y4506189D01*
Y4506689D01*
X4910571Y4507188D01*
X4910071Y4507688D01*
Y4508188D01*
X4910571Y4507188D02*
X4911570D01*
X4743369Y4275688D02*
Y4273189D01*
X4743869Y4272689D01*
X4744868D01*
X4745368Y4273189D01*
Y4275688D01*
X4748367Y4272689D02*
X4746368D01*
X4748367Y4274688D01*
Y4275188D01*
X4747867Y4275688D01*
X4746867D01*
X4746368Y4275188D01*
X4749367D02*
X4749866Y4275688D01*
X4750866D01*
X4751366Y4275188D01*
Y4273189D01*
X4750866Y4272689D01*
X4749866D01*
X4749367Y4273189D01*
Y4275188D01*
X4754365Y4275688D02*
X4753365Y4275188D01*
X4752366Y4274188D01*
Y4273189D01*
X4752866Y4272689D01*
X4753865D01*
X4754365Y4273189D01*
Y4273689D01*
X4753865Y4274188D01*
X4752366D01*
X4991869Y4242188D02*
Y4239689D01*
X4992369Y4239189D01*
X4993368D01*
X4993868Y4239689D01*
Y4242188D01*
X4996867Y4239189D02*
X4994868D01*
X4996867Y4241188D01*
Y4241688D01*
X4996367Y4242188D01*
X4995367D01*
X4994868Y4241688D01*
X4997867D02*
X4998367Y4242188D01*
X4999366D01*
X4999866Y4241688D01*
Y4239689D01*
X4999366Y4239189D01*
X4998367D01*
X4997867Y4239689D01*
Y4241688D01*
X5002365Y4239189D02*
Y4242188D01*
X5000866Y4240688D01*
X5002865D01*
X5055869Y4466688D02*
Y4464189D01*
X5056369Y4463689D01*
X5057368D01*
X5057868Y4464189D01*
Y4466688D01*
X5060867Y4463689D02*
X5058868D01*
X5060867Y4465688D01*
Y4466188D01*
X5060367Y4466688D01*
X5059368D01*
X5058868Y4466188D01*
X5061867D02*
X5062366Y4466688D01*
X5063366D01*
X5063866Y4466188D01*
Y4464189D01*
X5063366Y4463689D01*
X5062366D01*
X5061867Y4464189D01*
Y4466188D01*
X5066865Y4463689D02*
X5064866D01*
X5066865Y4465688D01*
Y4466188D01*
X5066365Y4466688D01*
X5065366D01*
X5064866Y4466188D01*
X4749869Y4403188D02*
Y4400689D01*
X4750368Y4400189D01*
X4751368D01*
X4751868Y4400689D01*
Y4403188D01*
X4754367Y4400189D02*
Y4403188D01*
X4752868Y4401688D01*
X4754867D01*
X4755867Y4402688D02*
X4756367Y4403188D01*
X4757366D01*
X4757866Y4402688D01*
Y4402188D01*
X4757366Y4401688D01*
X4756866D01*
X4757366D01*
X4757866Y4401189D01*
Y4400689D01*
X4757366Y4400189D01*
X4756367D01*
X4755867Y4400689D01*
X4653369Y4434188D02*
Y4431689D01*
X4653868Y4431189D01*
X4654868D01*
X4655368Y4431689D01*
Y4434188D01*
X4656368Y4431189D02*
X4657367D01*
X4656868D01*
Y4434188D01*
X4656368Y4433688D01*
X4658867D02*
X4659367Y4434188D01*
X4660366D01*
X4660866Y4433688D01*
Y4431689D01*
X4660366Y4431189D01*
X4659367D01*
X4658867Y4431689D01*
Y4433688D01*
X4778869Y4276976D02*
Y4274476D01*
X4779369Y4273977D01*
X4780368D01*
X4780868Y4274476D01*
Y4276976D01*
X4781868D02*
X4783867D01*
Y4276476D01*
X4781868Y4274476D01*
Y4273977D01*
X4832869Y4277983D02*
Y4275484D01*
X4833369Y4274984D01*
X4834368D01*
X4834868Y4275484D01*
Y4277983D01*
X4837867D02*
X4836868Y4277483D01*
X4835868Y4276484D01*
Y4275484D01*
X4836367Y4274984D01*
X4837367D01*
X4837867Y4275484D01*
Y4275984D01*
X4837367Y4276484D01*
X4835868D01*
X4943869Y4366770D02*
Y4364271D01*
X4944369Y4363771D01*
X4945368D01*
X4945868Y4364271D01*
Y4366770D01*
X4946868Y4363771D02*
X4947868D01*
X4947367D01*
Y4366770D01*
X4946868Y4366270D01*
X4723988Y4380689D02*
Y4383688D01*
X4725488D01*
X4725988Y4383188D01*
Y4382188D01*
X4725488Y4381689D01*
X4723988D01*
X4724988D02*
X4725988Y4380689D01*
X4726987D02*
X4727987D01*
X4727487D01*
Y4383688D01*
X4726987Y4383188D01*
X4729486Y4381189D02*
X4729987Y4380689D01*
X4730986D01*
X4731486Y4381189D01*
Y4383188D01*
X4730986Y4383688D01*
X4729987D01*
X4729486Y4383188D01*
Y4382688D01*
X4729987Y4382188D01*
X4731486D01*
X4732486Y4383188D02*
X4732985Y4383688D01*
X4733985D01*
X4734485Y4383188D01*
Y4381189D01*
X4733985Y4380689D01*
X4732985D01*
X4732486Y4381189D01*
Y4383188D01*
X4790869Y4389189D02*
Y4392188D01*
X4792368D01*
X4792868Y4391688D01*
Y4390688D01*
X4792368Y4390189D01*
X4790869D01*
X4791868D02*
X4792868Y4389189D01*
X4793868D02*
X4794867D01*
X4794368D01*
Y4392188D01*
X4793868Y4391688D01*
X4796367D02*
X4796867Y4392188D01*
X4797866D01*
X4798366Y4391688D01*
Y4391188D01*
X4797866Y4390688D01*
X4798366Y4390189D01*
Y4389689D01*
X4797866Y4389189D01*
X4796867D01*
X4796367Y4389689D01*
Y4390189D01*
X4796867Y4390688D01*
X4796367Y4391188D01*
Y4391688D01*
X4796867Y4390688D02*
X4797866D01*
X4799366Y4389689D02*
X4799866Y4389189D01*
X4800866D01*
X4801365Y4389689D01*
Y4391688D01*
X4800866Y4392188D01*
X4799866D01*
X4799366Y4391688D01*
Y4391188D01*
X4799866Y4390688D01*
X4801365D01*
X4695869Y4421189D02*
X4698868D01*
Y4419690D01*
X4698368Y4419189D01*
X4697368D01*
X4696869Y4419690D01*
Y4421189D01*
Y4420189D02*
X4695869Y4419189D01*
Y4418190D02*
Y4417190D01*
Y4417690D01*
X4698868D01*
X4698368Y4418190D01*
Y4415691D02*
X4698868Y4415191D01*
Y4414191D01*
X4698368Y4413691D01*
X4697868D01*
X4697368Y4414191D01*
X4696869Y4413691D01*
X4696369D01*
X4695869Y4414191D01*
Y4415191D01*
X4696369Y4415691D01*
X4696869D01*
X4697368Y4415191D01*
X4697868Y4415691D01*
X4698368D01*
X4697368Y4415191D02*
Y4414191D01*
X4695869Y4411192D02*
X4698868D01*
X4697368Y4412692D01*
Y4410692D01*
X4793869Y4418689D02*
X4796868D01*
Y4417189D01*
X4796368Y4416690D01*
X4795368D01*
X4794868Y4417189D01*
Y4418689D01*
Y4417689D02*
X4793869Y4416690D01*
Y4415690D02*
Y4414690D01*
Y4415190D01*
X4796868D01*
X4796368Y4415690D01*
Y4413191D02*
X4796868Y4412691D01*
Y4411691D01*
X4796368Y4411192D01*
X4795868D01*
X4795368Y4411691D01*
X4794868Y4411192D01*
X4794369D01*
X4793869Y4411691D01*
Y4412691D01*
X4794369Y4413191D01*
X4794868D01*
X4795368Y4412691D01*
X4795868Y4413191D01*
X4796368D01*
X4795368Y4412691D02*
Y4411691D01*
X4796368Y4410192D02*
X4796868Y4409692D01*
Y4408692D01*
X4796368Y4408192D01*
X4795868D01*
X4795368Y4408692D01*
Y4409192D01*
Y4408692D01*
X4794868Y4408192D01*
X4794369D01*
X4793869Y4408692D01*
Y4409692D01*
X4794369Y4410192D01*
X4730330Y4464189D02*
Y4467188D01*
X4731829D01*
X4732329Y4466688D01*
Y4465688D01*
X4731829Y4465189D01*
X4730330D01*
X4731329D02*
X4732329Y4464189D01*
X4733329D02*
X4734328D01*
X4733828D01*
Y4467188D01*
X4733329Y4466688D01*
X4735828D02*
X4736328Y4467188D01*
X4737328D01*
X4737827Y4466688D01*
Y4466188D01*
X4737328Y4465688D01*
X4737827Y4465189D01*
Y4464689D01*
X4737328Y4464189D01*
X4736328D01*
X4735828Y4464689D01*
Y4465189D01*
X4736328Y4465688D01*
X4735828Y4466188D01*
Y4466688D01*
X4736328Y4465688D02*
X4737328D01*
X4740826Y4464189D02*
X4738827D01*
X4740826Y4466188D01*
Y4466688D01*
X4740326Y4467188D01*
X4739327D01*
X4738827Y4466688D01*
X4790043Y4454689D02*
X4793042D01*
Y4453189D01*
X4792543Y4452690D01*
X4791543D01*
X4791043Y4453189D01*
Y4454689D01*
Y4453689D02*
X4790043Y4452690D01*
Y4451690D02*
Y4450690D01*
Y4451190D01*
X4793042D01*
X4792543Y4451690D01*
Y4449191D02*
X4793042Y4448691D01*
Y4447691D01*
X4792543Y4447191D01*
X4792043D01*
X4791543Y4447691D01*
X4791043Y4447191D01*
X4790543D01*
X4790043Y4447691D01*
Y4448691D01*
X4790543Y4449191D01*
X4791043D01*
X4791543Y4448691D01*
X4792043Y4449191D01*
X4792543D01*
X4791543Y4448691D02*
Y4447691D01*
X4790043Y4446192D02*
Y4445192D01*
Y4445692D01*
X4793042D01*
X4792543Y4446192D01*
X4847869Y4328689D02*
Y4331688D01*
X4849368D01*
X4849868Y4331188D01*
Y4330188D01*
X4849368Y4329689D01*
X4847869D01*
X4848869D02*
X4849868Y4328689D01*
X4850868D02*
X4851867D01*
X4851368D01*
Y4331688D01*
X4850868Y4331188D01*
X4853367D02*
X4853867Y4331688D01*
X4854866D01*
X4855366Y4331188D01*
Y4330688D01*
X4854866Y4330188D01*
X4855366Y4329689D01*
Y4329189D01*
X4854866Y4328689D01*
X4853867D01*
X4853367Y4329189D01*
Y4329689D01*
X4853867Y4330188D01*
X4853367Y4330688D01*
Y4331188D01*
X4853867Y4330188D02*
X4854866D01*
X4856366Y4331188D02*
X4856866Y4331688D01*
X4857866D01*
X4858365Y4331188D01*
Y4329189D01*
X4857866Y4328689D01*
X4856866D01*
X4856366Y4329189D01*
Y4331188D01*
X4978369Y4495689D02*
X4981368D01*
Y4494189D01*
X4980868Y4493690D01*
X4979868D01*
X4979368Y4494189D01*
Y4495689D01*
Y4494689D02*
X4978369Y4493690D01*
Y4492690D02*
Y4491690D01*
Y4492190D01*
X4981368D01*
X4980868Y4492690D01*
X4981368Y4488191D02*
X4980868Y4489191D01*
X4979868Y4490191D01*
X4978868D01*
X4978369Y4489691D01*
Y4488691D01*
X4978868Y4488191D01*
X4979368D01*
X4979868Y4488691D01*
Y4490191D01*
X4978369Y4487192D02*
Y4486192D01*
Y4486692D01*
X4981368D01*
X4980868Y4487192D01*
X4972869Y4496689D02*
X4975868D01*
Y4495190D01*
X4975368Y4494690D01*
X4974368D01*
X4973869Y4495190D01*
Y4496689D01*
Y4495689D02*
X4972869Y4494690D01*
Y4493690D02*
Y4492690D01*
Y4493190D01*
X4975868D01*
X4975368Y4493690D01*
X4975868Y4489191D02*
Y4491191D01*
X4974368D01*
X4974868Y4490191D01*
Y4489691D01*
X4974368Y4489191D01*
X4973368D01*
X4972869Y4489691D01*
Y4490691D01*
X4973368Y4491191D01*
X4975368Y4488192D02*
X4975868Y4487692D01*
Y4486692D01*
X4975368Y4486192D01*
X4974868D01*
X4974368Y4486692D01*
X4973869Y4486192D01*
X4973368D01*
X4972869Y4486692D01*
Y4487692D01*
X4973368Y4488192D01*
X4973869D01*
X4974368Y4487692D01*
X4974868Y4488192D01*
X4975368D01*
X4974368Y4487692D02*
Y4486692D01*
X4946869Y4454189D02*
X4949868D01*
Y4452689D01*
X4949368Y4452190D01*
X4948368D01*
X4947868Y4452689D01*
Y4454189D01*
Y4453189D02*
X4946869Y4452190D01*
Y4451190D02*
Y4450190D01*
Y4450690D01*
X4949868D01*
X4949368Y4451190D01*
X4946869Y4447191D02*
X4949868D01*
X4948368Y4448691D01*
Y4446692D01*
X4946869Y4443692D02*
Y4445692D01*
X4948868Y4443692D01*
X4949368D01*
X4949868Y4444192D01*
Y4445192D01*
X4949368Y4445692D01*
X4948869Y4483689D02*
X4951868D01*
Y4482190D01*
X4951368Y4481689D01*
X4950368D01*
X4949868Y4482190D01*
Y4483689D01*
Y4482689D02*
X4948869Y4481689D01*
Y4480690D02*
Y4479690D01*
Y4480190D01*
X4951868D01*
X4951368Y4480690D01*
Y4478191D02*
X4951868Y4477691D01*
Y4476691D01*
X4951368Y4476191D01*
X4950868D01*
X4950368Y4476691D01*
Y4477191D01*
Y4476691D01*
X4949868Y4476191D01*
X4949369D01*
X4948869Y4476691D01*
Y4477691D01*
X4949369Y4478191D01*
Y4475192D02*
X4948869Y4474692D01*
Y4473692D01*
X4949369Y4473192D01*
X4951368D01*
X4951868Y4473692D01*
Y4474692D01*
X4951368Y4475192D01*
X4950868D01*
X4950368Y4474692D01*
Y4473192D01*
X4716965Y4464189D02*
Y4467188D01*
X4718465D01*
X4718964Y4466688D01*
Y4465688D01*
X4718465Y4465189D01*
X4716965D01*
X4717965D02*
X4718964Y4464189D01*
X4719964D02*
X4720964D01*
X4720464D01*
Y4467188D01*
X4719964Y4466688D01*
X4722463D02*
X4722963Y4467188D01*
X4723963D01*
X4724463Y4466688D01*
Y4466188D01*
X4723963Y4465688D01*
X4723463D01*
X4723963D01*
X4724463Y4465189D01*
Y4464689D01*
X4723963Y4464189D01*
X4722963D01*
X4722463Y4464689D01*
X4726962Y4464189D02*
Y4467188D01*
X4725462Y4465688D01*
X4727462D01*
X4777215Y4464189D02*
Y4467188D01*
X4778715D01*
X4779214Y4466688D01*
Y4465688D01*
X4778715Y4465189D01*
X4777215D01*
X4778215D02*
X4779214Y4464189D01*
X4780214D02*
X4781214D01*
X4780714D01*
Y4467188D01*
X4780214Y4466688D01*
X4782713D02*
X4783213Y4467188D01*
X4784213D01*
X4784713Y4466688D01*
Y4466188D01*
X4784213Y4465688D01*
X4783713D01*
X4784213D01*
X4784713Y4465189D01*
Y4464689D01*
X4784213Y4464189D01*
X4783213D01*
X4782713Y4464689D01*
X4787712Y4464189D02*
X4785712D01*
X4787712Y4466188D01*
Y4466688D01*
X4787212Y4467188D01*
X4786212D01*
X4785712Y4466688D01*
X4797465Y4464189D02*
Y4467188D01*
X4798965D01*
X4799464Y4466688D01*
Y4465688D01*
X4798965Y4465189D01*
X4797465D01*
X4798465D02*
X4799464Y4464189D01*
X4800464D02*
X4801464D01*
X4800964D01*
Y4467188D01*
X4800464Y4466688D01*
X4802964D02*
X4803463Y4467188D01*
X4804463D01*
X4804963Y4466688D01*
Y4466188D01*
X4804463Y4465688D01*
X4803963D01*
X4804463D01*
X4804963Y4465189D01*
Y4464689D01*
X4804463Y4464189D01*
X4803463D01*
X4802964Y4464689D01*
X4805962Y4464189D02*
X4806962D01*
X4806462D01*
Y4467188D01*
X4805962Y4466688D01*
X4857715Y4464189D02*
Y4467188D01*
X4859215D01*
X4859715Y4466688D01*
Y4465688D01*
X4859215Y4465189D01*
X4857715D01*
X4858715D02*
X4859715Y4464189D01*
X4860714D02*
X4861714D01*
X4861214D01*
Y4467188D01*
X4860714Y4466688D01*
X4863213D02*
X4863713Y4467188D01*
X4864713D01*
X4865213Y4466688D01*
Y4466188D01*
X4864713Y4465688D01*
X4864213D01*
X4864713D01*
X4865213Y4465189D01*
Y4464689D01*
X4864713Y4464189D01*
X4863713D01*
X4863213Y4464689D01*
X4866212Y4466688D02*
X4866712Y4467188D01*
X4867712D01*
X4868212Y4466688D01*
Y4464689D01*
X4867712Y4464189D01*
X4866712D01*
X4866212Y4464689D01*
Y4466688D01*
X4841965Y4464189D02*
Y4467188D01*
X4843465D01*
X4843965Y4466688D01*
Y4465688D01*
X4843465Y4465189D01*
X4841965D01*
X4842965D02*
X4843965Y4464189D01*
X4844964D02*
X4845964D01*
X4845464D01*
Y4467188D01*
X4844964Y4466688D01*
X4849463Y4464189D02*
X4847464D01*
X4849463Y4466188D01*
Y4466688D01*
X4848963Y4467188D01*
X4847963D01*
X4847464Y4466688D01*
X4850462Y4464689D02*
X4850962Y4464189D01*
X4851962D01*
X4852462Y4464689D01*
Y4466688D01*
X4851962Y4467188D01*
X4850962D01*
X4850462Y4466688D01*
Y4466188D01*
X4850962Y4465688D01*
X4852462D01*
X4762869Y4467689D02*
X4765868D01*
Y4466190D01*
X4765368Y4465689D01*
X4764368D01*
X4763868Y4466190D01*
Y4467689D01*
Y4466689D02*
X4762869Y4465689D01*
Y4464690D02*
Y4463690D01*
Y4464190D01*
X4765868D01*
X4765368Y4464690D01*
X4762869Y4460191D02*
Y4462191D01*
X4764868Y4460191D01*
X4765368D01*
X4765868Y4460691D01*
Y4461691D01*
X4765368Y4462191D01*
Y4459192D02*
X4765868Y4458692D01*
Y4457692D01*
X4765368Y4457192D01*
X4764868D01*
X4764368Y4457692D01*
X4763868Y4457192D01*
X4763369D01*
X4762869Y4457692D01*
Y4458692D01*
X4763369Y4459192D01*
X4763868D01*
X4764368Y4458692D01*
X4764868Y4459192D01*
X4765368D01*
X4764368Y4458692D02*
Y4457692D01*
X4775369Y4297957D02*
X4778368D01*
Y4296458D01*
X4777868Y4295958D01*
X4776868D01*
X4776368Y4296458D01*
Y4297957D01*
Y4296957D02*
X4775369Y4295958D01*
Y4294958D02*
Y4293958D01*
Y4294458D01*
X4778368D01*
X4777868Y4294958D01*
X4775369Y4292459D02*
Y4291459D01*
Y4291959D01*
X4778368D01*
X4777868Y4292459D01*
X4778368Y4289960D02*
Y4287960D01*
X4777868D01*
X4775869Y4289960D01*
X4775369D01*
X4765369Y4297957D02*
X4768368D01*
Y4296458D01*
X4767868Y4295958D01*
X4766868D01*
X4766368Y4296458D01*
Y4297957D01*
Y4296957D02*
X4765369Y4295958D01*
Y4294958D02*
Y4293958D01*
Y4294458D01*
X4768368D01*
X4767868Y4294958D01*
X4765369Y4292459D02*
Y4291459D01*
Y4291959D01*
X4768368D01*
X4767868Y4292459D01*
X4765369Y4288460D02*
X4768368D01*
X4766868Y4289960D01*
Y4287960D01*
X4730369Y4459689D02*
Y4462688D01*
X4731868D01*
X4732368Y4462188D01*
Y4461189D01*
X4731868Y4460689D01*
X4730369D01*
X4731368D02*
X4732368Y4459689D01*
X4733368D02*
X4734367D01*
X4733868D01*
Y4462688D01*
X4733368Y4462188D01*
X4735867Y4459689D02*
X4736867D01*
X4736367D01*
Y4462688D01*
X4735867Y4462188D01*
X4740366Y4459689D02*
X4738366D01*
X4740366Y4461688D01*
Y4462188D01*
X4739866Y4462688D01*
X4738866D01*
X4738366Y4462188D01*
X4766869Y4441189D02*
Y4444188D01*
X4768368D01*
X4768868Y4443688D01*
Y4442688D01*
X4768368Y4442189D01*
X4766869D01*
X4767868D02*
X4768868Y4441189D01*
X4769868D02*
X4770868D01*
X4770367D01*
Y4444188D01*
X4769868Y4443688D01*
X4772367Y4441189D02*
X4773367D01*
X4772867D01*
Y4444188D01*
X4772367Y4443688D01*
X4774866Y4441189D02*
X4775866D01*
X4775366D01*
Y4444188D01*
X4774866Y4443688D01*
X5028369Y4252689D02*
Y4255688D01*
X5029868D01*
X5030368Y4255188D01*
Y4254189D01*
X5029868Y4253689D01*
X5028369D01*
X5029368D02*
X5030368Y4252689D01*
X5031368D02*
X5032367D01*
X5031868D01*
Y4255688D01*
X5031368Y4255188D01*
X5033867D02*
X5034367Y4255688D01*
X5035366D01*
X5035866Y4255188D01*
Y4253189D01*
X5035366Y4252689D01*
X5034367D01*
X5033867Y4253189D01*
Y4255188D01*
X5036866Y4253189D02*
X5037366Y4252689D01*
X5038366D01*
X5038865Y4253189D01*
Y4255188D01*
X5038366Y4255688D01*
X5037366D01*
X5036866Y4255188D01*
Y4254688D01*
X5037366Y4254189D01*
X5038865D01*
X4860869Y4352689D02*
Y4355688D01*
X4862368D01*
X4862868Y4355188D01*
Y4354189D01*
X4862368Y4353689D01*
X4860869D01*
X4861868D02*
X4862868Y4352689D01*
X4863868D02*
X4864867D01*
X4864368D01*
Y4355688D01*
X4863868Y4355188D01*
X4866367D02*
X4866867Y4355688D01*
X4867867D01*
X4868366Y4355188D01*
Y4353189D01*
X4867867Y4352689D01*
X4866867D01*
X4866367Y4353189D01*
Y4355188D01*
X4871365Y4355688D02*
X4870366Y4355188D01*
X4869366Y4354189D01*
Y4353189D01*
X4869866Y4352689D01*
X4870866D01*
X4871365Y4353189D01*
Y4353689D01*
X4870866Y4354189D01*
X4869366D01*
X4860369Y4346689D02*
X4863368D01*
Y4345190D01*
X4862868Y4344690D01*
X4861868D01*
X4861369Y4345190D01*
Y4346689D01*
Y4345689D02*
X4860369Y4344690D01*
Y4343690D02*
Y4342690D01*
Y4343190D01*
X4863368D01*
X4862868Y4343690D01*
Y4341191D02*
X4863368Y4340691D01*
Y4339691D01*
X4862868Y4339191D01*
X4860868D01*
X4860369Y4339691D01*
Y4340691D01*
X4860868Y4341191D01*
X4862868D01*
X4863368Y4336192D02*
Y4338192D01*
X4861868D01*
X4862368Y4337192D01*
Y4336692D01*
X4861868Y4336192D01*
X4860868D01*
X4860369Y4336692D01*
Y4337692D01*
X4860868Y4338192D01*
X4860369Y4358689D02*
Y4361688D01*
X4861868D01*
X4862368Y4361188D01*
Y4360189D01*
X4861868Y4359689D01*
X4860369D01*
X4861369D02*
X4862368Y4358689D01*
X4863368D02*
X4864367D01*
X4863868D01*
Y4361688D01*
X4863368Y4361188D01*
X4865867D02*
X4866367Y4361688D01*
X4867366D01*
X4867866Y4361188D01*
Y4359189D01*
X4867366Y4358689D01*
X4866367D01*
X4865867Y4359189D01*
Y4361188D01*
X4868866D02*
X4869366Y4361688D01*
X4870366D01*
X4870865Y4361188D01*
Y4360688D01*
X4870366Y4360189D01*
X4869866D01*
X4870366D01*
X4870865Y4359689D01*
Y4359189D01*
X4870366Y4358689D01*
X4869366D01*
X4868866Y4359189D01*
X4925369Y4284189D02*
Y4287188D01*
X4926868D01*
X4927368Y4286688D01*
Y4285688D01*
X4926868Y4285189D01*
X4925369D01*
X4926368D02*
X4927368Y4284189D01*
X4928368D02*
X4929367D01*
X4928868D01*
Y4287188D01*
X4928368Y4286688D01*
X4930867D02*
X4931367Y4287188D01*
X4932367D01*
X4932866Y4286688D01*
Y4284689D01*
X4932367Y4284189D01*
X4931367D01*
X4930867Y4284689D01*
Y4286688D01*
X4933866D02*
X4934366Y4287188D01*
X4935366D01*
X4935865Y4286688D01*
Y4284689D01*
X4935366Y4284189D01*
X4934366D01*
X4933866Y4284689D01*
Y4286688D01*
X5053359Y4256907D02*
Y4259906D01*
X5054859D01*
X5055359Y4259407D01*
Y4258407D01*
X5054859Y4257907D01*
X5053359D01*
X5054359D02*
X5055359Y4256907D01*
X5056358Y4257407D02*
X5056858Y4256907D01*
X5057858D01*
X5058357Y4257407D01*
Y4259407D01*
X5057858Y4259906D01*
X5056858D01*
X5056358Y4259407D01*
Y4258907D01*
X5056858Y4258407D01*
X5058357D01*
X5059357Y4257407D02*
X5059857Y4256907D01*
X5060857D01*
X5061356Y4257407D01*
Y4259407D01*
X5060857Y4259906D01*
X5059857D01*
X5059357Y4259407D01*
Y4258907D01*
X5059857Y4258407D01*
X5061356D01*
X5053407Y4263921D02*
Y4266920D01*
X5054906D01*
X5055406Y4266421D01*
Y4265421D01*
X5054906Y4264921D01*
X5053407D01*
X5054407D02*
X5055406Y4263921D01*
X5056406Y4264421D02*
X5056906Y4263921D01*
X5057906D01*
X5058405Y4264421D01*
Y4266421D01*
X5057906Y4266920D01*
X5056906D01*
X5056406Y4266421D01*
Y4265921D01*
X5056906Y4265421D01*
X5058405D01*
X5059405Y4266421D02*
X5059905Y4266920D01*
X5060904D01*
X5061404Y4266421D01*
Y4265921D01*
X5060904Y4265421D01*
X5061404Y4264921D01*
Y4264421D01*
X5060904Y4263921D01*
X5059905D01*
X5059405Y4264421D01*
Y4264921D01*
X5059905Y4265421D01*
X5059405Y4265921D01*
Y4266421D01*
X5059905Y4265421D02*
X5060904D01*
X4691378Y4418689D02*
X4694377D01*
Y4417189D01*
X4693877Y4416690D01*
X4692877D01*
X4692377Y4417189D01*
Y4418689D01*
Y4417689D02*
X4691378Y4416690D01*
X4691878Y4415690D02*
X4691378Y4415190D01*
Y4414190D01*
X4691878Y4413691D01*
X4693877D01*
X4694377Y4414190D01*
Y4415190D01*
X4693877Y4415690D01*
X4693377D01*
X4692877Y4415190D01*
Y4413691D01*
X4694377Y4410691D02*
X4693877Y4411691D01*
X4692877Y4412691D01*
X4691878D01*
X4691378Y4412191D01*
Y4411192D01*
X4691878Y4410691D01*
X4692377D01*
X4692877Y4411192D01*
Y4412691D01*
X4798869Y4418689D02*
X4801868D01*
Y4417189D01*
X4801368Y4416690D01*
X4800368D01*
X4799868Y4417189D01*
Y4418689D01*
Y4417689D02*
X4798869Y4416690D01*
X4799369Y4415690D02*
X4798869Y4415190D01*
Y4414190D01*
X4799369Y4413691D01*
X4801368D01*
X4801868Y4414190D01*
Y4415190D01*
X4801368Y4415690D01*
X4800868D01*
X4800368Y4415190D01*
Y4413691D01*
X4801868Y4410691D02*
Y4412691D01*
X4800368D01*
X4800868Y4411691D01*
Y4411192D01*
X4800368Y4410691D01*
X4799369D01*
X4798869Y4411192D01*
Y4412191D01*
X4799369Y4412691D01*
X5043369Y4272189D02*
Y4275188D01*
X5044868D01*
X5045368Y4274688D01*
Y4273689D01*
X5044868Y4273189D01*
X5043369D01*
X5044368D02*
X5045368Y4272189D01*
X5046368Y4272689D02*
X5046868Y4272189D01*
X5047867D01*
X5048367Y4272689D01*
Y4274688D01*
X5047867Y4275188D01*
X5046868D01*
X5046368Y4274688D01*
Y4274188D01*
X5046868Y4273689D01*
X5048367D01*
X5049367Y4272189D02*
X5050367D01*
X5049866D01*
Y4275188D01*
X5049367Y4274688D01*
X5057869Y4280689D02*
Y4283688D01*
X5059368D01*
X5059868Y4283188D01*
Y4282188D01*
X5059368Y4281689D01*
X5057869D01*
X5058868D02*
X5059868Y4280689D01*
X5060868Y4281189D02*
X5061367Y4280689D01*
X5062367D01*
X5062867Y4281189D01*
Y4283188D01*
X5062367Y4283688D01*
X5061367D01*
X5060868Y4283188D01*
Y4282688D01*
X5061367Y4282188D01*
X5062867D01*
X5063867Y4283188D02*
X5064367Y4283688D01*
X5065366D01*
X5065866Y4283188D01*
Y4281189D01*
X5065366Y4280689D01*
X5064367D01*
X5063867Y4281189D01*
Y4283188D01*
X4736869Y4388189D02*
X4739868D01*
Y4386689D01*
X4739368Y4386190D01*
X4738368D01*
X4737868Y4386689D01*
Y4388189D01*
Y4387189D02*
X4736869Y4386190D01*
X4739368Y4385190D02*
X4739868Y4384690D01*
Y4383690D01*
X4739368Y4383191D01*
X4738868D01*
X4738368Y4383690D01*
X4737868Y4383191D01*
X4737369D01*
X4736869Y4383690D01*
Y4384690D01*
X4737369Y4385190D01*
X4737868D01*
X4738368Y4384690D01*
X4738868Y4385190D01*
X4739368D01*
X4738368Y4384690D02*
Y4383690D01*
X4739868Y4380191D02*
X4739368Y4381191D01*
X4738368Y4382191D01*
X4737369D01*
X4736869Y4381691D01*
Y4380692D01*
X4737369Y4380191D01*
X4737868D01*
X4738368Y4380692D01*
Y4382191D01*
X4765869Y4404189D02*
X4768868D01*
Y4402689D01*
X4768368Y4402190D01*
X4767368D01*
X4766868Y4402689D01*
Y4404189D01*
Y4403189D02*
X4765869Y4402190D01*
X4768368Y4401190D02*
X4768868Y4400690D01*
Y4399690D01*
X4768368Y4399191D01*
X4767868D01*
X4767368Y4399690D01*
X4766868Y4399191D01*
X4766368D01*
X4765869Y4399690D01*
Y4400690D01*
X4766368Y4401190D01*
X4766868D01*
X4767368Y4400690D01*
X4767868Y4401190D01*
X4768368D01*
X4767368Y4400690D02*
Y4399690D01*
X4768868Y4396192D02*
Y4398191D01*
X4767368D01*
X4767868Y4397191D01*
Y4396692D01*
X4767368Y4396192D01*
X4766368D01*
X4765869Y4396692D01*
Y4397691D01*
X4766368Y4398191D01*
X4994369Y4478189D02*
X4997368D01*
Y4476690D01*
X4996868Y4476189D01*
X4995868D01*
X4995369Y4476690D01*
Y4478189D01*
Y4477189D02*
X4994369Y4476189D01*
X4996868Y4475190D02*
X4997368Y4474690D01*
Y4473690D01*
X4996868Y4473191D01*
X4996368D01*
X4995868Y4473690D01*
X4995369Y4473191D01*
X4994868D01*
X4994369Y4473690D01*
Y4474690D01*
X4994868Y4475190D01*
X4995369D01*
X4995868Y4474690D01*
X4996368Y4475190D01*
X4996868D01*
X4995868Y4474690D02*
Y4473690D01*
X4996868Y4472191D02*
X4997368Y4471691D01*
Y4470691D01*
X4996868Y4470192D01*
X4996368D01*
X4995868Y4470691D01*
Y4471191D01*
Y4470691D01*
X4995369Y4470192D01*
X4994868D01*
X4994369Y4470691D01*
Y4471691D01*
X4994868Y4472191D01*
X4986869Y4481189D02*
X4989868D01*
Y4479689D01*
X4989368Y4479190D01*
X4988368D01*
X4987868Y4479689D01*
Y4481189D01*
Y4480189D02*
X4986869Y4479190D01*
X4989368Y4478190D02*
X4989868Y4477690D01*
Y4476690D01*
X4989368Y4476191D01*
X4988868D01*
X4988368Y4476690D01*
X4987868Y4476191D01*
X4987369D01*
X4986869Y4476690D01*
Y4477690D01*
X4987369Y4478190D01*
X4987868D01*
X4988368Y4477690D01*
X4988868Y4478190D01*
X4989368D01*
X4988368Y4477690D02*
Y4476690D01*
X4986869Y4473191D02*
Y4475191D01*
X4988868Y4473191D01*
X4989368D01*
X4989868Y4473692D01*
Y4474691D01*
X4989368Y4475191D01*
X4920869Y4352689D02*
Y4355688D01*
X4922368D01*
X4922868Y4355188D01*
Y4354189D01*
X4922368Y4353689D01*
X4920869D01*
X4921869D02*
X4922868Y4352689D01*
X4923868Y4355188D02*
X4924368Y4355688D01*
X4925367D01*
X4925867Y4355188D01*
Y4354688D01*
X4925367Y4354189D01*
X4925867Y4353689D01*
Y4353189D01*
X4925367Y4352689D01*
X4924368D01*
X4923868Y4353189D01*
Y4353689D01*
X4924368Y4354189D01*
X4923868Y4354688D01*
Y4355188D01*
X4924368Y4354189D02*
X4925367D01*
X4926867Y4352689D02*
X4927866D01*
X4927367D01*
Y4355688D01*
X4926867Y4355188D01*
X4961606Y4263189D02*
Y4266188D01*
X4963106D01*
X4963605Y4265688D01*
Y4264688D01*
X4963106Y4264189D01*
X4961606D01*
X4962606D02*
X4963605Y4263189D01*
X4964605Y4265688D02*
X4965105Y4266188D01*
X4966105D01*
X4966605Y4265688D01*
Y4265188D01*
X4966105Y4264688D01*
X4966605Y4264189D01*
Y4263689D01*
X4966105Y4263189D01*
X4965105D01*
X4964605Y4263689D01*
Y4264189D01*
X4965105Y4264688D01*
X4964605Y4265188D01*
Y4265688D01*
X4965105Y4264688D02*
X4966105D01*
X4967604Y4265688D02*
X4968104Y4266188D01*
X4969104D01*
X4969604Y4265688D01*
Y4263689D01*
X4969104Y4263189D01*
X4968104D01*
X4967604Y4263689D01*
Y4265688D01*
X5052876Y4295010D02*
Y4298009D01*
X5054376D01*
X5054876Y4297510D01*
Y4296510D01*
X5054376Y4296010D01*
X5052876D01*
X5053876D02*
X5054876Y4295010D01*
X5055875Y4298009D02*
X5057875D01*
Y4297510D01*
X5055875Y4295510D01*
Y4295010D01*
X5058875Y4295510D02*
X5059374Y4295010D01*
X5060374D01*
X5060874Y4295510D01*
Y4297510D01*
X5060374Y4298009D01*
X5059374D01*
X5058875Y4297510D01*
Y4297010D01*
X5059374Y4296510D01*
X5060874D01*
X5051869Y4305689D02*
Y4308688D01*
X5053368D01*
X5053868Y4308188D01*
Y4307188D01*
X5053368Y4306689D01*
X5051869D01*
X5052868D02*
X5053868Y4305689D01*
X5054868Y4308688D02*
X5056867D01*
Y4308188D01*
X5054868Y4306189D01*
Y4305689D01*
X5057867Y4308188D02*
X5058367Y4308688D01*
X5059366D01*
X5059866Y4308188D01*
Y4307688D01*
X5059366Y4307188D01*
X5059866Y4306689D01*
Y4306189D01*
X5059366Y4305689D01*
X5058367D01*
X5057867Y4306189D01*
Y4306689D01*
X5058367Y4307188D01*
X5057867Y4307688D01*
Y4308188D01*
X5058367Y4307188D02*
X5059366D01*
X5051869Y4315689D02*
Y4318688D01*
X5053368D01*
X5053868Y4318188D01*
Y4317189D01*
X5053368Y4316689D01*
X5051869D01*
X5052868D02*
X5053868Y4315689D01*
X5054868Y4318688D02*
X5056867D01*
Y4318188D01*
X5054868Y4316189D01*
Y4315689D01*
X5057867Y4318688D02*
X5059866D01*
Y4318188D01*
X5057867Y4316189D01*
Y4315689D01*
X5051869Y4310689D02*
Y4313688D01*
X5053368D01*
X5053868Y4313188D01*
Y4312188D01*
X5053368Y4311689D01*
X5051869D01*
X5052868D02*
X5053868Y4310689D01*
X5054868Y4313688D02*
X5056867D01*
Y4313188D01*
X5054868Y4311189D01*
Y4310689D01*
X5059866Y4313688D02*
X5058867Y4313188D01*
X5057867Y4312188D01*
Y4311189D01*
X5058367Y4310689D01*
X5059366D01*
X5059866Y4311189D01*
Y4311689D01*
X5059366Y4312188D01*
X5057867D01*
X5038869Y4320189D02*
Y4323188D01*
X5040368D01*
X5040868Y4322688D01*
Y4321688D01*
X5040368Y4321189D01*
X5038869D01*
X5039869D02*
X5040868Y4320189D01*
X5041868Y4323188D02*
X5043867D01*
Y4322688D01*
X5041868Y4320689D01*
Y4320189D01*
X5046866Y4323188D02*
X5044867D01*
Y4321688D01*
X5045866Y4322188D01*
X5046366D01*
X5046866Y4321688D01*
Y4320689D01*
X5046366Y4320189D01*
X5045367D01*
X5044867Y4320689D01*
X5025369Y4357689D02*
X5028368D01*
Y4356189D01*
X5027868Y4355690D01*
X5026868D01*
X5026368Y4356189D01*
Y4357689D01*
Y4356689D02*
X5025369Y4355690D01*
X5028368Y4354690D02*
Y4352691D01*
X5027868D01*
X5025869Y4354690D01*
X5025369D01*
Y4350191D02*
X5028368D01*
X5026868Y4351691D01*
Y4349692D01*
X5017869Y4358189D02*
X5020868D01*
Y4356689D01*
X5020368Y4356190D01*
X5019368D01*
X5018868Y4356689D01*
Y4358189D01*
Y4357189D02*
X5017869Y4356190D01*
X5020868Y4355190D02*
Y4353191D01*
X5020368D01*
X5018369Y4355190D01*
X5017869D01*
X5020368Y4352191D02*
X5020868Y4351691D01*
Y4350691D01*
X5020368Y4350191D01*
X5019868D01*
X5019368Y4350691D01*
Y4351191D01*
Y4350691D01*
X5018868Y4350191D01*
X5018369D01*
X5017869Y4350691D01*
Y4351691D01*
X5018369Y4352191D01*
X5010369Y4357689D02*
X5013368D01*
Y4356189D01*
X5012868Y4355690D01*
X5011868D01*
X5011369Y4356189D01*
Y4357689D01*
Y4356689D02*
X5010369Y4355690D01*
X5013368Y4354690D02*
Y4352691D01*
X5012868D01*
X5010868Y4354690D01*
X5010369D01*
Y4349692D02*
Y4351691D01*
X5012368Y4349692D01*
X5012868D01*
X5013368Y4350191D01*
Y4351191D01*
X5012868Y4351691D01*
X5002869Y4356689D02*
X5005868D01*
Y4355190D01*
X5005368Y4354690D01*
X5004368D01*
X5003868Y4355190D01*
Y4356689D01*
Y4355689D02*
X5002869Y4354690D01*
X5005868Y4353690D02*
Y4351691D01*
X5005368D01*
X5003369Y4353690D01*
X5002869D01*
Y4350691D02*
Y4349691D01*
Y4350191D01*
X5005868D01*
X5005368Y4350691D01*
X4995369Y4357689D02*
X4998368D01*
Y4356189D01*
X4997868Y4355690D01*
X4996868D01*
X4996368Y4356189D01*
Y4357689D01*
Y4356689D02*
X4995369Y4355690D01*
X4998368Y4354690D02*
Y4352691D01*
X4997868D01*
X4995869Y4354690D01*
X4995369D01*
X4997868Y4351691D02*
X4998368Y4351191D01*
Y4350191D01*
X4997868Y4349692D01*
X4995869D01*
X4995369Y4350191D01*
Y4351191D01*
X4995869Y4351691D01*
X4997868D01*
X4988169Y4357840D02*
X4991168D01*
Y4356341D01*
X4990668Y4355841D01*
X4989668D01*
X4989169Y4356341D01*
Y4357840D01*
Y4356841D02*
X4988169Y4355841D01*
X4991168Y4352842D02*
X4990668Y4353841D01*
X4989668Y4354841D01*
X4988668D01*
X4988169Y4354341D01*
Y4353342D01*
X4988668Y4352842D01*
X4989169D01*
X4989668Y4353342D01*
Y4354841D01*
X4988668Y4351842D02*
X4988169Y4351342D01*
Y4350343D01*
X4988668Y4349843D01*
X4990668D01*
X4991168Y4350343D01*
Y4351342D01*
X4990668Y4351842D01*
X4990168D01*
X4989668Y4351342D01*
Y4349843D01*
X4974369Y4346689D02*
X4977368D01*
Y4345190D01*
X4976868Y4344690D01*
X4975868D01*
X4975368Y4345190D01*
Y4346689D01*
Y4345689D02*
X4974369Y4344690D01*
X4977368Y4341690D02*
X4976868Y4342690D01*
X4975868Y4343690D01*
X4974869D01*
X4974369Y4343190D01*
Y4342191D01*
X4974869Y4341690D01*
X4975368D01*
X4975868Y4342191D01*
Y4343690D01*
X4976868Y4340691D02*
X4977368Y4340191D01*
Y4339191D01*
X4976868Y4338692D01*
X4976368D01*
X4975868Y4339191D01*
X4975368Y4338692D01*
X4974869D01*
X4974369Y4339191D01*
Y4340191D01*
X4974869Y4340691D01*
X4975368D01*
X4975868Y4340191D01*
X4976368Y4340691D01*
X4976868D01*
X4975868Y4340191D02*
Y4339191D01*
X4930119Y4314689D02*
Y4317688D01*
X4931618D01*
X4932118Y4317188D01*
Y4316188D01*
X4931618Y4315689D01*
X4930119D01*
X4931118D02*
X4932118Y4314689D01*
X4935117Y4317688D02*
X4934118Y4317188D01*
X4933118Y4316188D01*
Y4315189D01*
X4933618Y4314689D01*
X4934617D01*
X4935117Y4315189D01*
Y4315689D01*
X4934617Y4316188D01*
X4933118D01*
X4936117Y4317688D02*
X4938116D01*
Y4317188D01*
X4936117Y4315189D01*
Y4314689D01*
X4929469Y4307189D02*
Y4310188D01*
X4930968D01*
X4931468Y4309688D01*
Y4308688D01*
X4930968Y4308189D01*
X4929469D01*
X4930468D02*
X4931468Y4307189D01*
X4934467Y4310188D02*
X4933467Y4309688D01*
X4932468Y4308688D01*
Y4307689D01*
X4932968Y4307189D01*
X4933967D01*
X4934467Y4307689D01*
Y4308189D01*
X4933967Y4308688D01*
X4932468D01*
X4937466Y4310188D02*
X4936467Y4309688D01*
X4935467Y4308688D01*
Y4307689D01*
X4935966Y4307189D01*
X4936966D01*
X4937466Y4307689D01*
Y4308189D01*
X4936966Y4308688D01*
X4935467D01*
X4985869Y4440189D02*
Y4443188D01*
X4987368D01*
X4987868Y4442688D01*
Y4441689D01*
X4987368Y4441189D01*
X4985869D01*
X4986868D02*
X4987868Y4440189D01*
X4990867Y4443188D02*
X4989867Y4442688D01*
X4988868Y4441689D01*
Y4440689D01*
X4989368Y4440189D01*
X4990367D01*
X4990867Y4440689D01*
Y4441189D01*
X4990367Y4441689D01*
X4988868D01*
X4993866Y4443188D02*
X4991867D01*
Y4441689D01*
X4992867Y4442188D01*
X4993366D01*
X4993866Y4441689D01*
Y4440689D01*
X4993366Y4440189D01*
X4992366D01*
X4991867Y4440689D01*
X4914869Y4439189D02*
X4917868D01*
Y4437690D01*
X4917368Y4437189D01*
X4916368D01*
X4915868Y4437690D01*
Y4439189D01*
Y4438189D02*
X4914869Y4437189D01*
X4917868Y4434191D02*
X4917368Y4435190D01*
X4916368Y4436190D01*
X4915369D01*
X4914869Y4435690D01*
Y4434690D01*
X4915369Y4434191D01*
X4915868D01*
X4916368Y4434690D01*
Y4436190D01*
X4914869Y4431691D02*
X4917868D01*
X4916368Y4433191D01*
Y4431192D01*
X4903601Y4497689D02*
Y4500688D01*
X4905100D01*
X4905600Y4500188D01*
Y4499189D01*
X4905100Y4498689D01*
X4903601D01*
X4904600D02*
X4905600Y4497689D01*
X4908599Y4500688D02*
X4907599Y4500188D01*
X4906600Y4499189D01*
Y4498189D01*
X4907100Y4497689D01*
X4908099D01*
X4908599Y4498189D01*
Y4498689D01*
X4908099Y4499189D01*
X4906600D01*
X4909599Y4500188D02*
X4910099Y4500688D01*
X4911098D01*
X4911598Y4500188D01*
Y4499688D01*
X4911098Y4499189D01*
X4910598D01*
X4911098D01*
X4911598Y4498689D01*
Y4498189D01*
X4911098Y4497689D01*
X4910099D01*
X4909599Y4498189D01*
X4927769Y4299189D02*
Y4302188D01*
X4929268D01*
X4929768Y4301688D01*
Y4300689D01*
X4929268Y4300189D01*
X4927769D01*
X4928769D02*
X4929768Y4299189D01*
X4932767Y4302188D02*
X4931767Y4301688D01*
X4930768Y4300689D01*
Y4299689D01*
X4931268Y4299189D01*
X4932267D01*
X4932767Y4299689D01*
Y4300189D01*
X4932267Y4300689D01*
X4930768D01*
X4935766Y4299189D02*
X4933767D01*
X4935766Y4301188D01*
Y4301688D01*
X4935266Y4302188D01*
X4934267D01*
X4933767Y4301688D01*
X4696369Y4406189D02*
X4699368D01*
Y4404689D01*
X4698868Y4404190D01*
X4697868D01*
X4697368Y4404689D01*
Y4406189D01*
Y4405189D02*
X4696369Y4404190D01*
X4699368Y4401191D02*
X4698868Y4402190D01*
X4697868Y4403190D01*
X4696869D01*
X4696369Y4402690D01*
Y4401690D01*
X4696869Y4401191D01*
X4697368D01*
X4697868Y4401690D01*
Y4403190D01*
X4698868Y4400191D02*
X4699368Y4399691D01*
Y4398692D01*
X4698868Y4398191D01*
X4696869D01*
X4696369Y4398692D01*
Y4399691D01*
X4696869Y4400191D01*
X4698868D01*
X4806869Y4421189D02*
Y4424188D01*
X4808368D01*
X4808868Y4423688D01*
Y4422689D01*
X4808368Y4422189D01*
X4806869D01*
X4807869D02*
X4808868Y4421189D01*
X4811867Y4424188D02*
X4809868D01*
Y4422689D01*
X4810867Y4423188D01*
X4811367D01*
X4811867Y4422689D01*
Y4421689D01*
X4811367Y4421189D01*
X4810368D01*
X4809868Y4421689D01*
X4812867D02*
X4813367Y4421189D01*
X4814366D01*
X4814866Y4421689D01*
Y4423688D01*
X4814366Y4424188D01*
X4813367D01*
X4812867Y4423688D01*
Y4423188D01*
X4813367Y4422689D01*
X4814866D01*
X4828109Y4421689D02*
Y4424688D01*
X4829609D01*
X4830108Y4424188D01*
Y4423188D01*
X4829609Y4422689D01*
X4828109D01*
X4829108D02*
X4830108Y4421689D01*
X4833107Y4424688D02*
X4831108D01*
Y4423188D01*
X4832108Y4423688D01*
X4832607D01*
X4833107Y4423188D01*
Y4422189D01*
X4832607Y4421689D01*
X4831608D01*
X4831108Y4422189D01*
X4834107Y4424688D02*
X4836106D01*
Y4424188D01*
X4834107Y4422189D01*
Y4421689D01*
X4927869Y4292189D02*
Y4295188D01*
X4929368D01*
X4929868Y4294688D01*
Y4293689D01*
X4929368Y4293189D01*
X4927869D01*
X4928868D02*
X4929868Y4292189D01*
X4932867Y4295188D02*
X4930868D01*
Y4293689D01*
X4931867Y4294188D01*
X4932367D01*
X4932867Y4293689D01*
Y4292689D01*
X4932367Y4292189D01*
X4931367D01*
X4930868Y4292689D01*
X4935866Y4295188D02*
X4934866Y4294688D01*
X4933867Y4293689D01*
Y4292689D01*
X4934367Y4292189D01*
X4935366D01*
X4935866Y4292689D01*
Y4293189D01*
X4935366Y4293689D01*
X4933867D01*
X5039369Y4289689D02*
Y4292688D01*
X5040868D01*
X5041368Y4292188D01*
Y4291188D01*
X5040868Y4290689D01*
X5039369D01*
X5040368D02*
X5041368Y4289689D01*
X5044367Y4292688D02*
X5042368D01*
Y4291188D01*
X5043367Y4291688D01*
X5043867D01*
X5044367Y4291188D01*
Y4290189D01*
X5043867Y4289689D01*
X5042868D01*
X5042368Y4290189D01*
X5047366Y4292688D02*
X5045367D01*
Y4291188D01*
X5046367Y4291688D01*
X5046866D01*
X5047366Y4291188D01*
Y4290189D01*
X5046866Y4289689D01*
X5045867D01*
X5045367Y4290189D01*
X4854369Y4425189D02*
Y4428188D01*
X4855868D01*
X4856368Y4427688D01*
Y4426688D01*
X4855868Y4426189D01*
X4854369D01*
X4855368D02*
X4856368Y4425189D01*
X4859367Y4428188D02*
X4857368D01*
Y4426688D01*
X4858368Y4427188D01*
X4858867D01*
X4859367Y4426688D01*
Y4425689D01*
X4858867Y4425189D01*
X4857867D01*
X4857368Y4425689D01*
X4861866Y4425189D02*
Y4428188D01*
X4860367Y4426688D01*
X4862366D01*
X4761569Y4340589D02*
Y4343588D01*
X4763068D01*
X4763568Y4343088D01*
Y4342088D01*
X4763068Y4341589D01*
X4761569D01*
X4762568D02*
X4763568Y4340589D01*
X4766067D02*
Y4343588D01*
X4764568Y4342088D01*
X4766567D01*
X4767567Y4343088D02*
X4768067Y4343588D01*
X4769066D01*
X4769566Y4343088D01*
Y4342588D01*
X4769066Y4342088D01*
X4769566Y4341589D01*
Y4341089D01*
X4769066Y4340589D01*
X4768067D01*
X4767567Y4341089D01*
Y4341589D01*
X4768067Y4342088D01*
X4767567Y4342588D01*
Y4343088D01*
X4768067Y4342088D02*
X4769066D01*
X4744250Y4340689D02*
Y4343688D01*
X4745750D01*
X4746250Y4343188D01*
Y4342189D01*
X4745750Y4341689D01*
X4744250D01*
X4745250D02*
X4746250Y4340689D01*
X4748749D02*
Y4343688D01*
X4747250Y4342189D01*
X4749249D01*
X4750249Y4343688D02*
X4752248D01*
Y4343188D01*
X4750249Y4341189D01*
Y4340689D01*
X4992869Y4485189D02*
Y4488188D01*
X4994368D01*
X4994868Y4487688D01*
Y4486689D01*
X4994368Y4486189D01*
X4992869D01*
X4993868D02*
X4994868Y4485189D01*
X4995868Y4487688D02*
X4996368Y4488188D01*
X4997367D01*
X4997867Y4487688D01*
Y4487188D01*
X4997367Y4486689D01*
X4996867D01*
X4997367D01*
X4997867Y4486189D01*
Y4485689D01*
X4997367Y4485189D01*
X4996368D01*
X4995868Y4485689D01*
X4998867Y4488188D02*
X5000866D01*
Y4487688D01*
X4998867Y4485689D01*
Y4485189D01*
X5038219Y4521689D02*
Y4524688D01*
X5039718D01*
X5040218Y4524188D01*
Y4523188D01*
X5039718Y4522689D01*
X5038219D01*
X5039219D02*
X5040218Y4521689D01*
X5041218Y4524188D02*
X5041718Y4524688D01*
X5042717D01*
X5043217Y4524188D01*
Y4523689D01*
X5042717Y4523188D01*
X5042218D01*
X5042717D01*
X5043217Y4522689D01*
Y4522189D01*
X5042717Y4521689D01*
X5041718D01*
X5041218Y4522189D01*
X5046216Y4524688D02*
X5044217D01*
Y4523188D01*
X5045216Y4523689D01*
X5045716D01*
X5046216Y4523188D01*
Y4522189D01*
X5045716Y4521689D01*
X5044717D01*
X5044217Y4522189D01*
X5004869Y4465189D02*
Y4468188D01*
X5006368D01*
X5006868Y4467688D01*
Y4466689D01*
X5006368Y4466189D01*
X5004869D01*
X5005869D02*
X5006868Y4465189D01*
X5009867D02*
X5007868D01*
X5009867Y4467188D01*
Y4467688D01*
X5009367Y4468188D01*
X5008368D01*
X5007868Y4467688D01*
X5010867Y4465689D02*
X5011367Y4465189D01*
X5012366D01*
X5012866Y4465689D01*
Y4467688D01*
X5012366Y4468188D01*
X5011367D01*
X5010867Y4467688D01*
Y4467188D01*
X5011367Y4466689D01*
X5012866D01*
X4999619Y4483189D02*
X5002618D01*
Y4481689D01*
X5002118Y4481190D01*
X5001118D01*
X5000618Y4481689D01*
Y4483189D01*
Y4482189D02*
X4999619Y4481190D01*
Y4478191D02*
Y4480190D01*
X5001618Y4478191D01*
X5002118D01*
X5002618Y4478690D01*
Y4479690D01*
X5002118Y4480190D01*
Y4477191D02*
X5002618Y4476691D01*
Y4475691D01*
X5002118Y4475191D01*
X5001618D01*
X5001118Y4475691D01*
X5000618Y4475191D01*
X5000119D01*
X4999619Y4475691D01*
Y4476691D01*
X5000119Y4477191D01*
X5000618D01*
X5001118Y4476691D01*
X5001618Y4477191D01*
X5002118D01*
X5001118Y4476691D02*
Y4475691D01*
X5013869Y4497689D02*
X5016868D01*
Y4496189D01*
X5016368Y4495690D01*
X5015368D01*
X5014869Y4496189D01*
Y4497689D01*
Y4496689D02*
X5013869Y4495690D01*
Y4492691D02*
Y4494690D01*
X5015868Y4492691D01*
X5016368D01*
X5016868Y4493190D01*
Y4494190D01*
X5016368Y4494690D01*
X5016868Y4491691D02*
Y4489692D01*
X5016368D01*
X5014368Y4491691D01*
X5013869D01*
X5030869Y4454189D02*
Y4457188D01*
X5032368D01*
X5032868Y4456688D01*
Y4455688D01*
X5032368Y4455189D01*
X5030869D01*
X5031868D02*
X5032868Y4454189D01*
X5035867D02*
X5033868D01*
X5035867Y4456188D01*
Y4456688D01*
X5035367Y4457188D01*
X5034368D01*
X5033868Y4456688D01*
X5038866Y4457188D02*
X5036867D01*
Y4455688D01*
X5037867Y4456188D01*
X5038366D01*
X5038866Y4455688D01*
Y4454689D01*
X5038366Y4454189D01*
X5037366D01*
X5036867Y4454689D01*
X5044387Y4454189D02*
Y4457188D01*
X5045886D01*
X5046386Y4456688D01*
Y4455688D01*
X5045886Y4455189D01*
X5044387D01*
X5045387D02*
X5046386Y4454189D01*
X5049385D02*
X5047386D01*
X5049385Y4456188D01*
Y4456688D01*
X5048885Y4457188D01*
X5047886D01*
X5047386Y4456688D01*
X5051884Y4454189D02*
Y4457188D01*
X5050385Y4455688D01*
X5052384D01*
X4972475Y4465689D02*
X4974474D01*
X4974974Y4466190D01*
Y4467189D01*
X4974474Y4467689D01*
X4972475D01*
X4971975Y4467189D01*
Y4466190D01*
X4972975Y4466689D02*
X4971975Y4465689D01*
Y4466190D02*
X4972475Y4465689D01*
X4971975Y4462691D02*
Y4464690D01*
X4973974Y4462691D01*
X4974474D01*
X4974974Y4463190D01*
Y4464190D01*
X4974474Y4464690D01*
X4974974Y4459692D02*
X4974474Y4460691D01*
X4973475Y4461691D01*
X4972475D01*
X4971975Y4461191D01*
Y4460191D01*
X4972475Y4459692D01*
X4972975D01*
X4973475Y4460191D01*
Y4461691D01*
X4952868Y4486689D02*
Y4488688D01*
X4952368Y4489188D01*
X4951369D01*
X4950869Y4488688D01*
Y4486689D01*
X4951369Y4486189D01*
X4952368D01*
X4951868Y4487189D02*
X4952868Y4486189D01*
X4952368D02*
X4952868Y4486689D01*
X4955867Y4486189D02*
X4953868D01*
X4955867Y4488188D01*
Y4488688D01*
X4955367Y4489188D01*
X4954367D01*
X4953868Y4488688D01*
X4958366Y4486189D02*
Y4489188D01*
X4956867Y4487688D01*
X4958866D01*
X5055269Y4513589D02*
Y4516588D01*
X5056268Y4515588D01*
X5057268Y4516588D01*
Y4513589D01*
X5058268Y4516088D02*
X5058768Y4516588D01*
X5059767D01*
X5060267Y4516088D01*
Y4515588D01*
X5059767Y4515089D01*
X5059267D01*
X5059767D01*
X5060267Y4514589D01*
Y4514089D01*
X5059767Y4513589D01*
X5058768D01*
X5058268Y4514089D01*
X5005023Y4208912D02*
Y4211911D01*
X5006022Y4210912D01*
X5007022Y4211911D01*
Y4208912D01*
X5010021D02*
X5008022D01*
X5010021Y4210912D01*
Y4211411D01*
X5009521Y4211911D01*
X5008522D01*
X5008022Y4211411D01*
X4664269Y4212789D02*
Y4215788D01*
X4665268Y4214788D01*
X4666268Y4215788D01*
Y4212789D01*
X4667268D02*
X4668267D01*
X4667768D01*
Y4215788D01*
X4667268Y4215288D01*
X4722869Y4273188D02*
Y4270189D01*
X4724868D01*
X4725868Y4272688D02*
X4726368Y4273188D01*
X4727367D01*
X4727867Y4272688D01*
Y4272188D01*
X4727367Y4271688D01*
X4726867D01*
X4727367D01*
X4727867Y4271189D01*
Y4270689D01*
X4727367Y4270189D01*
X4726368D01*
X4725868Y4270689D01*
X4728867Y4272688D02*
X4729367Y4273188D01*
X4730366D01*
X4730866Y4272688D01*
Y4272188D01*
X4730366Y4271688D01*
X4730866Y4271189D01*
Y4270689D01*
X4730366Y4270189D01*
X4729367D01*
X4728867Y4270689D01*
Y4271189D01*
X4729367Y4271688D01*
X4728867Y4272188D01*
Y4272688D01*
X4729367Y4271688D02*
X4730366D01*
X4940869Y4271928D02*
Y4268929D01*
X4942868D01*
X4943868D02*
X4944867D01*
X4944368D01*
Y4271928D01*
X4943868Y4271428D01*
X4946367D02*
X4946867Y4271928D01*
X4947866D01*
X4948366Y4271428D01*
Y4270928D01*
X4947866Y4270428D01*
X4948366Y4269928D01*
Y4269428D01*
X4947866Y4268929D01*
X4946867D01*
X4946367Y4269428D01*
Y4269928D01*
X4946867Y4270428D01*
X4946367Y4270928D01*
Y4271428D01*
X4946867Y4270428D02*
X4947866D01*
X4920369Y4484688D02*
Y4481689D01*
X4922368D01*
X4923368D02*
X4924368D01*
X4923867D01*
Y4484688D01*
X4923368Y4484188D01*
X4925867Y4484688D02*
X4927866D01*
Y4484188D01*
X4925867Y4482189D01*
Y4481689D01*
X4944869Y4504688D02*
Y4501689D01*
X4946868D01*
X4947868D02*
X4948867D01*
X4948368D01*
Y4504688D01*
X4947868Y4504188D01*
X4950367D02*
X4950867Y4504688D01*
X4951867D01*
X4952366Y4504188D01*
Y4502189D01*
X4951867Y4501689D01*
X4950867D01*
X4950367Y4502189D01*
Y4504188D01*
X4985369Y4497188D02*
Y4494189D01*
X4987368D01*
X4988368Y4496688D02*
X4988868Y4497188D01*
X4989867D01*
X4990367Y4496688D01*
Y4496188D01*
X4989867Y4495689D01*
X4990367Y4495189D01*
Y4494689D01*
X4989867Y4494189D01*
X4988868D01*
X4988368Y4494689D01*
Y4495189D01*
X4988868Y4495689D01*
X4988368Y4496188D01*
Y4496688D01*
X4988868Y4495689D02*
X4989867D01*
X4708869Y4430188D02*
Y4427189D01*
X4710868D01*
X4713367D02*
Y4430188D01*
X4711868Y4428688D01*
X4713867D01*
X4786369Y4439688D02*
Y4436689D01*
X4788368D01*
X4789368Y4439188D02*
X4789868Y4439688D01*
X4790867D01*
X4791367Y4439188D01*
Y4438688D01*
X4790867Y4438189D01*
X4790368D01*
X4790867D01*
X4791367Y4437689D01*
Y4437189D01*
X4790867Y4436689D01*
X4789868D01*
X4789368Y4437189D01*
X4824869Y4440688D02*
Y4437689D01*
X4826868D01*
X4829867D02*
X4827868D01*
X4829867Y4439688D01*
Y4440188D01*
X4829367Y4440688D01*
X4828368D01*
X4827868Y4440188D01*
X4856869Y4440688D02*
Y4437689D01*
X4858868D01*
X4859868D02*
X4860867D01*
X4860368D01*
Y4440688D01*
X4859868Y4440188D01*
X4757868Y4223188D02*
X4755869D01*
Y4221688D01*
X4756868D01*
X4755869D01*
Y4220189D01*
X4758868Y4223188D02*
Y4220189D01*
X4760367D01*
X4760867Y4220689D01*
Y4221189D01*
X4760367Y4221688D01*
X4758868D01*
X4760367D01*
X4760867Y4222188D01*
Y4222688D01*
X4760367Y4223188D01*
X4758868D01*
X4761867Y4222688D02*
X4762366Y4223188D01*
X4763366D01*
X4763866Y4222688D01*
Y4222188D01*
X4763366Y4221688D01*
X4762867D01*
X4763366D01*
X4763866Y4221189D01*
Y4220689D01*
X4763366Y4220189D01*
X4762366D01*
X4761867Y4220689D01*
X4692369Y4448688D02*
Y4445689D01*
X4693868D01*
X4694368Y4446189D01*
Y4448188D01*
X4693868Y4448688D01*
X4692369D01*
X4695368Y4445689D02*
X4696367D01*
X4695868D01*
Y4448688D01*
X4695368Y4448188D01*
X4699366Y4445689D02*
Y4448688D01*
X4697867Y4447189D01*
X4699866D01*
X4801263Y4455188D02*
Y4452189D01*
X4802762D01*
X4803262Y4452689D01*
Y4454688D01*
X4802762Y4455188D01*
X4801263D01*
X4804261Y4452189D02*
X4805261D01*
X4804762D01*
Y4455188D01*
X4804261Y4454688D01*
X4806761D02*
X4807261Y4455188D01*
X4808260D01*
X4808760Y4454688D01*
Y4454188D01*
X4808260Y4453688D01*
X4807760D01*
X4808260D01*
X4808760Y4453189D01*
Y4452689D01*
X4808260Y4452189D01*
X4807261D01*
X4806761Y4452689D01*
X4835869Y4455188D02*
Y4452189D01*
X4837368D01*
X4837868Y4452689D01*
Y4454688D01*
X4837368Y4455188D01*
X4835869D01*
X4838868Y4452189D02*
X4839867D01*
X4839368D01*
Y4455188D01*
X4838868Y4454688D01*
X4843366Y4452189D02*
X4841367D01*
X4843366Y4454188D01*
Y4454688D01*
X4842867Y4455188D01*
X4841867D01*
X4841367Y4454688D01*
X4866369Y4455188D02*
Y4452189D01*
X4867868D01*
X4868368Y4452689D01*
Y4454688D01*
X4867868Y4455188D01*
X4866369D01*
X4869368Y4452189D02*
X4870367D01*
X4869868D01*
Y4455188D01*
X4869368Y4454688D01*
X4871867D02*
X4872367Y4455188D01*
X4873367D01*
X4873866Y4454688D01*
Y4452689D01*
X4873367Y4452189D01*
X4872367D01*
X4871867Y4452689D01*
Y4454688D01*
X4710870Y4288189D02*
X4713869D01*
Y4289688D01*
X4713369Y4290188D01*
X4711369D01*
X4710870Y4289688D01*
Y4288189D01*
X4713369Y4291188D02*
X4713869Y4291688D01*
Y4292688D01*
X4713369Y4293187D01*
X4711369D01*
X4710870Y4292688D01*
Y4291688D01*
X4711369Y4291188D01*
X4711869D01*
X4712369Y4291688D01*
Y4293187D01*
X4679370Y4288689D02*
X4682369D01*
Y4290189D01*
X4681869Y4290688D01*
X4679869D01*
X4679370Y4290189D01*
Y4288689D01*
X4679869Y4291688D02*
X4679370Y4292188D01*
Y4293187D01*
X4679869Y4293687D01*
X4680370D01*
X4680869Y4293187D01*
X4681369Y4293687D01*
X4681869D01*
X4682369Y4293187D01*
Y4292188D01*
X4681869Y4291688D01*
X4681369D01*
X4680869Y4292188D01*
X4680370Y4291688D01*
X4679869D01*
X4680869Y4292188D02*
Y4293187D01*
X4900868Y4342688D02*
X4900368Y4343188D01*
X4899369D01*
X4898869Y4342688D01*
Y4340689D01*
X4899369Y4340189D01*
X4900368D01*
X4900868Y4340689D01*
X4903867Y4343188D02*
X4901868D01*
Y4340189D01*
X4903867D01*
X4901868Y4341689D02*
X4902868D01*
X4906866Y4343188D02*
X4904867D01*
Y4341689D01*
X4905867Y4342188D01*
X4906366D01*
X4906866Y4341689D01*
Y4340689D01*
X4906366Y4340189D01*
X4905367D01*
X4904867Y4340689D01*
X4885368Y4379188D02*
X4884868Y4379688D01*
X4883869D01*
X4883369Y4379188D01*
Y4377189D01*
X4883869Y4376689D01*
X4884868D01*
X4885368Y4377189D01*
X4888367Y4379688D02*
X4886368D01*
Y4376689D01*
X4888367D01*
X4886368Y4378188D02*
X4887367D01*
X4891366Y4376689D02*
X4889367D01*
X4891366Y4378688D01*
Y4379188D01*
X4890866Y4379688D01*
X4889867D01*
X4889367Y4379188D01*
X4994868Y4496188D02*
X4994368Y4496688D01*
X4993369D01*
X4992869Y4496188D01*
Y4494189D01*
X4993369Y4493689D01*
X4994368D01*
X4994868Y4494189D01*
X4997867Y4496688D02*
X4995868D01*
Y4493689D01*
X4997867D01*
X4995868Y4495189D02*
X4996867D01*
X4998867Y4493689D02*
X4999866D01*
X4999367D01*
Y4496688D01*
X4998867Y4496188D01*
X4684868Y4275538D02*
X4684368Y4276038D01*
X4683369D01*
X4682869Y4275538D01*
Y4273539D01*
X4683369Y4273039D01*
X4684368D01*
X4684868Y4273539D01*
X4685868Y4273039D02*
X4686868D01*
X4686367D01*
Y4276038D01*
X4685868Y4275538D01*
X4688367D02*
X4688867Y4276038D01*
X4689867D01*
X4690366Y4275538D01*
Y4275038D01*
X4689867Y4274538D01*
X4689367D01*
X4689867D01*
X4690366Y4274039D01*
Y4273539D01*
X4689867Y4273039D01*
X4688867D01*
X4688367Y4273539D01*
X4692865Y4273039D02*
Y4276038D01*
X4691366Y4274538D01*
X4693365D01*
X4694365Y4273039D02*
X4695365D01*
X4694865D01*
Y4276038D01*
X4694365Y4275538D01*
X4702368D02*
X4701868Y4276038D01*
X4700869D01*
X4700369Y4275538D01*
Y4273539D01*
X4700869Y4273039D01*
X4701868D01*
X4702368Y4273539D01*
X4703368Y4273039D02*
X4704367D01*
X4703868D01*
Y4276038D01*
X4703368Y4275538D01*
X4705867D02*
X4706367Y4276038D01*
X4707367D01*
X4707866Y4275538D01*
Y4275038D01*
X4707367Y4274538D01*
X4706866D01*
X4707367D01*
X4707866Y4274039D01*
Y4273539D01*
X4707367Y4273039D01*
X4706367D01*
X4705867Y4273539D01*
X4710366Y4273039D02*
Y4276038D01*
X4708866Y4274538D01*
X4710865D01*
X4711865Y4275538D02*
X4712365Y4276038D01*
X4713364D01*
X4713865Y4275538D01*
Y4273539D01*
X4713364Y4273039D01*
X4712365D01*
X4711865Y4273539D01*
Y4275538D01*
X4913868Y4478188D02*
X4913368Y4478688D01*
X4912369D01*
X4911869Y4478188D01*
Y4476189D01*
X4912369Y4475689D01*
X4913368D01*
X4913868Y4476189D01*
X4914868Y4475689D02*
X4915867D01*
X4915368D01*
Y4478688D01*
X4914868Y4478188D01*
X4917367D02*
X4917867Y4478688D01*
X4918866D01*
X4919366Y4478188D01*
Y4477688D01*
X4918866Y4477188D01*
X4918367D01*
X4918866D01*
X4919366Y4476689D01*
Y4476189D01*
X4918866Y4475689D01*
X4917867D01*
X4917367Y4476189D01*
X4920366Y4478188D02*
X4920866Y4478688D01*
X4921865D01*
X4922365Y4478188D01*
Y4477688D01*
X4921865Y4477188D01*
X4921366D01*
X4921865D01*
X4922365Y4476689D01*
Y4476189D01*
X4921865Y4475689D01*
X4920866D01*
X4920366Y4476189D01*
X4924865Y4475689D02*
Y4478688D01*
X4923365Y4477188D01*
X4925364D01*
X4945368Y4524188D02*
X4944868Y4524688D01*
X4943869D01*
X4943369Y4524188D01*
Y4522189D01*
X4943869Y4521689D01*
X4944868D01*
X4945368Y4522189D01*
X4946368Y4521689D02*
X4947367D01*
X4946868D01*
Y4524688D01*
X4946368Y4524188D01*
X4948867D02*
X4949367Y4524688D01*
X4950367D01*
X4950866Y4524188D01*
Y4523688D01*
X4950367Y4523188D01*
X4949866D01*
X4950367D01*
X4950866Y4522689D01*
Y4522189D01*
X4950367Y4521689D01*
X4949367D01*
X4948867Y4522189D01*
X4951866Y4524188D02*
X4952366Y4524688D01*
X4953365D01*
X4953865Y4524188D01*
Y4523688D01*
X4953365Y4523188D01*
X4952866D01*
X4953365D01*
X4953865Y4522689D01*
Y4522189D01*
X4953365Y4521689D01*
X4952366D01*
X4951866Y4522189D01*
X4954865Y4524188D02*
X4955365Y4524688D01*
X4956364D01*
X4956865Y4524188D01*
Y4523688D01*
X4956364Y4523188D01*
X4955865D01*
X4956364D01*
X4956865Y4522689D01*
Y4522189D01*
X4956364Y4521689D01*
X4955365D01*
X4954865Y4522189D01*
X4867368Y4301838D02*
X4866868Y4302338D01*
X4865869D01*
X4865369Y4301838D01*
Y4299839D01*
X4865869Y4299339D01*
X4866868D01*
X4867368Y4299839D01*
X4868368Y4299339D02*
X4869367D01*
X4868867D01*
Y4302338D01*
X4868368Y4301838D01*
X4870867D02*
X4871367Y4302338D01*
X4872366D01*
X4872866Y4301838D01*
Y4301338D01*
X4872366Y4300838D01*
X4871867D01*
X4872366D01*
X4872866Y4300339D01*
Y4299839D01*
X4872366Y4299339D01*
X4871367D01*
X4870867Y4299839D01*
X4875865Y4299339D02*
X4873866D01*
X4875865Y4301338D01*
Y4301838D01*
X4875365Y4302338D01*
X4874366D01*
X4873866Y4301838D01*
X4876865D02*
X4877365Y4302338D01*
X4878365D01*
X4878864Y4301838D01*
Y4301338D01*
X4878365Y4300838D01*
X4878864Y4300339D01*
Y4299839D01*
X4878365Y4299339D01*
X4877365D01*
X4876865Y4299839D01*
Y4300339D01*
X4877365Y4300838D01*
X4876865Y4301338D01*
Y4301838D01*
X4877365Y4300838D02*
X4878365D01*
X4840368Y4298188D02*
X4839868Y4298688D01*
X4838869D01*
X4838369Y4298188D01*
Y4296189D01*
X4838869Y4295689D01*
X4839868D01*
X4840368Y4296189D01*
X4841368Y4295689D02*
X4842368D01*
X4841867D01*
Y4298688D01*
X4841368Y4298188D01*
X4843867D02*
X4844367Y4298688D01*
X4845367D01*
X4845866Y4298188D01*
Y4297688D01*
X4845367Y4297189D01*
X4844867D01*
X4845367D01*
X4845866Y4296689D01*
Y4296189D01*
X4845367Y4295689D01*
X4844367D01*
X4843867Y4296189D01*
X4848865Y4295689D02*
X4846866D01*
X4848865Y4297688D01*
Y4298188D01*
X4848365Y4298688D01*
X4847366D01*
X4846866Y4298188D01*
X4849865Y4298688D02*
X4851864D01*
Y4298188D01*
X4849865Y4296189D01*
Y4295689D01*
X4843518Y4253688D02*
X4843018Y4254188D01*
X4842019D01*
X4841519Y4253688D01*
Y4251689D01*
X4842019Y4251189D01*
X4843018D01*
X4843518Y4251689D01*
X4844518Y4253688D02*
X4845018Y4254188D01*
X4846017D01*
X4846517Y4253688D01*
Y4253188D01*
X4846017Y4252689D01*
X4845517D01*
X4846017D01*
X4846517Y4252189D01*
Y4251689D01*
X4846017Y4251189D01*
X4845018D01*
X4844518Y4251689D01*
X4849016Y4251189D02*
Y4254188D01*
X4847517Y4252689D01*
X4849516D01*
X4850516Y4253688D02*
X4851016Y4254188D01*
X4852015D01*
X4852515Y4253688D01*
Y4253188D01*
X4852015Y4252689D01*
X4851516D01*
X4852015D01*
X4852515Y4252189D01*
Y4251689D01*
X4852015Y4251189D01*
X4851016D01*
X4850516Y4251689D01*
X4731368Y4258688D02*
X4730868Y4259188D01*
X4729869D01*
X4729369Y4258688D01*
Y4256689D01*
X4729869Y4256189D01*
X4730868D01*
X4731368Y4256689D01*
X4734367Y4256189D02*
X4732368D01*
X4734367Y4258188D01*
Y4258688D01*
X4733867Y4259188D01*
X4732867D01*
X4732368Y4258688D01*
X4735367Y4259188D02*
X4737366D01*
Y4258688D01*
X4735367Y4256689D01*
Y4256189D01*
X4740365Y4259188D02*
X4739365Y4258688D01*
X4738366Y4257689D01*
Y4256689D01*
X4738866Y4256189D01*
X4739865D01*
X4740365Y4256689D01*
Y4257189D01*
X4739865Y4257689D01*
X4738366D01*
X4762868Y4308188D02*
X4762368Y4308688D01*
X4761369D01*
X4760869Y4308188D01*
Y4306189D01*
X4761369Y4305689D01*
X4762368D01*
X4762868Y4306189D01*
X4765867Y4305689D02*
X4763868D01*
X4765867Y4307688D01*
Y4308188D01*
X4765367Y4308688D01*
X4764368D01*
X4763868Y4308188D01*
X4766867Y4308688D02*
X4768866D01*
Y4308188D01*
X4766867Y4306189D01*
Y4305689D01*
X4771865Y4308688D02*
X4769866D01*
Y4307188D01*
X4770866Y4307688D01*
X4771365D01*
X4771865Y4307188D01*
Y4306189D01*
X4771365Y4305689D01*
X4770366D01*
X4769866Y4306189D01*
X4982368Y4479190D02*
X4982868Y4479689D01*
Y4480689D01*
X4982368Y4481189D01*
X4980368D01*
X4979869Y4480689D01*
Y4479689D01*
X4980368Y4479190D01*
X4979869Y4476191D02*
Y4478190D01*
X4981868Y4476191D01*
X4982368D01*
X4982868Y4476690D01*
Y4477690D01*
X4982368Y4478190D01*
X4982868Y4475191D02*
Y4473191D01*
X4982368D01*
X4980368Y4475191D01*
X4979869D01*
X4982368Y4472192D02*
X4982868Y4471692D01*
Y4470692D01*
X4982368Y4470192D01*
X4981868D01*
X4981368Y4470692D01*
Y4471192D01*
Y4470692D01*
X4980869Y4470192D01*
X4980368D01*
X4979869Y4470692D01*
Y4471692D01*
X4980368Y4472192D01*
X4772868Y4296040D02*
X4773368Y4296540D01*
Y4297539D01*
X4772868Y4298039D01*
X4770869D01*
X4770369Y4297539D01*
Y4296540D01*
X4770869Y4296040D01*
X4770369Y4293040D02*
Y4295040D01*
X4772368Y4293040D01*
X4772868D01*
X4773368Y4293541D01*
Y4294540D01*
X4772868Y4295040D01*
X4773368Y4292041D02*
Y4290042D01*
X4772868D01*
X4770869Y4292041D01*
X4770369D01*
Y4287043D02*
Y4289042D01*
X4772368Y4287043D01*
X4772868D01*
X4773368Y4287542D01*
Y4288542D01*
X4772868Y4289042D01*
X4761218Y4240188D02*
X4760718Y4240688D01*
X4759719D01*
X4759219Y4240188D01*
Y4238189D01*
X4759719Y4237689D01*
X4760718D01*
X4761218Y4238189D01*
X4764217Y4237689D02*
X4762218D01*
X4764217Y4239688D01*
Y4240188D01*
X4763717Y4240688D01*
X4762717D01*
X4762218Y4240188D01*
X4765217Y4240688D02*
X4767216D01*
Y4240188D01*
X4765217Y4238189D01*
Y4237689D01*
X4768216D02*
X4769215D01*
X4768716D01*
Y4240688D01*
X4768216Y4240188D01*
X4762868Y4233188D02*
X4762368Y4233688D01*
X4761369D01*
X4760869Y4233188D01*
Y4231189D01*
X4761369Y4230689D01*
X4762368D01*
X4762868Y4231189D01*
X4765867Y4230689D02*
X4763868D01*
X4765867Y4232688D01*
Y4233188D01*
X4765367Y4233688D01*
X4764368D01*
X4763868Y4233188D01*
X4766867Y4233688D02*
X4768866D01*
Y4233188D01*
X4766867Y4231189D01*
Y4230689D01*
X4769866Y4233188D02*
X4770366Y4233688D01*
X4771365D01*
X4771865Y4233188D01*
Y4231189D01*
X4771365Y4230689D01*
X4770366D01*
X4769866Y4231189D01*
Y4233188D01*
X5003868Y4497188D02*
X5003368Y4497688D01*
X5002369D01*
X5001869Y4497188D01*
Y4495189D01*
X5002369Y4494689D01*
X5003368D01*
X5003868Y4495189D01*
X5006867Y4494689D02*
X5004868D01*
X5006867Y4496688D01*
Y4497188D01*
X5006367Y4497688D01*
X5005368D01*
X5004868Y4497188D01*
X5009866Y4497688D02*
X5007867D01*
Y4496188D01*
X5008867Y4496688D01*
X5009366D01*
X5009866Y4496188D01*
Y4495189D01*
X5009366Y4494689D01*
X5008367D01*
X5007867Y4495189D01*
X5010866Y4494689D02*
X5011866D01*
X5011366D01*
Y4497688D01*
X5010866Y4497188D01*
X5033368Y4272688D02*
X5032868Y4273188D01*
X5031869D01*
X5031369Y4272688D01*
Y4270689D01*
X5031869Y4270189D01*
X5032868D01*
X5033368Y4270689D01*
X5034368Y4270189D02*
X5035368D01*
X5034867D01*
Y4273188D01*
X5034368Y4272688D01*
X5036867Y4270189D02*
X5037867D01*
X5037367D01*
Y4273188D01*
X5036867Y4272688D01*
X5039366Y4273188D02*
X5041365D01*
Y4272688D01*
X5039366Y4270689D01*
Y4270189D01*
X5028368Y4273190D02*
X5028868Y4273690D01*
Y4274689D01*
X5028368Y4275189D01*
X5026369D01*
X5025869Y4274689D01*
Y4273690D01*
X5026369Y4273190D01*
X5025869Y4272190D02*
Y4271190D01*
Y4271690D01*
X5028868D01*
X5028368Y4272190D01*
X5025869Y4269691D02*
Y4268691D01*
Y4269191D01*
X5028868D01*
X5028368Y4269691D01*
X5028868Y4265192D02*
X5028368Y4266192D01*
X5027368Y4267192D01*
X5026369D01*
X5025869Y4266692D01*
Y4265692D01*
X5026369Y4265192D01*
X5026868D01*
X5027368Y4265692D01*
Y4267192D01*
X4865368Y4366188D02*
X4864868Y4366688D01*
X4863869D01*
X4863369Y4366188D01*
Y4364189D01*
X4863869Y4363689D01*
X4864868D01*
X4865368Y4364189D01*
X4866368Y4363689D02*
X4867368D01*
X4866867D01*
Y4366688D01*
X4866368Y4366188D01*
X4868867D02*
X4869367Y4366688D01*
X4870367D01*
X4870866Y4366188D01*
Y4364189D01*
X4870367Y4363689D01*
X4869367D01*
X4868867Y4364189D01*
Y4366188D01*
X4871866Y4366688D02*
X4873865D01*
Y4366188D01*
X4871866Y4364189D01*
Y4363689D01*
X5040368Y4330688D02*
X5039868Y4331188D01*
X5038869D01*
X5038369Y4330688D01*
Y4328689D01*
X5038869Y4328189D01*
X5039868D01*
X5040368Y4328689D01*
X5041368Y4328189D02*
X5042368D01*
X5041867D01*
Y4331188D01*
X5041368Y4330688D01*
X5043867D02*
X5044367Y4331188D01*
X5045367D01*
X5045866Y4330688D01*
Y4328689D01*
X5045367Y4328189D01*
X5044367D01*
X5043867Y4328689D01*
Y4330688D01*
X5048865Y4331188D02*
X5046866D01*
Y4329689D01*
X5047866Y4330188D01*
X5048365D01*
X5048865Y4329689D01*
Y4328689D01*
X5048365Y4328189D01*
X5047366D01*
X5046866Y4328689D01*
X4689868Y4385188D02*
X4689368Y4385688D01*
X4688369D01*
X4687869Y4385188D01*
Y4383189D01*
X4688369Y4382689D01*
X4689368D01*
X4689868Y4383189D01*
X4690868Y4382689D02*
X4691867D01*
X4691368D01*
Y4385688D01*
X4690868Y4385188D01*
X4693367D02*
X4693867Y4385688D01*
X4694867D01*
X4695366Y4385188D01*
Y4383189D01*
X4694867Y4382689D01*
X4693867D01*
X4693367Y4383189D01*
Y4385188D01*
X4697866Y4382689D02*
Y4385688D01*
X4696366Y4384188D01*
X4698365D01*
X4689368Y4462188D02*
X4688868Y4462688D01*
X4687868D01*
X4687369Y4462188D01*
Y4460189D01*
X4687868Y4459689D01*
X4688868D01*
X4689368Y4460189D01*
X4690368Y4459689D02*
X4691367D01*
X4690868D01*
Y4462688D01*
X4690368Y4462188D01*
X4692867D02*
X4693367Y4462688D01*
X4694366D01*
X4694866Y4462188D01*
Y4460189D01*
X4694366Y4459689D01*
X4693367D01*
X4692867Y4460189D01*
Y4462188D01*
X4697865Y4459689D02*
X4695866D01*
X4697865Y4461688D01*
Y4462188D01*
X4697366Y4462688D01*
X4696366D01*
X4695866Y4462188D01*
X4698868Y4437690D02*
X4699368Y4438189D01*
Y4439189D01*
X4698868Y4439689D01*
X4696869D01*
X4696369Y4439189D01*
Y4438189D01*
X4696869Y4437690D01*
X4696369Y4436690D02*
Y4435690D01*
Y4436190D01*
X4699368D01*
X4698868Y4436690D01*
Y4434191D02*
X4699368Y4433691D01*
Y4432691D01*
X4698868Y4432191D01*
X4696869D01*
X4696369Y4432691D01*
Y4433691D01*
X4696869Y4434191D01*
X4698868D01*
X4696369Y4431192D02*
Y4430192D01*
Y4430692D01*
X4699368D01*
X4698868Y4431192D01*
X4854868Y4217142D02*
X4854368Y4217641D01*
X4853369D01*
X4852869Y4217142D01*
Y4215142D01*
X4853369Y4214642D01*
X4854368D01*
X4854868Y4215142D01*
X4855868Y4214642D02*
X4856868D01*
X4856368D01*
Y4217641D01*
X4855868Y4217142D01*
X4858367D02*
X4858867Y4217641D01*
X4859866D01*
X4860366Y4217142D01*
Y4215142D01*
X4859866Y4214642D01*
X4858867D01*
X4858367Y4215142D01*
Y4217142D01*
X4861366D02*
X4861866Y4217641D01*
X4862865D01*
X4863366Y4217142D01*
Y4215142D01*
X4862865Y4214642D01*
X4861866D01*
X4861366Y4215142D01*
Y4217142D01*
X4803368Y4299688D02*
X4802868Y4300188D01*
X4801868D01*
X4801369Y4299688D01*
Y4297689D01*
X4801868Y4297189D01*
X4802868D01*
X4803368Y4297689D01*
X4804368D02*
X4804868Y4297189D01*
X4805867D01*
X4806367Y4297689D01*
Y4299688D01*
X4805867Y4300188D01*
X4804868D01*
X4804368Y4299688D01*
Y4299188D01*
X4804868Y4298689D01*
X4806367D01*
X4807367Y4299688D02*
X4807867Y4300188D01*
X4808866D01*
X4809366Y4299688D01*
Y4299188D01*
X4808866Y4298689D01*
X4809366Y4298189D01*
Y4297689D01*
X4808866Y4297189D01*
X4807867D01*
X4807367Y4297689D01*
Y4298189D01*
X4807867Y4298689D01*
X4807367Y4299188D01*
Y4299688D01*
X4807867Y4298689D02*
X4808866D01*
X4725368Y4430188D02*
X4724868Y4430688D01*
X4723869D01*
X4723369Y4430188D01*
Y4428189D01*
X4723869Y4427689D01*
X4724868D01*
X4725368Y4428189D01*
X4726368D02*
X4726868Y4427689D01*
X4727867D01*
X4728367Y4428189D01*
Y4430188D01*
X4727867Y4430688D01*
X4726868D01*
X4726368Y4430188D01*
Y4429688D01*
X4726868Y4429189D01*
X4728367D01*
X4731366Y4430688D02*
X4729367D01*
Y4429189D01*
X4730367Y4429688D01*
X4730866D01*
X4731366Y4429189D01*
Y4428189D01*
X4730866Y4427689D01*
X4729866D01*
X4729367Y4428189D01*
X4774963Y4430188D02*
X4774463Y4430688D01*
X4773463D01*
X4772963Y4430188D01*
Y4428189D01*
X4773463Y4427689D01*
X4774463D01*
X4774963Y4428189D01*
X4775962D02*
X4776462Y4427689D01*
X4777462D01*
X4777962Y4428189D01*
Y4430188D01*
X4777462Y4430688D01*
X4776462D01*
X4775962Y4430188D01*
Y4429688D01*
X4776462Y4429189D01*
X4777962D01*
X4780461Y4427689D02*
Y4430688D01*
X4778961Y4429189D01*
X4780960D01*
X4721368Y4397689D02*
X4721868Y4398190D01*
Y4399189D01*
X4721368Y4399689D01*
X4719369D01*
X4718869Y4399189D01*
Y4398190D01*
X4719369Y4397689D01*
Y4396690D02*
X4718869Y4396190D01*
Y4395190D01*
X4719369Y4394691D01*
X4721368D01*
X4721868Y4395190D01*
Y4396190D01*
X4721368Y4396690D01*
X4720868D01*
X4720368Y4396190D01*
Y4394691D01*
X4718869Y4391692D02*
Y4393691D01*
X4720868Y4391692D01*
X4721368D01*
X4721868Y4392191D01*
Y4393191D01*
X4721368Y4393691D01*
X4777368Y4390688D02*
X4776868Y4391188D01*
X4775869D01*
X4775369Y4390688D01*
Y4388689D01*
X4775869Y4388189D01*
X4776868D01*
X4777368Y4388689D01*
X4778368D02*
X4778868Y4388189D01*
X4779867D01*
X4780367Y4388689D01*
Y4390688D01*
X4779867Y4391188D01*
X4778868D01*
X4778368Y4390688D01*
Y4390188D01*
X4778868Y4389688D01*
X4780367D01*
X4781367Y4388189D02*
X4782367D01*
X4781866D01*
Y4391188D01*
X4781367Y4390688D01*
X5045868Y4303188D02*
X5045368Y4303688D01*
X5044369D01*
X5043869Y4303188D01*
Y4301189D01*
X5044369Y4300689D01*
X5045368D01*
X5045868Y4301189D01*
X5046868D02*
X5047367Y4300689D01*
X5048367D01*
X5048867Y4301189D01*
Y4303188D01*
X5048367Y4303688D01*
X5047367D01*
X5046868Y4303188D01*
Y4302688D01*
X5047367Y4302188D01*
X5048867D01*
X5049867Y4303188D02*
X5050367Y4303688D01*
X5051366D01*
X5051866Y4303188D01*
Y4301189D01*
X5051366Y4300689D01*
X5050367D01*
X5049867Y4301189D01*
Y4303188D01*
X4952479Y4248188D02*
X4951979Y4248688D01*
X4950979D01*
X4950480Y4248188D01*
Y4246189D01*
X4950979Y4245689D01*
X4951979D01*
X4952479Y4246189D01*
X4953479Y4248188D02*
X4953978Y4248688D01*
X4954978D01*
X4955478Y4248188D01*
Y4247688D01*
X4954978Y4247189D01*
X4955478Y4246689D01*
Y4246189D01*
X4954978Y4245689D01*
X4953978D01*
X4953479Y4246189D01*
Y4246689D01*
X4953978Y4247189D01*
X4953479Y4247688D01*
Y4248188D01*
X4953978Y4247189D02*
X4954978D01*
X4956478Y4246189D02*
X4956977Y4245689D01*
X4957977D01*
X4958477Y4246189D01*
Y4248188D01*
X4957977Y4248688D01*
X4956977D01*
X4956478Y4248188D01*
Y4247688D01*
X4956977Y4247189D01*
X4958477D01*
X4964052Y4278688D02*
X4963552Y4279188D01*
X4962552D01*
X4962053Y4278688D01*
Y4276689D01*
X4962552Y4276189D01*
X4963552D01*
X4964052Y4276689D01*
X4965052Y4278688D02*
X4965551Y4279188D01*
X4966551D01*
X4967051Y4278688D01*
Y4278188D01*
X4966551Y4277689D01*
X4967051Y4277189D01*
Y4276689D01*
X4966551Y4276189D01*
X4965551D01*
X4965052Y4276689D01*
Y4277189D01*
X4965551Y4277689D01*
X4965052Y4278188D01*
Y4278688D01*
X4965551Y4277689D02*
X4966551D01*
X4968051Y4278688D02*
X4968550Y4279188D01*
X4969550D01*
X4970050Y4278688D01*
Y4278188D01*
X4969550Y4277689D01*
X4970050Y4277189D01*
Y4276689D01*
X4969550Y4276189D01*
X4968550D01*
X4968051Y4276689D01*
Y4277189D01*
X4968550Y4277689D01*
X4968051Y4278188D01*
Y4278688D01*
X4968550Y4277689D02*
X4969550D01*
X4953868Y4304688D02*
X4953368Y4305188D01*
X4952369D01*
X4951869Y4304688D01*
Y4302689D01*
X4952369Y4302189D01*
X4953368D01*
X4953868Y4302689D01*
X4954868Y4304688D02*
X4955368Y4305188D01*
X4956367D01*
X4956867Y4304688D01*
Y4304188D01*
X4956367Y4303688D01*
X4956867Y4303189D01*
Y4302689D01*
X4956367Y4302189D01*
X4955368D01*
X4954868Y4302689D01*
Y4303189D01*
X4955368Y4303688D01*
X4954868Y4304188D01*
Y4304688D01*
X4955368Y4303688D02*
X4956367D01*
X4957867Y4305188D02*
X4959866D01*
Y4304688D01*
X4957867Y4302689D01*
Y4302189D01*
X4953052Y4290188D02*
X4952552Y4290688D01*
X4951553D01*
X4951052Y4290188D01*
Y4288189D01*
X4951553Y4287689D01*
X4952552D01*
X4953052Y4288189D01*
X4954052Y4290188D02*
X4954551Y4290688D01*
X4955551D01*
X4956051Y4290188D01*
Y4289688D01*
X4955551Y4289188D01*
X4956051Y4288689D01*
Y4288189D01*
X4955551Y4287689D01*
X4954551D01*
X4954052Y4288189D01*
Y4288689D01*
X4954551Y4289188D01*
X4954052Y4289688D01*
Y4290188D01*
X4954551Y4289188D02*
X4955551D01*
X4959050Y4290688D02*
X4958051Y4290188D01*
X4957051Y4289188D01*
Y4288189D01*
X4957550Y4287689D01*
X4958550D01*
X4959050Y4288189D01*
Y4288689D01*
X4958550Y4289188D01*
X4957051D01*
X4953850Y4315188D02*
X4953350Y4315688D01*
X4952351D01*
X4951851Y4315188D01*
Y4313189D01*
X4952351Y4312689D01*
X4953350D01*
X4953850Y4313189D01*
X4954850Y4315188D02*
X4955349Y4315688D01*
X4956349D01*
X4956849Y4315188D01*
Y4314688D01*
X4956349Y4314188D01*
X4956849Y4313689D01*
Y4313189D01*
X4956349Y4312689D01*
X4955349D01*
X4954850Y4313189D01*
Y4313689D01*
X4955349Y4314188D01*
X4954850Y4314688D01*
Y4315188D01*
X4955349Y4314188D02*
X4956349D01*
X4959848Y4315688D02*
X4957849D01*
Y4314188D01*
X4958849Y4314688D01*
X4959348D01*
X4959848Y4314188D01*
Y4313189D01*
X4959348Y4312689D01*
X4958348D01*
X4957849Y4313189D01*
X4952850Y4327688D02*
X4952350Y4328188D01*
X4951350D01*
X4950851Y4327688D01*
Y4325689D01*
X4951350Y4325189D01*
X4952350D01*
X4952850Y4325689D01*
X4953850Y4327688D02*
X4954350Y4328188D01*
X4955349D01*
X4955849Y4327688D01*
Y4327188D01*
X4955349Y4326688D01*
X4955849Y4326189D01*
Y4325689D01*
X4955349Y4325189D01*
X4954350D01*
X4953850Y4325689D01*
Y4326189D01*
X4954350Y4326688D01*
X4953850Y4327188D01*
Y4327688D01*
X4954350Y4326688D02*
X4955349D01*
X4958348Y4325189D02*
Y4328188D01*
X4956849Y4326688D01*
X4958848D01*
X4677218Y4374188D02*
X4676718Y4374688D01*
X4675719D01*
X4675219Y4374188D01*
Y4372189D01*
X4675719Y4371689D01*
X4676718D01*
X4677218Y4372189D01*
X4678218Y4374188D02*
X4678717Y4374688D01*
X4679717D01*
X4680217Y4374188D01*
Y4373688D01*
X4679717Y4373188D01*
X4680217Y4372689D01*
Y4372189D01*
X4679717Y4371689D01*
X4678717D01*
X4678218Y4372189D01*
Y4372689D01*
X4678717Y4373188D01*
X4678218Y4373688D01*
Y4374188D01*
X4678717Y4373188D02*
X4679717D01*
X4681217Y4374188D02*
X4681717Y4374688D01*
X4682716D01*
X4683216Y4374188D01*
Y4373688D01*
X4682716Y4373188D01*
X4682217D01*
X4682716D01*
X4683216Y4372689D01*
Y4372189D01*
X4682716Y4371689D01*
X4681717D01*
X4681217Y4372189D01*
X4727718Y4312688D02*
X4727218Y4313188D01*
X4726218D01*
X4725719Y4312688D01*
Y4310689D01*
X4726218Y4310189D01*
X4727218D01*
X4727718Y4310689D01*
X4728718Y4313188D02*
X4730717D01*
Y4312688D01*
X4728718Y4310689D01*
Y4310189D01*
X4731717Y4312688D02*
X4732217Y4313188D01*
X4733216D01*
X4733716Y4312688D01*
Y4312188D01*
X4733216Y4311689D01*
X4733716Y4311189D01*
Y4310689D01*
X4733216Y4310189D01*
X4732217D01*
X4731717Y4310689D01*
Y4311189D01*
X4732217Y4311689D01*
X4731717Y4312188D01*
Y4312688D01*
X4732217Y4311689D02*
X4733216D01*
X4813368Y4301838D02*
X4812868Y4302338D01*
X4811869D01*
X4811369Y4301838D01*
Y4299839D01*
X4811869Y4299339D01*
X4812868D01*
X4813368Y4299839D01*
X4814368Y4302338D02*
X4816367D01*
Y4301838D01*
X4814368Y4299839D01*
Y4299339D01*
X4819366Y4302338D02*
X4818367Y4301838D01*
X4817367Y4300838D01*
Y4299839D01*
X4817867Y4299339D01*
X4818866D01*
X4819366Y4299839D01*
Y4300339D01*
X4818866Y4300838D01*
X4817367D01*
X4796368Y4405188D02*
X4795868Y4405688D01*
X4794868D01*
X4794369Y4405188D01*
Y4403189D01*
X4794868Y4402689D01*
X4795868D01*
X4796368Y4403189D01*
X4797368Y4405688D02*
X4799367D01*
Y4405188D01*
X4797368Y4403189D01*
Y4402689D01*
X4802366Y4405688D02*
X4800367D01*
Y4404189D01*
X4801366Y4404688D01*
X4801866D01*
X4802366Y4404189D01*
Y4403189D01*
X4801866Y4402689D01*
X4800867D01*
X4800367Y4403189D01*
X4707018Y4327751D02*
X4706518Y4328251D01*
X4705519D01*
X4705019Y4327751D01*
Y4325752D01*
X4705519Y4325252D01*
X4706518D01*
X4707018Y4325752D01*
X4708018Y4328251D02*
X4710017D01*
Y4327751D01*
X4708018Y4325752D01*
Y4325252D01*
X4712516D02*
Y4328251D01*
X4711017Y4326751D01*
X4713016D01*
X5039368Y4421688D02*
X5038868Y4422188D01*
X5037868D01*
X5037369Y4421688D01*
Y4419689D01*
X5037868Y4419189D01*
X5038868D01*
X5039368Y4419689D01*
X5040368Y4422188D02*
X5042367D01*
Y4421688D01*
X5040368Y4419689D01*
Y4419189D01*
X5043367Y4421688D02*
X5043867Y4422188D01*
X5044866D01*
X5045366Y4421688D01*
Y4421188D01*
X5044866Y4420689D01*
X5044366D01*
X5044866D01*
X5045366Y4420189D01*
Y4419689D01*
X5044866Y4419189D01*
X5043867D01*
X5043367Y4419689D01*
X4680673Y4457588D02*
X4680173Y4458088D01*
X4679174D01*
X4678674Y4457588D01*
Y4455589D01*
X4679174Y4455089D01*
X4680173D01*
X4680673Y4455589D01*
X4681673Y4458088D02*
X4683672D01*
Y4457588D01*
X4681673Y4455589D01*
Y4455089D01*
X4686671D02*
X4684672D01*
X4686671Y4457088D01*
Y4457588D01*
X4686171Y4458088D01*
X4685172D01*
X4684672Y4457588D01*
X4718964Y4319251D02*
X4718465Y4319751D01*
X4717465D01*
X4716965Y4319251D01*
Y4317252D01*
X4717465Y4316752D01*
X4718465D01*
X4718964Y4317252D01*
X4719964Y4319751D02*
X4721964D01*
Y4319251D01*
X4719964Y4317252D01*
Y4316752D01*
X4722963D02*
X4723963D01*
X4723463D01*
Y4319751D01*
X4722963Y4319251D01*
X4923368Y4382188D02*
X4922868Y4382688D01*
X4921869D01*
X4921369Y4382188D01*
Y4380189D01*
X4921869Y4379689D01*
X4922868D01*
X4923368Y4380189D01*
X4924368Y4382688D02*
X4926367D01*
Y4382188D01*
X4924368Y4380189D01*
Y4379689D01*
X4927367Y4382188D02*
X4927867Y4382688D01*
X4928866D01*
X4929366Y4382188D01*
Y4380189D01*
X4928866Y4379689D01*
X4927867D01*
X4927367Y4380189D01*
Y4382188D01*
X4946468Y4338188D02*
X4945968Y4338688D01*
X4944968D01*
X4944469Y4338188D01*
Y4336189D01*
X4944968Y4335689D01*
X4945968D01*
X4946468Y4336189D01*
X4949467Y4338688D02*
X4948467Y4338188D01*
X4947468Y4337188D01*
Y4336189D01*
X4947968Y4335689D01*
X4948967D01*
X4949467Y4336189D01*
Y4336689D01*
X4948967Y4337188D01*
X4947468D01*
X4950467Y4338688D02*
X4952466D01*
Y4338188D01*
X4950467Y4336189D01*
Y4335689D01*
X4792363Y4243788D02*
X4791863Y4244288D01*
X4790863D01*
X4790364Y4243788D01*
Y4241789D01*
X4790863Y4241289D01*
X4791863D01*
X4792363Y4241789D01*
X4795362Y4244288D02*
X4794362Y4243788D01*
X4793363Y4242788D01*
Y4241789D01*
X4793863Y4241289D01*
X4794862D01*
X4795362Y4241789D01*
Y4242289D01*
X4794862Y4242788D01*
X4793363D01*
X4798361Y4244288D02*
X4796362D01*
Y4242788D01*
X4797361Y4243288D01*
X4797861D01*
X4798361Y4242788D01*
Y4241789D01*
X4797861Y4241289D01*
X4796862D01*
X4796362Y4241789D01*
X4905600Y4492188D02*
X4905100Y4492688D01*
X4904100D01*
X4903601Y4492188D01*
Y4490189D01*
X4904100Y4489689D01*
X4905100D01*
X4905600Y4490189D01*
X4908599Y4492688D02*
X4907599Y4492188D01*
X4906600Y4491188D01*
Y4490189D01*
X4907100Y4489689D01*
X4908099D01*
X4908599Y4490189D01*
Y4490689D01*
X4908099Y4491188D01*
X4906600D01*
X4911098Y4489689D02*
Y4492688D01*
X4909599Y4491188D01*
X4911598D01*
X4740609Y4431188D02*
X4740109Y4431688D01*
X4739109D01*
X4738610Y4431188D01*
Y4429189D01*
X4739109Y4428689D01*
X4740109D01*
X4740609Y4429189D01*
X4743608Y4431688D02*
X4742608Y4431188D01*
X4741609Y4430188D01*
Y4429189D01*
X4742109Y4428689D01*
X4743108D01*
X4743608Y4429189D01*
Y4429689D01*
X4743108Y4430188D01*
X4741609D01*
X4744608Y4431188D02*
X4745108Y4431688D01*
X4746107D01*
X4746607Y4431188D01*
Y4430688D01*
X4746107Y4430188D01*
X4745607D01*
X4746107D01*
X4746607Y4429689D01*
Y4429189D01*
X4746107Y4428689D01*
X4745108D01*
X4744608Y4429189D01*
X4922314Y4449285D02*
X4921815Y4449784D01*
X4920815D01*
X4920315Y4449285D01*
Y4447285D01*
X4920815Y4446785D01*
X4921815D01*
X4922314Y4447285D01*
X4925314Y4449784D02*
X4924314Y4449285D01*
X4923314Y4448285D01*
Y4447285D01*
X4923814Y4446785D01*
X4924814D01*
X4925314Y4447285D01*
Y4447785D01*
X4924814Y4448285D01*
X4923314D01*
X4926313Y4446785D02*
X4927313D01*
X4926813D01*
Y4449784D01*
X4926313Y4449285D01*
X4738868Y4436188D02*
X4738368Y4436688D01*
X4737369D01*
X4736869Y4436188D01*
Y4434189D01*
X4737369Y4433689D01*
X4738368D01*
X4738868Y4434189D01*
X4741867Y4436688D02*
X4740867Y4436188D01*
X4739868Y4435189D01*
Y4434189D01*
X4740368Y4433689D01*
X4741367D01*
X4741867Y4434189D01*
Y4434689D01*
X4741367Y4435189D01*
X4739868D01*
X4742867Y4436188D02*
X4743367Y4436688D01*
X4744366D01*
X4744866Y4436188D01*
Y4434189D01*
X4744366Y4433689D01*
X4743367D01*
X4742867Y4434189D01*
Y4436188D01*
X4931368Y4506188D02*
X4930868Y4506688D01*
X4929869D01*
X4929369Y4506188D01*
Y4504189D01*
X4929869Y4503689D01*
X4930868D01*
X4931368Y4504189D01*
X4934367Y4506688D02*
X4932368D01*
Y4505188D01*
X4933368Y4505688D01*
X4933867D01*
X4934367Y4505188D01*
Y4504189D01*
X4933867Y4503689D01*
X4932867D01*
X4932368Y4504189D01*
X4935367D02*
X4935867Y4503689D01*
X4936866D01*
X4937366Y4504189D01*
Y4506188D01*
X4936866Y4506688D01*
X4935867D01*
X4935367Y4506188D01*
Y4505688D01*
X4935867Y4505188D01*
X4937366D01*
X4934368Y4431689D02*
X4934868Y4432190D01*
Y4433189D01*
X4934368Y4433689D01*
X4932368D01*
X4931869Y4433189D01*
Y4432190D01*
X4932368Y4431689D01*
X4934868Y4428691D02*
Y4430690D01*
X4933368D01*
X4933868Y4429690D01*
Y4429190D01*
X4933368Y4428691D01*
X4932368D01*
X4931869Y4429190D01*
Y4430190D01*
X4932368Y4430690D01*
X4934368Y4427691D02*
X4934868Y4427191D01*
Y4426191D01*
X4934368Y4425692D01*
X4933868D01*
X4933368Y4426191D01*
X4932869Y4425692D01*
X4932368D01*
X4931869Y4426191D01*
Y4427191D01*
X4932368Y4427691D01*
X4932869D01*
X4933368Y4427191D01*
X4933868Y4427691D01*
X4934368D01*
X4933368Y4427191D02*
Y4426191D01*
X4908368Y4406188D02*
X4907868Y4406688D01*
X4906869D01*
X4906369Y4406188D01*
Y4404189D01*
X4906869Y4403689D01*
X4907868D01*
X4908368Y4404189D01*
X4911367Y4406688D02*
X4909368D01*
Y4405188D01*
X4910368Y4405688D01*
X4910867D01*
X4911367Y4405188D01*
Y4404189D01*
X4910867Y4403689D01*
X4909867D01*
X4909368Y4404189D01*
X4912367Y4406688D02*
X4914366D01*
Y4406188D01*
X4912367Y4404189D01*
Y4403689D01*
X4680368Y4312188D02*
X4679868Y4312688D01*
X4678868D01*
X4678369Y4312188D01*
Y4310189D01*
X4678868Y4309689D01*
X4679868D01*
X4680368Y4310189D01*
X4683367Y4312688D02*
X4681368D01*
Y4311189D01*
X4682367Y4311688D01*
X4682867D01*
X4683367Y4311189D01*
Y4310189D01*
X4682867Y4309689D01*
X4681868D01*
X4681368Y4310189D01*
X4686366Y4312688D02*
X4685366Y4312188D01*
X4684367Y4311189D01*
Y4310189D01*
X4684867Y4309689D01*
X4685866D01*
X4686366Y4310189D01*
Y4310689D01*
X4685866Y4311189D01*
X4684367D01*
X4974868Y4443188D02*
X4974368Y4443688D01*
X4973368D01*
X4972869Y4443188D01*
Y4441189D01*
X4973368Y4440689D01*
X4974368D01*
X4974868Y4441189D01*
X4977867Y4443688D02*
X4975868D01*
Y4442189D01*
X4976867Y4442688D01*
X4977367D01*
X4977867Y4442189D01*
Y4441189D01*
X4977367Y4440689D01*
X4976368D01*
X4975868Y4441189D01*
X4980866Y4443688D02*
X4978867D01*
Y4442189D01*
X4979866Y4442688D01*
X4980366D01*
X4980866Y4442189D01*
Y4441189D01*
X4980366Y4440689D01*
X4979367D01*
X4978867Y4441189D01*
X4923368Y4393188D02*
X4922868Y4393688D01*
X4921869D01*
X4921369Y4393188D01*
Y4391189D01*
X4921869Y4390689D01*
X4922868D01*
X4923368Y4391189D01*
X4926367Y4393688D02*
X4924368D01*
Y4392189D01*
X4925367Y4392688D01*
X4925867D01*
X4926367Y4392189D01*
Y4391189D01*
X4925867Y4390689D01*
X4924868D01*
X4924368Y4391189D01*
X4928866Y4390689D02*
Y4393688D01*
X4927367Y4392189D01*
X4929366D01*
X5035668Y4412366D02*
X5035168Y4412866D01*
X5034168D01*
X5033669Y4412366D01*
Y4410367D01*
X5034168Y4409867D01*
X5035168D01*
X5035668Y4410367D01*
X5038667Y4412866D02*
X5036667D01*
Y4411367D01*
X5037667Y4411867D01*
X5038167D01*
X5038667Y4411367D01*
Y4410367D01*
X5038167Y4409867D01*
X5037167D01*
X5036667Y4410367D01*
X5039666Y4412366D02*
X5040166Y4412866D01*
X5041166D01*
X5041666Y4412366D01*
Y4411867D01*
X5041166Y4411367D01*
X5040666D01*
X5041166D01*
X5041666Y4410867D01*
Y4410367D01*
X5041166Y4409867D01*
X5040166D01*
X5039666Y4410367D01*
X4704025Y4392208D02*
X4703525Y4392708D01*
X4702526D01*
X4702026Y4392208D01*
Y4390208D01*
X4702526Y4389709D01*
X4703525D01*
X4704025Y4390208D01*
X4707024Y4392708D02*
X4705025D01*
Y4391208D01*
X4706025Y4391708D01*
X4706524D01*
X4707024Y4391208D01*
Y4390208D01*
X4706524Y4389709D01*
X4705525D01*
X4705025Y4390208D01*
X4708024Y4392208D02*
X4708524Y4392708D01*
X4709523D01*
X4710023Y4392208D01*
Y4390208D01*
X4709523Y4389709D01*
X4708524D01*
X4708024Y4390208D01*
Y4392208D01*
X4811368Y4447688D02*
X4810868Y4448188D01*
X4809869D01*
X4809369Y4447688D01*
Y4445689D01*
X4809869Y4445189D01*
X4810868D01*
X4811368Y4445689D01*
X4813867Y4445189D02*
Y4448188D01*
X4812368Y4446688D01*
X4814367D01*
X4815367Y4445689D02*
X4815866Y4445189D01*
X4816866D01*
X4817366Y4445689D01*
Y4447688D01*
X4816866Y4448188D01*
X4815866D01*
X4815367Y4447688D01*
Y4447188D01*
X4815866Y4446688D01*
X4817366D01*
X4808868Y4432688D02*
X4808368Y4433188D01*
X4807368D01*
X4806869Y4432688D01*
Y4430689D01*
X4807368Y4430189D01*
X4808368D01*
X4808868Y4430689D01*
X4811367Y4430189D02*
Y4433188D01*
X4809868Y4431689D01*
X4811867D01*
X4812867Y4433188D02*
X4814866D01*
Y4432688D01*
X4812867Y4430689D01*
Y4430189D01*
X4895368Y4381188D02*
X4894868Y4381688D01*
X4893869D01*
X4893369Y4381188D01*
Y4379189D01*
X4893869Y4378689D01*
X4894868D01*
X4895368Y4379189D01*
X4897867Y4378689D02*
Y4381688D01*
X4896368Y4380188D01*
X4898367D01*
X4901366Y4381688D02*
X4900367Y4381188D01*
X4899367Y4380188D01*
Y4379189D01*
X4899866Y4378689D01*
X4900866D01*
X4901366Y4379189D01*
Y4379689D01*
X4900866Y4380188D01*
X4899367D01*
X4847368Y4450688D02*
X4846868Y4451188D01*
X4845869D01*
X4845369Y4450688D01*
Y4448689D01*
X4845869Y4448189D01*
X4846868D01*
X4847368Y4448689D01*
X4849867Y4448189D02*
Y4451188D01*
X4848368Y4449688D01*
X4850367D01*
X4853366Y4451188D02*
X4851367D01*
Y4449688D01*
X4852367Y4450188D01*
X4852866D01*
X4853366Y4449688D01*
Y4448689D01*
X4852866Y4448189D01*
X4851867D01*
X4851367Y4448689D01*
X5030368Y4440188D02*
X5029868Y4440688D01*
X5028868D01*
X5028369Y4440188D01*
Y4438189D01*
X5028868Y4437689D01*
X5029868D01*
X5030368Y4438189D01*
X5032867Y4437689D02*
Y4440688D01*
X5031368Y4439188D01*
X5033367D01*
X5034367Y4440188D02*
X5034867Y4440688D01*
X5035866D01*
X5036366Y4440188D01*
Y4439688D01*
X5035866Y4439188D01*
X5035366D01*
X5035866D01*
X5036366Y4438689D01*
Y4438189D01*
X5035866Y4437689D01*
X5034867D01*
X5034367Y4438189D01*
X5033964Y4401368D02*
X5033464Y4401868D01*
X5032464D01*
X5031964Y4401368D01*
Y4399368D01*
X5032464Y4398869D01*
X5033464D01*
X5033964Y4399368D01*
X5036463Y4398869D02*
Y4401868D01*
X5034964Y4400368D01*
X5036963D01*
X5039962Y4398869D02*
X5037962D01*
X5039962Y4400868D01*
Y4401368D01*
X5039462Y4401868D01*
X5038462D01*
X5037962Y4401368D01*
X4923368Y4370688D02*
X4922868Y4371188D01*
X4921869D01*
X4921369Y4370688D01*
Y4368689D01*
X4921869Y4368189D01*
X4922868D01*
X4923368Y4368689D01*
X4925867Y4368189D02*
Y4371188D01*
X4924368Y4369688D01*
X4926367D01*
X4927367Y4368189D02*
X4928366D01*
X4927867D01*
Y4371188D01*
X4927367Y4370688D01*
X5006368Y4449688D02*
X5005868Y4450188D01*
X5004869D01*
X5004369Y4449688D01*
Y4447689D01*
X5004869Y4447189D01*
X5005868D01*
X5006368Y4447689D01*
X5008867Y4447189D02*
Y4450188D01*
X5007368Y4448689D01*
X5009367D01*
X5010367Y4449688D02*
X5010867Y4450188D01*
X5011866D01*
X5012366Y4449688D01*
Y4447689D01*
X5011866Y4447189D01*
X5010867D01*
X5010367Y4447689D01*
Y4449688D01*
X4969368Y4345690D02*
X4969868Y4346189D01*
Y4347189D01*
X4969368Y4347689D01*
X4967369D01*
X4966869Y4347189D01*
Y4346189D01*
X4967369Y4345690D01*
X4969368Y4344690D02*
X4969868Y4344190D01*
Y4343190D01*
X4969368Y4342691D01*
X4968868D01*
X4968368Y4343190D01*
Y4343690D01*
Y4343190D01*
X4967868Y4342691D01*
X4967369D01*
X4966869Y4343190D01*
Y4344190D01*
X4967369Y4344690D01*
X4969368Y4341691D02*
X4969868Y4341191D01*
Y4340191D01*
X4969368Y4339692D01*
X4968868D01*
X4968368Y4340191D01*
X4967868Y4339692D01*
X4967369D01*
X4966869Y4340191D01*
Y4341191D01*
X4967369Y4341691D01*
X4967868D01*
X4968368Y4341191D01*
X4968868Y4341691D01*
X4969368D01*
X4968368Y4341191D02*
Y4340191D01*
X5030368Y4433188D02*
X5029868Y4433688D01*
X5028868D01*
X5028369Y4433188D01*
Y4431189D01*
X5028868Y4430689D01*
X5029868D01*
X5030368Y4431189D01*
X5031368Y4433188D02*
X5031868Y4433688D01*
X5032867D01*
X5033367Y4433188D01*
Y4432688D01*
X5032867Y4432188D01*
X5032367D01*
X5032867D01*
X5033367Y4431689D01*
Y4431189D01*
X5032867Y4430689D01*
X5031868D01*
X5031368Y4431189D01*
X5034367Y4433688D02*
X5036366D01*
Y4433188D01*
X5034367Y4431189D01*
Y4430689D01*
X4979868Y4452690D02*
X4980368Y4453189D01*
Y4454189D01*
X4979868Y4454689D01*
X4977869D01*
X4977369Y4454189D01*
Y4453189D01*
X4977869Y4452690D01*
X4979868Y4451690D02*
X4980368Y4451190D01*
Y4450190D01*
X4979868Y4449691D01*
X4979368D01*
X4978868Y4450190D01*
Y4450690D01*
Y4450190D01*
X4978368Y4449691D01*
X4977869D01*
X4977369Y4450190D01*
Y4451190D01*
X4977869Y4451690D01*
X4980368Y4446692D02*
Y4448691D01*
X4978868D01*
X4979368Y4447691D01*
Y4447191D01*
X4978868Y4446692D01*
X4977869D01*
X4977369Y4447191D01*
Y4448191D01*
X4977869Y4448691D01*
X4754368Y4371188D02*
X4753868Y4371688D01*
X4752869D01*
X4752369Y4371188D01*
Y4369189D01*
X4752869Y4368689D01*
X4753868D01*
X4754368Y4369189D01*
X4755368Y4371188D02*
X4755868Y4371688D01*
X4756867D01*
X4757367Y4371188D01*
Y4370688D01*
X4756867Y4370189D01*
X4756367D01*
X4756867D01*
X4757367Y4369689D01*
Y4369189D01*
X4756867Y4368689D01*
X4755868D01*
X4755368Y4369189D01*
X4759866Y4368689D02*
Y4371688D01*
X4758367Y4370189D01*
X4760366D01*
X5033868Y4393184D02*
X5033368Y4393684D01*
X5032368D01*
X5031869Y4393184D01*
Y4391185D01*
X5032368Y4390685D01*
X5033368D01*
X5033868Y4391185D01*
X5034868Y4393184D02*
X5035368Y4393684D01*
X5036367D01*
X5036867Y4393184D01*
Y4392685D01*
X5036367Y4392185D01*
X5035867D01*
X5036367D01*
X5036867Y4391685D01*
Y4391185D01*
X5036367Y4390685D01*
X5035368D01*
X5034868Y4391185D01*
X5037867Y4393184D02*
X5038367Y4393684D01*
X5039366D01*
X5039866Y4393184D01*
Y4392685D01*
X5039366Y4392185D01*
X5038866D01*
X5039366D01*
X5039866Y4391685D01*
Y4391185D01*
X5039366Y4390685D01*
X5038367D01*
X5037867Y4391185D01*
X5030368Y4379188D02*
X5029868Y4379688D01*
X5028868D01*
X5028369Y4379188D01*
Y4377189D01*
X5028868Y4376689D01*
X5029868D01*
X5030368Y4377189D01*
X5031368Y4379188D02*
X5031868Y4379688D01*
X5032867D01*
X5033367Y4379188D01*
Y4378688D01*
X5032867Y4378188D01*
X5032367D01*
X5032867D01*
X5033367Y4377689D01*
Y4377189D01*
X5032867Y4376689D01*
X5031868D01*
X5031368Y4377189D01*
X5036366Y4376689D02*
X5034367D01*
X5036366Y4378688D01*
Y4379188D01*
X5035866Y4379688D01*
X5034867D01*
X5034367Y4379188D01*
X4978368Y4359690D02*
X4978868Y4360189D01*
Y4361189D01*
X4978368Y4361689D01*
X4976369D01*
X4975869Y4361189D01*
Y4360189D01*
X4976369Y4359690D01*
X4978368Y4358690D02*
X4978868Y4358190D01*
Y4357190D01*
X4978368Y4356691D01*
X4977868D01*
X4977368Y4357190D01*
Y4357690D01*
Y4357190D01*
X4976868Y4356691D01*
X4976369D01*
X4975869Y4357190D01*
Y4358190D01*
X4976369Y4358690D01*
X4975869Y4355691D02*
Y4354691D01*
Y4355191D01*
X4978868D01*
X4978368Y4355691D01*
X4956368Y4441188D02*
X4955868Y4441688D01*
X4954869D01*
X4954369Y4441188D01*
Y4439189D01*
X4954869Y4438689D01*
X4955868D01*
X4956368Y4439189D01*
X4957368Y4441188D02*
X4957867Y4441688D01*
X4958867D01*
X4959367Y4441188D01*
Y4440688D01*
X4958867Y4440189D01*
X4958368D01*
X4958867D01*
X4959367Y4439689D01*
Y4439189D01*
X4958867Y4438689D01*
X4957867D01*
X4957368Y4439189D01*
X4960367Y4441188D02*
X4960867Y4441688D01*
X4961866D01*
X4962366Y4441188D01*
Y4439189D01*
X4961866Y4438689D01*
X4960867D01*
X4960367Y4439189D01*
Y4441188D01*
X4728868Y4346188D02*
X4728368Y4346688D01*
X4727369D01*
X4726869Y4346188D01*
Y4344189D01*
X4727369Y4343689D01*
X4728368D01*
X4728868Y4344189D01*
X4731867Y4343689D02*
X4729868D01*
X4731867Y4345688D01*
Y4346188D01*
X4731367Y4346688D01*
X4730368D01*
X4729868Y4346188D01*
X4732867Y4344189D02*
X4733367Y4343689D01*
X4734366D01*
X4734866Y4344189D01*
Y4346188D01*
X4734366Y4346688D01*
X4733367D01*
X4732867Y4346188D01*
Y4345688D01*
X4733367Y4345189D01*
X4734866D01*
X4768718Y4364688D02*
X4768218Y4365188D01*
X4767219D01*
X4766719Y4364688D01*
Y4362689D01*
X4767219Y4362189D01*
X4768218D01*
X4768718Y4362689D01*
X4771717Y4362189D02*
X4769718D01*
X4771717Y4364188D01*
Y4364688D01*
X4771217Y4365188D01*
X4770218D01*
X4769718Y4364688D01*
X4772717D02*
X4773217Y4365188D01*
X4774216D01*
X4774716Y4364688D01*
Y4364188D01*
X4774216Y4363689D01*
X4774716Y4363189D01*
Y4362689D01*
X4774216Y4362189D01*
X4773217D01*
X4772717Y4362689D01*
Y4363189D01*
X4773217Y4363689D01*
X4772717Y4364188D01*
Y4364688D01*
X4773217Y4363689D02*
X4774216D01*
X4768718Y4356688D02*
X4768218Y4357188D01*
X4767219D01*
X4766719Y4356688D01*
Y4354689D01*
X4767219Y4354189D01*
X4768218D01*
X4768718Y4354689D01*
X4771717Y4354189D02*
X4769718D01*
X4771717Y4356188D01*
Y4356688D01*
X4771217Y4357188D01*
X4770218D01*
X4769718Y4356688D01*
X4772717Y4357188D02*
X4774716D01*
Y4356688D01*
X4772717Y4354689D01*
Y4354189D01*
X4832698Y4431688D02*
X4832199Y4432188D01*
X4831199D01*
X4830699Y4431688D01*
Y4429689D01*
X4831199Y4429189D01*
X4832199D01*
X4832698Y4429689D01*
X4835698Y4429189D02*
X4833698D01*
X4835698Y4431189D01*
Y4431688D01*
X4835197Y4432188D01*
X4834198D01*
X4833698Y4431688D01*
X4838697Y4432188D02*
X4837697Y4431688D01*
X4836697Y4430688D01*
Y4429689D01*
X4837197Y4429189D01*
X4838197D01*
X4838697Y4429689D01*
Y4430189D01*
X4838197Y4430688D01*
X4836697D01*
X4858368Y4450688D02*
X4857868Y4451188D01*
X4856869D01*
X4856369Y4450688D01*
Y4448689D01*
X4856869Y4448189D01*
X4857868D01*
X4858368Y4448689D01*
X4861367Y4448189D02*
X4859368D01*
X4861367Y4450188D01*
Y4450688D01*
X4860867Y4451188D01*
X4859867D01*
X4859368Y4450688D01*
X4864366Y4451188D02*
X4862367D01*
Y4449688D01*
X4863366Y4450188D01*
X4863866D01*
X4864366Y4449688D01*
Y4448689D01*
X4863866Y4448189D01*
X4862867D01*
X4862367Y4448689D01*
X4856368Y4432688D02*
X4855868Y4433188D01*
X4854869D01*
X4854369Y4432688D01*
Y4430689D01*
X4854869Y4430189D01*
X4855868D01*
X4856368Y4430689D01*
X4859367Y4430189D02*
X4857368D01*
X4859367Y4432188D01*
Y4432688D01*
X4858867Y4433188D01*
X4857867D01*
X4857368Y4432688D01*
X4861866Y4430189D02*
Y4433188D01*
X4860367Y4431689D01*
X4862366D01*
X4689368Y4416190D02*
X4689868Y4416690D01*
Y4417689D01*
X4689368Y4418189D01*
X4687369D01*
X4686869Y4417689D01*
Y4416690D01*
X4687369Y4416190D01*
X4686869Y4415190D02*
Y4414190D01*
Y4414690D01*
X4689868D01*
X4689368Y4415190D01*
Y4412691D02*
X4689868Y4412191D01*
Y4411191D01*
X4689368Y4410691D01*
X4688868D01*
X4688368Y4411191D01*
X4687868Y4410691D01*
X4687369D01*
X4686869Y4411191D01*
Y4412191D01*
X4687369Y4412691D01*
X4687868D01*
X4688368Y4412191D01*
X4688868Y4412691D01*
X4689368D01*
X4688368Y4412191D02*
Y4411191D01*
X4806368Y4416190D02*
X4806868Y4416690D01*
Y4417689D01*
X4806368Y4418189D01*
X4804369D01*
X4803869Y4417689D01*
Y4416690D01*
X4804369Y4416190D01*
X4803869Y4415190D02*
Y4414190D01*
Y4414690D01*
X4806868D01*
X4806368Y4415190D01*
X4806868Y4412691D02*
Y4410691D01*
X4806368D01*
X4804369Y4412691D01*
X4803869D01*
X4716068Y4398690D02*
X4716568Y4399189D01*
Y4400189D01*
X4716068Y4400689D01*
X4714069D01*
X4713569Y4400189D01*
Y4399189D01*
X4714069Y4398690D01*
X4713569Y4397690D02*
Y4396690D01*
Y4397190D01*
X4716568D01*
X4716068Y4397690D01*
X4716568Y4393192D02*
Y4395191D01*
X4715068D01*
X4715568Y4394191D01*
Y4393691D01*
X4715068Y4393192D01*
X4714069D01*
X4713569Y4393691D01*
Y4394691D01*
X4714069Y4395191D01*
X4909368Y4411188D02*
X4908868Y4411688D01*
X4907869D01*
X4907369Y4411188D01*
Y4409189D01*
X4907869Y4408689D01*
X4908868D01*
X4909368Y4409189D01*
X4910368Y4408689D02*
X4911367D01*
X4910868D01*
Y4411688D01*
X4910368Y4411188D01*
X4914367Y4408689D02*
Y4411688D01*
X4912867Y4410189D01*
X4914866D01*
X4934368Y4418690D02*
X4934868Y4419189D01*
Y4420189D01*
X4934368Y4420689D01*
X4932368D01*
X4931869Y4420189D01*
Y4419189D01*
X4932368Y4418690D01*
X4931869Y4417690D02*
Y4416690D01*
Y4417190D01*
X4934868D01*
X4934368Y4417690D01*
Y4415191D02*
X4934868Y4414691D01*
Y4413691D01*
X4934368Y4413191D01*
X4933868D01*
X4933368Y4413691D01*
Y4414191D01*
Y4413691D01*
X4932869Y4413191D01*
X4932368D01*
X4931869Y4413691D01*
Y4414691D01*
X4932368Y4415191D01*
X4959868Y4349190D02*
X4960368Y4349689D01*
Y4350689D01*
X4959868Y4351189D01*
X4957869D01*
X4957369Y4350689D01*
Y4349689D01*
X4957869Y4349190D01*
X4957369Y4348190D02*
Y4347190D01*
Y4347690D01*
X4960368D01*
X4959868Y4348190D01*
X4957369Y4345691D02*
Y4344691D01*
Y4345191D01*
X4960368D01*
X4959868Y4345691D01*
X4907368Y4388188D02*
X4906868Y4388688D01*
X4905869D01*
X4905369Y4388188D01*
Y4386189D01*
X4905869Y4385689D01*
X4906868D01*
X4907368Y4386189D01*
X4910367Y4388688D02*
X4909367Y4388188D01*
X4908368Y4387188D01*
Y4386189D01*
X4908868Y4385689D01*
X4909867D01*
X4910367Y4386189D01*
Y4386689D01*
X4909867Y4387188D01*
X4908368D01*
X4934868Y4350688D02*
X4934368Y4351188D01*
X4933369D01*
X4932869Y4350688D01*
Y4348689D01*
X4933369Y4348189D01*
X4934368D01*
X4934868Y4348689D01*
X4937867Y4351188D02*
X4935868D01*
Y4349688D01*
X4936868Y4350188D01*
X4937367D01*
X4937867Y4349688D01*
Y4348689D01*
X4937367Y4348189D01*
X4936367D01*
X4935868Y4348689D01*
X4823368Y4324188D02*
X4822368D01*
X4822868D01*
Y4321689D01*
X4822368Y4321189D01*
X4821869D01*
X4821369Y4321689D01*
X4824368Y4323688D02*
X4824868Y4324188D01*
X4825867D01*
X4826367Y4323688D01*
Y4323188D01*
X4825867Y4322689D01*
X4826367Y4322189D01*
Y4321689D01*
X4825867Y4321189D01*
X4824868D01*
X4824368Y4321689D01*
Y4322189D01*
X4824868Y4322689D01*
X4824368Y4323188D01*
Y4323688D01*
X4824868Y4322689D02*
X4825867D01*
X4654368Y4277688D02*
X4653368D01*
X4653868D01*
Y4275189D01*
X4653368Y4274689D01*
X4652869D01*
X4652369Y4275189D01*
X4655368Y4274689D02*
X4656367D01*
X4655868D01*
Y4277688D01*
X4655368Y4277188D01*
X4657867Y4274689D02*
X4658867D01*
X4658367D01*
Y4277688D01*
X4657867Y4277188D01*
X4666829Y4526688D02*
X4665829D01*
X4666329D01*
Y4524189D01*
X4665829Y4523689D01*
X4665329D01*
X4664829Y4524189D01*
X4667828D02*
X4668328Y4523689D01*
X4669328D01*
X4669828Y4524189D01*
Y4526188D01*
X4669328Y4526688D01*
X4668328D01*
X4667828Y4526188D01*
Y4525688D01*
X4668328Y4525188D01*
X4669828D01*
X4890368Y4525688D02*
X4889368D01*
X4889868D01*
Y4523189D01*
X4889368Y4522689D01*
X4888868D01*
X4888369Y4523189D01*
X4891368Y4522689D02*
X4892368D01*
X4891867D01*
Y4525688D01*
X4891368Y4525188D01*
X4893867D02*
X4894367Y4525688D01*
X4895366D01*
X4895866Y4525188D01*
Y4523189D01*
X4895366Y4522689D01*
X4894367D01*
X4893867Y4523189D01*
Y4525188D01*
X4701615Y4464189D02*
Y4467188D01*
X4703115D01*
X4703614Y4466688D01*
Y4465688D01*
X4703115Y4465189D01*
X4701615D01*
X4702615D02*
X4703614Y4464189D01*
X4704614D02*
X4705614D01*
X4705114D01*
Y4467188D01*
X4704614Y4466688D01*
X4707113D02*
X4707613Y4467188D01*
X4708613D01*
X4709113Y4466688D01*
Y4466188D01*
X4708613Y4465688D01*
X4708113D01*
X4708613D01*
X4709113Y4465189D01*
Y4464689D01*
X4708613Y4464189D01*
X4707613D01*
X4707113Y4464689D01*
X4710112Y4466688D02*
X4710612Y4467188D01*
X4711612D01*
X4712112Y4466688D01*
Y4466188D01*
X4711612Y4465688D01*
X4711112D01*
X4711612D01*
X4712112Y4465189D01*
Y4464689D01*
X4711612Y4464189D01*
X4710612D01*
X4710112Y4464689D01*
D53*
X4946535Y4373779D02*
G03*
X4946535Y4373779I-492J0D01*
G01*
X4976361Y4331689D02*
G03*
X4976361Y4331689I-492J0D01*
G01*
X4745361Y4290689D02*
G03*
X4745361Y4290689I-492J0D01*
G01*
D54*
X4952342Y4382145D02*
G03*
X4952342Y4382145I-1181J0D01*
G01*
X4984786Y4328150D02*
G03*
X4984786Y4328150I-1181J0D01*
G01*
M02*
