%FSLAX25Y25*%
%MOIN*%
G70*
G01*
G75*
%ADD10C,0.01969*%
%ADD11R,0.03543X0.03150*%
%ADD12R,0.03150X0.03543*%
%ADD13R,0.04724X0.08661*%
%ADD14R,0.13780X0.08661*%
%ADD15R,0.05512X0.03937*%
%ADD16R,0.03937X0.05512*%
%ADD17R,0.18110X0.07087*%
%ADD18O,0.00709X0.06299*%
%ADD19O,0.06299X0.00709*%
%ADD20O,0.04921X0.01575*%
%ADD21R,0.05118X0.04724*%
%ADD22R,0.04724X0.05118*%
%ADD23R,0.04331X0.03937*%
%ADD24R,0.03937X0.04331*%
%ADD25O,0.08661X0.02362*%
%ADD26R,0.08661X0.02362*%
%ADD27R,0.07874X0.21654*%
%ADD28R,0.03937X0.02362*%
%ADD29C,0.02000*%
%ADD30C,0.00600*%
%ADD31C,0.00787*%
%ADD32C,0.00700*%
%ADD33C,0.04000*%
%ADD34C,0.01000*%
%ADD35C,0.01500*%
%ADD36C,0.31032*%
%ADD37C,0.11024*%
%ADD38C,0.09449*%
%ADD39R,0.07874X0.11811*%
%ADD40O,0.05906X0.07087*%
%ADD41R,0.05906X0.07087*%
%ADD42O,0.05512X0.06693*%
%ADD43R,0.05512X0.06693*%
%ADD44O,0.06693X0.05512*%
%ADD45R,0.06693X0.05512*%
%ADD46C,0.06693*%
%ADD47C,0.03937*%
%ADD48O,0.11811X0.07000*%
%ADD49O,0.07000X0.11811*%
%ADD50C,0.02500*%
%ADD51C,0.08000*%
%ADD52C,0.00800*%
%ADD53C,0.00984*%
%ADD54C,0.02362*%
%ADD55R,0.03937X0.03937*%
%ADD56C,0.02769*%
%ADD57R,0.04343X0.03950*%
%ADD58R,0.03950X0.04343*%
%ADD59R,0.05524X0.09461*%
%ADD60R,0.14579X0.09461*%
%ADD61R,0.06112X0.04537*%
%ADD62R,0.04537X0.06112*%
%ADD63R,0.18910X0.07887*%
%ADD64O,0.01509X0.07099*%
%ADD65O,0.07099X0.01509*%
%ADD66O,0.05721X0.02375*%
%ADD67R,0.05918X0.05524*%
%ADD68R,0.05524X0.05918*%
%ADD69R,0.05131X0.04737*%
%ADD70R,0.04737X0.05131*%
%ADD71O,0.09461X0.03162*%
%ADD72R,0.09461X0.03162*%
%ADD73R,0.08674X0.22453*%
%ADD74R,0.04737X0.03162*%
%ADD75C,0.31832*%
%ADD76C,0.11824*%
%ADD77C,0.10249*%
%ADD78R,0.08674X0.12611*%
%ADD79O,0.06906X0.08087*%
%ADD80R,0.06906X0.08087*%
%ADD81O,0.06512X0.07693*%
%ADD82R,0.06512X0.07693*%
%ADD83O,0.07693X0.06512*%
%ADD84R,0.07693X0.06512*%
%ADD85C,0.07493*%
%ADD86C,0.04737*%
%ADD87O,0.12611X0.07800*%
%ADD88O,0.07800X0.12611*%
%ADD89C,0.03300*%
%ADD90C,0.00394*%
%ADD91C,0.00197*%
%ADD92C,0.00667*%
D91*
X5025798Y4224094D02*
X5041948D01*
X5033873Y4216019D02*
Y4232169D01*
X4631073Y4222480D02*
X4647223D01*
X4639148Y4214405D02*
Y4230555D01*
X4631073Y4455512D02*
X4647223D01*
X4639148Y4447437D02*
Y4463586D01*
X4747613Y4515962D02*
X4757062D01*
X4752337Y4511238D02*
Y4520687D01*
X4802731Y4515962D02*
X4812180D01*
X4807455Y4511238D02*
Y4520687D01*
X4857849Y4515962D02*
X4867298D01*
X4862573Y4511238D02*
Y4520687D01*
X4718872Y4486435D02*
X4726747D01*
X4722810Y4482498D02*
Y4490372D01*
X4748400Y4486435D02*
X4756274D01*
X4752337Y4482498D02*
Y4490372D01*
X4773991Y4486435D02*
X4781865D01*
X4777928Y4482498D02*
Y4490372D01*
X4803518Y4486435D02*
X4811392D01*
X4807455Y4482498D02*
Y4490372D01*
X4829109Y4486435D02*
X4836983D01*
X4833046Y4482498D02*
Y4490372D01*
X4858636Y4486435D02*
X4866510D01*
X4862573Y4482498D02*
Y4490372D01*
X4870644Y4501199D02*
X4878518D01*
X4874581Y4497261D02*
Y4505135D01*
X4706865Y4501199D02*
X4714739D01*
X4710802Y4497261D02*
Y4505135D01*
X4743900Y4449491D02*
X4747837D01*
X4745869Y4447522D02*
Y4451459D01*
X4753900Y4449491D02*
X4757837D01*
X4755869Y4447522D02*
Y4451459D01*
X4850455Y4232697D02*
X4854392D01*
X4852424Y4230729D02*
Y4234666D01*
X4860455Y4232697D02*
X4864392D01*
X4862424Y4230729D02*
Y4234666D01*
X4929400Y4466189D02*
X4933337D01*
X4931369Y4464220D02*
Y4468157D01*
X4939400Y4466189D02*
X4943337D01*
X4941369Y4464220D02*
Y4468157D01*
X4733597Y4359689D02*
X4737140D01*
X4735369Y4357917D02*
Y4361460D01*
X4723597Y4359689D02*
X4727140D01*
X4725369Y4357917D02*
Y4361460D01*
X4750097Y4384689D02*
X4753640D01*
X4751869Y4382917D02*
Y4386460D01*
X4760097Y4384689D02*
X4763640D01*
X4761869Y4382917D02*
Y4386460D01*
X4787597Y4311689D02*
X4791140D01*
X4789369Y4309917D02*
Y4313461D01*
X4797597Y4311689D02*
X4801140D01*
X4799369Y4309917D02*
Y4313461D01*
X4685097Y4474189D02*
X4688640D01*
X4686869Y4472417D02*
Y4475961D01*
X4675097Y4474189D02*
X4678640D01*
X4676869Y4472417D02*
Y4475961D01*
X4685097Y4397189D02*
X4688640D01*
X4686869Y4395417D02*
Y4398960D01*
X4675097Y4397189D02*
X4678640D01*
X4676869Y4395417D02*
Y4398960D01*
X4748597Y4322689D02*
X4752140D01*
X4750369Y4320917D02*
Y4324461D01*
X4748597Y4312689D02*
X4752140D01*
X4750369Y4310917D02*
Y4314461D01*
X4757597Y4257189D02*
X4761140D01*
X4759369Y4255417D02*
Y4258961D01*
X4747597Y4257189D02*
X4751140D01*
X4749369Y4255417D02*
Y4258961D01*
X4841597Y4311689D02*
X4845140D01*
X4843369Y4309917D02*
Y4313461D01*
X4851597Y4311689D02*
X4855140D01*
X4853369Y4309917D02*
Y4313461D01*
X4966097Y4519689D02*
X4969640D01*
X4967869Y4517917D02*
Y4521461D01*
X4966097Y4509689D02*
X4969640D01*
X4967869Y4507917D02*
Y4511460D01*
X4881097Y4392689D02*
X4884641D01*
X4882869Y4390917D02*
Y4394461D01*
X4891097Y4392689D02*
X4894640D01*
X4892869Y4390917D02*
Y4394461D01*
X4896097Y4356189D02*
X4899640D01*
X4897869Y4354417D02*
Y4357961D01*
X4906097Y4356189D02*
X4909641D01*
X4907869Y4354417D02*
Y4357961D01*
X4796652Y4234189D02*
X4800195D01*
X4798424Y4232417D02*
Y4235961D01*
X4806652Y4234189D02*
X4810196D01*
X4808424Y4232417D02*
Y4235961D01*
X4653310Y4320374D02*
X4658428D01*
X4655869Y4317815D02*
Y4322933D01*
X4653310Y4310532D02*
X4658428D01*
X4655869Y4307972D02*
Y4313091D01*
X4653310Y4300689D02*
X4658428D01*
X4655869Y4298130D02*
Y4303248D01*
X4653310Y4290847D02*
X4658428D01*
X4655869Y4288287D02*
Y4293406D01*
X4822810Y4336161D02*
X4827928D01*
X4825369Y4333602D02*
Y4338720D01*
X4822810Y4346004D02*
X4827928D01*
X4825369Y4343445D02*
Y4348563D01*
X4822810Y4355846D02*
X4827928D01*
X4825369Y4353287D02*
Y4358405D01*
X4822810Y4365689D02*
X4827928D01*
X4825369Y4363130D02*
Y4368248D01*
X4648658Y4509860D02*
X4652595D01*
X4650626Y4507891D02*
Y4511828D01*
X4648558Y4490569D02*
X4652495D01*
X4650526Y4488600D02*
Y4492537D01*
X4637534Y4500805D02*
X4641471D01*
X4639503Y4498836D02*
Y4502773D01*
X4676269Y4420484D02*
X4677469D01*
X4676869Y4419884D02*
Y4421084D01*
X4982969Y4364389D02*
X4984169D01*
X4983569Y4363789D02*
Y4364989D01*
X4930369Y4386789D02*
X4931569D01*
X4930969Y4386189D02*
Y4387389D01*
X4918369Y4378489D02*
X4919569D01*
X4918969Y4377889D02*
Y4379089D01*
X4916269Y4375189D02*
X4917469D01*
X4916869Y4374589D02*
Y4375789D01*
X4703076Y4425689D02*
X4704276D01*
X4703676Y4425089D02*
Y4426289D01*
X4676269Y4377689D02*
X4677469D01*
X4676869Y4377089D02*
Y4378289D01*
X4741288Y4237189D02*
X4742488D01*
X4741888Y4236589D02*
Y4237789D01*
X4741288Y4233189D02*
X4742488D01*
X4741888Y4232589D02*
Y4233789D01*
X5066769Y4217689D02*
X5067969D01*
X5067369Y4217089D02*
Y4218289D01*
X5070769Y4217689D02*
X5071969D01*
X5071369Y4217089D02*
Y4218289D01*
X5074769Y4217689D02*
X5075969D01*
X5075369Y4217089D02*
Y4218289D01*
X5012769Y4361189D02*
X5013969D01*
X5013369Y4360589D02*
Y4361789D01*
X4983769Y4323189D02*
X4984969D01*
X4984369Y4322589D02*
Y4323789D01*
X4985269Y4334689D02*
X4986469D01*
X4985869Y4334089D02*
Y4335289D01*
X4976769Y4334689D02*
X4977969D01*
X4977369Y4334089D02*
Y4335289D01*
X4988769Y4328189D02*
X4989969D01*
X4989369Y4327589D02*
Y4328789D01*
X4967769Y4350189D02*
X4968969D01*
X4968369Y4349589D02*
Y4350789D01*
X4911269Y4315689D02*
X4912469D01*
X4911869Y4315089D02*
Y4316289D01*
X4906269Y4315689D02*
X4907469D01*
X4906869Y4315089D02*
Y4316289D01*
X5007269Y4444189D02*
X5008469D01*
X5007869Y4443589D02*
Y4444789D01*
X4983769Y4427189D02*
X4984969D01*
X4984369Y4426589D02*
Y4427789D01*
X4978769Y4427189D02*
X4979969D01*
X4979369Y4426589D02*
Y4427789D01*
X4995769Y4407689D02*
X4996969D01*
X4996369Y4407089D02*
Y4408289D01*
X4995769Y4412689D02*
X4996969D01*
X4996369Y4412089D02*
Y4413289D01*
X4990269Y4381689D02*
X4991469D01*
X4990869Y4381089D02*
Y4382289D01*
X4995269Y4386189D02*
X4996469D01*
X4995869Y4385589D02*
Y4386789D01*
X4965269Y4380689D02*
X4966469D01*
X4965869Y4380089D02*
Y4381289D01*
X4949769Y4427189D02*
X4950969D01*
X4950369Y4426589D02*
Y4427789D01*
X4949769Y4393689D02*
X4950969D01*
X4950369Y4393089D02*
Y4394289D01*
X4949769Y4416004D02*
X4950969D01*
X4950369Y4415404D02*
Y4416604D01*
X4932769Y4423189D02*
X4933969D01*
X4933369Y4422589D02*
Y4423789D01*
X4904269Y4323189D02*
X4905469D01*
X4904869Y4322589D02*
Y4323789D01*
X4900269Y4323189D02*
X4901469D01*
X4900869Y4322589D02*
Y4323789D01*
X4896269Y4323189D02*
X4897469D01*
X4896869Y4322589D02*
Y4323789D01*
X4692769Y4434189D02*
X4693969D01*
X4693369Y4433589D02*
Y4434789D01*
X4692769Y4438189D02*
X4693969D01*
X4693369Y4437589D02*
Y4438789D01*
X4692769Y4442189D02*
X4693969D01*
X4693369Y4441589D02*
Y4442789D01*
X4739769Y4284189D02*
X4740969D01*
X4740369Y4283589D02*
Y4284789D01*
X4716269Y4302689D02*
X4717469D01*
X4716869Y4302089D02*
Y4303289D01*
X4720269Y4302689D02*
X4721469D01*
X4720869Y4302089D02*
Y4303289D01*
X4704269Y4313689D02*
X4705469D01*
X4704869Y4313089D02*
Y4314289D01*
X4704269Y4309689D02*
X4705469D01*
X4704869Y4309089D02*
Y4310289D01*
X4737769Y4305189D02*
X4738969D01*
X4738369Y4304589D02*
Y4305789D01*
X4915269Y4364189D02*
X4916469D01*
X4915869Y4363589D02*
Y4364789D01*
X4949769Y4407189D02*
X4950969D01*
X4950369Y4406589D02*
Y4407789D01*
X4714769Y4437689D02*
X4715969D01*
X4715369Y4437089D02*
Y4438289D01*
X4860769Y4350189D02*
X4861969D01*
X4861369Y4349589D02*
Y4350789D01*
X4860269Y4365689D02*
X4861469D01*
X4860869Y4365089D02*
Y4366289D01*
X5006769Y4373189D02*
X5007969D01*
X5007369Y4372589D02*
Y4373789D01*
X5001769Y4373189D02*
X5002969D01*
X5002369Y4372589D02*
Y4373789D01*
X4916269Y4405189D02*
X4917469D01*
X4916869Y4404589D02*
Y4405789D01*
X4916269Y4412689D02*
X4917469D01*
X4916869Y4412089D02*
Y4413289D01*
X4995769Y4441189D02*
X4996969D01*
X4996369Y4440589D02*
Y4441789D01*
X5000769Y4435689D02*
X5001969D01*
X5001369Y4435089D02*
Y4436289D01*
X4916269Y4427689D02*
X4917469D01*
X4916869Y4427089D02*
Y4428289D01*
X4916269Y4420189D02*
X4917469D01*
X4916869Y4419589D02*
Y4420789D01*
X4968769Y4457689D02*
X4969969D01*
X4969369Y4457089D02*
Y4458289D01*
X4920269Y4455189D02*
X4921469D01*
X4920869Y4454589D02*
Y4455789D01*
X4952269Y4465189D02*
X4953469D01*
X4952869Y4464589D02*
Y4465789D01*
X4952269Y4469189D02*
X4953469D01*
X4952869Y4468589D02*
Y4469789D01*
X4922269Y4452189D02*
X4923469D01*
X4922869Y4451589D02*
Y4452789D01*
X5006269Y4458189D02*
X5007469D01*
X5006869Y4457589D02*
Y4458789D01*
X5037269Y4413689D02*
X5038469D01*
X5037869Y4413089D02*
Y4414289D01*
X4947769Y4341189D02*
X4948969D01*
X4948369Y4340589D02*
Y4341789D01*
X4993769Y4323689D02*
X4994969D01*
X4994369Y4323089D02*
Y4324289D01*
X4982769Y4350689D02*
X4983969D01*
X4983369Y4350089D02*
Y4351289D01*
X5040769Y4301189D02*
X5041969D01*
X5041369Y4300589D02*
Y4301789D01*
X5002769Y4460689D02*
X5003969D01*
X5003369Y4460089D02*
Y4461289D01*
X4957269Y4270189D02*
X4958469D01*
X4957869Y4269589D02*
Y4270789D01*
X4957269Y4319189D02*
X4958469D01*
X4957869Y4318589D02*
Y4319789D01*
X4989769Y4319689D02*
X4990969D01*
X4990369Y4319089D02*
Y4320289D01*
X4957269Y4308689D02*
X4958469D01*
X4957869Y4308089D02*
Y4309289D01*
X4957269Y4283189D02*
X4958469D01*
X4957869Y4282589D02*
Y4283789D01*
X4957269Y4293189D02*
X4958469D01*
X4957869Y4292589D02*
Y4293789D01*
X5032269Y4363689D02*
X5033469D01*
X5032869Y4363089D02*
Y4364289D01*
X5036269Y4363689D02*
X5037469D01*
X5036869Y4363089D02*
Y4364289D01*
X5042769Y4379189D02*
X5043969D01*
X5043369Y4378589D02*
Y4379789D01*
X5033769Y4339189D02*
X5034969D01*
X5034369Y4338589D02*
Y4339789D01*
X5033769Y4335189D02*
X5034969D01*
X5034369Y4334589D02*
Y4335789D01*
X5033769Y4331189D02*
X5034969D01*
X5034369Y4330589D02*
Y4331789D01*
X5030269Y4412189D02*
X5031469D01*
X5030869Y4411589D02*
Y4412789D01*
X5028769Y4392189D02*
X5029969D01*
X5029369Y4391589D02*
Y4392789D01*
X5045769Y4386689D02*
X5046969D01*
X5046369Y4386089D02*
Y4387289D01*
X5028769Y4400189D02*
X5029969D01*
X5029369Y4399589D02*
Y4400789D01*
X5033769Y4420689D02*
X5034969D01*
X5034369Y4420089D02*
Y4421289D01*
X5051269Y4400689D02*
X5052469D01*
X5051869Y4400089D02*
Y4401289D01*
X4985269Y4490689D02*
X4986469D01*
X4985869Y4490089D02*
Y4491289D01*
X4989269Y4490689D02*
X4990469D01*
X4989869Y4490089D02*
Y4491289D01*
X4993269Y4490689D02*
X4994469D01*
X4993869Y4490089D02*
Y4491289D01*
X4858269Y4444689D02*
X4859469D01*
X4858869Y4444089D02*
Y4445289D01*
X4854269Y4444689D02*
X4855469D01*
X4854869Y4444089D02*
Y4445289D01*
X4850269Y4444689D02*
X4851469D01*
X4850869Y4444089D02*
Y4445289D01*
X4816769Y4408189D02*
X4817969D01*
X4817369Y4407589D02*
Y4408789D01*
X4812769Y4408189D02*
X4813969D01*
X4813369Y4407589D02*
Y4408789D01*
X4808769Y4408189D02*
X4809969D01*
X4809369Y4407589D02*
Y4408789D01*
X4813269Y4427689D02*
X4814469D01*
X4813869Y4427089D02*
Y4428289D01*
X4817269Y4427689D02*
X4818469D01*
X4817869Y4427089D02*
Y4428289D01*
X4821269Y4427689D02*
X4822469D01*
X4821869Y4427089D02*
Y4428289D01*
X4801269Y4384689D02*
X4802469D01*
X4801869Y4384089D02*
Y4385289D01*
X4797269Y4384689D02*
X4798469D01*
X4797869Y4384089D02*
Y4385289D01*
X4793269Y4384689D02*
X4794469D01*
X4793869Y4384089D02*
Y4385289D01*
X4828269Y4384189D02*
X4829469D01*
X4828869Y4383589D02*
Y4384789D01*
X4832269Y4384189D02*
X4833469D01*
X4832869Y4383589D02*
Y4384789D01*
X5079269Y4404189D02*
X5080469D01*
X5079869Y4403589D02*
Y4404789D01*
X5079269Y4400189D02*
X5080469D01*
X5079869Y4399589D02*
Y4400789D01*
X5079269Y4396189D02*
X5080469D01*
X5079869Y4395589D02*
Y4396789D01*
X5081269Y4358189D02*
X5082469D01*
X5081869Y4357589D02*
Y4358789D01*
X5081269Y4354189D02*
X5082469D01*
X5081869Y4353589D02*
Y4354789D01*
X5081269Y4350189D02*
X5082469D01*
X5081869Y4349589D02*
Y4350789D01*
X5080269Y4255189D02*
X5081469D01*
X5080869Y4254589D02*
Y4255789D01*
X5080269Y4259189D02*
X5081469D01*
X5080869Y4258589D02*
Y4259789D01*
X5080269Y4263189D02*
X5081469D01*
X5080869Y4262589D02*
Y4263789D01*
X5080269Y4309189D02*
X5081469D01*
X5080869Y4308589D02*
Y4309789D01*
X5080269Y4305189D02*
X5081469D01*
X5080869Y4304589D02*
Y4305789D01*
X5080269Y4301189D02*
X5081469D01*
X5080869Y4300589D02*
Y4301789D01*
X4968769Y4405189D02*
X4969969D01*
X4969369Y4404589D02*
Y4405789D01*
X4972769Y4405189D02*
X4973969D01*
X4973369Y4404589D02*
Y4405789D01*
X4976769Y4405189D02*
X4977969D01*
X4977369Y4404589D02*
Y4405789D01*
X4976769Y4409189D02*
X4977969D01*
X4977369Y4408589D02*
Y4409789D01*
X4972769Y4409189D02*
X4973969D01*
X4973369Y4408589D02*
Y4409789D01*
X4968769Y4409189D02*
X4969969D01*
X4969369Y4408589D02*
Y4409789D01*
X5057269Y4433189D02*
X5058469D01*
X5057869Y4432589D02*
Y4433789D01*
X5061269Y4433189D02*
X5062469D01*
X5061869Y4432589D02*
Y4433789D01*
X5065269Y4433189D02*
X5066469D01*
X5065869Y4432589D02*
Y4433789D01*
X5065269Y4437189D02*
X5066469D01*
X5065869Y4436589D02*
Y4437789D01*
X5061269Y4437189D02*
X5062469D01*
X5061869Y4436589D02*
Y4437789D01*
X5057269Y4437189D02*
X5058469D01*
X5057869Y4436589D02*
Y4437789D01*
X5037769Y4485189D02*
X5038969D01*
X5038369Y4484589D02*
Y4485789D01*
X5041769Y4485189D02*
X5042969D01*
X5042369Y4484589D02*
Y4485789D01*
X5045769Y4485189D02*
X5046969D01*
X5046369Y4484589D02*
Y4485789D01*
X5045769Y4489189D02*
X5046969D01*
X5046369Y4488589D02*
Y4489789D01*
X5041769Y4489189D02*
X5042969D01*
X5042369Y4488589D02*
Y4489789D01*
X5037769Y4489189D02*
X5038969D01*
X5038369Y4488589D02*
Y4489789D01*
X5073269Y4481689D02*
X5074469D01*
X5073869Y4481089D02*
Y4482289D01*
X5073269Y4477689D02*
X5074469D01*
X5073869Y4477089D02*
Y4478289D01*
X5073269Y4473689D02*
X5074469D01*
X5073869Y4473089D02*
Y4474289D01*
X5077269Y4473689D02*
X5078469D01*
X5077869Y4473089D02*
Y4474289D01*
X5077269Y4477689D02*
X5078469D01*
X5077869Y4477089D02*
Y4478289D01*
X5077269Y4481689D02*
X5078469D01*
X5077869Y4481089D02*
Y4482289D01*
X5076769Y4520689D02*
X5077969D01*
X5077369Y4520089D02*
Y4521289D01*
X5072769Y4520689D02*
X5073969D01*
X5073369Y4520089D02*
Y4521289D01*
X5068769Y4520689D02*
X5069969D01*
X5069369Y4520089D02*
Y4521289D01*
X5068769Y4516689D02*
X5069969D01*
X5069369Y4516089D02*
Y4517289D01*
X5072769Y4516689D02*
X5073969D01*
X5073369Y4516089D02*
Y4517289D01*
X5076769Y4516689D02*
X5077969D01*
X5077369Y4516089D02*
Y4517289D01*
X5013269Y4520689D02*
X5014469D01*
X5013869Y4520089D02*
Y4521289D01*
X5009269Y4520689D02*
X5010469D01*
X5009869Y4520089D02*
Y4521289D01*
X5005269Y4520689D02*
X5006469D01*
X5005869Y4520089D02*
Y4521289D01*
X5005269Y4516689D02*
X5006469D01*
X5005869Y4516089D02*
Y4517289D01*
X5009269Y4516689D02*
X5010469D01*
X5009869Y4516089D02*
Y4517289D01*
X5013269Y4516689D02*
X5014469D01*
X5013869Y4516089D02*
Y4517289D01*
X4906269Y4485189D02*
X4907469D01*
X4906869Y4484589D02*
Y4485789D01*
X4902269Y4485189D02*
X4903469D01*
X4902869Y4484589D02*
Y4485789D01*
X4898269Y4485189D02*
X4899469D01*
X4898869Y4484589D02*
Y4485789D01*
X4898269Y4481189D02*
X4899469D01*
X4898869Y4480589D02*
Y4481789D01*
X4902269Y4481189D02*
X4903469D01*
X4902869Y4480589D02*
Y4481789D01*
X4906269Y4481189D02*
X4907469D01*
X4906869Y4480589D02*
Y4481789D01*
X4906269Y4520689D02*
X4907469D01*
X4906869Y4520089D02*
Y4521289D01*
X4902269Y4520689D02*
X4903469D01*
X4902869Y4520089D02*
Y4521289D01*
X4898269Y4520689D02*
X4899469D01*
X4898869Y4520089D02*
Y4521289D01*
X4898269Y4516689D02*
X4899469D01*
X4898869Y4516089D02*
Y4517289D01*
X4902269Y4516689D02*
X4903469D01*
X4902869Y4516089D02*
Y4517289D01*
X4906269Y4516689D02*
X4907469D01*
X4906869Y4516089D02*
Y4517289D01*
X4684769Y4513689D02*
X4685969D01*
X4685369Y4513089D02*
Y4514289D01*
X4680769Y4513689D02*
X4681969D01*
X4681369Y4513089D02*
Y4514289D01*
X4676769Y4513689D02*
X4677969D01*
X4677369Y4513089D02*
Y4514289D01*
X4676769Y4509689D02*
X4677969D01*
X4677369Y4509089D02*
Y4510289D01*
X4680769Y4509689D02*
X4681969D01*
X4681369Y4509089D02*
Y4510289D01*
X4684769Y4509689D02*
X4685969D01*
X4685369Y4509089D02*
Y4510289D01*
X4826269Y4472189D02*
X4827469D01*
X4826869Y4471589D02*
Y4472789D01*
X4790269Y4442689D02*
X4791469D01*
X4790869Y4442089D02*
Y4443289D01*
X4713269Y4390189D02*
X4714469D01*
X4713869Y4389589D02*
Y4390789D01*
X4774969Y4451689D02*
X4776169D01*
X4775569Y4451089D02*
Y4452289D01*
X4817269Y4450189D02*
X4818469D01*
X4817869Y4449589D02*
Y4450789D01*
X4912769Y4303189D02*
X4913969D01*
X4913369Y4302589D02*
Y4303789D01*
X4908769Y4303189D02*
X4909969D01*
X4909369Y4302589D02*
Y4303789D01*
X4904769Y4303189D02*
X4905969D01*
X4905369Y4302589D02*
Y4303789D01*
X4904769Y4299189D02*
X4905969D01*
X4905369Y4298589D02*
Y4299789D01*
X4908769Y4299189D02*
X4909969D01*
X4909369Y4298589D02*
Y4299789D01*
X4912769Y4299189D02*
X4913969D01*
X4913369Y4298589D02*
Y4299789D01*
X4831769Y4302189D02*
X4832969D01*
X4832369Y4301589D02*
Y4302789D01*
X4827769Y4302189D02*
X4828969D01*
X4828369Y4301589D02*
Y4302789D01*
X4823769Y4302189D02*
X4824969D01*
X4824369Y4301589D02*
Y4302789D01*
X4823769Y4298189D02*
X4824969D01*
X4824369Y4297589D02*
Y4298789D01*
X4827769Y4298189D02*
X4828969D01*
X4828369Y4297589D02*
Y4298789D01*
X4831769Y4298189D02*
X4832969D01*
X4832369Y4297589D02*
Y4298789D01*
X4781769Y4304689D02*
X4782969D01*
X4782369Y4304089D02*
Y4305289D01*
X4777769Y4304689D02*
X4778969D01*
X4778369Y4304089D02*
Y4305289D01*
X4773769Y4304689D02*
X4774969D01*
X4774369Y4304089D02*
Y4305289D01*
X4773769Y4300689D02*
X4774969D01*
X4774369Y4300089D02*
Y4301289D01*
X4777769Y4300689D02*
X4778969D01*
X4778369Y4300089D02*
Y4301289D01*
X4781769Y4300689D02*
X4782969D01*
X4782369Y4300089D02*
Y4301289D01*
X4800269Y4352189D02*
X4801469D01*
X4800869Y4351589D02*
Y4352789D01*
X4796269Y4352189D02*
X4797469D01*
X4796869Y4351589D02*
Y4352789D01*
X4792269Y4352189D02*
X4793469D01*
X4792869Y4351589D02*
Y4352789D01*
X4792269Y4348189D02*
X4793469D01*
X4792869Y4347589D02*
Y4348789D01*
X4796269Y4348189D02*
X4797469D01*
X4796869Y4347589D02*
Y4348789D01*
X4800269Y4348189D02*
X4801469D01*
X4800869Y4347589D02*
Y4348789D01*
X4700269Y4356689D02*
X4701469D01*
X4700869Y4356089D02*
Y4357289D01*
X4696269Y4356689D02*
X4697469D01*
X4696869Y4356089D02*
Y4357289D01*
X4692269Y4356689D02*
X4693469D01*
X4692869Y4356089D02*
Y4357289D01*
X4692269Y4352689D02*
X4693469D01*
X4692869Y4352089D02*
Y4353289D01*
X4696269Y4352689D02*
X4697469D01*
X4696869Y4352089D02*
Y4353289D01*
X4700269Y4352689D02*
X4701469D01*
X4700869Y4352089D02*
Y4353289D01*
X4648769Y4401189D02*
X4649969D01*
X4649369Y4400589D02*
Y4401789D01*
X4644769Y4401189D02*
X4645969D01*
X4645369Y4400589D02*
Y4401789D01*
X4640769Y4401189D02*
X4641969D01*
X4641369Y4400589D02*
Y4401789D01*
X4640769Y4397189D02*
X4641969D01*
X4641369Y4396589D02*
Y4397789D01*
X4644769Y4397189D02*
X4645969D01*
X4645369Y4396589D02*
Y4397789D01*
X4648769Y4397189D02*
X4649969D01*
X4649369Y4396589D02*
Y4397789D01*
X4650269Y4355689D02*
X4651469D01*
X4650869Y4355089D02*
Y4356289D01*
X4646269Y4355689D02*
X4647469D01*
X4646869Y4355089D02*
Y4356289D01*
X4642269Y4355689D02*
X4643469D01*
X4642869Y4355089D02*
Y4356289D01*
X4642269Y4351689D02*
X4643469D01*
X4642869Y4351089D02*
Y4352289D01*
X4646269Y4351689D02*
X4647469D01*
X4646869Y4351089D02*
Y4352289D01*
X4650269Y4351689D02*
X4651469D01*
X4650869Y4351089D02*
Y4352289D01*
X5001269Y4307189D02*
X5002469D01*
X5001869Y4306589D02*
Y4307789D01*
X4997269Y4307189D02*
X4998469D01*
X4997869Y4306589D02*
Y4307789D01*
X4993269Y4307189D02*
X4994469D01*
X4993869Y4306589D02*
Y4307789D01*
X4993269Y4303189D02*
X4994469D01*
X4993869Y4302589D02*
Y4303789D01*
X4997269Y4303189D02*
X4998469D01*
X4997869Y4302589D02*
Y4303789D01*
X5001269Y4303189D02*
X5002469D01*
X5001869Y4302589D02*
Y4303789D01*
X5000769Y4263189D02*
X5001969D01*
X5001369Y4262589D02*
Y4263789D01*
X4996769Y4263189D02*
X4997969D01*
X4997369Y4262589D02*
Y4263789D01*
X4992769Y4263189D02*
X4993969D01*
X4993369Y4262589D02*
Y4263789D01*
X4992769Y4259189D02*
X4993969D01*
X4993369Y4258589D02*
Y4259789D01*
X4996769Y4259189D02*
X4997969D01*
X4997369Y4258589D02*
Y4259789D01*
X5000769Y4259189D02*
X5001969D01*
X5001369Y4258589D02*
Y4259789D01*
X4926769Y4258689D02*
X4927969D01*
X4927369Y4258089D02*
Y4259289D01*
X4922769Y4258689D02*
X4923969D01*
X4923369Y4258089D02*
Y4259289D01*
X4918769Y4258689D02*
X4919969D01*
X4919369Y4258089D02*
Y4259289D01*
X4918769Y4254689D02*
X4919969D01*
X4919369Y4254089D02*
Y4255289D01*
X4922769Y4254689D02*
X4923969D01*
X4923369Y4254089D02*
Y4255289D01*
X4926769Y4254689D02*
X4927969D01*
X4927369Y4254089D02*
Y4255289D01*
X4992269Y4221689D02*
X4993469D01*
X4992869Y4221089D02*
Y4222289D01*
X4988269Y4221689D02*
X4989469D01*
X4988869Y4221089D02*
Y4222289D01*
X4984269Y4221689D02*
X4985469D01*
X4984869Y4221089D02*
Y4222289D01*
X4984269Y4217689D02*
X4985469D01*
X4984869Y4217089D02*
Y4218289D01*
X4988269Y4217689D02*
X4989469D01*
X4988869Y4217089D02*
Y4218289D01*
X4992269Y4217689D02*
X4993469D01*
X4992869Y4217089D02*
Y4218289D01*
X4938769Y4222189D02*
X4939969D01*
X4939369Y4221589D02*
Y4222789D01*
X4934769Y4222189D02*
X4935969D01*
X4935369Y4221589D02*
Y4222789D01*
X4930769Y4222189D02*
X4931969D01*
X4931369Y4221589D02*
Y4222789D01*
X4930769Y4218189D02*
X4931969D01*
X4931369Y4217589D02*
Y4218789D01*
X4934769Y4218189D02*
X4935969D01*
X4935369Y4217589D02*
Y4218789D01*
X4938769Y4218189D02*
X4939969D01*
X4939369Y4217589D02*
Y4218789D01*
X4887769Y4222689D02*
X4888969D01*
X4888369Y4222089D02*
Y4223289D01*
X4883769Y4222689D02*
X4884969D01*
X4884369Y4222089D02*
Y4223289D01*
X4879769Y4222689D02*
X4880969D01*
X4880369Y4222089D02*
Y4223289D01*
X4879769Y4218689D02*
X4880969D01*
X4880369Y4218089D02*
Y4219289D01*
X4883769Y4218689D02*
X4884969D01*
X4884369Y4218089D02*
Y4219289D01*
X4887769Y4218689D02*
X4888969D01*
X4888369Y4218089D02*
Y4219289D01*
X4888769Y4264189D02*
X4889969D01*
X4889369Y4263589D02*
Y4264789D01*
X4884769Y4264189D02*
X4885969D01*
X4885369Y4263589D02*
Y4264789D01*
X4880769Y4264189D02*
X4881969D01*
X4881369Y4263589D02*
Y4264789D01*
X4880769Y4260189D02*
X4881969D01*
X4881369Y4259589D02*
Y4260789D01*
X4884769Y4260189D02*
X4885969D01*
X4885369Y4259589D02*
Y4260789D01*
X4888769Y4260189D02*
X4889969D01*
X4889369Y4259589D02*
Y4260789D01*
X4833269Y4264189D02*
X4834469D01*
X4833869Y4263589D02*
Y4264789D01*
X4829269Y4264189D02*
X4830469D01*
X4829869Y4263589D02*
Y4264789D01*
X4825269Y4264189D02*
X4826469D01*
X4825869Y4263589D02*
Y4264789D01*
X4825269Y4260189D02*
X4826469D01*
X4825869Y4259589D02*
Y4260789D01*
X4829269Y4260189D02*
X4830469D01*
X4829869Y4259589D02*
Y4260789D01*
X4833269Y4260189D02*
X4834469D01*
X4833869Y4259589D02*
Y4260789D01*
X4834769Y4223189D02*
X4835969D01*
X4835369Y4222589D02*
Y4223789D01*
X4830769Y4223189D02*
X4831969D01*
X4831369Y4222589D02*
Y4223789D01*
X4826769Y4223189D02*
X4827969D01*
X4827369Y4222589D02*
Y4223789D01*
X4826769Y4219189D02*
X4827969D01*
X4827369Y4218589D02*
Y4219789D01*
X4830769Y4219189D02*
X4831969D01*
X4831369Y4218589D02*
Y4219789D01*
X4834769Y4219189D02*
X4835969D01*
X4835369Y4218589D02*
Y4219789D01*
X4779269Y4222689D02*
X4780469D01*
X4779869Y4222089D02*
Y4223289D01*
X4775269Y4222689D02*
X4776469D01*
X4775869Y4222089D02*
Y4223289D01*
X4771269Y4222689D02*
X4772469D01*
X4771869Y4222089D02*
Y4223289D01*
X4771269Y4218689D02*
X4772469D01*
X4771869Y4218089D02*
Y4219289D01*
X4775269Y4218689D02*
X4776469D01*
X4775869Y4218089D02*
Y4219289D01*
X4779269Y4218689D02*
X4780469D01*
X4779869Y4218089D02*
Y4219289D01*
X4695269Y4222189D02*
X4696469D01*
X4695869Y4221589D02*
Y4222789D01*
X4691269Y4222189D02*
X4692469D01*
X4691869Y4221589D02*
Y4222789D01*
X4687269Y4222189D02*
X4688469D01*
X4687869Y4221589D02*
Y4222789D01*
X4687269Y4218189D02*
X4688469D01*
X4687869Y4217589D02*
Y4218789D01*
X4691269Y4218189D02*
X4692469D01*
X4691869Y4217589D02*
Y4218789D01*
X4695269Y4218189D02*
X4696469D01*
X4695869Y4217589D02*
Y4218789D01*
X4780769Y4260189D02*
X4781969D01*
X4781369Y4259589D02*
Y4260789D01*
X4776769Y4260189D02*
X4777969D01*
X4777369Y4259589D02*
Y4260789D01*
X4772769Y4260189D02*
X4773969D01*
X4773369Y4259589D02*
Y4260789D01*
X4712269Y4260689D02*
X4713469D01*
X4712869Y4260089D02*
Y4261289D01*
X4708269Y4260689D02*
X4709469D01*
X4708869Y4260089D02*
Y4261289D01*
X4704269Y4260689D02*
X4705469D01*
X4704869Y4260089D02*
Y4261289D01*
X4644269Y4260689D02*
X4645469D01*
X4644869Y4260089D02*
Y4261289D01*
X4648269Y4260689D02*
X4649469D01*
X4648869Y4260089D02*
Y4261289D01*
X4652269Y4260689D02*
X4653469D01*
X4652869Y4260089D02*
Y4261289D01*
X4772769Y4264189D02*
X4773969D01*
X4773369Y4263589D02*
Y4264789D01*
X4776769Y4264189D02*
X4777969D01*
X4777369Y4263589D02*
Y4264789D01*
X4780769Y4264189D02*
X4781969D01*
X4781369Y4263589D02*
Y4264789D01*
X4704269Y4264689D02*
X4705469D01*
X4704869Y4264089D02*
Y4265289D01*
X4708269Y4264689D02*
X4709469D01*
X4708869Y4264089D02*
Y4265289D01*
X4712269Y4264689D02*
X4713469D01*
X4712869Y4264089D02*
Y4265289D01*
X4652269Y4265189D02*
X4653469D01*
X4652869Y4264589D02*
Y4265789D01*
X4648269Y4265189D02*
X4649469D01*
X4648869Y4264589D02*
Y4265789D01*
X4644269Y4265189D02*
X4645469D01*
X4644869Y4264589D02*
Y4265789D01*
X4933769Y4436689D02*
X4934969D01*
X4934369Y4436089D02*
Y4437289D01*
X4944269Y4437689D02*
X4945469D01*
X4944869Y4437089D02*
Y4438289D01*
X4933269Y4448189D02*
X4934469D01*
X4933869Y4447589D02*
Y4448789D01*
X4821269Y4311689D02*
X4822469D01*
X4821869Y4311089D02*
Y4312289D01*
X4825269Y4311689D02*
X4826469D01*
X4825869Y4311089D02*
Y4312289D01*
X4885769Y4311636D02*
X4886969D01*
X4886369Y4311036D02*
Y4312235D01*
X4878769Y4319189D02*
X4879969D01*
X4879369Y4318589D02*
Y4319789D01*
X4935769Y4375189D02*
X4936969D01*
X4936369Y4374589D02*
Y4375789D01*
X4932269Y4368689D02*
X4933469D01*
X4932869Y4368089D02*
Y4369289D01*
X5013269Y4445189D02*
X5014469D01*
X5013869Y4444589D02*
Y4445789D01*
X4979769Y4502689D02*
X4980969D01*
X4980369Y4502089D02*
Y4503289D01*
X4944269Y4442189D02*
X4945469D01*
X4944869Y4441589D02*
Y4442789D01*
X5006269Y4432689D02*
X5007469D01*
X5006869Y4432089D02*
Y4433289D01*
X5012909Y4432330D02*
X5014109D01*
X5013509Y4431730D02*
Y4432930D01*
X5013269Y4393189D02*
X5014469D01*
X5013869Y4392589D02*
Y4393789D01*
X4889769Y4311636D02*
X4890969D01*
X4890369Y4311036D02*
Y4312235D01*
X4874769Y4319189D02*
X4875969D01*
X4875369Y4318589D02*
Y4319789D01*
X4941769Y4509189D02*
X4942969D01*
X4942369Y4508589D02*
Y4509789D01*
X4743107Y4399339D02*
X4744307D01*
X4743707Y4398738D02*
Y4399939D01*
X4751269Y4363689D02*
X4752469D01*
X4751869Y4363089D02*
Y4364289D01*
X4717363Y4453256D02*
X4718563D01*
X4717963Y4452656D02*
Y4453856D01*
X4819497Y4472195D02*
X4820697D01*
X4820097Y4471595D02*
Y4472794D01*
X4860769Y4404689D02*
X4861969D01*
X4861369Y4404089D02*
Y4405289D01*
X4860718Y4423058D02*
X4861917D01*
X4861317Y4422458D02*
Y4423658D01*
X4837509Y4410689D02*
X4838709D01*
X4838109Y4410089D02*
Y4411289D01*
X4837509Y4423058D02*
X4838709D01*
X4838109Y4422458D02*
Y4423658D01*
X4852269Y4434689D02*
X4853469D01*
X4852869Y4434089D02*
Y4435289D01*
X4853269Y4422689D02*
X4854469D01*
X4853869Y4422089D02*
Y4423289D01*
X4771836Y4464689D02*
X4773036D01*
X4772436Y4464089D02*
Y4465289D01*
X4828674Y4449689D02*
X4829874D01*
X4829274Y4449089D02*
Y4450289D01*
X4942769Y4372189D02*
X4943969D01*
X4943369Y4371589D02*
Y4372789D01*
X4953731Y4481207D02*
X4954931D01*
X4954331Y4480607D02*
Y4481807D01*
X4987769Y4470689D02*
X4988969D01*
X4988369Y4470089D02*
Y4471289D01*
X5004287Y4452707D02*
X5005487D01*
X5004887Y4452107D02*
Y4453307D01*
X4969269Y4441189D02*
X4970469D01*
X4969869Y4440589D02*
Y4441789D01*
X4964769Y4441689D02*
X4965969D01*
X4965369Y4441089D02*
Y4442289D01*
X5012452Y4400189D02*
X5013652D01*
X5013052Y4399589D02*
Y4400789D01*
X5011269Y4378189D02*
X5012469D01*
X5011869Y4377589D02*
Y4378789D01*
X4844769Y4336689D02*
X4845969D01*
X4845369Y4336089D02*
Y4337289D01*
X4916269Y4397689D02*
X4917469D01*
X4916869Y4397089D02*
Y4398289D01*
X4905269Y4375689D02*
X4906469D01*
X4905869Y4375089D02*
Y4376289D01*
X4844769Y4360689D02*
X4845969D01*
X4845369Y4360089D02*
Y4361289D01*
X4850269Y4379689D02*
X4851469D01*
X4850869Y4379089D02*
Y4380289D01*
X4916269Y4386689D02*
X4917469D01*
X4916869Y4386089D02*
Y4387289D01*
X4931769Y4397689D02*
X4932969D01*
X4932369Y4397089D02*
Y4398289D01*
X4931769Y4406689D02*
X4932969D01*
X4932369Y4406089D02*
Y4407289D01*
X4936269Y4445189D02*
X4937469D01*
X4936869Y4444589D02*
Y4445789D01*
X4953769Y4350189D02*
X4954969D01*
X4954369Y4349589D02*
Y4350789D01*
X4967269Y4241689D02*
X4968469D01*
X4967869Y4241089D02*
Y4242289D01*
X4969769Y4365689D02*
X4970969D01*
X4970369Y4365089D02*
Y4366289D01*
X4952269Y4279689D02*
X4953469D01*
X4952869Y4279089D02*
Y4280289D01*
X4941269Y4281189D02*
X4942469D01*
X4941869Y4280589D02*
Y4281789D01*
X4967269Y4303689D02*
X4968469D01*
X4967869Y4303089D02*
Y4304289D01*
X4967787Y4288689D02*
X4968987D01*
X4968387Y4288089D02*
Y4289289D01*
X4967769Y4314189D02*
X4968969D01*
X4968369Y4313589D02*
Y4314789D01*
X4967769Y4331689D02*
X4968969D01*
X4968369Y4331089D02*
Y4332289D01*
X5052769Y4273689D02*
X5053969D01*
X5053369Y4273089D02*
Y4274289D01*
X5024869Y4300984D02*
X5026069D01*
X5025469Y4300384D02*
Y4301584D01*
X4879769Y4412189D02*
X4880969D01*
X4880369Y4411589D02*
Y4412789D01*
X5028269Y4331189D02*
X5029469D01*
X5028869Y4330589D02*
Y4331789D01*
X4881769Y4351689D02*
X4882969D01*
X4882369Y4351089D02*
Y4352289D01*
X4881769Y4347689D02*
X4882969D01*
X4882369Y4347089D02*
Y4348289D01*
X4881769Y4343689D02*
X4882969D01*
X4882369Y4343089D02*
Y4344289D01*
X4883269Y4438189D02*
X4884469D01*
X4883869Y4437589D02*
Y4438789D01*
X4883269Y4442189D02*
X4884469D01*
X4883869Y4441589D02*
Y4442789D01*
X4883269Y4446189D02*
X4884469D01*
X4883869Y4445589D02*
Y4446789D01*
X4877269Y4431189D02*
X4878469D01*
X4877869Y4430589D02*
Y4431789D01*
X4877269Y4423189D02*
X4878469D01*
X4877869Y4422589D02*
Y4423789D01*
X4793769Y4466189D02*
X4794969D01*
X4794369Y4465589D02*
Y4466789D01*
X4850269Y4371189D02*
X4851469D01*
X4850869Y4370589D02*
Y4371789D01*
X4900269Y4395689D02*
X4901469D01*
X4900869Y4395089D02*
Y4396289D01*
X4767702Y4464689D02*
X4768902D01*
X4768302Y4464089D02*
Y4465289D01*
X4815363Y4472195D02*
X4816563D01*
X4815963Y4471595D02*
Y4472794D01*
X4824540Y4449689D02*
X4825740D01*
X4825140Y4449089D02*
Y4450289D01*
X4717363Y4449122D02*
X4718563D01*
X4717963Y4448522D02*
Y4449722D01*
X4941769Y4505189D02*
X4942969D01*
X4942369Y4504589D02*
Y4505789D01*
X4870202Y4465689D02*
X4871402D01*
X4870802Y4465089D02*
Y4466289D01*
X4874336Y4465689D02*
X4875536D01*
X4874936Y4465089D02*
Y4466289D01*
M02*
