%FSLAX25Y25*%
%MOIN*%
G70*
G01*
G75*
G04 Layer_Color=8421504*
%ADD10C,0.01969*%
%ADD11R,0.03543X0.03150*%
%ADD12R,0.03150X0.03543*%
%ADD13R,0.04724X0.08661*%
%ADD14R,0.13780X0.08661*%
%ADD15R,0.05512X0.03937*%
%ADD16R,0.03937X0.05512*%
%ADD17R,0.18110X0.07087*%
%ADD18O,0.00709X0.06299*%
%ADD19O,0.06299X0.00709*%
%ADD20O,0.04921X0.01575*%
%ADD21R,0.05118X0.04724*%
%ADD22R,0.04724X0.05118*%
%ADD23R,0.04331X0.03937*%
%ADD24R,0.03937X0.04331*%
%ADD25O,0.08661X0.02362*%
%ADD26R,0.08661X0.02362*%
%ADD27R,0.07874X0.21654*%
%ADD28R,0.03937X0.02362*%
%ADD29C,0.02000*%
%ADD30C,0.00600*%
%ADD31C,0.00787*%
%ADD32C,0.00700*%
%ADD33C,0.04000*%
%ADD34C,0.01000*%
%ADD35C,0.01500*%
%ADD36C,0.31032*%
%ADD37C,0.11024*%
%ADD38C,0.09449*%
%ADD39R,0.07874X0.11811*%
%ADD40O,0.05906X0.07087*%
%ADD41R,0.05906X0.07087*%
%ADD42O,0.05512X0.06693*%
%ADD43R,0.05512X0.06693*%
%ADD44O,0.06693X0.05512*%
%ADD45R,0.06693X0.05512*%
%ADD46C,0.06693*%
%ADD47C,0.03937*%
%ADD48O,0.11811X0.07000*%
%ADD49O,0.07000X0.11811*%
%ADD50C,0.02500*%
%ADD51C,0.08000*%
%ADD52C,0.00800*%
%ADD53C,0.00984*%
%ADD54C,0.02362*%
D10*
X4951427Y4517048D02*
D03*
X4759469Y4439489D02*
D03*
X4784369Y4430789D02*
D03*
D11*
X5045369Y4461189D02*
D03*
X5050487D02*
D03*
X5032351D02*
D03*
X5037469D02*
D03*
X5011887Y4479689D02*
D03*
X5006769D02*
D03*
X5011637Y4472189D02*
D03*
X5006519D02*
D03*
X5044737Y4517689D02*
D03*
X5039619D02*
D03*
X5010487Y4487189D02*
D03*
X5005369D02*
D03*
X4745732Y4347689D02*
D03*
X4750851D02*
D03*
X4762551Y4347589D02*
D03*
X4767669D02*
D03*
X4866558Y4423058D02*
D03*
X4871676D02*
D03*
X5034987Y4292689D02*
D03*
X5029869D02*
D03*
X4940351Y4293689D02*
D03*
X4945469D02*
D03*
X4843349Y4423058D02*
D03*
X4848467D02*
D03*
X4797388Y4423689D02*
D03*
X4802507D02*
D03*
X4703676Y4404209D02*
D03*
X4708794D02*
D03*
X4940251Y4301189D02*
D03*
X4945369D02*
D03*
X4921361Y4498689D02*
D03*
X4916243D02*
D03*
X4922351Y4435189D02*
D03*
X4927469D02*
D03*
X4942351Y4308689D02*
D03*
X4947469D02*
D03*
X4942351Y4316189D02*
D03*
X4947469D02*
D03*
X5034387Y4318189D02*
D03*
X5029269D02*
D03*
X5034369Y4310689D02*
D03*
X5029251D02*
D03*
X5047387Y4315689D02*
D03*
X5042269D02*
D03*
X5047387Y4308189D02*
D03*
X5042269D02*
D03*
X5048487Y4296689D02*
D03*
X5043369D02*
D03*
X4968387Y4270189D02*
D03*
X4963269D02*
D03*
X4778387Y4405689D02*
D03*
X4773269D02*
D03*
X4734487Y4404689D02*
D03*
X4729369D02*
D03*
X5048887Y4265689D02*
D03*
X5043769D02*
D03*
X5048887Y4258189D02*
D03*
X5043769D02*
D03*
X4940351Y4286139D02*
D03*
X4945469D02*
D03*
X4855969Y4358189D02*
D03*
X4850851D02*
D03*
Y4343189D02*
D03*
X4855969D02*
D03*
Y4350689D02*
D03*
X4850851D02*
D03*
X4780444Y4444189D02*
D03*
X4785562D02*
D03*
X4730680D02*
D03*
X4725562D02*
D03*
X4850851Y4335689D02*
D03*
X4855969D02*
D03*
X4785562Y4451689D02*
D03*
X4780444D02*
D03*
X4725562D02*
D03*
X4730680D02*
D03*
X4792851Y4396189D02*
D03*
X4797969D02*
D03*
X4732006Y4387689D02*
D03*
X4726888D02*
D03*
X4941851Y4276189D02*
D03*
X4946969D02*
D03*
X4910887Y4392689D02*
D03*
X4905769D02*
D03*
X4922351Y4420189D02*
D03*
X4927469D02*
D03*
X4922351Y4412689D02*
D03*
X4927469D02*
D03*
X4721587Y4404689D02*
D03*
X4716469D02*
D03*
X4871676Y4430689D02*
D03*
X4866558D02*
D03*
X4868920Y4448189D02*
D03*
X4874038D02*
D03*
X4848467Y4430689D02*
D03*
X4843349D02*
D03*
X4762487Y4355689D02*
D03*
X4757369D02*
D03*
X4762487Y4363689D02*
D03*
X4757369D02*
D03*
X5018851Y4378189D02*
D03*
X5023969D02*
D03*
X5019174Y4392189D02*
D03*
X5024292D02*
D03*
X5018933Y4432330D02*
D03*
X5024051D02*
D03*
X4927387Y4375189D02*
D03*
X4922269D02*
D03*
X5019174Y4400189D02*
D03*
X5024292D02*
D03*
X5018851Y4439689D02*
D03*
X5023969D02*
D03*
X4840987Y4448189D02*
D03*
X4835869D02*
D03*
X4910887Y4380689D02*
D03*
X4905769D02*
D03*
X4802507Y4431189D02*
D03*
X4797388D02*
D03*
X4799751Y4448189D02*
D03*
X4804869D02*
D03*
X4708794Y4396709D02*
D03*
X4703676D02*
D03*
X5020629Y4412189D02*
D03*
X5025747D02*
D03*
X4927387Y4397689D02*
D03*
X4922269D02*
D03*
X4927387Y4405189D02*
D03*
X4922269D02*
D03*
X4927387Y4427689D02*
D03*
X4922269D02*
D03*
X4927387Y4442689D02*
D03*
X4922269D02*
D03*
X4755878Y4430189D02*
D03*
X4750760D02*
D03*
X4921361Y4491189D02*
D03*
X4916243D02*
D03*
X4803151Y4242789D02*
D03*
X4808269D02*
D03*
X4927387Y4386689D02*
D03*
X4922269D02*
D03*
X4674387Y4456589D02*
D03*
X4669269D02*
D03*
X4705885Y4321189D02*
D03*
X4711002D02*
D03*
X4784851Y4405689D02*
D03*
X4789969D02*
D03*
X4731987Y4305689D02*
D03*
X4726869D02*
D03*
X4681987Y4378689D02*
D03*
X4676869D02*
D03*
X4968369Y4326689D02*
D03*
X4963251D02*
D03*
X4968369Y4319189D02*
D03*
X4963251D02*
D03*
X4968387Y4293307D02*
D03*
X4963269D02*
D03*
X4968387Y4308689D02*
D03*
X4963269D02*
D03*
X4968387Y4283189D02*
D03*
X4963269D02*
D03*
X4967869Y4247244D02*
D03*
X4962751D02*
D03*
X5030601Y4300984D02*
D03*
X5035719D02*
D03*
X4708794Y4435189D02*
D03*
X4703676D02*
D03*
X5029269Y4325689D02*
D03*
X5034387D02*
D03*
X4850851Y4365689D02*
D03*
X4855969D02*
D03*
X4754487Y4239189D02*
D03*
X4749369D02*
D03*
X4857251Y4252689D02*
D03*
X4862369D02*
D03*
D12*
X5013369Y4507257D02*
D03*
Y4502139D02*
D03*
X4992369Y4452707D02*
D03*
Y4447589D02*
D03*
X4981869Y4345207D02*
D03*
Y4340089D02*
D03*
X4989369Y4345207D02*
D03*
Y4340089D02*
D03*
X4996869Y4345207D02*
D03*
Y4340089D02*
D03*
X5004369Y4345207D02*
D03*
Y4340089D02*
D03*
X5011869Y4345207D02*
D03*
Y4340089D02*
D03*
X5019369Y4345207D02*
D03*
Y4340089D02*
D03*
X5026869Y4345207D02*
D03*
Y4340089D02*
D03*
X4988369Y4460671D02*
D03*
Y4465789D02*
D03*
X4995869Y4465707D02*
D03*
Y4460589D02*
D03*
X5053369Y4279689D02*
D03*
Y4284807D02*
D03*
X5045869D02*
D03*
Y4279689D02*
D03*
X4781369Y4417957D02*
D03*
Y4412839D02*
D03*
X4725378Y4417689D02*
D03*
Y4412571D02*
D03*
X5035869Y4265207D02*
D03*
Y4260089D02*
D03*
X4746869Y4295689D02*
D03*
Y4300807D02*
D03*
X4760869Y4295689D02*
D03*
Y4300807D02*
D03*
X4959207Y4481207D02*
D03*
Y4476089D02*
D03*
X4953869Y4451207D02*
D03*
Y4446089D02*
D03*
X4967869Y4481207D02*
D03*
Y4476089D02*
D03*
X4975369Y4481707D02*
D03*
Y4476589D02*
D03*
X4774869Y4417957D02*
D03*
Y4412839D02*
D03*
X4732869Y4412571D02*
D03*
Y4417689D02*
D03*
X4987869Y4502139D02*
D03*
Y4507257D02*
D03*
X4948869Y4509689D02*
D03*
Y4514807D02*
D03*
X4935369Y4360707D02*
D03*
Y4355589D02*
D03*
X4956869Y4360707D02*
D03*
Y4355589D02*
D03*
X4787869Y4417961D02*
D03*
Y4412843D02*
D03*
X4717869Y4417689D02*
D03*
Y4412571D02*
D03*
X4961369Y4446171D02*
D03*
Y4451289D02*
D03*
X4983444Y4360707D02*
D03*
Y4355589D02*
D03*
X4984869Y4447671D02*
D03*
Y4452789D02*
D03*
X4968369Y4360707D02*
D03*
Y4355589D02*
D03*
X4999869Y4452707D02*
D03*
Y4447589D02*
D03*
X4968869Y4446171D02*
D03*
Y4451289D02*
D03*
X4933369Y4511189D02*
D03*
Y4516307D02*
D03*
X4815869Y4306571D02*
D03*
Y4311689D02*
D03*
X5029869Y4284807D02*
D03*
Y4279689D02*
D03*
X5005369Y4502139D02*
D03*
Y4507257D02*
D03*
X4753995Y4300807D02*
D03*
Y4295689D02*
D03*
X4980869Y4460671D02*
D03*
Y4465789D02*
D03*
X4871869Y4306517D02*
D03*
Y4311636D02*
D03*
X4706869Y4285567D02*
D03*
Y4280449D02*
D03*
X4689369Y4285567D02*
D03*
Y4280449D02*
D03*
D13*
X4790314Y4263779D02*
D03*
X4799369D02*
D03*
X4808424D02*
D03*
X4685924Y4444894D02*
D03*
X4676869D02*
D03*
X4667813D02*
D03*
X4862424Y4263779D02*
D03*
X4853369D02*
D03*
X4844313D02*
D03*
D14*
X4799369Y4288189D02*
D03*
X4676869Y4420484D02*
D03*
X4853369Y4288189D02*
D03*
D15*
X4916243Y4515189D02*
D03*
Y4507189D02*
D03*
X4924904Y4511189D02*
D03*
X4959207Y4467689D02*
D03*
Y4459689D02*
D03*
X4967869Y4463689D02*
D03*
Y4489189D02*
D03*
Y4497189D02*
D03*
X4959207Y4493189D02*
D03*
X4874038Y4459689D02*
D03*
X4882700Y4463689D02*
D03*
Y4455689D02*
D03*
X4835869Y4459689D02*
D03*
X4827207Y4455689D02*
D03*
Y4463689D02*
D03*
X4809369Y4459689D02*
D03*
X4818030Y4463689D02*
D03*
Y4455689D02*
D03*
X4703676Y4447189D02*
D03*
X4712337Y4451189D02*
D03*
Y4443189D02*
D03*
D16*
X4689369Y4293795D02*
D03*
X4685369Y4302457D02*
D03*
X4693369D02*
D03*
X4706869Y4293795D02*
D03*
X4702869Y4302457D02*
D03*
X4710869D02*
D03*
D17*
X4726869Y4280449D02*
D03*
Y4294032D02*
D03*
D18*
X4948799Y4373779D02*
D03*
X4950373D02*
D03*
X4951948D02*
D03*
X4953523D02*
D03*
X4955098D02*
D03*
X4956673D02*
D03*
X4958248D02*
D03*
X4959822D02*
D03*
X4961397D02*
D03*
X4962972D02*
D03*
X4964547D02*
D03*
X4966122D02*
D03*
X4967696D02*
D03*
X4969271D02*
D03*
X4970846D02*
D03*
X4972421D02*
D03*
X4973996D02*
D03*
X4975570D02*
D03*
X4977145D02*
D03*
X4978720D02*
D03*
X4980295D02*
D03*
X4981870D02*
D03*
X4983444D02*
D03*
X4985019D02*
D03*
X4986594D02*
D03*
X4988169D02*
D03*
X4989743D02*
D03*
X4991319D02*
D03*
X4992893D02*
D03*
X4994468D02*
D03*
X4996043D02*
D03*
X4997618D02*
D03*
Y4434606D02*
D03*
X4996043D02*
D03*
X4994468D02*
D03*
X4992893D02*
D03*
X4991319D02*
D03*
X4989743D02*
D03*
X4988169D02*
D03*
X4986594D02*
D03*
X4985019D02*
D03*
X4983444D02*
D03*
X4981870D02*
D03*
X4980295D02*
D03*
X4978720D02*
D03*
X4977145D02*
D03*
X4975570D02*
D03*
X4973996D02*
D03*
X4972421D02*
D03*
X4970846D02*
D03*
X4969271D02*
D03*
X4967696D02*
D03*
X4966122D02*
D03*
X4964547D02*
D03*
X4962972D02*
D03*
X4961397D02*
D03*
X4959822D02*
D03*
X4958248D02*
D03*
X4956673D02*
D03*
X4955098D02*
D03*
X4953523D02*
D03*
X4951948D02*
D03*
X4950373D02*
D03*
X4948799D02*
D03*
D19*
X5003622Y4379783D02*
D03*
Y4381358D02*
D03*
Y4382933D02*
D03*
Y4384507D02*
D03*
Y4386082D02*
D03*
Y4387657D02*
D03*
Y4389232D02*
D03*
Y4390807D02*
D03*
Y4392382D02*
D03*
Y4393956D02*
D03*
Y4395531D02*
D03*
Y4397106D02*
D03*
Y4398681D02*
D03*
Y4400256D02*
D03*
Y4401830D02*
D03*
Y4403405D02*
D03*
Y4404980D02*
D03*
Y4406555D02*
D03*
Y4408130D02*
D03*
Y4409705D02*
D03*
Y4411279D02*
D03*
Y4412854D02*
D03*
Y4414429D02*
D03*
Y4416003D02*
D03*
Y4417579D02*
D03*
Y4419153D02*
D03*
Y4420728D02*
D03*
Y4422303D02*
D03*
Y4423878D02*
D03*
Y4425452D02*
D03*
Y4427027D02*
D03*
Y4428602D02*
D03*
X4942795D02*
D03*
Y4427027D02*
D03*
Y4425452D02*
D03*
Y4423878D02*
D03*
Y4422303D02*
D03*
Y4420728D02*
D03*
Y4419153D02*
D03*
Y4417579D02*
D03*
Y4416003D02*
D03*
Y4414429D02*
D03*
Y4412854D02*
D03*
Y4411279D02*
D03*
Y4409705D02*
D03*
Y4408130D02*
D03*
Y4406555D02*
D03*
Y4404980D02*
D03*
Y4403405D02*
D03*
Y4401830D02*
D03*
Y4400256D02*
D03*
Y4398681D02*
D03*
Y4397106D02*
D03*
Y4395531D02*
D03*
Y4393956D02*
D03*
Y4392382D02*
D03*
Y4390807D02*
D03*
Y4389232D02*
D03*
Y4387657D02*
D03*
Y4386082D02*
D03*
Y4384507D02*
D03*
Y4382933D02*
D03*
Y4381358D02*
D03*
Y4379783D02*
D03*
D20*
X4975632Y4329134D02*
D03*
X5021105Y4247244D02*
D03*
Y4249803D02*
D03*
Y4252362D02*
D03*
Y4254921D02*
D03*
Y4257480D02*
D03*
Y4260040D02*
D03*
Y4262598D02*
D03*
Y4265157D02*
D03*
Y4267717D02*
D03*
Y4270276D02*
D03*
Y4272835D02*
D03*
Y4275394D02*
D03*
Y4277953D02*
D03*
Y4280512D02*
D03*
Y4283071D02*
D03*
Y4285630D02*
D03*
Y4288189D02*
D03*
Y4290748D02*
D03*
Y4293307D02*
D03*
Y4295866D02*
D03*
Y4298425D02*
D03*
Y4300984D02*
D03*
Y4303543D02*
D03*
Y4306102D02*
D03*
Y4308662D02*
D03*
Y4311221D02*
D03*
Y4313779D02*
D03*
Y4316339D02*
D03*
Y4318898D02*
D03*
Y4321457D02*
D03*
Y4324016D02*
D03*
Y4326575D02*
D03*
Y4329134D02*
D03*
X4975632Y4247244D02*
D03*
Y4249803D02*
D03*
Y4252362D02*
D03*
Y4254921D02*
D03*
Y4257480D02*
D03*
Y4260040D02*
D03*
Y4262598D02*
D03*
Y4265157D02*
D03*
Y4267717D02*
D03*
Y4270276D02*
D03*
Y4272835D02*
D03*
Y4275394D02*
D03*
Y4277953D02*
D03*
Y4280512D02*
D03*
Y4283071D02*
D03*
Y4285630D02*
D03*
Y4288189D02*
D03*
Y4290748D02*
D03*
Y4293307D02*
D03*
Y4295866D02*
D03*
Y4298425D02*
D03*
Y4300984D02*
D03*
Y4303543D02*
D03*
Y4306102D02*
D03*
Y4308662D02*
D03*
Y4311221D02*
D03*
Y4313779D02*
D03*
Y4316339D02*
D03*
Y4318898D02*
D03*
Y4321457D02*
D03*
Y4324016D02*
D03*
Y4326575D02*
D03*
D21*
X4749369Y4222189D02*
D03*
X4741888D02*
D03*
X4874038Y4439189D02*
D03*
X4866558D02*
D03*
X4835869D02*
D03*
X4843349D02*
D03*
X4804869Y4439689D02*
D03*
X4797388D02*
D03*
X4940609Y4488189D02*
D03*
X4933129D02*
D03*
X5028109Y4420689D02*
D03*
X5020629D02*
D03*
X4781859Y4396189D02*
D03*
X4774379D02*
D03*
X4726888Y4396189D02*
D03*
X4734369D02*
D03*
X4772963Y4435689D02*
D03*
X4780444D02*
D03*
X4723199D02*
D03*
X4730680D02*
D03*
D22*
X4703676Y4425689D02*
D03*
Y4418209D02*
D03*
X4948369Y4347449D02*
D03*
Y4354929D02*
D03*
X4996369Y4502139D02*
D03*
Y4509619D02*
D03*
D23*
X4927215Y4360439D02*
D03*
X4920522D02*
D03*
X4850562Y4459689D02*
D03*
X4843869D02*
D03*
X4859369D02*
D03*
X4866062D02*
D03*
X4794369D02*
D03*
X4801062D02*
D03*
X4778869D02*
D03*
X4785562D02*
D03*
X4718869D02*
D03*
X4725562D02*
D03*
X4691426Y4311126D02*
D03*
X4698119D02*
D03*
X4717695Y4312189D02*
D03*
X4711002D02*
D03*
X4756062Y4232189D02*
D03*
X4749369D02*
D03*
X4710115Y4459689D02*
D03*
X4703422D02*
D03*
D24*
X4770369Y4456184D02*
D03*
Y4449491D02*
D03*
X5037869Y4284807D02*
D03*
Y4278114D02*
D03*
D25*
X4764180Y4407689D02*
D03*
Y4412689D02*
D03*
Y4417689D02*
D03*
Y4422689D02*
D03*
X4743707Y4407689D02*
D03*
Y4412689D02*
D03*
Y4417689D02*
D03*
X5024258Y4502189D02*
D03*
Y4497189D02*
D03*
Y4492189D02*
D03*
Y4487189D02*
D03*
Y4482189D02*
D03*
Y4477189D02*
D03*
Y4472189D02*
D03*
X5060479Y4507189D02*
D03*
Y4502189D02*
D03*
Y4497189D02*
D03*
Y4492189D02*
D03*
Y4487189D02*
D03*
Y4482189D02*
D03*
Y4477189D02*
D03*
Y4472189D02*
D03*
D26*
X4743707Y4422689D02*
D03*
X5024258Y4507189D02*
D03*
D27*
X4899369Y4454153D02*
D03*
Y4417225D02*
D03*
D28*
X4744743Y4287929D02*
D03*
Y4284189D02*
D03*
Y4280449D02*
D03*
X4753995D02*
D03*
Y4287929D02*
D03*
M02*
