%FSLAX25Y25*%
%MOIN*%
G70*
G01*
G75*
G04 Layer_Color=16711935*
%ADD10C,0.01969*%
%ADD11R,0.03543X0.03150*%
%ADD12R,0.03150X0.03543*%
%ADD13R,0.04724X0.08661*%
%ADD14R,0.13780X0.08661*%
%ADD15R,0.05512X0.03937*%
%ADD16R,0.03937X0.05512*%
%ADD17R,0.18110X0.07087*%
%ADD18O,0.00709X0.06299*%
%ADD19O,0.06299X0.00709*%
%ADD20O,0.04921X0.01575*%
%ADD21R,0.05118X0.04724*%
%ADD22R,0.04724X0.05118*%
%ADD23R,0.04331X0.03937*%
%ADD24R,0.03937X0.04331*%
%ADD25O,0.08661X0.02362*%
%ADD26R,0.08661X0.02362*%
%ADD27R,0.07874X0.21654*%
%ADD28R,0.03937X0.02362*%
%ADD29C,0.02000*%
%ADD30C,0.00600*%
%ADD31C,0.00787*%
%ADD32C,0.00700*%
%ADD33C,0.04000*%
%ADD34C,0.01000*%
%ADD35C,0.01500*%
%ADD36C,0.31032*%
%ADD37C,0.11024*%
%ADD38C,0.09449*%
%ADD39R,0.07874X0.11811*%
%ADD40O,0.05906X0.07087*%
%ADD41R,0.05906X0.07087*%
%ADD42O,0.05512X0.06693*%
%ADD43R,0.05512X0.06693*%
%ADD44O,0.06693X0.05512*%
%ADD45R,0.06693X0.05512*%
%ADD46C,0.06693*%
%ADD47C,0.03937*%
%ADD48O,0.11811X0.07000*%
%ADD49O,0.07000X0.11811*%
%ADD50C,0.02500*%
%ADD51C,0.08000*%
%ADD52C,0.00800*%
%ADD53C,0.00984*%
%ADD54C,0.02362*%
%ADD55R,0.03937X0.03937*%
%ADD56C,0.02769*%
%ADD57R,0.04343X0.03950*%
%ADD58R,0.03950X0.04343*%
%ADD59R,0.05524X0.09461*%
%ADD60R,0.14579X0.09461*%
%ADD61R,0.06112X0.04537*%
%ADD62R,0.04537X0.06112*%
%ADD63R,0.18910X0.07887*%
%ADD64O,0.01509X0.07099*%
%ADD65O,0.07099X0.01509*%
%ADD66O,0.05721X0.02375*%
%ADD67R,0.05918X0.05524*%
%ADD68R,0.05524X0.05918*%
%ADD69R,0.05131X0.04737*%
%ADD70R,0.04737X0.05131*%
%ADD71O,0.09461X0.03162*%
%ADD72R,0.09461X0.03162*%
%ADD73R,0.08674X0.22453*%
%ADD74R,0.04737X0.03162*%
%ADD75C,0.31832*%
%ADD76C,0.11824*%
%ADD77C,0.10249*%
%ADD78R,0.08674X0.12611*%
%ADD79O,0.06906X0.08087*%
%ADD80R,0.06906X0.08087*%
%ADD81O,0.06512X0.07693*%
%ADD82R,0.06512X0.07693*%
%ADD83O,0.07693X0.06512*%
%ADD84R,0.07693X0.06512*%
%ADD85C,0.07493*%
%ADD86C,0.04737*%
%ADD87O,0.12611X0.07800*%
%ADD88O,0.07800X0.12611*%
%ADD89C,0.03300*%
D75*
X5033873Y4224094D02*
D03*
X4639148Y4222480D02*
D03*
X4639148Y4455512D02*
D03*
D76*
X4752337Y4515962D02*
D03*
X4807455D02*
D03*
X4862573D02*
D03*
D77*
X4722810Y4486435D02*
D03*
X4752337D02*
D03*
X4777928D02*
D03*
X4807455D02*
D03*
X4833046D02*
D03*
X4862573D02*
D03*
D78*
X4874581Y4501199D02*
D03*
X4710802D02*
D03*
D79*
X4745869Y4449491D02*
D03*
X4852424Y4232697D02*
D03*
X4931369Y4466189D02*
D03*
D80*
X4755869Y4449491D02*
D03*
X4862424Y4232697D02*
D03*
X4941369Y4466189D02*
D03*
D81*
X4735369Y4359689D02*
D03*
X4751869Y4384689D02*
D03*
X4789369Y4311689D02*
D03*
X4686869Y4474189D02*
D03*
X4686869Y4397189D02*
D03*
X4759369Y4257189D02*
D03*
X4843369Y4311689D02*
D03*
X4882869Y4392689D02*
D03*
X4897869Y4356189D02*
D03*
X4798424Y4234189D02*
D03*
D82*
X4725369Y4359689D02*
D03*
X4761869Y4384689D02*
D03*
X4799369Y4311689D02*
D03*
X4676869Y4474189D02*
D03*
X4676869Y4397189D02*
D03*
X4749369Y4257189D02*
D03*
X4853369Y4311689D02*
D03*
X4892869Y4392689D02*
D03*
X4907869Y4356189D02*
D03*
X4808424Y4234189D02*
D03*
D83*
X4750369Y4322689D02*
D03*
X4967869Y4519689D02*
D03*
D84*
X4750369Y4312689D02*
D03*
X4967869Y4509689D02*
D03*
D85*
X4655869Y4320374D02*
D03*
Y4310532D02*
D03*
Y4300689D02*
D03*
Y4290847D02*
D03*
X4825369Y4336161D02*
D03*
Y4346004D02*
D03*
Y4355846D02*
D03*
Y4365689D02*
D03*
D86*
X4665769Y4220789D02*
D03*
X5007769Y4217089D02*
D03*
X5058469Y4522589D02*
D03*
D87*
X4650626Y4509860D02*
D03*
X4650526Y4490569D02*
D03*
D88*
X4639503Y4500805D02*
D03*
D89*
X4676869Y4420484D02*
D03*
X4983569Y4364389D02*
D03*
X4930969Y4386789D02*
D03*
X4918969Y4378489D02*
D03*
X4916869Y4375189D02*
D03*
X4703676Y4425689D02*
D03*
X4676869Y4377689D02*
D03*
X4741888Y4237189D02*
D03*
Y4233189D02*
D03*
X5067369Y4217689D02*
D03*
X5071369D02*
D03*
X5075369D02*
D03*
X5013369Y4361189D02*
D03*
X4984369Y4323189D02*
D03*
X4985869Y4334689D02*
D03*
X4977369D02*
D03*
X4989369Y4328189D02*
D03*
X4968369Y4350189D02*
D03*
X4911869Y4315689D02*
D03*
X4906869D02*
D03*
X5007869Y4444189D02*
D03*
X4984369Y4427189D02*
D03*
X4979369D02*
D03*
X4996369Y4407689D02*
D03*
Y4412689D02*
D03*
X4990869Y4381689D02*
D03*
X4995869Y4386189D02*
D03*
X4965869Y4380689D02*
D03*
X4950369Y4427189D02*
D03*
Y4393689D02*
D03*
Y4416004D02*
D03*
X4933369Y4423189D02*
D03*
X4904869Y4323189D02*
D03*
X4900869D02*
D03*
X4896869D02*
D03*
X4693369Y4434189D02*
D03*
Y4438189D02*
D03*
Y4442189D02*
D03*
X4740369Y4284189D02*
D03*
X4716869Y4302689D02*
D03*
X4720869D02*
D03*
X4704869Y4313689D02*
D03*
Y4309689D02*
D03*
X4738369Y4305189D02*
D03*
X4915869Y4364189D02*
D03*
X4950369Y4407189D02*
D03*
X4715369Y4437689D02*
D03*
X4861369Y4350189D02*
D03*
X4860869Y4365689D02*
D03*
X5007369Y4373189D02*
D03*
X5002369D02*
D03*
X4916869Y4405189D02*
D03*
Y4412689D02*
D03*
X4996369Y4441189D02*
D03*
X5001369Y4435689D02*
D03*
X4916869Y4427689D02*
D03*
Y4420189D02*
D03*
X4969369Y4457689D02*
D03*
X4920869Y4455189D02*
D03*
X4952869Y4465189D02*
D03*
Y4469189D02*
D03*
X4922869Y4452189D02*
D03*
X5006869Y4458189D02*
D03*
X5037869Y4413689D02*
D03*
X4948369Y4341189D02*
D03*
X4994369Y4323689D02*
D03*
X4983369Y4350689D02*
D03*
X5041369Y4301189D02*
D03*
X5003369Y4460689D02*
D03*
X4957869Y4270189D02*
D03*
Y4319189D02*
D03*
X4990369Y4319689D02*
D03*
X4957869Y4308689D02*
D03*
Y4283189D02*
D03*
Y4293189D02*
D03*
X5032869Y4363689D02*
D03*
X5036869D02*
D03*
X5043369Y4379189D02*
D03*
X5034369Y4339189D02*
D03*
Y4335189D02*
D03*
Y4331189D02*
D03*
X5030869Y4412189D02*
D03*
X5029369Y4392189D02*
D03*
X5046369Y4386689D02*
D03*
X5029369Y4400189D02*
D03*
X5034369Y4420689D02*
D03*
X5051869Y4400689D02*
D03*
X4985869Y4490689D02*
D03*
X4989869D02*
D03*
X4993869D02*
D03*
X4858869Y4444689D02*
D03*
X4854869D02*
D03*
X4850869D02*
D03*
X4817369Y4408189D02*
D03*
X4813369D02*
D03*
X4809369D02*
D03*
X4813869Y4427689D02*
D03*
X4817869D02*
D03*
X4821869D02*
D03*
X4801869Y4384689D02*
D03*
X4797869D02*
D03*
X4793869D02*
D03*
X4828869Y4384189D02*
D03*
X4832869D02*
D03*
X5079869Y4404189D02*
D03*
Y4400189D02*
D03*
Y4396189D02*
D03*
X5081869Y4358189D02*
D03*
Y4354189D02*
D03*
Y4350189D02*
D03*
X5080869Y4255189D02*
D03*
Y4259189D02*
D03*
Y4263189D02*
D03*
Y4309189D02*
D03*
Y4305189D02*
D03*
Y4301189D02*
D03*
X4969369Y4405189D02*
D03*
X4973369D02*
D03*
X4977369D02*
D03*
Y4409189D02*
D03*
X4973369D02*
D03*
X4969369D02*
D03*
X5057869Y4433189D02*
D03*
X5061869D02*
D03*
X5065869D02*
D03*
Y4437189D02*
D03*
X5061869D02*
D03*
X5057869D02*
D03*
X5038369Y4485189D02*
D03*
X5042369D02*
D03*
X5046369D02*
D03*
Y4489189D02*
D03*
X5042369D02*
D03*
X5038369D02*
D03*
X5073869Y4481689D02*
D03*
Y4477689D02*
D03*
Y4473689D02*
D03*
X5077869D02*
D03*
Y4477689D02*
D03*
Y4481689D02*
D03*
X5077369Y4520689D02*
D03*
X5073369D02*
D03*
X5069369D02*
D03*
Y4516689D02*
D03*
X5073369D02*
D03*
X5077369D02*
D03*
X5013869Y4520689D02*
D03*
X5009869D02*
D03*
X5005869D02*
D03*
Y4516689D02*
D03*
X5009869D02*
D03*
X5013869D02*
D03*
X4906869Y4485189D02*
D03*
X4902869D02*
D03*
X4898869D02*
D03*
Y4481189D02*
D03*
X4902869D02*
D03*
X4906869D02*
D03*
Y4520689D02*
D03*
X4902869D02*
D03*
X4898869D02*
D03*
Y4516689D02*
D03*
X4902869D02*
D03*
X4906869D02*
D03*
X4685369Y4513689D02*
D03*
X4681369D02*
D03*
X4677369D02*
D03*
Y4509689D02*
D03*
X4681369D02*
D03*
X4685369D02*
D03*
X4826869Y4472189D02*
D03*
X4790869Y4442689D02*
D03*
X4713869Y4390189D02*
D03*
X4775569Y4451689D02*
D03*
X4817869Y4450189D02*
D03*
X4913369Y4303189D02*
D03*
X4909369D02*
D03*
X4905369D02*
D03*
Y4299189D02*
D03*
X4909369D02*
D03*
X4913369D02*
D03*
X4832369Y4302189D02*
D03*
X4828369D02*
D03*
X4824369D02*
D03*
Y4298189D02*
D03*
X4828369D02*
D03*
X4832369D02*
D03*
X4782369Y4304689D02*
D03*
X4778369D02*
D03*
X4774369D02*
D03*
Y4300689D02*
D03*
X4778369D02*
D03*
X4782369D02*
D03*
X4800869Y4352189D02*
D03*
X4796869D02*
D03*
X4792869D02*
D03*
Y4348189D02*
D03*
X4796869D02*
D03*
X4800869D02*
D03*
X4700869Y4356689D02*
D03*
X4696869D02*
D03*
X4692869D02*
D03*
Y4352689D02*
D03*
X4696869D02*
D03*
X4700869D02*
D03*
X4649369Y4401189D02*
D03*
X4645369D02*
D03*
X4641369D02*
D03*
Y4397189D02*
D03*
X4645369D02*
D03*
X4649369D02*
D03*
X4650869Y4355689D02*
D03*
X4646869D02*
D03*
X4642869D02*
D03*
Y4351689D02*
D03*
X4646869D02*
D03*
X4650869D02*
D03*
X5001869Y4307189D02*
D03*
X4997869D02*
D03*
X4993869D02*
D03*
Y4303189D02*
D03*
X4997869D02*
D03*
X5001869D02*
D03*
X5001369Y4263189D02*
D03*
X4997369D02*
D03*
X4993369D02*
D03*
Y4259189D02*
D03*
X4997369D02*
D03*
X5001369D02*
D03*
X4927369Y4258689D02*
D03*
X4923369D02*
D03*
X4919369D02*
D03*
Y4254689D02*
D03*
X4923369D02*
D03*
X4927369D02*
D03*
X4992869Y4221689D02*
D03*
X4988869D02*
D03*
X4984869D02*
D03*
Y4217689D02*
D03*
X4988869D02*
D03*
X4992869D02*
D03*
X4939369Y4222189D02*
D03*
X4935369D02*
D03*
X4931369D02*
D03*
Y4218189D02*
D03*
X4935369D02*
D03*
X4939369D02*
D03*
X4888369Y4222689D02*
D03*
X4884369D02*
D03*
X4880369D02*
D03*
Y4218689D02*
D03*
X4884369D02*
D03*
X4888369D02*
D03*
X4889369Y4264189D02*
D03*
X4885369D02*
D03*
X4881369D02*
D03*
Y4260189D02*
D03*
X4885369D02*
D03*
X4889369D02*
D03*
X4833869Y4264189D02*
D03*
X4829869D02*
D03*
X4825869D02*
D03*
Y4260189D02*
D03*
X4829869D02*
D03*
X4833869D02*
D03*
X4835369Y4223189D02*
D03*
X4831369D02*
D03*
X4827369D02*
D03*
Y4219189D02*
D03*
X4831369D02*
D03*
X4835369D02*
D03*
X4779869Y4222689D02*
D03*
X4775869D02*
D03*
X4771869D02*
D03*
Y4218689D02*
D03*
X4775869D02*
D03*
X4779869D02*
D03*
X4695869Y4222189D02*
D03*
X4691869D02*
D03*
X4687869D02*
D03*
Y4218189D02*
D03*
X4691869D02*
D03*
X4695869D02*
D03*
X4781369Y4260189D02*
D03*
X4777369D02*
D03*
X4773369D02*
D03*
X4712869Y4260689D02*
D03*
X4708869D02*
D03*
X4704869D02*
D03*
X4644869D02*
D03*
X4648869D02*
D03*
X4652869D02*
D03*
X4773369Y4264189D02*
D03*
X4777369D02*
D03*
X4781369D02*
D03*
X4704869Y4264689D02*
D03*
X4708869D02*
D03*
X4712869D02*
D03*
X4652869Y4265189D02*
D03*
X4648869D02*
D03*
X4644869D02*
D03*
X4934369Y4436689D02*
D03*
X4944869Y4437689D02*
D03*
X4933869Y4448189D02*
D03*
X4821869Y4311689D02*
D03*
X4825869D02*
D03*
X4886369Y4311636D02*
D03*
X4879369Y4319189D02*
D03*
X4936369Y4375189D02*
D03*
X4932869Y4368689D02*
D03*
X5013869Y4445189D02*
D03*
X4980369Y4502689D02*
D03*
X4944869Y4442189D02*
D03*
X5006869Y4432689D02*
D03*
X5013509Y4432330D02*
D03*
X5013869Y4393189D02*
D03*
X4890369Y4311636D02*
D03*
X4875369Y4319189D02*
D03*
X4942369Y4509189D02*
D03*
X4743707Y4399339D02*
D03*
X4751869Y4363689D02*
D03*
X4717963Y4453256D02*
D03*
X4820097Y4472195D02*
D03*
X4861369Y4404689D02*
D03*
X4861317Y4423058D02*
D03*
X4838109Y4410689D02*
D03*
Y4423058D02*
D03*
X4852869Y4434689D02*
D03*
X4853869Y4422689D02*
D03*
X4772436Y4464689D02*
D03*
X4829274Y4449689D02*
D03*
X4943369Y4372189D02*
D03*
X4954331Y4481207D02*
D03*
X4988369Y4470689D02*
D03*
X5004887Y4452707D02*
D03*
X4969869Y4441189D02*
D03*
X4965369Y4441689D02*
D03*
X5013052Y4400189D02*
D03*
X5011869Y4378189D02*
D03*
X4845369Y4336689D02*
D03*
X4916869Y4397689D02*
D03*
X4905869Y4375689D02*
D03*
X4845369Y4360689D02*
D03*
X4850869Y4379689D02*
D03*
X4916869Y4386689D02*
D03*
X4932369Y4397689D02*
D03*
Y4406689D02*
D03*
X4936869Y4445189D02*
D03*
X4954369Y4350189D02*
D03*
X4967869Y4241689D02*
D03*
X4970369Y4365689D02*
D03*
X4952869Y4279689D02*
D03*
X4941869Y4281189D02*
D03*
X4967869Y4303689D02*
D03*
X4968387Y4288689D02*
D03*
X4968369Y4314189D02*
D03*
Y4331689D02*
D03*
X5053369Y4273689D02*
D03*
X5025469Y4300984D02*
D03*
X4880369Y4412189D02*
D03*
X5028869Y4331189D02*
D03*
X4882369Y4351689D02*
D03*
Y4347689D02*
D03*
Y4343689D02*
D03*
X4883869Y4438189D02*
D03*
Y4442189D02*
D03*
Y4446189D02*
D03*
X4877869Y4431189D02*
D03*
Y4423189D02*
D03*
X4794369Y4466189D02*
D03*
X4850869Y4371189D02*
D03*
X4900869Y4395689D02*
D03*
X4768302Y4464689D02*
D03*
X4815963Y4472195D02*
D03*
X4825140Y4449689D02*
D03*
X4717963Y4449122D02*
D03*
X4942369Y4505189D02*
D03*
X4870802Y4465689D02*
D03*
X4874936D02*
D03*
M02*
