M48
;Layer_Color=9474304
;FILE_FORMAT=2:4
INCH,LZ
;TYPE=PLATED
T1F00S00C0.0120
T2F00S00C0.0400
%
T01
X0104Y0105
X01025Y0119
Y01322
Y01454
X0119Y01385
X01205Y0129
Y0117
Y0111
X01202Y0105
X01364
X01365Y0111
X013663Y0117
X01365Y01365
X01335Y0149
X01245Y01515
X01465Y0149
X01525Y01035
X01688Y0105
Y0111
X016888Y0117
X0185
Y0111
Y0105
X02
X0215
X023
X0245
X026
X0275
X02685Y0113
X0281Y012071
X0297
Y011
X029Y0105
X0297Y014214
Y015286
X0281Y01415
X0262Y0138
X0255Y0143
Y0153
X02455Y0148
Y01375
X025Y0133
Y012725
Y01215
X02565
Y0126
X0262Y0159
X02455Y01585
X02465Y0168
X0241
X02335
X0227Y01685
X022525Y0195
X024
Y01865
X0256Y0195
X0272
X0288
X0297Y0185
Y017429
Y016357
X0281Y01595
Y017
X02625Y01785
X02105Y0195
X01965
X01825
X0184Y0186
X018417Y01725
X0174
Y0161
X018417
X0192
X01685Y0195
X01545
X013967
Y0186
X012483
Y0195
X011
X01025Y0185
Y01718
Y01586
X012483Y01645
Y0175
X01335Y0161
X0145
X01465Y01725
T02
X011Y0114
Y0124
Y0134
Y0144
Y0154
X0169Y01515
X0179
X0189
Y01415
X0179
X0169
X029Y0144
Y0134
Y0124
Y0114
Y0154
Y0164
Y0174
Y0184
X011
Y0174
Y0164
M30
