%FSLAX25Y25*%
%MOIN*%
G70*
G01*
G75*
G04 Layer_Color=8421504*
%ADD10C,0.00500*%
%ADD11R,0.04500X0.05000*%
%ADD12R,0.03500X0.03200*%
%ADD13R,0.00984X0.02165*%
%ADD14R,0.03200X0.03000*%
%ADD15R,0.03200X0.03500*%
%ADD16C,0.01500*%
%ADD17C,0.02000*%
%ADD18C,0.01000*%
%ADD19R,0.06000X0.06000*%
%ADD20C,0.06000*%
%ADD21C,0.03937*%
%ADD22C,0.04000*%
%ADD23C,0.02400*%
%ADD24C,0.03200*%
%ADD25C,0.01200*%
%ADD26C,0.03000*%
%ADD27C,0.00400*%
%ADD28C,0.00200*%
%ADD29C,0.00800*%
D11*
X241500Y124000D02*
D03*
X234500D02*
D03*
D12*
X235000Y132500D02*
D03*
X241000D02*
D03*
D13*
X236032Y153913D02*
D03*
X238000D02*
D03*
X239968D02*
D03*
X236032Y143087D02*
D03*
X238000D02*
D03*
X239968D02*
D03*
D14*
X246500Y179600D02*
D03*
Y173600D02*
D03*
X233500Y179600D02*
D03*
Y173600D02*
D03*
X227000Y179600D02*
D03*
Y173600D02*
D03*
X198500D02*
D03*
Y179600D02*
D03*
X189000D02*
D03*
Y173600D02*
D03*
X179000Y179600D02*
D03*
Y173600D02*
D03*
X169000Y179600D02*
D03*
Y173600D02*
D03*
X143500Y124100D02*
D03*
Y129900D02*
D03*
X132500Y130000D02*
D03*
Y124000D02*
D03*
D15*
X240000Y173600D02*
D03*
Y179600D02*
D03*
M02*
