%FSLAX25Y25*%
%MOIN*%
G70*
G01*
G75*
G04 Layer_Color=2752767*
%ADD10C,0.00500*%
%ADD11R,0.04500X0.05000*%
%ADD12R,0.03500X0.03200*%
%ADD13R,0.00984X0.02165*%
%ADD14R,0.03200X0.03000*%
%ADD15R,0.03200X0.03500*%
%ADD16C,0.01500*%
%ADD17C,0.02000*%
%ADD18C,0.01000*%
%ADD19R,0.06000X0.06000*%
%ADD20C,0.06000*%
%ADD21C,0.03937*%
%ADD22C,0.04000*%
%ADD23C,0.02400*%
%ADD24C,0.03200*%
%ADD25C,0.01200*%
%ADD26C,0.03000*%
%ADD27C,0.00400*%
%ADD28C,0.00200*%
%ADD29C,0.00800*%
%ADD30R,0.04900X0.05400*%
%ADD31R,0.03900X0.03600*%
%ADD32R,0.01384X0.02565*%
%ADD33R,0.03600X0.03400*%
%ADD34R,0.03600X0.03900*%
%ADD35R,0.06400X0.06400*%
%ADD36C,0.06400*%
%ADD37C,0.12598*%
%ADD38C,0.12000*%
%ADD39C,0.02800*%
%ADD40C,0.03600*%
%ADD41C,0.00667*%
D28*
X288000Y112000D02*
Y116000D01*
X292000D01*
Y112000D01*
X288000D01*
Y122000D02*
Y126000D01*
X292000D01*
Y122000D01*
X288000D01*
Y132000D02*
Y136000D01*
X292000D01*
Y132000D01*
X288000D01*
Y142000D02*
Y146000D01*
X292000D01*
Y142000D01*
X288000D01*
Y152000D02*
Y156000D01*
X292000D01*
Y152000D01*
X288000D01*
Y162000D02*
Y166000D01*
X292000D01*
Y162000D01*
X288000D01*
Y172000D02*
Y176000D01*
X292000D01*
Y172000D01*
X288000D01*
Y182000D02*
Y186000D01*
X292000D01*
Y182000D01*
X288000D01*
X108000Y112000D02*
Y116000D01*
X112000D01*
Y112000D01*
X108000D01*
Y122000D02*
Y126000D01*
X112000D01*
Y122000D01*
X108000D01*
Y132000D02*
Y136000D01*
X112000D01*
Y132000D01*
X108000D01*
Y142000D02*
Y146000D01*
X112000D01*
Y142000D01*
X108000D01*
Y152000D02*
Y156000D01*
X112000D01*
Y152000D01*
X108000D01*
Y162000D02*
Y166000D01*
X112000D01*
Y162000D01*
X108000D01*
Y172000D02*
Y176000D01*
X112000D01*
Y172000D01*
X108000D01*
Y182000D02*
Y186000D01*
X112000D01*
Y182000D01*
X108000D01*
X187000Y149500D02*
Y153500D01*
X191000D01*
Y149500D01*
X187000D01*
Y139500D02*
Y143500D01*
X191000D01*
Y139500D01*
X187000D01*
X177000Y149500D02*
Y153500D01*
X181000D01*
Y149500D01*
X177000D01*
Y139500D02*
Y143500D01*
X181000D01*
Y139500D01*
X177000D01*
X167000Y149500D02*
Y153500D01*
X171000D01*
Y149500D01*
X167000D01*
Y139500D02*
Y143500D01*
X171000D01*
Y139500D01*
X167000D01*
D41*
X283000Y141500D02*
G03*
X283000Y141500I-2000J0D01*
G01*
Y170000D02*
G03*
X283000Y170000I-2000J0D01*
G01*
Y159500D02*
G03*
X283000Y159500I-2000J0D01*
G01*
X264500Y178500D02*
G03*
X264500Y178500I-2000J0D01*
G01*
X264000Y159000D02*
G03*
X264000Y159000I-2000J0D01*
G01*
Y138000D02*
G03*
X264000Y138000I-2000J0D01*
G01*
X257000Y143000D02*
G03*
X257000Y143000I-2000J0D01*
G01*
Y153000D02*
G03*
X257000Y153000I-2000J0D01*
G01*
X258500Y121500D02*
G03*
X258500Y121500I-2000J0D01*
G01*
Y126000D02*
G03*
X258500Y126000I-2000J0D01*
G01*
X252000Y121500D02*
G03*
X252000Y121500I-2000J0D01*
G01*
Y127250D02*
G03*
X252000Y127250I-2000J0D01*
G01*
Y133000D02*
G03*
X252000Y133000I-2000J0D01*
G01*
X247500Y137500D02*
G03*
X247500Y137500I-2000J0D01*
G01*
Y148000D02*
G03*
X247500Y148000I-2000J0D01*
G01*
Y158500D02*
G03*
X247500Y158500I-2000J0D01*
G01*
X283000Y120714D02*
G03*
X283000Y120714I-2000J0D01*
G01*
X270500Y113000D02*
G03*
X270500Y113000I-2000J0D01*
G01*
X235500Y168000D02*
G03*
X235500Y168000I-2000J0D01*
G01*
X243000D02*
G03*
X243000Y168000I-2000J0D01*
G01*
X138625Y117000D02*
G03*
X138625Y117000I-2000J0D01*
G01*
X122500D02*
G03*
X122500Y117000I-2000J0D01*
G01*
X242000Y195000D02*
G03*
X242000Y195000I-2000J0D01*
G01*
X227250D02*
G03*
X227250Y195000I-2000J0D01*
G01*
X212500D02*
G03*
X212500Y195000I-2000J0D01*
G01*
X242000Y186500D02*
G03*
X242000Y186500I-2000J0D01*
G01*
X248500Y168000D02*
G03*
X248500Y168000I-2000J0D01*
G01*
X229000Y168500D02*
G03*
X229000Y168500I-2000J0D01*
G01*
X112000Y195000D02*
G03*
X112000Y195000I-2000J0D01*
G01*
X126833D02*
G03*
X126833Y195000I-2000J0D01*
G01*
X141667D02*
G03*
X141667Y195000I-2000J0D01*
G01*
X156500D02*
G03*
X156500Y195000I-2000J0D01*
G01*
X170500D02*
G03*
X170500Y195000I-2000J0D01*
G01*
X184500D02*
G03*
X184500Y195000I-2000J0D01*
G01*
X198500D02*
G03*
X198500Y195000I-2000J0D01*
G01*
X258000D02*
G03*
X258000Y195000I-2000J0D01*
G01*
X274000D02*
G03*
X274000Y195000I-2000J0D01*
G01*
X290000D02*
G03*
X290000Y195000I-2000J0D01*
G01*
X299000Y185000D02*
G03*
X299000Y185000I-2000J0D01*
G01*
Y174286D02*
G03*
X299000Y174286I-2000J0D01*
G01*
Y163571D02*
G03*
X299000Y163571I-2000J0D01*
G01*
Y152857D02*
G03*
X299000Y152857I-2000J0D01*
G01*
Y120714D02*
G03*
X299000Y120714I-2000J0D01*
G01*
Y110000D02*
G03*
X299000Y110000I-2000J0D01*
G01*
X292000Y105000D02*
G03*
X292000Y105000I-2000J0D01*
G01*
X277000D02*
G03*
X277000Y105000I-2000J0D01*
G01*
X262000D02*
G03*
X262000Y105000I-2000J0D01*
G01*
X247000D02*
G03*
X247000Y105000I-2000J0D01*
G01*
X232000D02*
G03*
X232000Y105000I-2000J0D01*
G01*
X217000D02*
G03*
X217000Y105000I-2000J0D01*
G01*
X202000D02*
G03*
X202000Y105000I-2000J0D01*
G01*
X104500Y185000D02*
G03*
X104500Y185000I-2000J0D01*
G01*
Y171800D02*
G03*
X104500Y171800I-2000J0D01*
G01*
Y158600D02*
G03*
X104500Y158600I-2000J0D01*
G01*
Y145400D02*
G03*
X104500Y145400I-2000J0D01*
G01*
Y132200D02*
G03*
X104500Y132200I-2000J0D01*
G01*
Y119000D02*
G03*
X104500Y119000I-2000J0D01*
G01*
X106000Y105000D02*
G03*
X106000Y105000I-2000J0D01*
G01*
X122200D02*
G03*
X122200Y105000I-2000J0D01*
G01*
X138400D02*
G03*
X138400Y105000I-2000J0D01*
G01*
X154500Y103500D02*
G03*
X154500Y103500I-2000J0D01*
G01*
X170800Y105000D02*
G03*
X170800Y105000I-2000J0D01*
G01*
X187000D02*
G03*
X187000Y105000I-2000J0D01*
G01*
X170800Y111000D02*
G03*
X170800Y111000I-2000J0D01*
G01*
X170875Y117000D02*
G03*
X170875Y117000I-2000J0D01*
G01*
X187000D02*
G03*
X187000Y117000I-2000J0D01*
G01*
Y111000D02*
G03*
X187000Y111000I-2000J0D01*
G01*
X299000Y142143D02*
G03*
X299000Y142143I-2000J0D01*
G01*
X122500Y111000D02*
G03*
X122500Y111000I-2000J0D01*
G01*
X138500D02*
G03*
X138500Y111000I-2000J0D01*
G01*
X126833Y186000D02*
G03*
X126833Y186000I-2000J0D01*
G01*
Y175000D02*
G03*
X126833Y175000I-2000J0D01*
G01*
Y164500D02*
G03*
X126833Y164500I-2000J0D01*
G01*
X141667Y186000D02*
G03*
X141667Y186000I-2000J0D01*
G01*
X186000D02*
G03*
X186000Y186000I-2000J0D01*
G01*
X148500Y172500D02*
G03*
X148500Y172500I-2000J0D01*
G01*
X147000Y161000D02*
G03*
X147000Y161000I-2000J0D01*
G01*
X148500Y149000D02*
G03*
X148500Y149000I-2000J0D01*
G01*
X135500Y161000D02*
G03*
X135500Y161000I-2000J0D01*
G01*
Y149000D02*
G03*
X135500Y149000I-2000J0D01*
G01*
X138500Y136500D02*
G03*
X138500Y136500I-2000J0D01*
G01*
X126500Y151500D02*
G03*
X126500Y151500I-2000J0D01*
G01*
X121000Y138500D02*
G03*
X121000Y138500I-2000J0D01*
G01*
X122500Y129000D02*
G03*
X122500Y129000I-2000J0D01*
G01*
X176000Y172500D02*
G03*
X176000Y172500I-2000J0D01*
G01*
X186167D02*
G03*
X186167Y172500I-2000J0D01*
G01*
X176000Y161000D02*
G03*
X176000Y161000I-2000J0D01*
G01*
X186167D02*
G03*
X186167Y161000I-2000J0D01*
G01*
X194000D02*
G03*
X194000Y161000I-2000J0D01*
G01*
M02*
