%FSLAX25Y25*%
%MOIN*%
G70*
G01*
G75*
G04 Layer_Physical_Order=1*
G04 Layer_Color=255*
%ADD10C,0.00500*%
%ADD11R,0.04500X0.05000*%
%ADD12R,0.03500X0.03200*%
%ADD13R,0.00984X0.02165*%
%ADD14R,0.03200X0.03000*%
%ADD15R,0.03200X0.03500*%
%ADD16C,0.01500*%
%ADD17C,0.02000*%
%ADD18C,0.01000*%
%ADD19R,0.06000X0.06000*%
%ADD20C,0.06000*%
%ADD21C,0.03937*%
%ADD22C,0.04000*%
%ADD23C,0.02400*%
D10*
X294250Y184000D02*
G03*
X294250Y184000I-4250J0D01*
G01*
Y174000D02*
G03*
X294250Y174000I-4250J0D01*
G01*
X252500Y191500D02*
G03*
X251000Y193000I-1500J0D01*
G01*
X252500Y191500D02*
G03*
X251000Y193000I-1500J0D01*
G01*
Y175000D02*
G03*
X252500Y176500I0J1500D01*
G01*
X251000Y175000D02*
G03*
X252500Y176500I0J1500D01*
G01*
X246525Y165550D02*
G03*
X248950Y168000I-25J2450D01*
G01*
X244750Y169715D02*
G03*
X244050Y168025I1750J-1715D01*
G01*
X248950Y168000D02*
G03*
X248250Y169715I-2450J0D01*
G01*
X294250Y164000D02*
G03*
X294250Y164000I-4250J0D01*
G01*
Y154000D02*
G03*
X294250Y154000I-4250J0D01*
G01*
X236350Y180891D02*
G03*
X237150Y181387I-350J1459D01*
G01*
X236350Y180891D02*
G03*
X237150Y181387I-350J1459D01*
G01*
Y177813D02*
G03*
X236350Y178309I-1150J-963D01*
G01*
X237150Y177813D02*
G03*
X236350Y178309I-1150J-963D01*
G01*
X202500Y193000D02*
G03*
X201000Y191500I0J-1500D01*
G01*
X202500Y193000D02*
G03*
X201000Y191500I0J-1500D01*
G01*
X239750Y169100D02*
G03*
X239237Y170337I-1750J0D01*
G01*
X239750Y169100D02*
G03*
X239237Y170337I-1750J0D01*
G01*
X193846Y177850D02*
G03*
X193000Y176500I654J-1350D01*
G01*
X193846Y177850D02*
G03*
X193000Y176500I654J-1350D01*
G01*
X229450Y168525D02*
G03*
X228750Y170215I-2450J-25D01*
G01*
X296500Y139500D02*
G03*
X295000Y141000I-1500J0D01*
G01*
X296500Y139500D02*
G03*
X295000Y141000I-1500J0D01*
G01*
X294250Y144000D02*
G03*
X286990Y141000I-4250J0D01*
G01*
X293010D02*
G03*
X294250Y144000I-3010J3000D01*
G01*
X295000Y127500D02*
G03*
X296500Y129000I0J1500D01*
G01*
X295000Y127500D02*
G03*
X296500Y129000I0J1500D01*
G01*
X294250Y124000D02*
G03*
X292411Y127500I-4250J0D01*
G01*
X287589D02*
G03*
X294250Y124000I2411J-3500D01*
G01*
X284000Y141000D02*
G03*
X282939Y140561I0J-1500D01*
G01*
X284000Y141000D02*
G03*
X282940Y140561I0J-1500D01*
G01*
X280219Y113500D02*
G03*
X280219Y113500I-3218J0D01*
G01*
X193000Y142936D02*
G03*
X193000Y140064I-4000J-1436D01*
G01*
X239500Y137000D02*
G03*
X239061Y138060I-1500J0D01*
G01*
X239500Y137000D02*
G03*
X239061Y138061I-1500J0D01*
G01*
X262000Y111000D02*
G03*
X262942Y111332I0J1500D01*
G01*
X262000Y111000D02*
G03*
X262941Y111331I0J1500D01*
G01*
X193000Y118000D02*
G03*
X193750Y116701I1500J0D01*
G01*
X193000Y118000D02*
G03*
X193748Y116702I1500J0D01*
G01*
X203249Y111202D02*
G03*
X204000Y111000I752J1298D01*
G01*
X203246Y111203D02*
G03*
X204000Y111000I753J1297D01*
G01*
X183250Y151500D02*
G03*
X180750Y155373I-4250J0D01*
G01*
X173250Y151500D02*
G03*
X170750Y155373I-4250J0D01*
G01*
X145600Y181350D02*
G03*
X144363Y180837I0J-1750D01*
G01*
X145600Y181350D02*
G03*
X144363Y180837I0J-1750D01*
G01*
X134250Y188500D02*
G03*
X134250Y188500I-3250J0D01*
G01*
X114250Y184000D02*
G03*
X114250Y184000I-4250J0D01*
G01*
Y174000D02*
G03*
X114250Y174000I-4250J0D01*
G01*
Y164000D02*
G03*
X114250Y164000I-4250J0D01*
G01*
Y154000D02*
G03*
X114250Y154000I-4250J0D01*
G01*
X177250Y155373D02*
G03*
X183250Y151500I1750J-3873D01*
G01*
Y141500D02*
G03*
X183250Y141500I-4250J0D01*
G01*
X167250Y155373D02*
G03*
X173250Y151500I1750J-3873D01*
G01*
Y141500D02*
G03*
X173250Y141500I-4250J0D01*
G01*
X114250Y144000D02*
G03*
X113976Y145501I-4250J0D01*
G01*
X111501Y147976D02*
G03*
X114250Y144000I-1501J-3976D01*
G01*
Y134000D02*
G03*
X114250Y134000I-4250J0D01*
G01*
X113750Y126000D02*
G03*
X113750Y122000I-3750J-2000D01*
G01*
X131219Y110000D02*
G03*
X131219Y110000I-3218J0D01*
G01*
X294250Y134000D02*
G03*
X294250Y134000I-4250J0D01*
G01*
X292411Y187500D02*
X297500D01*
X293010Y187000D02*
X297500D01*
X293000Y196000D02*
X297500Y192000D01*
X293437Y186500D02*
X297500D01*
X293750Y186000D02*
X297500D01*
X294000Y185436D02*
Y195111D01*
X252500Y189500D02*
X297500D01*
X252500Y189000D02*
X297500D01*
X252500Y191000D02*
X297500D01*
X291436Y188000D02*
X297500D01*
X252500Y188500D02*
X297500D01*
X294131Y185000D02*
X297500D01*
X294221Y184500D02*
X297500D01*
X293977Y185500D02*
X297500D01*
X294221Y183500D02*
X297500D01*
X294131Y183000D02*
X297500D01*
X294250Y184000D02*
X297500D01*
X293750Y182000D02*
X297500D01*
X293437Y181500D02*
X297500D01*
X293977Y182500D02*
X297500D01*
X292411Y180500D02*
X297500D01*
X293010Y181000D02*
X297500D01*
X290500Y188221D02*
Y196000D01*
X291000Y188131D02*
Y196000D01*
X290000Y188250D02*
Y196000D01*
X292500Y187437D02*
Y196000D01*
X293000Y187011D02*
Y196000D01*
X291500Y187977D02*
Y196000D01*
X289000Y188131D02*
Y196000D01*
X289500Y188221D02*
Y196000D01*
X288500Y187977D02*
Y196000D01*
X288000Y187750D02*
Y196000D01*
X286000Y185436D02*
Y196000D01*
X287500Y187437D02*
Y196000D01*
X292000Y187750D02*
Y196000D01*
X287000Y187010D02*
Y196000D01*
X293500Y186411D02*
Y195556D01*
X286500Y186411D02*
Y196000D01*
X252500Y188000D02*
X288564D01*
X252500Y186000D02*
X286250D01*
X252500Y185500D02*
X286024D01*
X252500Y185000D02*
X285869D01*
X252500Y184000D02*
X285750D01*
X293010Y177000D02*
X297500D01*
X293437Y176500D02*
X297500D01*
X293500Y176411D02*
Y181589D01*
X293750Y176000D02*
X297500D01*
X293977Y175500D02*
X297500D01*
X294000Y175436D02*
Y182564D01*
X291436Y180000D02*
X297500D01*
X291436Y178000D02*
X297500D01*
X292411Y177500D02*
X297500D01*
X294221Y174500D02*
X297500D01*
X294250Y174000D02*
X297500D01*
X294131Y175000D02*
X297500D01*
X294131Y173000D02*
X297500D01*
X294221Y173500D02*
X297500D01*
X293750Y172000D02*
X297500D01*
X293437Y171500D02*
X297500D01*
X293977Y172500D02*
X297500D01*
X293010Y171000D02*
X297500D01*
X294000Y165436D02*
Y172564D01*
X292000Y177750D02*
Y180250D01*
X291500Y177977D02*
Y180024D01*
X288500Y177977D02*
Y180024D01*
X293000Y177011D02*
Y180990D01*
X292500Y177437D02*
Y180563D01*
X288000Y177750D02*
Y180250D01*
X287000Y177010D02*
Y180990D01*
X287500Y177437D02*
Y180563D01*
X252500Y176500D02*
Y191500D01*
X286500Y176411D02*
Y181589D01*
X286000Y175436D02*
Y182564D01*
X291000Y178131D02*
Y179869D01*
X290500Y178220D02*
Y179780D01*
X290000Y178250D02*
Y179750D01*
X293500Y166411D02*
Y171589D01*
X293000Y167010D02*
Y170990D01*
X289000Y178131D02*
Y179869D01*
X289500Y178220D02*
Y179780D01*
X287000Y167010D02*
Y170990D01*
X286500Y166411D02*
Y171589D01*
X286000Y165436D02*
Y172564D01*
X252118Y192500D02*
X296937D01*
X252414Y192000D02*
X297500D01*
X252000Y192618D02*
Y196000D01*
X252500Y191500D02*
X297500D01*
X252500Y190500D02*
X297500D01*
X252500Y191500D02*
Y196000D01*
X251500Y192914D02*
Y196000D01*
X251000Y193000D02*
X296375D01*
X251000D02*
Y196000D01*
X252500Y183000D02*
X285869D01*
X252500Y182500D02*
X286024D01*
X252500Y183500D02*
X285780D01*
X252500Y181500D02*
X286563D01*
X252500Y181000D02*
X286990D01*
X252500Y182000D02*
X286250D01*
X252500Y190000D02*
X297500D01*
X252500Y187500D02*
X287589D01*
X252500Y187000D02*
X286990D01*
X252500Y186500D02*
X286563D01*
X252500Y184500D02*
X285780D01*
X244500Y193000D02*
Y196000D01*
X245000Y193000D02*
Y196000D01*
X244000Y193000D02*
Y196000D01*
X246000Y193000D02*
Y196000D01*
X246500Y193000D02*
Y196000D01*
X245500Y193000D02*
Y196000D01*
X242000Y193000D02*
Y196000D01*
X242500Y193000D02*
Y196000D01*
X241500Y193000D02*
Y196000D01*
X243500Y193000D02*
Y196000D01*
X243000Y193000D02*
Y196000D01*
X249000Y193000D02*
Y196000D01*
X249500Y193000D02*
Y196000D01*
X248500Y193000D02*
Y196000D01*
X250500Y193000D02*
Y196000D01*
X250000Y193000D02*
Y196000D01*
X202500Y193000D02*
X251000D01*
X202500D02*
X251000D01*
X247000D02*
Y196000D01*
X248000Y193000D02*
Y196000D01*
X247500Y193000D02*
Y196000D01*
X252500Y180000D02*
X288564D01*
X252500Y179500D02*
X297500D01*
X252500Y180500D02*
X287589D01*
X252500Y179000D02*
X297500D01*
X252500Y178500D02*
X297500D01*
X252500Y178000D02*
X288564D01*
X252500Y177500D02*
X287589D01*
X252500Y177000D02*
X286990D01*
X252500Y176500D02*
X286563D01*
X252414Y176000D02*
X286250D01*
X252118Y175500D02*
X286024D01*
X251000Y175000D02*
X285869D01*
X249350Y174500D02*
X285780D01*
X249350Y173500D02*
X285780D01*
X249350Y174000D02*
X285750D01*
X249350Y172500D02*
X286024D01*
X249350Y172000D02*
X286250D01*
X249350Y173000D02*
X285869D01*
X249350Y171000D02*
X286990D01*
X249350Y171500D02*
X286563D01*
X249350Y175000D02*
X251000D01*
X249350D02*
X251000D01*
X243650Y170850D02*
Y175000D01*
X249350Y170850D02*
Y175000D01*
X243500Y167475D02*
Y175000D01*
X242850D02*
X243650D01*
X242850Y174500D02*
X243650D01*
X242850Y175000D02*
X243650D01*
X243000Y166975D02*
Y175000D01*
X242850Y170600D02*
Y175000D01*
Y171000D02*
X243650D01*
X248250Y170850D02*
X249350D01*
X242850Y171500D02*
X243650D01*
Y170850D02*
X244750D01*
X244500Y169415D02*
Y170850D01*
X242850Y173500D02*
X243650D01*
X242850Y173000D02*
X243650D01*
X242850Y174000D02*
X243650D01*
X242850Y172000D02*
X243650D01*
X242850Y172500D02*
X243650D01*
X293437Y166500D02*
X297500D01*
X293750Y166000D02*
X297500D01*
X293010Y167000D02*
X297500D01*
X294131Y165000D02*
X297500D01*
X294221Y164500D02*
X297500D01*
X293977Y165500D02*
X297500D01*
X291436Y170000D02*
X297500D01*
X291436Y168000D02*
X297500D01*
X292411Y170500D02*
X297500D01*
X292411Y167500D02*
X297500D01*
X292500Y167437D02*
Y170563D01*
X294221Y163500D02*
X297500D01*
X294131Y163000D02*
X297500D01*
X294250Y164000D02*
X297500D01*
X293750Y162000D02*
X297500D01*
X293437Y161500D02*
X297500D01*
X293977Y162500D02*
X297500D01*
X292411Y160500D02*
X297500D01*
X291436Y160000D02*
X297500D01*
X293010Y161000D02*
X297500D01*
X292411Y157500D02*
X297500D01*
X291436Y158000D02*
X297500D01*
X290500Y168220D02*
Y169780D01*
X290000Y168250D02*
Y169750D01*
X289500Y168220D02*
Y169780D01*
X292000Y167750D02*
Y170250D01*
X291500Y167976D02*
Y170024D01*
X291000Y168131D02*
Y169869D01*
X288500Y167976D02*
Y170024D01*
X289000Y168131D02*
Y169869D01*
X288000Y167750D02*
Y170250D01*
X287500Y157437D02*
Y160563D01*
Y167437D02*
Y170563D01*
X291500Y157976D02*
Y160023D01*
X291000Y158131D02*
Y159869D01*
X290500Y158221D02*
Y159780D01*
X292500Y157437D02*
Y160563D01*
X292000Y157750D02*
Y160250D01*
X289500Y158221D02*
Y159780D01*
X290000Y158250D02*
Y159750D01*
X289000Y158131D02*
Y159869D01*
X288500Y157976D02*
Y160024D01*
X288000Y157750D02*
Y160250D01*
X294131Y155000D02*
X297500D01*
X294221Y154500D02*
X297500D01*
X293977Y155500D02*
X297500D01*
X294221Y153500D02*
X297500D01*
X294131Y153000D02*
X297500D01*
X294250Y154000D02*
X297500D01*
X293750Y156000D02*
X297500D01*
X293977Y152500D02*
X297500D01*
X293010Y157000D02*
X297500D01*
X293437Y151500D02*
X297500D01*
X293750Y152000D02*
X297500D01*
X293437Y146500D02*
X297500D01*
X293750Y146000D02*
X297500D01*
X293010Y147000D02*
X297500D01*
X294131Y145000D02*
X297500D01*
X293977Y145500D02*
X297500D01*
X292411Y150500D02*
X297500D01*
X291436Y150000D02*
X297500D01*
X293010Y151000D02*
X297500D01*
X292411Y147500D02*
X297500D01*
X291436Y148000D02*
X297500D01*
X294000Y155436D02*
Y162564D01*
X293437Y156500D02*
X297500D01*
X293500Y156411D02*
Y161589D01*
X294000Y145436D02*
Y152564D01*
X293500Y146411D02*
Y151589D01*
X293000Y147011D02*
Y150989D01*
X287000Y157010D02*
Y160990D01*
X293000Y157010D02*
Y160989D01*
X286500Y156411D02*
Y161589D01*
X287500Y147437D02*
Y150563D01*
X287000Y147010D02*
Y150990D01*
X291500Y147977D02*
Y150023D01*
X291000Y148131D02*
Y149869D01*
X290500Y148221D02*
Y149779D01*
X292500Y147437D02*
Y150563D01*
X292000Y147750D02*
Y150250D01*
X289500Y148221D02*
Y149779D01*
X290000Y148250D02*
Y149750D01*
X289000Y148131D02*
Y149869D01*
X288500Y147977D02*
Y150024D01*
X288000Y147750D02*
Y150250D01*
X248737Y169000D02*
X297500D01*
X248898Y168500D02*
X297500D01*
X248437Y169500D02*
X297500D01*
X248950Y168000D02*
X288564D01*
X248898Y167500D02*
X287589D01*
X248737Y167000D02*
X286990D01*
X248250Y170500D02*
X287589D01*
X248250Y170000D02*
X288564D01*
X248437Y166500D02*
X286563D01*
X247915Y166000D02*
X286250D01*
X246475Y165500D02*
X286024D01*
X245975Y165000D02*
X285869D01*
X245475Y164500D02*
X285780D01*
X244475Y163500D02*
X285780D01*
X244975Y164000D02*
X285750D01*
X243475Y162500D02*
X286024D01*
X242975Y162000D02*
X286250D01*
X243975Y163000D02*
X285869D01*
X241975Y161000D02*
X286990D01*
X242475Y161500D02*
X286563D01*
X248250Y169715D02*
Y170850D01*
X248500Y169415D02*
Y170850D01*
X244750Y169715D02*
Y170850D01*
X244000Y167975D02*
Y170850D01*
X239075Y170500D02*
X244750D01*
X239501Y170000D02*
X244750D01*
X238975Y170600D02*
X242850D01*
X242500Y166475D02*
Y170600D01*
X242000Y165975D02*
Y170600D01*
X239750Y167500D02*
X243525D01*
X239750Y167000D02*
X243025D01*
X239750Y166500D02*
X242525D01*
X239750Y166000D02*
X242025D01*
X239750Y165500D02*
X241525D01*
X239704Y169500D02*
X244563D01*
X239750Y169000D02*
X244263D01*
X239750Y168500D02*
X244102D01*
X239750Y163725D02*
X244050Y168025D01*
X239750Y168000D02*
X244025D01*
X241719Y160000D02*
X288564D01*
X241719Y160500D02*
X287589D01*
X241719Y159500D02*
X297500D01*
X241719Y159000D02*
X297500D01*
X241719Y158500D02*
X297500D01*
X241719Y158000D02*
X288564D01*
X241719Y157500D02*
X287589D01*
X241719Y157000D02*
X286990D01*
X241719Y156500D02*
X286563D01*
X241150Y149000D02*
X297500D01*
X241150Y148500D02*
X297500D01*
X241150Y148000D02*
X288564D01*
X241150Y147500D02*
X287589D01*
X241150Y147000D02*
X286990D01*
X241150Y151000D02*
X286990D01*
X241150Y150500D02*
X287589D01*
X241150Y151500D02*
X286563D01*
X241150Y149500D02*
X297500D01*
X241150Y150000D02*
X288564D01*
X241719Y156000D02*
X286250D01*
X241719Y155500D02*
X286024D01*
X241719Y160744D02*
X246525Y165550D01*
X286000Y155436D02*
Y162564D01*
X241719Y155000D02*
X285869D01*
X241719Y153913D02*
Y160744D01*
Y154500D02*
X285780D01*
X241711Y153500D02*
X285780D01*
X241719Y154000D02*
X285750D01*
X241711Y153000D02*
X285869D01*
X241711Y151581D02*
Y153748D01*
Y152000D02*
X286250D01*
X286500Y146411D02*
Y151589D01*
X241711Y152500D02*
X286024D01*
X286000Y145436D02*
Y152564D01*
X241711Y145000D02*
X285869D01*
X241150Y146500D02*
X286563D01*
X241150Y146000D02*
X286250D01*
X241150Y151581D02*
X241711D01*
X241150Y145500D02*
X286024D01*
X241150Y145419D02*
X241711D01*
X233500Y193000D02*
Y196000D01*
X234000Y193000D02*
Y196000D01*
X233000Y193000D02*
Y196000D01*
X235000Y193000D02*
Y196000D01*
X235500Y193000D02*
Y196000D01*
X234500Y193000D02*
Y196000D01*
X231000Y193000D02*
Y196000D01*
X231500Y193000D02*
Y196000D01*
X230500Y193000D02*
Y196000D01*
X232500Y193000D02*
Y196000D01*
X232000Y193000D02*
Y196000D01*
X239000Y193000D02*
Y196000D01*
X239500Y193000D02*
Y196000D01*
X238500Y193000D02*
Y196000D01*
X240500Y193000D02*
Y196000D01*
X241000Y193000D02*
Y196000D01*
X240000Y193000D02*
Y196000D01*
X236500Y193000D02*
Y196000D01*
X237000Y193000D02*
Y196000D01*
X236000Y193000D02*
Y196000D01*
X238000Y193000D02*
Y196000D01*
X237500Y193000D02*
Y196000D01*
X221000Y193000D02*
Y196000D01*
X221500Y193000D02*
Y196000D01*
X220500Y193000D02*
Y196000D01*
X222500Y193000D02*
Y196000D01*
X223000Y193000D02*
Y196000D01*
X222000Y193000D02*
Y196000D01*
X218500Y193000D02*
Y196000D01*
X219000Y193000D02*
Y196000D01*
X218000Y193000D02*
Y196000D01*
X220000Y193000D02*
Y196000D01*
X219500Y193000D02*
Y196000D01*
X228500Y193000D02*
Y196000D01*
X229000Y193000D02*
Y196000D01*
X228000Y193000D02*
Y196000D01*
X230000Y193000D02*
Y196000D01*
X229500Y193000D02*
Y196000D01*
X226000Y193000D02*
Y196000D01*
X226500Y193000D02*
Y196000D01*
X223500Y193000D02*
Y196000D01*
X227500Y193000D02*
Y196000D01*
X227000Y193000D02*
Y196000D01*
X239500Y182600D02*
Y187500D01*
X240000Y182600D02*
Y187500D01*
X239000Y182600D02*
Y187500D01*
X241000Y182600D02*
Y187500D01*
Y182600D02*
Y187500D01*
X240500Y182600D02*
Y187500D01*
X237500D02*
X241000D01*
X237500Y187000D02*
X241000D01*
X237500Y187500D02*
X241000D01*
X237500Y186500D02*
X241000D01*
X238500Y182600D02*
Y187500D01*
X237500Y185500D02*
X241000D01*
X237500Y185000D02*
X241000D01*
X237500Y186000D02*
X241000D01*
X237500Y184500D02*
X241000D01*
X237500Y183500D02*
X241000D01*
X237500Y183000D02*
X241000D01*
X237500Y184000D02*
X241000D01*
X237500Y182600D02*
X241000D01*
X237500D02*
Y187500D01*
X238000Y182600D02*
Y187500D01*
X237500Y182600D02*
Y187500D01*
X237150Y177813D02*
Y181387D01*
X237000Y177968D02*
Y181232D01*
X224500Y193000D02*
Y196000D01*
X225000Y193000D02*
Y196000D01*
X224000Y193000D02*
Y196000D01*
X225500Y193000D02*
Y196000D01*
X236350Y180500D02*
X237150D01*
X236350Y180000D02*
X237150D01*
X236654Y181000D02*
X237150D01*
X236500Y178264D02*
Y180936D01*
X236350Y178309D02*
Y180891D01*
Y179000D02*
X237150D01*
X236350Y178500D02*
X237150D01*
X236350Y179500D02*
X237150D01*
X210500Y193000D02*
Y196000D01*
X211000Y193000D02*
Y196000D01*
X210000Y193000D02*
Y196000D01*
X212000Y193000D02*
Y196000D01*
X212500Y193000D02*
Y196000D01*
X211500Y193000D02*
Y196000D01*
X208000Y193000D02*
Y196000D01*
X208500Y193000D02*
Y196000D01*
X207500Y193000D02*
Y196000D01*
X209500Y193000D02*
Y196000D01*
X209000Y193000D02*
Y196000D01*
X216000Y193000D02*
Y196000D01*
X216500Y193000D02*
Y196000D01*
X215500Y193000D02*
Y196000D01*
X217500Y193000D02*
Y196000D01*
X217000Y193000D02*
Y196000D01*
X213500Y193000D02*
Y196000D01*
X214000Y193000D02*
Y196000D01*
X213000Y193000D02*
Y196000D01*
X215000Y193000D02*
Y196000D01*
X214500Y193000D02*
Y196000D01*
X204000Y193000D02*
Y196000D01*
X204500Y193000D02*
Y196000D01*
X203500Y193000D02*
Y196000D01*
X205500Y193000D02*
Y196000D01*
X206000Y193000D02*
Y196000D01*
X205000Y193000D02*
Y196000D01*
X202500Y193000D02*
Y196000D01*
X203000Y193000D02*
Y196000D01*
X202000Y192914D02*
Y196000D01*
X200500Y182350D02*
Y196000D01*
X200000Y182350D02*
Y196000D01*
X206500Y193000D02*
Y196000D01*
X207000Y193000D02*
Y196000D01*
X201500Y192618D02*
Y196000D01*
X201000Y182350D02*
Y191500D01*
Y196000D01*
Y182350D02*
Y191500D01*
X199500Y182350D02*
Y196000D01*
X199000Y182350D02*
Y196000D01*
X196500Y182350D02*
Y196000D01*
X197000Y182350D02*
Y196000D01*
X196000Y182350D02*
Y196000D01*
X198000Y182350D02*
Y196000D01*
X198500Y182350D02*
Y196000D01*
X197500Y182350D02*
Y196000D01*
X192500Y181350D02*
Y196000D01*
X194500Y181350D02*
Y196000D01*
X192000Y181350D02*
Y196000D01*
X195500Y181350D02*
Y196000D01*
X195000Y181350D02*
Y196000D01*
X195650Y181350D02*
Y182350D01*
X201000D01*
X194000Y181350D02*
Y196000D01*
X193500Y181350D02*
Y196000D01*
X193000Y181350D02*
Y196000D01*
X191850Y182000D02*
X195650D01*
X191850Y181500D02*
X195650D01*
X186150Y182350D02*
X191850D01*
Y181350D02*
X195650D01*
X191850D02*
Y182350D01*
X189500D02*
Y196000D01*
X190000Y182350D02*
Y196000D01*
X189000Y182350D02*
Y196000D01*
X191000Y182350D02*
Y196000D01*
X191500Y182350D02*
Y196000D01*
X190500Y182350D02*
Y196000D01*
X188000Y182350D02*
Y196000D01*
X188500Y182350D02*
Y196000D01*
X187500Y182350D02*
Y196000D01*
X187000Y182350D02*
Y196000D01*
X184500Y181350D02*
Y196000D01*
X186500Y182350D02*
Y196000D01*
X186150Y181350D02*
Y182350D01*
X185500Y181350D02*
Y196000D01*
X191850Y176850D02*
Y177850D01*
X186000Y181350D02*
Y196000D01*
X184000Y181350D02*
Y196000D01*
X185000Y181350D02*
Y196000D01*
X183000Y181350D02*
Y196000D01*
X185000Y155750D02*
Y177850D01*
X183500Y181350D02*
Y196000D01*
X229850Y175000D02*
X230650D01*
X229850Y174500D02*
X230650D01*
X229850Y175000D02*
X230650D01*
Y170850D02*
Y175000D01*
X229850Y173500D02*
X230650D01*
X229850Y174000D02*
X230650D01*
X229850Y172500D02*
X230650D01*
X229850Y172000D02*
X230650D01*
X229850Y173000D02*
X230650D01*
X229850Y171000D02*
X230650D01*
X229850Y171500D02*
X230650D01*
X238975Y170600D02*
X239237Y170337D01*
X239500Y170001D02*
Y170600D01*
X230650Y170850D02*
X233775D01*
X229475Y168500D02*
X236125D01*
X228750Y170500D02*
X234125D01*
X228937Y170000D02*
X234625D01*
X228750Y170850D02*
X229850D01*
X229398Y169000D02*
X235625D01*
X229237Y169500D02*
X235125D01*
X191850Y177850D02*
X193846D01*
X191850Y177000D02*
X193086D01*
X229850Y170850D02*
Y175000D01*
X193000Y176500D02*
Y177850D01*
X191850Y175500D02*
X193000D01*
X191850Y175000D02*
X193000D01*
X191850Y176000D02*
X193000D01*
X191850Y174500D02*
X193000D01*
X191850Y170850D02*
Y176350D01*
X228750Y170215D02*
Y170850D01*
X229000Y169915D02*
Y170850D01*
X191850Y173000D02*
X193000D01*
X229500Y168475D02*
Y170850D01*
X191850Y173500D02*
X193000D01*
X191850Y172500D02*
X193000D01*
X191850Y174000D02*
X193000D01*
X191850Y171000D02*
X193000D01*
X191850Y171500D02*
X193000D01*
X241000Y164975D02*
Y170600D01*
X241500Y165475D02*
Y170600D01*
X240500Y164475D02*
Y170600D01*
X240000Y163975D02*
Y170600D01*
X239750Y163725D02*
Y169100D01*
X236250Y161725D02*
Y168375D01*
X229975Y168000D02*
X236250D01*
X230475Y167500D02*
X236250D01*
X233775Y170850D02*
X236250Y168375D01*
X231475Y166500D02*
X236250D01*
X230975Y167000D02*
X236250D01*
X239750Y165000D02*
X241025D01*
X239750Y164500D02*
X240525D01*
X234475Y163500D02*
X236250D01*
X241500Y145419D02*
Y151581D01*
X241150Y145419D02*
Y151581D01*
X232475Y165500D02*
X236250D01*
X232975Y165000D02*
X236250D01*
X231975Y166000D02*
X236250D01*
X233975Y164000D02*
X236250D01*
X233475Y164500D02*
X236250D01*
X231000Y166975D02*
Y170850D01*
X232000Y165975D02*
Y170850D01*
X230500Y167475D02*
Y175000D01*
X233000Y164975D02*
Y170850D01*
X233500Y164475D02*
Y170850D01*
X232500Y165475D02*
Y170850D01*
X193000Y155750D02*
Y176500D01*
X230000Y167975D02*
Y175000D01*
X193000Y155750D02*
Y176500D01*
X192500Y155750D02*
Y177850D01*
X192000Y155750D02*
Y177850D01*
X234975Y163000D02*
X236250D01*
X235475Y162500D02*
X236250D01*
X235000Y162975D02*
Y169625D01*
X236000Y161975D02*
Y168625D01*
X235500Y162475D02*
Y169125D01*
X234000Y163975D02*
Y170625D01*
X234500Y163475D02*
Y170125D01*
X231500Y166475D02*
Y170850D01*
X229450Y168525D02*
X236250Y161725D01*
X192000Y144510D02*
Y147250D01*
X191850Y177500D02*
X193382D01*
X191850Y172000D02*
X193000D01*
X190750Y170500D02*
X193000D01*
X190750Y169500D02*
X193000D01*
X190750Y169000D02*
X193000D01*
X190750Y170000D02*
X193000D01*
X190750Y168000D02*
X193000D01*
X190750Y167500D02*
X193000D01*
X190750Y168500D02*
X193000D01*
X190750Y166500D02*
X193000D01*
X190750Y167000D02*
X193000D01*
X190750Y161000D02*
X193000D01*
X190750Y160500D02*
X193000D01*
X190750Y161500D02*
X193000D01*
X190750Y159500D02*
X193000D01*
X190750Y160000D02*
X193000D01*
X190750Y165500D02*
X193000D01*
X190750Y164500D02*
X193000D01*
X190750Y166000D02*
X193000D01*
X190750Y162000D02*
X193000D01*
X190750Y164000D02*
X193000D01*
X189500Y176350D02*
Y176850D01*
X190000Y176350D02*
Y176850D01*
X189000Y176350D02*
Y176850D01*
X191000Y176350D02*
Y176850D01*
X191500Y176350D02*
Y176850D01*
X190500Y176350D02*
Y176850D01*
X186500Y176350D02*
Y176850D01*
X186150D02*
X191850D01*
X186150D02*
Y177850D01*
X187500Y176350D02*
Y176850D01*
X187000Y176350D02*
Y176850D01*
X190750Y165000D02*
X193000D01*
X190750Y163500D02*
X193000D01*
X190750Y170850D02*
X191850D01*
X190750Y162500D02*
X193000D01*
X190750Y163000D02*
X193000D01*
X188500Y176350D02*
Y176850D01*
X186150Y176350D02*
X191850D01*
X188000D02*
Y176850D01*
X186150Y170850D02*
X187250D01*
X186150D02*
Y176350D01*
X190750Y158500D02*
X193000D01*
X190750Y158000D02*
X193000D01*
X190750Y159000D02*
X193000D01*
X191000Y155750D02*
Y170850D01*
X191500Y155750D02*
Y170850D01*
X190750Y155750D02*
Y170850D01*
Y157000D02*
X193000D01*
X190750Y156500D02*
X193000D01*
X190750Y157500D02*
X193000D01*
X190750Y155750D02*
X193000D01*
X190750Y156000D02*
X193000D01*
X191000Y145250D02*
Y147250D01*
X190436Y145500D02*
X193000D01*
X190500Y145476D02*
Y147250D01*
X191411Y145000D02*
X193000D01*
X191500Y144937D02*
Y147250D01*
X189500Y145721D02*
Y147250D01*
X184750D02*
X193000D01*
X189000Y145750D02*
Y147250D01*
X190000Y145631D02*
Y147250D01*
X188500Y145721D02*
Y147250D01*
X187000Y155750D02*
Y170850D01*
X187250Y155750D02*
Y170850D01*
X186500Y155750D02*
Y170850D01*
X185500Y155750D02*
Y177850D01*
X186000Y155750D02*
Y177850D01*
X184750Y147250D02*
Y155750D01*
X187250D01*
X182976Y153000D02*
X184750D01*
X183000Y152936D02*
Y177850D01*
X183221Y152000D02*
X184750D01*
X183131Y152500D02*
X184750D01*
X187500Y145476D02*
Y147250D01*
X188000Y145631D02*
Y147250D01*
X187000Y145250D02*
Y147250D01*
X186500Y144937D02*
Y147250D01*
X186000Y144510D02*
Y147250D01*
X183221Y151000D02*
X184750D01*
X183131Y150500D02*
X184750D01*
X183250Y151500D02*
X184750D01*
X182750Y149500D02*
X184750D01*
X182976Y150000D02*
X184750D01*
X294250Y144000D02*
X297500D01*
X295000Y141000D02*
X297500D01*
X294221Y144500D02*
X297500D01*
X296500Y139517D02*
Y192889D01*
X294131Y143000D02*
X297500D01*
X293977Y142500D02*
X297500D01*
X294221Y143500D02*
X297500D01*
X293437Y141500D02*
X297500D01*
X293750Y142000D02*
X297500D01*
X296500Y137500D02*
X297500D01*
X296500Y137000D02*
X297500D01*
X296500Y138000D02*
X297500D01*
X296500Y136000D02*
X297500D01*
X296500Y135500D02*
X297500D01*
X296500Y136500D02*
X297500D01*
X296414Y140000D02*
X297500D01*
X296500Y139500D02*
X297500D01*
X296118Y140500D02*
X297500D01*
X296500Y138500D02*
X297500D01*
X296500Y139000D02*
X297500D01*
X294500Y141000D02*
Y194667D01*
X295500Y140914D02*
Y193778D01*
X296000Y140618D02*
Y193333D01*
X295000Y141000D02*
Y194222D01*
X284500Y141000D02*
Y196000D01*
X285000Y141000D02*
Y196000D01*
X284000Y141000D02*
Y196000D01*
X285500Y141000D02*
Y196000D01*
X293010Y141000D02*
X295000D01*
X293010D02*
X295000D01*
X294000D02*
Y142564D01*
X293500Y141000D02*
Y141589D01*
X286500Y141000D02*
Y141589D01*
X286000Y141000D02*
Y142564D01*
X284000Y141000D02*
X286990D01*
X284000D02*
X286990D01*
X296500Y134500D02*
X297500D01*
X296500Y134000D02*
X297500D01*
X296500Y135000D02*
X297500D01*
X297000Y104417D02*
Y192444D01*
X297500Y105000D02*
Y192000D01*
X296500Y129000D02*
Y139500D01*
Y133000D02*
X297500D01*
X296500Y132500D02*
X297500D01*
X296500Y133500D02*
X297500D01*
X296500Y131500D02*
X297500D01*
X296500Y132000D02*
X297500D01*
X296500Y130500D02*
X297500D01*
X296500Y130000D02*
X297500D01*
X296500Y131000D02*
X297500D01*
X296500Y129000D02*
X297500D01*
X296500Y129500D02*
X297500D01*
X296118Y128000D02*
X297500D01*
X295000Y127500D02*
X297500D01*
X296414Y128500D02*
X297500D01*
X293010Y127000D02*
X297500D01*
X296500Y128983D02*
Y139517D01*
Y103833D02*
Y128983D01*
X296000Y103250D02*
Y127882D01*
X295500Y102667D02*
Y127586D01*
X295000Y102083D02*
Y127500D01*
X292411D02*
X295000D01*
X292411D02*
X295000D01*
X294500Y101500D02*
Y127500D01*
X293000Y127011D02*
Y127500D01*
X293500Y126411D02*
Y127500D01*
X287000Y127010D02*
Y127500D01*
X294000Y125436D02*
Y127500D01*
X286500Y126411D02*
Y127500D01*
X285500Y101500D02*
Y127500D01*
X286000Y125436D02*
Y127500D01*
X285000Y101500D02*
Y127500D01*
X284500Y101500D02*
Y127500D01*
X284000Y101500D02*
Y127500D01*
X283000Y140618D02*
Y196000D01*
X283500Y140914D02*
Y196000D01*
X282500Y140121D02*
Y196000D01*
X281500Y139121D02*
Y196000D01*
X282000Y139621D02*
Y196000D01*
X281000Y138621D02*
Y196000D01*
X241711Y144500D02*
X285780D01*
X241711Y143500D02*
X285780D01*
X241711Y144000D02*
X285750D01*
X241711Y142500D02*
X286024D01*
X241711Y143000D02*
X285869D01*
X241711Y142000D02*
X286250D01*
X241711Y141500D02*
X286563D01*
X241711Y141000D02*
X284000D01*
X238500Y140500D02*
X282879D01*
X238500Y140000D02*
X282379D01*
X238500Y139500D02*
X281879D01*
X238500Y139000D02*
X281379D01*
X238621Y138500D02*
X280879D01*
X280000Y137621D02*
Y196000D01*
X280500Y138121D02*
Y196000D01*
X279500Y137121D02*
Y196000D01*
X278500Y136121D02*
Y196000D01*
X279000Y136621D02*
Y196000D01*
X278000Y135621D02*
Y196000D01*
X277000Y134621D02*
Y196000D01*
X277500Y135121D02*
Y196000D01*
X276500Y134121D02*
Y196000D01*
X276000Y133621D02*
Y196000D01*
X275500Y133121D02*
Y196000D01*
X239500Y135500D02*
X277879D01*
X244000Y135000D02*
X277379D01*
X244000Y134500D02*
X276879D01*
X244000Y134000D02*
X276379D01*
X244000Y133500D02*
X275879D01*
X239118Y138000D02*
X280379D01*
X239414Y137500D02*
X279879D01*
X239500Y137000D02*
X279379D01*
X239500Y136500D02*
X278879D01*
X239500Y136000D02*
X278379D01*
X274500Y132121D02*
Y196000D01*
X275000Y132621D02*
Y196000D01*
X274000Y131621D02*
Y196000D01*
X273000Y130621D02*
Y196000D01*
X273500Y131121D02*
Y196000D01*
X272500Y130121D02*
Y196000D01*
X244000Y133000D02*
X275379D01*
X244000Y132500D02*
X274879D01*
X244000Y132000D02*
X274379D01*
X261879Y119500D02*
X282939Y140560D01*
X244000Y131500D02*
X273879D01*
X283029Y127500D02*
X287589D01*
X283029D02*
X287589D01*
X283500Y101500D02*
Y127500D01*
X283000Y101500D02*
Y127477D01*
X282500Y101500D02*
Y127075D01*
X244000Y131000D02*
X273379D01*
X282407Y127000D02*
X286990D01*
X244000Y130500D02*
X272879D01*
X262942Y111332D02*
X283029Y127500D01*
X282000Y101500D02*
Y126672D01*
X271500Y129121D02*
Y196000D01*
X272000Y129621D02*
Y196000D01*
X271000Y128621D02*
Y196000D01*
X270000Y127621D02*
Y196000D01*
X270500Y128121D02*
Y196000D01*
X269500Y127121D02*
Y196000D01*
X267500Y125121D02*
Y196000D01*
X269000Y126621D02*
Y196000D01*
X267000Y124621D02*
Y196000D01*
X266500Y124121D02*
Y196000D01*
X266000Y123621D02*
Y196000D01*
X245000Y127500D02*
X269879D01*
X245000Y127000D02*
X269379D01*
X245000Y126500D02*
X268879D01*
X268500Y126121D02*
Y196000D01*
X268000Y125621D02*
Y196000D01*
X244000Y130000D02*
X272379D01*
X239500Y129500D02*
X271879D01*
X239500Y129000D02*
X271379D01*
X239500Y128500D02*
X270879D01*
X239500Y128000D02*
X270379D01*
X294221Y124500D02*
X297500D01*
X294250Y124000D02*
X297500D01*
X294131Y125000D02*
X297500D01*
X294221Y123500D02*
X297500D01*
X294131Y123000D02*
X297500D01*
X294000Y118250D02*
Y122564D01*
X293750Y126000D02*
X297500D01*
X293977Y125500D02*
X297500D01*
X293437Y126500D02*
X297500D01*
X293977Y122500D02*
X297500D01*
X294250Y118000D02*
X297500D01*
X294250Y117500D02*
X297500D01*
X293750Y122000D02*
X297500D01*
X294250Y116500D02*
X297500D01*
X294250Y116000D02*
X297500D01*
X294250Y117000D02*
X297500D01*
X293010Y121000D02*
X297500D01*
X292411Y120500D02*
X297500D01*
X293437Y121500D02*
X297500D01*
X291436Y120000D02*
X297500D01*
X285750Y118250D02*
X294250D01*
X293500D02*
Y121589D01*
X293000Y118250D02*
Y120990D01*
X287000Y118250D02*
Y120990D01*
X287500Y118250D02*
Y120563D01*
X286500Y118250D02*
Y121589D01*
X281786Y126500D02*
X286563D01*
X281165Y126000D02*
X286250D01*
X280544Y125500D02*
X286024D01*
X286000Y118250D02*
Y122564D01*
X291500Y118250D02*
Y120024D01*
X291000Y118250D02*
Y119869D01*
X290500Y118250D02*
Y119780D01*
X292500Y118250D02*
Y120563D01*
X292000Y118250D02*
Y120250D01*
X288500Y118250D02*
Y120024D01*
X289000Y118250D02*
Y119869D01*
X288000Y118250D02*
Y120250D01*
X290000Y118250D02*
Y119750D01*
X289500Y118250D02*
Y119780D01*
X294250Y113000D02*
X297500D01*
X294250Y112500D02*
X297500D01*
X294250Y113500D02*
X297500D01*
X294250Y111500D02*
X297500D01*
X294250Y111000D02*
X297500D01*
X294250Y112000D02*
X297500D01*
X294250Y115000D02*
X297500D01*
X294250Y114500D02*
X297500D01*
X294250Y115500D02*
X297500D01*
X294250Y114000D02*
X297500D01*
X294250Y109750D02*
Y118250D01*
Y110000D02*
X297500D01*
X294500Y101500D02*
X297500Y105000D01*
X294250Y110500D02*
X297500D01*
X294000Y101500D02*
Y109750D01*
X293500Y101500D02*
Y109750D01*
X292000Y101500D02*
Y109750D01*
X285750D02*
X294250D01*
X291500Y101500D02*
Y109750D01*
X293000Y101500D02*
Y109750D01*
X292500Y101500D02*
Y109750D01*
X285750D02*
Y118250D01*
X289500Y101500D02*
Y109750D01*
X280219Y113500D02*
X285750D01*
X281500Y101500D02*
Y126270D01*
X281000Y101500D02*
Y125867D01*
X280500Y101500D02*
Y125465D01*
X280059Y114500D02*
X285750D01*
X280179Y114000D02*
X285750D01*
X280000Y114666D02*
Y125062D01*
X280059Y112500D02*
X285750D01*
X280179Y113000D02*
X285750D01*
X289000Y101500D02*
Y109750D01*
X290000Y101500D02*
Y109750D01*
X288500Y101500D02*
Y109750D01*
X291000Y101500D02*
Y109750D01*
X290500Y101500D02*
Y109750D01*
X286500Y101500D02*
Y109750D01*
X287000Y101500D02*
Y109750D01*
X286000Y101500D02*
Y109750D01*
X288000Y101500D02*
Y109750D01*
X287500Y101500D02*
Y109750D01*
X279923Y125000D02*
X285869D01*
X279301Y124500D02*
X285780D01*
X278680Y124000D02*
X285750D01*
X277438Y123000D02*
X285869D01*
X276817Y122500D02*
X286024D01*
X278059Y123500D02*
X285780D01*
X275574Y121500D02*
X286563D01*
X274953Y121000D02*
X286990D01*
X276195Y122000D02*
X286250D01*
X273710Y120000D02*
X288564D01*
X274332Y120500D02*
X287589D01*
X273089Y119500D02*
X297500D01*
X278166Y116500D02*
X285750D01*
X279027Y116000D02*
X285750D01*
X279848Y115000D02*
X285750D01*
X279522Y115500D02*
X285750D01*
X272468Y119000D02*
X297500D01*
X271847Y118500D02*
X297500D01*
X271226Y118000D02*
X285750D01*
X269983Y117000D02*
X285750D01*
X270604Y117500D02*
X285750D01*
X278000Y116559D02*
Y123452D01*
X277500Y116679D02*
Y123050D01*
X277000Y116718D02*
Y122648D01*
X279500Y115527D02*
Y124660D01*
X279000Y116022D02*
Y124257D01*
X278500Y116348D02*
Y123855D01*
X245000Y126000D02*
X268379D01*
X245000Y125500D02*
X267879D01*
X245000Y125000D02*
X267379D01*
X245000Y124500D02*
X266879D01*
X245000Y124000D02*
X266379D01*
X276500Y116679D02*
Y122245D01*
X276000Y116559D02*
Y121843D01*
X275500Y116348D02*
Y121440D01*
X275000Y116022D02*
Y121038D01*
X274500Y115527D02*
Y120635D01*
X269362Y116500D02*
X275834D01*
X268741Y116000D02*
X274973D01*
X268120Y115500D02*
X274478D01*
X267498Y115000D02*
X274152D01*
X274000Y114666D02*
Y120233D01*
X279522Y111500D02*
X285750D01*
X279027Y111000D02*
X285750D01*
X279848Y112000D02*
X285750D01*
X280000Y101500D02*
Y112334D01*
X279500Y101500D02*
Y111473D01*
X274500Y101500D02*
Y111473D01*
X263150Y111500D02*
X274478D01*
X262000Y111000D02*
X274973D01*
X263771Y112000D02*
X274152D01*
X274000Y101500D02*
Y112334D01*
X279000Y101500D02*
Y110978D01*
X278166Y110500D02*
X285750D01*
X278500Y101500D02*
Y110652D01*
X278000Y101500D02*
Y110441D01*
X277500Y101500D02*
Y110321D01*
X275500Y101500D02*
Y110652D01*
X276000Y101500D02*
Y110441D01*
X275000Y101500D02*
Y110978D01*
X277000Y101500D02*
Y110282D01*
X276500Y101500D02*
Y110321D01*
X272000Y101500D02*
Y118623D01*
X271500Y101500D02*
Y118221D01*
X271000Y101500D02*
Y117818D01*
X273500Y101500D02*
Y119831D01*
X273000Y101500D02*
Y119428D01*
X272500Y101500D02*
Y119026D01*
X269500Y101500D02*
Y116611D01*
X269000Y101500D02*
Y116209D01*
X268500Y101500D02*
Y115806D01*
X270500Y101500D02*
Y117416D01*
X270000Y101500D02*
Y117014D01*
X268000Y101500D02*
Y115404D01*
X266877Y114500D02*
X273941D01*
X267500Y101500D02*
Y115001D01*
X267000Y101500D02*
Y114599D01*
X266500Y101500D02*
Y114196D01*
X266256Y114000D02*
X273821D01*
X265014Y113000D02*
X273821D01*
X265635Y113500D02*
X273781D01*
X264392Y112500D02*
X273941D01*
X266000Y101500D02*
Y113794D01*
X265000Y122621D02*
Y196000D01*
X265500Y123121D02*
Y196000D01*
X264500Y122121D02*
Y196000D01*
X263500Y121121D02*
Y196000D01*
X264000Y121621D02*
Y196000D01*
X263000Y120621D02*
Y196000D01*
X244000Y129650D02*
Y135350D01*
Y129650D02*
Y135350D01*
Y163025D01*
X245000Y127750D02*
Y164025D01*
X244500Y127750D02*
Y163525D01*
X245000Y123500D02*
X265879D01*
X245000Y123000D02*
X265379D01*
X245000Y122500D02*
X264879D01*
X245000Y122000D02*
X264379D01*
X245000Y121500D02*
X263879D01*
X245000Y121000D02*
X263379D01*
X239500Y135350D02*
X244000D01*
X243500Y127750D02*
Y129650D01*
X244000Y127750D02*
Y129650D01*
X243500Y135350D02*
Y162525D01*
X243000Y135350D02*
Y162025D01*
X241711Y140754D02*
Y145419D01*
X242500Y135350D02*
Y161525D01*
X242000Y135350D02*
Y161025D01*
X241500Y135350D02*
Y140754D01*
X241000Y135350D02*
Y140754D01*
X239742D02*
X241711D01*
X240500Y135350D02*
Y140754D01*
X240000Y135350D02*
Y140754D01*
X242500Y127750D02*
Y129650D01*
X243000Y127750D02*
Y129650D01*
X242000Y127750D02*
Y129650D01*
X241500Y127750D02*
Y129650D01*
X241000Y127750D02*
Y129650D01*
X240500Y127750D02*
Y129650D01*
X240000Y127750D02*
Y129650D01*
X239500Y127750D02*
Y129650D01*
X256000Y119500D02*
Y196000D01*
X256500Y119500D02*
Y196000D01*
X255500Y119500D02*
Y196000D01*
X257500Y119500D02*
Y196000D01*
X258000Y119500D02*
Y196000D01*
X257000Y119500D02*
Y196000D01*
X253500Y119500D02*
Y196000D01*
X254000Y119500D02*
Y196000D01*
X253000Y119500D02*
Y196000D01*
X255000Y119500D02*
Y196000D01*
X254500Y119500D02*
Y196000D01*
X262000Y119621D02*
Y196000D01*
X262500Y120121D02*
Y196000D01*
X261500Y119500D02*
Y196000D01*
X261000Y119500D02*
Y196000D01*
X260500Y119500D02*
Y196000D01*
X259000Y119500D02*
Y196000D01*
X245000Y120500D02*
X262879D01*
X258500Y119500D02*
Y196000D01*
X260000Y119500D02*
Y196000D01*
X259500Y119500D02*
Y196000D01*
X250500Y119500D02*
Y175000D01*
X251000Y119500D02*
Y175000D01*
X250000Y119500D02*
Y175000D01*
X252500Y119500D02*
Y191500D01*
X252000Y119500D02*
Y175382D01*
X251500Y119500D02*
Y175086D01*
X248500Y119500D02*
Y166585D01*
X248000Y119500D02*
Y166063D01*
X247500Y119500D02*
Y165763D01*
X249500Y119500D02*
Y175000D01*
X249000Y119500D02*
Y170850D01*
X246000Y119500D02*
Y165025D01*
X245500Y119500D02*
Y164525D01*
X245000Y120250D02*
Y127750D01*
X247000Y119500D02*
Y165602D01*
X246500Y119500D02*
Y165525D01*
X245000Y120250D02*
Y127750D01*
X240000Y119500D02*
Y120250D01*
X244000Y119500D02*
Y120250D01*
X240500Y119500D02*
Y120250D01*
X238500Y140754D02*
X239742D01*
X238500Y138621D02*
Y140754D01*
X239500Y137000D02*
Y140754D01*
X238500Y138621D02*
Y140754D01*
X193000Y142936D02*
Y147250D01*
Y142936D02*
Y147250D01*
X192437Y144000D02*
X193000D01*
X238500Y140754D02*
X239742D01*
X239500Y135350D02*
Y137000D01*
Y129650D02*
X244000D01*
X239500Y135350D02*
Y137000D01*
Y127750D02*
X245000D01*
X239500D02*
Y129650D01*
X238500Y138621D02*
X239060Y138061D01*
X239000Y138121D02*
Y140754D01*
X193000Y126350D02*
Y140064D01*
X192500Y143911D02*
Y147250D01*
X192010Y144500D02*
X193000D01*
X185500Y143911D02*
Y147250D01*
X185000Y142936D02*
Y147250D01*
X182976Y143000D02*
X185023D01*
X183131Y142500D02*
X184869D01*
X183000Y142936D02*
Y150064D01*
X183221Y142000D02*
X184780D01*
X192010Y138500D02*
X193000D01*
X191411Y138000D02*
X193000D01*
X192437Y139000D02*
X193000D01*
X190436Y137500D02*
X193000D01*
X191000Y126350D02*
Y137750D01*
X183221Y141000D02*
X184780D01*
X183131Y140500D02*
X184869D01*
X183250Y141500D02*
X184750D01*
X182750Y139500D02*
X185250D01*
X182976Y140000D02*
X185023D01*
X193000Y126350D02*
Y140064D01*
X192500Y126350D02*
Y139089D01*
X192000Y126350D02*
Y138490D01*
X191500Y126350D02*
Y138063D01*
X192500Y101500D02*
Y121850D01*
X190500Y126350D02*
Y137523D01*
X190000Y126350D02*
Y137369D01*
X189500Y126350D02*
Y137279D01*
X188500Y126350D02*
Y137279D01*
X189500Y101500D02*
Y121850D01*
X189000Y126350D02*
Y137250D01*
X193000Y118000D02*
Y121850D01*
Y118000D02*
Y121850D01*
X192000Y101500D02*
Y121850D01*
X191500Y101500D02*
Y121850D01*
X191000Y101500D02*
Y121850D01*
X188500Y101500D02*
Y121850D01*
X189000Y101500D02*
Y121850D01*
X188000Y101500D02*
Y121850D01*
X190500Y101500D02*
Y121850D01*
X190000Y101500D02*
Y121850D01*
X186000Y126350D02*
Y138490D01*
X186500Y126350D02*
Y138063D01*
X185500Y126350D02*
Y139089D01*
X187500Y126350D02*
Y137523D01*
X188000Y126350D02*
Y137369D01*
X187000Y126350D02*
Y137750D01*
X183500Y126350D02*
Y177850D01*
X184000Y126350D02*
Y177850D01*
X183000Y126350D02*
Y140064D01*
X185000Y126350D02*
Y140064D01*
X184500Y126350D02*
Y177850D01*
X186000Y101500D02*
Y121850D01*
X186500Y101500D02*
Y121850D01*
X185500Y101500D02*
Y121850D01*
X187500Y101500D02*
Y121850D01*
X187000Y101500D02*
Y121850D01*
X183500Y101500D02*
Y121850D01*
X184000Y101500D02*
Y121850D01*
X183000Y101500D02*
Y121850D01*
X185000Y101500D02*
Y121850D01*
X184500Y101500D02*
Y121850D01*
X264000Y101500D02*
Y112184D01*
X263500Y101500D02*
Y111782D01*
X263000Y101500D02*
Y111379D01*
X265500Y101500D02*
Y113392D01*
X265000Y101500D02*
Y112989D01*
X264500Y101500D02*
Y112587D01*
X239500Y120000D02*
X262379D01*
X239500Y119500D02*
X261879D01*
X239500D02*
X261879D01*
X258000Y101500D02*
Y111000D01*
X261000Y101500D02*
Y111000D01*
X257500Y101500D02*
Y111000D01*
X262500Y101500D02*
Y111086D01*
X262000Y101500D02*
Y111000D01*
X261500Y101500D02*
Y111000D01*
X255000Y101500D02*
Y111000D01*
X255500Y101500D02*
Y111000D01*
X254500Y101500D02*
Y111000D01*
X256500Y101500D02*
Y111000D01*
X256000Y101500D02*
Y111000D01*
X242500Y119500D02*
Y120250D01*
X243000Y119500D02*
Y120250D01*
X242000Y119500D02*
Y120250D01*
X244500Y119500D02*
Y120250D01*
X245000Y119500D02*
Y120250D01*
X243500Y119500D02*
Y120250D01*
X239500Y119500D02*
Y120250D01*
X245000D01*
X239500Y119500D02*
Y120250D01*
X241500Y119500D02*
Y120250D01*
X241000Y119500D02*
Y120250D01*
X252500Y101500D02*
Y111000D01*
X253000Y101500D02*
Y111000D01*
X252000Y101500D02*
Y111000D01*
X254000Y101500D02*
Y111000D01*
X253500Y101500D02*
Y111000D01*
X250000Y101500D02*
Y111000D01*
X250500Y101500D02*
Y111000D01*
X249500Y101500D02*
Y111000D01*
X251500Y101500D02*
Y111000D01*
X251000Y101500D02*
Y111000D01*
X245000Y101500D02*
Y111000D01*
X245500Y101500D02*
Y111000D01*
X244500Y101500D02*
Y111000D01*
X246500Y101500D02*
Y111000D01*
X247000Y101500D02*
Y111000D01*
X246000Y101500D02*
Y111000D01*
X242500Y101500D02*
Y111000D01*
X243000Y101500D02*
Y111000D01*
X242000Y101500D02*
Y111000D01*
X244000Y101500D02*
Y111000D01*
X243500Y101500D02*
Y111000D01*
X259000Y101500D02*
Y111000D01*
X259500Y101500D02*
Y111000D01*
X258500Y101500D02*
Y111000D01*
X260500Y101500D02*
Y111000D01*
X260000Y101500D02*
Y111000D01*
X248000Y101500D02*
Y111000D01*
X248500Y101500D02*
Y111000D01*
X247500Y101500D02*
Y111000D01*
X257000Y101500D02*
Y111000D01*
X249000Y101500D02*
Y111000D01*
X234500Y101500D02*
Y111000D01*
X235000Y101500D02*
Y111000D01*
X234000Y101500D02*
Y111000D01*
X236000Y101500D02*
Y111000D01*
X236500Y101500D02*
Y111000D01*
X235500Y101500D02*
Y111000D01*
X232000Y101500D02*
Y111000D01*
X232500Y101500D02*
Y111000D01*
X231500Y101500D02*
Y111000D01*
X233500Y101500D02*
Y111000D01*
X233000Y101500D02*
Y111000D01*
X240000Y101500D02*
Y111000D01*
X240500Y101500D02*
Y111000D01*
X239500Y101500D02*
Y111000D01*
X241500Y101500D02*
Y111000D01*
X241000Y101500D02*
Y111000D01*
X237500Y101500D02*
Y111000D01*
X238000Y101500D02*
Y111000D01*
X237000Y101500D02*
Y111000D01*
X239000Y101500D02*
Y111000D01*
X238500Y101500D02*
Y111000D01*
X225000Y101500D02*
Y111000D01*
X225500Y101500D02*
Y111000D01*
X223000Y101500D02*
Y111000D01*
X226500Y101500D02*
Y111000D01*
X227000Y101500D02*
Y111000D01*
X226000Y101500D02*
Y111000D01*
X221000Y101500D02*
Y111000D01*
X221500Y101500D02*
Y111000D01*
X220500Y101500D02*
Y111000D01*
X222500Y101500D02*
Y111000D01*
X222000Y101500D02*
Y111000D01*
X229500Y101500D02*
Y111000D01*
X230000Y101500D02*
Y111000D01*
X229000Y101500D02*
Y111000D01*
X231000Y101500D02*
Y111000D01*
X230500Y101500D02*
Y111000D01*
X204000D02*
X262000D01*
X204000D02*
X262000D01*
X227500Y101500D02*
Y111000D01*
X228500Y101500D02*
Y111000D01*
X228000Y101500D02*
Y111000D01*
X213000Y101500D02*
Y111000D01*
X213500Y101500D02*
Y111000D01*
X212500Y101500D02*
Y111000D01*
X214500Y101500D02*
Y111000D01*
X215000Y101500D02*
Y111000D01*
X214000Y101500D02*
Y111000D01*
X193750Y116701D02*
X203246Y111203D01*
X218500Y101500D02*
Y111000D01*
X219000Y101500D02*
Y111000D01*
X218000Y101500D02*
Y111000D01*
X220000Y101500D02*
Y111000D01*
X219500Y101500D02*
Y111000D01*
X216000Y101500D02*
Y111000D01*
X216500Y101500D02*
Y111000D01*
X215500Y101500D02*
Y111000D01*
X217500Y101500D02*
Y111000D01*
X217000Y101500D02*
Y111000D01*
X206500Y101500D02*
Y111000D01*
X207000Y101500D02*
Y111000D01*
X206000Y101500D02*
Y111000D01*
X208000Y101500D02*
Y111000D01*
X208500Y101500D02*
Y111000D01*
X207500Y101500D02*
Y111000D01*
X204000Y101500D02*
Y111000D01*
X204500Y101500D02*
Y111000D01*
X203500Y101500D02*
Y111086D01*
X205500Y101500D02*
Y111000D01*
X205000Y101500D02*
Y111000D01*
X212000Y101500D02*
Y111000D01*
X223500Y101500D02*
Y111000D01*
X211500Y101500D02*
Y111000D01*
X224500Y101500D02*
Y111000D01*
X224000Y101500D02*
Y111000D01*
X209500Y101500D02*
Y111000D01*
X210000Y101500D02*
Y111000D01*
X209000Y101500D02*
Y111000D01*
X211000Y101500D02*
Y111000D01*
X210500Y101500D02*
Y111000D01*
X196000Y101500D02*
Y115398D01*
X196500Y101500D02*
Y115109D01*
X195500Y101500D02*
Y115688D01*
X197500Y101500D02*
Y114530D01*
X198000Y101500D02*
Y114240D01*
X197000Y101500D02*
Y114819D01*
X193500Y101500D02*
Y116882D01*
X194000Y101500D02*
Y116556D01*
X193000Y101500D02*
Y118000D01*
X195000Y101500D02*
Y115977D01*
X194500Y101500D02*
Y116267D01*
X201500Y101500D02*
Y112214D01*
X202000Y101500D02*
Y111925D01*
X201000Y101500D02*
Y112504D01*
X203000Y101500D02*
Y111346D01*
X202500Y101500D02*
Y111635D01*
X199000Y101500D02*
Y113662D01*
X199500Y101500D02*
Y113372D01*
X198500Y101500D02*
Y113951D01*
X200500Y101500D02*
Y112793D01*
X200000Y101500D02*
Y113083D01*
X180500Y182350D02*
Y196000D01*
X181000Y182350D02*
Y196000D01*
X180000Y182350D02*
Y196000D01*
X182000Y181350D02*
Y196000D01*
X182500Y181350D02*
Y196000D01*
X181500Y182350D02*
Y196000D01*
X177000Y182350D02*
Y196000D01*
X177500Y182350D02*
Y196000D01*
X176500Y182350D02*
Y196000D01*
X179500Y182350D02*
Y196000D01*
X179000Y182350D02*
Y196000D01*
X181850Y182000D02*
X186150D01*
X181850Y181500D02*
X186150D01*
X181850Y181350D02*
Y182350D01*
Y177500D02*
X186150D01*
X181850Y177000D02*
X186150D01*
X181850Y181350D02*
X186150D01*
X178500Y182350D02*
Y196000D01*
X176150Y182350D02*
X181850D01*
X178000D02*
Y196000D01*
X181850Y177850D02*
X186150D01*
X171850Y182000D02*
X176150D01*
X174000Y181350D02*
Y196000D01*
X174500Y181350D02*
Y196000D01*
X173500Y181350D02*
Y196000D01*
X175500Y181350D02*
Y196000D01*
X176000Y181350D02*
Y196000D01*
X175000Y181350D02*
Y196000D01*
X170000Y182350D02*
Y196000D01*
X170500Y182350D02*
Y196000D01*
X169500Y182350D02*
Y196000D01*
X173000Y181350D02*
Y196000D01*
X172500Y181350D02*
Y196000D01*
X176150Y181350D02*
Y182350D01*
X171850Y181500D02*
X176150D01*
X172000Y181350D02*
Y196000D01*
X171850Y177500D02*
X176150D01*
X171850Y181350D02*
Y182350D01*
X171500D02*
Y196000D01*
X171850Y181350D02*
X176150D01*
X171000Y182350D02*
Y196000D01*
X171850Y177000D02*
X176150D01*
X171850Y177850D02*
X176150D01*
X181850Y176850D02*
Y177850D01*
X181500Y176350D02*
Y176850D01*
X179000Y176350D02*
Y176850D01*
X182000Y154510D02*
Y177850D01*
X182500Y153911D02*
Y177850D01*
X181000Y176350D02*
Y176850D01*
X177500Y176350D02*
Y176850D01*
X176150D02*
X181850D01*
X177000Y176350D02*
Y176850D01*
X178500Y176350D02*
Y176850D01*
X178000Y176350D02*
Y176850D01*
X181850Y175500D02*
X186150D01*
X181850Y174500D02*
X186150D01*
X181850Y176000D02*
X186150D01*
X181850Y174000D02*
X186150D01*
X181850Y170850D02*
Y176350D01*
X180000D02*
Y176850D01*
X176150Y176350D02*
X181850D01*
X179500D02*
Y176850D01*
X181850Y175000D02*
X186150D01*
X180500Y176350D02*
Y176850D01*
X176150D02*
Y177850D01*
X176500Y176350D02*
Y176850D01*
X176000Y154510D02*
Y177850D01*
X175000Y152936D02*
Y177850D01*
X175500Y153911D02*
Y177850D01*
X173000Y152936D02*
Y177850D01*
X171850Y176850D02*
Y177850D01*
X170000Y176350D02*
Y176850D01*
X169500Y176350D02*
Y176850D01*
X172500Y153911D02*
Y177850D01*
X172000Y154510D02*
Y177850D01*
X171850Y174500D02*
X176150D01*
X171850Y174000D02*
X176150D01*
X171850Y176000D02*
X176150D01*
Y170850D02*
Y176350D01*
X171850Y170850D02*
Y176350D01*
X171000D02*
Y176850D01*
X171500Y176350D02*
Y176850D01*
X170500Y176350D02*
Y176850D01*
X171850Y175000D02*
X176150D01*
X171850Y175500D02*
X176150D01*
X104583Y195500D02*
X293563D01*
X104167Y195000D02*
X294125D01*
X105000Y196000D02*
X293000D01*
X103750Y194500D02*
X294688D01*
X132250Y191500D02*
X201000D01*
X133077Y191000D02*
X201000D01*
X103333Y194000D02*
X295250D01*
X102917Y193500D02*
X295813D01*
X102500Y193000D02*
X202500D01*
X102500Y192500D02*
X201382D01*
X102500Y192000D02*
X201086D01*
X134211Y189000D02*
X201000D01*
X134250Y188500D02*
X201000D01*
X134092Y189500D02*
X201000D01*
X134092Y187500D02*
X201000D01*
X134211Y188000D02*
X201000D01*
X133883Y190000D02*
X201000D01*
X133883Y187000D02*
X201000D01*
X133562Y190500D02*
X201000D01*
X133077Y186000D02*
X201000D01*
X133562Y186500D02*
X201000D01*
X167000Y182350D02*
Y196000D01*
X167500Y182350D02*
Y196000D01*
X166500Y182350D02*
Y196000D01*
X168500Y182350D02*
Y196000D01*
X169000Y182350D02*
Y196000D01*
X168000Y182350D02*
Y196000D01*
X161000Y181350D02*
Y196000D01*
X162000Y181350D02*
Y196000D01*
X160500Y181350D02*
Y196000D01*
X163000Y181350D02*
Y196000D01*
X162500Y181350D02*
Y196000D01*
X114220Y184500D02*
X201000D01*
X114250Y184000D02*
X201000D01*
X132250Y185500D02*
X201000D01*
X114220Y183500D02*
X201000D01*
X166150Y182350D02*
X171850D01*
X114131Y183000D02*
X201000D01*
X113977Y182500D02*
X201000D01*
X114131Y185000D02*
X201000D01*
X113437Y181500D02*
X166150D01*
X113750Y182000D02*
X166150D01*
Y176850D02*
Y177850D01*
X167000Y176350D02*
Y176850D01*
X166150Y181350D02*
Y182350D01*
X168000Y176350D02*
Y176850D01*
X169000Y176350D02*
Y176850D01*
X167500Y176350D02*
Y176850D01*
X146325Y177850D02*
X166150D01*
X145975Y177500D02*
X166150D01*
X145600Y181350D02*
X166150D01*
Y176850D02*
X171850D01*
X145475Y177000D02*
X166150D01*
X168500Y176350D02*
Y176850D01*
X144975Y176500D02*
X193000D01*
X166500Y176350D02*
Y176850D01*
X166150Y176350D02*
X171850D01*
X166150Y170850D02*
Y176350D01*
X143975Y175500D02*
X166150D01*
X143475Y175000D02*
X166150D01*
X144475Y176000D02*
X166150D01*
X142475Y174000D02*
X166150D01*
X142975Y174500D02*
X166150D01*
X164000Y181350D02*
Y196000D01*
X164500Y181350D02*
Y196000D01*
X163500Y181350D02*
Y196000D01*
X165500Y181350D02*
Y196000D01*
X166000Y181350D02*
Y196000D01*
X165000Y181350D02*
Y196000D01*
X156500Y181350D02*
Y196000D01*
X159500Y181350D02*
Y196000D01*
X156000Y181350D02*
Y196000D01*
X161500Y181350D02*
Y196000D01*
X160000Y181350D02*
Y196000D01*
X159000Y181350D02*
Y196000D01*
X166000Y154510D02*
Y177850D01*
X158500Y181350D02*
Y196000D01*
X165500Y153911D02*
Y177850D01*
X165000Y152936D02*
Y177850D01*
X155500Y181350D02*
Y196000D01*
X157000Y181350D02*
Y196000D01*
X155000Y181350D02*
Y196000D01*
X158000Y181350D02*
Y196000D01*
X157500Y181350D02*
Y196000D01*
X180750Y170500D02*
X187250D01*
X180750Y170000D02*
X187250D01*
X181850Y173000D02*
X186150D01*
X180750Y169000D02*
X187250D01*
X180750Y168500D02*
X187250D01*
X180750Y169500D02*
X187250D01*
X180750Y167500D02*
X187250D01*
X180750Y167000D02*
X187250D01*
X180750Y168000D02*
X187250D01*
X180750Y166000D02*
X187250D01*
X180750Y166500D02*
X187250D01*
X180750Y162500D02*
X187250D01*
X180750Y162000D02*
X187250D01*
X180750Y163000D02*
X187250D01*
X180750Y161000D02*
X187250D01*
X180750Y160500D02*
X187250D01*
X180750Y161500D02*
X187250D01*
X180750Y165000D02*
X187250D01*
X180750Y164500D02*
X187250D01*
X180750Y165500D02*
X187250D01*
X180750Y163500D02*
X187250D01*
X180750Y164000D02*
X187250D01*
X181850Y173500D02*
X186150D01*
X181850Y172500D02*
X186150D01*
X171850Y173000D02*
X176150D01*
X181850Y171500D02*
X186150D01*
X181850Y171000D02*
X186150D01*
X181850Y172000D02*
X186150D01*
X171850Y172500D02*
X176150D01*
X171850Y172000D02*
X176150D01*
X171850Y173500D02*
X176150D01*
X171850Y171000D02*
X176150D01*
X171850Y171500D02*
X176150D01*
Y170850D02*
X177250D01*
X180750D02*
X181850D01*
X170750Y170500D02*
X177250D01*
X170750Y169500D02*
X177250D01*
X170750Y170000D02*
X177250D01*
X170750Y168500D02*
X177250D01*
X170750Y165000D02*
X177250D01*
X170750Y169000D02*
X177250D01*
X170750Y164000D02*
X177250D01*
X170750Y164500D02*
X177250D01*
X180750Y159500D02*
X187250D01*
X180750Y159000D02*
X187250D01*
X180750Y160000D02*
X187250D01*
X181500Y154937D02*
Y170850D01*
X180750Y158500D02*
X187250D01*
X181000Y155250D02*
Y170850D01*
X180750Y157500D02*
X187250D01*
X180750Y157000D02*
X187250D01*
X180750Y158000D02*
X187250D01*
X180750Y156000D02*
X187250D01*
X180750Y156500D02*
X187250D01*
X182437Y154000D02*
X184750D01*
X182750Y153500D02*
X184750D01*
X182010Y154500D02*
X184750D01*
X182010Y148500D02*
X184750D01*
X182437Y149000D02*
X184750D01*
X180750Y155500D02*
X184750D01*
X181411Y155000D02*
X184750D01*
X180436Y147500D02*
X184750D01*
X181411Y148000D02*
X184750D01*
X177250Y155373D02*
Y170850D01*
X180750Y155373D02*
Y170850D01*
X177000Y155250D02*
Y170850D01*
X176500Y154937D02*
Y170850D01*
X172750Y153500D02*
X175250D01*
X172977Y153000D02*
X175023D01*
X171500Y154937D02*
Y170850D01*
X171411Y155000D02*
X176589D01*
X171000Y155250D02*
Y170850D01*
X172010Y154500D02*
X175990D01*
X172437Y154000D02*
X175563D01*
X173131Y152500D02*
X174869D01*
X173221Y152000D02*
X174779D01*
X173250Y151500D02*
X174750D01*
X173131Y150500D02*
X174869D01*
X173221Y151000D02*
X174779D01*
X172750Y149500D02*
X175250D01*
X172437Y149000D02*
X175563D01*
X172977Y150000D02*
X175023D01*
X171411Y148000D02*
X176589D01*
X172010Y148500D02*
X175990D01*
X166150Y170850D02*
X167250D01*
X170750D02*
X171850D01*
X138975Y170500D02*
X167250D01*
X170750Y167500D02*
X177250D01*
X170750Y167000D02*
X177250D01*
X170750Y168000D02*
X177250D01*
X137975Y169500D02*
X167250D01*
X136475Y168000D02*
X167250D01*
X138475Y170000D02*
X167250D01*
X135475Y167000D02*
X167250D01*
X135975Y167500D02*
X167250D01*
X170750Y162000D02*
X177250D01*
X170750Y161500D02*
X177250D01*
X170750Y162500D02*
X177250D01*
X170750Y160500D02*
X177250D01*
X170750Y161000D02*
X177250D01*
X170750Y166000D02*
X177250D01*
X170750Y165500D02*
X177250D01*
X170750Y166500D02*
X177250D01*
X170750Y163000D02*
X177250D01*
X170750Y163500D02*
X177250D01*
X141475Y173000D02*
X166150D01*
X140975Y172500D02*
X166150D01*
X141975Y173500D02*
X166150D01*
X139975Y171500D02*
X166150D01*
X139475Y171000D02*
X166150D01*
X140475Y172000D02*
X166150D01*
X136975Y168500D02*
X167250D01*
X134975Y166500D02*
X167250D01*
X137475Y169000D02*
X167250D01*
X133975Y165500D02*
X167250D01*
X134475Y166000D02*
X167250D01*
X132975Y164500D02*
X167250D01*
X132475Y164000D02*
X167250D01*
X133475Y165000D02*
X167250D01*
X131475Y163000D02*
X167250D01*
X131975Y163500D02*
X167250D01*
X130475Y162000D02*
X167250D01*
X129975Y161500D02*
X167250D01*
X130975Y162500D02*
X167250D01*
X128975Y160500D02*
X167250D01*
X129475Y161000D02*
X167250D01*
X170750Y159500D02*
X177250D01*
X170750Y159000D02*
X177250D01*
X170750Y160000D02*
X177250D01*
X170750Y158500D02*
X177250D01*
X170750Y157500D02*
X177250D01*
X170750Y155373D02*
Y170850D01*
X127975Y159500D02*
X167250D01*
X170750Y158000D02*
X177250D01*
X128475Y160000D02*
X167250D01*
X125975Y157500D02*
X167250D01*
X126475Y158000D02*
X167250D01*
X170750Y156500D02*
X177250D01*
X170750Y156000D02*
X177250D01*
X170750Y157000D02*
X177250D01*
X170750Y155500D02*
X177250D01*
X124975Y156500D02*
X167250D01*
X124475Y156000D02*
X167250D01*
X125475Y157000D02*
X167250D01*
X170436Y147500D02*
X177564D01*
X115975D02*
X167564D01*
X126975Y158500D02*
X167250D01*
X123975Y155500D02*
X167250D01*
X127475Y159000D02*
X167250D01*
X167000Y155250D02*
Y170850D01*
X167250Y155373D02*
Y170850D01*
X166500Y154937D02*
Y170850D01*
X123475Y155000D02*
X166589D01*
X122975Y154500D02*
X165990D01*
X122475Y154000D02*
X165563D01*
X121975Y153500D02*
X165250D01*
X121475Y153000D02*
X165024D01*
X120975Y152500D02*
X164869D01*
X120475Y152000D02*
X164779D01*
X119975Y151500D02*
X164750D01*
X118975Y150500D02*
X164869D01*
X119475Y151000D02*
X164779D01*
X117975Y149500D02*
X165250D01*
X117475Y149000D02*
X165563D01*
X118475Y150000D02*
X165024D01*
X116475Y148000D02*
X166589D01*
X116975Y148500D02*
X165990D01*
X152500Y181350D02*
Y196000D01*
X153000Y181350D02*
Y196000D01*
X152000Y181350D02*
Y196000D01*
X154000Y181350D02*
Y196000D01*
X154500Y181350D02*
Y196000D01*
X153500Y181350D02*
Y196000D01*
X150000Y181350D02*
Y196000D01*
X150500Y181350D02*
Y196000D01*
X149500Y181350D02*
Y196000D01*
X151500Y181350D02*
Y196000D01*
X151000Y181350D02*
Y196000D01*
X147000Y181350D02*
Y196000D01*
X147500Y181350D02*
Y196000D01*
X146500Y181350D02*
Y196000D01*
X148500Y181350D02*
Y196000D01*
X149000Y181350D02*
Y196000D01*
X148000Y181350D02*
Y196000D01*
X145500Y181347D02*
Y196000D01*
X146000Y181350D02*
Y196000D01*
X145000Y181244D02*
Y196000D01*
X144000Y180475D02*
Y196000D01*
X144500Y180961D02*
Y196000D01*
X143500Y179975D02*
Y196000D01*
X142500Y178975D02*
Y196000D01*
X143000Y179475D02*
Y196000D01*
X142000Y178475D02*
Y196000D01*
X133000Y191062D02*
Y196000D01*
X133500Y190577D02*
Y196000D01*
X129500Y191383D02*
Y196000D01*
X141500Y177975D02*
Y196000D01*
X134000Y189750D02*
Y196000D01*
X131000Y191750D02*
Y196000D01*
X131500Y191711D02*
Y196000D01*
X130500Y191711D02*
Y196000D01*
X132500Y191383D02*
Y196000D01*
X132000Y191592D02*
Y196000D01*
X129000Y191062D02*
Y196000D01*
X130000Y191592D02*
Y196000D01*
X128500Y190577D02*
Y196000D01*
X128000Y189750D02*
Y196000D01*
X140500Y176975D02*
Y196000D01*
X141000Y177475D02*
Y196000D01*
X140000Y176475D02*
Y196000D01*
X139000Y175475D02*
Y196000D01*
X139500Y175975D02*
Y196000D01*
X138500Y174975D02*
Y196000D01*
X137500Y173975D02*
Y196000D01*
X138000Y174475D02*
Y196000D01*
X137000Y173475D02*
Y196000D01*
X136500Y172975D02*
Y196000D01*
X136000Y172475D02*
Y196000D01*
X135000Y171475D02*
Y196000D01*
X135500Y171975D02*
Y196000D01*
X134500Y170975D02*
Y196000D01*
X134000Y170475D02*
Y187250D01*
X133500Y169975D02*
Y186423D01*
X133000Y169475D02*
Y185938D01*
X132500Y168975D02*
Y185617D01*
X132000Y168475D02*
Y185408D01*
X131500Y167975D02*
Y185289D01*
X131000Y167475D02*
Y185250D01*
X125000Y161475D02*
Y196000D01*
X125500Y161975D02*
Y196000D01*
X124500Y160975D02*
Y196000D01*
X123500Y159975D02*
Y196000D01*
X124000Y160475D02*
Y196000D01*
X123000Y159475D02*
Y196000D01*
X122000Y158475D02*
Y196000D01*
X122500Y158975D02*
Y196000D01*
X121500Y157975D02*
Y196000D01*
X121000Y157475D02*
Y196000D01*
X120500Y156975D02*
Y196000D01*
X130000Y166475D02*
Y185408D01*
X130500Y166975D02*
Y185289D01*
X129500Y165975D02*
Y185617D01*
X129000Y165475D02*
Y185938D01*
X128500Y164975D02*
Y186423D01*
X127500Y163975D02*
Y196000D01*
X128000Y164475D02*
Y187250D01*
X127000Y163475D02*
Y196000D01*
X126500Y162975D02*
Y196000D01*
X126000Y162475D02*
Y196000D01*
X112000Y187750D02*
Y196000D01*
X112500Y187437D02*
Y196000D01*
X111500Y187977D02*
Y196000D01*
X113500Y186411D02*
Y196000D01*
X114000Y185436D02*
Y196000D01*
X113000Y187010D02*
Y196000D01*
X102500Y191500D02*
X129750D01*
X102500Y191000D02*
X128923D01*
X102500Y190500D02*
X128438D01*
X111000Y188131D02*
Y196000D01*
X110500Y188221D02*
Y196000D01*
X113010Y187000D02*
X128117D01*
X113437Y186500D02*
X128438D01*
X112411Y187500D02*
X127908D01*
X113977Y185500D02*
X129750D01*
X113750Y186000D02*
X128923D01*
X102500Y190000D02*
X128117D01*
X102500Y189500D02*
X127908D01*
X102500Y189000D02*
X127789D01*
X111436Y188000D02*
X127789D01*
X102500Y188500D02*
X127750D01*
X109500Y188221D02*
Y196000D01*
X110000Y188250D02*
Y196000D01*
X109000Y188131D02*
Y196000D01*
X108000Y187750D02*
Y196000D01*
X108500Y187977D02*
Y196000D01*
X107500Y187437D02*
Y196000D01*
X107000Y187010D02*
Y196000D01*
X102500Y188000D02*
X108564D01*
X102500Y193000D02*
X105000Y196000D01*
X106500Y186411D02*
Y196000D01*
X106000Y185436D02*
Y196000D01*
X102500Y185000D02*
X105869D01*
X102500Y184500D02*
X105780D01*
X102500Y184000D02*
X105750D01*
X102500Y183000D02*
X105869D01*
X102500Y183500D02*
X105780D01*
X102500Y187500D02*
X107589D01*
X102500Y187000D02*
X106990D01*
X102500Y186500D02*
X106563D01*
X102500Y186000D02*
X106250D01*
X102500Y185500D02*
X106024D01*
X119500Y155975D02*
Y196000D01*
X120000Y156475D02*
Y196000D01*
X119000Y155475D02*
Y196000D01*
X118000Y154475D02*
Y196000D01*
X118500Y154975D02*
Y196000D01*
X117500Y153975D02*
Y196000D01*
X116500Y152975D02*
Y196000D01*
X117000Y153475D02*
Y196000D01*
X116000Y152475D02*
Y196000D01*
X115000Y151475D02*
Y196000D01*
X114500Y150975D02*
Y196000D01*
X113010Y181000D02*
X144550D01*
X112411Y180500D02*
X144025D01*
X113500Y176411D02*
Y181589D01*
X115500Y151975D02*
Y196000D01*
X114000Y175436D02*
Y182564D01*
X111436Y180000D02*
X143525D01*
X102500Y179500D02*
X143025D01*
X111501Y147976D02*
X144363Y180837D01*
X102500Y179000D02*
X142525D01*
X113000Y177010D02*
Y180990D01*
X112500Y177437D02*
Y180563D01*
X107500Y177437D02*
Y180563D01*
X106500Y176411D02*
Y181589D01*
X107000Y177010D02*
Y180990D01*
X106000Y175436D02*
Y182564D01*
X102500Y182000D02*
X106250D01*
X102500Y181500D02*
X106563D01*
X102500Y182500D02*
X106024D01*
X102500Y180500D02*
X107589D01*
X102500Y181000D02*
X106990D01*
X111000Y178131D02*
Y179869D01*
X110500Y178220D02*
Y179780D01*
X110000Y178250D02*
Y179750D01*
X112000Y177750D02*
Y180250D01*
X111500Y177977D02*
Y180024D01*
X109000Y178131D02*
Y179869D01*
X109500Y178220D02*
Y179780D01*
X102500Y180000D02*
X108564D01*
X108500Y177977D02*
Y180024D01*
X108000Y177750D02*
Y180250D01*
X113977Y175500D02*
X139025D01*
X114131Y175000D02*
X138525D01*
X114220Y174500D02*
X138025D01*
X114250Y174000D02*
X137525D01*
X114220Y173500D02*
X137025D01*
X114131Y173000D02*
X136525D01*
X111436Y178000D02*
X141525D01*
X112411Y177500D02*
X141025D01*
X113010Y177000D02*
X140525D01*
X113437Y176500D02*
X140025D01*
X113750Y176000D02*
X139525D01*
X113977Y172500D02*
X136025D01*
X113750Y172000D02*
X135525D01*
X113437Y171500D02*
X135025D01*
X113010Y167000D02*
X130525D01*
X113437Y166500D02*
X130025D01*
X113750Y166000D02*
X129525D01*
X113010Y171000D02*
X134525D01*
X112411Y170500D02*
X134025D01*
X111436Y170000D02*
X133525D01*
X111436Y168000D02*
X131525D01*
X112411Y167500D02*
X131025D01*
X113000Y167010D02*
Y170990D01*
X112500Y167437D02*
Y170563D01*
X112000Y167750D02*
Y170250D01*
X114000Y165436D02*
Y172564D01*
X113977Y165500D02*
X129025D01*
X113500Y166411D02*
Y171589D01*
X110500Y168220D02*
Y169780D01*
X110000Y168250D02*
Y169750D01*
X109500Y168220D02*
Y169780D01*
X111500Y167976D02*
Y170024D01*
X111000Y168131D02*
Y169869D01*
X114131Y165000D02*
X128525D01*
X114220Y164500D02*
X128025D01*
X114250Y164000D02*
X127525D01*
X114220Y163500D02*
X127025D01*
X114131Y163000D02*
X126525D01*
X113977Y162500D02*
X126025D01*
X113750Y162000D02*
X125525D01*
X113437Y161500D02*
X125025D01*
X113010Y161000D02*
X124525D01*
X112411Y160500D02*
X124025D01*
X113437Y156500D02*
X120025D01*
X113750Y156000D02*
X119525D01*
X113977Y155500D02*
X119025D01*
X114131Y155000D02*
X118525D01*
X114220Y154500D02*
X118025D01*
X114000Y155436D02*
Y162564D01*
X111436Y160000D02*
X123525D01*
X111436Y158000D02*
X121525D01*
X112411Y157500D02*
X121025D01*
X113010Y157000D02*
X120525D01*
X114250Y154000D02*
X117525D01*
X114220Y153500D02*
X117025D01*
X114131Y153000D02*
X116525D01*
X113977Y152500D02*
X116025D01*
X114000Y150475D02*
Y152564D01*
X113750Y152000D02*
X115525D01*
X113437Y151500D02*
X115025D01*
X113010Y151000D02*
X114525D01*
X112411Y150500D02*
X114025D01*
X111436Y150000D02*
X113525D01*
X112000Y157750D02*
Y160250D01*
X111500Y157976D02*
Y160023D01*
X111000Y158131D02*
Y159869D01*
X113500Y156411D02*
Y161589D01*
X113000Y157010D02*
Y160990D01*
X112500Y157437D02*
Y160563D01*
X110500Y158221D02*
Y159780D01*
X110000Y158250D02*
Y159750D01*
X109500Y158221D02*
Y159780D01*
X109000Y158131D02*
Y159869D01*
X113500Y149975D02*
Y151589D01*
X113000Y149475D02*
Y150990D01*
X112500Y148975D02*
Y150563D01*
X112000Y148475D02*
Y150250D01*
X111500Y147977D02*
Y150023D01*
X110500Y148221D02*
Y149779D01*
X110000Y148250D02*
Y149750D01*
X111000Y148131D02*
Y149869D01*
X109500Y148221D02*
Y149779D01*
X102500Y178500D02*
X142025D01*
X102500Y178000D02*
X108564D01*
X102500Y177500D02*
X107589D01*
X107500Y167437D02*
Y170563D01*
X107000Y167010D02*
Y170990D01*
X102500Y177000D02*
X106990D01*
X102500Y171500D02*
X106563D01*
X102500Y176500D02*
X106563D01*
X102500Y170500D02*
X107589D01*
X102500Y171000D02*
X106990D01*
X109000Y168131D02*
Y169869D01*
X102500Y169500D02*
X133025D01*
X102500Y170000D02*
X108564D01*
X108500Y167976D02*
Y170024D01*
X108000Y167750D02*
Y170250D01*
X102500Y169000D02*
X132525D01*
X102500Y168500D02*
X132025D01*
X102500Y168000D02*
X108564D01*
X102500Y167500D02*
X107589D01*
X102500Y167000D02*
X106990D01*
X102500Y176000D02*
X106250D01*
X102500Y175500D02*
X106024D01*
X102500Y175000D02*
X105869D01*
X106000Y165436D02*
Y172564D01*
X106500Y166411D02*
Y171589D01*
X102500Y174500D02*
X105780D01*
X102500Y173500D02*
X105780D01*
X102500Y173000D02*
X105869D01*
X102500Y174000D02*
X105750D01*
X102500Y172000D02*
X106250D01*
X102500Y172500D02*
X106024D01*
X102500Y163500D02*
X105780D01*
X102500Y163000D02*
X105869D01*
X102500Y164000D02*
X105750D01*
X102500Y162000D02*
X106250D01*
X102500Y162500D02*
X106024D01*
X102500Y166500D02*
X106563D01*
X102500Y166000D02*
X106250D01*
X102500Y165500D02*
X106024D01*
X102500Y165000D02*
X105869D01*
X102500Y164500D02*
X105780D01*
X108500Y157976D02*
Y160023D01*
X102500Y160500D02*
X107589D01*
X108000Y157750D02*
Y160250D01*
X102500Y159500D02*
X123025D01*
X102500Y159000D02*
X122525D01*
X102500Y160000D02*
X108564D01*
X102500Y158500D02*
X122025D01*
X102500Y158000D02*
X108564D01*
X102500Y150000D02*
X108564D01*
X109000Y148131D02*
Y149869D01*
X102500Y150500D02*
X107589D01*
X108500Y147977D02*
Y150023D01*
X108000Y147750D02*
Y150250D01*
X102500Y149500D02*
X113025D01*
X102500Y149000D02*
X112525D01*
X102500Y148500D02*
X112025D01*
X102500Y148000D02*
X108564D01*
X102500Y147500D02*
X107589D01*
X102500Y161000D02*
X106990D01*
X107500Y157437D02*
Y160563D01*
X102500Y161500D02*
X106563D01*
X106500Y156411D02*
Y161589D01*
X107000Y157010D02*
Y160990D01*
X106000Y155436D02*
Y162564D01*
X102500Y157500D02*
X107589D01*
X102500Y157000D02*
X106990D01*
X102500Y156500D02*
X106563D01*
X102500Y156000D02*
X106250D01*
X102500Y155500D02*
X106024D01*
X102500Y152000D02*
X106250D01*
X102500Y151500D02*
X106563D01*
X102500Y152500D02*
X106024D01*
X107500Y147437D02*
Y150563D01*
X102500Y151000D02*
X106990D01*
X102500Y155000D02*
X105869D01*
X102500Y154500D02*
X105780D01*
X102500Y154000D02*
X105750D01*
X102500Y153000D02*
X105869D01*
X102500Y153500D02*
X105780D01*
X181000Y145250D02*
Y147750D01*
X180500Y145476D02*
Y147523D01*
X180000Y145631D02*
Y147369D01*
X182500Y143911D02*
Y149089D01*
X182000Y144510D02*
Y148490D01*
X181500Y144937D02*
Y148063D01*
X178000Y145631D02*
Y147369D01*
X177500Y145476D02*
Y147523D01*
X177000Y145250D02*
Y147750D01*
X176500Y144937D02*
Y148063D01*
X180436Y145500D02*
X187564D01*
X181411Y145000D02*
X186589D01*
X179500Y145721D02*
Y147280D01*
X182010Y144500D02*
X185990D01*
X182437Y144000D02*
X185563D01*
X182750Y143500D02*
X185250D01*
X178500Y145721D02*
Y147280D01*
X179000Y145750D02*
Y147250D01*
X170436Y145500D02*
X177564D01*
X171411Y145000D02*
X176589D01*
X175500Y143911D02*
Y149089D01*
X176000Y144510D02*
Y148490D01*
X172000Y144510D02*
Y148490D01*
X173000Y142936D02*
Y150064D01*
X175000Y142936D02*
Y150064D01*
X172500Y143911D02*
Y149089D01*
X170500Y145476D02*
Y147523D01*
X170000Y145631D02*
Y147369D01*
X168000Y145631D02*
Y147369D01*
X171500Y144937D02*
Y148063D01*
X171000Y145250D02*
Y147750D01*
X172750Y143500D02*
X175250D01*
X172977Y143000D02*
X175023D01*
X173131Y142500D02*
X174869D01*
X173221Y142000D02*
X174779D01*
X173250Y141500D02*
X174750D01*
X169500Y145721D02*
Y147280D01*
X169000Y145750D02*
Y147250D01*
X168500Y145721D02*
Y147280D01*
X172010Y144500D02*
X175990D01*
X172437Y144000D02*
X175563D01*
X182437Y139000D02*
X185563D01*
X182010Y138500D02*
X185990D01*
X182500Y126350D02*
Y139089D01*
X182000Y126350D02*
Y138490D01*
X181500Y126350D02*
Y138063D01*
X172010Y138500D02*
X175990D01*
X176000Y126350D02*
Y138490D01*
X181411Y138000D02*
X186589D01*
X180436Y137500D02*
X187564D01*
X181000Y126350D02*
Y137750D01*
X180500Y126350D02*
Y137523D01*
X180000Y126350D02*
Y137369D01*
X177500Y126350D02*
Y137523D01*
X170436Y137500D02*
X177564D01*
X171411Y138000D02*
X176589D01*
X177000Y126350D02*
Y137750D01*
X176500Y126350D02*
Y138063D01*
X173221Y141000D02*
X174779D01*
X173131Y140500D02*
X174869D01*
X174500Y126350D02*
Y177850D01*
X174000Y126350D02*
Y177850D01*
X175000Y126350D02*
Y140064D01*
X173500Y126350D02*
Y177850D01*
X172977Y140000D02*
X175023D01*
X173000Y126350D02*
Y140064D01*
X175500Y126350D02*
Y139089D01*
X172437Y139000D02*
X175563D01*
X172750Y139500D02*
X175250D01*
X172500Y126350D02*
Y139089D01*
X172000Y126350D02*
Y138490D01*
X170500Y126350D02*
Y137523D01*
X170000Y126350D02*
Y137369D01*
X168000Y126350D02*
Y137369D01*
X171500Y126350D02*
Y138063D01*
X171000Y126350D02*
Y137750D01*
X167500Y145476D02*
Y147523D01*
X167000Y145250D02*
Y147750D01*
X166000Y144510D02*
Y148490D01*
X166500Y144937D02*
Y148063D01*
X165500Y143911D02*
Y149089D01*
X114975Y146500D02*
X193000D01*
X114475Y146000D02*
X193000D01*
X115475Y147000D02*
X193000D01*
X113977Y145500D02*
X167564D01*
X114131Y145000D02*
X166589D01*
X114220Y144500D02*
X165990D01*
X114250Y144000D02*
X165563D01*
X114220Y143500D02*
X165250D01*
X102500Y139000D02*
X165563D01*
X102500Y138500D02*
X165990D01*
X102500Y139500D02*
X165250D01*
X112411Y137500D02*
X167564D01*
X111436Y138000D02*
X166589D01*
X145000Y132650D02*
Y176525D01*
X144500Y132650D02*
Y176025D01*
X144000Y132650D02*
Y175525D01*
X159500Y126350D02*
Y177850D01*
X146000Y132650D02*
Y177525D01*
X145500Y132650D02*
Y177025D01*
X113976Y145501D02*
X146325Y177850D01*
X142500Y132650D02*
Y174025D01*
X142000Y132650D02*
Y173525D01*
X143500Y132650D02*
Y175025D01*
X143000Y132650D02*
Y174525D01*
X165000Y142936D02*
Y150064D01*
X114131Y143000D02*
X165024D01*
X113977Y142500D02*
X164869D01*
X141500Y132650D02*
Y173025D01*
X141000Y132650D02*
Y172525D01*
X113750Y142000D02*
X164779D01*
X113010Y141000D02*
X164779D01*
X113437Y141500D02*
X164750D01*
X111436Y140000D02*
X165024D01*
X112411Y140500D02*
X164869D01*
X160500Y126350D02*
Y177850D01*
X161000Y126350D02*
Y177850D01*
X160000Y126350D02*
Y177850D01*
X162000Y126350D02*
Y177850D01*
X162500Y126350D02*
Y177850D01*
X161500Y126350D02*
Y177850D01*
X157500Y126350D02*
Y177850D01*
X158000Y126350D02*
Y177850D01*
X157000Y126350D02*
Y177850D01*
X159000Y126350D02*
Y177850D01*
X158500Y126350D02*
Y177850D01*
X166000Y126350D02*
Y138490D01*
X166500Y126350D02*
Y138063D01*
X165500Y126350D02*
Y139089D01*
X167500Y126350D02*
Y137523D01*
X167000Y126350D02*
Y137750D01*
X163500Y126350D02*
Y177850D01*
X164000Y126350D02*
Y177850D01*
X163000Y126350D02*
Y177850D01*
X165000Y126350D02*
Y140064D01*
X164500Y126350D02*
Y177850D01*
X149500Y126350D02*
Y177850D01*
X150000Y126350D02*
Y177850D01*
X149000Y126350D02*
Y177850D01*
X151000Y126350D02*
Y177850D01*
X151500Y126350D02*
Y177850D01*
X150500Y126350D02*
Y177850D01*
X147000Y126350D02*
Y177850D01*
X147500Y126350D02*
Y177850D01*
X146500Y126350D02*
Y177850D01*
X148500Y126350D02*
Y177850D01*
X148000Y126350D02*
Y177850D01*
X155000Y126350D02*
Y177850D01*
X155500Y126350D02*
Y177850D01*
X154500Y126350D02*
Y177850D01*
X156500Y126350D02*
Y177850D01*
X156000Y126350D02*
Y177850D01*
X152500Y126350D02*
Y177850D01*
X153000Y126350D02*
Y177850D01*
X152000Y126350D02*
Y177850D01*
X154000Y126350D02*
Y177850D01*
X153500Y126350D02*
Y177850D01*
X179500Y126350D02*
Y137279D01*
X179000Y126350D02*
Y137250D01*
X178500Y126350D02*
Y137279D01*
X181000Y101500D02*
Y121850D01*
X181500Y101500D02*
Y121850D01*
X180500Y101500D02*
Y121850D01*
X146350Y130000D02*
X193000D01*
X146350Y129500D02*
X193000D01*
X146350Y130500D02*
X193000D01*
X146350Y126350D02*
X193000D01*
X178000D02*
Y137369D01*
X179000Y101500D02*
Y121850D01*
X179500Y101500D02*
Y121850D01*
X178500Y101500D02*
Y121850D01*
X182000Y101500D02*
Y121850D01*
X182500Y101500D02*
Y121850D01*
X180000Y101500D02*
Y121850D01*
X175500Y101500D02*
Y121850D01*
X176000Y101500D02*
Y121850D01*
X175000Y101500D02*
Y121850D01*
X178000Y101500D02*
Y121850D01*
X177500Y101500D02*
Y121850D01*
X172000Y101500D02*
Y121850D01*
X172500Y101500D02*
Y121850D01*
X171500Y101500D02*
Y121850D01*
X174000Y101500D02*
Y121850D01*
X174500Y101500D02*
Y121850D01*
X173500Y101500D02*
Y121850D01*
X169500Y126350D02*
Y137279D01*
X169000Y126350D02*
Y137250D01*
X168500Y126350D02*
Y137279D01*
X171000Y101500D02*
Y121850D01*
X170500Y101500D02*
Y121850D01*
X169000Y101500D02*
Y121850D01*
X169500Y101500D02*
Y121850D01*
X168500Y101500D02*
Y121850D01*
X173000Y101500D02*
Y121850D01*
X170000Y101500D02*
Y121850D01*
X166500Y101500D02*
Y121850D01*
X167000Y101500D02*
Y121850D01*
X146350Y121350D02*
Y121850D01*
X168000Y101500D02*
Y121850D01*
X167500Y101500D02*
Y121850D01*
X160000Y101500D02*
Y121850D01*
X160500Y101500D02*
Y121850D01*
X159500Y101500D02*
Y121850D01*
X161500Y101500D02*
Y121850D01*
X162000Y101500D02*
Y121850D01*
X161000Y101500D02*
Y121850D01*
X157500Y101500D02*
Y121850D01*
X158000Y101500D02*
Y121850D01*
X157000Y101500D02*
Y121850D01*
X159000Y101500D02*
Y121850D01*
X158500Y101500D02*
Y121850D01*
X165500Y101500D02*
Y121850D01*
X166000Y101500D02*
Y121850D01*
X165000Y101500D02*
Y121850D01*
X177000Y101500D02*
Y121850D01*
X176500Y101500D02*
Y121850D01*
X163000Y101500D02*
Y121850D01*
X163500Y101500D02*
Y121850D01*
X162500Y101500D02*
Y121850D01*
X164500Y101500D02*
Y121850D01*
X164000Y101500D02*
Y121850D01*
X149500Y101500D02*
Y121850D01*
X150000Y101500D02*
Y121850D01*
X149000Y101500D02*
Y121850D01*
X151000Y101500D02*
Y121850D01*
X151500Y101500D02*
Y121850D01*
X150500Y101500D02*
Y121850D01*
X147000Y101500D02*
Y121850D01*
X147500Y101500D02*
Y121850D01*
X146500Y101500D02*
Y121850D01*
X148500Y101500D02*
Y121850D01*
X148000Y101500D02*
Y121850D01*
X155000Y101500D02*
Y121850D01*
X155500Y101500D02*
Y121850D01*
X154500Y101500D02*
Y121850D01*
X156500Y101500D02*
Y121850D01*
X156000Y101500D02*
Y121850D01*
X152500Y101500D02*
Y121850D01*
X153000Y101500D02*
Y121850D01*
X152000Y101500D02*
Y121850D01*
X154000Y101500D02*
Y121850D01*
X153500Y101500D02*
Y121850D01*
X114220Y134500D02*
X193000D01*
X114250Y134000D02*
X193000D01*
X114131Y135000D02*
X193000D01*
X146350Y132500D02*
X193000D01*
X146350Y132000D02*
X193000D01*
X114220Y133500D02*
X193000D01*
X113437Y136500D02*
X193000D01*
X113750Y136000D02*
X193000D01*
X113010Y137000D02*
X193000D01*
X114131Y133000D02*
X193000D01*
X113977Y135500D02*
X193000D01*
X146350Y131000D02*
X193000D01*
X146350Y129000D02*
X193000D01*
X146350Y131500D02*
X193000D01*
X146350Y128000D02*
X193000D01*
X146350Y128500D02*
X193000D01*
X113010Y121000D02*
X193000D01*
X112411Y120500D02*
X193000D01*
X146350Y127500D02*
X193000D01*
X114250Y117000D02*
X193382D01*
X114250Y117500D02*
X193086D01*
X146350Y127150D02*
Y132650D01*
X140650D02*
X146350D01*
X140650Y132000D02*
Y132650D01*
Y127150D02*
X146350D01*
Y126350D02*
Y126850D01*
X140650Y127150D02*
Y128000D01*
X135350Y132000D02*
X140650D01*
X135350D02*
X140650D01*
X135350Y132500D02*
X140650D01*
X113010Y127000D02*
X193000D01*
X135350Y128000D02*
X140650D01*
X146350Y126500D02*
X193000D01*
X146350Y121850D02*
X193000D01*
X140650Y126850D02*
X146350D01*
Y121500D02*
X193000D01*
X140650Y121350D02*
X146350D01*
X102500Y119500D02*
X193000D01*
X102500Y119000D02*
X193000D01*
X111436Y120000D02*
X193000D01*
X114250Y118000D02*
X193000D01*
X102500Y118500D02*
X193000D01*
X131059Y111000D02*
X204000D01*
X131179Y110500D02*
X275834D01*
X130848Y111500D02*
X202733D01*
X131179Y109500D02*
X297500D01*
X131059Y109000D02*
X297500D01*
X131219Y110000D02*
X285750D01*
X130522Y108000D02*
X297500D01*
X130027Y107500D02*
X297500D01*
X130848Y108500D02*
X297500D01*
X102500Y106500D02*
X297500D01*
X129166Y107000D02*
X297500D01*
X103571Y103500D02*
X296214D01*
X103929Y103000D02*
X295786D01*
X104286Y102500D02*
X295357D01*
X104643Y102000D02*
X294929D01*
X105000Y101500D02*
X294500D01*
X102500Y105500D02*
X297500D01*
X102500Y105000D02*
X297500D01*
X102500Y106000D02*
X297500D01*
X102857Y104500D02*
X297071D01*
X103214Y104000D02*
X296643D01*
X144000Y101500D02*
Y121350D01*
X144500Y101500D02*
Y121350D01*
X143500Y101500D02*
Y121350D01*
X145500Y101500D02*
Y121350D01*
X146000Y101500D02*
Y121350D01*
X145000Y101500D02*
Y121350D01*
X141500Y101500D02*
Y121350D01*
X142000Y101500D02*
Y121350D01*
X141000Y101500D02*
Y121350D01*
X143000Y101500D02*
Y121350D01*
X142500Y101500D02*
Y121350D01*
X114250Y113500D02*
X199279D01*
X129166Y113000D02*
X200143D01*
X114250Y114000D02*
X198415D01*
X130522Y112000D02*
X201870D01*
X130027Y112500D02*
X201006D01*
X114250Y116000D02*
X194961D01*
X114250Y115500D02*
X195824D01*
X114250Y116500D02*
X194097D01*
X114250Y114500D02*
X197552D01*
X114250Y115000D02*
X196688D01*
X139000Y132000D02*
Y170525D01*
X138500Y132000D02*
Y170025D01*
X138000Y132000D02*
Y169525D01*
X140500Y132000D02*
Y172025D01*
X140000Y132000D02*
Y171525D01*
X139500Y132000D02*
Y171025D01*
X136500Y132000D02*
Y168025D01*
X136000Y132000D02*
Y167525D01*
X135500Y132000D02*
Y167025D01*
X137500Y132000D02*
Y169025D01*
X137000Y132000D02*
Y168525D01*
X135000Y132750D02*
Y166525D01*
X135350Y132000D02*
Y132750D01*
X134500D02*
Y166025D01*
X135350Y128000D02*
X140650D01*
X135350Y127500D02*
X140650D01*
X135350Y127250D02*
Y128000D01*
X134000Y132750D02*
Y165525D01*
X133500Y132750D02*
Y165025D01*
X133000Y132750D02*
Y164525D01*
X129650Y127250D02*
X135350D01*
X129650Y132750D02*
X135350D01*
X131000D02*
Y162525D01*
X130500Y132750D02*
Y162025D01*
X130000Y132750D02*
Y161525D01*
X132500Y132750D02*
Y164025D01*
X132000Y132750D02*
Y163525D01*
X131500Y132750D02*
Y163025D01*
X113500Y136411D02*
Y141589D01*
X113000Y137010D02*
Y140990D01*
X119500Y126000D02*
Y151025D01*
X114000Y135436D02*
Y142564D01*
X130000Y126750D02*
Y127250D01*
X131000Y126750D02*
Y127250D01*
X129650D02*
Y132750D01*
X133000Y126750D02*
Y127250D01*
X132500Y126750D02*
Y127250D01*
X113750Y132000D02*
X129650D01*
X113437Y131500D02*
X129650D01*
X113977Y132500D02*
X129650D01*
X113010Y131000D02*
X129650D01*
X113500Y126411D02*
Y131589D01*
X128500Y126000D02*
Y160025D01*
X128000Y126000D02*
Y159525D01*
X127500Y126000D02*
Y159025D01*
X129500Y126000D02*
Y161025D01*
X139000Y101500D02*
Y128000D01*
X129000Y126000D02*
Y160525D01*
X126000Y126000D02*
Y157525D01*
X125500Y126000D02*
Y157025D01*
X125000Y126000D02*
Y156525D01*
X127000Y126000D02*
Y158525D01*
X126500Y126000D02*
Y158025D01*
X138500Y101500D02*
Y128000D01*
X139500Y101500D02*
Y128000D01*
X138000Y101500D02*
Y128000D01*
X140500Y101500D02*
Y128000D01*
X140000Y101500D02*
Y128000D01*
X136000Y101500D02*
Y128000D01*
X136500Y101500D02*
Y128000D01*
X135500Y101500D02*
Y128000D01*
X137500Y101500D02*
Y128000D01*
X137000Y101500D02*
Y128000D01*
X123000Y126000D02*
Y154525D01*
X122500Y126000D02*
Y154025D01*
X122000Y126000D02*
Y153525D01*
X124500Y126000D02*
Y156025D01*
X124000Y126000D02*
Y155525D01*
X123500Y126000D02*
Y155025D01*
X120500Y126000D02*
Y152025D01*
X120000Y126000D02*
Y151525D01*
X119000Y126000D02*
Y150525D01*
X121500Y126000D02*
Y153025D01*
X121000Y126000D02*
Y152525D01*
X117500Y126000D02*
Y149025D01*
X117000Y126000D02*
Y148525D01*
X116500Y126000D02*
Y148025D01*
X118500Y126000D02*
Y150025D01*
X118000Y126000D02*
Y149525D01*
X115000Y126000D02*
Y146525D01*
X114500Y126000D02*
Y146025D01*
X114000Y126000D02*
Y132564D01*
X116000Y126000D02*
Y147525D01*
X115500Y126000D02*
Y147025D01*
X112000Y137750D02*
Y140250D01*
X108500Y137977D02*
Y140024D01*
X108000Y137750D02*
Y140250D01*
X107500Y137437D02*
Y140563D01*
X112500Y137437D02*
Y140563D01*
X107000Y137010D02*
Y140990D01*
Y147010D02*
Y150990D01*
X102500Y141000D02*
X106990D01*
X102500Y147000D02*
X106990D01*
X102500Y140500D02*
X107589D01*
X110500Y138221D02*
Y139779D01*
X110000Y138250D02*
Y139750D01*
X109500Y138221D02*
Y139779D01*
X111500Y137977D02*
Y140024D01*
X111000Y138131D02*
Y139869D01*
X102500Y140000D02*
X108564D01*
X109000Y138131D02*
Y139869D01*
X102500Y138000D02*
X108564D01*
X102500Y137500D02*
X107589D01*
X102500Y137000D02*
X106990D01*
X106500Y146411D02*
Y151589D01*
X102500Y146500D02*
X106563D01*
X102500Y146000D02*
X106250D01*
X106000Y145436D02*
Y152564D01*
X102500Y145500D02*
X106024D01*
X106000Y135436D02*
Y142564D01*
X102500Y145000D02*
X105869D01*
X102500Y144500D02*
X105780D01*
X102500Y144000D02*
X105750D01*
X102500Y143000D02*
X105869D01*
X102500Y143500D02*
X105780D01*
X102500Y142000D02*
X106250D01*
X102500Y141500D02*
X106563D01*
X102500Y142500D02*
X106024D01*
X102500Y136500D02*
X106563D01*
X106500Y136411D02*
Y141589D01*
X102500Y136000D02*
X106250D01*
X102500Y135500D02*
X106024D01*
X102500Y135000D02*
X105869D01*
X102500Y134500D02*
X105780D01*
X102500Y134000D02*
X105750D01*
X112411Y130500D02*
X129650D01*
X111436Y130000D02*
X129650D01*
X111500Y127977D02*
Y130024D01*
X113000Y127010D02*
Y130990D01*
X112500Y127437D02*
Y130563D01*
X112000Y127750D02*
Y130250D01*
X109000Y128131D02*
Y129869D01*
X102500Y130000D02*
X108564D01*
X111000Y128131D02*
Y129869D01*
X108500Y127977D02*
Y130024D01*
X110500Y128220D02*
Y129780D01*
X110000Y128250D02*
Y129750D01*
X109500Y128220D02*
Y129780D01*
X112411Y127500D02*
X129650D01*
X111436Y128000D02*
X129650D01*
X102500Y129000D02*
X129650D01*
X102500Y128500D02*
X129650D01*
X102500Y129500D02*
X129650D01*
X102500Y128000D02*
X108564D01*
X104000Y102900D02*
Y194800D01*
X106000Y125436D02*
Y132564D01*
X103500Y103600D02*
Y194200D01*
X105000Y101500D02*
Y196000D01*
X105500Y101500D02*
Y196000D01*
X104500Y102200D02*
Y195400D01*
X102500Y133500D02*
X105780D01*
X102500Y133000D02*
X105869D01*
X102500Y105000D02*
Y193000D01*
X103000Y104300D02*
Y193600D01*
X102500Y105000D02*
Y193000D01*
X107500Y127437D02*
Y130563D01*
X108000Y127750D02*
Y130250D01*
X102500Y132000D02*
X106250D01*
X107000Y127010D02*
Y130990D01*
X106500Y126411D02*
Y131589D01*
X102500Y131500D02*
X106563D01*
X102500Y131000D02*
X106990D01*
X102500Y132500D02*
X106024D01*
X102500Y130500D02*
X107589D01*
X102500Y127500D02*
X107589D01*
X135000Y126750D02*
Y127250D01*
X135350Y126500D02*
X140650D01*
X134500Y126750D02*
Y127250D01*
X140650Y121350D02*
Y126850D01*
X135350Y126000D02*
X140650D01*
X135350Y121250D02*
Y126750D01*
X132000D02*
Y127250D01*
X129650Y126750D02*
X135350D01*
X131500D02*
Y127250D01*
X134000Y126750D02*
Y127250D01*
X133500Y126750D02*
Y127250D01*
X135350Y125000D02*
X140650D01*
X135350Y124500D02*
X140650D01*
X135350Y125500D02*
X140650D01*
X135350Y123500D02*
X140650D01*
X135350Y123000D02*
X140650D01*
X135350Y124000D02*
X140650D01*
X135350Y122000D02*
X140650D01*
X135350Y121500D02*
X140650D01*
X135350Y122500D02*
X140650D01*
X129650Y121250D02*
X135350D01*
X130500Y126750D02*
Y127250D01*
X129650Y126000D02*
Y126750D01*
Y121250D02*
Y122000D01*
X129000Y113059D02*
Y122000D01*
X129500Y112848D02*
Y122000D01*
X128500Y113179D02*
Y122000D01*
X127500Y113179D02*
Y122000D01*
X128000Y113218D02*
Y122000D01*
X127000Y113059D02*
Y122000D01*
X125500Y112027D02*
Y122000D01*
X125000Y111166D02*
Y122000D01*
X126500Y112848D02*
Y122000D01*
X130000Y112522D02*
Y121250D01*
X126000Y112522D02*
Y122000D01*
X131000Y111166D02*
Y121250D01*
X130500Y112027D02*
Y121250D01*
X114250Y112500D02*
X125973D01*
X114250Y112000D02*
X125478D01*
X114250Y111500D02*
X125152D01*
X114250Y111000D02*
X124941D01*
X114250Y110000D02*
X124782D01*
X133000Y101500D02*
Y121250D01*
X133500Y101500D02*
Y121250D01*
X132500Y101500D02*
Y121250D01*
X134500Y101500D02*
Y121250D01*
X135000Y101500D02*
Y121250D01*
X134000Y101500D02*
Y121250D01*
X131000Y101500D02*
Y108834D01*
X130500Y101500D02*
Y107973D01*
X125000Y101500D02*
Y108834D01*
X132000Y101500D02*
Y121250D01*
X131500Y101500D02*
Y121250D01*
X129000Y101500D02*
Y106941D01*
X128500Y101500D02*
Y106821D01*
X128000Y101500D02*
Y106781D01*
X130000Y101500D02*
Y107478D01*
X129500Y101500D02*
Y107152D01*
X126000Y101500D02*
Y107478D01*
X126500Y101500D02*
Y107152D01*
X125500Y101500D02*
Y107973D01*
X127500Y101500D02*
Y106821D01*
X127000Y101500D02*
Y106941D01*
X117500Y101500D02*
Y122000D01*
X118000Y101500D02*
Y122000D01*
X117000Y101500D02*
Y122000D01*
X119000Y101500D02*
Y122000D01*
X119500Y101500D02*
Y122000D01*
X118500Y101500D02*
Y122000D01*
X115000Y101500D02*
Y122000D01*
X115500Y101500D02*
Y122000D01*
X114500Y101500D02*
Y122000D01*
X116500Y101500D02*
Y122000D01*
X116000Y101500D02*
Y122000D01*
X123000Y101500D02*
Y122000D01*
X123500Y101500D02*
Y122000D01*
X122500Y101500D02*
Y122000D01*
X124500Y101500D02*
Y122000D01*
X124000Y101500D02*
Y122000D01*
X120500Y101500D02*
Y122000D01*
X121000Y101500D02*
Y122000D01*
X120000Y101500D02*
Y122000D01*
X122000Y101500D02*
Y122000D01*
X121500Y101500D02*
Y122000D01*
X113750Y126000D02*
X129650D01*
X113750Y122000D02*
X129650D01*
X113437Y126500D02*
X129650D01*
X114000Y118250D02*
Y122000D01*
X113750Y122000D02*
X129650D01*
X113500Y118250D02*
Y121589D01*
X113437Y121500D02*
X129650D01*
X113000Y118250D02*
Y120990D01*
X102500Y120500D02*
X107589D01*
X112500Y118250D02*
Y120563D01*
X108000Y118250D02*
Y120250D01*
X111000Y118250D02*
Y119869D01*
X110500Y118250D02*
Y119780D01*
X110000Y118250D02*
Y119750D01*
X112000Y118250D02*
Y120250D01*
X111500Y118250D02*
Y120024D01*
X102500Y120000D02*
X108564D01*
X105750Y118250D02*
X114250D01*
X108500D02*
Y120024D01*
X109500Y118250D02*
Y119780D01*
X109000Y118250D02*
Y119869D01*
X102500Y127000D02*
X106990D01*
X102500Y126500D02*
X106563D01*
X102500Y126000D02*
X106250D01*
X102500Y125500D02*
X106024D01*
X106000Y118250D02*
Y122564D01*
X102500Y125000D02*
X105869D01*
X102500Y124500D02*
X105780D01*
X102500Y123500D02*
X105780D01*
X102500Y124000D02*
X105750D01*
X102500Y122500D02*
X106024D01*
X102500Y123000D02*
X105869D01*
X102500Y121500D02*
X106563D01*
X102500Y121000D02*
X106990D01*
X106500Y118250D02*
Y121589D01*
X107500Y118250D02*
Y120563D01*
X107000Y118250D02*
Y120990D01*
X102500Y122000D02*
X106250D01*
X102500Y118000D02*
X105750D01*
X102500Y117500D02*
X105750D01*
X102500Y116500D02*
X105750D01*
X102500Y117000D02*
X105750D01*
X114250Y113000D02*
X126834D01*
X114250Y110500D02*
X124821D01*
X114250Y109750D02*
Y118250D01*
X113500Y101500D02*
Y109750D01*
X114000Y101500D02*
Y109750D01*
X113000Y101500D02*
Y109750D01*
X109500Y101500D02*
Y109750D01*
X105750D02*
X114250D01*
X109000Y101500D02*
Y109750D01*
X112500Y101500D02*
Y109750D01*
X110000Y101500D02*
Y109750D01*
X111000Y101500D02*
Y109750D01*
X102500Y109500D02*
X124821D01*
X110500Y101500D02*
Y109750D01*
X112000Y101500D02*
Y109750D01*
X111500Y101500D02*
Y109750D01*
X102500Y108500D02*
X125152D01*
X102500Y108000D02*
X125478D01*
X102500Y109000D02*
X124941D01*
X102500Y107000D02*
X126834D01*
X102500Y107500D02*
X125973D01*
X102500Y115500D02*
X105750D01*
X102500Y115000D02*
X105750D01*
X102500Y116000D02*
X105750D01*
Y109750D02*
Y118250D01*
X102500Y114000D02*
X105750D01*
X102500Y114500D02*
X105750D01*
X102500Y113000D02*
X105750D01*
X102500Y112500D02*
X105750D01*
X102500Y113500D02*
X105750D01*
X102500Y111500D02*
X105750D01*
X102500Y112000D02*
X105750D01*
X107000Y101500D02*
Y109750D01*
X107500Y101500D02*
Y109750D01*
X106500Y101500D02*
Y109750D01*
X108500Y101500D02*
Y109750D01*
X108000Y101500D02*
Y109750D01*
X102500Y110500D02*
X105750D01*
X102500Y110000D02*
X105750D01*
X102500Y111000D02*
X105750D01*
X106000Y101500D02*
Y109750D01*
X102500Y105000D02*
X105000Y101500D01*
X238500Y140754D02*
Y141500D01*
X238000Y142000D02*
X238500Y141500D01*
X238000Y142000D02*
Y143087D01*
X236000Y141254D02*
X236032Y141285D01*
X236000Y140500D02*
Y141254D01*
X236032Y141285D02*
Y143087D01*
X234789Y143000D02*
X234876Y143087D01*
X234000Y143000D02*
X234789D01*
X234876Y143087D02*
X236032D01*
X198000Y115974D02*
Y170850D01*
X198500Y115684D02*
Y170850D01*
X196500Y116842D02*
Y170850D01*
X197500Y116263D02*
Y170850D01*
X197000Y116553D02*
Y170850D01*
X194500Y118000D02*
X204000Y112500D01*
X201000Y114237D02*
Y170850D01*
X200500Y114526D02*
Y170850D01*
X199000Y115395D02*
Y170850D01*
X200000Y114816D02*
Y170850D01*
X199500Y115105D02*
Y170850D01*
X194500Y147000D02*
X221000D01*
X194500Y146500D02*
X221000D01*
X194500Y147500D02*
X221000D01*
X196000Y117132D02*
Y170850D01*
X194500Y149000D02*
X221000D01*
X194500Y126500D02*
X231000D01*
X194500Y125500D02*
X231000D01*
X194500Y126000D02*
X231000D01*
X194500Y148500D02*
X221000D01*
X194500Y127500D02*
X231000D01*
X194500Y148000D02*
X221000D01*
X222500Y112500D02*
Y146500D01*
X223000Y112500D02*
Y146500D01*
X221000Y112500D02*
Y146500D01*
X222000Y112500D02*
Y146500D01*
X221500Y112500D02*
Y146500D01*
X225000Y112500D02*
Y146500D01*
X226000Y112500D02*
Y146500D01*
X225500Y112500D02*
Y146500D01*
X223500Y112500D02*
Y146500D01*
X224500Y112500D02*
Y146500D01*
X224000Y112500D02*
Y146500D01*
X228000Y112500D02*
Y146500D01*
X228500Y112500D02*
Y146500D01*
X226500Y112500D02*
Y146500D01*
X227500Y112500D02*
Y146500D01*
X227000Y112500D02*
Y146500D01*
X230500Y112500D02*
Y146500D01*
X231000Y112500D02*
Y120250D01*
Y127750D02*
Y146500D01*
X229000Y112500D02*
Y146500D01*
X230000Y112500D02*
Y146500D01*
X229500Y112500D02*
Y146500D01*
X206500Y112500D02*
Y191500D01*
X207000Y112500D02*
Y191500D01*
X205000Y112500D02*
Y191500D01*
X206000Y112500D02*
Y191500D01*
X205500Y112500D02*
Y191500D01*
X209000Y112500D02*
Y191500D01*
X210000Y112500D02*
Y191500D01*
X209500Y112500D02*
Y191500D01*
X207500Y112500D02*
Y191500D01*
X208500Y112500D02*
Y191500D01*
X208000Y112500D02*
Y191500D01*
X195500Y117421D02*
Y176500D01*
X201500Y113947D02*
Y176500D01*
X194500Y118000D02*
Y176500D01*
X195000Y117710D02*
Y176500D01*
X194500Y118000D02*
Y176500D01*
X202000Y113658D02*
Y177000D01*
X203000Y113079D02*
Y191500D01*
X202500Y113368D02*
Y177500D01*
X203500Y112789D02*
Y191500D01*
X204500Y112500D02*
Y191500D01*
X204000Y112500D02*
Y191500D01*
X212000Y112500D02*
Y191500D01*
X212500Y112500D02*
Y191500D01*
X210500Y112500D02*
Y191500D01*
X211500Y112500D02*
Y191500D01*
X211000Y112500D02*
Y191500D01*
X214500Y112500D02*
Y191500D01*
X215500Y112500D02*
Y191500D01*
X215000Y112500D02*
Y191500D01*
X213000Y112500D02*
Y191500D01*
X214000Y112500D02*
Y191500D01*
X213500Y112500D02*
Y191500D01*
X217500Y112500D02*
Y191500D01*
X218000Y112500D02*
Y191500D01*
X216000Y112500D02*
Y191500D01*
X217000Y112500D02*
Y191500D01*
X216500Y112500D02*
Y191500D01*
X220000Y112500D02*
Y191500D01*
X220500Y112500D02*
Y191500D01*
X221000Y146500D02*
Y174500D01*
X218500Y112500D02*
Y191500D01*
X219500Y112500D02*
Y191500D01*
X219000Y112500D02*
Y191500D01*
X194500Y120500D02*
X231000D01*
X194500Y118500D02*
X238000D01*
X194500Y122000D02*
X231000D01*
X194500Y121000D02*
X231000D01*
X194500Y121500D02*
X231000D01*
X194500Y118000D02*
X238000D01*
X196227Y117000D02*
X267591D01*
X195364Y117500D02*
X268212D01*
X194500Y120000D02*
X238000D01*
X194500Y119000D02*
X238000D01*
X194500Y119500D02*
X238000D01*
X194500Y123000D02*
X231000D01*
X194500Y122500D02*
X231000D01*
X194500Y124500D02*
X231000D01*
X194500Y123500D02*
X231000D01*
X194500Y124000D02*
X231000D01*
X194500Y128000D02*
X238000D01*
X194500Y125000D02*
X231000D01*
X194500Y127000D02*
X231000D01*
X194500Y129500D02*
X238000D01*
X194500Y128500D02*
X238000D01*
X194500Y129000D02*
X238000D01*
X233000Y112500D02*
Y120250D01*
X233500Y112500D02*
Y120250D01*
X231500Y112500D02*
Y120250D01*
X232500Y112500D02*
Y120250D01*
X232000Y112500D02*
Y120250D01*
X202273Y113500D02*
X263242D01*
X204000Y112500D02*
X262000D01*
X203136Y113000D02*
X262621D01*
X199682Y115000D02*
X265106D01*
X201409Y114000D02*
X263864D01*
X200546Y114500D02*
X264485D01*
X231000Y120250D02*
Y127750D01*
Y120250D02*
Y127750D01*
X232500D02*
Y129650D01*
X232000Y127750D02*
Y129650D01*
X197091Y116500D02*
X266970D01*
X198818Y115500D02*
X265727D01*
X197954Y116000D02*
X266349D01*
X231000Y120250D02*
X238000D01*
X231000Y127750D02*
X238000D01*
X232000Y129650D02*
X238000D01*
X194500Y133500D02*
X232000D01*
X194500Y133000D02*
X232000D01*
X194500Y135000D02*
X232000D01*
X194500Y134000D02*
X232000D01*
X194500Y134500D02*
X232000D01*
X194500Y131000D02*
X232000D01*
X194500Y130000D02*
X232000D01*
X194500Y130500D02*
X232000D01*
X194500Y132500D02*
X232000D01*
X194500Y131500D02*
X232000D01*
X194500Y132000D02*
X232000D01*
X194500Y139000D02*
X237000D01*
X194500Y138500D02*
X237000D01*
X194500Y144500D02*
X234289D01*
X194500Y139500D02*
X237000D01*
X194500Y144000D02*
X234289D01*
X194500Y136500D02*
X238000D01*
X194500Y135500D02*
X238000D01*
X194500Y136000D02*
X238000D01*
X194500Y138000D02*
X237000D01*
X194500Y137000D02*
X238000D01*
X194500Y137500D02*
X237500D01*
X232000Y129650D02*
Y135350D01*
Y129650D02*
Y135350D01*
X231500Y127750D02*
Y146500D01*
X232500Y135350D02*
Y146500D01*
X232000Y135350D02*
Y146500D01*
X233000Y127750D02*
Y129650D01*
X232000Y135350D02*
X238000D01*
X194500Y140000D02*
X237000D01*
X233000Y135350D02*
Y146500D01*
X194500Y140500D02*
X237000D01*
X194500Y141500D02*
X234289D01*
X194500Y141000D02*
X234289D01*
X194500Y143000D02*
X234289D01*
X194500Y142000D02*
X234289D01*
X194500Y142500D02*
X234289D01*
X194500Y145500D02*
X234850D01*
X194500Y143500D02*
X234289D01*
X194500Y145000D02*
X234289D01*
X194500Y146000D02*
X234850D01*
X221000Y146500D02*
X234850D01*
X221000D02*
X234850D01*
X194500Y153000D02*
X221000D01*
X194500Y152500D02*
X221000D01*
X194500Y154500D02*
X221000D01*
X194500Y153500D02*
X221000D01*
X194500Y154000D02*
X221000D01*
X194500Y150500D02*
X221000D01*
X194500Y149500D02*
X221000D01*
X194500Y150000D02*
X221000D01*
X194500Y152000D02*
X221000D01*
X194500Y151000D02*
X221000D01*
X194500Y151500D02*
X221000D01*
X194500Y158500D02*
X221000D01*
X194500Y158000D02*
X221000D01*
X194500Y160000D02*
X221000D01*
X194500Y159000D02*
X221000D01*
X194500Y159500D02*
X221000D01*
X194500Y156000D02*
X221000D01*
X194500Y155000D02*
X221000D01*
X194500Y155500D02*
X221000D01*
X194500Y157500D02*
X221000D01*
X194500Y156500D02*
X221000D01*
X194500Y157000D02*
X221000D01*
X194500Y164000D02*
X221000D01*
X194500Y163500D02*
X221000D01*
X194500Y165500D02*
X221000D01*
X194500Y164500D02*
X221000D01*
X194500Y165000D02*
X221000D01*
X194500Y161500D02*
X221000D01*
X194500Y160500D02*
X221000D01*
X194500Y161000D02*
X221000D01*
X194500Y163000D02*
X221000D01*
X194500Y162000D02*
X221000D01*
X194500Y162500D02*
X221000D01*
X194500Y169500D02*
X221000D01*
X194500Y169000D02*
X221000D01*
X194500Y170000D02*
X221000D01*
X194500Y170500D02*
X221000D01*
X195650Y170850D02*
X201350D01*
X194500Y167000D02*
X221000D01*
X194500Y166000D02*
X221000D01*
X194500Y166500D02*
X221000D01*
X194500Y168500D02*
X221000D01*
X194500Y167500D02*
X221000D01*
X194500Y168000D02*
X221000D01*
X194500Y171500D02*
X195650D01*
X194500Y171000D02*
X195650D01*
X194500Y172000D02*
X195650D01*
Y170850D02*
Y176350D01*
X194500Y173000D02*
X195650D01*
X201350Y172000D02*
X221000D01*
X201350Y171000D02*
X221000D01*
X201350Y171500D02*
X221000D01*
X194500Y172500D02*
X195650D01*
X201350D02*
X221000D01*
X194500Y174000D02*
X195650D01*
X194500Y173500D02*
X195650D01*
X194500Y176000D02*
X195650D01*
X194500Y174500D02*
X195650D01*
X194500Y175000D02*
X195650D01*
X194500Y175500D02*
X195650D01*
X194500Y176500D02*
X201500D01*
X195650Y176350D02*
X201350D01*
Y173500D02*
X221000D01*
X201350Y173000D02*
X221000D01*
X201350Y170850D02*
Y176350D01*
Y174000D02*
X221000D01*
X201350Y174500D02*
X221000D01*
X201350Y175000D02*
X221500D01*
X221000Y174500D02*
X223000Y176500D01*
X201350Y175500D02*
X222000D01*
X221000Y174500D02*
Y191500D01*
X221500Y175000D02*
Y191500D01*
X222000Y175500D02*
Y191500D01*
X201350Y176000D02*
X222500D01*
X201500Y176500D02*
X202500Y177500D01*
Y191500D01*
X222500Y176000D02*
Y191500D01*
X202500Y177500D02*
Y191500D01*
X201500Y176500D02*
X223000D01*
X202500Y178000D02*
X224150D01*
X202500Y178500D02*
X224150D01*
X223000Y176500D02*
Y191500D01*
X224000Y176500D02*
Y191500D01*
X223500Y176500D02*
Y191500D01*
X226000Y176500D02*
Y176850D01*
X226500Y176500D02*
Y176850D01*
X224500Y176500D02*
Y176850D01*
X225500Y176500D02*
Y176850D01*
X225000Y176500D02*
Y176850D01*
X223000Y176500D02*
X236000D01*
X227500D02*
Y176850D01*
X227000Y176500D02*
Y176850D01*
X224150D02*
X229850D01*
X228000Y176500D02*
Y176850D01*
X202000Y177000D02*
X224150D01*
X202500Y177500D02*
X224150D01*
X202500Y180000D02*
X224150D01*
X202500Y179000D02*
X224150D01*
X202500Y179500D02*
X224150D01*
X202500Y180500D02*
X224150D01*
X202500Y182000D02*
X224150D01*
X202500Y181000D02*
X224150D01*
X202500Y181500D02*
X224150D01*
X231000Y176500D02*
Y176850D01*
X231500Y176500D02*
Y176850D01*
X228500Y176500D02*
Y176850D01*
X229500Y176500D02*
Y176850D01*
X229000Y176500D02*
Y176850D01*
X232000Y176500D02*
Y176850D01*
X233000Y176500D02*
Y176850D01*
X232500Y176500D02*
Y176850D01*
X230650D02*
X236000D01*
X233500Y176500D02*
Y176850D01*
X229850Y177500D02*
X230650D01*
X229850Y177000D02*
X230650D01*
X229850Y179000D02*
X230650D01*
X229850Y178000D02*
X230650D01*
X229850Y178500D02*
X230650D01*
X229850Y179500D02*
X230650D01*
X229850Y180000D02*
X230650D01*
X229850Y181500D02*
X230650D01*
X229850Y180500D02*
X230650D01*
X229850Y181000D02*
X230650D01*
X224150Y176850D02*
Y182350D01*
X229850D01*
X202500Y182500D02*
X236000D01*
X224500Y182350D02*
Y191500D01*
X202500Y183000D02*
X236000D01*
X202500Y184500D02*
X236000D01*
X202500Y183500D02*
X236000D01*
X202500Y184000D02*
X236000D01*
X202500Y186000D02*
X236000D01*
X202500Y185000D02*
X236000D01*
X202500Y185500D02*
X236000D01*
X202500Y187000D02*
X236000D01*
X202500Y186500D02*
X236000D01*
X202500Y188500D02*
X236000D01*
X202500Y187500D02*
X236000D01*
X202500Y188000D02*
X236000D01*
X202500Y190000D02*
X251000D01*
X202500Y189000D02*
X236500D01*
X202500Y189500D02*
X251000D01*
X202500Y191500D02*
X251000D01*
X202500Y190500D02*
X251000D01*
X202500Y191000D02*
X251000D01*
X229850Y176850D02*
Y182350D01*
X227000D02*
Y191500D01*
X228000Y182350D02*
Y191500D01*
X227500Y182350D02*
Y191500D01*
X229850Y182000D02*
X230650D01*
Y176850D02*
Y182350D01*
X230000Y176500D02*
Y191500D01*
X230500Y176500D02*
Y191500D01*
X233000Y182350D02*
Y191500D01*
X226500Y182350D02*
Y191500D01*
X229000Y182350D02*
Y191500D01*
X228500Y182350D02*
Y191500D01*
X225000Y182350D02*
Y191500D01*
X226000Y182350D02*
Y191500D01*
X225500Y182350D02*
Y191500D01*
X230650Y182350D02*
X236000D01*
X232500D02*
Y191500D01*
X232000Y182350D02*
Y191500D01*
X229500Y182350D02*
Y191500D01*
X231500Y182350D02*
Y191500D01*
X231000Y182350D02*
Y191500D01*
X244000Y112500D02*
Y118000D01*
X244500Y112500D02*
Y118000D01*
X242500Y112500D02*
Y118000D01*
X243500Y112500D02*
Y118000D01*
X243000Y112500D02*
Y118000D01*
X246500Y112500D02*
Y118000D01*
X247500Y112500D02*
Y118000D01*
X247000Y112500D02*
Y118000D01*
X245000Y112500D02*
Y118000D01*
X246000Y112500D02*
Y118000D01*
X245500Y112500D02*
Y118000D01*
X239500Y112500D02*
Y118000D01*
X240000Y112500D02*
Y118000D01*
X238000Y112500D02*
Y118000D01*
X239000Y112500D02*
Y118000D01*
X238500Y112500D02*
Y118000D01*
X238000D02*
X262500D01*
X242000Y112500D02*
Y118000D01*
X238000D02*
X262500D01*
X240500Y112500D02*
Y118000D01*
X241500Y112500D02*
Y118000D01*
X241000Y112500D02*
Y118000D01*
X249500Y112500D02*
Y118000D01*
X250000Y112500D02*
Y118000D01*
X248000Y112500D02*
Y118000D01*
X249000Y112500D02*
Y118000D01*
X248500Y112500D02*
Y118000D01*
X252000Y112500D02*
Y118000D01*
X253000Y112500D02*
Y118000D01*
X252500Y112500D02*
Y118000D01*
X250500Y112500D02*
Y118000D01*
X251500Y112500D02*
Y118000D01*
X251000Y112500D02*
Y118000D01*
X259000Y112500D02*
Y118000D01*
X259500Y112500D02*
Y118000D01*
X253500Y112500D02*
Y118000D01*
X256000Y112500D02*
Y118000D01*
X255500Y112500D02*
Y118000D01*
X261500Y112500D02*
Y118000D01*
X262000Y112500D02*
Y118000D01*
X262500Y112902D02*
Y118000D01*
X260000Y112500D02*
Y118000D01*
X261000Y112500D02*
Y118000D01*
X260500Y112500D02*
Y118000D01*
X234000Y112500D02*
Y120250D01*
X234500Y112500D02*
Y120250D01*
X235000Y112500D02*
Y120250D01*
X234500Y127750D02*
Y129650D01*
X236500Y112500D02*
Y120250D01*
X237500Y112500D02*
Y120250D01*
X237000Y112500D02*
Y120250D01*
X236000Y112500D02*
Y120250D01*
X235500Y112500D02*
Y120250D01*
X233500Y127750D02*
Y129650D01*
X234000Y127750D02*
Y129650D01*
X235500Y127750D02*
Y129650D01*
X235000Y127750D02*
Y129650D01*
X236000Y127750D02*
Y129650D01*
X237000Y127750D02*
Y129650D01*
X236500Y127750D02*
Y129650D01*
X237500Y127750D02*
Y129650D01*
X238000Y127750D02*
Y129650D01*
Y135350D01*
X256500Y112500D02*
Y118000D01*
X257000Y112500D02*
Y118000D01*
X254000Y112500D02*
Y118000D01*
X255000Y112500D02*
Y118000D01*
X254500Y112500D02*
Y118000D01*
X257500Y112500D02*
Y118000D01*
X258500Y112500D02*
Y118000D01*
X258000Y112500D02*
Y118000D01*
X263000Y113305D02*
Y118500D01*
X263500Y113707D02*
Y119000D01*
X264000Y114110D02*
Y119500D01*
X238000Y118000D02*
Y120250D01*
X264500Y114512D02*
Y120000D01*
X238000Y120250D02*
Y127750D01*
X265000Y114915D02*
Y120500D01*
X265500Y115317D02*
Y121000D01*
X266000Y115719D02*
Y121500D01*
X266500Y116122D02*
Y122000D01*
X267000Y116524D02*
Y122500D01*
X267500Y116927D02*
Y123000D01*
X268000Y117329D02*
Y123500D01*
X268500Y117732D02*
Y124000D01*
X262500Y118000D02*
X268833D01*
X263000Y118500D02*
X269455D01*
X269000Y118134D02*
Y124500D01*
X269500Y118537D02*
Y125000D01*
X270000Y118939D02*
Y125500D01*
X263500Y119000D02*
X270076D01*
X264000Y119500D02*
X270697D01*
X264500Y120000D02*
X271318D01*
X262000Y112500D02*
X282500Y129000D01*
X270500Y119342D02*
Y126000D01*
X265000Y120500D02*
X271939D01*
X265500Y121000D02*
X272561D01*
X266000Y121500D02*
X273182D01*
X266500Y122000D02*
X273803D01*
X267000Y122500D02*
X274424D01*
X267500Y123000D02*
X275045D01*
X268000Y123500D02*
X275667D01*
X268500Y124000D02*
X276288D01*
X269000Y124500D02*
X276909D01*
X269500Y125000D02*
X277530D01*
X270000Y125500D02*
X278151D01*
X270500Y126000D02*
X278773D01*
X271000Y119744D02*
Y126500D01*
X271500Y120146D02*
Y127000D01*
X272000Y120549D02*
Y127500D01*
X272500Y120951D02*
Y128000D01*
X273000Y121354D02*
Y128500D01*
X271000Y126500D02*
X279394D01*
X271500Y127000D02*
X280015D01*
X272000Y127500D02*
X280636D01*
X273500Y121756D02*
Y129000D01*
X274000Y122159D02*
Y129500D01*
X274500Y122561D02*
Y130000D01*
X272500Y128000D02*
X281258D01*
X273000Y128500D02*
X281879D01*
X273500Y129000D02*
X282500D01*
X289500D02*
Y129780D01*
X289000Y129000D02*
Y129869D01*
X274000Y129500D02*
X295000D01*
X290000Y129000D02*
Y129750D01*
X282500Y129000D02*
X295000D01*
X290500D02*
Y129780D01*
X291000Y129000D02*
Y129869D01*
X291436Y130000D02*
X295000D01*
X275000Y122963D02*
Y130500D01*
X275500Y123366D02*
Y131000D01*
X276000Y123768D02*
Y131500D01*
X276500Y124171D02*
Y132000D01*
X277000Y124573D02*
Y132500D01*
X277500Y124976D02*
Y133000D01*
X278000Y125378D02*
Y133500D01*
X278500Y125780D02*
Y134000D01*
X262500Y118000D02*
X284000Y139500D01*
X279000Y126183D02*
Y134500D01*
X279500Y126585D02*
Y135000D01*
X280000Y126988D02*
Y135500D01*
X280500Y127390D02*
Y136000D01*
X281000Y127793D02*
Y136500D01*
X281500Y128195D02*
Y137000D01*
X282000Y128598D02*
Y137500D01*
X274500Y130000D02*
X288564D01*
X275000Y130500D02*
X287589D01*
X275500Y131000D02*
X286990D01*
X282500Y129000D02*
Y138000D01*
X283500Y129000D02*
Y139000D01*
X283000Y129000D02*
Y138500D01*
X286500Y129000D02*
Y131589D01*
X287000Y129000D02*
Y130990D01*
X285000Y129000D02*
Y139500D01*
X286000Y129000D02*
Y132564D01*
X285500Y129000D02*
Y139500D01*
X288500Y129000D02*
Y130024D01*
X292000Y129000D02*
Y130250D01*
X291500Y129000D02*
Y130024D01*
X287500Y129000D02*
Y130563D01*
X294500Y129000D02*
Y139500D01*
X288000Y129000D02*
Y130250D01*
X292500Y129000D02*
Y130563D01*
X293500Y129000D02*
Y131589D01*
X293000Y129000D02*
Y130990D01*
X284000Y129000D02*
Y139500D01*
X284500Y129000D02*
Y139500D01*
X292411Y130500D02*
X295000D01*
X294000Y129000D02*
Y132564D01*
X293010Y131000D02*
X295000D01*
Y129000D02*
Y139500D01*
X295000Y129000D02*
Y139500D01*
X235000Y135350D02*
Y140754D01*
X235500Y135350D02*
Y140754D01*
X233500Y135350D02*
Y146500D01*
X234500Y135350D02*
Y140754D01*
X234000Y135350D02*
Y146500D01*
X236000Y135350D02*
Y140754D01*
X237000Y138000D02*
X238000Y137000D01*
X236258Y140754D02*
X237000D01*
X236500Y135350D02*
Y140754D01*
X237000Y138000D02*
Y140754D01*
X234289D02*
Y145419D01*
X234500D02*
Y146500D01*
X234000Y176500D02*
Y176850D01*
X234850Y145419D02*
Y146500D01*
X234500Y176500D02*
Y176850D01*
X234289Y140754D02*
X236258D01*
X237000D01*
X234289Y145419D02*
X234850D01*
X235000Y176500D02*
Y176850D01*
X236000Y176500D02*
Y176850D01*
X235500Y176500D02*
Y176850D01*
X237500Y135350D02*
Y137500D01*
X238000Y135350D02*
Y137000D01*
X237000Y135350D02*
Y138000D01*
X244500Y176500D02*
Y176850D01*
X244000Y176500D02*
Y176850D01*
X247000Y176500D02*
Y176850D01*
X248000Y176500D02*
Y176850D01*
X247500Y176500D02*
Y176850D01*
X245000Y176500D02*
Y176850D01*
X246000Y176500D02*
Y176850D01*
X245500Y176500D02*
Y176850D01*
X242500Y176600D02*
X242850D01*
Y177000D02*
X243650D01*
X242850Y178500D02*
X243650D01*
X242850Y177500D02*
X243650D01*
X242850Y178000D02*
X243650D01*
X242850Y179500D02*
X243650D01*
X246500Y176500D02*
Y176850D01*
X242850Y179000D02*
X243650D01*
X242850Y180000D02*
X243650D01*
X235000Y182350D02*
Y191500D01*
X235500Y182350D02*
Y191500D01*
X233500Y182350D02*
Y191500D01*
X234500Y182350D02*
Y191500D01*
X234000Y182350D02*
Y191500D01*
X236000Y182350D02*
Y188500D01*
X236500Y189000D01*
X242500D01*
X236000Y188500D02*
Y191500D01*
X236500Y189000D02*
Y191500D01*
Y189000D02*
X242500D01*
X238500D02*
Y191500D01*
X239000Y189000D02*
Y191500D01*
X237000Y189000D02*
Y191500D01*
X238000Y189000D02*
Y191500D01*
X237500Y189000D02*
Y191500D01*
X241000Y189000D02*
Y191500D01*
X242000Y189000D02*
Y191500D01*
X241500Y189000D02*
Y191500D01*
X239500Y189000D02*
Y191500D01*
X240500Y189000D02*
Y191500D01*
X240000Y189000D02*
Y191500D01*
X242850Y180500D02*
X243650D01*
Y176850D02*
Y182350D01*
X242850Y176600D02*
Y182600D01*
X243500Y176500D02*
Y191500D01*
X243000Y176500D02*
Y191500D01*
X242850Y182000D02*
X243650D01*
X242850Y181000D02*
X243650D01*
X242850Y181500D02*
X243650D01*
X248000Y182350D02*
Y191500D01*
X247500Y182350D02*
Y191500D01*
X242500Y182600D02*
Y189000D01*
Y182600D02*
X242850D01*
X242500D02*
Y189000D01*
X244000Y182350D02*
Y191500D01*
X242500Y189000D02*
Y191500D01*
X246000Y182350D02*
Y191500D01*
X247000Y182350D02*
Y191500D01*
X246500Y182350D02*
Y191500D01*
X244500Y182350D02*
Y191500D01*
X245500Y182350D02*
Y191500D01*
X245000Y182350D02*
Y191500D01*
X277500Y133000D02*
X285869D01*
X278000Y133500D02*
X285780D01*
X278500Y134000D02*
X285750D01*
X279000Y134500D02*
X285780D01*
X279500Y135000D02*
X285869D01*
X276000Y131500D02*
X286563D01*
X276500Y132000D02*
X286250D01*
X277000Y132500D02*
X286024D01*
X280000Y135500D02*
X286024D01*
X286000Y135436D02*
Y139500D01*
X280500Y136000D02*
X286250D01*
X281000Y136500D02*
X286563D01*
X281500Y137000D02*
X286990D01*
X287500Y137437D02*
Y139500D01*
X282000Y137500D02*
X287589D01*
X282500Y138000D02*
X288564D01*
X283000Y138500D02*
X295000D01*
X283500Y139000D02*
X295000D01*
X284000Y139500D02*
X295000D01*
X288000Y137750D02*
Y139500D01*
X289500Y138221D02*
Y139500D01*
X293437Y131500D02*
X295000D01*
X293977Y132500D02*
X295000D01*
X294131Y133000D02*
X295000D01*
X293750Y132000D02*
X295000D01*
X294221Y133500D02*
X295000D01*
X294250Y134000D02*
X295000D01*
X293977Y135500D02*
X295000D01*
X294221Y134500D02*
X295000D01*
X294131Y135000D02*
X295000D01*
X292500Y137437D02*
Y139500D01*
X293000Y137011D02*
Y139500D01*
X291000Y138131D02*
Y139500D01*
X292000Y137750D02*
Y139500D01*
X291500Y137977D02*
Y139500D01*
X293010Y137000D02*
X295000D01*
X293750Y136000D02*
X295000D01*
X293437Y136500D02*
X295000D01*
X291436Y138000D02*
X295000D01*
X293500Y136411D02*
Y139500D01*
X292411Y137500D02*
X295000D01*
X248500Y176500D02*
Y176850D01*
X249000Y176500D02*
Y176850D01*
X243650D02*
X249350D01*
X249000Y182350D02*
Y191500D01*
X248500Y182350D02*
Y191500D01*
X242500Y176500D02*
X251000D01*
X243650Y182350D02*
X249350D01*
X242500Y183500D02*
X251000D01*
X242850Y182500D02*
X251000D01*
X242500Y183000D02*
X251000D01*
X242500Y187500D02*
X251000D01*
X242500Y187000D02*
X251000D01*
X242500Y189000D02*
X251000D01*
X242500Y188000D02*
X251000D01*
X242500Y188500D02*
X251000D01*
X242500Y185000D02*
X251000D01*
X242500Y184000D02*
X251000D01*
X242500Y184500D02*
X251000D01*
X242500Y186500D02*
X251000D01*
X242500Y185500D02*
X251000D01*
X242500Y186000D02*
X251000D01*
Y176500D02*
Y191500D01*
X286500Y136411D02*
Y139500D01*
X249500Y176500D02*
Y191500D01*
X250500Y176500D02*
Y191500D01*
X250000Y176500D02*
Y191500D01*
X290000Y138250D02*
Y139500D01*
X294000Y135436D02*
Y139500D01*
X290500Y138221D02*
Y139500D01*
X287000Y137010D02*
Y139500D01*
X288500Y137977D02*
Y139500D01*
X289000Y138131D02*
Y139500D01*
X249350Y178000D02*
X251000D01*
X249350Y177000D02*
X251000D01*
X249350Y177500D02*
X251000D01*
X249350Y176850D02*
Y182350D01*
Y178500D02*
X251000D01*
X249350Y179000D02*
X251000D01*
X249350Y180500D02*
X251000D01*
X249350Y179500D02*
X251000D01*
X249350Y180000D02*
X251000D01*
X249350Y182000D02*
X251000D01*
X249350Y181000D02*
X251000D01*
X249350Y181500D02*
X251000D01*
D11*
X241500Y124000D02*
D03*
X234500D02*
D03*
D12*
X235000Y132500D02*
D03*
X241000D02*
D03*
D13*
X236032Y153913D02*
D03*
X238000D02*
D03*
X239968D02*
D03*
X236032Y143087D02*
D03*
X238000D02*
D03*
X239968D02*
D03*
D14*
X246500Y179600D02*
D03*
Y173600D02*
D03*
X233500Y179600D02*
D03*
Y173600D02*
D03*
X227000Y179600D02*
D03*
Y173600D02*
D03*
X198500D02*
D03*
Y179600D02*
D03*
X189000D02*
D03*
Y173600D02*
D03*
X179000Y179600D02*
D03*
Y173600D02*
D03*
X169000Y179600D02*
D03*
Y173600D02*
D03*
X143500Y124100D02*
D03*
Y129900D02*
D03*
X132500Y130000D02*
D03*
Y124000D02*
D03*
D15*
X240000Y173600D02*
D03*
Y179600D02*
D03*
D16*
Y182350D01*
X237400Y179600D02*
X240000D01*
X290000Y144000D02*
X294000D01*
X290000D02*
Y148000D01*
X286000Y144000D02*
X290000D01*
Y124000D02*
X294000D01*
X290000Y120000D02*
Y124000D01*
X286000D02*
X290000D01*
X241000Y132500D02*
X243750D01*
X241500Y124000D02*
X244750D01*
X241000Y132500D02*
Y135100D01*
X241500Y124000D02*
Y127500D01*
X241000Y129900D02*
Y132500D01*
X241500Y120500D02*
Y124000D01*
X239968Y141004D02*
Y143087D01*
X241461D01*
X189000Y141500D02*
Y145500D01*
Y137500D02*
Y141500D01*
X185000D02*
X189000D01*
X110000Y154000D02*
X114000D01*
X110000D02*
Y158000D01*
Y150000D02*
Y154000D01*
X106000D02*
X110000D01*
X179000Y141500D02*
X183000D01*
X179000Y137500D02*
Y141500D01*
Y145500D01*
X175000Y141500D02*
X179000D01*
X169000D02*
X173000D01*
X169000D02*
Y145500D01*
Y137500D02*
Y141500D01*
X165000D02*
X169000D01*
X240000Y179600D02*
Y186500D01*
X143400Y130000D02*
X143500Y129900D01*
X132500Y130000D02*
X143400D01*
X132500Y124000D02*
X132500Y124000D01*
X110000Y124000D02*
X132500D01*
X231250Y124000D02*
X234500D01*
X232250Y132500D02*
X235000D01*
X198500Y171100D02*
Y173600D01*
X201100D01*
X195900D02*
X198500D01*
Y176100D01*
X227000Y177100D02*
Y179600D01*
X229600D01*
X224400D02*
X227000D01*
X233500Y177100D02*
Y179600D01*
X230900D02*
X233500D01*
X227000D02*
Y182100D01*
X233500Y179600D02*
Y182100D01*
X234500Y120500D02*
Y124000D01*
Y127500D01*
X235000Y129900D02*
Y132500D01*
X290000Y130000D02*
Y134000D01*
X235000Y132500D02*
Y135100D01*
X246500Y177100D02*
Y179600D01*
X243900D02*
X246500D01*
Y182100D01*
X286000Y134000D02*
X290000D01*
Y138000D01*
Y134000D02*
X294000D01*
X246500Y179600D02*
X249100D01*
D17*
X234400Y124100D02*
X234500Y124000D01*
X143500Y124100D02*
X234400D01*
D18*
X239968Y153913D02*
Y161469D01*
X246500Y168000D01*
Y173600D01*
X227000Y168500D02*
X236032Y159468D01*
Y153913D02*
Y159468D01*
X227000Y168500D02*
Y173600D01*
X233500D02*
X240000D01*
X238000Y153913D02*
Y169100D01*
X233500Y173600D02*
X238000Y169100D01*
X110000Y144000D02*
X145600Y179600D01*
X169000D01*
X189000D02*
X198500D01*
X179000D02*
X189000D01*
X169000D02*
X179000D01*
X189000Y151500D02*
Y173600D01*
X179000Y151500D02*
Y173600D01*
X169000Y151500D02*
Y173600D01*
D19*
X290000Y114000D02*
D03*
X110000D02*
D03*
X189000Y151500D02*
D03*
D20*
X290000Y124000D02*
D03*
Y134000D02*
D03*
Y144000D02*
D03*
Y154000D02*
D03*
Y164000D02*
D03*
Y174000D02*
D03*
Y184000D02*
D03*
X110000Y124000D02*
D03*
Y134000D02*
D03*
Y144000D02*
D03*
Y154000D02*
D03*
Y164000D02*
D03*
Y174000D02*
D03*
Y184000D02*
D03*
X189000Y141500D02*
D03*
X179000Y151500D02*
D03*
Y141500D02*
D03*
X169000Y151500D02*
D03*
Y141500D02*
D03*
D21*
X128000Y110000D02*
D03*
X277000Y113500D02*
D03*
D22*
X131000Y188500D02*
D03*
D23*
X281000Y141500D02*
D03*
Y170000D02*
D03*
Y159500D02*
D03*
X262500Y178500D02*
D03*
X262000Y159000D02*
D03*
Y138000D02*
D03*
X255000Y143000D02*
D03*
Y153000D02*
D03*
X256500Y121500D02*
D03*
Y126000D02*
D03*
X250000Y121500D02*
D03*
Y127250D02*
D03*
Y133000D02*
D03*
X245500Y137500D02*
D03*
Y148000D02*
D03*
Y158500D02*
D03*
X281000Y120714D02*
D03*
X268500Y113000D02*
D03*
X233500Y168000D02*
D03*
X241000D02*
D03*
X136625Y117000D02*
D03*
X120500D02*
D03*
X240000Y195000D02*
D03*
X225250D02*
D03*
X210500D02*
D03*
X240000Y186500D02*
D03*
X246500Y168000D02*
D03*
X227000Y168500D02*
D03*
X110000Y195000D02*
D03*
X124833D02*
D03*
X139667D02*
D03*
X154500D02*
D03*
X168500D02*
D03*
X182500D02*
D03*
X196500D02*
D03*
X256000D02*
D03*
X272000D02*
D03*
X288000D02*
D03*
X297000Y185000D02*
D03*
Y174286D02*
D03*
Y163571D02*
D03*
Y152857D02*
D03*
Y120714D02*
D03*
Y110000D02*
D03*
X290000Y105000D02*
D03*
X275000D02*
D03*
X260000D02*
D03*
X245000D02*
D03*
X230000D02*
D03*
X215000D02*
D03*
X200000D02*
D03*
X102500Y185000D02*
D03*
Y171800D02*
D03*
Y158600D02*
D03*
Y145400D02*
D03*
Y132200D02*
D03*
Y119000D02*
D03*
X104000Y105000D02*
D03*
X120200D02*
D03*
X136400D02*
D03*
X152500Y103500D02*
D03*
X168800Y105000D02*
D03*
X185000D02*
D03*
X168800Y111000D02*
D03*
X168875Y117000D02*
D03*
X185000D02*
D03*
Y111000D02*
D03*
X297000Y142143D02*
D03*
X120500Y111000D02*
D03*
X136500D02*
D03*
X124833Y186000D02*
D03*
Y175000D02*
D03*
Y164500D02*
D03*
X139667Y186000D02*
D03*
X184000D02*
D03*
X146500Y172500D02*
D03*
X145000Y161000D02*
D03*
X146500Y149000D02*
D03*
X133500Y161000D02*
D03*
Y149000D02*
D03*
X136500Y136500D02*
D03*
X124500Y151500D02*
D03*
X119000Y138500D02*
D03*
X120500Y129000D02*
D03*
X174000Y172500D02*
D03*
X184167D02*
D03*
X174000Y161000D02*
D03*
X184167D02*
D03*
X192000D02*
D03*
M02*
