%FSLAX25Y25*%
%MOIN*%
G70*
G01*
G75*
G04 Layer_Color=32896*
%ADD10C,0.00500*%
%ADD11R,0.04500X0.05000*%
%ADD12R,0.03500X0.03200*%
%ADD13R,0.00984X0.02165*%
%ADD14R,0.03200X0.03000*%
%ADD15R,0.03200X0.03500*%
%ADD16C,0.01500*%
%ADD17C,0.02000*%
%ADD18C,0.01000*%
%ADD19R,0.06000X0.06000*%
%ADD20C,0.06000*%
%ADD21C,0.03937*%
%ADD22C,0.04000*%
%ADD23C,0.02400*%
%ADD24C,0.03200*%
%ADD25C,0.01200*%
%ADD26C,0.03000*%
%ADD27C,0.00400*%
%ADD28C,0.00200*%
%ADD29C,0.00800*%
%ADD30R,0.04900X0.05400*%
%ADD31R,0.03900X0.03600*%
%ADD32R,0.01384X0.02565*%
%ADD33R,0.03600X0.03400*%
%ADD34R,0.03600X0.03900*%
%ADD35R,0.06400X0.06400*%
%ADD36C,0.06400*%
%ADD37C,0.12598*%
%ADD38C,0.12000*%
%ADD39C,0.02800*%
%ADD40C,0.03600*%
D10*
X274640Y144000D02*
G03*
X274640Y144000I-3140J0D01*
G01*
X274140Y134000D02*
G03*
X274140Y134000I-3140J0D01*
G01*
Y184000D02*
G03*
X274140Y184000I-3140J0D01*
G01*
Y173500D02*
G03*
X274140Y173500I-3140J0D01*
G01*
X129638Y143500D02*
G03*
X129638Y143500I-3140J0D01*
G01*
X118501Y150499D02*
X119500D01*
X119000D01*
Y148000D01*
X119500Y147500D01*
X120000D01*
X120500Y148000D01*
X117501Y147500D02*
X116501D01*
X117001D01*
Y150499D01*
X117501Y149999D01*
X281501Y150499D02*
X282500D01*
X282000D01*
Y148000D01*
X282500Y147500D01*
X283000D01*
X283500Y148000D01*
X278502Y147500D02*
X280501D01*
X278502Y149499D01*
Y149999D01*
X279001Y150499D01*
X280001D01*
X280501Y149999D01*
X267000Y145499D02*
X265001D01*
X266000D01*
Y142500D01*
X264001D02*
Y145499D01*
X262502D01*
X262002Y144999D01*
Y144000D01*
X262502Y143500D01*
X264001D01*
X261002Y142500D02*
X260002D01*
X260502D01*
Y145499D01*
X261002Y144999D01*
X266000Y174999D02*
X264001D01*
X265000D01*
Y172000D01*
X263001D02*
Y174999D01*
X261502D01*
X261002Y174499D01*
Y173500D01*
X261502Y173000D01*
X263001D01*
X258003Y172000D02*
X260002D01*
X258003Y173999D01*
Y174499D01*
X258502Y174999D01*
X259502D01*
X260002Y174499D01*
X266000Y185499D02*
X264001D01*
X265000D01*
Y182500D01*
X263001D02*
Y185499D01*
X261501D01*
X261002Y184999D01*
Y184000D01*
X261501Y183500D01*
X263001D01*
X260002Y184999D02*
X259502Y185499D01*
X258502D01*
X258003Y184999D01*
Y184499D01*
X258502Y184000D01*
X259002D01*
X258502D01*
X258003Y183500D01*
Y183000D01*
X258502Y182500D01*
X259502D01*
X260002Y183000D01*
X266500Y135499D02*
X264501D01*
X265500D01*
Y132500D01*
X263501D02*
Y135499D01*
X262001D01*
X261502Y134999D01*
Y134000D01*
X262001Y133500D01*
X263501D01*
X259002Y132500D02*
Y135499D01*
X260502Y134000D01*
X258503D01*
X130500Y138999D02*
X128501D01*
X129500D01*
Y136000D01*
X127501D02*
Y138999D01*
X126001D01*
X125502Y138499D01*
Y137499D01*
X126001Y137000D01*
X127501D01*
X122503Y138999D02*
X124502D01*
Y137499D01*
X123502Y137999D01*
X123002D01*
X122503Y137499D01*
Y136500D01*
X123002Y136000D01*
X124002D01*
X124502Y136500D01*
D29*
X285000Y109000D02*
Y189000D01*
Y109000D02*
X295000D01*
Y189000D01*
X285000D02*
X295000D01*
X105000Y109000D02*
Y189000D01*
Y109000D02*
X115000D01*
Y189000D01*
X105000D02*
X115000D01*
M02*
