%FSLAX25Y25*%
%MOIN*%
G70*
G01*
G75*
G04 Layer_Physical_Order=2*
G04 Layer_Color=16711680*
%ADD10C,0.00500*%
%ADD11R,0.04500X0.05000*%
%ADD12R,0.03500X0.03200*%
%ADD13R,0.00984X0.02165*%
%ADD14R,0.03200X0.03000*%
%ADD15R,0.03200X0.03500*%
%ADD16C,0.01500*%
%ADD17C,0.02000*%
%ADD18C,0.01000*%
%ADD19R,0.06000X0.06000*%
%ADD20C,0.06000*%
%ADD21C,0.03937*%
%ADD22C,0.04000*%
%ADD23C,0.02400*%
%ADD24C,0.03200*%
%ADD25C,0.01200*%
%ADD26C,0.03000*%
D10*
X294250Y184000D02*
G03*
X286760Y186750I-4250J0D01*
G01*
X286760Y181250D02*
G03*
X294250Y184000I3240J2750D01*
G01*
X287262Y170750D02*
G03*
X294250Y174000I2739J3250D01*
G01*
D02*
G03*
X286395Y176250I-4250J0D01*
G01*
X294250Y164000D02*
G03*
X294250Y164000I-4250J0D01*
G01*
Y154000D02*
G03*
X294250Y154000I-4250J0D01*
G01*
X271748Y186750D02*
G03*
X268832Y185850I-748J-2750D01*
G01*
Y182150D02*
G03*
X271748Y181250I2168J1850D01*
G01*
Y176250D02*
G03*
X268832Y175350I-748J-2750D01*
G01*
Y171650D02*
G03*
X271748Y170750I2168J1850D01*
G01*
X252000Y175350D02*
G03*
X250692Y174808I0J-1850D01*
G01*
X252000Y175350D02*
G03*
X250692Y174808I0J-1850D01*
G01*
X242500Y185850D02*
G03*
X241192Y185308I0J-1850D01*
G01*
X242500Y185850D02*
G03*
X241192Y185308I0J-1850D01*
G01*
X246328Y170444D02*
G03*
X248944Y167828I172J-2444D01*
G01*
X226828Y170944D02*
G03*
X229444Y168328I172J-2444D01*
G01*
X294250Y144000D02*
G03*
X294250Y144000I-4250J0D01*
G01*
X286760Y131250D02*
G03*
X294250Y134000I3240J2750D01*
G01*
D02*
G03*
X286760Y136750I-4250J0D01*
G01*
X294250Y124000D02*
G03*
X294250Y124000I-4250J0D01*
G01*
X280219Y113500D02*
G03*
X280219Y113500I-3218J0D01*
G01*
X274350Y144000D02*
G03*
X274350Y144000I-2850J0D01*
G01*
X271748Y136750D02*
G03*
X271748Y131250I-748J-2750D01*
G01*
X134250Y188500D02*
G03*
X134250Y188500I-3250J0D01*
G01*
X183250Y151500D02*
G03*
X183250Y151500I-4250J0D01*
G01*
X193250D02*
G03*
X193250Y151500I-4250J0D01*
G01*
X173250D02*
G03*
X173250Y151500I-4250J0D01*
G01*
X114250Y184000D02*
G03*
X114250Y184000I-4250J0D01*
G01*
Y174000D02*
G03*
X114250Y174000I-4250J0D01*
G01*
Y154000D02*
G03*
X114250Y154000I-4250J0D01*
G01*
X127912Y145974D02*
G03*
X125997Y146750I-1914J-1974D01*
G01*
X127912Y145974D02*
G03*
X125997Y146750I-1914J-1974D01*
G01*
X114250Y164000D02*
G03*
X114250Y164000I-4250J0D01*
G01*
X193250Y141500D02*
G03*
X193250Y141500I-4250J0D01*
G01*
X183250D02*
G03*
X183250Y141500I-4250J0D01*
G01*
X173250D02*
G03*
X173250Y141500I-4250J0D01*
G01*
X124748Y141250D02*
G03*
X129347Y143500I1749J2250D01*
G01*
D02*
G03*
X127912Y145974I-2850J0D01*
G01*
X113240Y146750D02*
G03*
X113240Y141250I-3240J-2750D01*
G01*
X114250Y134000D02*
G03*
X114250Y134000I-4250J0D01*
G01*
X131219Y110000D02*
G03*
X131219Y110000I-3218J0D01*
G01*
X114250Y124000D02*
G03*
X114250Y124000I-4250J0D01*
G01*
X293750Y186000D02*
X298500D01*
X294000Y195500D02*
X298500Y192000D01*
X294131Y185000D02*
X298500D01*
X293977Y185500D02*
X298500D01*
X292411Y187500D02*
X298500D01*
X291436Y188000D02*
X298500D01*
X293437Y186500D02*
X298500D01*
X293010Y187000D02*
X298500D01*
X294250Y184000D02*
X298500D01*
X294221Y184500D02*
X298500D01*
X293437Y181500D02*
X298500D01*
X293750Y182000D02*
X298500D01*
X292411Y180500D02*
X298500D01*
X293010Y181000D02*
X298500D01*
X291436Y180000D02*
X298500D01*
X293000Y187011D02*
Y195500D01*
X292500Y187437D02*
Y195500D01*
X294000Y185436D02*
Y195500D01*
X293500Y186411D02*
Y195500D01*
X291500Y187977D02*
Y195500D01*
X289500Y188221D02*
Y195500D01*
X292000Y187750D02*
Y195500D01*
X294221Y183500D02*
X298500D01*
X291000Y188131D02*
Y195500D01*
X293977Y182500D02*
X298500D01*
X294131Y183000D02*
X298500D01*
X290500Y188221D02*
Y195500D01*
X290000Y188250D02*
Y195500D01*
X289000Y188131D02*
Y195500D01*
X293977Y175500D02*
X298500D01*
X293750Y176000D02*
X298500D01*
X294221Y174500D02*
X298500D01*
X294131Y175000D02*
X298500D01*
X292411Y177500D02*
X298500D01*
X291436Y178000D02*
X298500D01*
X293437Y176500D02*
X298500D01*
X293010Y177000D02*
X298500D01*
X294221Y173500D02*
X298500D01*
X294250Y174000D02*
X298500D01*
X293977Y172500D02*
X298500D01*
X294131Y173000D02*
X298500D01*
X293437Y171500D02*
X298500D01*
X293750Y172000D02*
X298500D01*
X293010Y171000D02*
X298500D01*
X293000Y177011D02*
Y180990D01*
X292500Y177437D02*
Y180563D01*
X294000Y175436D02*
Y182564D01*
X293500Y176411D02*
Y181589D01*
X291500Y177977D02*
Y180024D01*
X289000Y178131D02*
Y179869D01*
X292000Y177750D02*
Y180250D01*
X293000Y167010D02*
Y170990D01*
X291000Y178131D02*
Y179869D01*
X294000Y165436D02*
Y172564D01*
X293500Y166411D02*
Y171589D01*
X290500Y178220D02*
Y179780D01*
X290000Y178250D02*
Y179750D01*
X289500Y178220D02*
Y179780D01*
X288500Y187977D02*
Y195500D01*
X288000Y187750D02*
Y195500D01*
X287500Y187437D02*
Y195500D01*
X287000Y187010D02*
Y195500D01*
X271748Y186750D02*
X286760D01*
X286000D02*
Y195500D01*
X286500Y186750D02*
Y195500D01*
X242116Y181000D02*
X286990D01*
X271748Y181250D02*
X286760D01*
X241616Y180500D02*
X287589D01*
X240616Y179500D02*
X298500D01*
X241116Y180000D02*
X288564D01*
X240116Y179000D02*
X298500D01*
X281000Y186750D02*
Y195500D01*
X280500Y186750D02*
Y195500D01*
X282000Y186750D02*
Y195500D01*
X281500Y186750D02*
Y195500D01*
X279500Y186750D02*
Y195500D01*
X279000Y186750D02*
Y195500D01*
X280000Y186750D02*
Y195500D01*
X284500Y186750D02*
Y195500D01*
X284000Y186750D02*
Y195500D01*
X285500Y186750D02*
Y195500D01*
X285000Y186750D02*
Y195500D01*
X283000Y186750D02*
Y195500D01*
X282500Y186750D02*
Y195500D01*
X283500Y186750D02*
Y195500D01*
X288500Y177977D02*
Y180024D01*
X288000Y177750D02*
Y180250D01*
X287500Y177437D02*
Y180563D01*
X287000Y177010D02*
Y180990D01*
X239616Y178500D02*
X298500D01*
X286500Y176411D02*
Y181250D01*
X286000Y176250D02*
Y181250D01*
X285500Y176250D02*
Y181250D01*
X239116Y178000D02*
X288564D01*
X271748Y176250D02*
X286395D01*
X238616Y177500D02*
X287589D01*
X238116Y177000D02*
X286990D01*
X237616Y176500D02*
X286563D01*
X280500Y176250D02*
Y181250D01*
X280000Y176250D02*
Y181250D01*
X281500Y176250D02*
Y181250D01*
X281000Y176250D02*
Y181250D01*
X279000Y176250D02*
Y181250D01*
X278500Y176250D02*
Y181250D01*
X279500Y176250D02*
Y181250D01*
X284000Y176250D02*
Y181250D01*
X283500Y176250D02*
Y181250D01*
X285000Y176250D02*
Y181250D01*
X284500Y176250D02*
Y181250D01*
X282500Y176250D02*
Y181250D01*
X282000Y176250D02*
Y181250D01*
X283000Y176250D02*
Y181250D01*
X293437Y166500D02*
X298500D01*
X293010Y167000D02*
X298500D01*
X293977Y165500D02*
X298500D01*
X293750Y166000D02*
X298500D01*
X291436Y170000D02*
X298500D01*
X292411Y170500D02*
X298500D01*
X292411Y167500D02*
X298500D01*
X291436Y168000D02*
X298500D01*
X294221Y164500D02*
X298500D01*
X294131Y165000D02*
X298500D01*
X294221Y163500D02*
X298500D01*
X294250Y164000D02*
X298500D01*
X292411Y160500D02*
X298500D01*
X293010Y161000D02*
X298500D01*
X291436Y158000D02*
X298500D01*
X292500Y167437D02*
Y170563D01*
X292000Y167750D02*
Y170250D01*
X293977Y162500D02*
X298500D01*
X294131Y163000D02*
X298500D01*
X291000Y168131D02*
Y169869D01*
X290500Y168220D02*
Y169780D01*
X291500Y167976D02*
Y170024D01*
X293437Y161500D02*
X298500D01*
X293750Y162000D02*
X298500D01*
X292000Y157750D02*
Y160250D01*
X291500Y157976D02*
Y160023D01*
X291436Y160000D02*
X298500D01*
X290500Y158221D02*
Y159780D01*
X291000Y158131D02*
Y159869D01*
X294131Y155000D02*
X298500D01*
X293977Y155500D02*
X298500D01*
X294250Y154000D02*
X298500D01*
X294221Y154500D02*
X298500D01*
X293010Y157000D02*
X298500D01*
X292411Y157500D02*
X298500D01*
X293750Y156000D02*
X298500D01*
X293437Y156500D02*
X298500D01*
X294131Y153000D02*
X298500D01*
X294221Y153500D02*
X298500D01*
X293750Y152000D02*
X298500D01*
X293977Y152500D02*
X298500D01*
X291436Y148000D02*
X298500D01*
X293437Y151500D02*
X298500D01*
X292411Y147500D02*
X298500D01*
X293500Y156411D02*
Y161589D01*
X293000Y157010D02*
Y160989D01*
X293010Y151000D02*
X298500D01*
X294000Y155436D02*
Y162564D01*
X292500Y147437D02*
Y150563D01*
Y157437D02*
Y160563D01*
X293000Y147011D02*
Y150989D01*
X292411Y150500D02*
X298500D01*
X292000Y147750D02*
Y150250D01*
X293437Y146500D02*
X298500D01*
X293010Y147000D02*
X298500D01*
X291436Y150000D02*
X298500D01*
X291000Y148131D02*
Y149869D01*
X291500Y147977D02*
Y150023D01*
X290000Y168250D02*
Y169750D01*
X289500Y168220D02*
Y169780D01*
X289000Y168131D02*
Y169869D01*
X288500Y167976D02*
Y170024D01*
X250616Y169500D02*
X298500D01*
X251116Y170000D02*
X288564D01*
X250116Y169000D02*
X298500D01*
X288000Y167750D02*
Y170250D01*
X290000Y158250D02*
Y159750D01*
X289500Y158221D02*
Y159780D01*
X289000Y158131D02*
Y159869D01*
X288500Y157976D02*
Y160024D01*
X249616Y168500D02*
X298500D01*
X249116Y168000D02*
X288564D01*
X287500Y167437D02*
Y170563D01*
X287000Y167010D02*
Y170750D01*
X286500Y166411D02*
Y170750D01*
X286000Y165436D02*
Y170750D01*
X251616Y170500D02*
X287589D01*
X271748Y170750D02*
X287262D01*
X248898Y167500D02*
X287589D01*
X288000Y157750D02*
Y160250D01*
X287500Y157437D02*
Y160563D01*
X287000Y157010D02*
Y160990D01*
X286500Y156411D02*
Y161589D01*
X248737Y167000D02*
X286990D01*
X248437Y166500D02*
X286563D01*
X247915Y166000D02*
X286250D01*
X289500Y148221D02*
Y149779D01*
X289000Y148131D02*
Y149869D01*
X288500Y147977D02*
Y150024D01*
X288000Y147750D02*
Y150250D01*
X192976Y150000D02*
X288564D01*
X193131Y150500D02*
X287589D01*
X192437Y149000D02*
X298500D01*
X192750Y149500D02*
X298500D01*
X290500Y148221D02*
Y149779D01*
X290000Y148250D02*
Y149750D01*
X192010Y148500D02*
X298500D01*
X191411Y148000D02*
X288564D01*
X190436Y147500D02*
X287589D01*
X286000Y155436D02*
Y162564D01*
X192437Y154000D02*
X285750D01*
X192976Y153000D02*
X285869D01*
X192750Y153500D02*
X285780D01*
X190436Y155500D02*
X286024D01*
X191411Y155000D02*
X285869D01*
X192010Y154500D02*
X285780D01*
X287500Y147437D02*
Y150563D01*
X193250Y151500D02*
X286563D01*
X287000Y147010D02*
Y150990D01*
X272868Y146500D02*
X286563D01*
X193220Y152000D02*
X286250D01*
X193131Y152500D02*
X286024D01*
X193220Y151000D02*
X286990D01*
X277500Y186750D02*
Y195500D01*
X277000Y186750D02*
Y195500D01*
X278500Y186750D02*
Y195500D01*
X278000Y186750D02*
Y195500D01*
X275500Y186750D02*
Y195500D01*
X275000Y186750D02*
Y195500D01*
X276500Y186750D02*
Y195500D01*
X276000Y186750D02*
Y195500D01*
X273500Y186750D02*
Y195500D01*
X273000Y186750D02*
Y195500D01*
X274500Y186750D02*
Y195500D01*
X274000Y186750D02*
Y195500D01*
X272500Y186750D02*
Y195500D01*
X272000Y186750D02*
Y195500D01*
X267000Y185850D02*
Y195500D01*
X266500Y185850D02*
Y195500D01*
X268000Y185850D02*
Y195500D01*
X267500Y185850D02*
Y195500D01*
X265500Y185850D02*
Y195500D01*
X265000Y185850D02*
Y195500D01*
X266000Y185850D02*
Y195500D01*
X271500Y186806D02*
Y195500D01*
X271000Y186850D02*
Y195500D01*
X270500Y186806D02*
Y195500D01*
X270000Y186669D02*
Y195500D01*
X269500Y186423D02*
Y195500D01*
X269000Y186030D02*
Y195500D01*
X268500Y185850D02*
Y195500D01*
X260000Y185850D02*
Y195500D01*
X259500Y185850D02*
Y195500D01*
X261000Y185850D02*
Y195500D01*
X260500Y185850D02*
Y195500D01*
X258000Y185850D02*
Y195500D01*
X257500Y185850D02*
Y195500D01*
X259000Y185850D02*
Y195500D01*
X258500Y185850D02*
Y195500D01*
X263500Y185850D02*
Y195500D01*
X263000Y185850D02*
Y195500D01*
X264500Y185850D02*
Y195500D01*
X264000Y185850D02*
Y195500D01*
X262000Y185850D02*
Y195500D01*
X261500Y185850D02*
Y195500D01*
X262500Y185850D02*
Y195500D01*
X252500Y185850D02*
Y195500D01*
X252000Y185850D02*
Y195500D01*
X253500Y185850D02*
Y195500D01*
X253000Y185850D02*
Y195500D01*
X251000Y185850D02*
Y195500D01*
X250500Y185850D02*
Y195500D01*
X251500Y185850D02*
Y195500D01*
X256000Y185850D02*
Y195500D01*
X255500Y185850D02*
Y195500D01*
X257000Y185850D02*
Y195500D01*
X256500Y185850D02*
Y195500D01*
X254500Y185850D02*
Y195500D01*
X254000Y185850D02*
Y195500D01*
X255000Y185850D02*
Y195500D01*
X245500Y185850D02*
Y195500D01*
X245000Y185850D02*
Y195500D01*
X246500Y185850D02*
Y195500D01*
X246000Y185850D02*
Y195500D01*
X243500Y185850D02*
Y195500D01*
X243000Y185850D02*
Y195500D01*
X244500Y185850D02*
Y195500D01*
X244000Y185850D02*
Y195500D01*
X249000Y185850D02*
Y195500D01*
X248500Y185850D02*
Y195500D01*
X250000Y185850D02*
Y195500D01*
X249500Y185850D02*
Y195500D01*
X247500Y185850D02*
Y195500D01*
X247000Y185850D02*
Y195500D01*
X248000Y185850D02*
Y195500D01*
X239000Y183116D02*
Y195500D01*
X238500Y182616D02*
Y195500D01*
X238000Y182116D02*
Y195500D01*
X237500Y181616D02*
Y195500D01*
X237000Y181116D02*
Y195500D01*
X236500Y180616D02*
Y195500D01*
X236000Y180116D02*
Y195500D01*
X242500Y185850D02*
Y195500D01*
X242000Y185781D02*
Y195500D01*
X241500Y185556D02*
Y195500D01*
X241000Y185116D02*
Y195500D01*
X240500Y184616D02*
Y195500D01*
X240000Y184116D02*
Y195500D01*
X239500Y183616D02*
Y195500D01*
X232000Y176116D02*
Y195500D01*
X231500Y175616D02*
Y195500D01*
X231000Y175116D02*
Y195500D01*
X230500Y174616D02*
Y195500D01*
X230000Y174116D02*
Y195500D01*
X229500Y173616D02*
Y195500D01*
X229000Y173116D02*
Y195500D01*
X235500Y179616D02*
Y195500D01*
X235000Y179116D02*
Y195500D01*
X234500Y178616D02*
Y195500D01*
X234000Y178116D02*
Y195500D01*
X233500Y177616D02*
Y195500D01*
X233000Y177116D02*
Y195500D01*
X232500Y176616D02*
Y195500D01*
X225000Y169915D02*
Y195500D01*
X192000Y154510D02*
Y195500D01*
X193000Y152936D02*
Y195500D01*
X192500Y153911D02*
Y195500D01*
X191000Y155250D02*
Y195500D01*
X190500Y155476D02*
Y195500D01*
X191500Y154937D02*
Y195500D01*
X228500Y172616D02*
Y195500D01*
X228000Y172116D02*
Y195500D01*
X227500Y171616D02*
Y195500D01*
X227000Y171116D02*
Y195500D01*
X226500Y170898D02*
Y195500D01*
X226000Y170737D02*
Y195500D01*
X225500Y170437D02*
Y195500D01*
X277000Y176250D02*
Y181250D01*
X276500Y176250D02*
Y181250D01*
X278000Y176250D02*
Y181250D01*
X277500Y176250D02*
Y181250D01*
X275000Y176250D02*
Y181250D01*
X276000Y176250D02*
Y181250D01*
X275500Y176250D02*
Y181250D01*
X273500Y176250D02*
Y181250D01*
X273000Y176250D02*
Y181250D01*
X274500Y176250D02*
Y181250D01*
X274000Y176250D02*
Y181250D01*
X272500Y176250D02*
Y181250D01*
X272000Y176250D02*
Y181250D01*
X267500Y175350D02*
Y182150D01*
X267000Y175350D02*
Y182150D01*
X268500Y175350D02*
Y182150D01*
X268000Y175350D02*
Y182150D01*
X258000Y175350D02*
Y182150D01*
X257500Y175350D02*
Y182150D01*
X266500Y175350D02*
Y182150D01*
X271500Y176306D02*
Y181194D01*
X271000Y176350D02*
Y181150D01*
X270500Y176306D02*
Y181194D01*
X270000Y176169D02*
Y181331D01*
X269500Y175923D02*
Y181577D01*
X269000Y175530D02*
Y181970D01*
X258500Y175350D02*
Y182150D01*
X265000Y175350D02*
Y182150D01*
X264500Y175350D02*
Y182150D01*
X266000Y175350D02*
Y182150D01*
X265500Y175350D02*
Y182150D01*
X263000Y175350D02*
Y182150D01*
X262500Y175350D02*
Y182150D01*
X264000Y175350D02*
Y182150D01*
X263500Y175350D02*
Y182150D01*
X272000Y146806D02*
Y170750D01*
X271500Y146850D02*
Y170694D01*
X272500Y146669D02*
Y170750D01*
X271000Y146806D02*
Y170650D01*
X270500Y146669D02*
Y170694D01*
X270000Y146423D02*
Y170831D01*
X256000Y175350D02*
Y182150D01*
X255500Y175350D02*
Y182150D01*
X257000Y175350D02*
Y182150D01*
X256500Y175350D02*
Y182150D01*
X254500Y175350D02*
Y182150D01*
X254000Y175350D02*
Y182150D01*
X255000Y175350D02*
Y182150D01*
X261000Y175350D02*
Y182150D01*
X260500Y175350D02*
Y182150D01*
X262000Y175350D02*
Y182150D01*
X261500Y175350D02*
Y182150D01*
X259500Y175350D02*
Y182150D01*
X259000Y175350D02*
Y182150D01*
X260000Y175350D02*
Y182150D01*
X252500Y175350D02*
Y182150D01*
X252000Y175350D02*
Y182150D01*
X253500Y175350D02*
Y182150D01*
X253000Y175350D02*
Y182150D01*
X243266D02*
X268832D01*
X242500Y185850D02*
X268832D01*
X251500Y175281D02*
Y182150D01*
X251000Y175056D02*
Y182150D01*
X243116Y182000D02*
X268970D01*
X252000Y175350D02*
X268832D01*
X237116Y176000D02*
X269632D01*
X242616Y181500D02*
X269632D01*
X236616Y175500D02*
X268970D01*
X250500Y174616D02*
Y182150D01*
X250000Y174116D02*
Y182150D01*
X249500Y173616D02*
Y182150D01*
X249000Y173116D02*
Y182150D01*
X248000Y172116D02*
Y182150D01*
X236116Y175000D02*
X250917D01*
X235616Y174500D02*
X250384D01*
X235116Y174000D02*
X249884D01*
X248500Y172616D02*
Y182150D01*
X234616Y173500D02*
X249384D01*
X234116Y173000D02*
X248884D01*
X233616Y172500D02*
X248384D01*
X247500Y171616D02*
Y182150D01*
X247000Y171116D02*
Y182150D01*
X248944Y167828D02*
X252766Y171650D01*
X246500Y170616D02*
Y182150D01*
X246328Y170444D02*
X250692Y174808D01*
X233116Y172000D02*
X247884D01*
X246000Y170398D02*
Y182150D01*
X252616Y171500D02*
X268970D01*
X252766Y171650D02*
X268832D01*
X252116Y171000D02*
X269632D01*
X232616Y171500D02*
X247384D01*
X232116Y171000D02*
X246884D01*
X231616Y170500D02*
X246384D01*
X245500Y170237D02*
Y182150D01*
X231116Y170000D02*
X245085D01*
X245000Y169937D02*
Y182150D01*
X244500Y169415D02*
Y182150D01*
X229444Y168328D02*
X243266Y182150D01*
X226828Y170944D02*
X241192Y185308D01*
X230616Y169500D02*
X244563D01*
X230116Y169000D02*
X244263D01*
X229616Y168500D02*
X244102D01*
X229398Y168000D02*
X244050D01*
X228937Y167000D02*
X244263D01*
X229237Y167500D02*
X244102D01*
X228415Y166500D02*
X244563D01*
X294221Y144500D02*
X298500D01*
X294131Y145000D02*
X298500D01*
X294221Y143500D02*
X298500D01*
X294250Y144000D02*
X298500D01*
X293977Y145500D02*
X298500D01*
X293750Y146000D02*
X298500D01*
X293977Y142500D02*
X298500D01*
X294131Y143000D02*
X298500D01*
X293437Y141500D02*
X298500D01*
X293750Y142000D02*
X298500D01*
X292411Y137500D02*
X298500D01*
X293010Y141000D02*
X298500D01*
X291436Y140000D02*
X298500D01*
X292411Y140500D02*
X298500D01*
X291436Y138000D02*
X298500D01*
X294000Y145436D02*
Y152564D01*
X293500Y146411D02*
Y151589D01*
X292000Y137750D02*
Y140250D01*
X288000Y137750D02*
Y140250D01*
X290500Y138221D02*
Y139779D01*
X290000Y138250D02*
Y139750D01*
X291500Y137977D02*
Y140024D01*
X291000Y138131D02*
Y139869D01*
X289500Y138221D02*
Y139779D01*
X289000Y138131D02*
Y139869D01*
X288500Y137977D02*
Y140024D01*
X298500Y105000D02*
Y192000D01*
X294131Y135000D02*
X298500D01*
X298000Y104625D02*
Y192389D01*
X297500Y104250D02*
Y192778D01*
X293437Y136500D02*
X298500D01*
X293010Y137000D02*
X298500D01*
X293977Y135500D02*
X298500D01*
X293750Y136000D02*
X298500D01*
X294250Y134000D02*
X298500D01*
X294221Y134500D02*
X298500D01*
X294131Y133000D02*
X298500D01*
X294221Y133500D02*
X298500D01*
X293750Y132000D02*
X298500D01*
X293977Y132500D02*
X298500D01*
X293437Y131500D02*
X298500D01*
X297000Y103875D02*
Y193167D01*
X296500Y103500D02*
Y193556D01*
X296000Y103125D02*
Y193944D01*
X295500Y102750D02*
Y194333D01*
X295000Y102375D02*
Y194722D01*
X294000Y135436D02*
Y142564D01*
X294500Y102000D02*
Y195111D01*
X293500Y136411D02*
Y141589D01*
X293000Y137011D02*
Y140989D01*
X294000Y125436D02*
Y132564D01*
X293500Y126411D02*
Y131589D01*
X292500Y137437D02*
Y140563D01*
X287500Y137437D02*
Y140563D01*
X287000Y137010D02*
Y140990D01*
X286500Y146411D02*
Y151589D01*
Y136750D02*
Y141589D01*
X273530Y142000D02*
X286250D01*
X273530Y146000D02*
X286250D01*
X193220Y141000D02*
X286990D01*
X272868Y141500D02*
X286563D01*
X192976Y140000D02*
X288564D01*
X193131Y140500D02*
X287589D01*
X192437Y139000D02*
X298500D01*
X192750Y139500D02*
X298500D01*
X192010Y138500D02*
X298500D01*
X191411Y138000D02*
X288564D01*
X190436Y137500D02*
X287589D01*
X286000Y145436D02*
Y152564D01*
X284000Y136750D02*
Y170750D01*
X283500Y136750D02*
Y170750D01*
X283000Y136750D02*
Y170750D01*
X273923Y145500D02*
X286024D01*
X282000Y136750D02*
Y170750D01*
X282500Y136750D02*
Y170750D01*
X274306Y144500D02*
X285780D01*
X274350Y144000D02*
X285750D01*
X286000Y136750D02*
Y142564D01*
X274306Y143500D02*
X285780D01*
X274169Y143000D02*
X285869D01*
X274169Y145000D02*
X285869D01*
X273923Y142500D02*
X286024D01*
X286500Y126411D02*
Y131250D01*
X286000Y125436D02*
Y131250D01*
X271748Y136750D02*
X286760D01*
X284500D02*
Y170750D01*
X285500Y136750D02*
Y170750D01*
X285000Y136750D02*
Y170750D01*
X284500Y102000D02*
Y131250D01*
X284000Y102000D02*
Y131250D01*
X285500Y102000D02*
Y131250D01*
X285000Y102000D02*
Y131250D01*
X271748D02*
X286760D01*
X283000Y102000D02*
Y131250D01*
X283500Y102000D02*
Y131250D01*
X280500Y136750D02*
Y170750D01*
X280000Y136750D02*
Y170750D01*
X281500Y136750D02*
Y170750D01*
X281000Y136750D02*
Y170750D01*
X279000Y136750D02*
Y170750D01*
X278500Y136750D02*
Y170750D01*
X279500Y136750D02*
Y170750D01*
X280000Y114666D02*
Y131250D01*
X279500Y115527D02*
Y131250D01*
X282000Y102000D02*
Y131250D01*
X281500Y102000D02*
Y131250D01*
X278500Y116348D02*
Y131250D01*
X278000Y116559D02*
Y131250D01*
X279000Y116022D02*
Y131250D01*
X293010Y127000D02*
X298500D01*
X293010Y131000D02*
X298500D01*
X293750Y126000D02*
X298500D01*
X293437Y126500D02*
X298500D01*
X291436Y130000D02*
X298500D01*
X292411Y130500D02*
X298500D01*
X292411Y127500D02*
X298500D01*
X291436Y128000D02*
X298500D01*
X294131Y125000D02*
X298500D01*
X293977Y125500D02*
X298500D01*
X294250Y124000D02*
X298500D01*
X294221Y124500D02*
X298500D01*
X293010Y121000D02*
X298500D01*
X293437Y121500D02*
X298500D01*
X291436Y120000D02*
X298500D01*
X293000Y127011D02*
Y130990D01*
X292500Y127437D02*
Y130563D01*
X294131Y123000D02*
X298500D01*
X294221Y123500D02*
X298500D01*
X291500Y127977D02*
Y130024D01*
X291000Y128131D02*
Y129869D01*
X292000Y127750D02*
Y130250D01*
X293750Y122000D02*
X298500D01*
X293977Y122500D02*
X298500D01*
X294000Y118250D02*
Y122564D01*
X292500Y118250D02*
Y120563D01*
X292411Y120500D02*
X298500D01*
X292000Y118250D02*
Y120250D01*
X291000Y118250D02*
Y119869D01*
X294250Y115500D02*
X298500D01*
X294250Y116000D02*
X298500D01*
X294250Y114500D02*
X298500D01*
X294250Y115000D02*
X298500D01*
X294250Y117500D02*
X298500D01*
X294250Y118000D02*
X298500D01*
X294250Y116500D02*
X298500D01*
X294250Y117000D02*
X298500D01*
X294250Y112000D02*
X298500D01*
X294250Y112500D02*
X298500D01*
X294500Y102000D02*
X298500Y105000D01*
X294250Y110000D02*
X298500D01*
X294250Y113500D02*
X298500D01*
X294250Y114000D02*
X298500D01*
X294250Y113000D02*
X298500D01*
X294250Y111000D02*
X298500D01*
X294250Y111500D02*
X298500D01*
X294250Y110500D02*
X298500D01*
X294250Y109750D02*
Y118250D01*
X293000D02*
Y120990D01*
X291500Y118250D02*
Y120024D01*
X293500Y118250D02*
Y121589D01*
X293000Y102000D02*
Y109750D01*
X292500Y102000D02*
Y109750D01*
X294000Y102000D02*
Y109750D01*
X293500Y102000D02*
Y109750D01*
X291500Y102000D02*
Y109750D01*
X291000Y102000D02*
Y109750D01*
X292000Y102000D02*
Y109750D01*
X290500Y128220D02*
Y129780D01*
X290000Y128250D02*
Y129750D01*
X289500Y128220D02*
Y129780D01*
X289000Y128131D02*
Y129869D01*
X288500Y127977D02*
Y130024D01*
X290500Y118250D02*
Y119780D01*
X290000Y118250D02*
Y119750D01*
X289500Y118250D02*
Y119780D01*
X285750Y118250D02*
X294250D01*
X289000D02*
Y119869D01*
X288000Y127750D02*
Y130250D01*
X287500Y127437D02*
Y130563D01*
Y118250D02*
Y120563D01*
X287000Y127010D02*
Y130990D01*
X286500Y118250D02*
Y121589D01*
X286000Y118250D02*
Y122564D01*
X287000Y118250D02*
Y120990D01*
X288500Y118250D02*
Y120024D01*
X288000Y118250D02*
Y120250D01*
X280059Y114500D02*
X285750D01*
X279848Y115000D02*
X285750D01*
X279027Y116000D02*
X285750D01*
X278166Y116500D02*
X285750D01*
X279522Y115500D02*
X285750D01*
X289000Y102000D02*
Y109750D01*
X285750D02*
Y118250D01*
X290000Y102000D02*
Y109750D01*
X289500Y102000D02*
Y109750D01*
X279522Y111500D02*
X285750D01*
X279848Y112000D02*
X285750D01*
Y109750D02*
X294250D01*
X288000Y102000D02*
Y109750D01*
X287500Y102000D02*
Y109750D01*
X290500Y102000D02*
Y109750D01*
X288500Y102000D02*
Y109750D01*
X286500Y102000D02*
Y109750D01*
X286000Y102000D02*
Y109750D01*
X287000Y102000D02*
Y109750D01*
X280219Y113500D02*
X285750D01*
X280500Y102000D02*
Y131250D01*
X282500Y102000D02*
Y131250D01*
X281000Y102000D02*
Y131250D01*
X280179Y113000D02*
X285750D01*
X280179Y114000D02*
X285750D01*
X279027Y111000D02*
X285750D01*
X280059Y112500D02*
X285750D01*
X280000Y102000D02*
Y112334D01*
X279500Y102000D02*
Y111473D01*
X278166Y110500D02*
X285750D01*
X278500Y102000D02*
Y110652D01*
X279000Y102000D02*
Y110978D01*
X262500Y102000D02*
Y171650D01*
X262000Y102000D02*
Y171650D01*
X264500Y102000D02*
Y171650D01*
X264000Y102000D02*
Y171650D01*
X260500Y102000D02*
Y171650D01*
X260000Y102000D02*
Y171650D01*
X261500Y102000D02*
Y171650D01*
X261000Y102000D02*
Y171650D01*
X268500Y135368D02*
Y171650D01*
X268000Y102000D02*
Y171650D01*
X267500Y102000D02*
Y171650D01*
X267000Y102000D02*
Y171650D01*
X266000Y102000D02*
Y171650D01*
X265500Y102000D02*
Y171650D01*
X266500Y102000D02*
Y171650D01*
X255000Y102000D02*
Y171650D01*
X254500Y102000D02*
Y171650D01*
X256000Y102000D02*
Y171650D01*
X255500Y102000D02*
Y171650D01*
X253500Y102000D02*
Y171650D01*
X253000Y102000D02*
Y171650D01*
X254000Y102000D02*
Y171650D01*
X258500Y102000D02*
Y171650D01*
X258000Y102000D02*
Y171650D01*
X259500Y102000D02*
Y171650D01*
X259000Y102000D02*
Y171650D01*
X257000Y102000D02*
Y171650D01*
X256500Y102000D02*
Y171650D01*
X257500Y102000D02*
Y171650D01*
X243000Y102000D02*
Y181884D01*
X242500Y102000D02*
Y181384D01*
X244000Y102000D02*
Y182150D01*
X243500Y102000D02*
Y182150D01*
X241000Y102000D02*
Y179884D01*
X240500Y102000D02*
Y179384D01*
X242000Y102000D02*
Y180884D01*
X241500Y102000D02*
Y180384D01*
X239000Y102000D02*
Y177884D01*
X238500Y102000D02*
Y177384D01*
X240000Y102000D02*
Y178884D01*
X239500Y102000D02*
Y178384D01*
X237500Y102000D02*
Y176384D01*
X237000Y102000D02*
Y175884D01*
X238000Y102000D02*
Y176884D01*
X224000Y102000D02*
Y195500D01*
X223500Y102000D02*
Y195500D01*
X236500Y102000D02*
Y175384D01*
X224500Y102000D02*
Y195500D01*
X222500Y102000D02*
Y195500D01*
X222000Y102000D02*
Y195500D01*
X223000Y102000D02*
Y195500D01*
X235000Y102000D02*
Y173884D01*
X234500Y102000D02*
Y173384D01*
X236000Y102000D02*
Y174884D01*
X235500Y102000D02*
Y174384D01*
X233500Y102000D02*
Y172384D01*
X233000Y102000D02*
Y171884D01*
X234000Y102000D02*
Y172884D01*
X203000Y102000D02*
Y195500D01*
X202500Y102000D02*
Y195500D01*
X204000Y102000D02*
Y195500D01*
X203500Y102000D02*
Y195500D01*
X201000Y102000D02*
Y195500D01*
X200500Y102000D02*
Y195500D01*
X202000Y102000D02*
Y195500D01*
X201500Y102000D02*
Y195500D01*
X206500Y102000D02*
Y195500D01*
X206000Y102000D02*
Y195500D01*
X207500Y102000D02*
Y195500D01*
X207000Y102000D02*
Y195500D01*
X205000Y102000D02*
Y195500D01*
X204500Y102000D02*
Y195500D01*
X205500Y102000D02*
Y195500D01*
X195500Y102000D02*
Y195500D01*
X195000Y102000D02*
Y195500D01*
X196500Y102000D02*
Y195500D01*
X196000Y102000D02*
Y195500D01*
X194000Y102000D02*
Y195500D01*
X193500Y102000D02*
Y195500D01*
X194500Y102000D02*
Y195500D01*
X199000Y102000D02*
Y195500D01*
X198500Y102000D02*
Y195500D01*
X200000Y102000D02*
Y195500D01*
X199500Y102000D02*
Y195500D01*
X197500Y102000D02*
Y195500D01*
X197000Y102000D02*
Y195500D01*
X198000Y102000D02*
Y195500D01*
X217000Y102000D02*
Y195500D01*
X216500Y102000D02*
Y195500D01*
X218000Y102000D02*
Y195500D01*
X217500Y102000D02*
Y195500D01*
X215500Y102000D02*
Y195500D01*
X215000Y102000D02*
Y195500D01*
X216000Y102000D02*
Y195500D01*
X220500Y102000D02*
Y195500D01*
X220000Y102000D02*
Y195500D01*
X221500Y102000D02*
Y195500D01*
X221000Y102000D02*
Y195500D01*
X219000Y102000D02*
Y195500D01*
X218500Y102000D02*
Y195500D01*
X219500Y102000D02*
Y195500D01*
X210000Y102000D02*
Y195500D01*
X209500Y102000D02*
Y195500D01*
X211000Y102000D02*
Y195500D01*
X210500Y102000D02*
Y195500D01*
X208500Y102000D02*
Y195500D01*
X208000Y102000D02*
Y195500D01*
X209000Y102000D02*
Y195500D01*
X213500Y102000D02*
Y195500D01*
X213000Y102000D02*
Y195500D01*
X214500Y102000D02*
Y195500D01*
X214000Y102000D02*
Y195500D01*
X212000Y102000D02*
Y195500D01*
X211500Y102000D02*
Y195500D01*
X212500Y102000D02*
Y195500D01*
X276500Y136750D02*
Y170750D01*
X276000Y136750D02*
Y170750D01*
X278000Y136750D02*
Y170750D01*
X277000Y136750D02*
Y170750D01*
X274500Y136750D02*
Y170750D01*
X273500Y146030D02*
Y170750D01*
X275500Y136750D02*
Y170750D01*
X275000Y136750D02*
Y170750D01*
X277500Y136750D02*
Y170750D01*
X274000Y145368D02*
Y170750D01*
Y136750D02*
Y142632D01*
X273500Y136750D02*
Y141970D01*
X273000Y146423D02*
Y170750D01*
X269500Y146030D02*
Y171077D01*
Y136423D02*
Y141970D01*
X269000Y145368D02*
Y171470D01*
Y136030D02*
Y142632D01*
X272000Y136750D02*
Y141194D01*
X271500Y136806D02*
Y141150D01*
X273000Y136750D02*
Y141577D01*
X272500Y136750D02*
Y141331D01*
X271000Y136850D02*
Y141194D01*
X270500Y136806D02*
Y141331D01*
X270000Y136669D02*
Y141577D01*
X277500Y116679D02*
Y131250D01*
X277000Y116718D02*
Y131250D01*
X276500Y116679D02*
Y131250D01*
X276000Y116559D02*
Y131250D01*
X275500Y116348D02*
Y131250D01*
X275000Y116022D02*
Y131250D01*
X274500Y102000D02*
Y111473D01*
Y115527D02*
Y131250D01*
X277000Y102000D02*
Y110282D01*
X276500Y102000D02*
Y110321D01*
X278000Y102000D02*
Y110441D01*
X277500Y102000D02*
Y110321D01*
X275500Y102000D02*
Y110652D01*
X275000Y102000D02*
Y110978D01*
X276000Y102000D02*
Y110441D01*
X270000Y102000D02*
Y131331D01*
X269500Y102000D02*
Y131577D01*
X273000Y102000D02*
Y131250D01*
X272500Y102000D02*
Y131250D01*
X268500Y102000D02*
Y132632D01*
X269000Y102000D02*
Y131970D01*
X274000Y102000D02*
Y112334D01*
Y114666D02*
Y131250D01*
X273500Y102000D02*
Y131250D01*
X272000Y102000D02*
Y131250D01*
X271000Y102000D02*
Y131150D01*
X270500Y102000D02*
Y131194D01*
X271500Y102000D02*
Y131194D01*
X251500Y102000D02*
Y170384D01*
X249000Y102000D02*
Y167884D01*
X263500Y102000D02*
Y171650D01*
X263000Y102000D02*
Y171650D01*
X190436Y145500D02*
X269077D01*
X191411Y145000D02*
X268831D01*
X248500Y102000D02*
Y166585D01*
X248000Y102000D02*
Y166063D01*
X193131Y142500D02*
X269077D01*
X192976Y143000D02*
X268831D01*
X193250Y141500D02*
X270132D01*
X193220Y142000D02*
X269470D01*
X192010Y144500D02*
X268694D01*
X192437Y144000D02*
X268650D01*
X192750Y143500D02*
X268694D01*
X246000Y102000D02*
Y165602D01*
X245500Y102000D02*
Y165763D01*
X247500Y102000D02*
Y165763D01*
X247000Y102000D02*
Y165602D01*
X244500Y102000D02*
Y166585D01*
X232500Y102000D02*
Y171384D01*
X245000Y102000D02*
Y166063D01*
X192500Y143911D02*
Y149089D01*
X192000Y144510D02*
Y148490D01*
X246500Y102000D02*
Y165550D01*
X193000Y142936D02*
Y150064D01*
X191000Y145250D02*
Y147750D01*
X190500Y145476D02*
Y147523D01*
X191500Y144937D02*
Y148063D01*
X252000Y102000D02*
Y170884D01*
X251000Y102000D02*
Y169884D01*
X265000Y102000D02*
Y171650D01*
X252500Y102000D02*
Y171384D01*
X231500Y102000D02*
Y170384D01*
X231000Y102000D02*
Y169884D01*
X232000Y102000D02*
Y170884D01*
X249500Y102000D02*
Y168384D01*
X230500Y102000D02*
Y169384D01*
X250500Y102000D02*
Y169384D01*
X250000Y102000D02*
Y168884D01*
X229500Y102000D02*
Y168384D01*
X229000Y102000D02*
Y167085D01*
X230000Y102000D02*
Y168884D01*
X227500Y102000D02*
Y166102D01*
X226500Y102000D02*
Y166102D01*
X228500Y102000D02*
Y166563D01*
X228000Y102000D02*
Y166263D01*
X225500Y102000D02*
Y166563D01*
X225000Y102000D02*
Y167085D01*
X226000Y102000D02*
Y166263D01*
X192500Y102000D02*
Y139089D01*
X192000Y102000D02*
Y138490D01*
X227000Y102000D02*
Y166050D01*
X193000Y102000D02*
Y140064D01*
X191000Y102000D02*
Y137750D01*
X190500Y102000D02*
Y137523D01*
X191500Y102000D02*
Y138063D01*
X134211Y189000D02*
X298500D01*
X134092Y189500D02*
X298500D01*
X190000Y155631D02*
Y195500D01*
X189500Y155720D02*
Y195500D01*
X133077Y191000D02*
X298500D01*
X132250Y191500D02*
X298500D01*
X133883Y190000D02*
X298500D01*
X133562Y190500D02*
X298500D01*
X134250Y188500D02*
X298500D01*
X134211Y188000D02*
X288564D01*
X134092Y187500D02*
X287589D01*
X133883Y187000D02*
X286990D01*
X133562Y186500D02*
X269632D01*
X133077Y186000D02*
X268970D01*
X132250Y185500D02*
X241417D01*
X178500Y155720D02*
Y195500D01*
X169500Y155720D02*
Y195500D01*
X178000Y155631D02*
Y195500D01*
X170000Y155631D02*
Y195500D01*
X169000Y155750D02*
Y195500D01*
X168500Y155720D02*
Y195500D01*
X168000Y155631D02*
Y195500D01*
X189000Y155750D02*
Y195500D01*
X188500Y155720D02*
Y195500D01*
X188000Y155631D02*
Y195500D01*
X180500Y155476D02*
Y195500D01*
X179500Y155720D02*
Y195500D01*
X179000Y155750D02*
Y195500D01*
X180000Y155631D02*
Y195500D01*
X181500Y154937D02*
Y195500D01*
X181000Y155250D02*
Y195500D01*
X182500Y153911D02*
Y195500D01*
X182000Y154510D02*
Y195500D01*
X177500Y155476D02*
Y195500D01*
X177000Y155250D02*
Y195500D01*
X176500Y154937D02*
Y195500D01*
X176000Y154510D02*
Y195500D01*
X187500Y155476D02*
Y195500D01*
X187000Y155250D02*
Y195500D01*
X186500Y154937D02*
Y195500D01*
X186000Y154510D02*
Y195500D01*
X185500Y153911D02*
Y195500D01*
X185000Y152936D02*
Y195500D01*
X183000Y152936D02*
Y195500D01*
X170500Y155476D02*
Y195500D01*
X167500Y155476D02*
Y195500D01*
X167000Y155250D02*
Y195500D01*
X166500Y154937D02*
Y195500D01*
X166000Y154510D02*
Y195500D01*
X165500Y153911D02*
Y195500D01*
X165000Y152936D02*
Y195500D01*
X175500Y153911D02*
Y195500D01*
X172500Y153911D02*
Y195500D01*
X175000Y152936D02*
Y195500D01*
X173000Y152936D02*
Y195500D01*
X171500Y154937D02*
Y195500D01*
X171000Y155250D02*
Y195500D01*
X172000Y154510D02*
Y195500D01*
X105750Y195000D02*
X294643D01*
X106500Y195500D02*
X294000D01*
X104250Y194000D02*
X295929D01*
X105000Y194500D02*
X295286D01*
X102750Y193000D02*
X297214D01*
X103500Y193500D02*
X296571D01*
X102000Y192000D02*
X298500D01*
X102000Y192500D02*
X297857D01*
X114131Y185000D02*
X240884D01*
X114220Y184500D02*
X240384D01*
X114250Y184000D02*
X239884D01*
X114220Y183500D02*
X239384D01*
X114131Y183000D02*
X238884D01*
X113977Y182500D02*
X238384D01*
X113750Y182000D02*
X237884D01*
X113437Y181500D02*
X237384D01*
X113010Y181000D02*
X236884D01*
X112411Y180500D02*
X236384D01*
X111436Y180000D02*
X235884D01*
X102000Y179500D02*
X235384D01*
X102000Y179000D02*
X234884D01*
X113010Y177000D02*
X232884D01*
X113437Y176500D02*
X232384D01*
X113750Y176000D02*
X231884D01*
X113977Y175500D02*
X231384D01*
X102000Y178500D02*
X234384D01*
X111436Y178000D02*
X233884D01*
X112411Y177500D02*
X233384D01*
X114220Y174500D02*
X230384D01*
X114250Y174000D02*
X229884D01*
X114220Y164500D02*
X285780D01*
X114220Y173500D02*
X229384D01*
X113750Y166000D02*
X245085D01*
X114131Y175000D02*
X230884D01*
X113977Y165500D02*
X286024D01*
X114131Y165000D02*
X285869D01*
X114220Y163500D02*
X285780D01*
X114250Y164000D02*
X285750D01*
X113977Y162500D02*
X286024D01*
X114131Y163000D02*
X285869D01*
X113437Y161500D02*
X286563D01*
X113750Y162000D02*
X286250D01*
X113010Y161000D02*
X286990D01*
X114131Y173000D02*
X228884D01*
X113977Y172500D02*
X228384D01*
X113750Y172000D02*
X227884D01*
X113437Y171500D02*
X227384D01*
X113010Y171000D02*
X226884D01*
X112411Y170500D02*
X225585D01*
X111436Y170000D02*
X225063D01*
X112411Y167500D02*
X224763D01*
X111436Y168000D02*
X224602D01*
X113437Y166500D02*
X225585D01*
X113010Y167000D02*
X225063D01*
X102000Y169500D02*
X224763D01*
X102000Y169000D02*
X224602D01*
X102000Y168500D02*
X224550D01*
X182750Y153500D02*
X185250D01*
X182976Y153000D02*
X185023D01*
X183131Y152500D02*
X184869D01*
X183221Y152000D02*
X184780D01*
X180436Y155500D02*
X187564D01*
X181411Y155000D02*
X186589D01*
X182010Y154500D02*
X185990D01*
X182437Y154000D02*
X185563D01*
X182976Y150000D02*
X185023D01*
X183131Y150500D02*
X184869D01*
X182437Y149000D02*
X185563D01*
X182750Y149500D02*
X185250D01*
X181411Y148000D02*
X186589D01*
X182010Y148500D02*
X185990D01*
X180436Y147500D02*
X187564D01*
X173131Y152500D02*
X174869D01*
X173221Y152000D02*
X174779D01*
X183250Y151500D02*
X184750D01*
X172437Y154000D02*
X175563D01*
X172750Y153500D02*
X175250D01*
X172977Y153000D02*
X175023D01*
X183221Y151000D02*
X184780D01*
X173250Y151500D02*
X174750D01*
X173131Y150500D02*
X174869D01*
X173221Y151000D02*
X174779D01*
X172750Y149500D02*
X175250D01*
X172977Y150000D02*
X175023D01*
X172437Y149000D02*
X175563D01*
X190000Y145631D02*
Y147369D01*
X188000Y145631D02*
Y147369D01*
X187500Y145476D02*
Y147523D01*
X187000Y145250D02*
Y147750D01*
X186500Y144937D02*
Y148063D01*
X186000Y144510D02*
Y148490D01*
X182000Y144510D02*
Y148490D01*
X189500Y145721D02*
Y147280D01*
X189000Y145750D02*
Y147250D01*
X188500Y145721D02*
Y147280D01*
X182437Y144000D02*
X185563D01*
X180436Y145500D02*
X187564D01*
X181411Y145000D02*
X186589D01*
X182010Y144500D02*
X185990D01*
X181000Y145250D02*
Y147750D01*
X180500Y145476D02*
Y147523D01*
X181500Y144937D02*
Y148063D01*
X177000Y145250D02*
Y147750D01*
X176500Y144937D02*
Y148063D01*
X176000Y144510D02*
Y148490D01*
X175500Y143911D02*
Y149089D01*
X179500Y145721D02*
Y147280D01*
X179000Y145750D02*
Y147250D01*
X180000Y145631D02*
Y147369D01*
X178500Y145721D02*
Y147280D01*
X178000Y145631D02*
Y147369D01*
X177500Y145476D02*
Y147523D01*
X172437Y144000D02*
X175563D01*
X111436Y158000D02*
X288564D01*
X112411Y160500D02*
X287589D01*
X112411Y157500D02*
X287589D01*
X113010Y157000D02*
X286990D01*
X102000Y159500D02*
X298500D01*
X111436Y160000D02*
X288564D01*
X102000Y158500D02*
X298500D01*
X102000Y159000D02*
X298500D01*
X170436Y155500D02*
X177564D01*
X171411Y155000D02*
X176589D01*
X172010Y148500D02*
X175990D01*
X172010Y154500D02*
X175990D01*
X113437Y156500D02*
X286563D01*
X113750Y156000D02*
X286250D01*
X113977Y155500D02*
X167564D01*
X114131Y155000D02*
X166589D01*
X114220Y154500D02*
X165990D01*
X114250Y154000D02*
X165563D01*
X114220Y153500D02*
X165250D01*
X114131Y153000D02*
X165024D01*
X113977Y152500D02*
X164869D01*
X113750Y152000D02*
X164779D01*
X113010Y151000D02*
X164779D01*
X113437Y151500D02*
X164750D01*
X111436Y150000D02*
X165024D01*
X112411Y150500D02*
X164869D01*
X102000Y149000D02*
X165563D01*
X102000Y149500D02*
X165250D01*
X102000Y148500D02*
X165990D01*
X171411Y148000D02*
X176589D01*
X171000Y145250D02*
Y147750D01*
X172000Y144510D02*
Y148490D01*
X171500Y144937D02*
Y148063D01*
X170436Y147500D02*
X177564D01*
X170500Y145476D02*
Y147523D01*
X170436Y145500D02*
X177564D01*
X170000Y145631D02*
Y147369D01*
X171411Y145000D02*
X176589D01*
X172010Y144500D02*
X175990D01*
X113010Y147000D02*
X286990D01*
X127143Y146500D02*
X270132D01*
X127885Y146000D02*
X269470D01*
X168000Y145631D02*
Y147369D01*
X167500Y145476D02*
Y147523D01*
X167000Y145250D02*
Y147750D01*
X166500Y144937D02*
Y148063D01*
X112411Y147500D02*
X167564D01*
X111436Y148000D02*
X166589D01*
X166000Y144510D02*
Y148490D01*
X169500Y145721D02*
Y147280D01*
X169000Y145750D02*
Y147250D01*
X168500Y145721D02*
Y147280D01*
X129303Y144000D02*
X165563D01*
X128528Y145500D02*
X167564D01*
X128921Y145000D02*
X166589D01*
X129166Y144500D02*
X165990D01*
X133000Y191062D02*
Y195500D01*
X132500Y191383D02*
Y195500D01*
X134000Y189750D02*
Y195500D01*
X133500Y190577D02*
Y195500D01*
X131500Y191711D02*
Y195500D01*
X131000Y191750D02*
Y195500D01*
X132000Y191592D02*
Y195500D01*
X130500Y191711D02*
Y195500D01*
X130000Y191592D02*
Y195500D01*
X129500Y191383D02*
Y195500D01*
X129000Y191062D02*
Y195500D01*
X128500Y190577D02*
Y195500D01*
X113750Y186000D02*
X128923D01*
X113437Y186500D02*
X128438D01*
X113977Y185500D02*
X129750D01*
X128000Y189750D02*
Y195500D01*
X113500Y186411D02*
Y195500D01*
X124500Y146750D02*
Y195500D01*
X114000Y185436D02*
Y195500D01*
X112500Y187437D02*
Y195500D01*
X112000Y187750D02*
Y195500D01*
X113000Y187010D02*
Y195500D01*
X113010Y187000D02*
X128117D01*
X113000Y177010D02*
Y180990D01*
X114000Y175436D02*
Y182564D01*
X113500Y176411D02*
Y181589D01*
X112411Y187500D02*
X127908D01*
X112000Y177750D02*
Y180250D01*
X112500Y177437D02*
Y180563D01*
X124000Y146750D02*
Y195500D01*
X123500Y146750D02*
Y195500D01*
X125500Y146750D02*
Y195500D01*
X125000Y146750D02*
Y195500D01*
X122000Y146750D02*
Y195500D01*
X121500Y146750D02*
Y195500D01*
X123000Y146750D02*
Y195500D01*
X122500Y146750D02*
Y195500D01*
X128000Y145922D02*
Y187250D01*
X127500Y146303D02*
Y195500D01*
X129000Y144864D02*
Y185938D01*
X128500Y145528D02*
Y186423D01*
X126500Y146704D02*
Y195500D01*
X126000Y146750D02*
Y195500D01*
X127000Y146561D02*
Y195500D01*
X116500Y146750D02*
Y195500D01*
X116000Y146750D02*
Y195500D01*
X117500Y146750D02*
Y195500D01*
X117000Y146750D02*
Y195500D01*
X115000Y146750D02*
Y195500D01*
X114500Y146750D02*
Y195500D01*
X115500Y146750D02*
Y195500D01*
X120000Y146750D02*
Y195500D01*
X119500Y146750D02*
Y195500D01*
X121000Y146750D02*
Y195500D01*
X120500Y146750D02*
Y195500D01*
X118500Y146750D02*
Y195500D01*
X118000Y146750D02*
Y195500D01*
X119000Y146750D02*
Y195500D01*
X110500Y188221D02*
Y195500D01*
X110000Y188250D02*
Y195500D01*
X111500Y187977D02*
Y195500D01*
X111000Y188131D02*
Y195500D01*
X102000Y191500D02*
X129750D01*
X102000Y191000D02*
X128923D01*
X109500Y188221D02*
Y195500D01*
X109000Y188131D02*
Y195500D01*
X102000Y189000D02*
X127789D01*
X102000Y188500D02*
X127750D01*
X111436Y188000D02*
X127789D01*
X102000D02*
X108564D01*
X102000Y190500D02*
X128438D01*
X102000Y190000D02*
X128117D01*
X102000Y189500D02*
X127908D01*
X108500Y187977D02*
Y195500D01*
X108000Y187750D02*
Y195500D01*
X107500Y187437D02*
Y195500D01*
X107000Y187010D02*
Y195500D01*
X106500Y186411D02*
Y195500D01*
X102000Y192500D02*
X106500Y195500D01*
X106000Y185436D02*
Y195167D01*
X102000Y186000D02*
X106250D01*
X102000Y185500D02*
X106024D01*
X102000Y185000D02*
X105869D01*
X102000Y184500D02*
X105780D01*
X102000Y187500D02*
X107589D01*
X102000Y187000D02*
X106990D01*
X102000Y186500D02*
X106563D01*
X111500Y177977D02*
Y180024D01*
X111000Y178131D02*
Y179869D01*
X108500Y177977D02*
Y180024D01*
X108000Y177750D02*
Y180250D01*
X102000Y180000D02*
X108564D01*
X102000Y180500D02*
X107589D01*
X110500Y178220D02*
Y179780D01*
X110000Y178250D02*
Y179750D01*
X109500Y178220D02*
Y179780D01*
X109000Y178131D02*
Y179869D01*
X102000Y178000D02*
X108564D01*
X102000Y177500D02*
X107589D01*
X102000Y183500D02*
X105780D01*
X102000Y184000D02*
X105750D01*
X106500Y176411D02*
Y181589D01*
X106000Y175436D02*
Y182564D01*
X102000Y182500D02*
X106024D01*
X102000Y183000D02*
X105869D01*
X102000Y182000D02*
X106250D01*
X102000Y181000D02*
X106990D01*
X102000Y181500D02*
X106563D01*
X107500Y177437D02*
Y180563D01*
X107000Y177010D02*
Y180990D01*
X102000Y177000D02*
X106990D01*
X102000Y176500D02*
X106563D01*
X102000Y176000D02*
X106250D01*
X113000Y167010D02*
Y170990D01*
X112500Y167437D02*
Y170563D01*
X114000Y165436D02*
Y172564D01*
X113500Y166411D02*
Y171589D01*
X111000Y168131D02*
Y169869D01*
X110500Y168220D02*
Y169780D01*
X112000Y167750D02*
Y170250D01*
X111500Y167976D02*
Y170024D01*
X112000Y157750D02*
Y160250D01*
X111500Y157976D02*
Y160023D01*
X113000Y157010D02*
Y160990D01*
X112500Y157437D02*
Y160563D01*
X110500Y158221D02*
Y159780D01*
X110000Y168250D02*
Y169750D01*
X111000Y158131D02*
Y159869D01*
X109000Y168131D02*
Y169869D01*
X108500Y167976D02*
Y170024D01*
X108000Y167750D02*
Y170250D01*
X107500Y167437D02*
Y170563D01*
X107000Y167010D02*
Y170990D01*
X106500Y166411D02*
Y171589D01*
X106000Y165436D02*
Y172564D01*
X110000Y158250D02*
Y159750D01*
X109500Y168220D02*
Y169780D01*
Y158221D02*
Y159780D01*
X109000Y158131D02*
Y159869D01*
X108500Y157976D02*
Y160023D01*
X108000Y157750D02*
Y160250D01*
X107500Y157437D02*
Y160563D01*
X114000Y155436D02*
Y162564D01*
X113500Y156411D02*
Y161589D01*
X114000Y146750D02*
Y152564D01*
X113500Y146750D02*
Y151589D01*
X113000Y147010D02*
Y150990D01*
X113240Y146750D02*
X125997D01*
X112500Y147437D02*
Y150563D01*
X111500Y147977D02*
Y150023D01*
X111000Y148131D02*
Y149869D01*
X112000Y147750D02*
Y150250D01*
X107000Y157010D02*
Y160990D01*
X106500Y156411D02*
Y161589D01*
X107000Y147010D02*
Y150990D01*
X106500Y146411D02*
Y151589D01*
X106000Y155436D02*
Y162564D01*
Y145436D02*
Y152564D01*
X110500Y148221D02*
Y149779D01*
X110000Y148250D02*
Y149750D01*
X109500Y148221D02*
Y149779D01*
X109000Y148131D02*
Y149869D01*
X108500Y147977D02*
Y150023D01*
X108000Y147750D02*
Y150250D01*
X107500Y147437D02*
Y150563D01*
X102000Y170000D02*
X108564D01*
X102000Y168000D02*
X108564D01*
X102000Y167500D02*
X107589D01*
X102000Y167000D02*
X106990D01*
X102000Y171500D02*
X106563D01*
X102000Y172000D02*
X106250D01*
X102000Y170500D02*
X107589D01*
X102000Y171000D02*
X106990D01*
X102000Y161000D02*
X106990D01*
X102000Y161500D02*
X106563D01*
X102000Y160000D02*
X108564D01*
X102000Y160500D02*
X107589D01*
X102000Y166500D02*
X106563D01*
X102000Y166000D02*
X106250D01*
X102000Y162000D02*
X106250D01*
X102000Y173500D02*
X105780D01*
X102000Y174000D02*
X105750D01*
X102000Y172500D02*
X106024D01*
X102000Y173000D02*
X105869D01*
X102000Y175500D02*
X106024D01*
X102000Y175000D02*
X105869D01*
X102000Y174500D02*
X105780D01*
X102000Y163500D02*
X105780D01*
X102000Y164000D02*
X105750D01*
X102000Y162500D02*
X106024D01*
X102000Y163000D02*
X105869D01*
X102000Y165500D02*
X106024D01*
X102000Y165000D02*
X105869D01*
X102000Y164500D02*
X105780D01*
X102000Y158000D02*
X108564D01*
X102000Y157500D02*
X107589D01*
X102000Y157000D02*
X106990D01*
X102000Y156500D02*
X106563D01*
X102000Y151500D02*
X106563D01*
X102000Y148000D02*
X108564D01*
X102000Y147500D02*
X107589D01*
X102000Y147000D02*
X106990D01*
X102000Y146500D02*
X106563D01*
X102000Y150500D02*
X107589D01*
X102000Y151000D02*
X106990D01*
X102000Y150000D02*
X108564D01*
X102000Y154500D02*
X105780D01*
X102000Y154000D02*
X105750D01*
X102000Y153000D02*
X105869D01*
X102000Y153500D02*
X105780D01*
X102000Y156000D02*
X106250D01*
X102000Y155500D02*
X106024D01*
X102000Y155000D02*
X105869D01*
X102000Y145500D02*
X106024D01*
X102000Y145000D02*
X105869D01*
X102000Y144500D02*
X105780D01*
X102000Y144000D02*
X105750D01*
X102000Y152000D02*
X106250D01*
X102000Y152500D02*
X106024D01*
X102000Y146000D02*
X106250D01*
X185500Y143911D02*
Y149089D01*
X185000Y142936D02*
Y150064D01*
X183131Y142500D02*
X184869D01*
X182750Y143500D02*
X185250D01*
X182500Y143911D02*
Y149089D01*
X182976Y143000D02*
X185023D01*
X183000Y142936D02*
Y150064D01*
X183250Y141500D02*
X184750D01*
X183221Y141000D02*
X184780D01*
X183221Y142000D02*
X184780D01*
X173000Y142936D02*
Y150064D01*
X172500Y143911D02*
Y149089D01*
X175000Y142936D02*
Y150064D01*
X165500Y143911D02*
Y149089D01*
X165000Y142936D02*
Y150064D01*
X173131Y142500D02*
X174869D01*
X173221Y142000D02*
X174779D01*
X173221Y141000D02*
X174779D01*
X173250Y141500D02*
X174750D01*
X172750Y143500D02*
X175250D01*
X172977Y143000D02*
X175023D01*
X184500Y102000D02*
Y195500D01*
X184000Y102000D02*
Y195500D01*
X183131Y140500D02*
X184869D01*
X183500Y102000D02*
Y195500D01*
X182976Y140000D02*
X185023D01*
X183000Y102000D02*
Y140064D01*
X185500Y102000D02*
Y139089D01*
X185000Y102000D02*
Y140064D01*
X182437Y139000D02*
X185563D01*
X182750Y139500D02*
X185250D01*
X182500Y102000D02*
Y139089D01*
X174000Y102000D02*
Y195500D01*
X173500Y102000D02*
Y195500D01*
X175000Y102000D02*
Y140064D01*
X174500Y102000D02*
Y195500D01*
X173131Y140500D02*
X174869D01*
X165000Y102000D02*
Y140064D01*
X172750Y139500D02*
X175250D01*
X172977Y140000D02*
X175023D01*
X175500Y102000D02*
Y139089D01*
X173000Y102000D02*
Y140064D01*
X172437Y139000D02*
X175563D01*
X172500Y102000D02*
Y139089D01*
X165500Y102000D02*
Y139089D01*
X164500Y102000D02*
Y195500D01*
X164000Y102000D02*
Y195500D01*
X129347Y143500D02*
X165250D01*
X129303Y143000D02*
X165024D01*
X129166Y142500D02*
X164869D01*
X163500Y102000D02*
Y195500D01*
X128921Y142000D02*
X164779D01*
X128528Y141500D02*
X164750D01*
X112411Y140500D02*
X164869D01*
X127866Y141000D02*
X164779D01*
X102000Y139500D02*
X165250D01*
X111436Y140000D02*
X165024D01*
X102000Y139000D02*
X165563D01*
X156000Y102000D02*
Y195500D01*
X155500Y102000D02*
Y195500D01*
X157000Y102000D02*
Y195500D01*
X156500Y102000D02*
Y195500D01*
X154500Y102000D02*
Y195500D01*
X154000Y102000D02*
Y195500D01*
X155000Y102000D02*
Y195500D01*
X162000Y102000D02*
Y195500D01*
X159000Y102000D02*
Y195500D01*
X163000Y102000D02*
Y195500D01*
X162500Y102000D02*
Y195500D01*
X158000Y102000D02*
Y195500D01*
X157500Y102000D02*
Y195500D01*
X158500Y102000D02*
Y195500D01*
X151500Y102000D02*
Y195500D01*
X151000Y102000D02*
Y195500D01*
X152500Y102000D02*
Y195500D01*
X152000Y102000D02*
Y195500D01*
X149500Y102000D02*
Y195500D01*
X149000Y102000D02*
Y195500D01*
X150500Y102000D02*
Y195500D01*
X150000Y102000D02*
Y195500D01*
X160500Y102000D02*
Y195500D01*
X160000Y102000D02*
Y195500D01*
X161500Y102000D02*
Y195500D01*
X161000Y102000D02*
Y195500D01*
X153500Y102000D02*
Y195500D01*
X153000Y102000D02*
Y195500D01*
X159500Y102000D02*
Y195500D01*
X144000Y102000D02*
Y195500D01*
X143500Y102000D02*
Y195500D01*
X145000Y102000D02*
Y195500D01*
X144500Y102000D02*
Y195500D01*
X142500Y102000D02*
Y195500D01*
X142000Y102000D02*
Y195500D01*
X143000Y102000D02*
Y195500D01*
X147500Y102000D02*
Y195500D01*
X147000Y102000D02*
Y195500D01*
X148500Y102000D02*
Y195500D01*
X148000Y102000D02*
Y195500D01*
X146000Y102000D02*
Y195500D01*
X145500Y102000D02*
Y195500D01*
X146500Y102000D02*
Y195500D01*
X130848Y111500D02*
X274478D01*
X130522Y112000D02*
X274152D01*
X131179Y110500D02*
X275834D01*
X131059Y111000D02*
X274973D01*
X114250Y118000D02*
X285750D01*
X114250Y115500D02*
X274478D01*
X114250Y115000D02*
X274152D01*
X130027Y112500D02*
X273941D01*
X131179Y109500D02*
X298500D01*
X131219Y110000D02*
X285750D01*
X130848Y108500D02*
X298500D01*
X131059Y109000D02*
X298500D01*
X130027Y107500D02*
X298500D01*
X130522Y108000D02*
X298500D01*
X129166Y107000D02*
X298500D01*
X181411Y138000D02*
X186589D01*
X182010Y138500D02*
X185990D01*
X181500Y102000D02*
Y138063D01*
X181000Y102000D02*
Y137750D01*
X171411Y138000D02*
X176589D01*
X172010Y138500D02*
X175990D01*
X180500Y102000D02*
Y137523D01*
X180436Y137500D02*
X187564D01*
X180000Y102000D02*
Y137369D01*
X179500Y102000D02*
Y137279D01*
X179000Y102000D02*
Y137250D01*
X114250Y134000D02*
X268150D01*
X170436Y137500D02*
X177564D01*
X129166Y113000D02*
X273821D01*
X186500Y102000D02*
Y138063D01*
X186000Y102000D02*
Y138490D01*
X187500Y102000D02*
Y137523D01*
X187000Y102000D02*
Y137750D01*
X177000Y102000D02*
Y137750D01*
X176500Y102000D02*
Y138063D01*
X182000Y102000D02*
Y138490D01*
X177500Y102000D02*
Y137523D01*
X189000Y102000D02*
Y137250D01*
X188500Y102000D02*
Y137279D01*
X190000Y102000D02*
Y137369D01*
X189500Y102000D02*
Y137279D01*
X178500Y102000D02*
Y137279D01*
X178000Y102000D02*
Y137369D01*
X188000Y102000D02*
Y137369D01*
X171500Y102000D02*
Y138063D01*
X171000Y102000D02*
Y137750D01*
X176000Y102000D02*
Y138490D01*
X172000Y102000D02*
Y138490D01*
X166500Y102000D02*
Y138063D01*
X166000Y102000D02*
Y138490D01*
X167000Y102000D02*
Y137750D01*
X169500Y102000D02*
Y137279D01*
X169000Y102000D02*
Y137250D01*
X170500Y102000D02*
Y137523D01*
X170000Y102000D02*
Y137369D01*
X168000Y102000D02*
Y137369D01*
X167500Y102000D02*
Y137523D01*
X168500Y102000D02*
Y137279D01*
X113010Y131000D02*
X286990D01*
X113010Y137000D02*
X286990D01*
X111436Y128000D02*
X288564D01*
X112411Y130500D02*
X287589D01*
X102000Y129500D02*
X298500D01*
X111436Y130000D02*
X288564D01*
X102000Y128500D02*
X298500D01*
X102000Y129000D02*
X298500D01*
X113750Y126000D02*
X286250D01*
X113977Y125500D02*
X286024D01*
X114131Y125000D02*
X285869D01*
X114220Y124500D02*
X285780D01*
X112411Y127500D02*
X287589D01*
X113010Y127000D02*
X286990D01*
X113437Y126500D02*
X286563D01*
X113437Y136500D02*
X269632D01*
X113750Y136000D02*
X268970D01*
X113977Y135500D02*
X268577D01*
X114131Y135000D02*
X268331D01*
X111436Y138000D02*
X166589D01*
X102000Y138500D02*
X165990D01*
X112411Y137500D02*
X167564D01*
X114220Y133500D02*
X268194D01*
X114220Y134500D02*
X268194D01*
X114250Y124000D02*
X285750D01*
X114131Y133000D02*
X268331D01*
X113750Y132000D02*
X268970D01*
X113977Y132500D02*
X268577D01*
X113437Y131500D02*
X269632D01*
X102000Y119500D02*
X298500D01*
X111436Y120000D02*
X288564D01*
X102000Y118500D02*
X298500D01*
X102000Y119000D02*
X298500D01*
X102000Y106000D02*
X298500D01*
X102000Y106500D02*
X298500D01*
X102000Y105500D02*
X298500D01*
X103500Y103500D02*
X296500D01*
X104000Y103000D02*
X295833D01*
X104500Y102500D02*
X295167D01*
X105000Y102000D02*
X294500D01*
X102000Y105000D02*
X298500D01*
X102500Y104500D02*
X297833D01*
X103000Y104000D02*
X297167D01*
X114131Y123000D02*
X285869D01*
X114220Y123500D02*
X285780D01*
X113750Y122000D02*
X286250D01*
X113977Y122500D02*
X286024D01*
X113010Y121000D02*
X286990D01*
X113437Y121500D02*
X286563D01*
X112411Y120500D02*
X287589D01*
X114250Y116000D02*
X274973D01*
X114250Y114500D02*
X273941D01*
X114250Y114000D02*
X273821D01*
X114250Y113500D02*
X273781D01*
X114250Y117000D02*
X285750D01*
X114250Y117500D02*
X285750D01*
X114250Y116500D02*
X275834D01*
X136500Y102000D02*
Y195500D01*
X136000Y102000D02*
Y195500D01*
X140000Y102000D02*
Y195500D01*
X139500Y102000D02*
Y195500D01*
X134500Y102000D02*
Y195500D01*
X134000Y102000D02*
Y187250D01*
X135500Y102000D02*
Y195500D01*
X135000Y102000D02*
Y195500D01*
X132500Y102000D02*
Y185617D01*
X132000Y102000D02*
Y185408D01*
X133500Y102000D02*
Y186423D01*
X133000Y102000D02*
Y185938D01*
X131000Y111166D02*
Y185250D01*
X130500Y112027D02*
Y185289D01*
X131500Y102000D02*
Y185289D01*
X129000Y113059D02*
Y142136D01*
X128500Y113179D02*
Y141472D01*
X130000Y112522D02*
Y185408D01*
X129500Y112848D02*
Y185617D01*
X114000Y135436D02*
Y141250D01*
X128000Y113218D02*
Y141078D01*
X127500Y113179D02*
Y140832D01*
X127000Y113059D02*
Y140695D01*
X126500Y112848D02*
Y140650D01*
X126000Y112522D02*
Y140694D01*
X125500Y112027D02*
Y140830D01*
X125000Y111166D02*
Y141075D01*
X140500Y102000D02*
Y195500D01*
X139000Y102000D02*
Y195500D01*
X141500Y102000D02*
Y195500D01*
X141000Y102000D02*
Y195500D01*
X137500Y102000D02*
Y195500D01*
X137000Y102000D02*
Y195500D01*
X138500Y102000D02*
Y195500D01*
X138000Y102000D02*
Y195500D01*
X123500Y102000D02*
Y141250D01*
X123000Y102000D02*
Y141250D01*
X124500Y102000D02*
Y141250D01*
X124000Y102000D02*
Y141250D01*
X122000Y102000D02*
Y141250D01*
X121500Y102000D02*
Y141250D01*
X122500Y102000D02*
Y141250D01*
X116500Y102000D02*
Y141250D01*
X116000Y102000D02*
Y141250D01*
X117500Y102000D02*
Y141250D01*
X117000Y102000D02*
Y141250D01*
X115000Y102000D02*
Y141250D01*
X114500Y102000D02*
Y141250D01*
X115500Y102000D02*
Y141250D01*
X120000Y102000D02*
Y141250D01*
X119500Y102000D02*
Y141250D01*
X121000Y102000D02*
Y141250D01*
X120500Y102000D02*
Y141250D01*
X118500Y102000D02*
Y141250D01*
X118000Y102000D02*
Y141250D01*
X119000Y102000D02*
Y141250D01*
X113010Y141000D02*
X125129D01*
X113240Y141250D02*
X124748D01*
X113500Y136411D02*
Y141250D01*
X113000Y137010D02*
Y140990D01*
X111500Y137977D02*
Y140024D01*
X112500Y137437D02*
Y140563D01*
X112000Y137750D02*
Y140250D01*
X110500Y138221D02*
Y139779D01*
X110000Y138250D02*
Y139750D01*
X111000Y138131D02*
Y139869D01*
X109500Y138221D02*
Y139779D01*
X109000Y138131D02*
Y139869D01*
X102000Y140000D02*
X108564D01*
X102000Y138000D02*
X108564D01*
X102000Y141500D02*
X106563D01*
X102000Y142000D02*
X106250D01*
X107000Y137010D02*
Y140990D01*
X102000Y141000D02*
X106990D01*
X102000Y143000D02*
X105869D01*
X102000Y143500D02*
X105780D01*
X102000Y142500D02*
X106024D01*
X108500Y137977D02*
Y140024D01*
X102000Y140500D02*
X107589D01*
X108000Y137750D02*
Y140250D01*
X107500Y137437D02*
Y140563D01*
X102000Y137500D02*
X107589D01*
X102000Y137000D02*
X106990D01*
X102000Y136500D02*
X106563D01*
X106500Y136411D02*
Y141589D01*
X106000Y135436D02*
Y142564D01*
X114000Y125436D02*
Y132564D01*
X106000Y125436D02*
Y132564D01*
X102000Y136000D02*
X106250D01*
X102000Y135500D02*
X106024D01*
X107000Y127010D02*
Y130990D01*
X102000Y132000D02*
X106250D01*
X113500Y126411D02*
Y131589D01*
X106500Y126411D02*
Y131589D01*
X102000Y131500D02*
X106563D01*
X102000Y132500D02*
X106024D01*
X102000Y131000D02*
X106990D01*
X104500Y102500D02*
Y194167D01*
X104000Y103000D02*
Y193833D01*
X105500Y102000D02*
Y194833D01*
X105000Y102000D02*
Y194500D01*
X103000Y104000D02*
Y193167D01*
X102500Y104500D02*
Y192833D01*
X103500Y103500D02*
Y193500D01*
X102000Y134500D02*
X105780D01*
X102000Y134000D02*
X105750D01*
X102000Y133000D02*
X105869D01*
X102000Y133500D02*
X105780D01*
X102000Y135000D02*
X105869D01*
X102000Y105000D02*
Y192500D01*
Y105000D02*
Y192500D01*
X114000Y118250D02*
Y122564D01*
X113000Y127010D02*
Y130990D01*
X113500Y118250D02*
Y121589D01*
X113000Y118250D02*
Y120990D01*
X112500Y127437D02*
Y130563D01*
X112000Y127750D02*
Y130250D01*
X112500Y118250D02*
Y120563D01*
X112000Y118250D02*
Y120250D01*
X114250Y112000D02*
X125478D01*
X114250Y111500D02*
X125152D01*
X114250Y111000D02*
X124941D01*
X114250Y110500D02*
X124821D01*
X114250Y113000D02*
X126834D01*
X111500Y118250D02*
Y120024D01*
X114250Y112500D02*
X125973D01*
X110500Y128220D02*
Y129780D01*
X110000Y128250D02*
Y129750D01*
X111500Y127977D02*
Y130024D01*
X111000Y128131D02*
Y129869D01*
X109500Y128220D02*
Y129780D01*
X109000Y128131D02*
Y129869D01*
X108500Y127977D02*
Y130024D01*
X110000Y118250D02*
Y119750D01*
X109500Y118250D02*
Y119780D01*
X111000Y118250D02*
Y119869D01*
X110500Y118250D02*
Y119780D01*
X108500Y118250D02*
Y120024D01*
X108000Y118250D02*
Y120250D01*
X109000Y118250D02*
Y119869D01*
X130000Y102000D02*
Y107478D01*
X126000Y102000D02*
Y107478D01*
X131000Y102000D02*
Y108834D01*
X130500Y102000D02*
Y107973D01*
X114250Y110000D02*
X124782D01*
X125500Y102000D02*
Y107973D01*
X125000Y102000D02*
Y108834D01*
X128500Y102000D02*
Y106821D01*
X128000Y102000D02*
Y106781D01*
X129500Y102000D02*
Y107152D01*
X129000Y102000D02*
Y106941D01*
X127000Y102000D02*
Y106941D01*
X126500Y102000D02*
Y107152D01*
X127500Y102000D02*
Y106821D01*
X114250Y109750D02*
Y118250D01*
X114000Y102000D02*
Y109750D01*
X113500Y102000D02*
Y109750D01*
X113000Y102000D02*
Y109750D01*
X112000Y102000D02*
Y109750D01*
X111500Y102000D02*
Y109750D01*
X112500Y102000D02*
Y109750D01*
X110000Y102000D02*
Y109750D01*
X109500Y102000D02*
Y109750D01*
X111000Y102000D02*
Y109750D01*
X110500Y102000D02*
Y109750D01*
X108500Y102000D02*
Y109750D01*
X108000Y102000D02*
Y109750D01*
X109000Y102000D02*
Y109750D01*
X108000Y127750D02*
Y130250D01*
X102000Y130500D02*
X107589D01*
X107500Y127437D02*
Y130563D01*
X102000Y130000D02*
X108564D01*
X102000Y128000D02*
X108564D01*
X102000Y127500D02*
X107589D01*
X102000Y127000D02*
X106990D01*
X105750Y118250D02*
X114250D01*
X102000Y121000D02*
X106990D01*
X107500Y118250D02*
Y120563D01*
X107000Y118250D02*
Y120990D01*
X102000Y120500D02*
X107589D01*
X102000Y121500D02*
X106563D01*
X102000Y120000D02*
X108564D01*
X102000Y125000D02*
X105869D01*
X102000Y124500D02*
X105780D01*
X102000Y123500D02*
X105780D01*
X102000Y124000D02*
X105750D01*
X102000Y126500D02*
X106563D01*
X102000Y126000D02*
X106250D01*
X102000Y125500D02*
X106024D01*
X102000Y122500D02*
X106024D01*
X102000Y123000D02*
X105869D01*
X106500Y118250D02*
Y121589D01*
X106000Y118250D02*
Y122564D01*
X102000Y122000D02*
X106250D01*
X102000Y118000D02*
X105750D01*
X102000Y117500D02*
X105750D01*
Y109750D02*
X114250D01*
X106000Y102000D02*
Y109750D01*
X107500Y102000D02*
Y109750D01*
X107000Y102000D02*
Y109750D01*
X102000Y114500D02*
X105750D01*
X102000Y115000D02*
X105750D01*
X102000Y113500D02*
X105750D01*
X102000Y109000D02*
X124941D01*
X102000Y109500D02*
X124821D01*
X102000Y108500D02*
X125152D01*
X106500Y102000D02*
Y109750D01*
X102000Y107500D02*
X125973D01*
X102000Y108000D02*
X125478D01*
X102000Y107000D02*
X126834D01*
X102000Y116500D02*
X105750D01*
X102000Y117000D02*
X105750D01*
Y109750D02*
Y118250D01*
X102000Y116000D02*
X105750D01*
X102000Y114000D02*
X105750D01*
X102000Y115500D02*
X105750D01*
X102000Y113000D02*
X105750D01*
X102000Y110500D02*
X105750D01*
X102000Y111000D02*
X105750D01*
X102000Y110000D02*
X105750D01*
X102000Y105000D02*
X105000Y102000D01*
X102000Y112000D02*
X105750D01*
X102000Y112500D02*
X105750D01*
X102000Y111500D02*
X105750D01*
D16*
X290000Y144000D02*
Y148000D01*
Y144000D02*
X294000D01*
X290000Y140000D02*
Y144000D01*
X286000D02*
X290000D01*
Y120000D02*
Y124000D01*
Y128000D01*
Y124000D02*
X294000D01*
X286000D02*
X290000D01*
X271500Y144000D02*
X274100D01*
X271500D02*
Y146600D01*
Y141400D02*
Y144000D01*
X268900D02*
X271500D01*
X110000Y154000D02*
X114000D01*
X110000Y150000D02*
Y154000D01*
Y158000D01*
X106000Y154000D02*
X110000D01*
X189000Y141500D02*
Y145500D01*
Y141500D02*
X193000D01*
X185000D02*
X189000D01*
X179000D02*
X183000D01*
X175000D02*
X179000D01*
Y145500D01*
X169000Y141500D02*
Y145500D01*
Y141500D02*
X173000D01*
X189000Y137500D02*
Y141500D01*
X179000Y137500D02*
Y141500D01*
X169000Y137500D02*
Y141500D01*
X165000D02*
X169000D01*
D17*
X271000Y144000D02*
X290000D01*
X271000Y134000D02*
X271000Y134000D01*
D18*
X290000Y184000D02*
X290000Y184000D01*
D19*
Y114000D02*
D03*
X110000D02*
D03*
D20*
X290000Y124000D02*
D03*
Y134000D02*
D03*
Y144000D02*
D03*
Y154000D02*
D03*
Y164000D02*
D03*
Y174000D02*
D03*
Y184000D02*
D03*
X110000Y124000D02*
D03*
Y134000D02*
D03*
Y144000D02*
D03*
Y154000D02*
D03*
Y164000D02*
D03*
Y174000D02*
D03*
Y184000D02*
D03*
X189000Y151500D02*
D03*
Y141500D02*
D03*
X179000Y151500D02*
D03*
Y141500D02*
D03*
X169000Y151500D02*
D03*
Y141500D02*
D03*
D21*
X128000Y110000D02*
D03*
X277000Y113500D02*
D03*
D22*
X131000Y188500D02*
D03*
D23*
X281000Y141500D02*
D03*
Y170000D02*
D03*
Y159500D02*
D03*
X262500Y178500D02*
D03*
X262000Y159000D02*
D03*
Y138000D02*
D03*
X255000Y143000D02*
D03*
Y153000D02*
D03*
X256500Y121500D02*
D03*
Y126000D02*
D03*
X250000Y121500D02*
D03*
Y127250D02*
D03*
Y133000D02*
D03*
X245500Y137500D02*
D03*
Y148000D02*
D03*
Y158500D02*
D03*
X281000Y120714D02*
D03*
X268500Y113000D02*
D03*
X233500Y168000D02*
D03*
X241000D02*
D03*
X136625Y117000D02*
D03*
X120500D02*
D03*
X240000Y195000D02*
D03*
X225250D02*
D03*
X210500D02*
D03*
X240000Y186500D02*
D03*
X246500Y168000D02*
D03*
X227000Y168500D02*
D03*
X110000Y195000D02*
D03*
X124833D02*
D03*
X139667D02*
D03*
X154500D02*
D03*
X168500D02*
D03*
X182500D02*
D03*
X196500D02*
D03*
X256000D02*
D03*
X272000D02*
D03*
X288000D02*
D03*
X297000Y185000D02*
D03*
Y174286D02*
D03*
Y163571D02*
D03*
Y152857D02*
D03*
Y120714D02*
D03*
Y110000D02*
D03*
X290000Y105000D02*
D03*
X275000D02*
D03*
X260000D02*
D03*
X245000D02*
D03*
X230000D02*
D03*
X215000D02*
D03*
X200000D02*
D03*
X102500Y185000D02*
D03*
Y171800D02*
D03*
Y158600D02*
D03*
Y145400D02*
D03*
Y132200D02*
D03*
Y119000D02*
D03*
X104000Y105000D02*
D03*
X120200D02*
D03*
X136400D02*
D03*
X152500Y103500D02*
D03*
X168800Y105000D02*
D03*
X185000D02*
D03*
X168800Y111000D02*
D03*
X168875Y117000D02*
D03*
X185000D02*
D03*
Y111000D02*
D03*
X297000Y142143D02*
D03*
X120500Y111000D02*
D03*
X136500D02*
D03*
X124833Y186000D02*
D03*
Y175000D02*
D03*
Y164500D02*
D03*
X139667Y186000D02*
D03*
X184000D02*
D03*
X146500Y172500D02*
D03*
X145000Y161000D02*
D03*
X146500Y149000D02*
D03*
X133500Y161000D02*
D03*
Y149000D02*
D03*
X136500Y136500D02*
D03*
X124500Y151500D02*
D03*
X119000Y138500D02*
D03*
X120500Y129000D02*
D03*
X174000Y172500D02*
D03*
X184167D02*
D03*
X174000Y161000D02*
D03*
X184167D02*
D03*
X192000D02*
D03*
D24*
X271500Y144000D02*
D03*
X271000Y134000D02*
D03*
Y184000D02*
D03*
Y173500D02*
D03*
X126497Y143500D02*
D03*
D25*
X289500Y173500D02*
X290000Y174000D01*
X252000Y173500D02*
X271000D01*
X246500Y168000D02*
X252000Y173500D01*
X227000Y168500D02*
X242500Y184000D01*
X271000D01*
D26*
Y173500D02*
X289500D01*
X271000Y184000D02*
X290000D01*
X271000Y134000D02*
X290000D01*
X110000Y144000D02*
X125997D01*
X126497Y143500D01*
M02*
