%FSLAX25Y25*%
%MOIN*%
G70*
G01*
G75*
G04 Layer_Physical_Order=1*
G04 Layer_Color=255*
%ADD10R,0.03500X0.03200*%
%ADD11R,0.03200X0.03000*%
%ADD12R,0.04500X0.05000*%
%ADD13R,0.05000X0.04500*%
%ADD14R,0.03200X0.03500*%
%ADD15R,0.03000X0.03200*%
%ADD16C,0.03200*%
%ADD17R,0.08200X0.11000*%
%ADD18R,0.07000X0.02500*%
%ADD19C,0.01000*%
%ADD20R,0.04000X0.02000*%
%ADD21R,0.08000X0.05500*%
%ADD22R,0.05000X0.04000*%
%ADD23R,0.04500X0.06000*%
%ADD24R,0.07000X0.05000*%
%ADD25R,0.06000X0.06000*%
%ADD26R,0.08500X0.01200*%
%ADD27R,0.08000X0.10000*%
%ADD28R,0.09000X0.03000*%
%ADD29R,0.03000X0.09000*%
%ADD30R,0.04000X0.04000*%
%ADD31R,0.13000X0.04000*%
%ADD32C,0.04000*%
%ADD33R,0.08000X0.13000*%
%ADD34R,0.04000X0.11000*%
%ADD35R,0.01600X0.07000*%
%ADD36R,0.06000X0.01000*%
%ADD37R,0.01000X0.06000*%
%ADD38C,0.02000*%
%ADD39C,0.01500*%
%ADD40C,0.00600*%
%ADD41C,0.03000*%
%ADD42C,0.02500*%
%ADD43C,0.01000*%
%ADD44C,0.01200*%
%ADD45C,0.02400*%
%ADD46C,0.03500*%
%ADD47C,0.13000*%
%ADD48R,0.05500X0.05500*%
%ADD49C,0.05500*%
%ADD50C,0.06000*%
%ADD51R,0.07000X0.07000*%
%ADD52C,0.07000*%
%ADD53O,0.03000X0.06000*%
%ADD54C,0.02400*%
%ADD55C,0.03937*%
G36*
X564409Y391886D02*
X554173D01*
Y414720D01*
X527205D01*
Y297634D01*
X535866D01*
Y382201D01*
X544921D01*
Y367791D01*
X561142D01*
Y283303D01*
X587028D01*
X589500Y280831D01*
X598500D01*
X599000Y280331D01*
Y275331D01*
X598500Y274831D01*
X589500D01*
X587028Y272358D01*
X544252D01*
Y266453D01*
X595000D01*
Y257988D01*
X520827D01*
Y426413D01*
X564409D01*
Y391886D01*
D02*
G37*
G36*
X1011480Y478279D02*
Y238779D01*
X1006980Y234279D01*
X872219D01*
X872000Y234689D01*
X872000Y234780D01*
Y239939D01*
X862000D01*
Y234780D01*
X862000Y234689D01*
X861782Y234279D01*
X847219D01*
X847000Y234689D01*
X847000Y234780D01*
Y239939D01*
X837000D01*
Y234780D01*
X837000Y234689D01*
X836782Y234279D01*
X822219D01*
X822000Y234689D01*
X822000Y234780D01*
Y239939D01*
X812000D01*
Y234780D01*
X812000Y234689D01*
X811782Y234279D01*
X797219D01*
X797000Y234689D01*
X797000Y234780D01*
Y239939D01*
X787000D01*
Y234780D01*
X787000Y234689D01*
X786782Y234279D01*
X772219D01*
X772000Y234689D01*
X772000Y234780D01*
Y239939D01*
X762000D01*
Y234780D01*
X762000Y234689D01*
X761782Y234279D01*
X747219D01*
X747000Y234689D01*
X747000Y234780D01*
Y239939D01*
X737000D01*
Y234780D01*
X737000Y234689D01*
X736782Y234279D01*
X590980D01*
Y238185D01*
X520827D01*
Y251768D01*
X590980D01*
Y256969D01*
X595000D01*
X595390Y257046D01*
X595721Y257267D01*
X595942Y257598D01*
X596020Y257988D01*
Y266453D01*
X595942Y266843D01*
X595721Y267174D01*
X595390Y267395D01*
X595000Y267472D01*
X590980D01*
Y269081D01*
X591750D01*
Y271831D01*
X592500D01*
Y272581D01*
X595100D01*
Y273500D01*
X604900D01*
Y272581D01*
X610100D01*
Y273811D01*
X613500D01*
X613890Y273889D01*
X614221Y274110D01*
X615100Y274989D01*
X615500Y275231D01*
X617091D01*
X617282Y275151D01*
X618000Y275057D01*
X619043D01*
Y274250D01*
X630043D01*
Y275356D01*
X630218Y275429D01*
X630792Y275869D01*
X631233Y276444D01*
X631510Y277113D01*
X631604Y277831D01*
X631510Y278549D01*
X631233Y279218D01*
X630792Y279792D01*
X630218Y280233D01*
X630043Y280305D01*
Y281411D01*
X619043D01*
Y280604D01*
X618000D01*
X617282Y280510D01*
X617091Y280431D01*
X615500D01*
X615100Y280673D01*
X614221Y281552D01*
X613890Y281773D01*
X613500Y281850D01*
X605000D01*
Y282000D01*
X595000D01*
Y281850D01*
X590980D01*
Y482780D01*
X1006980D01*
X1011480Y478279D01*
D02*
G37*
G36*
X614500Y279831D02*
Y275831D01*
X613500Y274831D01*
X601500D01*
X601000Y275331D01*
Y280331D01*
X601500Y280831D01*
X613500D01*
X614500Y279831D01*
D02*
G37*
%LPC*%
G36*
X697425Y294404D02*
X695175D01*
Y292154D01*
X697425D01*
Y294404D01*
D02*
G37*
G36*
X650575D02*
X648325D01*
Y292154D01*
X650575D01*
Y294404D01*
D02*
G37*
G36*
X693675D02*
X691425D01*
Y292154D01*
X693675D01*
Y294404D01*
D02*
G37*
G36*
X643882Y298153D02*
X641632D01*
Y295903D01*
X643882D01*
Y298153D01*
D02*
G37*
G36*
X646825D02*
X644575D01*
Y295903D01*
X646825D01*
Y298153D01*
D02*
G37*
G36*
X650575D02*
X648325D01*
Y295903D01*
X650575D01*
Y298153D01*
D02*
G37*
G36*
X700368Y294404D02*
X698118D01*
Y292154D01*
X700368D01*
Y294404D01*
D02*
G37*
G36*
X704118D02*
X701868D01*
Y292154D01*
X704118D01*
Y294404D01*
D02*
G37*
G36*
X640132Y298153D02*
X637882D01*
Y295903D01*
X640132D01*
Y298153D01*
D02*
G37*
G36*
X650575Y291461D02*
X648325D01*
Y289211D01*
X650575D01*
Y291461D01*
D02*
G37*
G36*
X693675D02*
X691425D01*
Y289211D01*
X693675D01*
Y291461D01*
D02*
G37*
G36*
X646825D02*
X644575D01*
Y289211D01*
X646825D01*
Y291461D01*
D02*
G37*
G36*
X640132D02*
X637882D01*
Y289211D01*
X640132D01*
Y291461D01*
D02*
G37*
G36*
X643882D02*
X641632D01*
Y289211D01*
X643882D01*
Y291461D01*
D02*
G37*
G36*
X697425D02*
X695175D01*
Y289211D01*
X697425D01*
Y291461D01*
D02*
G37*
G36*
X643882Y294404D02*
X641632D01*
Y292154D01*
X643882D01*
Y294404D01*
D02*
G37*
G36*
X646825D02*
X644575D01*
Y292154D01*
X646825D01*
Y294404D01*
D02*
G37*
G36*
X640132D02*
X637882D01*
Y292154D01*
X640132D01*
Y294404D01*
D02*
G37*
G36*
X700368Y291461D02*
X698118D01*
Y289211D01*
X700368D01*
Y291461D01*
D02*
G37*
G36*
X704118D02*
X701868D01*
Y289211D01*
X704118D01*
Y291461D01*
D02*
G37*
G36*
X693675Y298153D02*
X691425D01*
Y295903D01*
X693675D01*
Y298153D01*
D02*
G37*
G36*
X646825Y304847D02*
X644575D01*
Y302596D01*
X646825D01*
Y304847D01*
D02*
G37*
G36*
X650575D02*
X648325D01*
Y302596D01*
X650575D01*
Y304847D01*
D02*
G37*
G36*
X643882D02*
X641632D01*
Y302596D01*
X643882D01*
Y304847D01*
D02*
G37*
G36*
X704118Y301097D02*
X701868D01*
Y298847D01*
X704118D01*
Y301097D01*
D02*
G37*
G36*
X640132Y304847D02*
X637882D01*
Y302596D01*
X640132D01*
Y304847D01*
D02*
G37*
G36*
X693675D02*
X691425D01*
Y302596D01*
X693675D01*
Y304847D01*
D02*
G37*
G36*
X603900Y306750D02*
X601150D01*
Y304250D01*
X603900D01*
Y306750D01*
D02*
G37*
G36*
X606250Y307250D02*
X604400D01*
Y305250D01*
X606250D01*
Y307250D01*
D02*
G37*
G36*
X704118Y304847D02*
X701868D01*
Y302596D01*
X704118D01*
Y304847D01*
D02*
G37*
G36*
X697425D02*
X695175D01*
Y302596D01*
X697425D01*
Y304847D01*
D02*
G37*
G36*
X700368D02*
X698118D01*
Y302596D01*
X700368D01*
Y304847D01*
D02*
G37*
G36*
Y301097D02*
X698118D01*
Y298847D01*
X700368D01*
Y301097D01*
D02*
G37*
G36*
X630043Y304246D02*
X619043D01*
Y303500D01*
X618500D01*
Y298000D01*
X630500D01*
Y303500D01*
X630043D01*
Y304246D01*
D02*
G37*
G36*
X723500Y325000D02*
X711500D01*
Y298000D01*
X723500D01*
Y325000D01*
D02*
G37*
G36*
X704118Y298153D02*
X701868D01*
Y295903D01*
X704118D01*
Y298153D01*
D02*
G37*
G36*
X697425D02*
X695175D01*
Y295903D01*
X697425D01*
Y298153D01*
D02*
G37*
G36*
X700368D02*
X698118D01*
Y295903D01*
X700368D01*
Y298153D01*
D02*
G37*
G36*
X640132Y301097D02*
X637882D01*
Y298847D01*
X640132D01*
Y301097D01*
D02*
G37*
G36*
X693675D02*
X691425D01*
Y298847D01*
X693675D01*
Y301097D01*
D02*
G37*
G36*
X697425D02*
X695175D01*
Y298847D01*
X697425D01*
Y301097D01*
D02*
G37*
G36*
X650575D02*
X648325D01*
Y298847D01*
X650575D01*
Y301097D01*
D02*
G37*
G36*
X643882D02*
X641632D01*
Y298847D01*
X643882D01*
Y301097D01*
D02*
G37*
G36*
X646825D02*
X644575D01*
Y298847D01*
X646825D01*
Y301097D01*
D02*
G37*
G36*
X630500Y293500D02*
X618500D01*
Y288000D01*
X619043D01*
Y287242D01*
X630043D01*
Y288000D01*
X630500D01*
Y293500D01*
D02*
G37*
G36*
X841250Y246689D02*
X837000D01*
Y241439D01*
X841250D01*
Y246689D01*
D02*
G37*
G36*
X847000D02*
X842750D01*
Y241439D01*
X847000D01*
Y246689D01*
D02*
G37*
G36*
X822000D02*
X817750D01*
Y241439D01*
X822000D01*
Y246689D01*
D02*
G37*
G36*
X797000D02*
X792750D01*
Y241439D01*
X797000D01*
Y246689D01*
D02*
G37*
G36*
X816250D02*
X812000D01*
Y241439D01*
X816250D01*
Y246689D01*
D02*
G37*
G36*
X945500Y257035D02*
X944456Y256897D01*
X943483Y256494D01*
X942647Y255853D01*
X942006Y255017D01*
X941603Y254044D01*
X941465Y253000D01*
X941603Y251956D01*
X942006Y250983D01*
X942647Y250147D01*
X943483Y249506D01*
X944456Y249103D01*
X945500Y248965D01*
X946544Y249103D01*
X947517Y249506D01*
X948353Y250147D01*
X948994Y250983D01*
X949397Y251956D01*
X949535Y253000D01*
X949397Y254044D01*
X948994Y255017D01*
X948353Y255853D01*
X947517Y256494D01*
X946544Y256897D01*
X945500Y257035D01*
D02*
G37*
G36*
X747500Y271000D02*
X736000D01*
Y265661D01*
X735999Y265639D01*
X735999Y265636D01*
X735661D01*
X735154Y265536D01*
X734724Y265248D01*
X730975Y261500D01*
X726500D01*
Y259350D01*
X726499Y259328D01*
X726499Y259326D01*
X725728D01*
X725358Y259572D01*
X724500Y259743D01*
X723642Y259572D01*
X722914Y259086D01*
X722428Y258358D01*
X722257Y257500D01*
X722428Y256642D01*
X722914Y255914D01*
X723642Y255428D01*
X724500Y255257D01*
X725358Y255428D01*
X725936Y255814D01*
X726143Y255787D01*
X726193Y255775D01*
X726367Y255709D01*
X726484Y255624D01*
X726492Y255587D01*
X726498Y255543D01*
X726500Y255500D01*
Y253500D01*
X726900D01*
Y252750D01*
X732100D01*
Y253500D01*
X732500D01*
Y257250D01*
X732501Y257272D01*
X732504Y257293D01*
X732509Y257315D01*
X732515Y257335D01*
X732523Y257356D01*
X732534Y257375D01*
X732545Y257393D01*
X732558Y257411D01*
X732573Y257427D01*
X732589Y257441D01*
X732607Y257455D01*
X732625Y257467D01*
X732644Y257477D01*
X732664Y257485D01*
X732685Y257491D01*
X732707Y257496D01*
X732728Y257499D01*
X732750Y257500D01*
X747500D01*
Y271000D01*
D02*
G37*
G36*
X1001200Y267694D02*
X1000425Y267592D01*
X999703Y267293D01*
X999083Y266817D01*
X998607Y266197D01*
X998308Y265475D01*
X998206Y264700D01*
X998308Y263925D01*
X998607Y263203D01*
X999083Y262583D01*
X999703Y262107D01*
X1000425Y261808D01*
X1001200Y261706D01*
X1001975Y261808D01*
X1002697Y262107D01*
X1003317Y262583D01*
X1003793Y263203D01*
X1004092Y263925D01*
X1004194Y264700D01*
X1004092Y265475D01*
X1003793Y266197D01*
X1003317Y266817D01*
X1002697Y267293D01*
X1001975Y267592D01*
X1001200Y267694D01*
D02*
G37*
G36*
X640000Y265000D02*
X634500D01*
Y253500D01*
X640000D01*
Y253630D01*
X640722D01*
Y259130D01*
Y264630D01*
X640000D01*
Y265000D01*
D02*
G37*
G36*
X732100Y251250D02*
X730250D01*
Y249250D01*
X732100D01*
Y251250D01*
D02*
G37*
G36*
X707500Y265000D02*
X676000D01*
Y264630D01*
X675980D01*
Y253630D01*
X676000D01*
Y253500D01*
X696979D01*
X697258Y253251D01*
X697370Y253067D01*
X697257Y252500D01*
X697428Y251642D01*
X697914Y250914D01*
X698642Y250428D01*
X699500Y250257D01*
X700358Y250428D01*
X701086Y250914D01*
X701572Y251642D01*
X701743Y252500D01*
X701628Y253077D01*
X701744Y253252D01*
X702021Y253500D01*
X707500D01*
Y265000D01*
D02*
G37*
G36*
X674500D02*
X643000D01*
Y264630D01*
X642222D01*
Y259130D01*
Y253630D01*
X643000D01*
Y250500D01*
X640000Y247500D01*
X637500D01*
Y238000D01*
X657000D01*
Y253250D01*
X657001Y253272D01*
X657004Y253293D01*
X657009Y253315D01*
X657015Y253335D01*
X657023Y253356D01*
X657033Y253375D01*
X657045Y253393D01*
X657058Y253411D01*
X657073Y253427D01*
X657089Y253442D01*
X657107Y253455D01*
X657125Y253467D01*
X657144Y253477D01*
X657164Y253485D01*
X657185Y253491D01*
X657207Y253496D01*
X657228Y253499D01*
X657250Y253500D01*
X674500D01*
Y265000D01*
D02*
G37*
G36*
X662000Y246283D02*
X661021Y246154D01*
X660109Y245776D01*
X659325Y245175D01*
X658724Y244391D01*
X658346Y243479D01*
X658217Y242500D01*
X658346Y241521D01*
X658724Y240609D01*
X659325Y239825D01*
X660109Y239224D01*
X661021Y238846D01*
X662000Y238717D01*
X662979Y238846D01*
X663891Y239224D01*
X664675Y239825D01*
X665276Y240609D01*
X665654Y241521D01*
X665783Y242500D01*
X665654Y243479D01*
X665276Y244391D01*
X664675Y245175D01*
X663891Y245776D01*
X662979Y246154D01*
X662000Y246283D01*
D02*
G37*
G36*
X1001500Y252036D02*
X1000030Y251892D01*
X998616Y251463D01*
X997748Y250999D01*
X997313Y250766D01*
X996171Y249829D01*
X995234Y248687D01*
X994537Y247384D01*
X994108Y245970D01*
X993964Y244500D01*
X994108Y243030D01*
X994537Y241616D01*
X995234Y240313D01*
X996171Y239171D01*
X997313Y238234D01*
X997748Y238001D01*
X998616Y237537D01*
X1000030Y237108D01*
X1001500Y236964D01*
X1002970Y237108D01*
X1004384Y237537D01*
X1005687Y238234D01*
X1006829Y239171D01*
X1007766Y240313D01*
X1008463Y241616D01*
X1008892Y243030D01*
X1009037Y244500D01*
X1008892Y245970D01*
X1008463Y247384D01*
X1007766Y248687D01*
X1006829Y249829D01*
X1005687Y250766D01*
X1004384Y251463D01*
X1002970Y251892D01*
X1001500Y252036D01*
D02*
G37*
G36*
X722750Y252079D02*
X716750D01*
X716165Y251963D01*
X715668Y251631D01*
X711669Y247631D01*
X711337Y247135D01*
X711221Y246550D01*
Y240550D01*
X711337Y239965D01*
X711669Y239469D01*
X715668Y235469D01*
X716165Y235137D01*
X716750Y235021D01*
X722750D01*
X723335Y235137D01*
X723831Y235469D01*
X727831Y239469D01*
X728163Y239965D01*
X728279Y240550D01*
Y246550D01*
X728163Y247135D01*
X727831Y247631D01*
X726581Y248882D01*
X726920Y249250D01*
X727392Y249250D01*
X728750D01*
Y251250D01*
X726900D01*
Y249750D01*
X726900Y249270D01*
X726532Y248931D01*
X723831Y251631D01*
X723335Y251963D01*
X722750Y252079D01*
D02*
G37*
G36*
X615000Y252036D02*
X613530Y251892D01*
X612116Y251463D01*
X611248Y250999D01*
X610813Y250766D01*
X609671Y249829D01*
X608734Y248687D01*
X608037Y247384D01*
X607608Y245970D01*
X607464Y244500D01*
X607608Y243030D01*
X608037Y241616D01*
X608734Y240313D01*
X609671Y239171D01*
X610813Y238234D01*
X611248Y238001D01*
X612116Y237537D01*
X613530Y237108D01*
X615000Y236964D01*
X616470Y237108D01*
X617884Y237537D01*
X619187Y238234D01*
X620329Y239171D01*
X621266Y240313D01*
X621963Y241616D01*
X622392Y243030D01*
X622537Y244500D01*
X622392Y245970D01*
X621963Y247384D01*
X621266Y248687D01*
X620329Y249829D01*
X619187Y250766D01*
X617884Y251463D01*
X616470Y251892D01*
X615000Y252036D01*
D02*
G37*
G36*
X723500Y293500D02*
X711500D01*
Y287720D01*
X711485Y287717D01*
X711055Y287429D01*
X707063Y283437D01*
X706775Y283007D01*
X706674Y282500D01*
Y270300D01*
X706775Y269793D01*
X707063Y269363D01*
X710674Y265751D01*
Y254149D01*
X705951Y249426D01*
X684050D01*
X683543Y249325D01*
X683113Y249037D01*
X681063Y246987D01*
X680775Y246557D01*
X680716Y246259D01*
X680715Y246259D01*
X680693Y246254D01*
X680672Y246251D01*
X680650Y246250D01*
X678250D01*
Y238750D01*
X685750D01*
Y246250D01*
X685357D01*
X685090Y246750D01*
X685106Y246775D01*
X691591D01*
X691631Y246738D01*
X691611Y246505D01*
X691464Y246212D01*
X691021Y246153D01*
X690109Y245776D01*
X689326Y245175D01*
X688724Y244391D01*
X688346Y243479D01*
X688218Y242500D01*
X688346Y241521D01*
X688724Y240609D01*
X689326Y239826D01*
X690109Y239224D01*
X691021Y238846D01*
X692000Y238718D01*
X692979Y238846D01*
X693891Y239224D01*
X694674Y239826D01*
X695276Y240609D01*
X695653Y241521D01*
X695782Y242500D01*
X695653Y243479D01*
X695419Y244045D01*
X696749Y245374D01*
X698743D01*
X698888Y245265D01*
X698924Y245231D01*
X698957Y245191D01*
X698987Y245144D01*
X699048Y245015D01*
X699091Y244889D01*
X699080Y244867D01*
X699058Y244830D01*
X699033Y244794D01*
X699033Y244794D01*
X699016Y244772D01*
X699014Y244769D01*
X698724Y244391D01*
X698532Y243926D01*
X698530Y243922D01*
X698529Y243919D01*
X698347Y243479D01*
X698281Y242980D01*
X698280Y242976D01*
X698280Y242972D01*
X698218Y242500D01*
X698283Y242001D01*
X698284Y241997D01*
X698284Y241993D01*
X698347Y241521D01*
X698539Y241056D01*
X698541Y241052D01*
X698542Y241049D01*
X698724Y240609D01*
X699031Y240210D01*
X699033Y240206D01*
X699036Y240203D01*
X699326Y239826D01*
X699725Y239519D01*
X699728Y239516D01*
X699731Y239514D01*
X700109Y239224D01*
X700574Y239032D01*
X700578Y239030D01*
X700581Y239029D01*
X701021Y238846D01*
X701520Y238781D01*
X701524Y238780D01*
X701528Y238780D01*
X702000Y238718D01*
X702499Y238783D01*
X702503Y238784D01*
X702507Y238784D01*
X702979Y238846D01*
X703444Y239039D01*
X703448Y239041D01*
X703451Y239042D01*
X703891Y239224D01*
X704290Y239531D01*
X704294Y239533D01*
X704297Y239536D01*
X704674Y239826D01*
X704981Y240225D01*
X704984Y240228D01*
X704986Y240231D01*
X705276Y240609D01*
X705468Y241074D01*
X705470Y241078D01*
X705471Y241081D01*
X705653Y241521D01*
X705719Y242020D01*
X705720Y242024D01*
X705720Y242028D01*
X705782Y242500D01*
X705717Y242999D01*
X705716Y243003D01*
X705716Y243007D01*
X705653Y243479D01*
X705461Y243944D01*
X705459Y243948D01*
X705458Y243951D01*
X705276Y244391D01*
X704967Y244794D01*
X705095Y245250D01*
X705244Y245374D01*
X707500D01*
X708007Y245475D01*
X708437Y245763D01*
X714437Y251763D01*
X714725Y252193D01*
X714825Y252700D01*
Y267100D01*
X714725Y267607D01*
X714437Y268037D01*
X712585Y269889D01*
X712568Y270082D01*
X712569Y270133D01*
X712577Y270186D01*
X712593Y270245D01*
X712691Y270469D01*
X712692Y270470D01*
X712734Y270483D01*
X712776Y270492D01*
X712819Y270498D01*
X712863Y270500D01*
X723500D01*
Y293500D01*
D02*
G37*
G36*
X772000Y246689D02*
X767750D01*
Y241439D01*
X772000D01*
Y246689D01*
D02*
G37*
G36*
X791250D02*
X787000D01*
Y241439D01*
X791250D01*
Y246689D01*
D02*
G37*
G36*
X766250D02*
X762000D01*
Y241439D01*
X766250D01*
Y246689D01*
D02*
G37*
G36*
X741250D02*
X737000D01*
Y241439D01*
X741250D01*
Y246689D01*
D02*
G37*
G36*
X747000D02*
X742750D01*
Y241439D01*
X747000D01*
Y246689D01*
D02*
G37*
G36*
X640132Y287711D02*
X637882D01*
Y285461D01*
X640132D01*
Y287711D01*
D02*
G37*
G36*
X643882D02*
X641632D01*
Y285461D01*
X643882D01*
Y287711D01*
D02*
G37*
G36*
X752000Y293456D02*
X750825Y293302D01*
X749730Y292848D01*
X748790Y292127D01*
X748069Y291187D01*
X747616Y290092D01*
X747461Y288917D01*
X747616Y287742D01*
X748069Y286648D01*
X748790Y285708D01*
X749730Y284986D01*
X750825Y284533D01*
X752000Y284378D01*
X753175Y284533D01*
X754270Y284986D01*
X755210Y285708D01*
X755931Y286648D01*
X756384Y287742D01*
X756539Y288917D01*
X756384Y290092D01*
X755931Y291187D01*
X755210Y292127D01*
X754270Y292848D01*
X753175Y293302D01*
X752000Y293456D01*
D02*
G37*
G36*
X690800Y284800D02*
X651200D01*
Y272000D01*
X677400D01*
Y277000D01*
X678039D01*
Y275825D01*
X684039D01*
Y277000D01*
X684732D01*
Y275825D01*
X690732D01*
Y277000D01*
X690800D01*
Y284800D01*
D02*
G37*
G36*
X630043Y285742D02*
X619043D01*
Y283992D01*
Y282911D01*
X630043D01*
Y283992D01*
Y285742D01*
D02*
G37*
G36*
X646825Y287711D02*
X644575D01*
Y285461D01*
X646825D01*
Y287711D01*
D02*
G37*
G36*
X700368D02*
X698118D01*
Y285461D01*
X700368D01*
Y287711D01*
D02*
G37*
G36*
X704118D02*
X701868D01*
Y285461D01*
X704118D01*
Y287711D01*
D02*
G37*
G36*
X697425D02*
X695175D01*
Y285461D01*
X697425D01*
Y287711D01*
D02*
G37*
G36*
X650575D02*
X648325D01*
Y285461D01*
X650575D01*
Y287711D01*
D02*
G37*
G36*
X693675D02*
X691425D01*
Y285461D01*
X693675D01*
Y287711D01*
D02*
G37*
G36*
X606750Y271081D02*
X604900D01*
Y269081D01*
X606750D01*
Y271081D01*
D02*
G37*
G36*
X610100D02*
X608250D01*
Y269081D01*
X610100D01*
Y271081D01*
D02*
G37*
G36*
X595100D02*
X593250D01*
Y269081D01*
X595100D01*
Y271081D01*
D02*
G37*
G36*
X983750Y270750D02*
X981900D01*
Y268750D01*
X983750D01*
Y270750D01*
D02*
G37*
G36*
X987100D02*
X985250D01*
Y268750D01*
X987100D01*
Y270750D01*
D02*
G37*
G36*
X623793Y272750D02*
X619043D01*
Y271000D01*
X623793D01*
Y272750D01*
D02*
G37*
G36*
X684039Y274325D02*
X681789D01*
Y272075D01*
X684039D01*
Y274325D01*
D02*
G37*
G36*
X686982D02*
X684732D01*
Y272075D01*
X686982D01*
Y274325D01*
D02*
G37*
G36*
X680289D02*
X678039D01*
Y272075D01*
X680289D01*
Y274325D01*
D02*
G37*
G36*
X630043Y272750D02*
X625293D01*
Y271000D01*
X630043D01*
Y272750D01*
D02*
G37*
G36*
X691000Y274500D02*
X688500D01*
Y274325D01*
X688482D01*
Y272075D01*
X688500D01*
Y272000D01*
X691000D01*
Y274325D01*
Y274500D01*
D02*
G37*
G36*
X661750Y369250D02*
X659750D01*
Y367400D01*
X661750D01*
Y369250D01*
D02*
G37*
G36*
X715205Y472496D02*
X710955D01*
Y465746D01*
X715205D01*
Y472496D01*
D02*
G37*
G36*
X823750Y468250D02*
X821000D01*
Y465750D01*
X823750D01*
Y468250D01*
D02*
G37*
G36*
X665250Y369250D02*
X663250D01*
Y367400D01*
X665250D01*
Y369250D01*
D02*
G37*
G36*
X709455Y472496D02*
X705205D01*
Y465746D01*
X709455D01*
Y472496D01*
D02*
G37*
G36*
X693250Y369250D02*
X691250D01*
Y367400D01*
X693250D01*
Y369250D01*
D02*
G37*
G36*
X670750D02*
X668750D01*
Y367400D01*
X670750D01*
Y369250D01*
D02*
G37*
G36*
X948500Y476535D02*
X947456Y476397D01*
X946483Y475994D01*
X945647Y475353D01*
X945006Y474517D01*
X944603Y473544D01*
X944465Y472500D01*
X944603Y471456D01*
X945006Y470483D01*
X945647Y469647D01*
X946483Y469006D01*
X947456Y468603D01*
X948500Y468465D01*
X949544Y468603D01*
X950517Y469006D01*
X951353Y469647D01*
X951994Y470483D01*
X952397Y471456D01*
X952535Y472500D01*
X952397Y473544D01*
X951994Y474517D01*
X951353Y475353D01*
X950517Y475994D01*
X949544Y476397D01*
X948500Y476535D01*
D02*
G37*
G36*
X958500D02*
X957456Y476397D01*
X956483Y475994D01*
X955647Y475353D01*
X955006Y474517D01*
X954603Y473544D01*
X954465Y472500D01*
X954603Y471456D01*
X955006Y470483D01*
X955647Y469647D01*
X956483Y469006D01*
X957456Y468603D01*
X958500Y468465D01*
X959544Y468603D01*
X960517Y469006D01*
X961353Y469647D01*
X961994Y470483D01*
X962397Y471456D01*
X962535Y472500D01*
X962397Y473544D01*
X961994Y474517D01*
X961353Y475353D01*
X960517Y475994D01*
X959544Y476397D01*
X958500Y476535D01*
D02*
G37*
G36*
X972500Y476500D02*
X964500D01*
Y468500D01*
X972500D01*
Y476500D01*
D02*
G37*
G36*
X636500Y359250D02*
X629750D01*
Y358500D01*
X628250D01*
Y359250D01*
X621500D01*
Y357000D01*
X636500D01*
Y359250D01*
D02*
G37*
G36*
X828000Y468250D02*
X825250D01*
Y465750D01*
X828000D01*
Y468250D01*
D02*
G37*
G36*
X938500Y476535D02*
X937456Y476397D01*
X936483Y475994D01*
X935647Y475353D01*
X935006Y474517D01*
X934603Y473544D01*
X934465Y472500D01*
X934603Y471456D01*
X935006Y470483D01*
X935647Y469647D01*
X936483Y469006D01*
X937456Y468603D01*
X938500Y468465D01*
X939544Y468603D01*
X940517Y469006D01*
X941353Y469647D01*
X941994Y470483D01*
X942397Y471456D01*
X942535Y472500D01*
X942397Y473544D01*
X941994Y474517D01*
X941353Y475353D01*
X940517Y475994D01*
X939544Y476397D01*
X938500Y476535D01*
D02*
G37*
G36*
X636500Y363000D02*
X621500D01*
Y360750D01*
X628250D01*
Y361500D01*
X629750D01*
Y360750D01*
X636500D01*
Y361500D01*
Y363000D01*
D02*
G37*
G36*
X715205Y464246D02*
X710955D01*
Y457496D01*
X715205D01*
Y464246D01*
D02*
G37*
G36*
X948500Y466535D02*
X947456Y466397D01*
X946483Y465994D01*
X945647Y465353D01*
X945006Y464517D01*
X944603Y463544D01*
X944465Y462500D01*
X944603Y461456D01*
X945006Y460483D01*
X945647Y459647D01*
X946483Y459006D01*
X947456Y458603D01*
X948500Y458465D01*
X949544Y458603D01*
X950517Y459006D01*
X951353Y459647D01*
X951994Y460483D01*
X952397Y461456D01*
X952535Y462500D01*
X952397Y463544D01*
X951994Y464517D01*
X951353Y465353D01*
X950517Y465994D01*
X949544Y466397D01*
X948500Y466535D01*
D02*
G37*
G36*
X816825Y468187D02*
Y465037D01*
X818624D01*
Y465787D01*
X818430Y466763D01*
X817877Y467590D01*
X817050Y468142D01*
X816825Y468187D01*
D02*
G37*
G36*
X709455Y464246D02*
X705205D01*
Y457496D01*
X709455D01*
Y464246D01*
D02*
G37*
G36*
X1001600Y460094D02*
X1000825Y459992D01*
X1000103Y459693D01*
X999483Y459217D01*
X999007Y458597D01*
X998708Y457875D01*
X998606Y457100D01*
X998708Y456325D01*
X999007Y455603D01*
X999483Y454983D01*
X1000103Y454507D01*
X1000825Y454208D01*
X1001600Y454106D01*
X1002375Y454208D01*
X1003097Y454507D01*
X1003717Y454983D01*
X1004193Y455603D01*
X1004492Y456325D01*
X1004594Y457100D01*
X1004492Y457875D01*
X1004193Y458597D01*
X1003717Y459217D01*
X1003097Y459693D01*
X1002375Y459992D01*
X1001600Y460094D01*
D02*
G37*
G36*
X628549Y464246D02*
X624299D01*
Y457496D01*
X628549D01*
Y464246D01*
D02*
G37*
G36*
X634299D02*
X630049D01*
Y457496D01*
X634299D01*
Y464246D01*
D02*
G37*
G36*
X628549Y472496D02*
X624299D01*
Y465746D01*
X628549D01*
Y472496D01*
D02*
G37*
G36*
X634299D02*
X630049D01*
Y465746D01*
X634299D01*
Y472496D01*
D02*
G37*
G36*
X693250Y372600D02*
X691250D01*
Y370750D01*
X693250D01*
Y372600D01*
D02*
G37*
G36*
X1001500Y480537D02*
X1000030Y480392D01*
X998616Y479963D01*
X997748Y479499D01*
X997313Y479266D01*
X996171Y478329D01*
X995234Y477187D01*
X994537Y475884D01*
X994108Y474470D01*
X993964Y473000D01*
X994108Y471530D01*
X994537Y470116D01*
X995234Y468813D01*
X996171Y467671D01*
X997313Y466734D01*
X997748Y466501D01*
X998616Y466037D01*
X1000030Y465608D01*
X1001500Y465463D01*
X1002970Y465608D01*
X1004384Y466037D01*
X1005687Y466734D01*
X1006829Y467671D01*
X1007766Y468813D01*
X1008463Y470116D01*
X1008892Y471530D01*
X1009037Y473000D01*
X1008892Y474470D01*
X1008463Y475884D01*
X1007766Y477187D01*
X1006829Y478329D01*
X1005687Y479266D01*
X1004384Y479963D01*
X1002970Y480392D01*
X1001500Y480537D01*
D02*
G37*
G36*
X714000Y418020D02*
X623000D01*
X622610Y417942D01*
X622279Y417721D01*
X615779Y411221D01*
X597279Y392721D01*
X597058Y392390D01*
X596980Y392000D01*
Y317750D01*
X596900D01*
Y311250D01*
X597000D01*
Y310750D01*
X596900D01*
Y304250D01*
X599650D01*
Y307500D01*
X600400D01*
Y308250D01*
X603900D01*
Y309000D01*
X604400D01*
Y308750D01*
X607000D01*
Y308000D01*
X607750D01*
Y305250D01*
X611250D01*
Y308000D01*
X612000D01*
Y308750D01*
X614600D01*
Y310750D01*
X614600Y310750D01*
X614600D01*
X614600Y310750D01*
X614768Y311180D01*
X619043D01*
Y310077D01*
X630043D01*
Y311157D01*
Y315488D01*
Y319819D01*
Y324819D01*
X619043D01*
Y322052D01*
X618581Y321861D01*
X617520Y322922D01*
Y367000D01*
Y383078D01*
X625721Y391279D01*
X628721Y394279D01*
X633422Y398980D01*
X705078D01*
X709779Y394279D01*
X718779Y385279D01*
X719110Y385058D01*
X719500Y384980D01*
X760000D01*
X760390Y385058D01*
X760721Y385279D01*
X761721Y386279D01*
X761942Y386610D01*
X762020Y387000D01*
Y398500D01*
X761942Y398890D01*
X761721Y399221D01*
X761221Y399721D01*
X760890Y399942D01*
X760500Y400020D01*
X732422D01*
X714721Y417721D01*
X714390Y417942D01*
X714000Y418020D01*
D02*
G37*
G36*
X698500Y392500D02*
X665900D01*
X664900Y391500D01*
Y390000D01*
X663750D01*
Y383500D01*
X662250D01*
Y390000D01*
X659598D01*
X659500Y390020D01*
X656000D01*
X655901Y390000D01*
X655000D01*
Y389442D01*
X654779Y389221D01*
X654558Y388890D01*
X654480Y388500D01*
Y382922D01*
X651078Y379520D01*
X650000D01*
X649610Y379442D01*
X649279Y379221D01*
X645779Y375721D01*
X644779Y374721D01*
X644558Y374390D01*
X644480Y374000D01*
Y369800D01*
X644558Y369410D01*
X644779Y369079D01*
X645353Y368505D01*
X645414Y368414D01*
X645505Y368353D01*
X646579Y367279D01*
X646910Y367058D01*
X647300Y366980D01*
X657500D01*
X657890Y367058D01*
X658221Y367279D01*
X658342Y367400D01*
X659250D01*
Y371321D01*
X659309Y371360D01*
X659750Y371124D01*
Y370750D01*
X665250D01*
Y372103D01*
X665250Y372198D01*
X665710Y372640D01*
X665862Y372638D01*
X666000Y372500D01*
X668291D01*
X668500Y372500D01*
X668750Y372104D01*
Y370750D01*
X670750D01*
Y372600D01*
X669307D01*
X669100Y373100D01*
X669500Y373500D01*
Y376000D01*
X670300Y376800D01*
X675783D01*
X676193Y376300D01*
X676174Y376205D01*
Y372674D01*
X676100Y372600D01*
X674750D01*
Y372500D01*
X674250D01*
Y372600D01*
X672250D01*
Y370000D01*
Y367400D01*
X673000D01*
Y366000D01*
X673500Y365500D01*
Y364500D01*
X672825Y363825D01*
X647000D01*
X646493Y363725D01*
X646157Y363500D01*
X646000D01*
X641000Y358500D01*
Y345500D01*
X642630Y343870D01*
X642423Y343370D01*
X642222D01*
Y337870D01*
Y332370D01*
X643000D01*
Y332000D01*
X656245D01*
X656246Y332000D01*
Y331240D01*
X656440Y330265D01*
X656993Y329438D01*
X657820Y328885D01*
X658795Y328691D01*
X659771Y328885D01*
X660598Y329438D01*
X661150Y330265D01*
X661344Y331240D01*
Y332000D01*
X661345Y332000D01*
X674500D01*
Y344000D01*
X662500D01*
X662000Y344500D01*
Y345500D01*
X661212Y346288D01*
X661250Y346380D01*
Y349500D01*
X662000D01*
Y350250D01*
X664600D01*
Y351100D01*
X665000Y351500D01*
Y352000D01*
X665500Y352500D01*
X668500D01*
X669500Y353500D01*
Y356174D01*
X678000D01*
X678507Y356275D01*
X678937Y356563D01*
X685288Y362914D01*
X685358Y362928D01*
X686086Y363414D01*
X686572Y364142D01*
X686743Y365000D01*
X686572Y365858D01*
X686187Y366436D01*
X686213Y366643D01*
X686225Y366693D01*
X686291Y366867D01*
X686376Y366984D01*
X686413Y366992D01*
X686457Y366998D01*
X686500Y367000D01*
X689000D01*
Y367400D01*
X689750D01*
Y370000D01*
Y372600D01*
X689000D01*
Y373000D01*
X685825D01*
Y375700D01*
X685725Y376207D01*
X685663Y376300D01*
X685823Y376800D01*
X698500D01*
Y392500D01*
D02*
G37*
G36*
X614500Y480537D02*
X613030Y480392D01*
X611616Y479963D01*
X610748Y479499D01*
X610313Y479266D01*
X609171Y478329D01*
X608234Y477187D01*
X607537Y475884D01*
X607108Y474470D01*
X606963Y473000D01*
X607108Y471530D01*
X607537Y470116D01*
X608234Y468813D01*
X609171Y467671D01*
X610313Y466734D01*
X610748Y466501D01*
X611616Y466037D01*
X613030Y465608D01*
X614500Y465463D01*
X615970Y465608D01*
X617384Y466037D01*
X618687Y466734D01*
X619829Y467671D01*
X620766Y468813D01*
X621463Y470116D01*
X621892Y471530D01*
X622037Y473000D01*
X621892Y474470D01*
X621463Y475884D01*
X620766Y477187D01*
X619829Y478329D01*
X618687Y479266D01*
X617384Y479963D01*
X615970Y480392D01*
X614500Y480537D01*
D02*
G37*
G36*
X640132Y311539D02*
X637882D01*
Y309289D01*
X640132D01*
Y311539D01*
D02*
G37*
G36*
X816825Y481770D02*
Y478620D01*
X818624D01*
Y479370D01*
X818430Y480346D01*
X817877Y481173D01*
X817050Y481725D01*
X816825Y481770D01*
D02*
G37*
G36*
X630043Y308577D02*
X619043D01*
Y306827D01*
Y305746D01*
X630043D01*
Y306827D01*
Y308577D01*
D02*
G37*
G36*
X643882Y311539D02*
X641632D01*
Y309289D01*
X643882D01*
Y311539D01*
D02*
G37*
G36*
X815325Y481770D02*
X815099Y481725D01*
X814272Y481173D01*
X813720Y480346D01*
X813526Y479370D01*
Y478620D01*
X815325D01*
Y481770D01*
D02*
G37*
G36*
X704118Y311539D02*
X701868D01*
Y309289D01*
X704118D01*
Y311539D01*
D02*
G37*
G36*
X700368D02*
X698118D01*
Y309289D01*
X700368D01*
Y311539D01*
D02*
G37*
G36*
X697426Y311540D02*
X691425D01*
Y305539D01*
X697426D01*
Y311540D01*
D02*
G37*
G36*
X650575D02*
X644574D01*
Y305539D01*
X650575D01*
Y311540D01*
D02*
G37*
G36*
X614600Y307250D02*
X612750D01*
Y305250D01*
X614600D01*
Y307250D01*
D02*
G37*
G36*
X640132Y307789D02*
X637882D01*
Y305539D01*
X640132D01*
Y307789D01*
D02*
G37*
G36*
X704118D02*
X701868D01*
Y305539D01*
X704118D01*
Y307789D01*
D02*
G37*
G36*
X700368D02*
X698118D01*
Y305539D01*
X700368D01*
Y307789D01*
D02*
G37*
G36*
X643882D02*
X641632D01*
Y305539D01*
X643882D01*
Y307789D01*
D02*
G37*
G36*
X815325Y477120D02*
X813526D01*
Y476370D01*
X813720Y475395D01*
X814272Y474568D01*
X815099Y474015D01*
X815325Y473970D01*
Y477120D01*
D02*
G37*
G36*
X640722Y343370D02*
X637892D01*
Y337870D01*
Y332370D01*
X640722D01*
Y337870D01*
Y343370D01*
D02*
G37*
G36*
X636392D02*
X634642D01*
Y343000D01*
X634000D01*
Y332500D01*
X634642D01*
Y332370D01*
X636392D01*
Y337870D01*
Y343370D01*
D02*
G37*
G36*
X790474Y477120D02*
X788675D01*
Y473970D01*
X788901Y474015D01*
X789728Y474568D01*
X790280Y475395D01*
X790474Y476370D01*
Y477120D01*
D02*
G37*
G36*
X787175D02*
X785376D01*
Y476370D01*
X785570Y475395D01*
X786123Y474568D01*
X786950Y474015D01*
X787175Y473970D01*
Y477120D01*
D02*
G37*
G36*
X720750Y356250D02*
X713250D01*
Y348750D01*
X720750D01*
Y356250D01*
D02*
G37*
G36*
X664600Y348750D02*
X662750D01*
Y346750D01*
X664600D01*
Y348750D01*
D02*
G37*
G36*
X680289Y324925D02*
X678039D01*
Y322675D01*
X680289D01*
Y324925D01*
D02*
G37*
G36*
X787175Y481770D02*
X786950Y481725D01*
X786123Y481173D01*
X785570Y480346D01*
X785376Y479370D01*
Y478620D01*
X787175D01*
Y481770D01*
D02*
G37*
G36*
X788675D02*
Y478620D01*
X790474D01*
Y479370D01*
X790280Y480346D01*
X789728Y481173D01*
X788901Y481725D01*
X788675Y481770D01*
D02*
G37*
G36*
X691000Y325000D02*
X689000D01*
Y324925D01*
X687000D01*
Y325000D01*
X682000D01*
Y324925D01*
X681789D01*
Y321925D01*
X681039D01*
Y321175D01*
X678039D01*
Y320000D01*
X677400D01*
Y325000D01*
X651200D01*
Y312200D01*
X690800D01*
Y320000D01*
X690732D01*
Y321175D01*
X687732D01*
Y322675D01*
X689000D01*
Y322000D01*
X691000D01*
Y322675D01*
Y325000D01*
D02*
G37*
G36*
X818624Y477120D02*
X816825D01*
Y473970D01*
X817050Y474015D01*
X817877Y474568D01*
X818430Y475395D01*
X818624Y476370D01*
Y477120D01*
D02*
G37*
G36*
X888000Y480912D02*
X887523Y480850D01*
X887519Y480849D01*
X887514Y480848D01*
X887021Y480783D01*
X886577Y480599D01*
X886573Y480598D01*
X886569Y480596D01*
X886109Y480406D01*
X885727Y480113D01*
X885724Y480110D01*
X885720Y480107D01*
X885326Y479804D01*
X885033Y479423D01*
X885030Y479420D01*
X885027Y479416D01*
X884724Y479021D01*
X884540Y478577D01*
X884538Y478573D01*
X884537Y478569D01*
X884346Y478109D01*
X884284Y477632D01*
X884283Y477628D01*
X884283Y477623D01*
X884218Y477130D01*
X884280Y476653D01*
X884281Y476649D01*
X884282Y476644D01*
X884346Y476151D01*
X884531Y475707D01*
X884532Y475703D01*
X884534Y475698D01*
X884724Y475239D01*
X885019Y474854D01*
X885020Y474854D01*
X885020Y474854D01*
X885056Y474634D01*
X884984Y474485D01*
X884954Y474440D01*
X884951Y474437D01*
X884920Y474401D01*
X884916Y474396D01*
X884883Y474366D01*
X884744Y474250D01*
X881390D01*
X881261Y474384D01*
X881138Y474854D01*
X881433Y475239D01*
X881617Y475683D01*
X881619Y475687D01*
X881621Y475691D01*
X881811Y476151D01*
X881874Y476628D01*
X881874Y476632D01*
X881875Y476636D01*
X881940Y477130D01*
X881877Y477607D01*
X881877Y477611D01*
X881876Y477615D01*
X881811Y478109D01*
X881627Y478553D01*
X881625Y478557D01*
X881624Y478561D01*
X881433Y479021D01*
X881140Y479403D01*
X881138Y479406D01*
X881135Y479410D01*
X880832Y479804D01*
X880450Y480097D01*
X880447Y480100D01*
X880443Y480103D01*
X880049Y480406D01*
X879604Y480590D01*
X879601Y480591D01*
X879596Y480593D01*
X879136Y480783D01*
X878659Y480846D01*
X878656Y480847D01*
X878651Y480847D01*
X878158Y480912D01*
X877681Y480850D01*
X877676Y480849D01*
X877672Y480848D01*
X877178Y480783D01*
X876734Y480599D01*
X876730Y480598D01*
X876726Y480596D01*
X876266Y480406D01*
X875885Y480113D01*
X875881Y480110D01*
X875878Y480107D01*
X875483Y479804D01*
X875190Y479423D01*
X875187Y479420D01*
X875185Y479416D01*
X874882Y479021D01*
X874698Y478577D01*
X874696Y478573D01*
X874695Y478569D01*
X874504Y478109D01*
X874490Y478000D01*
X872682D01*
X872232Y478450D01*
X868568D01*
X868118Y478000D01*
X855250D01*
Y475500D01*
X853750D01*
Y478000D01*
X852600D01*
X852500Y478100D01*
X837150D01*
X837145Y478107D01*
X837134Y478125D01*
X837124Y478144D01*
X837115Y478164D01*
X837109Y478185D01*
X837104Y478207D01*
X837101Y478228D01*
X837100Y478250D01*
Y479800D01*
X836500D01*
Y479800D01*
X831300D01*
Y479594D01*
X830416D01*
X830378Y479619D01*
X829500Y479794D01*
X828622Y479619D01*
X827878Y479122D01*
X827381Y478378D01*
X827206Y477500D01*
X827381Y476622D01*
X827878Y475878D01*
X828078Y475678D01*
X828500Y475396D01*
Y473000D01*
X830500Y471000D01*
Y469000D01*
X830788Y468712D01*
X830597Y468250D01*
X828500D01*
Y465750D01*
X832000D01*
Y464250D01*
X828500D01*
Y463000D01*
X828000D01*
Y464250D01*
X821000D01*
Y463000D01*
X819000D01*
X818624Y463331D01*
Y463537D01*
X816075D01*
Y464287D01*
X815325D01*
Y468187D01*
X815099Y468142D01*
X814941Y468037D01*
X814500Y468272D01*
Y470500D01*
X813500Y471500D01*
X810817D01*
X810732Y471557D01*
X809874Y471727D01*
X809016Y471557D01*
X808931Y471500D01*
X795069D01*
X794984Y471557D01*
X794554Y471642D01*
X794550Y471643D01*
X794546Y471644D01*
X794126Y471727D01*
X793268Y471557D01*
X792903Y471313D01*
X792899Y471311D01*
X792896Y471308D01*
X792540Y471070D01*
X792054Y470343D01*
X791883Y469484D01*
X792054Y468626D01*
X792500Y467958D01*
Y460750D01*
X792245Y460596D01*
X792072Y460505D01*
X792000Y460520D01*
X790198D01*
X790193Y460521D01*
X790151Y460535D01*
X790111Y460553D01*
X790073Y460574D01*
X790037Y460599D01*
X790003Y460626D01*
X789972Y460656D01*
X789943Y460689D01*
X789918Y460725D01*
X789895Y460762D01*
X789876Y460801D01*
X789861Y460842D01*
X789849Y460884D01*
X789840Y460927D01*
X789836Y460970D01*
X789835Y461014D01*
X789838Y461057D01*
X789845Y461100D01*
X789856Y461143D01*
X789870Y461184D01*
X789888Y461224D01*
X789891Y461229D01*
X790280Y461812D01*
X790474Y462787D01*
Y465787D01*
X790280Y466763D01*
X789728Y467590D01*
X788901Y468142D01*
X787925Y468336D01*
X786950Y468142D01*
X786123Y467590D01*
X785570Y466763D01*
X785376Y465787D01*
Y462787D01*
X785415Y462592D01*
X785409Y462566D01*
X785396Y462524D01*
X785380Y462484D01*
X785359Y462445D01*
X785336Y462408D01*
X785310Y462374D01*
X785280Y462342D01*
X785248Y462312D01*
X785213Y462286D01*
X785177Y462262D01*
X785138Y462242D01*
X785098Y462225D01*
X785056Y462212D01*
X785013Y462203D01*
X784970Y462197D01*
X784927Y462195D01*
X784883Y462197D01*
X784840Y462203D01*
X784797Y462212D01*
X784756Y462225D01*
X784715Y462242D01*
X784683Y462259D01*
X781221Y465721D01*
X781138Y465776D01*
X780914Y466000D01*
X780597D01*
X780500Y466020D01*
X769422D01*
X763721Y471721D01*
X763638Y471776D01*
X763414Y472000D01*
X763097D01*
X763000Y472020D01*
X745000D01*
X744903Y472000D01*
X744586D01*
X744362Y471776D01*
X744279Y471721D01*
X739779Y467221D01*
X739724Y467138D01*
X739500Y466914D01*
Y466598D01*
X739480Y466500D01*
Y458000D01*
X739500Y457902D01*
Y457586D01*
X739724Y457362D01*
X739779Y457279D01*
X745279Y451779D01*
X746279Y450779D01*
X746362Y450724D01*
X746586Y450500D01*
X746903D01*
X747000Y450480D01*
X765846D01*
X765863Y450473D01*
X765882Y450462D01*
X765900Y450450D01*
Y363825D01*
X731049D01*
X725937Y368937D01*
X725830Y369009D01*
X725539Y369300D01*
X725127D01*
X725000Y369326D01*
X720127D01*
X720116Y369329D01*
X720076Y369345D01*
X720037Y369365D01*
X720000Y369388D01*
X719965Y369414D01*
X719933Y369443D01*
X719903Y369475D01*
X719876Y369510D01*
X719852Y369546D01*
X719832Y369585D01*
X719815Y369625D01*
X719801Y369666D01*
X719791Y369709D01*
X719785Y369752D01*
X719783Y369795D01*
X719784Y369839D01*
X719790Y369882D01*
X719799Y369925D01*
X719811Y369967D01*
X719828Y370007D01*
X719847Y370046D01*
X719863Y370070D01*
X720276Y370609D01*
X720653Y371521D01*
X720782Y372500D01*
X720653Y373479D01*
X720276Y374391D01*
X719674Y375174D01*
X718891Y375776D01*
X717979Y376153D01*
X717000Y376282D01*
X716021Y376153D01*
X715109Y375776D01*
X714326Y375174D01*
X713724Y374391D01*
X713346Y373479D01*
X713218Y372500D01*
X713346Y371521D01*
X713724Y370609D01*
X714137Y370071D01*
X714150Y370051D01*
X714170Y370012D01*
X714187Y369971D01*
X714200Y369930D01*
X714210Y369887D01*
X714215Y369844D01*
X714217Y369800D01*
X714215Y369757D01*
X714210Y369714D01*
X714200Y369671D01*
X714187Y369630D01*
X714170Y369589D01*
X714150Y369550D01*
X714127Y369514D01*
X714100Y369479D01*
X714071Y369447D01*
X714039Y369417D01*
X714004Y369391D01*
X713967Y369367D01*
X713929Y369347D01*
X713888Y369331D01*
X713873Y369326D01*
X709500D01*
X709373Y369300D01*
X708962D01*
X708671Y369009D01*
X708563Y368937D01*
X703451Y363825D01*
X701500D01*
X701373Y363800D01*
X700961D01*
X700761Y363600D01*
X698544D01*
X697944Y363000D01*
X695000D01*
X691000Y359000D01*
Y344500D01*
X690500Y344000D01*
X676000D01*
Y343370D01*
X675980D01*
Y332370D01*
X676000D01*
Y332000D01*
X707500D01*
Y344000D01*
X703250D01*
X703228Y344001D01*
X703207Y344004D01*
X703185Y344008D01*
X703164Y344015D01*
X703144Y344023D01*
X703125Y344034D01*
X703107Y344045D01*
X703089Y344058D01*
X703073Y344073D01*
X703058Y344089D01*
X703045Y344107D01*
X703033Y344125D01*
X703023Y344144D01*
X703015Y344164D01*
X703009Y344185D01*
X703004Y344207D01*
X703001Y344228D01*
X703000Y344250D01*
Y359425D01*
X703249Y359675D01*
X704500D01*
X704627Y359700D01*
X705039D01*
X705330Y359991D01*
X705437Y360063D01*
X710549Y365175D01*
X713519D01*
X713544Y365166D01*
X713584Y365148D01*
X713622Y365128D01*
X713659Y365103D01*
X713693Y365076D01*
X713724Y365046D01*
X713753Y365013D01*
X713779Y364978D01*
X713801Y364941D01*
X713821Y364902D01*
X713837Y364861D01*
X713849Y364819D01*
X713858Y364776D01*
X713862Y364733D01*
X713863Y364690D01*
X713861Y364646D01*
X713854Y364603D01*
X713844Y364561D01*
X713835Y364536D01*
X713724Y364391D01*
X713346Y363479D01*
X713218Y362500D01*
X713346Y361521D01*
X713724Y360609D01*
X714326Y359825D01*
X715109Y359224D01*
X716021Y358846D01*
X717000Y358718D01*
X717979Y358846D01*
X718891Y359224D01*
X719674Y359825D01*
X720276Y360609D01*
X720653Y361521D01*
X720782Y362500D01*
X720653Y363479D01*
X720276Y364391D01*
X720164Y364536D01*
X720154Y364570D01*
X720144Y364613D01*
X720139Y364656D01*
X720137Y364700D01*
X720139Y364743D01*
X720144Y364787D01*
X720154Y364829D01*
X720167Y364871D01*
X720183Y364911D01*
X720204Y364950D01*
X720227Y364987D01*
X720254Y365021D01*
X720283Y365053D01*
X720315Y365083D01*
X720350Y365109D01*
X720387Y365133D01*
X720425Y365153D01*
X720466Y365170D01*
X720481Y365175D01*
X723451D01*
X728563Y360063D01*
X728670Y359991D01*
X728961Y359700D01*
X729373D01*
X729500Y359675D01*
X765900D01*
Y326000D01*
X772000Y319900D01*
X791337D01*
X791563Y319563D01*
X797563Y313563D01*
X797993Y313275D01*
X798500Y313175D01*
X826951D01*
X827318Y312807D01*
X827257Y312500D01*
X827428Y311642D01*
X827914Y310914D01*
X828642Y310428D01*
X829500Y310257D01*
X830358Y310428D01*
X831086Y310914D01*
X831572Y311642D01*
X831743Y312500D01*
X831661Y312913D01*
X831978Y313300D01*
X836400D01*
Y277326D01*
X783000D01*
X782493Y277225D01*
X782063Y276937D01*
X780625Y275500D01*
X771500D01*
Y271250D01*
X771499Y271228D01*
X771496Y271207D01*
X771491Y271185D01*
X771485Y271164D01*
X771477Y271144D01*
X771466Y271125D01*
X771455Y271107D01*
X771442Y271089D01*
X771427Y271073D01*
X771411Y271059D01*
X771393Y271045D01*
X771375Y271034D01*
X771356Y271023D01*
X771336Y271015D01*
X771315Y271008D01*
X771293Y271004D01*
X771272Y271001D01*
X771250Y271000D01*
X761500D01*
Y257500D01*
X850750D01*
X850772Y257499D01*
X850793Y257496D01*
X850815Y257491D01*
X850835Y257485D01*
X850856Y257477D01*
X850875Y257467D01*
X850893Y257455D01*
X850910Y257441D01*
X850927Y257427D01*
X850941Y257411D01*
X850955Y257393D01*
X850966Y257375D01*
X850976Y257356D01*
X850980Y257346D01*
Y251500D01*
X851000Y251402D01*
Y251086D01*
X851224Y250862D01*
X851279Y250779D01*
X854779Y247279D01*
X854862Y247224D01*
X855086Y247000D01*
X855402D01*
X855500Y246980D01*
X861621D01*
X862000Y246689D01*
X862000Y246480D01*
Y241439D01*
X872000D01*
Y246480D01*
X872000Y246689D01*
X872379Y246980D01*
X876578D01*
X885279Y238279D01*
X885362Y238224D01*
X885586Y238000D01*
X885903D01*
X886000Y237980D01*
X936500D01*
X936598Y238000D01*
X936914D01*
X937138Y238224D01*
X937221Y238279D01*
X939721Y240779D01*
X939776Y240862D01*
X940000Y241086D01*
Y241403D01*
X940020Y241500D01*
Y256000D01*
X940000Y256098D01*
Y256414D01*
X939776Y256638D01*
X939721Y256721D01*
X938721Y257721D01*
X938638Y257776D01*
X938414Y258000D01*
X938097D01*
X938000Y258020D01*
X932000D01*
X931903Y258000D01*
X931586D01*
X931362Y257776D01*
X931279Y257721D01*
X930279Y256721D01*
X930224Y256638D01*
X930000Y256414D01*
Y256098D01*
X929980Y256000D01*
Y254926D01*
X929976Y254910D01*
X929961Y254869D01*
X929942Y254830D01*
X929920Y254792D01*
X929895Y254756D01*
X929867Y254723D01*
X929836Y254693D01*
X929803Y254665D01*
X929767Y254640D01*
X929729Y254618D01*
X929689Y254600D01*
X929648Y254585D01*
X929606Y254574D01*
X929563Y254566D01*
X929520Y254563D01*
X929476Y254563D01*
X929433Y254567D01*
X929390Y254575D01*
X929348Y254586D01*
X929307Y254601D01*
X929267Y254620D01*
X929230Y254642D01*
X929194Y254667D01*
X929161Y254695D01*
X929130Y254726D01*
X929102Y254760D01*
X929099Y254764D01*
X928994Y255017D01*
X928666Y255444D01*
X928664Y255448D01*
X928662Y255450D01*
X928353Y255853D01*
X927926Y256181D01*
X927923Y256183D01*
X927920Y256185D01*
X927517Y256494D01*
X927020Y256700D01*
X927016Y256702D01*
X927013Y256703D01*
X926544Y256897D01*
X926011Y256967D01*
X926007Y256968D01*
X926003Y256968D01*
X925500Y257034D01*
X924967Y256964D01*
X924962Y256964D01*
X924959Y256963D01*
X924456Y256897D01*
X923958Y256691D01*
X923955Y256690D01*
X923952Y256688D01*
X923483Y256494D01*
X923056Y256166D01*
X923052Y256164D01*
X923050Y256162D01*
X922647Y255853D01*
X922320Y255426D01*
X922317Y255423D01*
X922315Y255420D01*
X922006Y255017D01*
X921800Y254520D01*
X921798Y254516D01*
X921797Y254513D01*
X921603Y254044D01*
X921533Y253511D01*
X921532Y253507D01*
X921532Y253503D01*
X921465Y253000D01*
X921536Y252467D01*
X921536Y252462D01*
X921537Y252459D01*
X921603Y251956D01*
X921809Y251459D01*
X921810Y251455D01*
X921812Y251452D01*
X922006Y250983D01*
X922334Y250556D01*
X922336Y250552D01*
X922338Y250550D01*
X922647Y250147D01*
X923074Y249819D01*
X923077Y249817D01*
X923080Y249815D01*
X923483Y249506D01*
X923980Y249300D01*
X923984Y249298D01*
X923987Y249297D01*
X924456Y249103D01*
X924989Y249033D01*
X924993Y249032D01*
X924997Y249032D01*
X925500Y248966D01*
X926033Y249036D01*
X926038Y249036D01*
X926041Y249037D01*
X926544Y249103D01*
X927042Y249309D01*
X927045Y249310D01*
X927048Y249312D01*
X927517Y249506D01*
X927944Y249834D01*
X927948Y249836D01*
X927950Y249838D01*
X928353Y250147D01*
X928681Y250574D01*
X928683Y250577D01*
X928685Y250580D01*
X928994Y250983D01*
X929099Y251235D01*
X929117Y251259D01*
X929146Y251291D01*
X929178Y251321D01*
X929213Y251347D01*
X929250Y251371D01*
X929288Y251391D01*
X929329Y251407D01*
X929370Y251420D01*
X929413Y251430D01*
X929456Y251436D01*
X929500Y251438D01*
X929543Y251436D01*
X929587Y251430D01*
X929629Y251421D01*
X929671Y251408D01*
X929711Y251391D01*
X929750Y251371D01*
X929786Y251347D01*
X929821Y251321D01*
X929853Y251291D01*
X929883Y251259D01*
X929909Y251224D01*
X929933Y251188D01*
X929953Y251149D01*
X929970Y251109D01*
X929980Y251075D01*
Y249922D01*
X928078Y248020D01*
X919985D01*
X919951Y248030D01*
X919911Y248047D01*
X919872Y248067D01*
X919835Y248091D01*
X919800Y248117D01*
X919768Y248147D01*
X919739Y248179D01*
X919712Y248213D01*
X919689Y248250D01*
X919669Y248289D01*
X919652Y248329D01*
X919639Y248371D01*
X919629Y248413D01*
X919624Y248457D01*
X919622Y248500D01*
X919624Y248544D01*
X919629Y248587D01*
X919639Y248630D01*
X919652Y248671D01*
X919669Y248711D01*
X919685Y248743D01*
X919721Y248779D01*
X919776Y248862D01*
X920000Y249086D01*
Y249402D01*
X920020Y249500D01*
Y257000D01*
X920000Y257098D01*
Y257414D01*
X919776Y257638D01*
X919721Y257721D01*
X919367Y258075D01*
X919484Y258574D01*
X919603Y258675D01*
X925986D01*
X926493Y258775D01*
X926923Y259063D01*
X937535Y269674D01*
X950999D01*
X950999Y269672D01*
X951000Y269650D01*
Y259000D01*
X951750D01*
X951772Y258999D01*
X951793Y258996D01*
X951815Y258992D01*
X951836Y258985D01*
X951856Y258977D01*
X951875Y258966D01*
X951893Y258955D01*
X951911Y258942D01*
X951927Y258927D01*
X951941Y258911D01*
X951955Y258893D01*
X951966Y258875D01*
X951977Y258856D01*
X951985Y258836D01*
X951991Y258815D01*
X951996Y258793D01*
X951999Y258772D01*
X952000Y258750D01*
Y255003D01*
X951603Y254044D01*
X951466Y253000D01*
X951603Y251956D01*
X952006Y250983D01*
X952647Y250147D01*
X953483Y249506D01*
X954456Y249103D01*
X955500Y248966D01*
X956544Y249103D01*
X957517Y249506D01*
X958161Y250000D01*
X962839D01*
X963483Y249506D01*
X964456Y249103D01*
X965500Y248966D01*
X966544Y249103D01*
X967517Y249506D01*
X968161Y250000D01*
X972839D01*
X973483Y249506D01*
X974456Y249103D01*
X975500Y248966D01*
X976544Y249103D01*
X977517Y249506D01*
X978161Y250000D01*
X982839D01*
X983483Y249506D01*
X984456Y249103D01*
X985500Y248966D01*
X986544Y249103D01*
X987517Y249506D01*
X988353Y250147D01*
X988994Y250983D01*
X989397Y251956D01*
X989534Y253000D01*
X989397Y254044D01*
X989000Y255003D01*
Y266500D01*
X987100D01*
Y267250D01*
X981900D01*
Y266500D01*
X980850D01*
X980828Y266501D01*
X980826Y266501D01*
Y277500D01*
X980725Y278007D01*
X980437Y278437D01*
X975826Y283049D01*
Y298951D01*
X979437Y302563D01*
X979725Y302993D01*
X979825Y303500D01*
Y316499D01*
X979828Y316499D01*
X979850Y316500D01*
X982522D01*
X982914Y315914D01*
X983642Y315428D01*
X984500Y315257D01*
X985358Y315428D01*
X986086Y315914D01*
X986572Y316642D01*
X986743Y317500D01*
X986682Y317807D01*
X992937Y324063D01*
X993225Y324493D01*
X993326Y325000D01*
Y340037D01*
X993400Y340129D01*
X993826Y340391D01*
X994500Y340257D01*
X995358Y340428D01*
X996086Y340914D01*
X996572Y341642D01*
X996743Y342500D01*
X996682Y342807D01*
X1002937Y349063D01*
X1003225Y349493D01*
X1003325Y350000D01*
Y441500D01*
X1003225Y442007D01*
X1002937Y442437D01*
X981937Y463437D01*
X981507Y463725D01*
X981000Y463826D01*
X972281D01*
X971994Y464517D01*
X971353Y465353D01*
X970517Y465994D01*
X969544Y466397D01*
X968500Y466535D01*
X967456Y466397D01*
X966483Y465994D01*
X965647Y465353D01*
X965621Y465318D01*
X965612Y465315D01*
X965591Y465311D01*
X965569Y465308D01*
X965547Y465307D01*
X961453D01*
X961435Y465308D01*
X961414Y465310D01*
X961392Y465314D01*
X961379Y465318D01*
X961353Y465353D01*
X960517Y465994D01*
X959544Y466397D01*
X958500Y466535D01*
X957456Y466397D01*
X956483Y465994D01*
X955647Y465353D01*
X955006Y464517D01*
X954603Y463544D01*
X954465Y462500D01*
X954603Y461456D01*
X955006Y460483D01*
X955296Y460105D01*
Y457383D01*
X955295Y457362D01*
X955292Y457340D01*
X955288Y457319D01*
X955281Y457298D01*
X955273Y457278D01*
X955263Y457259D01*
X955251Y457240D01*
X955238Y457223D01*
X955223Y457207D01*
X955207Y457192D01*
X955190Y457179D01*
X955171Y457167D01*
X955152Y457157D01*
X955132Y457149D01*
X955111Y457142D01*
X955089Y457137D01*
X955068Y457134D01*
X955046Y457133D01*
X941826D01*
X941804Y457134D01*
X941782Y457137D01*
X941761Y457142D01*
X941740Y457149D01*
X941720Y457157D01*
X941701Y457167D01*
X941682Y457179D01*
X941665Y457192D01*
X941649Y457207D01*
X941634Y457223D01*
X941621Y457240D01*
X941609Y457259D01*
X941599Y457278D01*
X941591Y457298D01*
X941584Y457319D01*
X941580Y457340D01*
X941577Y457362D01*
X941576Y457383D01*
Y459938D01*
X941658Y460045D01*
X941662Y460050D01*
X941665Y460053D01*
X941994Y460483D01*
X942187Y460949D01*
X942189Y460952D01*
X942190Y460956D01*
X942397Y461456D01*
X942463Y461956D01*
X942463Y461960D01*
X942464Y461963D01*
X942535Y462500D01*
X942469Y463001D01*
X942468Y463004D01*
X942468Y463007D01*
X942397Y463544D01*
X942204Y464011D01*
X942203Y464014D01*
X942201Y464017D01*
X941994Y464517D01*
X941687Y464918D01*
X941685Y464920D01*
X941682Y464923D01*
X941353Y465353D01*
X940952Y465660D01*
X940950Y465662D01*
X940947Y465664D01*
X940517Y465994D01*
X940051Y466187D01*
X940048Y466189D01*
X940044Y466190D01*
X939544Y466397D01*
X939044Y466463D01*
X939040Y466464D01*
X939037Y466464D01*
X938500Y466535D01*
X937999Y466469D01*
X937996Y466468D01*
X937992Y466468D01*
X937747Y466435D01*
X934432Y469750D01*
X932157D01*
X931999Y469885D01*
X931964Y469923D01*
X931931Y469967D01*
X931858Y470098D01*
X931806Y470222D01*
X931815Y470245D01*
X931819Y470255D01*
X931994Y470483D01*
X932208Y470999D01*
X932209Y471000D01*
X932209Y471001D01*
X932397Y471456D01*
X932470Y472010D01*
X932470Y472011D01*
X932470Y472012D01*
X932535Y472500D01*
X932462Y473054D01*
X932461Y473056D01*
X932461Y473056D01*
X932397Y473544D01*
X932183Y474060D01*
X932183Y474062D01*
X932182Y474063D01*
X931994Y474517D01*
X931654Y474961D01*
X931653Y474962D01*
X931652Y474963D01*
X931353Y475353D01*
X930910Y475693D01*
X930908Y475694D01*
X930908Y475695D01*
X930517Y475994D01*
X930001Y476208D01*
X930000Y476208D01*
X929999Y476209D01*
X929544Y476397D01*
X928990Y476470D01*
X928989Y476470D01*
X928988Y476470D01*
X928500Y476535D01*
X927946Y476462D01*
X927944Y476461D01*
X927944Y476461D01*
X927456Y476397D01*
X926939Y476183D01*
X926938Y476183D01*
X926937Y476182D01*
X926483Y475994D01*
X926040Y475654D01*
X926038Y475653D01*
X926037Y475652D01*
X925647Y475353D01*
X925307Y474909D01*
X925306Y474908D01*
X925305Y474908D01*
X925006Y474517D01*
X924792Y474001D01*
X924792Y474000D01*
X924791Y473999D01*
X924603Y473544D01*
X924530Y472990D01*
X924530Y472989D01*
X924530Y472988D01*
X924465Y472500D01*
X924538Y471946D01*
X924539Y471945D01*
X924539Y471944D01*
X924603Y471456D01*
X924817Y470939D01*
X924817Y470938D01*
X924818Y470937D01*
X925006Y470483D01*
X925181Y470255D01*
X925181Y470254D01*
X925190Y470234D01*
X925197Y470214D01*
X925086Y469985D01*
X925055Y469938D01*
X925023Y469900D01*
X925019Y469896D01*
X924986Y469866D01*
X924847Y469750D01*
X922432D01*
X917932Y474250D01*
X901598D01*
X901597Y474256D01*
X901597Y474257D01*
X901594Y474278D01*
X901593Y474300D01*
Y480880D01*
X894092D01*
Y474300D01*
X894092Y474287D01*
X894091Y474275D01*
X894090Y474265D01*
X894088Y474253D01*
X894087Y474250D01*
X891232D01*
X891104Y474384D01*
X890980Y474854D01*
X891276Y475239D01*
X891460Y475683D01*
X891461Y475687D01*
X891463Y475691D01*
X891654Y476151D01*
X891716Y476628D01*
X891717Y476632D01*
X891717Y476636D01*
X891782Y477130D01*
X891720Y477607D01*
X891719Y477611D01*
X891718Y477615D01*
X891654Y478109D01*
X891469Y478553D01*
X891468Y478557D01*
X891466Y478561D01*
X891276Y479021D01*
X890983Y479403D01*
X890980Y479406D01*
X890977Y479410D01*
X890674Y479804D01*
X890293Y480097D01*
X890290Y480100D01*
X890286Y480103D01*
X889891Y480406D01*
X889447Y480590D01*
X889443Y480591D01*
X889439Y480593D01*
X888979Y480783D01*
X888502Y480846D01*
X888498Y480847D01*
X888494Y480847D01*
X888000Y480912D01*
D02*
G37*
%LPD*%
G36*
X808000Y469000D02*
Y468000D01*
X809000Y467000D01*
X811500D01*
X812500Y466000D01*
Y461000D01*
X814000Y459500D01*
X818000D01*
X819000Y460500D01*
X835500D01*
X838000Y463000D01*
X844500D01*
X845000Y462500D01*
Y441500D01*
X844500Y441000D01*
X838000D01*
X831500Y447500D01*
X812000D01*
X807000Y452500D01*
Y453500D01*
X806300Y454200D01*
Y469300D01*
X806500Y469500D01*
X807500D01*
X808000Y469000D01*
D02*
G37*
G36*
X785500Y446000D02*
Y440500D01*
X786500Y439500D01*
Y437000D01*
X786000Y436500D01*
X778500D01*
X778000Y437000D01*
Y446000D01*
X778500Y446500D01*
X785000D01*
X785500Y446000D01*
D02*
G37*
G36*
X803500Y449500D02*
Y448000D01*
X803000Y447500D01*
Y441000D01*
X804000Y440000D01*
X808500D01*
X809000Y439500D01*
Y437000D01*
X808500Y436500D01*
X800000D01*
X799000Y437500D01*
Y449500D01*
X799500Y450000D01*
X803000D01*
X803500Y449500D01*
D02*
G37*
G36*
X898000Y257500D02*
X918500D01*
X919000Y257000D01*
Y249500D01*
X918500Y249000D01*
X894000D01*
X885500Y257500D01*
X878500D01*
X877500Y258500D01*
Y267500D01*
X878500Y268500D01*
X887000D01*
X898000Y257500D01*
D02*
G37*
G36*
X861000Y268000D02*
Y257500D01*
X862500Y256000D01*
X885000D01*
X894000Y247000D01*
X928500D01*
X931000Y249500D01*
Y256000D01*
X932000Y257000D01*
X938000D01*
X939000Y256000D01*
Y241500D01*
X936500Y239000D01*
X886000D01*
X877000Y248000D01*
X855500D01*
X852000Y251500D01*
Y267500D01*
X853500Y269000D01*
X860000D01*
X861000Y268000D01*
D02*
G37*
G36*
X769000Y465000D02*
X780500D01*
X786000Y459500D01*
X792000D01*
X792500Y459000D01*
Y452000D01*
X792000Y451500D01*
X747000D01*
X740500Y458000D01*
Y466500D01*
X745000Y471000D01*
X763000D01*
X769000Y465000D01*
D02*
G37*
G36*
X867000Y374000D02*
Y366000D01*
X868000Y365000D01*
Y358500D01*
X866000Y356500D01*
X863000D01*
X861000Y358500D01*
Y364000D01*
X858500Y366500D01*
X852500D01*
X851500Y367500D01*
Y374500D01*
X852000Y375000D01*
X866000D01*
X867000Y374000D01*
D02*
G37*
G36*
X890500Y378500D02*
X895000D01*
X895500Y378000D01*
Y364000D01*
X888500Y357000D01*
X882500D01*
X881500Y358000D01*
Y365000D01*
X883500Y367000D01*
Y375000D01*
X879500Y379000D01*
X875500D01*
X875000Y379500D01*
Y383500D01*
X875500Y384000D01*
X885000D01*
X890500Y378500D01*
D02*
G37*
G36*
X977500Y366000D02*
X992500D01*
X993000Y365500D01*
Y355500D01*
X992500Y355000D01*
X986500D01*
X986000Y355500D01*
Y359500D01*
X984500Y361000D01*
X977000D01*
X974500Y363500D01*
Y366000D01*
X973500Y367000D01*
Y368000D01*
X974000Y368500D01*
X975000D01*
X977500Y366000D01*
D02*
G37*
G36*
X817000Y394000D02*
X841500D01*
X847000Y388500D01*
Y363000D01*
X847500Y362500D01*
Y358000D01*
X846000Y356500D01*
X839000D01*
X838000Y357500D01*
Y378500D01*
X834500Y382000D01*
X785500D01*
X780500Y387000D01*
Y397500D01*
X782000Y399000D01*
X812000D01*
X817000Y394000D01*
D02*
G37*
G36*
X920500Y373000D02*
Y371500D01*
X919500Y370500D01*
Y369000D01*
X920300Y368200D01*
Y367500D01*
X920100Y367300D01*
X918200D01*
X916500Y369000D01*
X913000D01*
Y372500D01*
X914500Y374000D01*
X919500D01*
X920500Y373000D01*
D02*
G37*
G36*
X848000Y352500D02*
Y345000D01*
X845500Y342500D01*
Y335000D01*
X846000Y334500D01*
X852500D01*
X855000Y337000D01*
X859500D01*
X860000Y336500D01*
Y307000D01*
X863500Y303500D01*
X865000D01*
X867000Y301500D01*
Y300000D01*
X863500D01*
X862000Y298500D01*
Y296000D01*
X863000Y295000D01*
X866500D01*
X867500Y294000D01*
Y293000D01*
X865500Y291000D01*
X852000D01*
X850500Y292500D01*
Y319000D01*
X848500Y321000D01*
X798500D01*
X797500Y322000D01*
Y329000D01*
X798500Y330000D01*
X835000D01*
X836500Y331500D01*
Y352500D01*
X837500Y353500D01*
X847000D01*
X848000Y352500D01*
D02*
G37*
G36*
X683500Y375200D02*
Y372850D01*
X683499Y372828D01*
X683496Y372807D01*
X683491Y372785D01*
X683485Y372765D01*
X683476Y372744D01*
X683466Y372725D01*
X683455Y372707D01*
X683441Y372690D01*
X683427Y372673D01*
X683411Y372659D01*
X683393Y372645D01*
X683375Y372634D01*
X683356Y372624D01*
X683335Y372615D01*
X683315Y372609D01*
X683293Y372604D01*
X683272Y372601D01*
X683250Y372600D01*
X681750D01*
Y367400D01*
X683250D01*
X683272Y367399D01*
X683293Y367396D01*
X683315Y367391D01*
X683335Y367385D01*
X683356Y367376D01*
X683375Y367366D01*
X683393Y367355D01*
X683411Y367341D01*
X683427Y367327D01*
X683441Y367311D01*
X683455Y367293D01*
X683466Y367275D01*
X683476Y367255D01*
X683485Y367235D01*
X683491Y367214D01*
X683496Y367193D01*
X683499Y367172D01*
X683500Y367150D01*
Y366871D01*
X683499Y366849D01*
X683496Y366828D01*
X683491Y366806D01*
X683485Y366785D01*
X683476Y366765D01*
X683466Y366746D01*
X683455Y366727D01*
X683441Y366710D01*
X683427Y366694D01*
X683410Y366679D01*
X683393Y366666D01*
X683389Y366663D01*
X683389Y366663D01*
X683248Y366560D01*
X683117Y366445D01*
X682996Y366319D01*
X682887Y366183D01*
X682790Y366038D01*
X682706Y365885D01*
X682636Y365725D01*
X682580Y365560D01*
X682538Y365390D01*
X682512Y365218D01*
X682500Y365044D01*
X682504Y364869D01*
X682523Y364696D01*
X682557Y364525D01*
X682606Y364357D01*
X682669Y364194D01*
X682746Y364038D01*
X682786Y363969D01*
X682786D01*
X682796Y363950D01*
X682805Y363930D01*
X682812Y363909D01*
X682817Y363888D01*
X682821Y363866D01*
X682822Y363844D01*
X682821Y363823D01*
X682819Y363801D01*
X682815Y363780D01*
X682808Y363759D01*
X682800Y363738D01*
X682791Y363719D01*
X682779Y363700D01*
X682766Y363683D01*
X682752Y363666D01*
X682749Y363663D01*
X677586Y358500D01*
X665914D01*
X664914Y359500D01*
X652186D01*
X651685Y359000D01*
X650000D01*
X649500Y358500D01*
Y358100D01*
X649400Y358000D01*
Y353000D01*
X649500Y352900D01*
Y352100D01*
X649400Y352000D01*
Y347000D01*
X650500D01*
X651000Y346500D01*
Y345500D01*
X649500Y344000D01*
X646415D01*
X645500Y344914D01*
Y346500D01*
X646000Y347000D01*
X647100D01*
Y352000D01*
X647000Y352100D01*
Y352900D01*
X647100Y353000D01*
Y358000D01*
X647000Y358100D01*
Y361086D01*
X647414Y361500D01*
X674914D01*
X676429Y363014D01*
X676548Y363050D01*
X676610Y363038D01*
X676610Y363038D01*
X676782Y363012D01*
X676956Y363000D01*
X677131Y363004D01*
X677304Y363023D01*
X677475Y363057D01*
X677643Y363106D01*
X677806Y363169D01*
X677962Y363246D01*
X678111Y363337D01*
X678252Y363440D01*
X678383Y363555D01*
X678504Y363681D01*
X678613Y363817D01*
X678710Y363962D01*
X678794Y364115D01*
X678864Y364275D01*
X678920Y364440D01*
X678962Y364610D01*
X678988Y364782D01*
X679000Y364956D01*
X678996Y365131D01*
X678977Y365304D01*
X678943Y365475D01*
X678894Y365643D01*
X678831Y365806D01*
X678754Y365962D01*
X678663Y366111D01*
X678560Y366252D01*
X678445Y366383D01*
X678423Y366406D01*
X678394Y366438D01*
X678367Y366473D01*
X678344Y366510D01*
X678324Y366548D01*
X678308Y366589D01*
X678295Y366631D01*
X678286Y366673D01*
X678280Y366717D01*
X678279Y366760D01*
X678281Y366804D01*
X678287Y366847D01*
X678297Y366889D01*
X678310Y366931D01*
X678327Y366971D01*
X678347Y367010D01*
X678371Y367046D01*
X678398Y367081D01*
X678425Y367111D01*
X678500Y367186D01*
Y367253D01*
X678647Y367400D01*
X680250D01*
Y372600D01*
X678750D01*
X678728Y372601D01*
X678707Y372604D01*
X678686Y372609D01*
X678665Y372615D01*
X678645Y372624D01*
X678625Y372634D01*
X678607Y372645D01*
X678589Y372659D01*
X678573Y372673D01*
X678559Y372690D01*
X678545Y372707D01*
X678534Y372725D01*
X678524Y372744D01*
X678515Y372765D01*
X678509Y372785D01*
X678504Y372807D01*
X678501Y372828D01*
X678500Y372850D01*
Y375791D01*
X679000Y376291D01*
Y376750D01*
X679001Y376772D01*
X679004Y376793D01*
X679005Y376800D01*
X681900D01*
X683500Y375200D01*
D02*
G37*
G36*
X872000Y396000D02*
Y392500D01*
X873500Y391000D01*
Y378500D01*
X874500Y377500D01*
X878000D01*
X880500Y375000D01*
Y367500D01*
X879500Y366500D01*
X870500D01*
X869500Y367500D01*
Y383500D01*
X869000Y384000D01*
X865000D01*
X864500Y384500D01*
Y385500D01*
X865000Y386000D01*
X869000D01*
X869500Y386500D01*
Y391000D01*
X868500Y392000D01*
X866000D01*
X865500Y392500D01*
Y395500D01*
X866500Y396500D01*
X871500D01*
X872000Y396000D01*
D02*
G37*
G36*
X891500Y457000D02*
Y441000D01*
X894500Y438000D01*
X900500D01*
X904000Y434500D01*
Y407000D01*
X905900Y405100D01*
Y357900D01*
X897500Y349500D01*
X895500D01*
X892000Y346000D01*
X883500D01*
X880500Y349000D01*
Y353500D01*
X881500Y354500D01*
X887500D01*
X897000Y364000D01*
Y397500D01*
X893500Y401000D01*
Y426000D01*
X892000Y427500D01*
X886500D01*
X884000Y430000D01*
Y457000D01*
X885500Y458500D01*
X890000D01*
X891500Y457000D01*
D02*
G37*
G36*
X963000Y335000D02*
X965500D01*
X969700Y330800D01*
Y319500D01*
X967700Y317500D01*
X964000D01*
X963500Y318000D01*
Y327000D01*
X961300Y329200D01*
Y335400D01*
X961400Y335500D01*
X962500D01*
X963000Y335000D01*
D02*
G37*
G36*
X779000Y357500D02*
Y332000D01*
X781100Y329900D01*
X790600D01*
X791000Y329500D01*
Y322000D01*
X790000Y321000D01*
X772500D01*
X767000Y326500D01*
Y358000D01*
X767500Y358500D01*
X778000D01*
X779000Y357500D01*
D02*
G37*
G36*
X926000Y328500D02*
Y307000D01*
X925000Y306000D01*
X919000D01*
X918500Y306500D01*
Y327500D01*
X920000Y329000D01*
X925500D01*
X926000Y328500D01*
D02*
G37*
G36*
X915500Y325500D02*
Y317000D01*
X914500Y316000D01*
X911500D01*
X910500Y315000D01*
X868000D01*
X867500Y315500D01*
Y319000D01*
X868000Y319500D01*
X904500D01*
X911000Y326000D01*
X915000D01*
X915500Y325500D01*
D02*
G37*
G36*
X899000Y347000D02*
Y337500D01*
X898500Y337000D01*
X894500D01*
X894000Y337500D01*
Y345500D01*
X896000Y347500D01*
X898500D01*
X899000Y347000D01*
D02*
G37*
G36*
X920000Y347500D02*
Y342000D01*
X919500Y341500D01*
X918000D01*
X917000Y342500D01*
X913000D01*
X912500Y343000D01*
Y347500D01*
X913500Y348500D01*
X919000D01*
X920000Y347500D01*
D02*
G37*
G36*
X920500Y366200D02*
Y365500D01*
X918250Y363250D01*
Y355250D01*
X911500Y348500D01*
Y341000D01*
X912500Y340000D01*
X917000D01*
X917500Y340500D01*
X927000D01*
X927500Y340000D01*
Y339500D01*
X923500Y335500D01*
X916500D01*
X915500Y334500D01*
Y330500D01*
X913000Y328000D01*
X911000D01*
X903500Y320500D01*
X880000D01*
X877500Y323000D01*
Y336000D01*
X876500Y337000D01*
X863000D01*
X861500Y338500D01*
X853500D01*
X852500Y337500D01*
X849000D01*
X848500Y338000D01*
Y343000D01*
X851000Y345500D01*
X858000D01*
X861000Y348500D01*
Y352500D01*
X862000Y353500D01*
X867000D01*
X868000Y352500D01*
Y348500D01*
X871000Y345500D01*
X880000D01*
X884000Y341500D01*
Y329000D01*
X885000Y328000D01*
X901500D01*
X906000Y332500D01*
Y351000D01*
X911000Y356000D01*
Y365500D01*
X911800Y366300D01*
X920400D01*
X920500Y366200D01*
D02*
G37*
G36*
X890000Y336500D02*
Y332500D01*
X891000Y331500D01*
Y329500D01*
X890500Y329000D01*
X885500D01*
X885000Y329500D01*
Y336500D01*
X885500Y337000D01*
X889500D01*
X890000Y336500D01*
D02*
G37*
G36*
X857000Y445500D02*
Y440500D01*
Y429500D01*
Y418000D01*
X856500Y417500D01*
X848000D01*
X847000Y418500D01*
Y429500D01*
X845500Y431000D01*
X838000D01*
X836000Y429000D01*
Y426000D01*
X835000Y425000D01*
X830500D01*
X829500Y426000D01*
Y432000D01*
X830500Y433000D01*
X836500D01*
X837500Y434000D01*
X845500D01*
X847000Y435500D01*
Y440500D01*
Y445500D01*
X847700Y446200D01*
X856300D01*
X857000Y445500D01*
D02*
G37*
G36*
X848000Y317500D02*
Y287500D01*
X853500Y282000D01*
X885500D01*
X886000Y281500D01*
Y278000D01*
X885500Y277500D01*
X845000D01*
X837500Y285000D01*
Y318000D01*
X838500Y319000D01*
X846500D01*
X848000Y317500D01*
D02*
G37*
G36*
X882000Y458500D02*
Y405500D01*
X880500Y404000D01*
X868000D01*
X867000Y403000D01*
X860000D01*
X859000Y404000D01*
Y428500D01*
X859500Y429000D01*
X868500D01*
X870500Y431000D01*
Y449000D01*
X867500Y452000D01*
X859500D01*
X858000Y453500D01*
Y462500D01*
X858500Y463000D01*
X877500D01*
X882000Y458500D01*
D02*
G37*
G36*
X892500Y423500D02*
Y412000D01*
X891000Y410500D01*
X885500D01*
X884500Y411500D01*
Y424500D01*
X885000Y425000D01*
X891000D01*
X892500Y423500D01*
D02*
G37*
G36*
X811000Y446000D02*
X817500D01*
X818000Y445500D01*
Y429000D01*
X817500Y428500D01*
X812500D01*
X811000Y430000D01*
Y440000D01*
X809500Y441500D01*
X807000D01*
X806000Y442500D01*
Y446000D01*
X806500Y446500D01*
X810500D01*
X811000Y446000D01*
D02*
G37*
G36*
X929000Y455000D02*
X980500D01*
X993500Y442000D01*
Y432000D01*
X990500Y429000D01*
X983000D01*
X981500Y430500D01*
Y438000D01*
X980000Y439500D01*
X909000D01*
X907000Y441500D01*
Y457000D01*
X902500Y461500D01*
X884000D01*
X882500Y463000D01*
Y468000D01*
X883500Y469000D01*
X915000D01*
X929000Y455000D01*
D02*
G37*
G36*
X792000Y449500D02*
Y422500D01*
X791000Y421500D01*
X780500D01*
X780000Y422000D01*
Y423000D01*
X780500Y423500D01*
X788000D01*
X788500Y424000D01*
Y447000D01*
X788000Y447500D01*
X777000D01*
X775500Y446000D01*
Y367000D01*
X774500Y366000D01*
X768000D01*
X767000Y367000D01*
Y445500D01*
X772000Y450500D01*
X791000D01*
X792000Y449500D01*
D02*
G37*
G36*
X837500Y439500D02*
X844500D01*
X845000Y439000D01*
Y436000D01*
X837000D01*
X836000Y435000D01*
X829500D01*
X827500Y433000D01*
Y424000D01*
X827000Y423500D01*
X821000D01*
X820500Y424000D01*
Y443500D01*
X821000Y444000D01*
X833000D01*
X837500Y439500D01*
D02*
G37*
G36*
X845000Y415500D02*
X846000Y414500D01*
Y402000D01*
X844000Y400000D01*
X820500D01*
X820000Y400500D01*
Y406000D01*
X820500Y406500D01*
X831500D01*
X835500Y410500D01*
Y423500D01*
X837500Y425500D01*
Y428000D01*
X838000Y428500D01*
X845000D01*
Y415500D01*
D02*
G37*
G36*
X863500Y382000D02*
X867500D01*
X868000Y381500D01*
Y378000D01*
X867000Y377000D01*
X862000D01*
X859000Y380000D01*
X852500D01*
X852000Y380500D01*
Y385000D01*
X852500Y385500D01*
X860000D01*
X863500Y382000D01*
D02*
G37*
G36*
X986500Y414000D02*
Y382000D01*
X985500Y381000D01*
X982500D01*
X982000Y381500D01*
X976500D01*
X976000Y381000D01*
X975414D01*
X975414Y381000D01*
X964000D01*
X963500Y381500D01*
X960500D01*
X960000Y382000D01*
Y382196D01*
X960804Y383000D01*
X962414D01*
X964814Y385400D01*
X979900D01*
X981500Y387000D01*
Y399500D01*
X980000Y401000D01*
X977500D01*
X974500Y404000D01*
X965000D01*
X964500Y403500D01*
Y397500D01*
X963000Y396000D01*
Y389000D01*
X961000Y387000D01*
X960000D01*
X955500Y382500D01*
X954500D01*
X953000Y384000D01*
Y391000D01*
X953500Y391500D01*
X958000D01*
X958500Y392000D01*
Y398500D01*
X958000Y399000D01*
X948500D01*
X947500Y400000D01*
Y408500D01*
X946500Y409500D01*
X932000D01*
X931000Y408500D01*
Y400500D01*
X931500Y400000D01*
X935500D01*
X936500Y399000D01*
X941000D01*
X942000Y398000D01*
Y387000D01*
X945000Y384000D01*
X947500D01*
X948500Y383000D01*
Y382000D01*
X948000Y381500D01*
X939500D01*
Y385000D01*
X937000Y387500D01*
Y390000D01*
X935500Y391500D01*
X931000D01*
X930500Y391000D01*
X929000D01*
X928000Y392000D01*
Y409500D01*
X931500Y413000D01*
X941000D01*
X945000Y417000D01*
X959000D01*
X960500Y418500D01*
X982000D01*
X986500Y414000D01*
D02*
G37*
G36*
X660000Y388500D02*
Y377500D01*
X659500Y377000D01*
Y373500D01*
X658000Y372000D01*
Y368500D01*
X657500Y368000D01*
X647300D01*
X645500Y369800D01*
Y374000D01*
X650000Y378500D01*
X651500D01*
X655500Y382500D01*
Y388500D01*
X656000Y389000D01*
X659500D01*
X660000Y388500D01*
D02*
G37*
G36*
X963000Y380000D02*
X975000D01*
X976300Y378700D01*
X990300D01*
X991000Y378000D01*
Y370000D01*
X990000Y369000D01*
X978000D01*
X977500Y369500D01*
X973100D01*
X972900Y369300D01*
X966500D01*
X966000Y369800D01*
Y371500D01*
X963500Y374000D01*
X961700D01*
X961300Y374400D01*
Y379800D01*
X962000Y380500D01*
X962500D01*
X963000Y380000D01*
D02*
G37*
G36*
X732000Y399000D02*
X760500D01*
X761000Y398500D01*
Y387000D01*
X760000Y386000D01*
X719500D01*
X705500Y400000D01*
X633000D01*
X616500Y383500D01*
Y322500D01*
X619500Y319500D01*
X628500D01*
X629000Y319000D01*
Y312600D01*
X628600Y312200D01*
X598500D01*
X598000Y312700D01*
Y392000D01*
X623000Y417000D01*
X714000D01*
X732000Y399000D01*
D02*
G37*
G36*
X885500Y396000D02*
Y388000D01*
X885000Y387500D01*
X875500D01*
X875000Y388000D01*
Y396000D01*
X875500Y396500D01*
X885000D01*
X885500Y396000D01*
D02*
G37*
G36*
X896000Y388500D02*
Y382000D01*
X895500Y381500D01*
X889500D01*
X887500Y383500D01*
Y385500D01*
X889000Y387000D01*
X892000D01*
X894000Y389000D01*
X895500D01*
X896000Y388500D01*
D02*
G37*
G36*
X931000D02*
X935000D01*
X935500Y388000D01*
Y387000D01*
X938500Y384000D01*
Y381500D01*
X937500D01*
X936500Y382500D01*
X929500D01*
X928000Y384000D01*
Y388500D01*
X928500Y389000D01*
X930500D01*
X931000Y388500D01*
D02*
G37*
D10*
X914000Y317500D02*
D03*
X920000D02*
D03*
X662500Y370000D02*
D03*
X656500D02*
D03*
X920000Y272500D02*
D03*
X914000D02*
D03*
X838400Y337500D02*
D03*
X832400D02*
D03*
X920000Y277500D02*
D03*
X914000D02*
D03*
X920000Y282500D02*
D03*
X914000D02*
D03*
X890000Y390000D02*
D03*
X884000D02*
D03*
X920000Y312500D02*
D03*
X914000D02*
D03*
X920000Y287500D02*
D03*
X914000D02*
D03*
X807500Y445000D02*
D03*
X801500D02*
D03*
X690500Y370000D02*
D03*
X684500D02*
D03*
X677500D02*
D03*
X671500D02*
D03*
X861000Y420000D02*
D03*
X855000D02*
D03*
X790000Y445000D02*
D03*
X784000D02*
D03*
X965000Y322500D02*
D03*
X959000D02*
D03*
X983000Y397500D02*
D03*
X977000D02*
D03*
X983000Y389000D02*
D03*
X977000D02*
D03*
X790000Y337500D02*
D03*
X784000D02*
D03*
X823400Y372500D02*
D03*
X817400D02*
D03*
X800000D02*
D03*
X794000D02*
D03*
X815000Y337500D02*
D03*
X809000D02*
D03*
X826800D02*
D03*
X820800D02*
D03*
X811700Y372500D02*
D03*
X805700D02*
D03*
X835100D02*
D03*
X829100D02*
D03*
X802500Y337500D02*
D03*
X796500D02*
D03*
X917500Y422500D02*
D03*
X911500D02*
D03*
X930000D02*
D03*
X924000D02*
D03*
X942500D02*
D03*
X936500D02*
D03*
X952500Y321000D02*
D03*
X946500D02*
D03*
X955000Y422500D02*
D03*
X949000D02*
D03*
D11*
X864500Y475400D02*
D03*
Y469600D02*
D03*
X839500Y475400D02*
D03*
Y469600D02*
D03*
X859500Y475400D02*
D03*
Y469600D02*
D03*
X849500Y475400D02*
D03*
Y469600D02*
D03*
X833900Y477300D02*
D03*
Y471300D02*
D03*
X844500Y475500D02*
D03*
Y469500D02*
D03*
X959500Y303000D02*
D03*
Y297000D02*
D03*
X954500Y303000D02*
D03*
Y297000D02*
D03*
X949500Y303000D02*
D03*
Y297000D02*
D03*
X944500Y303000D02*
D03*
Y297000D02*
D03*
X644500Y355500D02*
D03*
Y349500D02*
D03*
X652000Y355500D02*
D03*
Y349500D02*
D03*
X657000Y355500D02*
D03*
Y349500D02*
D03*
X854500Y475500D02*
D03*
Y469500D02*
D03*
X694500Y355500D02*
D03*
Y349500D02*
D03*
X699500Y355500D02*
D03*
Y349500D02*
D03*
X909500Y403000D02*
D03*
Y397000D02*
D03*
X874500Y339000D02*
D03*
Y333000D02*
D03*
X850500Y339000D02*
D03*
Y333000D02*
D03*
X903500Y340500D02*
D03*
Y334500D02*
D03*
D12*
X871900Y372500D02*
D03*
X864900D02*
D03*
X885500D02*
D03*
X878500D02*
D03*
X823000Y441000D02*
D03*
X816000D02*
D03*
X886500Y422500D02*
D03*
X879500D02*
D03*
X920500Y323500D02*
D03*
X913500D02*
D03*
X886500Y415000D02*
D03*
X879500D02*
D03*
X823000Y434000D02*
D03*
X816000D02*
D03*
D13*
X824500Y465000D02*
D03*
Y458000D02*
D03*
X600400Y314500D02*
D03*
Y307500D02*
D03*
X987000Y371000D02*
D03*
Y364000D02*
D03*
X832000Y465000D02*
D03*
Y458000D02*
D03*
X893000Y383500D02*
D03*
Y376500D02*
D03*
D14*
X729500Y258000D02*
D03*
Y252000D02*
D03*
X662000Y355500D02*
D03*
Y349500D02*
D03*
X832200Y437000D02*
D03*
Y431000D02*
D03*
X607000Y314000D02*
D03*
Y308000D02*
D03*
X607500Y277831D02*
D03*
Y271831D02*
D03*
X612000Y314000D02*
D03*
Y308000D02*
D03*
X592500Y277831D02*
D03*
Y271831D02*
D03*
X944500Y288000D02*
D03*
Y282000D02*
D03*
X949500Y288000D02*
D03*
Y282000D02*
D03*
X954500Y288000D02*
D03*
Y282000D02*
D03*
X959500Y288000D02*
D03*
Y282000D02*
D03*
X964500Y288000D02*
D03*
Y282000D02*
D03*
X979500Y370500D02*
D03*
Y364500D02*
D03*
X914500Y344000D02*
D03*
Y338000D02*
D03*
X933500Y404600D02*
D03*
Y398600D02*
D03*
X914500Y370500D02*
D03*
Y364500D02*
D03*
X955500Y400500D02*
D03*
Y394500D02*
D03*
X933500Y393000D02*
D03*
Y387000D02*
D03*
X979500Y383000D02*
D03*
Y377000D02*
D03*
X964500Y423000D02*
D03*
Y417000D02*
D03*
X974500Y423000D02*
D03*
Y417000D02*
D03*
X984500Y268000D02*
D03*
Y262000D02*
D03*
X974500Y268000D02*
D03*
Y262000D02*
D03*
X964500Y268000D02*
D03*
Y262000D02*
D03*
X954500Y268000D02*
D03*
Y262000D02*
D03*
X979500Y340500D02*
D03*
Y334500D02*
D03*
D15*
X618000Y277831D02*
D03*
X612000D02*
D03*
X920000Y307500D02*
D03*
X914000D02*
D03*
X603000Y277831D02*
D03*
X597000D02*
D03*
X920000Y302500D02*
D03*
X914000D02*
D03*
X920000Y297500D02*
D03*
X914000D02*
D03*
X920000Y292500D02*
D03*
X914000D02*
D03*
X901500Y442500D02*
D03*
X895500D02*
D03*
X890000Y395000D02*
D03*
X884000D02*
D03*
X876500D02*
D03*
X870500D02*
D03*
X987500Y357500D02*
D03*
X981500D02*
D03*
X872500Y325000D02*
D03*
X866500D02*
D03*
X903500Y346000D02*
D03*
X897500D02*
D03*
D16*
X872000Y407500D02*
D03*
X893500Y369000D02*
D03*
X649500Y375000D02*
D03*
X839500Y327500D02*
D03*
Y420000D02*
D03*
D17*
X861850Y408500D02*
D03*
X842150D02*
D03*
X861850Y457500D02*
D03*
X842150D02*
D03*
D18*
X862500Y442500D02*
D03*
Y437500D02*
D03*
Y432500D02*
D03*
Y427500D02*
D03*
X841500Y442500D02*
D03*
Y437500D02*
D03*
Y432500D02*
D03*
Y427500D02*
D03*
D19*
X852000Y435000D02*
D03*
D20*
X876618Y388740D02*
D03*
Y381260D02*
D03*
X866382Y388740D02*
D03*
Y385000D02*
D03*
Y381260D02*
D03*
D21*
X855700Y382500D02*
D03*
Y372500D02*
D03*
D22*
X866500Y331000D02*
D03*
Y339000D02*
D03*
X857500Y335000D02*
D03*
X896500Y331000D02*
D03*
Y339000D02*
D03*
X887500Y335000D02*
D03*
D23*
X949400Y405200D02*
D03*
Y389800D02*
D03*
X939600Y405200D02*
D03*
Y389800D02*
D03*
D24*
X969500Y400000D02*
D03*
Y389000D02*
D03*
D25*
X823500Y426417D02*
D03*
Y403583D02*
D03*
X915500Y433000D02*
D03*
Y253000D02*
D03*
X968500Y472500D02*
D03*
X789500Y350000D02*
D03*
X884500Y360000D02*
D03*
D26*
X872504Y315401D02*
D03*
Y312960D02*
D03*
Y310519D02*
D03*
Y308078D02*
D03*
Y305637D02*
D03*
Y303196D02*
D03*
Y300756D02*
D03*
Y298314D02*
D03*
Y295874D02*
D03*
Y293433D02*
D03*
Y290992D02*
D03*
Y288551D02*
D03*
Y286110D02*
D03*
Y283669D02*
D03*
D27*
X742000Y240689D02*
D03*
Y264311D02*
D03*
X767000Y240689D02*
D03*
Y264311D02*
D03*
X792000Y240689D02*
D03*
Y264311D02*
D03*
X817000Y240689D02*
D03*
Y264311D02*
D03*
X842000Y240689D02*
D03*
Y264311D02*
D03*
X867000Y240689D02*
D03*
Y264311D02*
D03*
D28*
X717457Y322319D02*
D03*
Y317988D02*
D03*
Y313657D02*
D03*
Y309327D02*
D03*
Y304996D02*
D03*
Y300665D02*
D03*
Y290823D02*
D03*
Y286492D02*
D03*
Y282161D02*
D03*
Y277831D02*
D03*
Y273500D02*
D03*
X624543Y322319D02*
D03*
Y317988D02*
D03*
Y313657D02*
D03*
Y309327D02*
D03*
Y304996D02*
D03*
Y300665D02*
D03*
Y290823D02*
D03*
Y286492D02*
D03*
Y282161D02*
D03*
Y277831D02*
D03*
Y273500D02*
D03*
D29*
X704465Y259130D02*
D03*
Y337870D02*
D03*
X700134Y259130D02*
D03*
Y337870D02*
D03*
X695803Y259130D02*
D03*
Y337870D02*
D03*
X691472Y259130D02*
D03*
Y337870D02*
D03*
X687142Y259130D02*
D03*
Y337870D02*
D03*
X682811Y259130D02*
D03*
Y337870D02*
D03*
X678480Y259130D02*
D03*
Y337870D02*
D03*
X671787Y259130D02*
D03*
Y337870D02*
D03*
X667457Y259130D02*
D03*
Y337870D02*
D03*
X663126Y259130D02*
D03*
Y337870D02*
D03*
X658795Y259130D02*
D03*
Y337870D02*
D03*
X654465Y259130D02*
D03*
Y337870D02*
D03*
X650134Y259130D02*
D03*
Y337870D02*
D03*
X645803Y259130D02*
D03*
Y337870D02*
D03*
X641472Y259130D02*
D03*
Y337870D02*
D03*
X637142Y259130D02*
D03*
Y337870D02*
D03*
D30*
X701118Y308539D02*
D03*
Y301847D02*
D03*
Y295153D02*
D03*
Y288461D02*
D03*
X694425Y308539D02*
D03*
Y301847D02*
D03*
Y295153D02*
D03*
Y288461D02*
D03*
X687732Y321925D02*
D03*
Y315232D02*
D03*
Y281768D02*
D03*
Y275075D02*
D03*
X681039Y321925D02*
D03*
Y315232D02*
D03*
Y281768D02*
D03*
Y275075D02*
D03*
X674346Y321925D02*
D03*
Y315232D02*
D03*
Y281768D02*
D03*
Y275075D02*
D03*
X667654Y321925D02*
D03*
Y315232D02*
D03*
Y281768D02*
D03*
Y275075D02*
D03*
X660961Y321925D02*
D03*
Y315232D02*
D03*
Y281768D02*
D03*
Y275075D02*
D03*
X654268Y321925D02*
D03*
Y315232D02*
D03*
Y281768D02*
D03*
Y275075D02*
D03*
X647575Y308539D02*
D03*
Y301847D02*
D03*
Y295153D02*
D03*
Y288461D02*
D03*
X640882Y308539D02*
D03*
Y301847D02*
D03*
Y295153D02*
D03*
Y288461D02*
D03*
D31*
X610000Y360000D02*
D03*
X629000D02*
D03*
D32*
X719750Y243550D02*
D03*
D33*
X710205Y464996D02*
D03*
X629299D02*
D03*
D34*
X693000Y383500D02*
D03*
X688000D02*
D03*
X683000D02*
D03*
X678000D02*
D03*
X673000D02*
D03*
X668000D02*
D03*
X663000D02*
D03*
X658000D02*
D03*
D35*
X807118Y466256D02*
D03*
X804559D02*
D03*
X802000D02*
D03*
X799441D02*
D03*
X796882D02*
D03*
D36*
X969638Y369764D02*
D03*
Y367795D02*
D03*
Y365827D02*
D03*
Y363858D02*
D03*
Y361890D02*
D03*
Y359921D02*
D03*
Y357953D02*
D03*
Y355984D02*
D03*
Y354016D02*
D03*
Y352047D02*
D03*
Y350079D02*
D03*
Y348110D02*
D03*
Y346142D02*
D03*
Y344173D02*
D03*
Y342205D02*
D03*
Y340236D02*
D03*
X924362Y369764D02*
D03*
Y367795D02*
D03*
Y365827D02*
D03*
Y363858D02*
D03*
Y361890D02*
D03*
Y359921D02*
D03*
Y357953D02*
D03*
Y355984D02*
D03*
Y354016D02*
D03*
Y352047D02*
D03*
Y350079D02*
D03*
Y348110D02*
D03*
Y346142D02*
D03*
Y344173D02*
D03*
Y342205D02*
D03*
Y340236D02*
D03*
D37*
X961764Y332362D02*
D03*
Y377638D02*
D03*
X959795Y332362D02*
D03*
Y377638D02*
D03*
X957827Y332362D02*
D03*
Y377638D02*
D03*
X955858Y332362D02*
D03*
Y377638D02*
D03*
X953890Y332362D02*
D03*
Y377638D02*
D03*
X951921Y332362D02*
D03*
Y377638D02*
D03*
X949953Y332362D02*
D03*
Y377638D02*
D03*
X947984Y332362D02*
D03*
Y377638D02*
D03*
X946016Y332362D02*
D03*
Y377638D02*
D03*
X944047Y332362D02*
D03*
Y377638D02*
D03*
X942079Y332362D02*
D03*
Y377638D02*
D03*
X940110Y332362D02*
D03*
Y377638D02*
D03*
X938142Y332362D02*
D03*
Y377638D02*
D03*
X936173Y332362D02*
D03*
Y377638D02*
D03*
X934205Y332362D02*
D03*
Y377638D02*
D03*
X932236Y332362D02*
D03*
Y377638D02*
D03*
D38*
X780500Y468000D02*
X784213Y464287D01*
X713000Y362500D02*
X717000D01*
X925500Y248750D02*
Y253000D01*
X784213Y464287D02*
X787925D01*
X948500Y458250D02*
Y462500D01*
X945500Y253000D02*
Y257250D01*
X964500Y413000D02*
Y417000D01*
X702000Y242500D02*
X706000D01*
X717000Y362500D02*
X721000D01*
X717000Y358500D02*
Y362500D01*
X698000Y242500D02*
X702000D01*
X949500Y278550D02*
Y282000D01*
X702000Y238500D02*
Y242500D01*
X944500Y278550D02*
Y282000D01*
X941250Y253000D02*
X945500D01*
X944250Y462500D02*
X948500D01*
X717000Y352500D02*
Y356500D01*
X787925Y477870D02*
Y482120D01*
X662000Y242500D02*
Y246500D01*
X717000Y372500D02*
Y376500D01*
X662000Y238500D02*
Y242500D01*
X816075Y473620D02*
Y477870D01*
X974500Y268000D02*
Y272500D01*
X713000Y372500D02*
X717000D01*
X945500Y248750D02*
Y253000D01*
X964500Y268000D02*
Y272500D01*
X787925Y464287D02*
X791500D01*
X925500Y253000D02*
Y257250D01*
X717000Y352500D02*
X721000D01*
X662000Y242500D02*
X666000D01*
X897843Y450843D02*
Y455870D01*
X895500Y448500D02*
X897843Y450843D01*
X895500Y442500D02*
Y448500D01*
X945500Y253000D02*
X949750D01*
X964500Y278550D02*
Y282000D01*
X984500Y268000D02*
Y272500D01*
X658000Y242500D02*
X662000D01*
X816075Y477870D02*
Y482120D01*
X948500Y462500D02*
X952750D01*
X787925Y464287D02*
Y468538D01*
X954500Y278550D02*
Y282000D01*
X921250Y253000D02*
X925500D01*
X959500Y278550D02*
Y282000D01*
X787925Y477870D02*
X790675D01*
X959000Y322500D02*
X959500Y323000D01*
Y327500D01*
X717000Y372500D02*
X721000D01*
X717000Y348500D02*
Y352500D01*
X974500Y413000D02*
Y417000D01*
X787925Y473620D02*
Y477870D01*
X713000Y352500D02*
X717000D01*
X862000Y390000D02*
X863260Y388740D01*
X866382D01*
X948500Y462500D02*
Y466750D01*
X813325Y477870D02*
X816075D01*
X752000Y288917D02*
Y293668D01*
X747250Y288917D02*
X752000D01*
Y284167D02*
Y288917D01*
X756750D01*
X955500Y423000D02*
Y433000D01*
D39*
X687732Y321925D02*
Y327000D01*
X681039Y321925D02*
X687732D01*
X836511Y466611D02*
X839500Y469600D01*
X833611Y466611D02*
X836511D01*
X796382Y461556D02*
X796882Y462056D01*
Y466256D01*
X832000Y465000D02*
X833611Y466611D01*
X796882Y466256D02*
Y471956D01*
D40*
X872504Y303196D02*
X891304D01*
X902000Y292500D01*
X914000D01*
X994500Y342500D02*
X1002000Y350000D01*
Y441500D01*
X981000Y462500D02*
X1002000Y441500D01*
X968500Y462500D02*
X981000D01*
X982500Y340500D02*
X984500Y342500D01*
X979500Y340500D02*
X982500D01*
X924000Y419000D02*
Y422500D01*
X919258Y414258D02*
X924000Y419000D01*
X919258Y380042D02*
Y414258D01*
Y380042D02*
X926500Y372800D01*
X928100D01*
X930100Y370800D01*
X931200D01*
X933000Y369000D01*
Y364500D02*
Y369000D01*
X930390Y361890D02*
X933000Y364500D01*
X924362Y361890D02*
X930390D01*
X933500Y404600D02*
X939000D01*
X939600Y405200D01*
X922236Y369764D02*
X924362D01*
X922000Y370000D02*
X922236Y369764D01*
X922000Y370000D02*
Y373500D01*
X919500Y376000D02*
X922000Y373500D01*
X916000Y376000D02*
X919500D01*
X914500Y377500D02*
X916000Y376000D01*
X796500Y335000D02*
Y337500D01*
X794000Y332500D02*
X796500Y335000D01*
X794000Y321121D02*
Y332500D01*
Y321121D02*
X799121Y316000D01*
X828000D01*
X829500Y317500D01*
X692000Y242500D02*
X696200Y246700D01*
X707500D01*
X713500Y252700D01*
Y267100D01*
X709500Y271100D02*
X713500Y267100D01*
X709500Y271100D02*
Y279505D01*
X712157Y282161D01*
X717457D01*
X664900Y355000D02*
X667000D01*
X664400Y355500D02*
X664900Y355000D01*
X662000Y355500D02*
X664400D01*
X924362Y359921D02*
X930921D01*
X934300Y363300D01*
Y369700D01*
X932000Y372000D02*
X934300Y369700D01*
X930800Y372000D02*
X932000D01*
X928700Y374100D02*
X930800Y372000D01*
X927200Y374100D02*
X928700D01*
X920758Y380542D02*
X927200Y374100D01*
X920758Y380542D02*
Y411758D01*
X928000Y419000D01*
X935400D01*
X936500Y420100D01*
Y422500D01*
X957000Y315000D02*
X959500Y312500D01*
X943500Y315000D02*
X957000D01*
X941000Y317500D02*
X943500Y315000D01*
X941000Y317500D02*
Y322000D01*
X943000Y324000D01*
X951500D01*
X955858Y328358D01*
Y332362D01*
X984500Y317500D02*
X992000Y325000D01*
Y346500D01*
X999500Y354000D01*
Y438500D01*
X980500Y457500D02*
X999500Y438500D01*
X963500Y457500D02*
X980500D01*
X958500Y462500D02*
X963500Y457500D01*
X829500Y350000D02*
X834500Y355000D01*
Y363000D01*
X829100Y368400D02*
X834500Y363000D01*
X829100Y368400D02*
Y372500D01*
X975500Y429200D02*
Y433000D01*
X974500Y428200D02*
X975500Y429200D01*
X974500Y423000D02*
Y428200D01*
X779200Y427500D02*
X783250D01*
X778500Y426800D02*
X779200Y427500D01*
X778500Y386000D02*
Y426800D01*
Y386000D02*
X784000Y380500D01*
X826500D01*
X829100Y377900D01*
Y372500D02*
Y377900D01*
X901000Y297500D02*
X909500D01*
X892863Y305637D02*
X901000Y297500D01*
X872504Y305637D02*
X892863D01*
X783250Y412500D02*
X789500D01*
X951921Y377638D02*
Y381438D01*
X948359Y385000D02*
X951921Y381438D01*
X946000Y385000D02*
X948359D01*
X944500Y386500D02*
X946000Y385000D01*
X944500Y386500D02*
Y400300D01*
X939600Y405200D02*
X944500Y400300D01*
X729500Y258000D02*
Y258150D01*
X735661Y264311D01*
X742000D01*
X952500Y319500D02*
X954500Y317500D01*
X952500Y319500D02*
Y321000D01*
X909500Y302500D02*
X914000D01*
X924362Y346142D02*
X930500D01*
X932362Y344280D01*
Y340838D02*
Y344280D01*
X928300Y336776D02*
X932362Y340838D01*
X928300Y326200D02*
Y336776D01*
Y326200D02*
X929000Y325500D01*
Y302000D02*
Y325500D01*
X927000Y300000D02*
X929000Y302000D01*
X916400Y300000D02*
X927000D01*
X914000Y297600D02*
X916400Y300000D01*
X914000Y297500D02*
Y297600D01*
X800000Y372500D02*
Y375000D01*
X799000Y376000D02*
X800000Y375000D01*
X789121Y376000D02*
X799000D01*
X774121Y361000D02*
X789121Y376000D01*
X729500Y361000D02*
X774121D01*
X724000Y366500D02*
X729500Y361000D01*
X710000Y366500D02*
X724000D01*
X704500Y361000D02*
X710000Y366500D01*
X702700Y361000D02*
X704500D01*
X699500Y357800D02*
X702700Y361000D01*
X699500Y355500D02*
Y357800D01*
X667000Y375000D02*
X668000Y376000D01*
Y383500D01*
X872504Y312960D02*
X910990D01*
X911450Y312500D01*
X914000D01*
X767000Y264311D02*
X770189Y267500D01*
X774500D01*
X934500Y312500D02*
X936500Y314500D01*
Y324000D01*
X940400Y327900D01*
X949291D01*
X949953Y328562D01*
Y332362D01*
X976500Y398000D02*
X977000Y397500D01*
X971500Y398000D02*
X976500D01*
X969500Y400000D02*
X971500Y398000D01*
X888000Y455870D02*
X888870D01*
X959500Y288000D02*
Y297000D01*
X954500Y288000D02*
Y297000D01*
X942000Y288000D02*
X944500D01*
X939500Y285500D02*
X942000Y288000D01*
X939500Y282000D02*
Y285500D01*
X923500Y266000D02*
X939500Y282000D01*
X901000Y266000D02*
X923500D01*
X891000Y276000D02*
X901000Y266000D01*
X783000Y276000D02*
X891000D01*
X774500Y267500D02*
X783000Y276000D01*
X969638Y359921D02*
X974079D01*
X976500Y357500D01*
Y355500D02*
Y357500D01*
Y355500D02*
X979000Y353000D01*
X992500D01*
X994500Y355000D01*
Y410000D01*
X984500Y420000D02*
X994500Y410000D01*
X970500Y420000D02*
X984500D01*
X967500Y423000D02*
X970500Y420000D01*
X964500Y423000D02*
X967500D01*
X677000Y365000D02*
Y367100D01*
X677500Y367600D01*
Y370000D01*
X870189Y267500D02*
X873000D01*
X867000Y264311D02*
X870189Y267500D01*
X965500Y253000D02*
Y256800D01*
X964500Y257800D02*
X965500Y256800D01*
X964500Y257800D02*
Y262000D01*
X959500Y303000D02*
Y304500D01*
X961000Y306000D01*
X962600D01*
X972500Y315900D01*
Y332500D01*
X967700Y337300D02*
X972500Y332500D01*
X965200Y337300D02*
X967700D01*
X962500Y340000D02*
X965200Y337300D01*
X962500Y340000D02*
Y349879D01*
X951000Y361379D02*
X962500Y349879D01*
X951000Y361379D02*
Y369000D01*
X947984Y372016D02*
X951000Y369000D01*
X947984Y372016D02*
Y377638D01*
X796500Y337500D02*
Y340500D01*
X794500Y342500D02*
X796500Y340500D01*
X794500Y342500D02*
Y355000D01*
X789500Y360000D02*
X794500Y355000D01*
X904000Y277500D02*
X914000D01*
X890508Y290992D02*
X904000Y277500D01*
X872504Y290992D02*
X890508D01*
X845189Y267500D02*
X848000D01*
X842000Y264311D02*
X845189Y267500D01*
X656900Y349500D02*
X657000D01*
X654465Y347065D02*
X656900Y349500D01*
X654465Y337870D02*
Y347065D01*
X978500Y357500D02*
X981500D01*
X974110Y361890D02*
X978500Y357500D01*
X969638Y361890D02*
X974110D01*
X965500Y429200D02*
Y433000D01*
X964500Y428200D02*
X965500Y429200D01*
X964500Y423000D02*
Y428200D01*
X914000Y302500D02*
Y302600D01*
X916400Y305000D01*
X926500D01*
X927500Y306000D01*
Y324500D01*
X927000Y325000D02*
X927500Y324500D01*
X927000Y325000D02*
Y337173D01*
X931162Y341335D01*
Y343538D01*
X930000Y344700D02*
X931162Y343538D01*
X928100Y344700D02*
X930000D01*
X927573Y344173D02*
X928100Y344700D01*
X924362Y344173D02*
X927573D01*
X652000Y242500D02*
Y249400D01*
X650134Y251266D02*
X652000Y249400D01*
X650134Y251266D02*
Y259130D01*
X972000Y262000D02*
X974500D01*
X970500Y263500D02*
X972000Y262000D01*
X970500Y263500D02*
Y271000D01*
X972000Y272500D01*
Y300000D01*
X977000Y305000D01*
Y321000D01*
X987000Y331000D01*
Y344400D01*
X986400Y345000D02*
X987000Y344400D01*
X979500Y345000D02*
X986400D01*
X978673Y344173D02*
X979500Y345000D01*
X969638Y344173D02*
X978673D01*
X985500Y253000D02*
Y256800D01*
X984500Y257800D02*
X985500Y256800D01*
X984500Y257800D02*
Y262000D01*
X888870Y455870D02*
X889000Y456000D01*
X944047Y358047D02*
Y377638D01*
X935500Y349500D02*
X944047Y358047D01*
X935500Y340582D02*
Y349500D01*
X930700Y335782D02*
X935500Y340582D01*
X930700Y327800D02*
Y335782D01*
Y327800D02*
X932000Y326500D01*
Y311000D02*
Y326500D01*
Y311000D02*
X936000Y307000D01*
X947000D01*
X949500Y304500D01*
Y303000D02*
Y304500D01*
X949000Y420100D02*
Y422500D01*
X947400Y418500D02*
X949000Y420100D01*
X937500Y418500D02*
X947400D01*
X936500Y417500D02*
X937500Y418500D01*
X929000Y417500D02*
X936500D01*
X922258Y410758D02*
X929000Y417500D01*
X922258Y380942D02*
Y410758D01*
Y380942D02*
X927800Y375400D01*
X929300D01*
X931500Y373200D01*
X932800D01*
X935600Y370400D01*
Y362100D02*
Y370400D01*
X931453Y357953D02*
X935600Y362100D01*
X924362Y357953D02*
X931453D01*
X980600Y262000D02*
X984500D01*
X979500Y263100D02*
X980600Y262000D01*
X979500Y263100D02*
Y277500D01*
X974500Y282500D02*
X979500Y277500D01*
X974500Y282500D02*
Y299500D01*
X978500Y303500D01*
Y319500D01*
X989500Y330500D01*
Y345000D01*
X987000Y347500D02*
X989500Y345000D01*
X975912Y347500D02*
X987000D01*
X975012Y346600D02*
X975912Y347500D01*
X973200Y346600D02*
X975012D01*
X972742Y346142D02*
X973200Y346600D01*
X969638Y346142D02*
X972742D01*
X909500Y392500D02*
Y397000D01*
X872504Y310519D02*
X907481D01*
X910500Y307500D01*
X914000D01*
X823400Y370100D02*
Y372500D01*
Y370100D02*
X829500Y364000D01*
Y360000D02*
Y364000D01*
X902096Y272500D02*
X914000D01*
X888486Y286110D02*
X902096Y272500D01*
X872504Y286110D02*
X888486D01*
X859400Y469600D02*
X859500D01*
X853000Y463200D02*
X859400Y469600D01*
X853000Y454000D02*
Y463200D01*
Y454000D02*
X856500Y450500D01*
X865621D01*
X869000Y447121D01*
Y433500D02*
Y447121D01*
X868000Y432500D02*
X869000Y433500D01*
X862500Y432500D02*
X868000D01*
X949953Y372047D02*
Y377638D01*
Y372047D02*
X952500Y369500D01*
Y362000D02*
Y369500D01*
Y362000D02*
X964000Y350500D01*
Y340500D02*
Y350500D01*
Y340500D02*
X966000Y338500D01*
X968500D01*
X974000Y333000D01*
Y315257D02*
Y333000D01*
X964500Y305757D02*
X974000Y315257D01*
X964500Y288000D02*
Y305757D01*
X968500Y400000D02*
X969500D01*
X964300Y395800D02*
X968500Y400000D01*
X964300Y388600D02*
Y395800D01*
X961350Y385650D02*
X964300Y388600D01*
X960069Y385650D02*
X961350D01*
X955858Y381438D02*
X960069Y385650D01*
X955858Y377638D02*
Y381438D01*
X792000Y264311D02*
X795189Y267500D01*
X799500D01*
X783250Y417500D02*
X789500D01*
X819500Y360000D02*
X824500Y355000D01*
Y345000D02*
Y355000D01*
X820800Y341300D02*
X824500Y345000D01*
X820800Y337500D02*
Y341300D01*
X959500Y372500D02*
X959795Y372795D01*
Y377638D01*
X645803Y250303D02*
Y259130D01*
X642000Y246500D02*
X645803Y250303D01*
X642000Y242500D02*
Y246500D01*
X790000Y335000D02*
Y337500D01*
Y335000D02*
X792500Y332500D01*
Y320500D02*
Y332500D01*
Y320500D02*
X798500Y314500D01*
X827500D01*
X829500Y312500D01*
X942079Y358000D02*
Y377638D01*
X934000Y349921D02*
X942079Y358000D01*
X934000Y340779D02*
Y349921D01*
X929500Y336279D02*
X934000Y340779D01*
X929500Y327000D02*
Y336279D01*
Y327000D02*
X930500Y326000D01*
Y310000D02*
Y326000D01*
Y310000D02*
X937500Y303000D01*
X944500D01*
X802000Y460000D02*
Y466256D01*
X794000Y452000D02*
X802000Y460000D01*
X794000Y422000D02*
Y452000D01*
X789500Y417500D02*
X794000Y422000D01*
X862500Y437500D02*
X866800D01*
X867500Y438200D01*
Y446500D01*
X865000Y449000D02*
X867500Y446500D01*
X855500Y449000D02*
X865000D01*
X851500Y453000D02*
X855500Y449000D01*
X851500Y453000D02*
Y464500D01*
X854500Y467500D01*
Y469500D01*
X694500Y355500D02*
Y358000D01*
X696500Y360000D01*
X699000D01*
X701500Y362500D01*
X704000D01*
X709500Y368000D01*
X725000D01*
X730500Y362500D01*
X773500D01*
X788500Y377500D01*
X804000D01*
X805700Y375800D01*
Y372500D02*
Y375800D01*
X854450Y372500D02*
X855700D01*
X699500Y347200D02*
Y349500D01*
Y347200D02*
X700134Y346566D01*
Y337870D02*
Y346566D01*
X954500Y262000D02*
X957500D01*
X959500Y264000D01*
Y271500D01*
X963500Y275500D01*
X966500D01*
X968500Y277500D01*
Y306500D01*
X969500Y307500D01*
X804559Y460059D02*
Y466256D01*
X795500Y451000D02*
X804559Y460059D01*
X795500Y418500D02*
Y451000D01*
X789500Y412500D02*
X795500Y418500D01*
X650134Y337870D02*
Y343170D01*
X652000Y345036D01*
Y349500D01*
X969500Y389000D02*
X977000D01*
X938000Y314000D02*
X939500Y312500D01*
X938000Y314000D02*
Y323100D01*
X941500Y326600D01*
X950100D01*
X951921Y328421D01*
Y332362D01*
X699500Y252500D02*
X700134Y253134D01*
Y259130D01*
X935500Y429200D02*
Y433000D01*
Y429200D02*
X936500Y428200D01*
Y422500D02*
Y428200D01*
X949500Y288000D02*
Y297000D01*
X969638Y357953D02*
X973547D01*
X975000Y356500D01*
Y354500D02*
Y356500D01*
Y354500D02*
X978500Y351000D01*
X993500D01*
X997000Y354500D01*
Y411000D01*
X985000Y423000D02*
X997000Y411000D01*
X974500Y423000D02*
X985000D01*
X862500Y442500D02*
X864500D01*
X866000Y444000D01*
Y445000D01*
X863500Y447500D02*
X866000Y445000D01*
X854500Y447500D02*
X863500D01*
X850000Y452000D02*
X854500Y447500D01*
X850000Y452000D02*
Y466000D01*
X849500Y466500D02*
X850000Y466000D01*
X849500Y466500D02*
Y469600D01*
X684500Y365000D02*
Y370000D01*
X872504Y295874D02*
X877554D01*
X878428Y295000D01*
X890000D01*
X902500Y282500D01*
X914000D01*
X674500Y362500D02*
X677000Y365000D01*
X647000Y362500D02*
X674500D01*
X644500Y360000D02*
X647000Y362500D01*
X644500Y355500D02*
Y360000D01*
X964500Y262000D02*
X967500D01*
X968500Y263000D01*
Y271500D01*
X970000Y273000D01*
Y303000D01*
X974500Y307500D01*
X957500Y288000D02*
X959500D01*
X957000Y287500D02*
X957500Y288000D01*
X957000Y277500D02*
Y287500D01*
X952000Y272500D02*
X957000Y277500D01*
X936364Y272500D02*
X952000D01*
X925364Y261500D02*
X936364Y272500D01*
X899136Y261500D02*
X925364D01*
X889136Y271500D02*
X899136Y261500D01*
X853500Y271500D02*
X889136D01*
X849500Y267500D02*
X853500Y271500D01*
X848000Y267500D02*
X849500D01*
X924362Y363858D02*
X929858D01*
X931700Y365700D01*
Y368270D01*
X930370Y369600D02*
X931700Y368270D01*
X929500Y369600D02*
X930370D01*
X927500Y371600D02*
X929500Y369600D01*
X925900Y371600D02*
X927500D01*
X917758Y379742D02*
X925900Y371600D01*
X917758Y379742D02*
Y411742D01*
X911500Y418000D02*
X917758Y411742D01*
X911500Y418000D02*
Y422500D01*
X949400Y389800D02*
Y391400D01*
X950500Y392500D01*
X953500D01*
X955500Y394500D01*
X946016Y371484D02*
Y377638D01*
Y371484D02*
X949500Y368000D01*
Y360757D02*
Y368000D01*
Y360757D02*
X961000Y349257D01*
Y339500D02*
Y349257D01*
Y339500D02*
X964500Y336000D01*
X967000D01*
X971000Y332000D01*
Y316500D02*
Y332000D01*
X962500Y308000D02*
X971000Y316500D01*
X960500Y308000D02*
X962500D01*
X958500Y306000D02*
X960500Y308000D01*
X956000Y306000D02*
X958500D01*
X954500Y304500D02*
X956000Y306000D01*
X954500Y303000D02*
Y304500D01*
X924500Y382500D02*
X926500Y380500D01*
X931600D01*
X932236Y379864D01*
Y377638D02*
Y379864D01*
X645803Y337870D02*
Y343197D01*
X644500Y344500D02*
X645803Y343197D01*
X644500Y344500D02*
Y349500D01*
X809500Y360000D02*
Y363800D01*
X805700Y367600D02*
X809500Y363800D01*
X805700Y367600D02*
Y372500D01*
X914000Y287500D02*
Y292500D01*
X952500Y321000D02*
Y322500D01*
X952650D01*
X957200Y327050D01*
Y328500D01*
X957827Y329127D01*
Y332362D01*
X724500Y257500D02*
X725000Y258000D01*
X729500D01*
X657000Y355500D02*
X662000D01*
X683000Y377200D02*
Y383500D01*
Y377200D02*
X684500Y375700D01*
Y370000D02*
Y375700D01*
X899500Y302500D02*
X909500D01*
X893922Y308078D02*
X899500Y302500D01*
X872504Y308078D02*
X893922D01*
X799500Y267500D02*
X806500Y274500D01*
X890379D01*
X900379Y264500D01*
X924121D01*
X935121Y275500D01*
X945000D01*
X947000Y277500D01*
Y287500D01*
X947500Y288000D01*
X949500D01*
X934205Y327795D02*
X934500Y327500D01*
X934205Y327795D02*
Y332362D01*
X799500Y350000D02*
X804000Y345500D01*
X812500D01*
X814500Y347500D01*
Y362000D01*
X817000Y364500D01*
X822000D01*
X824500Y362000D01*
Y361000D02*
Y362000D01*
Y361000D02*
X825500Y360000D01*
X829500D01*
X943500Y312500D02*
X954500D01*
X939500Y316500D02*
X943500Y312500D01*
X939500Y316500D02*
Y322500D01*
X942300Y325300D01*
X950800D01*
X953890Y328390D01*
Y332362D01*
X977100Y340500D02*
X979500D01*
X976836Y340236D02*
X977100Y340500D01*
X969638Y340236D02*
X976836D01*
X824500Y267500D02*
X830000Y273000D01*
X889757D01*
X899757Y263000D01*
X924743D01*
X935743Y274000D01*
X949000D01*
X952000Y277000D01*
Y287500D01*
X952500Y288000D01*
X954500D01*
X682000Y242500D02*
Y246050D01*
X684050Y248100D01*
X706500D01*
X712000Y253600D01*
Y266300D01*
X708000Y270300D02*
X712000Y266300D01*
X708000Y270300D02*
Y282500D01*
X711992Y286492D01*
X717457D01*
X694500Y347200D02*
Y349500D01*
Y347200D02*
X695803Y345897D01*
Y337870D02*
Y345897D01*
X917500Y270000D02*
X920000Y272500D01*
X901144Y270000D02*
X917500D01*
X887475Y283669D02*
X901144Y270000D01*
X872504Y283669D02*
X887475D01*
X944500Y288000D02*
Y297000D01*
X909500Y403000D02*
Y407500D01*
X905000Y412000D02*
X909500Y407500D01*
X905000Y412000D02*
Y455500D01*
X900500Y460000D02*
X905000Y455500D01*
X883500Y460000D02*
X900500D01*
X869800Y473700D02*
X883500Y460000D01*
X868300Y473700D02*
X869800D01*
X866600Y475400D02*
X868300Y473700D01*
X864500Y475400D02*
X866600D01*
X815000Y337500D02*
Y340500D01*
X819500Y345000D01*
Y350000D01*
X684500Y364000D02*
Y365000D01*
X678000Y357500D02*
X684500Y364000D01*
X665500Y357500D02*
X678000D01*
X664500Y358500D02*
X665500Y357500D01*
X652600Y358500D02*
X664500D01*
X652000Y357900D02*
X652600Y358500D01*
X652000Y355500D02*
Y357900D01*
X968500Y389000D02*
X969500D01*
X966000Y386500D02*
X968500Y389000D01*
X964500Y386500D02*
X966000D01*
X962000Y384000D02*
X964500Y386500D01*
X960389Y384000D02*
X962000D01*
X957827Y381438D02*
X960389Y384000D01*
X957827Y377638D02*
Y381438D01*
X962500Y288000D02*
X964500D01*
X962000Y287500D02*
X962500Y288000D01*
X962000Y277000D02*
Y287500D01*
X956000Y271000D02*
X962000Y277000D01*
X936986Y271000D02*
X956000D01*
X925986Y260000D02*
X936986Y271000D01*
X898514Y260000D02*
X925986D01*
X888514Y270000D02*
X898514Y260000D01*
X877000Y270000D02*
X888514D01*
X874500Y267500D02*
X877000Y270000D01*
X873000Y267500D02*
X874500D01*
X911500Y429000D02*
X915500Y433000D01*
X911500Y422500D02*
Y429000D01*
X945500Y433000D02*
X949000Y429500D01*
Y422500D02*
Y429500D01*
X814500Y332500D02*
X815000Y333000D01*
Y337500D01*
X975500Y253000D02*
Y256800D01*
X974500Y257800D02*
X975500Y256800D01*
X974500Y257800D02*
Y262000D01*
X817000Y264311D02*
X820189Y267500D01*
X824500D01*
X779000Y432500D02*
X783250D01*
X777000Y430500D02*
X779000Y432500D01*
X777000Y385000D02*
Y430500D01*
Y385000D02*
X783000Y379000D01*
X820900D01*
X823400Y376500D01*
Y372500D02*
Y376500D01*
X833900Y471300D02*
X838000Y475400D01*
X839500D01*
X819500Y332500D02*
X820800Y333800D01*
Y337500D01*
X925500Y429200D02*
Y433000D01*
X924000Y427700D02*
X925500Y429200D01*
X924000Y422500D02*
Y427700D01*
X790000Y337500D02*
Y339900D01*
X789500Y340400D02*
X790000Y339900D01*
X789500Y340400D02*
Y350000D01*
X804500Y355000D02*
X809500Y350000D01*
X804500Y355000D02*
Y364000D01*
X800000Y368500D02*
X804500Y364000D01*
X800000Y368500D02*
Y372500D01*
X917500Y275000D02*
X920000Y277500D01*
X903048Y275000D02*
X917500D01*
X889497Y288551D02*
X903048Y275000D01*
X872504Y288551D02*
X889497D01*
X909500Y297500D02*
X914000D01*
X953890Y377638D02*
Y381610D01*
X951000Y384500D02*
X953890Y381610D01*
X951000Y384500D02*
Y388200D01*
X949400Y389800D02*
X951000Y388200D01*
X677500Y370000D02*
Y376205D01*
X678000Y376705D01*
Y383500D01*
X955500Y253000D02*
Y256800D01*
X954500Y257800D02*
X955500Y256800D01*
X954500Y257800D02*
Y262000D01*
D41*
X844500Y459850D02*
Y469500D01*
X658795Y331240D02*
Y337870D01*
Y344500D01*
X842150Y457500D02*
X844500Y459850D01*
D42*
X890000Y390000D02*
Y395000D01*
X872500Y327000D02*
X874500Y329000D01*
X872500Y325000D02*
Y327000D01*
X920000Y287500D02*
X924500D01*
X982500Y334500D02*
X984500Y332500D01*
X979500Y334500D02*
X982500D01*
X809000Y342000D02*
X809500Y342500D01*
X809000Y337500D02*
Y342000D01*
X799500Y342500D02*
X802500Y339500D01*
Y337500D02*
Y339500D01*
X903500Y340500D02*
Y346000D01*
X826800Y337500D02*
Y339800D01*
X829500Y342500D01*
X942500Y425500D02*
X943500Y426500D01*
X942500Y422500D02*
Y425500D01*
X920000Y292500D02*
Y297500D01*
X896500Y331000D02*
X897000Y331500D01*
X900500D01*
X903500Y334500D01*
X784000Y342000D02*
X784500Y342500D01*
X784000Y337500D02*
Y342000D01*
X849300Y375700D02*
X852500Y372500D01*
X849300Y375700D02*
Y387300D01*
X851351Y389351D01*
X856151D01*
X865800Y399000D01*
X889000D01*
X890000Y398000D01*
Y395000D02*
Y398000D01*
X949500Y267500D02*
X950000Y268000D01*
X955000Y416000D02*
Y422500D01*
X930000D02*
Y426500D01*
X852500Y372500D02*
X854450D01*
X829500Y342500D02*
X832400Y339600D01*
Y337500D02*
Y339600D01*
X834500Y367500D02*
X835100Y368100D01*
Y372500D01*
X959000Y318000D02*
X959500Y317500D01*
X959000Y318000D02*
Y322500D01*
X874500Y329000D02*
Y333000D01*
X844500Y475500D02*
X846900D01*
X847000Y475400D01*
X849500D01*
X917500Y422500D02*
Y426500D01*
X903500Y346000D02*
Y352000D01*
X908500Y357000D01*
Y384000D01*
X914500Y390000D01*
Y409500D01*
X907500Y416500D02*
X914500Y409500D01*
X907500Y416500D02*
Y440000D01*
X912000Y444500D01*
X794000Y368000D02*
X794500Y367500D01*
X794000Y368000D02*
Y372500D01*
X920000Y282500D02*
X924500D01*
X950000Y268000D02*
X954500D01*
X829500Y332500D02*
X832400Y335400D01*
Y337500D01*
X920000Y302500D02*
X924500D01*
X809500Y367500D02*
X811700Y369700D01*
Y372500D01*
X920000Y292500D02*
X924500D01*
X944500Y317500D02*
X946500Y319500D01*
Y321000D01*
X901500Y442500D02*
Y447000D01*
X902000Y447500D01*
X829500Y477500D02*
X829700Y477300D01*
X833900D01*
X925500Y391500D02*
X929500Y387500D01*
X925500Y391500D02*
Y410500D01*
X930000Y415000D01*
X939500D01*
X817400Y369600D02*
X819500Y367500D01*
X817400Y369600D02*
Y372500D01*
D43*
X859500Y475100D02*
Y475400D01*
X856900Y472500D02*
X859500Y475100D01*
X852200Y472500D02*
X856900D01*
X849500Y475200D02*
X852200Y472500D01*
X849500Y475200D02*
Y475400D01*
X918427Y365827D02*
X924362D01*
X974205Y367795D02*
X974500Y367500D01*
X919795Y342205D02*
X924362D01*
X959500Y337500D02*
X959795Y337205D01*
Y332362D02*
Y337205D01*
Y327795D02*
Y332362D01*
X959500Y327500D02*
X959795Y327795D01*
X929205Y367795D02*
X929500Y367500D01*
X924362Y367795D02*
X929205D01*
X924362Y342205D02*
X929062D01*
X939500Y372500D02*
X940110Y373110D01*
Y377638D01*
Y383110D01*
X938142Y377638D02*
Y382358D01*
X919205Y367795D02*
X924362D01*
X919500Y342500D02*
X919795Y342205D01*
X929062D02*
X929205D01*
X929500Y342500D01*
X918000Y369000D02*
X919205Y367795D01*
X969638D02*
X974205D01*
X729500Y247500D02*
Y252000D01*
X964795Y367795D02*
X969638D01*
X964500Y367500D02*
X964795Y367795D01*
X895900Y365000D02*
Y366600D01*
X893500Y369000D02*
X895900Y366600D01*
X726750Y240550D02*
Y241550D01*
X716750Y250550D02*
X722750D01*
X712750Y246550D02*
X716750Y250550D01*
X712750Y240550D02*
Y246550D01*
Y240550D02*
X716750Y236550D01*
X722750D01*
X726750Y240550D01*
Y241550D02*
Y246550D01*
X722750Y250550D02*
X726750Y246550D01*
D44*
X872504Y300756D02*
X888745D01*
X899500Y290000D01*
X907000D01*
X909500Y287500D01*
X861244Y300756D02*
X872504D01*
X863567Y293433D02*
X872504D01*
X866000Y297814D02*
X866500Y298314D01*
X872504D01*
X878500D02*
X879000Y297814D01*
X872504Y298314D02*
X878500D01*
D45*
X933500Y467500D02*
X938500Y462500D01*
X921500Y467500D02*
X933500D01*
X917000Y472000D02*
X921500Y467500D01*
X875500Y472000D02*
X917000D01*
X871300Y476200D02*
X875500Y472000D01*
X869500Y476200D02*
X871300D01*
X866500Y325000D02*
Y331000D01*
X866800Y469600D02*
X868500Y471300D01*
X864500Y469600D02*
X866800D01*
X862000Y325000D02*
X866500D01*
D46*
X618000Y277831D02*
X624543D01*
X628831D01*
D47*
X615000Y244500D02*
D03*
X614500Y473000D02*
D03*
X1001500D02*
D03*
Y244500D02*
D03*
D48*
X897843Y477130D02*
D03*
X642000Y242500D02*
D03*
X682000D02*
D03*
X717000Y352500D02*
D03*
D49*
X897843Y455870D02*
D03*
X888000Y477130D02*
D03*
Y455870D02*
D03*
X878158Y477130D02*
D03*
Y455870D02*
D03*
X662000Y242500D02*
D03*
X652000D02*
D03*
X702000D02*
D03*
X692000D02*
D03*
X717000Y372500D02*
D03*
Y362500D02*
D03*
D50*
X985500Y433000D02*
D03*
X975500D02*
D03*
X965500D02*
D03*
X955500D02*
D03*
X945500D02*
D03*
X935500D02*
D03*
X925500D02*
D03*
X985500Y253000D02*
D03*
X975500D02*
D03*
X965500D02*
D03*
X955500D02*
D03*
X945500D02*
D03*
X935500D02*
D03*
X925500D02*
D03*
X968500Y462500D02*
D03*
X958500Y472500D02*
D03*
Y462500D02*
D03*
X948500Y472500D02*
D03*
Y462500D02*
D03*
X938500Y472500D02*
D03*
Y462500D02*
D03*
X928500Y472500D02*
D03*
Y462500D02*
D03*
X829500Y360000D02*
D03*
Y350000D02*
D03*
X819500Y360000D02*
D03*
Y350000D02*
D03*
X809500Y360000D02*
D03*
Y350000D02*
D03*
X799500Y360000D02*
D03*
Y350000D02*
D03*
X789500Y360000D02*
D03*
X884500Y350000D02*
D03*
X874500Y360000D02*
D03*
Y350000D02*
D03*
X864500Y360000D02*
D03*
Y350000D02*
D03*
X854500Y360000D02*
D03*
Y350000D02*
D03*
X844500Y360000D02*
D03*
Y350000D02*
D03*
D51*
X752000Y466083D02*
D03*
D52*
Y288917D02*
D03*
D53*
X816075Y477870D02*
D03*
Y464287D02*
D03*
X787925Y477870D02*
D03*
Y464287D02*
D03*
D54*
X809874Y469484D02*
D03*
X794126D02*
D03*
X1004500Y235800D02*
D03*
X999500Y481700D02*
D03*
X994500D02*
D03*
X992900Y460200D02*
D03*
X994500Y342500D02*
D03*
X992000Y362500D02*
D03*
Y357500D02*
D03*
X989500Y377500D02*
D03*
X984500Y317500D02*
D03*
Y235800D02*
D03*
Y481700D02*
D03*
Y472500D02*
D03*
Y462500D02*
D03*
Y402500D02*
D03*
Y392500D02*
D03*
Y382500D02*
D03*
Y377500D02*
D03*
Y342500D02*
D03*
Y332500D02*
D03*
Y242500D02*
D03*
X974500Y307500D02*
D03*
Y272500D02*
D03*
Y235800D02*
D03*
Y481700D02*
D03*
Y474200D02*
D03*
Y467500D02*
D03*
Y413000D02*
D03*
Y407500D02*
D03*
Y382500D02*
D03*
Y367500D02*
D03*
Y242500D02*
D03*
X969500Y307500D02*
D03*
Y382500D02*
D03*
X968500Y322500D02*
D03*
X964500Y319000D02*
D03*
Y278550D02*
D03*
Y272500D02*
D03*
Y235800D02*
D03*
Y481700D02*
D03*
Y413000D02*
D03*
Y407500D02*
D03*
Y382500D02*
D03*
Y367500D02*
D03*
Y242500D02*
D03*
X959500Y327500D02*
D03*
Y317500D02*
D03*
Y312500D02*
D03*
Y278550D02*
D03*
Y372500D02*
D03*
Y337500D02*
D03*
X958500Y387500D02*
D03*
X955000Y384000D02*
D03*
X954500Y317500D02*
D03*
Y312500D02*
D03*
Y278550D02*
D03*
Y235800D02*
D03*
Y481700D02*
D03*
Y407500D02*
D03*
Y390000D02*
D03*
Y242500D02*
D03*
X949500Y278550D02*
D03*
Y267500D02*
D03*
Y262500D02*
D03*
X947000Y382800D02*
D03*
X944500Y317500D02*
D03*
Y278550D02*
D03*
Y235800D02*
D03*
Y481700D02*
D03*
Y410800D02*
D03*
Y242500D02*
D03*
X943500Y426500D02*
D03*
X942000Y385000D02*
D03*
X939500Y312500D02*
D03*
Y267500D02*
D03*
X942000Y262400D02*
D03*
X939500Y415000D02*
D03*
Y372500D02*
D03*
X934500Y327500D02*
D03*
Y312500D02*
D03*
Y235800D02*
D03*
Y262500D02*
D03*
Y481700D02*
D03*
Y410800D02*
D03*
X930000Y426500D02*
D03*
X929500Y407500D02*
D03*
Y397500D02*
D03*
Y387500D02*
D03*
Y367500D02*
D03*
X929062Y342205D02*
D03*
X924500Y327500D02*
D03*
Y322500D02*
D03*
Y317500D02*
D03*
Y307500D02*
D03*
Y302500D02*
D03*
Y292500D02*
D03*
Y287500D02*
D03*
Y282500D02*
D03*
Y235800D02*
D03*
Y481700D02*
D03*
Y382500D02*
D03*
X919500Y372500D02*
D03*
Y342500D02*
D03*
X917500Y426500D02*
D03*
X914500Y235800D02*
D03*
Y481700D02*
D03*
Y377500D02*
D03*
Y360000D02*
D03*
Y347500D02*
D03*
X909500Y302500D02*
D03*
Y297500D02*
D03*
Y287500D02*
D03*
X905100Y481500D02*
D03*
X909500Y392500D02*
D03*
Y342500D02*
D03*
Y337500D02*
D03*
X904500Y235800D02*
D03*
X902000Y447500D02*
D03*
X897000Y342500D02*
D03*
X894500Y235800D02*
D03*
Y387500D02*
D03*
X891000Y422500D02*
D03*
Y417500D02*
D03*
Y412500D02*
D03*
X889500Y330500D02*
D03*
X888700Y384000D02*
D03*
X884500Y280000D02*
D03*
Y267500D02*
D03*
Y235800D02*
D03*
Y481700D02*
D03*
Y467800D02*
D03*
Y462800D02*
D03*
X882000Y382500D02*
D03*
X879500Y280000D02*
D03*
Y267500D02*
D03*
X879000Y297814D02*
D03*
X877000Y367500D02*
D03*
X874500Y329000D02*
D03*
Y237500D02*
D03*
Y481700D02*
D03*
Y242500D02*
D03*
X873000Y267500D02*
D03*
X872000Y367500D02*
D03*
X871500Y390000D02*
D03*
Y385000D02*
D03*
Y380000D02*
D03*
X869500Y476200D02*
D03*
X868500Y471300D02*
D03*
X867000Y395000D02*
D03*
X866000Y297814D02*
D03*
X864500Y481700D02*
D03*
X862000Y325000D02*
D03*
Y390000D02*
D03*
X859500Y292500D02*
D03*
Y237500D02*
D03*
Y267500D02*
D03*
Y242500D02*
D03*
X854500Y292500D02*
D03*
Y267500D02*
D03*
Y481700D02*
D03*
Y445000D02*
D03*
Y435000D02*
D03*
Y425000D02*
D03*
X849500Y237500D02*
D03*
Y445000D02*
D03*
Y435000D02*
D03*
Y252500D02*
D03*
Y425000D02*
D03*
Y420000D02*
D03*
Y242500D02*
D03*
X848000Y267500D02*
D03*
X844500Y317500D02*
D03*
Y481700D02*
D03*
X841800Y252500D02*
D03*
X842000Y450000D02*
D03*
X839500Y317500D02*
D03*
X837000Y450000D02*
D03*
X834500Y237500D02*
D03*
Y481700D02*
D03*
Y252500D02*
D03*
Y426500D02*
D03*
Y367500D02*
D03*
Y242500D02*
D03*
X832000Y442500D02*
D03*
X831000Y426500D02*
D03*
X829500Y317500D02*
D03*
Y312500D02*
D03*
Y477500D02*
D03*
Y470000D02*
D03*
Y342500D02*
D03*
Y332500D02*
D03*
X827000Y442500D02*
D03*
Y437500D02*
D03*
X824500Y237500D02*
D03*
Y267500D02*
D03*
Y481700D02*
D03*
Y470000D02*
D03*
Y252500D02*
D03*
Y242500D02*
D03*
X819500Y367500D02*
D03*
Y332500D02*
D03*
X817000Y445000D02*
D03*
Y430000D02*
D03*
X814500Y252500D02*
D03*
Y332500D02*
D03*
X812000Y445000D02*
D03*
Y440000D02*
D03*
Y435000D02*
D03*
X809500Y237500D02*
D03*
Y481700D02*
D03*
Y367500D02*
D03*
Y342500D02*
D03*
Y242500D02*
D03*
X804500Y481700D02*
D03*
Y252500D02*
D03*
X802000Y448500D02*
D03*
X799500Y327500D02*
D03*
Y322500D02*
D03*
Y237500D02*
D03*
Y267500D02*
D03*
Y342500D02*
D03*
Y242500D02*
D03*
X796882Y471956D02*
D03*
X796382Y461556D02*
D03*
X794500Y481700D02*
D03*
Y252500D02*
D03*
Y367500D02*
D03*
X789500Y327500D02*
D03*
Y322500D02*
D03*
Y457800D02*
D03*
Y452800D02*
D03*
Y448500D02*
D03*
Y417500D02*
D03*
Y412500D02*
D03*
X784500Y317500D02*
D03*
Y237500D02*
D03*
Y481700D02*
D03*
Y252500D02*
D03*
Y397500D02*
D03*
Y392500D02*
D03*
Y387500D02*
D03*
Y342500D02*
D03*
Y242500D02*
D03*
X779500Y445000D02*
D03*
Y440000D02*
D03*
X774500Y237500D02*
D03*
Y267500D02*
D03*
Y481700D02*
D03*
Y472500D02*
D03*
Y467500D02*
D03*
Y252500D02*
D03*
Y367500D02*
D03*
Y357500D02*
D03*
Y242500D02*
D03*
X769500Y272500D02*
D03*
Y472500D02*
D03*
Y367500D02*
D03*
Y357500D02*
D03*
X764500Y272500D02*
D03*
Y252500D02*
D03*
X759500Y237500D02*
D03*
Y397500D02*
D03*
Y392500D02*
D03*
Y387500D02*
D03*
Y242500D02*
D03*
X754500Y272500D02*
D03*
Y262500D02*
D03*
Y252500D02*
D03*
X749500Y237500D02*
D03*
Y242500D02*
D03*
X744500Y272500D02*
D03*
Y252500D02*
D03*
X734500Y237500D02*
D03*
Y272500D02*
D03*
Y267500D02*
D03*
Y252500D02*
D03*
Y242500D02*
D03*
X724500Y257500D02*
D03*
X699500Y252500D02*
D03*
X684500Y365000D02*
D03*
X677000D02*
D03*
X667000Y375000D02*
D03*
Y355000D02*
D03*
X658795Y331240D02*
D03*
Y344500D02*
D03*
X652000Y370000D02*
D03*
X647000D02*
D03*
X960000Y397000D02*
D03*
X995000Y290000D02*
D03*
Y330000D02*
D03*
X1000000Y280000D02*
D03*
X1005000Y290000D02*
D03*
Y310000D02*
D03*
X1000000Y320000D02*
D03*
X1005000Y330000D02*
D03*
X1000000Y340000D02*
D03*
X1005000Y350000D02*
D03*
Y370000D02*
D03*
Y390000D02*
D03*
Y410000D02*
D03*
Y430000D02*
D03*
X991800Y304500D02*
D03*
X981800Y295500D02*
D03*
X600000Y240000D02*
D03*
X605000Y250000D02*
D03*
X600000Y260000D02*
D03*
X605000Y290000D02*
D03*
X600000Y300000D02*
D03*
Y400000D02*
D03*
X605000Y410000D02*
D03*
X600000Y420000D02*
D03*
X605000Y430000D02*
D03*
X600000Y440000D02*
D03*
X605000Y450000D02*
D03*
X600000Y460000D02*
D03*
X605000Y470000D02*
D03*
X600000Y480000D02*
D03*
X610000Y260000D02*
D03*
X615000Y270000D02*
D03*
Y290000D02*
D03*
X610000Y300000D02*
D03*
Y420000D02*
D03*
X615000Y430000D02*
D03*
X610000Y440000D02*
D03*
X615000Y450000D02*
D03*
X610000Y460000D02*
D03*
X625000Y250000D02*
D03*
X620000Y260000D02*
D03*
X625000Y330000D02*
D03*
X620000Y340000D02*
D03*
X625000Y350000D02*
D03*
X620000Y360000D02*
D03*
X625000Y370000D02*
D03*
X620000Y380000D02*
D03*
Y420000D02*
D03*
X625000Y430000D02*
D03*
X620000Y440000D02*
D03*
X625000Y450000D02*
D03*
X620000Y460000D02*
D03*
Y480000D02*
D03*
X630000Y240000D02*
D03*
X635000Y250000D02*
D03*
X630000Y260000D02*
D03*
X635000Y270000D02*
D03*
Y290000D02*
D03*
Y310000D02*
D03*
Y330000D02*
D03*
X630000Y340000D02*
D03*
X635000Y350000D02*
D03*
Y370000D02*
D03*
X630000Y380000D02*
D03*
X635000Y390000D02*
D03*
X630000Y420000D02*
D03*
X635000Y430000D02*
D03*
X630000Y440000D02*
D03*
X635000Y450000D02*
D03*
X630000Y480000D02*
D03*
X645000Y270000D02*
D03*
X640000Y280000D02*
D03*
Y320000D02*
D03*
X645000Y330000D02*
D03*
X640000Y360000D02*
D03*
Y380000D02*
D03*
X645000Y390000D02*
D03*
X640000Y420000D02*
D03*
X645000Y430000D02*
D03*
X640000Y440000D02*
D03*
X645000Y450000D02*
D03*
X640000Y460000D02*
D03*
X645000Y470000D02*
D03*
X640000Y480000D02*
D03*
X655000Y270000D02*
D03*
Y290000D02*
D03*
Y310000D02*
D03*
X650000Y420000D02*
D03*
X655000Y430000D02*
D03*
X650000Y440000D02*
D03*
X655000Y450000D02*
D03*
X650000Y460000D02*
D03*
X655000Y470000D02*
D03*
X650000Y480000D02*
D03*
X665000Y250000D02*
D03*
Y270000D02*
D03*
Y290000D02*
D03*
X660000Y300000D02*
D03*
X665000Y310000D02*
D03*
Y330000D02*
D03*
X660000Y420000D02*
D03*
X665000Y430000D02*
D03*
X660000Y440000D02*
D03*
X665000Y450000D02*
D03*
X660000Y460000D02*
D03*
X665000Y470000D02*
D03*
X660000Y480000D02*
D03*
X670000Y240000D02*
D03*
X675000Y250000D02*
D03*
Y270000D02*
D03*
Y290000D02*
D03*
X670000Y300000D02*
D03*
X675000Y310000D02*
D03*
Y330000D02*
D03*
Y350000D02*
D03*
X670000Y420000D02*
D03*
X675000Y430000D02*
D03*
X670000Y440000D02*
D03*
X675000Y450000D02*
D03*
X670000Y460000D02*
D03*
X675000Y470000D02*
D03*
X670000Y480000D02*
D03*
X685000Y270000D02*
D03*
Y290000D02*
D03*
X680000Y300000D02*
D03*
X685000Y310000D02*
D03*
Y330000D02*
D03*
Y350000D02*
D03*
X680000Y420000D02*
D03*
X685000Y430000D02*
D03*
X680000Y440000D02*
D03*
X685000Y450000D02*
D03*
X680000Y460000D02*
D03*
X685000Y470000D02*
D03*
X680000Y480000D02*
D03*
X695000Y270000D02*
D03*
X690000Y300000D02*
D03*
X695000Y330000D02*
D03*
X690000Y360000D02*
D03*
X695000Y370000D02*
D03*
X690000Y420000D02*
D03*
X695000Y430000D02*
D03*
X690000Y440000D02*
D03*
X695000Y450000D02*
D03*
X690000Y460000D02*
D03*
X695000Y470000D02*
D03*
X690000Y480000D02*
D03*
X705000Y270000D02*
D03*
X700000Y280000D02*
D03*
Y320000D02*
D03*
X705000Y330000D02*
D03*
Y350000D02*
D03*
Y370000D02*
D03*
X700000Y380000D02*
D03*
X705000Y390000D02*
D03*
X700000Y420000D02*
D03*
X705000Y430000D02*
D03*
X700000Y440000D02*
D03*
X705000Y450000D02*
D03*
X700000Y460000D02*
D03*
Y480000D02*
D03*
X710000Y300000D02*
D03*
Y320000D02*
D03*
X715000Y330000D02*
D03*
X710000Y340000D02*
D03*
Y360000D02*
D03*
Y380000D02*
D03*
Y420000D02*
D03*
X715000Y430000D02*
D03*
X710000Y440000D02*
D03*
X715000Y450000D02*
D03*
X710000Y480000D02*
D03*
X725000Y290000D02*
D03*
Y310000D02*
D03*
Y330000D02*
D03*
X720000Y340000D02*
D03*
X725000Y350000D02*
D03*
X720000Y380000D02*
D03*
X725000Y410000D02*
D03*
X720000Y420000D02*
D03*
X725000Y430000D02*
D03*
X720000Y440000D02*
D03*
X725000Y450000D02*
D03*
X720000Y460000D02*
D03*
X725000Y470000D02*
D03*
X720000Y480000D02*
D03*
X730000Y280000D02*
D03*
X735000Y290000D02*
D03*
X730000Y300000D02*
D03*
X735000Y310000D02*
D03*
X730000Y320000D02*
D03*
X735000Y330000D02*
D03*
X730000Y340000D02*
D03*
X735000Y350000D02*
D03*
Y370000D02*
D03*
X730000Y380000D02*
D03*
X735000Y410000D02*
D03*
X730000Y420000D02*
D03*
X735000Y430000D02*
D03*
X730000Y440000D02*
D03*
X735000Y450000D02*
D03*
X730000Y460000D02*
D03*
X735000Y470000D02*
D03*
X730000Y480000D02*
D03*
X740000Y280000D02*
D03*
X745000Y290000D02*
D03*
X740000Y300000D02*
D03*
X745000Y310000D02*
D03*
X740000Y320000D02*
D03*
X745000Y330000D02*
D03*
X740000Y340000D02*
D03*
X745000Y350000D02*
D03*
Y370000D02*
D03*
X740000Y380000D02*
D03*
X745000Y410000D02*
D03*
X740000Y420000D02*
D03*
X745000Y430000D02*
D03*
X740000Y440000D02*
D03*
X745000Y450000D02*
D03*
X740000Y480000D02*
D03*
X750000Y280000D02*
D03*
Y300000D02*
D03*
X755000Y310000D02*
D03*
X750000Y320000D02*
D03*
X755000Y330000D02*
D03*
X750000Y340000D02*
D03*
X755000Y350000D02*
D03*
Y370000D02*
D03*
X750000Y380000D02*
D03*
X755000Y410000D02*
D03*
X750000Y420000D02*
D03*
X755000Y430000D02*
D03*
X750000Y440000D02*
D03*
Y480000D02*
D03*
X760000Y280000D02*
D03*
X765000Y290000D02*
D03*
X760000Y300000D02*
D03*
X765000Y310000D02*
D03*
X760000Y320000D02*
D03*
Y340000D02*
D03*
Y380000D02*
D03*
Y420000D02*
D03*
Y440000D02*
D03*
Y480000D02*
D03*
X770000Y280000D02*
D03*
X775000Y290000D02*
D03*
X770000Y300000D02*
D03*
X775000Y310000D02*
D03*
X770000Y320000D02*
D03*
Y480000D02*
D03*
X780000Y280000D02*
D03*
X785000Y290000D02*
D03*
X780000Y300000D02*
D03*
X785000Y310000D02*
D03*
X790000Y280000D02*
D03*
X795000Y290000D02*
D03*
X790000Y300000D02*
D03*
X795000Y310000D02*
D03*
X800000Y280000D02*
D03*
X805000Y290000D02*
D03*
X800000Y300000D02*
D03*
X805000Y310000D02*
D03*
X810000Y280000D02*
D03*
X815000Y290000D02*
D03*
X810000Y300000D02*
D03*
X815000Y310000D02*
D03*
X820000Y280000D02*
D03*
X825000Y290000D02*
D03*
X820000Y300000D02*
D03*
X825000Y310000D02*
D03*
X830000Y280000D02*
D03*
Y300000D02*
D03*
D55*
X1001200Y264700D02*
D03*
X1001600Y457100D02*
D03*
X534900Y471800D02*
D03*
M02*
