M48
;Layer_Color=9474304
;FILE_FORMAT=2:5
INCH,LZ
;TYPE=PLATED
T1F00S00C0.01200
T2F00S00C0.03200
T3F00S00C0.03600
T4F00S00C0.04000
;TYPE=NON_PLATED
T6F00S00C0.02400
T7F00S00C0.12992
%
T01
X09445Y02358
Y02425
X09545
Y02358
X09645
Y02425
X09745
Y02358
X09845
Y02425
X10045Y02358
X1Y028
X0995Y029
X1005
Y031
X09918Y03045
X09818Y02955
X09745Y03075
X09695
X09645Y027855
X09595
X09545
X09495
X09445
X09495Y02675
Y02625
X0942Y02624
X09395Y02675
X09645Y02725
X09745
X09345Y02625
Y02358
X09245
X09145
X09045
X08945
X08845
X08745Y02375
Y02425
X08595
Y02375
X08495
Y02425
Y02525
X08418
X08345
Y02425
Y02375
X08245
Y02425
Y02525
X08145
X08045
X07945
X07845
Y02425
Y02375
X07995
Y02425
X08095
Y02375
X07995Y02675
X08Y028
X079
X0785Y029
X0795
X0805
X0815
X0825
X082Y028
X081
Y03
X08
X079
X0785Y031
X0795
X0805
X0815
X0825
X082Y03
X083
Y028
X08245Y02675
X0848
X08545
X08595
X0873
X08795
X08845
Y028
X08795
X0879Y0297814
X0866
X08595Y02925
X08545
X09095Y02975
Y03025
X09245
Y03075
Y02925
Y02875
Y02825
X09095Y02875
X0775Y029
X0765
X076Y028
X075
X074
X073
X07345Y02725
Y02675
X07445Y02725
X07545
X07645
X07695
X077Y028
X078
X07745Y02675
Y02525
Y02425
Y02375
X07595
Y02425
X07495
Y02375
X07345
Y02425
Y02525
X07445
X07545
X07645
X07545Y02625
X07245Y02575
X06995Y02525
X0695Y027
X0685
X0675
X0665
X0655
X0645
X0635
X063Y026
X0625Y025
X0635
X063Y024
X067
X0665Y025
X0675
Y029
X0665
X0655
X066Y03
X067
X068
X069
X0685Y029
Y031
X0675
X0665
X0655
X0635
Y029
X064Y028
X07
X0705Y027
X071Y03
X073
X074
X075
X076
X077
X078
X0775Y031
X0765
X0755
X0745
X0735
X0725
Y029
X0735
X0745
X0615
X0605
X06Y03
X061
X0615Y027
X061Y026
X06
X0605Y025
X06Y024
X062Y026
Y034
Y036
Y038
X06Y04
X0605Y041
X06Y042
X061
X062
X0615Y043
X0605
X06Y044
X061
X062
X0615Y045
X0605
X06Y046
X061
X062
X0625Y045
X0635
X0645
X0655
X0665
X0675
X0685
X0695
X0705
X0715
X0725
X0735
X0745
X074Y044
X073
X072
X071
X07
X069
X068
X067
X066
X065
X064
X063
X0625Y043
X0635
X0645
X0655
X0665
X0675
X0685
X0695
X0705
X0715
X0725
X0735
X0745
X0755
X075Y042
X074
X073
X072
X071
X07
X069
X068
X067
X066
X065
X064
X063
X0635Y039
X0645
X064Y038
X063
X0625Y037
X0635
X0647
X0652
X0667Y0375
X0677Y0365
X06845
X069Y036
X0685Y035
X0675
X0667Y0355
X0658795Y03445
Y033124
X0665Y033
X0675
X0685
X0695
X0705
X0715
X0725
X0735
X0745
X0755
X075Y032
X074
X073
X071
X07
X071Y034
X072
X073
X074
X075
X076
X0755Y035
X0745
X0735
X0725
X0705
X071Y036
X0705Y037
X0695
X07Y038
X071
X072
X073
X074
X075
X076
X07595Y03875
Y03925
Y03975
X0755Y041
X0745
X0735
X0725
X0705Y039
X0735Y037
X0745
X0755
X07695Y03675
X07745
Y03575
X07695
X077Y032
X076
Y042
Y044
X075
X07795
Y0445
X07745Y04675
X073Y046
X072
X07
X069
X068
X067
X066
X065
X064
Y036
X0635Y035
X0625
X063Y034
X0625Y033
X0635
X0645
X064Y032
X07845Y03175
X07895Y03225
Y03275
X07995
Y03225
Y03425
X08095
X08145Y03325
X08195
X08295
Y03425
Y03175
Y03125
X08395Y03175
X08445
X0862Y0325
X08745Y0329
X08895Y03305
X0897Y03425
X09095
Y03375
X09195Y03425
X0929062Y0342205
X09245Y03275
Y03225
Y03175
X09345Y03125
Y03275
X09145Y03475
Y036
X09195Y03725
X09145Y03775
X09245Y03825
X09295Y03875
Y03975
Y04075
X09345Y04108
X093Y04265
X09175
X0891Y04225
Y04175
Y04125
X08945Y03875
X08887Y0384
X0882Y03825
X08715Y0385
Y039
X0867Y0395
X0862Y039
X08715Y038
X0872Y03675
X0877
X08345
X08195
X08095
X07945
X07845Y03875
Y03925
Y03975
X07895Y04125
Y04175
Y04485
Y04528
Y04578
X0796382Y0461556
X0802Y04485
X0812Y0445
X0817
X0812Y044
Y0435
X0817Y043
X0831Y04265
X08345
X08495Y0425
X08545
Y0435
X08495
Y0445
X08545
X0842Y045
X0837
X0832Y04425
X0827
Y04375
X08495Y042
X08845Y04628
Y04678
X0902Y04475
X09095Y03925
X09295Y03675
X07845Y03425
X09595Y03375
Y03275
Y03175
Y03125
X09545
Y03175
X09445
X09395Y03125
X09645Y0319
X09685Y03225
X09845Y03175
Y03325
Y03425
X09945
X1Y034
X0995Y033
X1005
X1Y032
X1005Y035
Y037
Y039
Y041
Y043
X09929Y04602
X09845Y04625
X09745Y04675
Y0413
Y04075
X09645
Y0413
X09545Y04075
X09445Y04108
X09395Y0415
X09435Y04265
X0942Y0385
X0947Y03828
X0955Y0384
X09545Y039
X09585Y03875
X09645Y03825
X09695
X09745
X09845
Y03775
X09895
X0992Y03625
Y03575
X09745Y03675
X09645
X09595Y03725
X09395
X096Y0397
X09845Y03925
Y04025
Y04725
Y04817
X09945
X09995
X09745
Y04742
X09645Y04817
X09545
X09445
X09345
X09245
X09145
X09051Y04815
X08845Y04817
X08745
X08645
X08545
X08445
X08345
X08295Y04775
Y047
X08245
Y04817
X08095
X08045
X07945
X07845
X0796882Y0471956
X08685Y04713
X08695Y04762
X07745Y04725
X07695
X077Y048
X07745Y04817
X076Y048
X075
X074
X073
X072
X071
X07
X069
X068
X067
X066
X065
X064
X063
X0645Y047
X0655
X0665
X0675
X0685
X0695
X0725
X0735
X062Y048
X06
X0605Y047
T02
X0878158Y045587
X0888
X0897843
Y047713
X0888
X0878158
T03
X0642Y02425
X0652
X0662
X0682
X0692
X0702
X0717Y03525
Y03625
Y03725
T04
X09455Y0253
X09555
X09655
X09755
X09855
X09355
X09255
X09155
X0752Y0288917
Y0466083
X07895Y036
X07995
X08095
X08195
X08295
Y035
X08195
X08095
X07995
X07895
X08445
X08545
X08645
X08745
X08845
Y036
X08745
X08645
X08545
X08445
X09155Y0433
X09255
X09355
X09285Y04625
X09385
X09485
X09585
X09685
X09655Y0433
X09755
X09855
X09555
X09455
X09485Y04725
X09585
X09685
X09385
X09285
T06
X0794126Y0469484
X0809874
T07
X10015Y02445
X0615
X10015Y0473
X06145
M30
