%FSLAX25Y25*%
%MOIN*%
G70*
G01*
G75*
G04 Layer_Color=2752767*
%ADD10R,0.03500X0.03200*%
%ADD11R,0.03200X0.03000*%
%ADD12R,0.04500X0.05000*%
%ADD13R,0.05000X0.04500*%
%ADD14R,0.03200X0.03500*%
%ADD15R,0.03000X0.03200*%
%ADD16C,0.03200*%
%ADD17R,0.08200X0.11000*%
%ADD18R,0.07000X0.02500*%
%ADD19C,0.01000*%
%ADD20R,0.04000X0.02000*%
%ADD21R,0.08000X0.05500*%
%ADD22R,0.05000X0.04000*%
%ADD23R,0.04500X0.06000*%
%ADD24R,0.07000X0.05000*%
%ADD25R,0.06000X0.06000*%
%ADD26R,0.08500X0.01200*%
%ADD27R,0.08000X0.10000*%
%ADD28R,0.09000X0.03000*%
%ADD29R,0.03000X0.09000*%
%ADD30R,0.04000X0.04000*%
%ADD31R,0.13000X0.04000*%
%ADD32C,0.04000*%
%ADD33R,0.08000X0.13000*%
%ADD34R,0.04000X0.11000*%
%ADD35R,0.01600X0.07000*%
%ADD36R,0.06000X0.01000*%
%ADD37R,0.01000X0.06000*%
%ADD38C,0.02000*%
%ADD39C,0.01500*%
%ADD40C,0.00600*%
%ADD41C,0.03000*%
%ADD42C,0.02500*%
%ADD43C,0.01000*%
%ADD44C,0.01200*%
%ADD45C,0.02400*%
%ADD46C,0.03500*%
%ADD47C,0.13000*%
%ADD48R,0.05500X0.05500*%
%ADD49C,0.05500*%
%ADD50C,0.06000*%
%ADD51R,0.07000X0.07000*%
%ADD52C,0.07000*%
%ADD53O,0.03000X0.06000*%
%ADD54C,0.02400*%
%ADD55C,0.03937*%
%ADD56C,0.00500*%
%ADD57C,0.00800*%
%ADD58C,0.00200*%
%ADD59C,0.00787*%
%ADD60O,0.03937X0.03937*%
%ADD61C,0.03800*%
%ADD62R,0.03900X0.03600*%
%ADD63R,0.03600X0.03400*%
%ADD64R,0.04900X0.05400*%
%ADD65R,0.05400X0.04900*%
%ADD66R,0.03600X0.03900*%
%ADD67R,0.03400X0.03600*%
%ADD68C,0.03600*%
%ADD69R,0.08600X0.11400*%
%ADD70R,0.07400X0.02900*%
%ADD71C,0.01400*%
%ADD72R,0.04400X0.02400*%
%ADD73R,0.08400X0.05900*%
%ADD74R,0.05400X0.04400*%
%ADD75R,0.04900X0.06400*%
%ADD76R,0.07400X0.05400*%
%ADD77R,0.06400X0.06400*%
%ADD78R,0.08900X0.01600*%
%ADD79R,0.08400X0.10400*%
%ADD80R,0.09400X0.03400*%
%ADD81R,0.03400X0.09400*%
%ADD82R,0.04400X0.04400*%
%ADD83R,0.13400X0.04400*%
%ADD84C,0.12000*%
%ADD85R,0.08400X0.13400*%
%ADD86R,0.04400X0.11400*%
%ADD87R,0.02000X0.07400*%
%ADD88R,0.06400X0.01400*%
%ADD89R,0.01400X0.06400*%
%ADD90C,0.13400*%
%ADD91R,0.05900X0.05900*%
%ADD92C,0.05900*%
%ADD93C,0.06400*%
%ADD94R,0.07400X0.07400*%
%ADD95C,0.07400*%
%ADD96O,0.03400X0.06400*%
%ADD97C,0.02800*%
%ADD98C,0.11937*%
%ADD99C,0.14000*%
%ADD100C,0.00100*%
%ADD101C,0.00667*%
D100*
X613000Y242500D02*
Y246500D01*
X617000D01*
Y242500D01*
X613000D01*
X612500Y471000D02*
Y475000D01*
X616500D01*
Y471000D01*
X612500D01*
X999500D02*
Y475000D01*
X1003500D01*
Y471000D01*
X999500D01*
Y242500D02*
Y246500D01*
X1003500D01*
Y242500D01*
X999500D01*
X985500Y431000D02*
X983500Y435000D01*
X987500D01*
X985500Y431000D01*
X975500D02*
X973500Y435000D01*
X977500D01*
X975500Y431000D01*
X965500D02*
X963500Y435000D01*
X967500D01*
X965500Y431000D01*
X955500D02*
X953500Y435000D01*
X957500D01*
X955500Y431000D01*
X945500D02*
X943500Y435000D01*
X947500D01*
X945500Y431000D01*
X935500D02*
X933500Y435000D01*
X937500D01*
X935500Y431000D01*
X925500D02*
X923500Y435000D01*
X927500D01*
X925500Y431000D01*
X915500D02*
X913500Y435000D01*
X917500D01*
X915500Y431000D01*
X985500Y251000D02*
X983500Y255000D01*
X987500D01*
X985500Y251000D01*
X975500D02*
X973500Y255000D01*
X977500D01*
X975500Y251000D01*
X965500D02*
X963500Y255000D01*
X967500D01*
X965500Y251000D01*
X955500D02*
X953500Y255000D01*
X957500D01*
X955500Y251000D01*
X945500D02*
X943500Y255000D01*
X947500D01*
X945500Y251000D01*
X935500D02*
X933500Y255000D01*
X937500D01*
X935500Y251000D01*
X925500D02*
X923500Y255000D01*
X927500D01*
X925500Y251000D01*
X915500D02*
X913500Y255000D01*
X917500D01*
X915500Y251000D01*
X662000Y240500D02*
X663000Y241500D01*
X664000D01*
X663000Y242500D01*
X664000Y243500D01*
X663000D01*
X662000Y244500D01*
X661000Y243500D01*
X660000D01*
X661000Y242500D01*
X660000Y241500D01*
X661000D01*
X662000Y240500D01*
X652000D02*
X653000Y241500D01*
X654000D01*
X653000Y242500D01*
X654000Y243500D01*
X653000D01*
X652000Y244500D01*
X651000Y243500D01*
X650000D01*
X651000Y242500D01*
X650000Y241500D01*
X651000D01*
X652000Y240500D01*
X642000D02*
X643000Y241500D01*
X644000D01*
X643000Y242500D01*
X644000Y243500D01*
X643000D01*
X642000Y244500D01*
X641000Y243500D01*
X640000D01*
X641000Y242500D01*
X640000Y241500D01*
X641000D01*
X642000Y240500D01*
X702000D02*
X703000Y241500D01*
X704000D01*
X703000Y242500D01*
X704000Y243500D01*
X703000D01*
X702000Y244500D01*
X701000Y243500D01*
X700000D01*
X701000Y242500D01*
X700000Y241500D01*
X701000D01*
X702000Y240500D01*
X692000D02*
X693000Y241500D01*
X694000D01*
X693000Y242500D01*
X694000Y243500D01*
X693000D01*
X692000Y244500D01*
X691000Y243500D01*
X690000D01*
X691000Y242500D01*
X690000Y241500D01*
X691000D01*
X692000Y240500D01*
X682000D02*
X683000Y241500D01*
X684000D01*
X683000Y242500D01*
X684000Y243500D01*
X683000D01*
X682000Y244500D01*
X681000Y243500D01*
X680000D01*
X681000Y242500D01*
X680000Y241500D01*
X681000D01*
X682000Y240500D01*
X717000Y370500D02*
X718000Y371500D01*
X719000D01*
X718000Y372500D01*
X719000Y373500D01*
X718000D01*
X717000Y374500D01*
X716000Y373500D01*
X715000D01*
X716000Y372500D01*
X715000Y371500D01*
X716000D01*
X717000Y370500D01*
Y360500D02*
X718000Y361500D01*
X719000D01*
X718000Y362500D01*
X719000Y363500D01*
X718000D01*
X717000Y364500D01*
X716000Y363500D01*
X715000D01*
X716000Y362500D01*
X715000Y361500D01*
X716000D01*
X717000Y360500D01*
Y350500D02*
X718000Y351500D01*
X719000D01*
X718000Y352500D01*
X719000Y353500D01*
X718000D01*
X717000Y354500D01*
X716000Y353500D01*
X715000D01*
X716000Y352500D01*
X715000Y351500D01*
X716000D01*
X717000Y350500D01*
X968500Y470500D02*
X966500Y474500D01*
X970500D01*
X968500Y470500D01*
Y460500D02*
X966500Y464500D01*
X970500D01*
X968500Y460500D01*
X958500Y470500D02*
X956500Y474500D01*
X960500D01*
X958500Y470500D01*
Y460500D02*
X956500Y464500D01*
X960500D01*
X958500Y460500D01*
X948500Y470500D02*
X946500Y474500D01*
X950500D01*
X948500Y470500D01*
Y460500D02*
X946500Y464500D01*
X950500D01*
X948500Y460500D01*
X938500Y470500D02*
X936500Y474500D01*
X940500D01*
X938500Y470500D01*
Y460500D02*
X936500Y464500D01*
X940500D01*
X938500Y460500D01*
X928500Y470500D02*
X926500Y474500D01*
X930500D01*
X928500Y470500D01*
Y460500D02*
X926500Y464500D01*
X930500D01*
X928500Y460500D01*
X829500Y358000D02*
X827500Y362000D01*
X831500D01*
X829500Y358000D01*
Y348000D02*
X827500Y352000D01*
X831500D01*
X829500Y348000D01*
X819500Y358000D02*
X817500Y362000D01*
X821500D01*
X819500Y358000D01*
Y348000D02*
X817500Y352000D01*
X821500D01*
X819500Y348000D01*
X809500Y358000D02*
X807500Y362000D01*
X811500D01*
X809500Y358000D01*
Y348000D02*
X807500Y352000D01*
X811500D01*
X809500Y348000D01*
X799500Y358000D02*
X797500Y362000D01*
X801500D01*
X799500Y358000D01*
Y348000D02*
X797500Y352000D01*
X801500D01*
X799500Y348000D01*
X789500Y358000D02*
X787500Y362000D01*
X791500D01*
X789500Y358000D01*
Y348000D02*
X787500Y352000D01*
X791500D01*
X789500Y348000D01*
X884500Y358000D02*
X882500Y362000D01*
X886500D01*
X884500Y358000D01*
Y348000D02*
X882500Y352000D01*
X886500D01*
X884500Y348000D01*
X874500Y358000D02*
X872500Y362000D01*
X876500D01*
X874500Y358000D01*
Y348000D02*
X872500Y352000D01*
X876500D01*
X874500Y348000D01*
X864500Y358000D02*
X862500Y362000D01*
X866500D01*
X864500Y358000D01*
Y348000D02*
X862500Y352000D01*
X866500D01*
X864500Y348000D01*
X854500Y358000D02*
X852500Y362000D01*
X856500D01*
X854500Y358000D01*
Y348000D02*
X852500Y352000D01*
X856500D01*
X854500Y348000D01*
X844500Y358000D02*
X842500Y362000D01*
X846500D01*
X844500Y358000D01*
Y348000D02*
X842500Y352000D01*
X846500D01*
X844500Y348000D01*
X752000Y464083D02*
X750000Y468083D01*
X754000D01*
X752000Y464083D01*
Y286917D02*
X750000Y290917D01*
X754000D01*
X752000Y286917D01*
X814075Y475870D02*
X815075Y477870D01*
X814075Y479870D01*
X816075Y478870D01*
X818075Y479870D01*
X817075Y477870D01*
X818075Y475870D01*
X816075Y476870D01*
X814075Y475870D01*
Y462287D02*
X815075Y464287D01*
X814075Y466287D01*
X816075Y465287D01*
X818075Y466287D01*
X817075Y464287D01*
X818075Y462287D01*
X816075Y463287D01*
X814075Y462287D01*
X808874Y468484D02*
Y467484D01*
X810874D01*
Y468484D01*
X811874D01*
Y470484D01*
X810874D01*
Y471484D01*
X808874D01*
Y470484D01*
X807874D01*
Y468484D01*
X808874D01*
X793126D02*
Y467484D01*
X795126D01*
Y468484D01*
X796126D01*
Y470484D01*
X795126D01*
Y471484D01*
X793126D01*
Y470484D01*
X792126D01*
Y468484D01*
X793126D01*
X785925Y475870D02*
X786925Y477870D01*
X785925Y479870D01*
X787925Y478870D01*
X789925Y479870D01*
X788925Y477870D01*
X789925Y475870D01*
X787925Y476870D01*
X785925Y475870D01*
Y462287D02*
X786925Y464287D01*
X785925Y466287D01*
X787925Y465287D01*
X789925Y466287D01*
X788925Y464287D01*
X789925Y462287D01*
X787925Y463287D01*
X785925Y462287D01*
X1002500Y233800D02*
X1003500D01*
X1004500Y234800D01*
X1005500Y233800D01*
X1006500D01*
Y234800D01*
X1005500Y235800D01*
X1006500Y236800D01*
Y237800D01*
X1005500D01*
X1004500Y236800D01*
X1003500Y237800D01*
X1002500D01*
Y236800D01*
X1003500Y235800D01*
X1002500Y234800D01*
Y233800D01*
X997500Y479700D02*
X998500D01*
X999500Y480700D01*
X1000500Y479700D01*
X1001500D01*
Y480700D01*
X1000500Y481700D01*
X1001500Y482700D01*
Y483700D01*
X1000500D01*
X999500Y482700D01*
X998500Y483700D01*
X997500D01*
Y482700D01*
X998500Y481700D01*
X997500Y480700D01*
Y479700D01*
X992500D02*
X993500D01*
X994500Y480700D01*
X995500Y479700D01*
X996500D01*
Y480700D01*
X995500Y481700D01*
X996500Y482700D01*
Y483700D01*
X995500D01*
X994500Y482700D01*
X993500Y483700D01*
X992500D01*
Y482700D01*
X993500Y481700D01*
X992500Y480700D01*
Y479700D01*
X990900Y458200D02*
X991900D01*
X992900Y459200D01*
X993900Y458200D01*
X994900D01*
Y459200D01*
X993900Y460200D01*
X994900Y461200D01*
Y462200D01*
X993900D01*
X992900Y461200D01*
X991900Y462200D01*
X990900D01*
Y461200D01*
X991900Y460200D01*
X990900Y459200D01*
Y458200D01*
X992500Y340500D02*
X993500D01*
X994500Y341500D01*
X995500Y340500D01*
X996500D01*
Y341500D01*
X995500Y342500D01*
X996500Y343500D01*
Y344500D01*
X995500D01*
X994500Y343500D01*
X993500Y344500D01*
X992500D01*
Y343500D01*
X993500Y342500D01*
X992500Y341500D01*
Y340500D01*
X990000Y360500D02*
X991000D01*
X992000Y361500D01*
X993000Y360500D01*
X994000D01*
Y361500D01*
X993000Y362500D01*
X994000Y363500D01*
Y364500D01*
X993000D01*
X992000Y363500D01*
X991000Y364500D01*
X990000D01*
Y363500D01*
X991000Y362500D01*
X990000Y361500D01*
Y360500D01*
Y355500D02*
X991000D01*
X992000Y356500D01*
X993000Y355500D01*
X994000D01*
Y356500D01*
X993000Y357500D01*
X994000Y358500D01*
Y359500D01*
X993000D01*
X992000Y358500D01*
X991000Y359500D01*
X990000D01*
Y358500D01*
X991000Y357500D01*
X990000Y356500D01*
Y355500D01*
X987500Y375500D02*
X988500D01*
X989500Y376500D01*
X990500Y375500D01*
X991500D01*
Y376500D01*
X990500Y377500D01*
X991500Y378500D01*
Y379500D01*
X990500D01*
X989500Y378500D01*
X988500Y379500D01*
X987500D01*
Y378500D01*
X988500Y377500D01*
X987500Y376500D01*
Y375500D01*
X982500Y315500D02*
X983500D01*
X984500Y316500D01*
X985500Y315500D01*
X986500D01*
Y316500D01*
X985500Y317500D01*
X986500Y318500D01*
Y319500D01*
X985500D01*
X984500Y318500D01*
X983500Y319500D01*
X982500D01*
Y318500D01*
X983500Y317500D01*
X982500Y316500D01*
Y315500D01*
Y233800D02*
X983500D01*
X984500Y234800D01*
X985500Y233800D01*
X986500D01*
Y234800D01*
X985500Y235800D01*
X986500Y236800D01*
Y237800D01*
X985500D01*
X984500Y236800D01*
X983500Y237800D01*
X982500D01*
Y236800D01*
X983500Y235800D01*
X982500Y234800D01*
Y233800D01*
Y479700D02*
X983500D01*
X984500Y480700D01*
X985500Y479700D01*
X986500D01*
Y480700D01*
X985500Y481700D01*
X986500Y482700D01*
Y483700D01*
X985500D01*
X984500Y482700D01*
X983500Y483700D01*
X982500D01*
Y482700D01*
X983500Y481700D01*
X982500Y480700D01*
Y479700D01*
Y470500D02*
X983500D01*
X984500Y471500D01*
X985500Y470500D01*
X986500D01*
Y471500D01*
X985500Y472500D01*
X986500Y473500D01*
Y474500D01*
X985500D01*
X984500Y473500D01*
X983500Y474500D01*
X982500D01*
Y473500D01*
X983500Y472500D01*
X982500Y471500D01*
Y470500D01*
Y460500D02*
X983500D01*
X984500Y461500D01*
X985500Y460500D01*
X986500D01*
Y461500D01*
X985500Y462500D01*
X986500Y463500D01*
Y464500D01*
X985500D01*
X984500Y463500D01*
X983500Y464500D01*
X982500D01*
Y463500D01*
X983500Y462500D01*
X982500Y461500D01*
Y460500D01*
Y400500D02*
X983500D01*
X984500Y401500D01*
X985500Y400500D01*
X986500D01*
Y401500D01*
X985500Y402500D01*
X986500Y403500D01*
Y404500D01*
X985500D01*
X984500Y403500D01*
X983500Y404500D01*
X982500D01*
Y403500D01*
X983500Y402500D01*
X982500Y401500D01*
Y400500D01*
Y390500D02*
X983500D01*
X984500Y391500D01*
X985500Y390500D01*
X986500D01*
Y391500D01*
X985500Y392500D01*
X986500Y393500D01*
Y394500D01*
X985500D01*
X984500Y393500D01*
X983500Y394500D01*
X982500D01*
Y393500D01*
X983500Y392500D01*
X982500Y391500D01*
Y390500D01*
Y380500D02*
X983500D01*
X984500Y381500D01*
X985500Y380500D01*
X986500D01*
Y381500D01*
X985500Y382500D01*
X986500Y383500D01*
Y384500D01*
X985500D01*
X984500Y383500D01*
X983500Y384500D01*
X982500D01*
Y383500D01*
X983500Y382500D01*
X982500Y381500D01*
Y380500D01*
Y375500D02*
X983500D01*
X984500Y376500D01*
X985500Y375500D01*
X986500D01*
Y376500D01*
X985500Y377500D01*
X986500Y378500D01*
Y379500D01*
X985500D01*
X984500Y378500D01*
X983500Y379500D01*
X982500D01*
Y378500D01*
X983500Y377500D01*
X982500Y376500D01*
Y375500D01*
Y340500D02*
X983500D01*
X984500Y341500D01*
X985500Y340500D01*
X986500D01*
Y341500D01*
X985500Y342500D01*
X986500Y343500D01*
Y344500D01*
X985500D01*
X984500Y343500D01*
X983500Y344500D01*
X982500D01*
Y343500D01*
X983500Y342500D01*
X982500Y341500D01*
Y340500D01*
Y330500D02*
X983500D01*
X984500Y331500D01*
X985500Y330500D01*
X986500D01*
Y331500D01*
X985500Y332500D01*
X986500Y333500D01*
Y334500D01*
X985500D01*
X984500Y333500D01*
X983500Y334500D01*
X982500D01*
Y333500D01*
X983500Y332500D01*
X982500Y331500D01*
Y330500D01*
Y240500D02*
X983500D01*
X984500Y241500D01*
X985500Y240500D01*
X986500D01*
Y241500D01*
X985500Y242500D01*
X986500Y243500D01*
Y244500D01*
X985500D01*
X984500Y243500D01*
X983500Y244500D01*
X982500D01*
Y243500D01*
X983500Y242500D01*
X982500Y241500D01*
Y240500D01*
X972500Y305500D02*
X973500D01*
X974500Y306500D01*
X975500Y305500D01*
X976500D01*
Y306500D01*
X975500Y307500D01*
X976500Y308500D01*
Y309500D01*
X975500D01*
X974500Y308500D01*
X973500Y309500D01*
X972500D01*
Y308500D01*
X973500Y307500D01*
X972500Y306500D01*
Y305500D01*
Y270500D02*
X973500D01*
X974500Y271500D01*
X975500Y270500D01*
X976500D01*
Y271500D01*
X975500Y272500D01*
X976500Y273500D01*
Y274500D01*
X975500D01*
X974500Y273500D01*
X973500Y274500D01*
X972500D01*
Y273500D01*
X973500Y272500D01*
X972500Y271500D01*
Y270500D01*
Y233800D02*
X973500D01*
X974500Y234800D01*
X975500Y233800D01*
X976500D01*
Y234800D01*
X975500Y235800D01*
X976500Y236800D01*
Y237800D01*
X975500D01*
X974500Y236800D01*
X973500Y237800D01*
X972500D01*
Y236800D01*
X973500Y235800D01*
X972500Y234800D01*
Y233800D01*
Y479700D02*
X973500D01*
X974500Y480700D01*
X975500Y479700D01*
X976500D01*
Y480700D01*
X975500Y481700D01*
X976500Y482700D01*
Y483700D01*
X975500D01*
X974500Y482700D01*
X973500Y483700D01*
X972500D01*
Y482700D01*
X973500Y481700D01*
X972500Y480700D01*
Y479700D01*
Y472200D02*
X973500D01*
X974500Y473200D01*
X975500Y472200D01*
X976500D01*
Y473200D01*
X975500Y474200D01*
X976500Y475200D01*
Y476200D01*
X975500D01*
X974500Y475200D01*
X973500Y476200D01*
X972500D01*
Y475200D01*
X973500Y474200D01*
X972500Y473200D01*
Y472200D01*
Y465500D02*
X973500D01*
X974500Y466500D01*
X975500Y465500D01*
X976500D01*
Y466500D01*
X975500Y467500D01*
X976500Y468500D01*
Y469500D01*
X975500D01*
X974500Y468500D01*
X973500Y469500D01*
X972500D01*
Y468500D01*
X973500Y467500D01*
X972500Y466500D01*
Y465500D01*
Y411000D02*
X973500D01*
X974500Y412000D01*
X975500Y411000D01*
X976500D01*
Y412000D01*
X975500Y413000D01*
X976500Y414000D01*
Y415000D01*
X975500D01*
X974500Y414000D01*
X973500Y415000D01*
X972500D01*
Y414000D01*
X973500Y413000D01*
X972500Y412000D01*
Y411000D01*
Y405500D02*
X973500D01*
X974500Y406500D01*
X975500Y405500D01*
X976500D01*
Y406500D01*
X975500Y407500D01*
X976500Y408500D01*
Y409500D01*
X975500D01*
X974500Y408500D01*
X973500Y409500D01*
X972500D01*
Y408500D01*
X973500Y407500D01*
X972500Y406500D01*
Y405500D01*
Y380500D02*
X973500D01*
X974500Y381500D01*
X975500Y380500D01*
X976500D01*
Y381500D01*
X975500Y382500D01*
X976500Y383500D01*
Y384500D01*
X975500D01*
X974500Y383500D01*
X973500Y384500D01*
X972500D01*
Y383500D01*
X973500Y382500D01*
X972500Y381500D01*
Y380500D01*
Y365500D02*
X973500D01*
X974500Y366500D01*
X975500Y365500D01*
X976500D01*
Y366500D01*
X975500Y367500D01*
X976500Y368500D01*
Y369500D01*
X975500D01*
X974500Y368500D01*
X973500Y369500D01*
X972500D01*
Y368500D01*
X973500Y367500D01*
X972500Y366500D01*
Y365500D01*
Y240500D02*
X973500D01*
X974500Y241500D01*
X975500Y240500D01*
X976500D01*
Y241500D01*
X975500Y242500D01*
X976500Y243500D01*
Y244500D01*
X975500D01*
X974500Y243500D01*
X973500Y244500D01*
X972500D01*
Y243500D01*
X973500Y242500D01*
X972500Y241500D01*
Y240500D01*
X967500Y305500D02*
X968500D01*
X969500Y306500D01*
X970500Y305500D01*
X971500D01*
Y306500D01*
X970500Y307500D01*
X971500Y308500D01*
Y309500D01*
X970500D01*
X969500Y308500D01*
X968500Y309500D01*
X967500D01*
Y308500D01*
X968500Y307500D01*
X967500Y306500D01*
Y305500D01*
Y380500D02*
X968500D01*
X969500Y381500D01*
X970500Y380500D01*
X971500D01*
Y381500D01*
X970500Y382500D01*
X971500Y383500D01*
Y384500D01*
X970500D01*
X969500Y383500D01*
X968500Y384500D01*
X967500D01*
Y383500D01*
X968500Y382500D01*
X967500Y381500D01*
Y380500D01*
X966500Y320500D02*
X967500D01*
X968500Y321500D01*
X969500Y320500D01*
X970500D01*
Y321500D01*
X969500Y322500D01*
X970500Y323500D01*
Y324500D01*
X969500D01*
X968500Y323500D01*
X967500Y324500D01*
X966500D01*
Y323500D01*
X967500Y322500D01*
X966500Y321500D01*
Y320500D01*
X962500Y317000D02*
X963500D01*
X964500Y318000D01*
X965500Y317000D01*
X966500D01*
Y318000D01*
X965500Y319000D01*
X966500Y320000D01*
Y321000D01*
X965500D01*
X964500Y320000D01*
X963500Y321000D01*
X962500D01*
Y320000D01*
X963500Y319000D01*
X962500Y318000D01*
Y317000D01*
Y276550D02*
X963500D01*
X964500Y277550D01*
X965500Y276550D01*
X966500D01*
Y277550D01*
X965500Y278550D01*
X966500Y279550D01*
Y280550D01*
X965500D01*
X964500Y279550D01*
X963500Y280550D01*
X962500D01*
Y279550D01*
X963500Y278550D01*
X962500Y277550D01*
Y276550D01*
Y270500D02*
X963500D01*
X964500Y271500D01*
X965500Y270500D01*
X966500D01*
Y271500D01*
X965500Y272500D01*
X966500Y273500D01*
Y274500D01*
X965500D01*
X964500Y273500D01*
X963500Y274500D01*
X962500D01*
Y273500D01*
X963500Y272500D01*
X962500Y271500D01*
Y270500D01*
Y233800D02*
X963500D01*
X964500Y234800D01*
X965500Y233800D01*
X966500D01*
Y234800D01*
X965500Y235800D01*
X966500Y236800D01*
Y237800D01*
X965500D01*
X964500Y236800D01*
X963500Y237800D01*
X962500D01*
Y236800D01*
X963500Y235800D01*
X962500Y234800D01*
Y233800D01*
Y479700D02*
X963500D01*
X964500Y480700D01*
X965500Y479700D01*
X966500D01*
Y480700D01*
X965500Y481700D01*
X966500Y482700D01*
Y483700D01*
X965500D01*
X964500Y482700D01*
X963500Y483700D01*
X962500D01*
Y482700D01*
X963500Y481700D01*
X962500Y480700D01*
Y479700D01*
Y411000D02*
X963500D01*
X964500Y412000D01*
X965500Y411000D01*
X966500D01*
Y412000D01*
X965500Y413000D01*
X966500Y414000D01*
Y415000D01*
X965500D01*
X964500Y414000D01*
X963500Y415000D01*
X962500D01*
Y414000D01*
X963500Y413000D01*
X962500Y412000D01*
Y411000D01*
Y405500D02*
X963500D01*
X964500Y406500D01*
X965500Y405500D01*
X966500D01*
Y406500D01*
X965500Y407500D01*
X966500Y408500D01*
Y409500D01*
X965500D01*
X964500Y408500D01*
X963500Y409500D01*
X962500D01*
Y408500D01*
X963500Y407500D01*
X962500Y406500D01*
Y405500D01*
Y380500D02*
X963500D01*
X964500Y381500D01*
X965500Y380500D01*
X966500D01*
Y381500D01*
X965500Y382500D01*
X966500Y383500D01*
Y384500D01*
X965500D01*
X964500Y383500D01*
X963500Y384500D01*
X962500D01*
Y383500D01*
X963500Y382500D01*
X962500Y381500D01*
Y380500D01*
Y365500D02*
X963500D01*
X964500Y366500D01*
X965500Y365500D01*
X966500D01*
Y366500D01*
X965500Y367500D01*
X966500Y368500D01*
Y369500D01*
X965500D01*
X964500Y368500D01*
X963500Y369500D01*
X962500D01*
Y368500D01*
X963500Y367500D01*
X962500Y366500D01*
Y365500D01*
Y240500D02*
X963500D01*
X964500Y241500D01*
X965500Y240500D01*
X966500D01*
Y241500D01*
X965500Y242500D01*
X966500Y243500D01*
Y244500D01*
X965500D01*
X964500Y243500D01*
X963500Y244500D01*
X962500D01*
Y243500D01*
X963500Y242500D01*
X962500Y241500D01*
Y240500D01*
X957500Y325500D02*
X958500D01*
X959500Y326500D01*
X960500Y325500D01*
X961500D01*
Y326500D01*
X960500Y327500D01*
X961500Y328500D01*
Y329500D01*
X960500D01*
X959500Y328500D01*
X958500Y329500D01*
X957500D01*
Y328500D01*
X958500Y327500D01*
X957500Y326500D01*
Y325500D01*
Y315500D02*
X958500D01*
X959500Y316500D01*
X960500Y315500D01*
X961500D01*
Y316500D01*
X960500Y317500D01*
X961500Y318500D01*
Y319500D01*
X960500D01*
X959500Y318500D01*
X958500Y319500D01*
X957500D01*
Y318500D01*
X958500Y317500D01*
X957500Y316500D01*
Y315500D01*
Y310500D02*
X958500D01*
X959500Y311500D01*
X960500Y310500D01*
X961500D01*
Y311500D01*
X960500Y312500D01*
X961500Y313500D01*
Y314500D01*
X960500D01*
X959500Y313500D01*
X958500Y314500D01*
X957500D01*
Y313500D01*
X958500Y312500D01*
X957500Y311500D01*
Y310500D01*
Y276550D02*
X958500D01*
X959500Y277550D01*
X960500Y276550D01*
X961500D01*
Y277550D01*
X960500Y278550D01*
X961500Y279550D01*
Y280550D01*
X960500D01*
X959500Y279550D01*
X958500Y280550D01*
X957500D01*
Y279550D01*
X958500Y278550D01*
X957500Y277550D01*
Y276550D01*
Y370500D02*
X958500D01*
X959500Y371500D01*
X960500Y370500D01*
X961500D01*
Y371500D01*
X960500Y372500D01*
X961500Y373500D01*
Y374500D01*
X960500D01*
X959500Y373500D01*
X958500Y374500D01*
X957500D01*
Y373500D01*
X958500Y372500D01*
X957500Y371500D01*
Y370500D01*
Y335500D02*
X958500D01*
X959500Y336500D01*
X960500Y335500D01*
X961500D01*
Y336500D01*
X960500Y337500D01*
X961500Y338500D01*
Y339500D01*
X960500D01*
X959500Y338500D01*
X958500Y339500D01*
X957500D01*
Y338500D01*
X958500Y337500D01*
X957500Y336500D01*
Y335500D01*
X956500Y385500D02*
X957500D01*
X958500Y386500D01*
X959500Y385500D01*
X960500D01*
Y386500D01*
X959500Y387500D01*
X960500Y388500D01*
Y389500D01*
X959500D01*
X958500Y388500D01*
X957500Y389500D01*
X956500D01*
Y388500D01*
X957500Y387500D01*
X956500Y386500D01*
Y385500D01*
X953000Y382000D02*
X954000D01*
X955000Y383000D01*
X956000Y382000D01*
X957000D01*
Y383000D01*
X956000Y384000D01*
X957000Y385000D01*
Y386000D01*
X956000D01*
X955000Y385000D01*
X954000Y386000D01*
X953000D01*
Y385000D01*
X954000Y384000D01*
X953000Y383000D01*
Y382000D01*
X952500Y315500D02*
X953500D01*
X954500Y316500D01*
X955500Y315500D01*
X956500D01*
Y316500D01*
X955500Y317500D01*
X956500Y318500D01*
Y319500D01*
X955500D01*
X954500Y318500D01*
X953500Y319500D01*
X952500D01*
Y318500D01*
X953500Y317500D01*
X952500Y316500D01*
Y315500D01*
Y310500D02*
X953500D01*
X954500Y311500D01*
X955500Y310500D01*
X956500D01*
Y311500D01*
X955500Y312500D01*
X956500Y313500D01*
Y314500D01*
X955500D01*
X954500Y313500D01*
X953500Y314500D01*
X952500D01*
Y313500D01*
X953500Y312500D01*
X952500Y311500D01*
Y310500D01*
Y276550D02*
X953500D01*
X954500Y277550D01*
X955500Y276550D01*
X956500D01*
Y277550D01*
X955500Y278550D01*
X956500Y279550D01*
Y280550D01*
X955500D01*
X954500Y279550D01*
X953500Y280550D01*
X952500D01*
Y279550D01*
X953500Y278550D01*
X952500Y277550D01*
Y276550D01*
Y233800D02*
X953500D01*
X954500Y234800D01*
X955500Y233800D01*
X956500D01*
Y234800D01*
X955500Y235800D01*
X956500Y236800D01*
Y237800D01*
X955500D01*
X954500Y236800D01*
X953500Y237800D01*
X952500D01*
Y236800D01*
X953500Y235800D01*
X952500Y234800D01*
Y233800D01*
Y479700D02*
X953500D01*
X954500Y480700D01*
X955500Y479700D01*
X956500D01*
Y480700D01*
X955500Y481700D01*
X956500Y482700D01*
Y483700D01*
X955500D01*
X954500Y482700D01*
X953500Y483700D01*
X952500D01*
Y482700D01*
X953500Y481700D01*
X952500Y480700D01*
Y479700D01*
Y405500D02*
X953500D01*
X954500Y406500D01*
X955500Y405500D01*
X956500D01*
Y406500D01*
X955500Y407500D01*
X956500Y408500D01*
Y409500D01*
X955500D01*
X954500Y408500D01*
X953500Y409500D01*
X952500D01*
Y408500D01*
X953500Y407500D01*
X952500Y406500D01*
Y405500D01*
Y388000D02*
X953500D01*
X954500Y389000D01*
X955500Y388000D01*
X956500D01*
Y389000D01*
X955500Y390000D01*
X956500Y391000D01*
Y392000D01*
X955500D01*
X954500Y391000D01*
X953500Y392000D01*
X952500D01*
Y391000D01*
X953500Y390000D01*
X952500Y389000D01*
Y388000D01*
Y240500D02*
X953500D01*
X954500Y241500D01*
X955500Y240500D01*
X956500D01*
Y241500D01*
X955500Y242500D01*
X956500Y243500D01*
Y244500D01*
X955500D01*
X954500Y243500D01*
X953500Y244500D01*
X952500D01*
Y243500D01*
X953500Y242500D01*
X952500Y241500D01*
Y240500D01*
X947500Y276550D02*
X948500D01*
X949500Y277550D01*
X950500Y276550D01*
X951500D01*
Y277550D01*
X950500Y278550D01*
X951500Y279550D01*
Y280550D01*
X950500D01*
X949500Y279550D01*
X948500Y280550D01*
X947500D01*
Y279550D01*
X948500Y278550D01*
X947500Y277550D01*
Y276550D01*
Y265500D02*
X948500D01*
X949500Y266500D01*
X950500Y265500D01*
X951500D01*
Y266500D01*
X950500Y267500D01*
X951500Y268500D01*
Y269500D01*
X950500D01*
X949500Y268500D01*
X948500Y269500D01*
X947500D01*
Y268500D01*
X948500Y267500D01*
X947500Y266500D01*
Y265500D01*
Y260500D02*
X948500D01*
X949500Y261500D01*
X950500Y260500D01*
X951500D01*
Y261500D01*
X950500Y262500D01*
X951500Y263500D01*
Y264500D01*
X950500D01*
X949500Y263500D01*
X948500Y264500D01*
X947500D01*
Y263500D01*
X948500Y262500D01*
X947500Y261500D01*
Y260500D01*
X945000Y380800D02*
X946000D01*
X947000Y381800D01*
X948000Y380800D01*
X949000D01*
Y381800D01*
X948000Y382800D01*
X949000Y383800D01*
Y384800D01*
X948000D01*
X947000Y383800D01*
X946000Y384800D01*
X945000D01*
Y383800D01*
X946000Y382800D01*
X945000Y381800D01*
Y380800D01*
X942500Y315500D02*
X943500D01*
X944500Y316500D01*
X945500Y315500D01*
X946500D01*
Y316500D01*
X945500Y317500D01*
X946500Y318500D01*
Y319500D01*
X945500D01*
X944500Y318500D01*
X943500Y319500D01*
X942500D01*
Y318500D01*
X943500Y317500D01*
X942500Y316500D01*
Y315500D01*
Y276550D02*
X943500D01*
X944500Y277550D01*
X945500Y276550D01*
X946500D01*
Y277550D01*
X945500Y278550D01*
X946500Y279550D01*
Y280550D01*
X945500D01*
X944500Y279550D01*
X943500Y280550D01*
X942500D01*
Y279550D01*
X943500Y278550D01*
X942500Y277550D01*
Y276550D01*
Y233800D02*
X943500D01*
X944500Y234800D01*
X945500Y233800D01*
X946500D01*
Y234800D01*
X945500Y235800D01*
X946500Y236800D01*
Y237800D01*
X945500D01*
X944500Y236800D01*
X943500Y237800D01*
X942500D01*
Y236800D01*
X943500Y235800D01*
X942500Y234800D01*
Y233800D01*
Y479700D02*
X943500D01*
X944500Y480700D01*
X945500Y479700D01*
X946500D01*
Y480700D01*
X945500Y481700D01*
X946500Y482700D01*
Y483700D01*
X945500D01*
X944500Y482700D01*
X943500Y483700D01*
X942500D01*
Y482700D01*
X943500Y481700D01*
X942500Y480700D01*
Y479700D01*
Y408800D02*
X943500D01*
X944500Y409800D01*
X945500Y408800D01*
X946500D01*
Y409800D01*
X945500Y410800D01*
X946500Y411800D01*
Y412800D01*
X945500D01*
X944500Y411800D01*
X943500Y412800D01*
X942500D01*
Y411800D01*
X943500Y410800D01*
X942500Y409800D01*
Y408800D01*
Y240500D02*
X943500D01*
X944500Y241500D01*
X945500Y240500D01*
X946500D01*
Y241500D01*
X945500Y242500D01*
X946500Y243500D01*
Y244500D01*
X945500D01*
X944500Y243500D01*
X943500Y244500D01*
X942500D01*
Y243500D01*
X943500Y242500D01*
X942500Y241500D01*
Y240500D01*
X941500Y424500D02*
X942500D01*
X943500Y425500D01*
X944500Y424500D01*
X945500D01*
Y425500D01*
X944500Y426500D01*
X945500Y427500D01*
Y428500D01*
X944500D01*
X943500Y427500D01*
X942500Y428500D01*
X941500D01*
Y427500D01*
X942500Y426500D01*
X941500Y425500D01*
Y424500D01*
X940000Y383000D02*
X941000D01*
X942000Y384000D01*
X943000Y383000D01*
X944000D01*
Y384000D01*
X943000Y385000D01*
X944000Y386000D01*
Y387000D01*
X943000D01*
X942000Y386000D01*
X941000Y387000D01*
X940000D01*
Y386000D01*
X941000Y385000D01*
X940000Y384000D01*
Y383000D01*
X937500Y310500D02*
X938500D01*
X939500Y311500D01*
X940500Y310500D01*
X941500D01*
Y311500D01*
X940500Y312500D01*
X941500Y313500D01*
Y314500D01*
X940500D01*
X939500Y313500D01*
X938500Y314500D01*
X937500D01*
Y313500D01*
X938500Y312500D01*
X937500Y311500D01*
Y310500D01*
Y265500D02*
X938500D01*
X939500Y266500D01*
X940500Y265500D01*
X941500D01*
Y266500D01*
X940500Y267500D01*
X941500Y268500D01*
Y269500D01*
X940500D01*
X939500Y268500D01*
X938500Y269500D01*
X937500D01*
Y268500D01*
X938500Y267500D01*
X937500Y266500D01*
Y265500D01*
X940000Y260400D02*
X941000D01*
X942000Y261400D01*
X943000Y260400D01*
X944000D01*
Y261400D01*
X943000Y262400D01*
X944000Y263400D01*
Y264400D01*
X943000D01*
X942000Y263400D01*
X941000Y264400D01*
X940000D01*
Y263400D01*
X941000Y262400D01*
X940000Y261400D01*
Y260400D01*
X937500Y413000D02*
X938500D01*
X939500Y414000D01*
X940500Y413000D01*
X941500D01*
Y414000D01*
X940500Y415000D01*
X941500Y416000D01*
Y417000D01*
X940500D01*
X939500Y416000D01*
X938500Y417000D01*
X937500D01*
Y416000D01*
X938500Y415000D01*
X937500Y414000D01*
Y413000D01*
Y370500D02*
X938500D01*
X939500Y371500D01*
X940500Y370500D01*
X941500D01*
Y371500D01*
X940500Y372500D01*
X941500Y373500D01*
Y374500D01*
X940500D01*
X939500Y373500D01*
X938500Y374500D01*
X937500D01*
Y373500D01*
X938500Y372500D01*
X937500Y371500D01*
Y370500D01*
X932500Y325500D02*
X933500D01*
X934500Y326500D01*
X935500Y325500D01*
X936500D01*
Y326500D01*
X935500Y327500D01*
X936500Y328500D01*
Y329500D01*
X935500D01*
X934500Y328500D01*
X933500Y329500D01*
X932500D01*
Y328500D01*
X933500Y327500D01*
X932500Y326500D01*
Y325500D01*
Y310500D02*
X933500D01*
X934500Y311500D01*
X935500Y310500D01*
X936500D01*
Y311500D01*
X935500Y312500D01*
X936500Y313500D01*
Y314500D01*
X935500D01*
X934500Y313500D01*
X933500Y314500D01*
X932500D01*
Y313500D01*
X933500Y312500D01*
X932500Y311500D01*
Y310500D01*
Y233800D02*
X933500D01*
X934500Y234800D01*
X935500Y233800D01*
X936500D01*
Y234800D01*
X935500Y235800D01*
X936500Y236800D01*
Y237800D01*
X935500D01*
X934500Y236800D01*
X933500Y237800D01*
X932500D01*
Y236800D01*
X933500Y235800D01*
X932500Y234800D01*
Y233800D01*
Y260500D02*
X933500D01*
X934500Y261500D01*
X935500Y260500D01*
X936500D01*
Y261500D01*
X935500Y262500D01*
X936500Y263500D01*
Y264500D01*
X935500D01*
X934500Y263500D01*
X933500Y264500D01*
X932500D01*
Y263500D01*
X933500Y262500D01*
X932500Y261500D01*
Y260500D01*
Y479700D02*
X933500D01*
X934500Y480700D01*
X935500Y479700D01*
X936500D01*
Y480700D01*
X935500Y481700D01*
X936500Y482700D01*
Y483700D01*
X935500D01*
X934500Y482700D01*
X933500Y483700D01*
X932500D01*
Y482700D01*
X933500Y481700D01*
X932500Y480700D01*
Y479700D01*
Y408800D02*
X933500D01*
X934500Y409800D01*
X935500Y408800D01*
X936500D01*
Y409800D01*
X935500Y410800D01*
X936500Y411800D01*
Y412800D01*
X935500D01*
X934500Y411800D01*
X933500Y412800D01*
X932500D01*
Y411800D01*
X933500Y410800D01*
X932500Y409800D01*
Y408800D01*
X928000Y424500D02*
X929000D01*
X930000Y425500D01*
X931000Y424500D01*
X932000D01*
Y425500D01*
X931000Y426500D01*
X932000Y427500D01*
Y428500D01*
X931000D01*
X930000Y427500D01*
X929000Y428500D01*
X928000D01*
Y427500D01*
X929000Y426500D01*
X928000Y425500D01*
Y424500D01*
X927500Y405500D02*
X928500D01*
X929500Y406500D01*
X930500Y405500D01*
X931500D01*
Y406500D01*
X930500Y407500D01*
X931500Y408500D01*
Y409500D01*
X930500D01*
X929500Y408500D01*
X928500Y409500D01*
X927500D01*
Y408500D01*
X928500Y407500D01*
X927500Y406500D01*
Y405500D01*
Y395500D02*
X928500D01*
X929500Y396500D01*
X930500Y395500D01*
X931500D01*
Y396500D01*
X930500Y397500D01*
X931500Y398500D01*
Y399500D01*
X930500D01*
X929500Y398500D01*
X928500Y399500D01*
X927500D01*
Y398500D01*
X928500Y397500D01*
X927500Y396500D01*
Y395500D01*
Y385500D02*
X928500D01*
X929500Y386500D01*
X930500Y385500D01*
X931500D01*
Y386500D01*
X930500Y387500D01*
X931500Y388500D01*
Y389500D01*
X930500D01*
X929500Y388500D01*
X928500Y389500D01*
X927500D01*
Y388500D01*
X928500Y387500D01*
X927500Y386500D01*
Y385500D01*
Y365500D02*
X928500D01*
X929500Y366500D01*
X930500Y365500D01*
X931500D01*
Y366500D01*
X930500Y367500D01*
X931500Y368500D01*
Y369500D01*
X930500D01*
X929500Y368500D01*
X928500Y369500D01*
X927500D01*
Y368500D01*
X928500Y367500D01*
X927500Y366500D01*
Y365500D01*
X927062Y340205D02*
X928062D01*
X929062Y341205D01*
X930062Y340205D01*
X931062D01*
Y341205D01*
X930062Y342205D01*
X931062Y343205D01*
Y344205D01*
X930062D01*
X929062Y343205D01*
X928062Y344205D01*
X927062D01*
Y343205D01*
X928062Y342205D01*
X927062Y341205D01*
Y340205D01*
X922500Y325500D02*
X923500D01*
X924500Y326500D01*
X925500Y325500D01*
X926500D01*
Y326500D01*
X925500Y327500D01*
X926500Y328500D01*
Y329500D01*
X925500D01*
X924500Y328500D01*
X923500Y329500D01*
X922500D01*
Y328500D01*
X923500Y327500D01*
X922500Y326500D01*
Y325500D01*
Y320500D02*
X923500D01*
X924500Y321500D01*
X925500Y320500D01*
X926500D01*
Y321500D01*
X925500Y322500D01*
X926500Y323500D01*
Y324500D01*
X925500D01*
X924500Y323500D01*
X923500Y324500D01*
X922500D01*
Y323500D01*
X923500Y322500D01*
X922500Y321500D01*
Y320500D01*
Y315500D02*
X923500D01*
X924500Y316500D01*
X925500Y315500D01*
X926500D01*
Y316500D01*
X925500Y317500D01*
X926500Y318500D01*
Y319500D01*
X925500D01*
X924500Y318500D01*
X923500Y319500D01*
X922500D01*
Y318500D01*
X923500Y317500D01*
X922500Y316500D01*
Y315500D01*
Y305500D02*
X923500D01*
X924500Y306500D01*
X925500Y305500D01*
X926500D01*
Y306500D01*
X925500Y307500D01*
X926500Y308500D01*
Y309500D01*
X925500D01*
X924500Y308500D01*
X923500Y309500D01*
X922500D01*
Y308500D01*
X923500Y307500D01*
X922500Y306500D01*
Y305500D01*
Y300500D02*
X923500D01*
X924500Y301500D01*
X925500Y300500D01*
X926500D01*
Y301500D01*
X925500Y302500D01*
X926500Y303500D01*
Y304500D01*
X925500D01*
X924500Y303500D01*
X923500Y304500D01*
X922500D01*
Y303500D01*
X923500Y302500D01*
X922500Y301500D01*
Y300500D01*
Y290500D02*
X923500D01*
X924500Y291500D01*
X925500Y290500D01*
X926500D01*
Y291500D01*
X925500Y292500D01*
X926500Y293500D01*
Y294500D01*
X925500D01*
X924500Y293500D01*
X923500Y294500D01*
X922500D01*
Y293500D01*
X923500Y292500D01*
X922500Y291500D01*
Y290500D01*
Y285500D02*
X923500D01*
X924500Y286500D01*
X925500Y285500D01*
X926500D01*
Y286500D01*
X925500Y287500D01*
X926500Y288500D01*
Y289500D01*
X925500D01*
X924500Y288500D01*
X923500Y289500D01*
X922500D01*
Y288500D01*
X923500Y287500D01*
X922500Y286500D01*
Y285500D01*
Y280500D02*
X923500D01*
X924500Y281500D01*
X925500Y280500D01*
X926500D01*
Y281500D01*
X925500Y282500D01*
X926500Y283500D01*
Y284500D01*
X925500D01*
X924500Y283500D01*
X923500Y284500D01*
X922500D01*
Y283500D01*
X923500Y282500D01*
X922500Y281500D01*
Y280500D01*
Y233800D02*
X923500D01*
X924500Y234800D01*
X925500Y233800D01*
X926500D01*
Y234800D01*
X925500Y235800D01*
X926500Y236800D01*
Y237800D01*
X925500D01*
X924500Y236800D01*
X923500Y237800D01*
X922500D01*
Y236800D01*
X923500Y235800D01*
X922500Y234800D01*
Y233800D01*
Y479700D02*
X923500D01*
X924500Y480700D01*
X925500Y479700D01*
X926500D01*
Y480700D01*
X925500Y481700D01*
X926500Y482700D01*
Y483700D01*
X925500D01*
X924500Y482700D01*
X923500Y483700D01*
X922500D01*
Y482700D01*
X923500Y481700D01*
X922500Y480700D01*
Y479700D01*
Y380500D02*
X923500D01*
X924500Y381500D01*
X925500Y380500D01*
X926500D01*
Y381500D01*
X925500Y382500D01*
X926500Y383500D01*
Y384500D01*
X925500D01*
X924500Y383500D01*
X923500Y384500D01*
X922500D01*
Y383500D01*
X923500Y382500D01*
X922500Y381500D01*
Y380500D01*
X917500Y370500D02*
X918500D01*
X919500Y371500D01*
X920500Y370500D01*
X921500D01*
Y371500D01*
X920500Y372500D01*
X921500Y373500D01*
Y374500D01*
X920500D01*
X919500Y373500D01*
X918500Y374500D01*
X917500D01*
Y373500D01*
X918500Y372500D01*
X917500Y371500D01*
Y370500D01*
Y340500D02*
X918500D01*
X919500Y341500D01*
X920500Y340500D01*
X921500D01*
Y341500D01*
X920500Y342500D01*
X921500Y343500D01*
Y344500D01*
X920500D01*
X919500Y343500D01*
X918500Y344500D01*
X917500D01*
Y343500D01*
X918500Y342500D01*
X917500Y341500D01*
Y340500D01*
X915500Y424500D02*
X916500D01*
X917500Y425500D01*
X918500Y424500D01*
X919500D01*
Y425500D01*
X918500Y426500D01*
X919500Y427500D01*
Y428500D01*
X918500D01*
X917500Y427500D01*
X916500Y428500D01*
X915500D01*
Y427500D01*
X916500Y426500D01*
X915500Y425500D01*
Y424500D01*
X912500Y233800D02*
X913500D01*
X914500Y234800D01*
X915500Y233800D01*
X916500D01*
Y234800D01*
X915500Y235800D01*
X916500Y236800D01*
Y237800D01*
X915500D01*
X914500Y236800D01*
X913500Y237800D01*
X912500D01*
Y236800D01*
X913500Y235800D01*
X912500Y234800D01*
Y233800D01*
Y479700D02*
X913500D01*
X914500Y480700D01*
X915500Y479700D01*
X916500D01*
Y480700D01*
X915500Y481700D01*
X916500Y482700D01*
Y483700D01*
X915500D01*
X914500Y482700D01*
X913500Y483700D01*
X912500D01*
Y482700D01*
X913500Y481700D01*
X912500Y480700D01*
Y479700D01*
Y375500D02*
X913500D01*
X914500Y376500D01*
X915500Y375500D01*
X916500D01*
Y376500D01*
X915500Y377500D01*
X916500Y378500D01*
Y379500D01*
X915500D01*
X914500Y378500D01*
X913500Y379500D01*
X912500D01*
Y378500D01*
X913500Y377500D01*
X912500Y376500D01*
Y375500D01*
Y358000D02*
X913500D01*
X914500Y359000D01*
X915500Y358000D01*
X916500D01*
Y359000D01*
X915500Y360000D01*
X916500Y361000D01*
Y362000D01*
X915500D01*
X914500Y361000D01*
X913500Y362000D01*
X912500D01*
Y361000D01*
X913500Y360000D01*
X912500Y359000D01*
Y358000D01*
Y345500D02*
X913500D01*
X914500Y346500D01*
X915500Y345500D01*
X916500D01*
Y346500D01*
X915500Y347500D01*
X916500Y348500D01*
Y349500D01*
X915500D01*
X914500Y348500D01*
X913500Y349500D01*
X912500D01*
Y348500D01*
X913500Y347500D01*
X912500Y346500D01*
Y345500D01*
X907500Y300500D02*
X908500D01*
X909500Y301500D01*
X910500Y300500D01*
X911500D01*
Y301500D01*
X910500Y302500D01*
X911500Y303500D01*
Y304500D01*
X910500D01*
X909500Y303500D01*
X908500Y304500D01*
X907500D01*
Y303500D01*
X908500Y302500D01*
X907500Y301500D01*
Y300500D01*
Y295500D02*
X908500D01*
X909500Y296500D01*
X910500Y295500D01*
X911500D01*
Y296500D01*
X910500Y297500D01*
X911500Y298500D01*
Y299500D01*
X910500D01*
X909500Y298500D01*
X908500Y299500D01*
X907500D01*
Y298500D01*
X908500Y297500D01*
X907500Y296500D01*
Y295500D01*
Y285500D02*
X908500D01*
X909500Y286500D01*
X910500Y285500D01*
X911500D01*
Y286500D01*
X910500Y287500D01*
X911500Y288500D01*
Y289500D01*
X910500D01*
X909500Y288500D01*
X908500Y289500D01*
X907500D01*
Y288500D01*
X908500Y287500D01*
X907500Y286500D01*
Y285500D01*
X903100Y479500D02*
X904100D01*
X905100Y480500D01*
X906100Y479500D01*
X907100D01*
Y480500D01*
X906100Y481500D01*
X907100Y482500D01*
Y483500D01*
X906100D01*
X905100Y482500D01*
X904100Y483500D01*
X903100D01*
Y482500D01*
X904100Y481500D01*
X903100Y480500D01*
Y479500D01*
X907500Y390500D02*
X908500D01*
X909500Y391500D01*
X910500Y390500D01*
X911500D01*
Y391500D01*
X910500Y392500D01*
X911500Y393500D01*
Y394500D01*
X910500D01*
X909500Y393500D01*
X908500Y394500D01*
X907500D01*
Y393500D01*
X908500Y392500D01*
X907500Y391500D01*
Y390500D01*
Y340500D02*
X908500D01*
X909500Y341500D01*
X910500Y340500D01*
X911500D01*
Y341500D01*
X910500Y342500D01*
X911500Y343500D01*
Y344500D01*
X910500D01*
X909500Y343500D01*
X908500Y344500D01*
X907500D01*
Y343500D01*
X908500Y342500D01*
X907500Y341500D01*
Y340500D01*
Y335500D02*
X908500D01*
X909500Y336500D01*
X910500Y335500D01*
X911500D01*
Y336500D01*
X910500Y337500D01*
X911500Y338500D01*
Y339500D01*
X910500D01*
X909500Y338500D01*
X908500Y339500D01*
X907500D01*
Y338500D01*
X908500Y337500D01*
X907500Y336500D01*
Y335500D01*
X902500Y233800D02*
X903500D01*
X904500Y234800D01*
X905500Y233800D01*
X906500D01*
Y234800D01*
X905500Y235800D01*
X906500Y236800D01*
Y237800D01*
X905500D01*
X904500Y236800D01*
X903500Y237800D01*
X902500D01*
Y236800D01*
X903500Y235800D01*
X902500Y234800D01*
Y233800D01*
X900000Y445500D02*
X901000D01*
X902000Y446500D01*
X903000Y445500D01*
X904000D01*
Y446500D01*
X903000Y447500D01*
X904000Y448500D01*
Y449500D01*
X903000D01*
X902000Y448500D01*
X901000Y449500D01*
X900000D01*
Y448500D01*
X901000Y447500D01*
X900000Y446500D01*
Y445500D01*
X895000Y340500D02*
X896000D01*
X897000Y341500D01*
X898000Y340500D01*
X899000D01*
Y341500D01*
X898000Y342500D01*
X899000Y343500D01*
Y344500D01*
X898000D01*
X897000Y343500D01*
X896000Y344500D01*
X895000D01*
Y343500D01*
X896000Y342500D01*
X895000Y341500D01*
Y340500D01*
X892500Y233800D02*
X893500D01*
X894500Y234800D01*
X895500Y233800D01*
X896500D01*
Y234800D01*
X895500Y235800D01*
X896500Y236800D01*
Y237800D01*
X895500D01*
X894500Y236800D01*
X893500Y237800D01*
X892500D01*
Y236800D01*
X893500Y235800D01*
X892500Y234800D01*
Y233800D01*
Y385500D02*
X893500D01*
X894500Y386500D01*
X895500Y385500D01*
X896500D01*
Y386500D01*
X895500Y387500D01*
X896500Y388500D01*
Y389500D01*
X895500D01*
X894500Y388500D01*
X893500Y389500D01*
X892500D01*
Y388500D01*
X893500Y387500D01*
X892500Y386500D01*
Y385500D01*
X889000Y420500D02*
X890000D01*
X891000Y421500D01*
X892000Y420500D01*
X893000D01*
Y421500D01*
X892000Y422500D01*
X893000Y423500D01*
Y424500D01*
X892000D01*
X891000Y423500D01*
X890000Y424500D01*
X889000D01*
Y423500D01*
X890000Y422500D01*
X889000Y421500D01*
Y420500D01*
Y415500D02*
X890000D01*
X891000Y416500D01*
X892000Y415500D01*
X893000D01*
Y416500D01*
X892000Y417500D01*
X893000Y418500D01*
Y419500D01*
X892000D01*
X891000Y418500D01*
X890000Y419500D01*
X889000D01*
Y418500D01*
X890000Y417500D01*
X889000Y416500D01*
Y415500D01*
Y410500D02*
X890000D01*
X891000Y411500D01*
X892000Y410500D01*
X893000D01*
Y411500D01*
X892000Y412500D01*
X893000Y413500D01*
Y414500D01*
X892000D01*
X891000Y413500D01*
X890000Y414500D01*
X889000D01*
Y413500D01*
X890000Y412500D01*
X889000Y411500D01*
Y410500D01*
X887500Y328500D02*
X888500D01*
X889500Y329500D01*
X890500Y328500D01*
X891500D01*
Y329500D01*
X890500Y330500D01*
X891500Y331500D01*
Y332500D01*
X890500D01*
X889500Y331500D01*
X888500Y332500D01*
X887500D01*
Y331500D01*
X888500Y330500D01*
X887500Y329500D01*
Y328500D01*
X886700Y382000D02*
X887700D01*
X888700Y383000D01*
X889700Y382000D01*
X890700D01*
Y383000D01*
X889700Y384000D01*
X890700Y385000D01*
Y386000D01*
X889700D01*
X888700Y385000D01*
X887700Y386000D01*
X886700D01*
Y385000D01*
X887700Y384000D01*
X886700Y383000D01*
Y382000D01*
X882500Y278000D02*
X883500D01*
X884500Y279000D01*
X885500Y278000D01*
X886500D01*
Y279000D01*
X885500Y280000D01*
X886500Y281000D01*
Y282000D01*
X885500D01*
X884500Y281000D01*
X883500Y282000D01*
X882500D01*
Y281000D01*
X883500Y280000D01*
X882500Y279000D01*
Y278000D01*
Y265500D02*
X883500D01*
X884500Y266500D01*
X885500Y265500D01*
X886500D01*
Y266500D01*
X885500Y267500D01*
X886500Y268500D01*
Y269500D01*
X885500D01*
X884500Y268500D01*
X883500Y269500D01*
X882500D01*
Y268500D01*
X883500Y267500D01*
X882500Y266500D01*
Y265500D01*
Y233800D02*
X883500D01*
X884500Y234800D01*
X885500Y233800D01*
X886500D01*
Y234800D01*
X885500Y235800D01*
X886500Y236800D01*
Y237800D01*
X885500D01*
X884500Y236800D01*
X883500Y237800D01*
X882500D01*
Y236800D01*
X883500Y235800D01*
X882500Y234800D01*
Y233800D01*
Y479700D02*
X883500D01*
X884500Y480700D01*
X885500Y479700D01*
X886500D01*
Y480700D01*
X885500Y481700D01*
X886500Y482700D01*
Y483700D01*
X885500D01*
X884500Y482700D01*
X883500Y483700D01*
X882500D01*
Y482700D01*
X883500Y481700D01*
X882500Y480700D01*
Y479700D01*
Y465800D02*
X883500D01*
X884500Y466800D01*
X885500Y465800D01*
X886500D01*
Y466800D01*
X885500Y467800D01*
X886500Y468800D01*
Y469800D01*
X885500D01*
X884500Y468800D01*
X883500Y469800D01*
X882500D01*
Y468800D01*
X883500Y467800D01*
X882500Y466800D01*
Y465800D01*
Y460800D02*
X883500D01*
X884500Y461800D01*
X885500Y460800D01*
X886500D01*
Y461800D01*
X885500Y462800D01*
X886500Y463800D01*
Y464800D01*
X885500D01*
X884500Y463800D01*
X883500Y464800D01*
X882500D01*
Y463800D01*
X883500Y462800D01*
X882500Y461800D01*
Y460800D01*
X880000Y380500D02*
X881000D01*
X882000Y381500D01*
X883000Y380500D01*
X884000D01*
Y381500D01*
X883000Y382500D01*
X884000Y383500D01*
Y384500D01*
X883000D01*
X882000Y383500D01*
X881000Y384500D01*
X880000D01*
Y383500D01*
X881000Y382500D01*
X880000Y381500D01*
Y380500D01*
X877500Y278000D02*
X878500D01*
X879500Y279000D01*
X880500Y278000D01*
X881500D01*
Y279000D01*
X880500Y280000D01*
X881500Y281000D01*
Y282000D01*
X880500D01*
X879500Y281000D01*
X878500Y282000D01*
X877500D01*
Y281000D01*
X878500Y280000D01*
X877500Y279000D01*
Y278000D01*
Y265500D02*
X878500D01*
X879500Y266500D01*
X880500Y265500D01*
X881500D01*
Y266500D01*
X880500Y267500D01*
X881500Y268500D01*
Y269500D01*
X880500D01*
X879500Y268500D01*
X878500Y269500D01*
X877500D01*
Y268500D01*
X878500Y267500D01*
X877500Y266500D01*
Y265500D01*
X877000Y295814D02*
X878000D01*
X879000Y296814D01*
X880000Y295814D01*
X881000D01*
Y296814D01*
X880000Y297814D01*
X881000Y298815D01*
Y299815D01*
X880000D01*
X879000Y298815D01*
X878000Y299815D01*
X877000D01*
Y298815D01*
X878000Y297814D01*
X877000Y296814D01*
Y295814D01*
X875000Y365500D02*
X876000D01*
X877000Y366500D01*
X878000Y365500D01*
X879000D01*
Y366500D01*
X878000Y367500D01*
X879000Y368500D01*
Y369500D01*
X878000D01*
X877000Y368500D01*
X876000Y369500D01*
X875000D01*
Y368500D01*
X876000Y367500D01*
X875000Y366500D01*
Y365500D01*
X872500Y327000D02*
X873500D01*
X874500Y328000D01*
X875500Y327000D01*
X876500D01*
Y328000D01*
X875500Y329000D01*
X876500Y330000D01*
Y331000D01*
X875500D01*
X874500Y330000D01*
X873500Y331000D01*
X872500D01*
Y330000D01*
X873500Y329000D01*
X872500Y328000D01*
Y327000D01*
Y235500D02*
X873500D01*
X874500Y236500D01*
X875500Y235500D01*
X876500D01*
Y236500D01*
X875500Y237500D01*
X876500Y238500D01*
Y239500D01*
X875500D01*
X874500Y238500D01*
X873500Y239500D01*
X872500D01*
Y238500D01*
X873500Y237500D01*
X872500Y236500D01*
Y235500D01*
Y479700D02*
X873500D01*
X874500Y480700D01*
X875500Y479700D01*
X876500D01*
Y480700D01*
X875500Y481700D01*
X876500Y482700D01*
Y483700D01*
X875500D01*
X874500Y482700D01*
X873500Y483700D01*
X872500D01*
Y482700D01*
X873500Y481700D01*
X872500Y480700D01*
Y479700D01*
Y240500D02*
X873500D01*
X874500Y241500D01*
X875500Y240500D01*
X876500D01*
Y241500D01*
X875500Y242500D01*
X876500Y243500D01*
Y244500D01*
X875500D01*
X874500Y243500D01*
X873500Y244500D01*
X872500D01*
Y243500D01*
X873500Y242500D01*
X872500Y241500D01*
Y240500D01*
X871000Y265500D02*
X872000D01*
X873000Y266500D01*
X874000Y265500D01*
X875000D01*
Y266500D01*
X874000Y267500D01*
X875000Y268500D01*
Y269500D01*
X874000D01*
X873000Y268500D01*
X872000Y269500D01*
X871000D01*
Y268500D01*
X872000Y267500D01*
X871000Y266500D01*
Y265500D01*
X870000Y365500D02*
X871000D01*
X872000Y366500D01*
X873000Y365500D01*
X874000D01*
Y366500D01*
X873000Y367500D01*
X874000Y368500D01*
Y369500D01*
X873000D01*
X872000Y368500D01*
X871000Y369500D01*
X870000D01*
Y368500D01*
X871000Y367500D01*
X870000Y366500D01*
Y365500D01*
X869500Y388000D02*
X870500D01*
X871500Y389000D01*
X872500Y388000D01*
X873500D01*
Y389000D01*
X872500Y390000D01*
X873500Y391000D01*
Y392000D01*
X872500D01*
X871500Y391000D01*
X870500Y392000D01*
X869500D01*
Y391000D01*
X870500Y390000D01*
X869500Y389000D01*
Y388000D01*
Y383000D02*
X870500D01*
X871500Y384000D01*
X872500Y383000D01*
X873500D01*
Y384000D01*
X872500Y385000D01*
X873500Y386000D01*
Y387000D01*
X872500D01*
X871500Y386000D01*
X870500Y387000D01*
X869500D01*
Y386000D01*
X870500Y385000D01*
X869500Y384000D01*
Y383000D01*
Y378000D02*
X870500D01*
X871500Y379000D01*
X872500Y378000D01*
X873500D01*
Y379000D01*
X872500Y380000D01*
X873500Y381000D01*
Y382000D01*
X872500D01*
X871500Y381000D01*
X870500Y382000D01*
X869500D01*
Y381000D01*
X870500Y380000D01*
X869500Y379000D01*
Y378000D01*
X867500Y474200D02*
X868500D01*
X869500Y475200D01*
X870500Y474200D01*
X871500D01*
Y475200D01*
X870500Y476200D01*
X871500Y477200D01*
Y478200D01*
X870500D01*
X869500Y477200D01*
X868500Y478200D01*
X867500D01*
Y477200D01*
X868500Y476200D01*
X867500Y475200D01*
Y474200D01*
X866500Y469300D02*
X867500D01*
X868500Y470300D01*
X869500Y469300D01*
X870500D01*
Y470300D01*
X869500Y471300D01*
X870500Y472300D01*
Y473300D01*
X869500D01*
X868500Y472300D01*
X867500Y473300D01*
X866500D01*
Y472300D01*
X867500Y471300D01*
X866500Y470300D01*
Y469300D01*
X865000Y393000D02*
X866000D01*
X867000Y394000D01*
X868000Y393000D01*
X869000D01*
Y394000D01*
X868000Y395000D01*
X869000Y396000D01*
Y397000D01*
X868000D01*
X867000Y396000D01*
X866000Y397000D01*
X865000D01*
Y396000D01*
X866000Y395000D01*
X865000Y394000D01*
Y393000D01*
X864000Y295814D02*
X865000D01*
X866000Y296814D01*
X867000Y295814D01*
X868000D01*
Y296814D01*
X867000Y297814D01*
X868000Y298815D01*
Y299815D01*
X867000D01*
X866000Y298815D01*
X865000Y299815D01*
X864000D01*
Y298815D01*
X865000Y297814D01*
X864000Y296814D01*
Y295814D01*
X862500Y479700D02*
X863500D01*
X864500Y480700D01*
X865500Y479700D01*
X866500D01*
Y480700D01*
X865500Y481700D01*
X866500Y482700D01*
Y483700D01*
X865500D01*
X864500Y482700D01*
X863500Y483700D01*
X862500D01*
Y482700D01*
X863500Y481700D01*
X862500Y480700D01*
Y479700D01*
X860000Y323000D02*
X861000D01*
X862000Y324000D01*
X863000Y323000D01*
X864000D01*
Y324000D01*
X863000Y325000D01*
X864000Y326000D01*
Y327000D01*
X863000D01*
X862000Y326000D01*
X861000Y327000D01*
X860000D01*
Y326000D01*
X861000Y325000D01*
X860000Y324000D01*
Y323000D01*
Y388000D02*
X861000D01*
X862000Y389000D01*
X863000Y388000D01*
X864000D01*
Y389000D01*
X863000Y390000D01*
X864000Y391000D01*
Y392000D01*
X863000D01*
X862000Y391000D01*
X861000Y392000D01*
X860000D01*
Y391000D01*
X861000Y390000D01*
X860000Y389000D01*
Y388000D01*
X857500Y290500D02*
X858500D01*
X859500Y291500D01*
X860500Y290500D01*
X861500D01*
Y291500D01*
X860500Y292500D01*
X861500Y293500D01*
Y294500D01*
X860500D01*
X859500Y293500D01*
X858500Y294500D01*
X857500D01*
Y293500D01*
X858500Y292500D01*
X857500Y291500D01*
Y290500D01*
Y235500D02*
X858500D01*
X859500Y236500D01*
X860500Y235500D01*
X861500D01*
Y236500D01*
X860500Y237500D01*
X861500Y238500D01*
Y239500D01*
X860500D01*
X859500Y238500D01*
X858500Y239500D01*
X857500D01*
Y238500D01*
X858500Y237500D01*
X857500Y236500D01*
Y235500D01*
Y265500D02*
X858500D01*
X859500Y266500D01*
X860500Y265500D01*
X861500D01*
Y266500D01*
X860500Y267500D01*
X861500Y268500D01*
Y269500D01*
X860500D01*
X859500Y268500D01*
X858500Y269500D01*
X857500D01*
Y268500D01*
X858500Y267500D01*
X857500Y266500D01*
Y265500D01*
Y240500D02*
X858500D01*
X859500Y241500D01*
X860500Y240500D01*
X861500D01*
Y241500D01*
X860500Y242500D01*
X861500Y243500D01*
Y244500D01*
X860500D01*
X859500Y243500D01*
X858500Y244500D01*
X857500D01*
Y243500D01*
X858500Y242500D01*
X857500Y241500D01*
Y240500D01*
X852500Y290500D02*
X853500D01*
X854500Y291500D01*
X855500Y290500D01*
X856500D01*
Y291500D01*
X855500Y292500D01*
X856500Y293500D01*
Y294500D01*
X855500D01*
X854500Y293500D01*
X853500Y294500D01*
X852500D01*
Y293500D01*
X853500Y292500D01*
X852500Y291500D01*
Y290500D01*
Y265500D02*
X853500D01*
X854500Y266500D01*
X855500Y265500D01*
X856500D01*
Y266500D01*
X855500Y267500D01*
X856500Y268500D01*
Y269500D01*
X855500D01*
X854500Y268500D01*
X853500Y269500D01*
X852500D01*
Y268500D01*
X853500Y267500D01*
X852500Y266500D01*
Y265500D01*
Y479700D02*
X853500D01*
X854500Y480700D01*
X855500Y479700D01*
X856500D01*
Y480700D01*
X855500Y481700D01*
X856500Y482700D01*
Y483700D01*
X855500D01*
X854500Y482700D01*
X853500Y483700D01*
X852500D01*
Y482700D01*
X853500Y481700D01*
X852500Y480700D01*
Y479700D01*
Y443000D02*
X853500D01*
X854500Y444000D01*
X855500Y443000D01*
X856500D01*
Y444000D01*
X855500Y445000D01*
X856500Y446000D01*
Y447000D01*
X855500D01*
X854500Y446000D01*
X853500Y447000D01*
X852500D01*
Y446000D01*
X853500Y445000D01*
X852500Y444000D01*
Y443000D01*
Y433000D02*
X853500D01*
X854500Y434000D01*
X855500Y433000D01*
X856500D01*
Y434000D01*
X855500Y435000D01*
X856500Y436000D01*
Y437000D01*
X855500D01*
X854500Y436000D01*
X853500Y437000D01*
X852500D01*
Y436000D01*
X853500Y435000D01*
X852500Y434000D01*
Y433000D01*
Y423000D02*
X853500D01*
X854500Y424000D01*
X855500Y423000D01*
X856500D01*
Y424000D01*
X855500Y425000D01*
X856500Y426000D01*
Y427000D01*
X855500D01*
X854500Y426000D01*
X853500Y427000D01*
X852500D01*
Y426000D01*
X853500Y425000D01*
X852500Y424000D01*
Y423000D01*
X847500Y235500D02*
X848500D01*
X849500Y236500D01*
X850500Y235500D01*
X851500D01*
Y236500D01*
X850500Y237500D01*
X851500Y238500D01*
Y239500D01*
X850500D01*
X849500Y238500D01*
X848500Y239500D01*
X847500D01*
Y238500D01*
X848500Y237500D01*
X847500Y236500D01*
Y235500D01*
Y443000D02*
X848500D01*
X849500Y444000D01*
X850500Y443000D01*
X851500D01*
Y444000D01*
X850500Y445000D01*
X851500Y446000D01*
Y447000D01*
X850500D01*
X849500Y446000D01*
X848500Y447000D01*
X847500D01*
Y446000D01*
X848500Y445000D01*
X847500Y444000D01*
Y443000D01*
Y433000D02*
X848500D01*
X849500Y434000D01*
X850500Y433000D01*
X851500D01*
Y434000D01*
X850500Y435000D01*
X851500Y436000D01*
Y437000D01*
X850500D01*
X849500Y436000D01*
X848500Y437000D01*
X847500D01*
Y436000D01*
X848500Y435000D01*
X847500Y434000D01*
Y433000D01*
Y250500D02*
X848500D01*
X849500Y251500D01*
X850500Y250500D01*
X851500D01*
Y251500D01*
X850500Y252500D01*
X851500Y253500D01*
Y254500D01*
X850500D01*
X849500Y253500D01*
X848500Y254500D01*
X847500D01*
Y253500D01*
X848500Y252500D01*
X847500Y251500D01*
Y250500D01*
Y423000D02*
X848500D01*
X849500Y424000D01*
X850500Y423000D01*
X851500D01*
Y424000D01*
X850500Y425000D01*
X851500Y426000D01*
Y427000D01*
X850500D01*
X849500Y426000D01*
X848500Y427000D01*
X847500D01*
Y426000D01*
X848500Y425000D01*
X847500Y424000D01*
Y423000D01*
Y418000D02*
X848500D01*
X849500Y419000D01*
X850500Y418000D01*
X851500D01*
Y419000D01*
X850500Y420000D01*
X851500Y421000D01*
Y422000D01*
X850500D01*
X849500Y421000D01*
X848500Y422000D01*
X847500D01*
Y421000D01*
X848500Y420000D01*
X847500Y419000D01*
Y418000D01*
Y240500D02*
X848500D01*
X849500Y241500D01*
X850500Y240500D01*
X851500D01*
Y241500D01*
X850500Y242500D01*
X851500Y243500D01*
Y244500D01*
X850500D01*
X849500Y243500D01*
X848500Y244500D01*
X847500D01*
Y243500D01*
X848500Y242500D01*
X847500Y241500D01*
Y240500D01*
X846000Y265500D02*
X847000D01*
X848000Y266500D01*
X849000Y265500D01*
X850000D01*
Y266500D01*
X849000Y267500D01*
X850000Y268500D01*
Y269500D01*
X849000D01*
X848000Y268500D01*
X847000Y269500D01*
X846000D01*
Y268500D01*
X847000Y267500D01*
X846000Y266500D01*
Y265500D01*
X842500Y315500D02*
X843500D01*
X844500Y316500D01*
X845500Y315500D01*
X846500D01*
Y316500D01*
X845500Y317500D01*
X846500Y318500D01*
Y319500D01*
X845500D01*
X844500Y318500D01*
X843500Y319500D01*
X842500D01*
Y318500D01*
X843500Y317500D01*
X842500Y316500D01*
Y315500D01*
Y479700D02*
X843500D01*
X844500Y480700D01*
X845500Y479700D01*
X846500D01*
Y480700D01*
X845500Y481700D01*
X846500Y482700D01*
Y483700D01*
X845500D01*
X844500Y482700D01*
X843500Y483700D01*
X842500D01*
Y482700D01*
X843500Y481700D01*
X842500Y480700D01*
Y479700D01*
X839800Y250500D02*
X840800D01*
X841800Y251500D01*
X842800Y250500D01*
X843800D01*
Y251500D01*
X842800Y252500D01*
X843800Y253500D01*
Y254500D01*
X842800D01*
X841800Y253500D01*
X840800Y254500D01*
X839800D01*
Y253500D01*
X840800Y252500D01*
X839800Y251500D01*
Y250500D01*
X840000Y448000D02*
X841000D01*
X842000Y449000D01*
X843000Y448000D01*
X844000D01*
Y449000D01*
X843000Y450000D01*
X844000Y451000D01*
Y452000D01*
X843000D01*
X842000Y451000D01*
X841000Y452000D01*
X840000D01*
Y451000D01*
X841000Y450000D01*
X840000Y449000D01*
Y448000D01*
X837500Y315500D02*
X838500D01*
X839500Y316500D01*
X840500Y315500D01*
X841500D01*
Y316500D01*
X840500Y317500D01*
X841500Y318500D01*
Y319500D01*
X840500D01*
X839500Y318500D01*
X838500Y319500D01*
X837500D01*
Y318500D01*
X838500Y317500D01*
X837500Y316500D01*
Y315500D01*
X835000Y448000D02*
X836000D01*
X837000Y449000D01*
X838000Y448000D01*
X839000D01*
Y449000D01*
X838000Y450000D01*
X839000Y451000D01*
Y452000D01*
X838000D01*
X837000Y451000D01*
X836000Y452000D01*
X835000D01*
Y451000D01*
X836000Y450000D01*
X835000Y449000D01*
Y448000D01*
X832500Y235500D02*
X833500D01*
X834500Y236500D01*
X835500Y235500D01*
X836500D01*
Y236500D01*
X835500Y237500D01*
X836500Y238500D01*
Y239500D01*
X835500D01*
X834500Y238500D01*
X833500Y239500D01*
X832500D01*
Y238500D01*
X833500Y237500D01*
X832500Y236500D01*
Y235500D01*
Y479700D02*
X833500D01*
X834500Y480700D01*
X835500Y479700D01*
X836500D01*
Y480700D01*
X835500Y481700D01*
X836500Y482700D01*
Y483700D01*
X835500D01*
X834500Y482700D01*
X833500Y483700D01*
X832500D01*
Y482700D01*
X833500Y481700D01*
X832500Y480700D01*
Y479700D01*
Y250500D02*
X833500D01*
X834500Y251500D01*
X835500Y250500D01*
X836500D01*
Y251500D01*
X835500Y252500D01*
X836500Y253500D01*
Y254500D01*
X835500D01*
X834500Y253500D01*
X833500Y254500D01*
X832500D01*
Y253500D01*
X833500Y252500D01*
X832500Y251500D01*
Y250500D01*
Y424500D02*
X833500D01*
X834500Y425500D01*
X835500Y424500D01*
X836500D01*
Y425500D01*
X835500Y426500D01*
X836500Y427500D01*
Y428500D01*
X835500D01*
X834500Y427500D01*
X833500Y428500D01*
X832500D01*
Y427500D01*
X833500Y426500D01*
X832500Y425500D01*
Y424500D01*
Y365500D02*
X833500D01*
X834500Y366500D01*
X835500Y365500D01*
X836500D01*
Y366500D01*
X835500Y367500D01*
X836500Y368500D01*
Y369500D01*
X835500D01*
X834500Y368500D01*
X833500Y369500D01*
X832500D01*
Y368500D01*
X833500Y367500D01*
X832500Y366500D01*
Y365500D01*
Y240500D02*
X833500D01*
X834500Y241500D01*
X835500Y240500D01*
X836500D01*
Y241500D01*
X835500Y242500D01*
X836500Y243500D01*
Y244500D01*
X835500D01*
X834500Y243500D01*
X833500Y244500D01*
X832500D01*
Y243500D01*
X833500Y242500D01*
X832500Y241500D01*
Y240500D01*
X830000Y440500D02*
X831000D01*
X832000Y441500D01*
X833000Y440500D01*
X834000D01*
Y441500D01*
X833000Y442500D01*
X834000Y443500D01*
Y444500D01*
X833000D01*
X832000Y443500D01*
X831000Y444500D01*
X830000D01*
Y443500D01*
X831000Y442500D01*
X830000Y441500D01*
Y440500D01*
X829000Y424500D02*
X830000D01*
X831000Y425500D01*
X832000Y424500D01*
X833000D01*
Y425500D01*
X832000Y426500D01*
X833000Y427500D01*
Y428500D01*
X832000D01*
X831000Y427500D01*
X830000Y428500D01*
X829000D01*
Y427500D01*
X830000Y426500D01*
X829000Y425500D01*
Y424500D01*
X827500Y315500D02*
X828500D01*
X829500Y316500D01*
X830500Y315500D01*
X831500D01*
Y316500D01*
X830500Y317500D01*
X831500Y318500D01*
Y319500D01*
X830500D01*
X829500Y318500D01*
X828500Y319500D01*
X827500D01*
Y318500D01*
X828500Y317500D01*
X827500Y316500D01*
Y315500D01*
Y310500D02*
X828500D01*
X829500Y311500D01*
X830500Y310500D01*
X831500D01*
Y311500D01*
X830500Y312500D01*
X831500Y313500D01*
Y314500D01*
X830500D01*
X829500Y313500D01*
X828500Y314500D01*
X827500D01*
Y313500D01*
X828500Y312500D01*
X827500Y311500D01*
Y310500D01*
Y475500D02*
X828500D01*
X829500Y476500D01*
X830500Y475500D01*
X831500D01*
Y476500D01*
X830500Y477500D01*
X831500Y478500D01*
Y479500D01*
X830500D01*
X829500Y478500D01*
X828500Y479500D01*
X827500D01*
Y478500D01*
X828500Y477500D01*
X827500Y476500D01*
Y475500D01*
Y468000D02*
X828500D01*
X829500Y469000D01*
X830500Y468000D01*
X831500D01*
Y469000D01*
X830500Y470000D01*
X831500Y471000D01*
Y472000D01*
X830500D01*
X829500Y471000D01*
X828500Y472000D01*
X827500D01*
Y471000D01*
X828500Y470000D01*
X827500Y469000D01*
Y468000D01*
Y340500D02*
X828500D01*
X829500Y341500D01*
X830500Y340500D01*
X831500D01*
Y341500D01*
X830500Y342500D01*
X831500Y343500D01*
Y344500D01*
X830500D01*
X829500Y343500D01*
X828500Y344500D01*
X827500D01*
Y343500D01*
X828500Y342500D01*
X827500Y341500D01*
Y340500D01*
Y330500D02*
X828500D01*
X829500Y331500D01*
X830500Y330500D01*
X831500D01*
Y331500D01*
X830500Y332500D01*
X831500Y333500D01*
Y334500D01*
X830500D01*
X829500Y333500D01*
X828500Y334500D01*
X827500D01*
Y333500D01*
X828500Y332500D01*
X827500Y331500D01*
Y330500D01*
X825000Y440500D02*
X826000D01*
X827000Y441500D01*
X828000Y440500D01*
X829000D01*
Y441500D01*
X828000Y442500D01*
X829000Y443500D01*
Y444500D01*
X828000D01*
X827000Y443500D01*
X826000Y444500D01*
X825000D01*
Y443500D01*
X826000Y442500D01*
X825000Y441500D01*
Y440500D01*
Y435500D02*
X826000D01*
X827000Y436500D01*
X828000Y435500D01*
X829000D01*
Y436500D01*
X828000Y437500D01*
X829000Y438500D01*
Y439500D01*
X828000D01*
X827000Y438500D01*
X826000Y439500D01*
X825000D01*
Y438500D01*
X826000Y437500D01*
X825000Y436500D01*
Y435500D01*
X822500Y235500D02*
X823500D01*
X824500Y236500D01*
X825500Y235500D01*
X826500D01*
Y236500D01*
X825500Y237500D01*
X826500Y238500D01*
Y239500D01*
X825500D01*
X824500Y238500D01*
X823500Y239500D01*
X822500D01*
Y238500D01*
X823500Y237500D01*
X822500Y236500D01*
Y235500D01*
Y265500D02*
X823500D01*
X824500Y266500D01*
X825500Y265500D01*
X826500D01*
Y266500D01*
X825500Y267500D01*
X826500Y268500D01*
Y269500D01*
X825500D01*
X824500Y268500D01*
X823500Y269500D01*
X822500D01*
Y268500D01*
X823500Y267500D01*
X822500Y266500D01*
Y265500D01*
Y479700D02*
X823500D01*
X824500Y480700D01*
X825500Y479700D01*
X826500D01*
Y480700D01*
X825500Y481700D01*
X826500Y482700D01*
Y483700D01*
X825500D01*
X824500Y482700D01*
X823500Y483700D01*
X822500D01*
Y482700D01*
X823500Y481700D01*
X822500Y480700D01*
Y479700D01*
Y468000D02*
X823500D01*
X824500Y469000D01*
X825500Y468000D01*
X826500D01*
Y469000D01*
X825500Y470000D01*
X826500Y471000D01*
Y472000D01*
X825500D01*
X824500Y471000D01*
X823500Y472000D01*
X822500D01*
Y471000D01*
X823500Y470000D01*
X822500Y469000D01*
Y468000D01*
Y250500D02*
X823500D01*
X824500Y251500D01*
X825500Y250500D01*
X826500D01*
Y251500D01*
X825500Y252500D01*
X826500Y253500D01*
Y254500D01*
X825500D01*
X824500Y253500D01*
X823500Y254500D01*
X822500D01*
Y253500D01*
X823500Y252500D01*
X822500Y251500D01*
Y250500D01*
Y240500D02*
X823500D01*
X824500Y241500D01*
X825500Y240500D01*
X826500D01*
Y241500D01*
X825500Y242500D01*
X826500Y243500D01*
Y244500D01*
X825500D01*
X824500Y243500D01*
X823500Y244500D01*
X822500D01*
Y243500D01*
X823500Y242500D01*
X822500Y241500D01*
Y240500D01*
X817500Y365500D02*
X818500D01*
X819500Y366500D01*
X820500Y365500D01*
X821500D01*
Y366500D01*
X820500Y367500D01*
X821500Y368500D01*
Y369500D01*
X820500D01*
X819500Y368500D01*
X818500Y369500D01*
X817500D01*
Y368500D01*
X818500Y367500D01*
X817500Y366500D01*
Y365500D01*
Y330500D02*
X818500D01*
X819500Y331500D01*
X820500Y330500D01*
X821500D01*
Y331500D01*
X820500Y332500D01*
X821500Y333500D01*
Y334500D01*
X820500D01*
X819500Y333500D01*
X818500Y334500D01*
X817500D01*
Y333500D01*
X818500Y332500D01*
X817500Y331500D01*
Y330500D01*
X815000Y443000D02*
X816000D01*
X817000Y444000D01*
X818000Y443000D01*
X819000D01*
Y444000D01*
X818000Y445000D01*
X819000Y446000D01*
Y447000D01*
X818000D01*
X817000Y446000D01*
X816000Y447000D01*
X815000D01*
Y446000D01*
X816000Y445000D01*
X815000Y444000D01*
Y443000D01*
Y428000D02*
X816000D01*
X817000Y429000D01*
X818000Y428000D01*
X819000D01*
Y429000D01*
X818000Y430000D01*
X819000Y431000D01*
Y432000D01*
X818000D01*
X817000Y431000D01*
X816000Y432000D01*
X815000D01*
Y431000D01*
X816000Y430000D01*
X815000Y429000D01*
Y428000D01*
X812500Y250500D02*
X813500D01*
X814500Y251500D01*
X815500Y250500D01*
X816500D01*
Y251500D01*
X815500Y252500D01*
X816500Y253500D01*
Y254500D01*
X815500D01*
X814500Y253500D01*
X813500Y254500D01*
X812500D01*
Y253500D01*
X813500Y252500D01*
X812500Y251500D01*
Y250500D01*
Y330500D02*
X813500D01*
X814500Y331500D01*
X815500Y330500D01*
X816500D01*
Y331500D01*
X815500Y332500D01*
X816500Y333500D01*
Y334500D01*
X815500D01*
X814500Y333500D01*
X813500Y334500D01*
X812500D01*
Y333500D01*
X813500Y332500D01*
X812500Y331500D01*
Y330500D01*
X810000Y443000D02*
X811000D01*
X812000Y444000D01*
X813000Y443000D01*
X814000D01*
Y444000D01*
X813000Y445000D01*
X814000Y446000D01*
Y447000D01*
X813000D01*
X812000Y446000D01*
X811000Y447000D01*
X810000D01*
Y446000D01*
X811000Y445000D01*
X810000Y444000D01*
Y443000D01*
Y438000D02*
X811000D01*
X812000Y439000D01*
X813000Y438000D01*
X814000D01*
Y439000D01*
X813000Y440000D01*
X814000Y441000D01*
Y442000D01*
X813000D01*
X812000Y441000D01*
X811000Y442000D01*
X810000D01*
Y441000D01*
X811000Y440000D01*
X810000Y439000D01*
Y438000D01*
Y433000D02*
X811000D01*
X812000Y434000D01*
X813000Y433000D01*
X814000D01*
Y434000D01*
X813000Y435000D01*
X814000Y436000D01*
Y437000D01*
X813000D01*
X812000Y436000D01*
X811000Y437000D01*
X810000D01*
Y436000D01*
X811000Y435000D01*
X810000Y434000D01*
Y433000D01*
X807500Y235500D02*
X808500D01*
X809500Y236500D01*
X810500Y235500D01*
X811500D01*
Y236500D01*
X810500Y237500D01*
X811500Y238500D01*
Y239500D01*
X810500D01*
X809500Y238500D01*
X808500Y239500D01*
X807500D01*
Y238500D01*
X808500Y237500D01*
X807500Y236500D01*
Y235500D01*
Y479700D02*
X808500D01*
X809500Y480700D01*
X810500Y479700D01*
X811500D01*
Y480700D01*
X810500Y481700D01*
X811500Y482700D01*
Y483700D01*
X810500D01*
X809500Y482700D01*
X808500Y483700D01*
X807500D01*
Y482700D01*
X808500Y481700D01*
X807500Y480700D01*
Y479700D01*
Y365500D02*
X808500D01*
X809500Y366500D01*
X810500Y365500D01*
X811500D01*
Y366500D01*
X810500Y367500D01*
X811500Y368500D01*
Y369500D01*
X810500D01*
X809500Y368500D01*
X808500Y369500D01*
X807500D01*
Y368500D01*
X808500Y367500D01*
X807500Y366500D01*
Y365500D01*
Y340500D02*
X808500D01*
X809500Y341500D01*
X810500Y340500D01*
X811500D01*
Y341500D01*
X810500Y342500D01*
X811500Y343500D01*
Y344500D01*
X810500D01*
X809500Y343500D01*
X808500Y344500D01*
X807500D01*
Y343500D01*
X808500Y342500D01*
X807500Y341500D01*
Y340500D01*
Y240500D02*
X808500D01*
X809500Y241500D01*
X810500Y240500D01*
X811500D01*
Y241500D01*
X810500Y242500D01*
X811500Y243500D01*
Y244500D01*
X810500D01*
X809500Y243500D01*
X808500Y244500D01*
X807500D01*
Y243500D01*
X808500Y242500D01*
X807500Y241500D01*
Y240500D01*
X802500Y479700D02*
X803500D01*
X804500Y480700D01*
X805500Y479700D01*
X806500D01*
Y480700D01*
X805500Y481700D01*
X806500Y482700D01*
Y483700D01*
X805500D01*
X804500Y482700D01*
X803500Y483700D01*
X802500D01*
Y482700D01*
X803500Y481700D01*
X802500Y480700D01*
Y479700D01*
Y250500D02*
X803500D01*
X804500Y251500D01*
X805500Y250500D01*
X806500D01*
Y251500D01*
X805500Y252500D01*
X806500Y253500D01*
Y254500D01*
X805500D01*
X804500Y253500D01*
X803500Y254500D01*
X802500D01*
Y253500D01*
X803500Y252500D01*
X802500Y251500D01*
Y250500D01*
X800000Y446500D02*
X801000D01*
X802000Y447500D01*
X803000Y446500D01*
X804000D01*
Y447500D01*
X803000Y448500D01*
X804000Y449500D01*
Y450500D01*
X803000D01*
X802000Y449500D01*
X801000Y450500D01*
X800000D01*
Y449500D01*
X801000Y448500D01*
X800000Y447500D01*
Y446500D01*
X797500Y325500D02*
X798500D01*
X799500Y326500D01*
X800500Y325500D01*
X801500D01*
Y326500D01*
X800500Y327500D01*
X801500Y328500D01*
Y329500D01*
X800500D01*
X799500Y328500D01*
X798500Y329500D01*
X797500D01*
Y328500D01*
X798500Y327500D01*
X797500Y326500D01*
Y325500D01*
Y320500D02*
X798500D01*
X799500Y321500D01*
X800500Y320500D01*
X801500D01*
Y321500D01*
X800500Y322500D01*
X801500Y323500D01*
Y324500D01*
X800500D01*
X799500Y323500D01*
X798500Y324500D01*
X797500D01*
Y323500D01*
X798500Y322500D01*
X797500Y321500D01*
Y320500D01*
Y235500D02*
X798500D01*
X799500Y236500D01*
X800500Y235500D01*
X801500D01*
Y236500D01*
X800500Y237500D01*
X801500Y238500D01*
Y239500D01*
X800500D01*
X799500Y238500D01*
X798500Y239500D01*
X797500D01*
Y238500D01*
X798500Y237500D01*
X797500Y236500D01*
Y235500D01*
Y265500D02*
X798500D01*
X799500Y266500D01*
X800500Y265500D01*
X801500D01*
Y266500D01*
X800500Y267500D01*
X801500Y268500D01*
Y269500D01*
X800500D01*
X799500Y268500D01*
X798500Y269500D01*
X797500D01*
Y268500D01*
X798500Y267500D01*
X797500Y266500D01*
Y265500D01*
Y340500D02*
X798500D01*
X799500Y341500D01*
X800500Y340500D01*
X801500D01*
Y341500D01*
X800500Y342500D01*
X801500Y343500D01*
Y344500D01*
X800500D01*
X799500Y343500D01*
X798500Y344500D01*
X797500D01*
Y343500D01*
X798500Y342500D01*
X797500Y341500D01*
Y340500D01*
Y240500D02*
X798500D01*
X799500Y241500D01*
X800500Y240500D01*
X801500D01*
Y241500D01*
X800500Y242500D01*
X801500Y243500D01*
Y244500D01*
X800500D01*
X799500Y243500D01*
X798500Y244500D01*
X797500D01*
Y243500D01*
X798500Y242500D01*
X797500Y241500D01*
Y240500D01*
X794882Y469956D02*
X795882D01*
X796882Y470956D01*
X797882Y469956D01*
X798882D01*
Y470956D01*
X797882Y471956D01*
X798882Y472956D01*
Y473956D01*
X797882D01*
X796882Y472956D01*
X795882Y473956D01*
X794882D01*
Y472956D01*
X795882Y471956D01*
X794882Y470956D01*
Y469956D01*
X794382Y459556D02*
X795382D01*
X796382Y460556D01*
X797382Y459556D01*
X798382D01*
Y460556D01*
X797382Y461556D01*
X798382Y462556D01*
Y463556D01*
X797382D01*
X796382Y462556D01*
X795382Y463556D01*
X794382D01*
Y462556D01*
X795382Y461556D01*
X794382Y460556D01*
Y459556D01*
X792500Y479700D02*
X793500D01*
X794500Y480700D01*
X795500Y479700D01*
X796500D01*
Y480700D01*
X795500Y481700D01*
X796500Y482700D01*
Y483700D01*
X795500D01*
X794500Y482700D01*
X793500Y483700D01*
X792500D01*
Y482700D01*
X793500Y481700D01*
X792500Y480700D01*
Y479700D01*
Y250500D02*
X793500D01*
X794500Y251500D01*
X795500Y250500D01*
X796500D01*
Y251500D01*
X795500Y252500D01*
X796500Y253500D01*
Y254500D01*
X795500D01*
X794500Y253500D01*
X793500Y254500D01*
X792500D01*
Y253500D01*
X793500Y252500D01*
X792500Y251500D01*
Y250500D01*
Y365500D02*
X793500D01*
X794500Y366500D01*
X795500Y365500D01*
X796500D01*
Y366500D01*
X795500Y367500D01*
X796500Y368500D01*
Y369500D01*
X795500D01*
X794500Y368500D01*
X793500Y369500D01*
X792500D01*
Y368500D01*
X793500Y367500D01*
X792500Y366500D01*
Y365500D01*
X787500Y325500D02*
X788500D01*
X789500Y326500D01*
X790500Y325500D01*
X791500D01*
Y326500D01*
X790500Y327500D01*
X791500Y328500D01*
Y329500D01*
X790500D01*
X789500Y328500D01*
X788500Y329500D01*
X787500D01*
Y328500D01*
X788500Y327500D01*
X787500Y326500D01*
Y325500D01*
Y320500D02*
X788500D01*
X789500Y321500D01*
X790500Y320500D01*
X791500D01*
Y321500D01*
X790500Y322500D01*
X791500Y323500D01*
Y324500D01*
X790500D01*
X789500Y323500D01*
X788500Y324500D01*
X787500D01*
Y323500D01*
X788500Y322500D01*
X787500Y321500D01*
Y320500D01*
Y455800D02*
X788500D01*
X789500Y456800D01*
X790500Y455800D01*
X791500D01*
Y456800D01*
X790500Y457800D01*
X791500Y458800D01*
Y459800D01*
X790500D01*
X789500Y458800D01*
X788500Y459800D01*
X787500D01*
Y458800D01*
X788500Y457800D01*
X787500Y456800D01*
Y455800D01*
Y450800D02*
X788500D01*
X789500Y451800D01*
X790500Y450800D01*
X791500D01*
Y451800D01*
X790500Y452800D01*
X791500Y453800D01*
Y454800D01*
X790500D01*
X789500Y453800D01*
X788500Y454800D01*
X787500D01*
Y453800D01*
X788500Y452800D01*
X787500Y451800D01*
Y450800D01*
Y446500D02*
X788500D01*
X789500Y447500D01*
X790500Y446500D01*
X791500D01*
Y447500D01*
X790500Y448500D01*
X791500Y449500D01*
Y450500D01*
X790500D01*
X789500Y449500D01*
X788500Y450500D01*
X787500D01*
Y449500D01*
X788500Y448500D01*
X787500Y447500D01*
Y446500D01*
Y415500D02*
X788500D01*
X789500Y416500D01*
X790500Y415500D01*
X791500D01*
Y416500D01*
X790500Y417500D01*
X791500Y418500D01*
Y419500D01*
X790500D01*
X789500Y418500D01*
X788500Y419500D01*
X787500D01*
Y418500D01*
X788500Y417500D01*
X787500Y416500D01*
Y415500D01*
Y410500D02*
X788500D01*
X789500Y411500D01*
X790500Y410500D01*
X791500D01*
Y411500D01*
X790500Y412500D01*
X791500Y413500D01*
Y414500D01*
X790500D01*
X789500Y413500D01*
X788500Y414500D01*
X787500D01*
Y413500D01*
X788500Y412500D01*
X787500Y411500D01*
Y410500D01*
X782500Y315500D02*
X783500D01*
X784500Y316500D01*
X785500Y315500D01*
X786500D01*
Y316500D01*
X785500Y317500D01*
X786500Y318500D01*
Y319500D01*
X785500D01*
X784500Y318500D01*
X783500Y319500D01*
X782500D01*
Y318500D01*
X783500Y317500D01*
X782500Y316500D01*
Y315500D01*
Y235500D02*
X783500D01*
X784500Y236500D01*
X785500Y235500D01*
X786500D01*
Y236500D01*
X785500Y237500D01*
X786500Y238500D01*
Y239500D01*
X785500D01*
X784500Y238500D01*
X783500Y239500D01*
X782500D01*
Y238500D01*
X783500Y237500D01*
X782500Y236500D01*
Y235500D01*
Y479700D02*
X783500D01*
X784500Y480700D01*
X785500Y479700D01*
X786500D01*
Y480700D01*
X785500Y481700D01*
X786500Y482700D01*
Y483700D01*
X785500D01*
X784500Y482700D01*
X783500Y483700D01*
X782500D01*
Y482700D01*
X783500Y481700D01*
X782500Y480700D01*
Y479700D01*
Y250500D02*
X783500D01*
X784500Y251500D01*
X785500Y250500D01*
X786500D01*
Y251500D01*
X785500Y252500D01*
X786500Y253500D01*
Y254500D01*
X785500D01*
X784500Y253500D01*
X783500Y254500D01*
X782500D01*
Y253500D01*
X783500Y252500D01*
X782500Y251500D01*
Y250500D01*
Y395500D02*
X783500D01*
X784500Y396500D01*
X785500Y395500D01*
X786500D01*
Y396500D01*
X785500Y397500D01*
X786500Y398500D01*
Y399500D01*
X785500D01*
X784500Y398500D01*
X783500Y399500D01*
X782500D01*
Y398500D01*
X783500Y397500D01*
X782500Y396500D01*
Y395500D01*
Y390500D02*
X783500D01*
X784500Y391500D01*
X785500Y390500D01*
X786500D01*
Y391500D01*
X785500Y392500D01*
X786500Y393500D01*
Y394500D01*
X785500D01*
X784500Y393500D01*
X783500Y394500D01*
X782500D01*
Y393500D01*
X783500Y392500D01*
X782500Y391500D01*
Y390500D01*
Y385500D02*
X783500D01*
X784500Y386500D01*
X785500Y385500D01*
X786500D01*
Y386500D01*
X785500Y387500D01*
X786500Y388500D01*
Y389500D01*
X785500D01*
X784500Y388500D01*
X783500Y389500D01*
X782500D01*
Y388500D01*
X783500Y387500D01*
X782500Y386500D01*
Y385500D01*
Y340500D02*
X783500D01*
X784500Y341500D01*
X785500Y340500D01*
X786500D01*
Y341500D01*
X785500Y342500D01*
X786500Y343500D01*
Y344500D01*
X785500D01*
X784500Y343500D01*
X783500Y344500D01*
X782500D01*
Y343500D01*
X783500Y342500D01*
X782500Y341500D01*
Y340500D01*
Y240500D02*
X783500D01*
X784500Y241500D01*
X785500Y240500D01*
X786500D01*
Y241500D01*
X785500Y242500D01*
X786500Y243500D01*
Y244500D01*
X785500D01*
X784500Y243500D01*
X783500Y244500D01*
X782500D01*
Y243500D01*
X783500Y242500D01*
X782500Y241500D01*
Y240500D01*
X777500Y443000D02*
X778500D01*
X779500Y444000D01*
X780500Y443000D01*
X781500D01*
Y444000D01*
X780500Y445000D01*
X781500Y446000D01*
Y447000D01*
X780500D01*
X779500Y446000D01*
X778500Y447000D01*
X777500D01*
Y446000D01*
X778500Y445000D01*
X777500Y444000D01*
Y443000D01*
Y438000D02*
X778500D01*
X779500Y439000D01*
X780500Y438000D01*
X781500D01*
Y439000D01*
X780500Y440000D01*
X781500Y441000D01*
Y442000D01*
X780500D01*
X779500Y441000D01*
X778500Y442000D01*
X777500D01*
Y441000D01*
X778500Y440000D01*
X777500Y439000D01*
Y438000D01*
X772500Y235500D02*
X773500D01*
X774500Y236500D01*
X775500Y235500D01*
X776500D01*
Y236500D01*
X775500Y237500D01*
X776500Y238500D01*
Y239500D01*
X775500D01*
X774500Y238500D01*
X773500Y239500D01*
X772500D01*
Y238500D01*
X773500Y237500D01*
X772500Y236500D01*
Y235500D01*
Y265500D02*
X773500D01*
X774500Y266500D01*
X775500Y265500D01*
X776500D01*
Y266500D01*
X775500Y267500D01*
X776500Y268500D01*
Y269500D01*
X775500D01*
X774500Y268500D01*
X773500Y269500D01*
X772500D01*
Y268500D01*
X773500Y267500D01*
X772500Y266500D01*
Y265500D01*
Y479700D02*
X773500D01*
X774500Y480700D01*
X775500Y479700D01*
X776500D01*
Y480700D01*
X775500Y481700D01*
X776500Y482700D01*
Y483700D01*
X775500D01*
X774500Y482700D01*
X773500Y483700D01*
X772500D01*
Y482700D01*
X773500Y481700D01*
X772500Y480700D01*
Y479700D01*
Y470500D02*
X773500D01*
X774500Y471500D01*
X775500Y470500D01*
X776500D01*
Y471500D01*
X775500Y472500D01*
X776500Y473500D01*
Y474500D01*
X775500D01*
X774500Y473500D01*
X773500Y474500D01*
X772500D01*
Y473500D01*
X773500Y472500D01*
X772500Y471500D01*
Y470500D01*
Y465500D02*
X773500D01*
X774500Y466500D01*
X775500Y465500D01*
X776500D01*
Y466500D01*
X775500Y467500D01*
X776500Y468500D01*
Y469500D01*
X775500D01*
X774500Y468500D01*
X773500Y469500D01*
X772500D01*
Y468500D01*
X773500Y467500D01*
X772500Y466500D01*
Y465500D01*
Y250500D02*
X773500D01*
X774500Y251500D01*
X775500Y250500D01*
X776500D01*
Y251500D01*
X775500Y252500D01*
X776500Y253500D01*
Y254500D01*
X775500D01*
X774500Y253500D01*
X773500Y254500D01*
X772500D01*
Y253500D01*
X773500Y252500D01*
X772500Y251500D01*
Y250500D01*
Y365500D02*
X773500D01*
X774500Y366500D01*
X775500Y365500D01*
X776500D01*
Y366500D01*
X775500Y367500D01*
X776500Y368500D01*
Y369500D01*
X775500D01*
X774500Y368500D01*
X773500Y369500D01*
X772500D01*
Y368500D01*
X773500Y367500D01*
X772500Y366500D01*
Y365500D01*
Y355500D02*
X773500D01*
X774500Y356500D01*
X775500Y355500D01*
X776500D01*
Y356500D01*
X775500Y357500D01*
X776500Y358500D01*
Y359500D01*
X775500D01*
X774500Y358500D01*
X773500Y359500D01*
X772500D01*
Y358500D01*
X773500Y357500D01*
X772500Y356500D01*
Y355500D01*
Y240500D02*
X773500D01*
X774500Y241500D01*
X775500Y240500D01*
X776500D01*
Y241500D01*
X775500Y242500D01*
X776500Y243500D01*
Y244500D01*
X775500D01*
X774500Y243500D01*
X773500Y244500D01*
X772500D01*
Y243500D01*
X773500Y242500D01*
X772500Y241500D01*
Y240500D01*
X767500Y270500D02*
X768500D01*
X769500Y271500D01*
X770500Y270500D01*
X771500D01*
Y271500D01*
X770500Y272500D01*
X771500Y273500D01*
Y274500D01*
X770500D01*
X769500Y273500D01*
X768500Y274500D01*
X767500D01*
Y273500D01*
X768500Y272500D01*
X767500Y271500D01*
Y270500D01*
Y470500D02*
X768500D01*
X769500Y471500D01*
X770500Y470500D01*
X771500D01*
Y471500D01*
X770500Y472500D01*
X771500Y473500D01*
Y474500D01*
X770500D01*
X769500Y473500D01*
X768500Y474500D01*
X767500D01*
Y473500D01*
X768500Y472500D01*
X767500Y471500D01*
Y470500D01*
Y365500D02*
X768500D01*
X769500Y366500D01*
X770500Y365500D01*
X771500D01*
Y366500D01*
X770500Y367500D01*
X771500Y368500D01*
Y369500D01*
X770500D01*
X769500Y368500D01*
X768500Y369500D01*
X767500D01*
Y368500D01*
X768500Y367500D01*
X767500Y366500D01*
Y365500D01*
Y355500D02*
X768500D01*
X769500Y356500D01*
X770500Y355500D01*
X771500D01*
Y356500D01*
X770500Y357500D01*
X771500Y358500D01*
Y359500D01*
X770500D01*
X769500Y358500D01*
X768500Y359500D01*
X767500D01*
Y358500D01*
X768500Y357500D01*
X767500Y356500D01*
Y355500D01*
X762500Y270500D02*
X763500D01*
X764500Y271500D01*
X765500Y270500D01*
X766500D01*
Y271500D01*
X765500Y272500D01*
X766500Y273500D01*
Y274500D01*
X765500D01*
X764500Y273500D01*
X763500Y274500D01*
X762500D01*
Y273500D01*
X763500Y272500D01*
X762500Y271500D01*
Y270500D01*
Y250500D02*
X763500D01*
X764500Y251500D01*
X765500Y250500D01*
X766500D01*
Y251500D01*
X765500Y252500D01*
X766500Y253500D01*
Y254500D01*
X765500D01*
X764500Y253500D01*
X763500Y254500D01*
X762500D01*
Y253500D01*
X763500Y252500D01*
X762500Y251500D01*
Y250500D01*
X757500Y235500D02*
X758500D01*
X759500Y236500D01*
X760500Y235500D01*
X761500D01*
Y236500D01*
X760500Y237500D01*
X761500Y238500D01*
Y239500D01*
X760500D01*
X759500Y238500D01*
X758500Y239500D01*
X757500D01*
Y238500D01*
X758500Y237500D01*
X757500Y236500D01*
Y235500D01*
Y395500D02*
X758500D01*
X759500Y396500D01*
X760500Y395500D01*
X761500D01*
Y396500D01*
X760500Y397500D01*
X761500Y398500D01*
Y399500D01*
X760500D01*
X759500Y398500D01*
X758500Y399500D01*
X757500D01*
Y398500D01*
X758500Y397500D01*
X757500Y396500D01*
Y395500D01*
Y390500D02*
X758500D01*
X759500Y391500D01*
X760500Y390500D01*
X761500D01*
Y391500D01*
X760500Y392500D01*
X761500Y393500D01*
Y394500D01*
X760500D01*
X759500Y393500D01*
X758500Y394500D01*
X757500D01*
Y393500D01*
X758500Y392500D01*
X757500Y391500D01*
Y390500D01*
Y385500D02*
X758500D01*
X759500Y386500D01*
X760500Y385500D01*
X761500D01*
Y386500D01*
X760500Y387500D01*
X761500Y388500D01*
Y389500D01*
X760500D01*
X759500Y388500D01*
X758500Y389500D01*
X757500D01*
Y388500D01*
X758500Y387500D01*
X757500Y386500D01*
Y385500D01*
Y240500D02*
X758500D01*
X759500Y241500D01*
X760500Y240500D01*
X761500D01*
Y241500D01*
X760500Y242500D01*
X761500Y243500D01*
Y244500D01*
X760500D01*
X759500Y243500D01*
X758500Y244500D01*
X757500D01*
Y243500D01*
X758500Y242500D01*
X757500Y241500D01*
Y240500D01*
X752500Y270500D02*
X753500D01*
X754500Y271500D01*
X755500Y270500D01*
X756500D01*
Y271500D01*
X755500Y272500D01*
X756500Y273500D01*
Y274500D01*
X755500D01*
X754500Y273500D01*
X753500Y274500D01*
X752500D01*
Y273500D01*
X753500Y272500D01*
X752500Y271500D01*
Y270500D01*
Y260500D02*
X753500D01*
X754500Y261500D01*
X755500Y260500D01*
X756500D01*
Y261500D01*
X755500Y262500D01*
X756500Y263500D01*
Y264500D01*
X755500D01*
X754500Y263500D01*
X753500Y264500D01*
X752500D01*
Y263500D01*
X753500Y262500D01*
X752500Y261500D01*
Y260500D01*
Y250500D02*
X753500D01*
X754500Y251500D01*
X755500Y250500D01*
X756500D01*
Y251500D01*
X755500Y252500D01*
X756500Y253500D01*
Y254500D01*
X755500D01*
X754500Y253500D01*
X753500Y254500D01*
X752500D01*
Y253500D01*
X753500Y252500D01*
X752500Y251500D01*
Y250500D01*
X747500Y235500D02*
X748500D01*
X749500Y236500D01*
X750500Y235500D01*
X751500D01*
Y236500D01*
X750500Y237500D01*
X751500Y238500D01*
Y239500D01*
X750500D01*
X749500Y238500D01*
X748500Y239500D01*
X747500D01*
Y238500D01*
X748500Y237500D01*
X747500Y236500D01*
Y235500D01*
Y240500D02*
X748500D01*
X749500Y241500D01*
X750500Y240500D01*
X751500D01*
Y241500D01*
X750500Y242500D01*
X751500Y243500D01*
Y244500D01*
X750500D01*
X749500Y243500D01*
X748500Y244500D01*
X747500D01*
Y243500D01*
X748500Y242500D01*
X747500Y241500D01*
Y240500D01*
X742500Y270500D02*
X743500D01*
X744500Y271500D01*
X745500Y270500D01*
X746500D01*
Y271500D01*
X745500Y272500D01*
X746500Y273500D01*
Y274500D01*
X745500D01*
X744500Y273500D01*
X743500Y274500D01*
X742500D01*
Y273500D01*
X743500Y272500D01*
X742500Y271500D01*
Y270500D01*
Y250500D02*
X743500D01*
X744500Y251500D01*
X745500Y250500D01*
X746500D01*
Y251500D01*
X745500Y252500D01*
X746500Y253500D01*
Y254500D01*
X745500D01*
X744500Y253500D01*
X743500Y254500D01*
X742500D01*
Y253500D01*
X743500Y252500D01*
X742500Y251500D01*
Y250500D01*
X732500Y235500D02*
X733500D01*
X734500Y236500D01*
X735500Y235500D01*
X736500D01*
Y236500D01*
X735500Y237500D01*
X736500Y238500D01*
Y239500D01*
X735500D01*
X734500Y238500D01*
X733500Y239500D01*
X732500D01*
Y238500D01*
X733500Y237500D01*
X732500Y236500D01*
Y235500D01*
Y270500D02*
X733500D01*
X734500Y271500D01*
X735500Y270500D01*
X736500D01*
Y271500D01*
X735500Y272500D01*
X736500Y273500D01*
Y274500D01*
X735500D01*
X734500Y273500D01*
X733500Y274500D01*
X732500D01*
Y273500D01*
X733500Y272500D01*
X732500Y271500D01*
Y270500D01*
Y265500D02*
X733500D01*
X734500Y266500D01*
X735500Y265500D01*
X736500D01*
Y266500D01*
X735500Y267500D01*
X736500Y268500D01*
Y269500D01*
X735500D01*
X734500Y268500D01*
X733500Y269500D01*
X732500D01*
Y268500D01*
X733500Y267500D01*
X732500Y266500D01*
Y265500D01*
Y250500D02*
X733500D01*
X734500Y251500D01*
X735500Y250500D01*
X736500D01*
Y251500D01*
X735500Y252500D01*
X736500Y253500D01*
Y254500D01*
X735500D01*
X734500Y253500D01*
X733500Y254500D01*
X732500D01*
Y253500D01*
X733500Y252500D01*
X732500Y251500D01*
Y250500D01*
Y240500D02*
X733500D01*
X734500Y241500D01*
X735500Y240500D01*
X736500D01*
Y241500D01*
X735500Y242500D01*
X736500Y243500D01*
Y244500D01*
X735500D01*
X734500Y243500D01*
X733500Y244500D01*
X732500D01*
Y243500D01*
X733500Y242500D01*
X732500Y241500D01*
Y240500D01*
X722500Y255500D02*
X723500D01*
X724500Y256500D01*
X725500Y255500D01*
X726500D01*
Y256500D01*
X725500Y257500D01*
X726500Y258500D01*
Y259500D01*
X725500D01*
X724500Y258500D01*
X723500Y259500D01*
X722500D01*
Y258500D01*
X723500Y257500D01*
X722500Y256500D01*
Y255500D01*
X697500Y250500D02*
X698500D01*
X699500Y251500D01*
X700500Y250500D01*
X701500D01*
Y251500D01*
X700500Y252500D01*
X701500Y253500D01*
Y254500D01*
X700500D01*
X699500Y253500D01*
X698500Y254500D01*
X697500D01*
Y253500D01*
X698500Y252500D01*
X697500Y251500D01*
Y250500D01*
X682500Y363000D02*
X683500D01*
X684500Y364000D01*
X685500Y363000D01*
X686500D01*
Y364000D01*
X685500Y365000D01*
X686500Y366000D01*
Y367000D01*
X685500D01*
X684500Y366000D01*
X683500Y367000D01*
X682500D01*
Y366000D01*
X683500Y365000D01*
X682500Y364000D01*
Y363000D01*
X675000D02*
X676000D01*
X677000Y364000D01*
X678000Y363000D01*
X679000D01*
Y364000D01*
X678000Y365000D01*
X679000Y366000D01*
Y367000D01*
X678000D01*
X677000Y366000D01*
X676000Y367000D01*
X675000D01*
Y366000D01*
X676000Y365000D01*
X675000Y364000D01*
Y363000D01*
X665000Y373000D02*
X666000D01*
X667000Y374000D01*
X668000Y373000D01*
X669000D01*
Y374000D01*
X668000Y375000D01*
X669000Y376000D01*
Y377000D01*
X668000D01*
X667000Y376000D01*
X666000Y377000D01*
X665000D01*
Y376000D01*
X666000Y375000D01*
X665000Y374000D01*
Y373000D01*
Y353000D02*
X666000D01*
X667000Y354000D01*
X668000Y353000D01*
X669000D01*
Y354000D01*
X668000Y355000D01*
X669000Y356000D01*
Y357000D01*
X668000D01*
X667000Y356000D01*
X666000Y357000D01*
X665000D01*
Y356000D01*
X666000Y355000D01*
X665000Y354000D01*
Y353000D01*
X656795Y329240D02*
X657795D01*
X658795Y330240D01*
X659795Y329240D01*
X660795D01*
Y330240D01*
X659795Y331240D01*
X660795Y332240D01*
Y333240D01*
X659795D01*
X658795Y332240D01*
X657795Y333240D01*
X656795D01*
Y332240D01*
X657795Y331240D01*
X656795Y330240D01*
Y329240D01*
Y342500D02*
X657795D01*
X658795Y343500D01*
X659795Y342500D01*
X660795D01*
Y343500D01*
X659795Y344500D01*
X660795Y345500D01*
Y346500D01*
X659795D01*
X658795Y345500D01*
X657795Y346500D01*
X656795D01*
Y345500D01*
X657795Y344500D01*
X656795Y343500D01*
Y342500D01*
X650000Y368000D02*
X651000D01*
X652000Y369000D01*
X653000Y368000D01*
X654000D01*
Y369000D01*
X653000Y370000D01*
X654000Y371000D01*
Y372000D01*
X653000D01*
X652000Y371000D01*
X651000Y372000D01*
X650000D01*
Y371000D01*
X651000Y370000D01*
X650000Y369000D01*
Y368000D01*
X645000D02*
X646000D01*
X647000Y369000D01*
X648000Y368000D01*
X649000D01*
Y369000D01*
X648000Y370000D01*
X649000Y371000D01*
Y372000D01*
X648000D01*
X647000Y371000D01*
X646000Y372000D01*
X645000D01*
Y371000D01*
X646000Y370000D01*
X645000Y369000D01*
Y368000D01*
X958000Y395000D02*
X959000D01*
X960000Y396000D01*
X961000Y395000D01*
X962000D01*
Y396000D01*
X961000Y397000D01*
X962000Y398000D01*
Y399000D01*
X961000D01*
X960000Y398000D01*
X959000Y399000D01*
X958000D01*
Y398000D01*
X959000Y397000D01*
X958000Y396000D01*
Y395000D01*
X993000Y288000D02*
X994000D01*
X995000Y289000D01*
X996000Y288000D01*
X997000D01*
Y289000D01*
X996000Y290000D01*
X997000Y291000D01*
Y292000D01*
X996000D01*
X995000Y291000D01*
X994000Y292000D01*
X993000D01*
Y291000D01*
X994000Y290000D01*
X993000Y289000D01*
Y288000D01*
Y328000D02*
X994000D01*
X995000Y329000D01*
X996000Y328000D01*
X997000D01*
Y329000D01*
X996000Y330000D01*
X997000Y331000D01*
Y332000D01*
X996000D01*
X995000Y331000D01*
X994000Y332000D01*
X993000D01*
Y331000D01*
X994000Y330000D01*
X993000Y329000D01*
Y328000D01*
X998000Y278000D02*
X999000D01*
X1000000Y279000D01*
X1001000Y278000D01*
X1002000D01*
Y279000D01*
X1001000Y280000D01*
X1002000Y281000D01*
Y282000D01*
X1001000D01*
X1000000Y281000D01*
X999000Y282000D01*
X998000D01*
Y281000D01*
X999000Y280000D01*
X998000Y279000D01*
Y278000D01*
X1003000Y288000D02*
X1004000D01*
X1005000Y289000D01*
X1006000Y288000D01*
X1007000D01*
Y289000D01*
X1006000Y290000D01*
X1007000Y291000D01*
Y292000D01*
X1006000D01*
X1005000Y291000D01*
X1004000Y292000D01*
X1003000D01*
Y291000D01*
X1004000Y290000D01*
X1003000Y289000D01*
Y288000D01*
Y308000D02*
X1004000D01*
X1005000Y309000D01*
X1006000Y308000D01*
X1007000D01*
Y309000D01*
X1006000Y310000D01*
X1007000Y311000D01*
Y312000D01*
X1006000D01*
X1005000Y311000D01*
X1004000Y312000D01*
X1003000D01*
Y311000D01*
X1004000Y310000D01*
X1003000Y309000D01*
Y308000D01*
X998000Y318000D02*
X999000D01*
X1000000Y319000D01*
X1001000Y318000D01*
X1002000D01*
Y319000D01*
X1001000Y320000D01*
X1002000Y321000D01*
Y322000D01*
X1001000D01*
X1000000Y321000D01*
X999000Y322000D01*
X998000D01*
Y321000D01*
X999000Y320000D01*
X998000Y319000D01*
Y318000D01*
X1003000Y328000D02*
X1004000D01*
X1005000Y329000D01*
X1006000Y328000D01*
X1007000D01*
Y329000D01*
X1006000Y330000D01*
X1007000Y331000D01*
Y332000D01*
X1006000D01*
X1005000Y331000D01*
X1004000Y332000D01*
X1003000D01*
Y331000D01*
X1004000Y330000D01*
X1003000Y329000D01*
Y328000D01*
X998000Y338000D02*
X999000D01*
X1000000Y339000D01*
X1001000Y338000D01*
X1002000D01*
Y339000D01*
X1001000Y340000D01*
X1002000Y341000D01*
Y342000D01*
X1001000D01*
X1000000Y341000D01*
X999000Y342000D01*
X998000D01*
Y341000D01*
X999000Y340000D01*
X998000Y339000D01*
Y338000D01*
X1003000Y348000D02*
X1004000D01*
X1005000Y349000D01*
X1006000Y348000D01*
X1007000D01*
Y349000D01*
X1006000Y350000D01*
X1007000Y351000D01*
Y352000D01*
X1006000D01*
X1005000Y351000D01*
X1004000Y352000D01*
X1003000D01*
Y351000D01*
X1004000Y350000D01*
X1003000Y349000D01*
Y348000D01*
Y368000D02*
X1004000D01*
X1005000Y369000D01*
X1006000Y368000D01*
X1007000D01*
Y369000D01*
X1006000Y370000D01*
X1007000Y371000D01*
Y372000D01*
X1006000D01*
X1005000Y371000D01*
X1004000Y372000D01*
X1003000D01*
Y371000D01*
X1004000Y370000D01*
X1003000Y369000D01*
Y368000D01*
Y388000D02*
X1004000D01*
X1005000Y389000D01*
X1006000Y388000D01*
X1007000D01*
Y389000D01*
X1006000Y390000D01*
X1007000Y391000D01*
Y392000D01*
X1006000D01*
X1005000Y391000D01*
X1004000Y392000D01*
X1003000D01*
Y391000D01*
X1004000Y390000D01*
X1003000Y389000D01*
Y388000D01*
Y408000D02*
X1004000D01*
X1005000Y409000D01*
X1006000Y408000D01*
X1007000D01*
Y409000D01*
X1006000Y410000D01*
X1007000Y411000D01*
Y412000D01*
X1006000D01*
X1005000Y411000D01*
X1004000Y412000D01*
X1003000D01*
Y411000D01*
X1004000Y410000D01*
X1003000Y409000D01*
Y408000D01*
Y428000D02*
X1004000D01*
X1005000Y429000D01*
X1006000Y428000D01*
X1007000D01*
Y429000D01*
X1006000Y430000D01*
X1007000Y431000D01*
Y432000D01*
X1006000D01*
X1005000Y431000D01*
X1004000Y432000D01*
X1003000D01*
Y431000D01*
X1004000Y430000D01*
X1003000Y429000D01*
Y428000D01*
X989800Y302500D02*
X990800D01*
X991800Y303500D01*
X992800Y302500D01*
X993800D01*
Y303500D01*
X992800Y304500D01*
X993800Y305500D01*
Y306500D01*
X992800D01*
X991800Y305500D01*
X990800Y306500D01*
X989800D01*
Y305500D01*
X990800Y304500D01*
X989800Y303500D01*
Y302500D01*
X979800Y293500D02*
X980800D01*
X981800Y294500D01*
X982800Y293500D01*
X983800D01*
Y294500D01*
X982800Y295500D01*
X983800Y296500D01*
Y297500D01*
X982800D01*
X981800Y296500D01*
X980800Y297500D01*
X979800D01*
Y296500D01*
X980800Y295500D01*
X979800Y294500D01*
Y293500D01*
X598000Y238000D02*
X599000D01*
X600000Y239000D01*
X601000Y238000D01*
X602000D01*
Y239000D01*
X601000Y240000D01*
X602000Y241000D01*
Y242000D01*
X601000D01*
X600000Y241000D01*
X599000Y242000D01*
X598000D01*
Y241000D01*
X599000Y240000D01*
X598000Y239000D01*
Y238000D01*
X603000Y248000D02*
X604000D01*
X605000Y249000D01*
X606000Y248000D01*
X607000D01*
Y249000D01*
X606000Y250000D01*
X607000Y251000D01*
Y252000D01*
X606000D01*
X605000Y251000D01*
X604000Y252000D01*
X603000D01*
Y251000D01*
X604000Y250000D01*
X603000Y249000D01*
Y248000D01*
X598000Y258000D02*
X599000D01*
X600000Y259000D01*
X601000Y258000D01*
X602000D01*
Y259000D01*
X601000Y260000D01*
X602000Y261000D01*
Y262000D01*
X601000D01*
X600000Y261000D01*
X599000Y262000D01*
X598000D01*
Y261000D01*
X599000Y260000D01*
X598000Y259000D01*
Y258000D01*
X603000Y288000D02*
X604000D01*
X605000Y289000D01*
X606000Y288000D01*
X607000D01*
Y289000D01*
X606000Y290000D01*
X607000Y291000D01*
Y292000D01*
X606000D01*
X605000Y291000D01*
X604000Y292000D01*
X603000D01*
Y291000D01*
X604000Y290000D01*
X603000Y289000D01*
Y288000D01*
X598000Y298000D02*
X599000D01*
X600000Y299000D01*
X601000Y298000D01*
X602000D01*
Y299000D01*
X601000Y300000D01*
X602000Y301000D01*
Y302000D01*
X601000D01*
X600000Y301000D01*
X599000Y302000D01*
X598000D01*
Y301000D01*
X599000Y300000D01*
X598000Y299000D01*
Y298000D01*
Y398000D02*
X599000D01*
X600000Y399000D01*
X601000Y398000D01*
X602000D01*
Y399000D01*
X601000Y400000D01*
X602000Y401000D01*
Y402000D01*
X601000D01*
X600000Y401000D01*
X599000Y402000D01*
X598000D01*
Y401000D01*
X599000Y400000D01*
X598000Y399000D01*
Y398000D01*
X603000Y408000D02*
X604000D01*
X605000Y409000D01*
X606000Y408000D01*
X607000D01*
Y409000D01*
X606000Y410000D01*
X607000Y411000D01*
Y412000D01*
X606000D01*
X605000Y411000D01*
X604000Y412000D01*
X603000D01*
Y411000D01*
X604000Y410000D01*
X603000Y409000D01*
Y408000D01*
X598000Y418000D02*
X599000D01*
X600000Y419000D01*
X601000Y418000D01*
X602000D01*
Y419000D01*
X601000Y420000D01*
X602000Y421000D01*
Y422000D01*
X601000D01*
X600000Y421000D01*
X599000Y422000D01*
X598000D01*
Y421000D01*
X599000Y420000D01*
X598000Y419000D01*
Y418000D01*
X603000Y428000D02*
X604000D01*
X605000Y429000D01*
X606000Y428000D01*
X607000D01*
Y429000D01*
X606000Y430000D01*
X607000Y431000D01*
Y432000D01*
X606000D01*
X605000Y431000D01*
X604000Y432000D01*
X603000D01*
Y431000D01*
X604000Y430000D01*
X603000Y429000D01*
Y428000D01*
X598000Y438000D02*
X599000D01*
X600000Y439000D01*
X601000Y438000D01*
X602000D01*
Y439000D01*
X601000Y440000D01*
X602000Y441000D01*
Y442000D01*
X601000D01*
X600000Y441000D01*
X599000Y442000D01*
X598000D01*
Y441000D01*
X599000Y440000D01*
X598000Y439000D01*
Y438000D01*
X603000Y448000D02*
X604000D01*
X605000Y449000D01*
X606000Y448000D01*
X607000D01*
Y449000D01*
X606000Y450000D01*
X607000Y451000D01*
Y452000D01*
X606000D01*
X605000Y451000D01*
X604000Y452000D01*
X603000D01*
Y451000D01*
X604000Y450000D01*
X603000Y449000D01*
Y448000D01*
X598000Y458000D02*
X599000D01*
X600000Y459000D01*
X601000Y458000D01*
X602000D01*
Y459000D01*
X601000Y460000D01*
X602000Y461000D01*
Y462000D01*
X601000D01*
X600000Y461000D01*
X599000Y462000D01*
X598000D01*
Y461000D01*
X599000Y460000D01*
X598000Y459000D01*
Y458000D01*
X603000Y468000D02*
X604000D01*
X605000Y469000D01*
X606000Y468000D01*
X607000D01*
Y469000D01*
X606000Y470000D01*
X607000Y471000D01*
Y472000D01*
X606000D01*
X605000Y471000D01*
X604000Y472000D01*
X603000D01*
Y471000D01*
X604000Y470000D01*
X603000Y469000D01*
Y468000D01*
X598000Y478000D02*
X599000D01*
X600000Y479000D01*
X601000Y478000D01*
X602000D01*
Y479000D01*
X601000Y480000D01*
X602000Y481000D01*
Y482000D01*
X601000D01*
X600000Y481000D01*
X599000Y482000D01*
X598000D01*
Y481000D01*
X599000Y480000D01*
X598000Y479000D01*
Y478000D01*
X608000Y258000D02*
X609000D01*
X610000Y259000D01*
X611000Y258000D01*
X612000D01*
Y259000D01*
X611000Y260000D01*
X612000Y261000D01*
Y262000D01*
X611000D01*
X610000Y261000D01*
X609000Y262000D01*
X608000D01*
Y261000D01*
X609000Y260000D01*
X608000Y259000D01*
Y258000D01*
X613000Y268000D02*
X614000D01*
X615000Y269000D01*
X616000Y268000D01*
X617000D01*
Y269000D01*
X616000Y270000D01*
X617000Y271000D01*
Y272000D01*
X616000D01*
X615000Y271000D01*
X614000Y272000D01*
X613000D01*
Y271000D01*
X614000Y270000D01*
X613000Y269000D01*
Y268000D01*
Y288000D02*
X614000D01*
X615000Y289000D01*
X616000Y288000D01*
X617000D01*
Y289000D01*
X616000Y290000D01*
X617000Y291000D01*
Y292000D01*
X616000D01*
X615000Y291000D01*
X614000Y292000D01*
X613000D01*
Y291000D01*
X614000Y290000D01*
X613000Y289000D01*
Y288000D01*
X608000Y298000D02*
X609000D01*
X610000Y299000D01*
X611000Y298000D01*
X612000D01*
Y299000D01*
X611000Y300000D01*
X612000Y301000D01*
Y302000D01*
X611000D01*
X610000Y301000D01*
X609000Y302000D01*
X608000D01*
Y301000D01*
X609000Y300000D01*
X608000Y299000D01*
Y298000D01*
Y418000D02*
X609000D01*
X610000Y419000D01*
X611000Y418000D01*
X612000D01*
Y419000D01*
X611000Y420000D01*
X612000Y421000D01*
Y422000D01*
X611000D01*
X610000Y421000D01*
X609000Y422000D01*
X608000D01*
Y421000D01*
X609000Y420000D01*
X608000Y419000D01*
Y418000D01*
X613000Y428000D02*
X614000D01*
X615000Y429000D01*
X616000Y428000D01*
X617000D01*
Y429000D01*
X616000Y430000D01*
X617000Y431000D01*
Y432000D01*
X616000D01*
X615000Y431000D01*
X614000Y432000D01*
X613000D01*
Y431000D01*
X614000Y430000D01*
X613000Y429000D01*
Y428000D01*
X608000Y438000D02*
X609000D01*
X610000Y439000D01*
X611000Y438000D01*
X612000D01*
Y439000D01*
X611000Y440000D01*
X612000Y441000D01*
Y442000D01*
X611000D01*
X610000Y441000D01*
X609000Y442000D01*
X608000D01*
Y441000D01*
X609000Y440000D01*
X608000Y439000D01*
Y438000D01*
X613000Y448000D02*
X614000D01*
X615000Y449000D01*
X616000Y448000D01*
X617000D01*
Y449000D01*
X616000Y450000D01*
X617000Y451000D01*
Y452000D01*
X616000D01*
X615000Y451000D01*
X614000Y452000D01*
X613000D01*
Y451000D01*
X614000Y450000D01*
X613000Y449000D01*
Y448000D01*
X608000Y458000D02*
X609000D01*
X610000Y459000D01*
X611000Y458000D01*
X612000D01*
Y459000D01*
X611000Y460000D01*
X612000Y461000D01*
Y462000D01*
X611000D01*
X610000Y461000D01*
X609000Y462000D01*
X608000D01*
Y461000D01*
X609000Y460000D01*
X608000Y459000D01*
Y458000D01*
X623000Y248000D02*
X624000D01*
X625000Y249000D01*
X626000Y248000D01*
X627000D01*
Y249000D01*
X626000Y250000D01*
X627000Y251000D01*
Y252000D01*
X626000D01*
X625000Y251000D01*
X624000Y252000D01*
X623000D01*
Y251000D01*
X624000Y250000D01*
X623000Y249000D01*
Y248000D01*
X618000Y258000D02*
X619000D01*
X620000Y259000D01*
X621000Y258000D01*
X622000D01*
Y259000D01*
X621000Y260000D01*
X622000Y261000D01*
Y262000D01*
X621000D01*
X620000Y261000D01*
X619000Y262000D01*
X618000D01*
Y261000D01*
X619000Y260000D01*
X618000Y259000D01*
Y258000D01*
X623000Y328000D02*
X624000D01*
X625000Y329000D01*
X626000Y328000D01*
X627000D01*
Y329000D01*
X626000Y330000D01*
X627000Y331000D01*
Y332000D01*
X626000D01*
X625000Y331000D01*
X624000Y332000D01*
X623000D01*
Y331000D01*
X624000Y330000D01*
X623000Y329000D01*
Y328000D01*
X618000Y338000D02*
X619000D01*
X620000Y339000D01*
X621000Y338000D01*
X622000D01*
Y339000D01*
X621000Y340000D01*
X622000Y341000D01*
Y342000D01*
X621000D01*
X620000Y341000D01*
X619000Y342000D01*
X618000D01*
Y341000D01*
X619000Y340000D01*
X618000Y339000D01*
Y338000D01*
X623000Y348000D02*
X624000D01*
X625000Y349000D01*
X626000Y348000D01*
X627000D01*
Y349000D01*
X626000Y350000D01*
X627000Y351000D01*
Y352000D01*
X626000D01*
X625000Y351000D01*
X624000Y352000D01*
X623000D01*
Y351000D01*
X624000Y350000D01*
X623000Y349000D01*
Y348000D01*
X618000Y358000D02*
X619000D01*
X620000Y359000D01*
X621000Y358000D01*
X622000D01*
Y359000D01*
X621000Y360000D01*
X622000Y361000D01*
Y362000D01*
X621000D01*
X620000Y361000D01*
X619000Y362000D01*
X618000D01*
Y361000D01*
X619000Y360000D01*
X618000Y359000D01*
Y358000D01*
X623000Y368000D02*
X624000D01*
X625000Y369000D01*
X626000Y368000D01*
X627000D01*
Y369000D01*
X626000Y370000D01*
X627000Y371000D01*
Y372000D01*
X626000D01*
X625000Y371000D01*
X624000Y372000D01*
X623000D01*
Y371000D01*
X624000Y370000D01*
X623000Y369000D01*
Y368000D01*
X618000Y378000D02*
X619000D01*
X620000Y379000D01*
X621000Y378000D01*
X622000D01*
Y379000D01*
X621000Y380000D01*
X622000Y381000D01*
Y382000D01*
X621000D01*
X620000Y381000D01*
X619000Y382000D01*
X618000D01*
Y381000D01*
X619000Y380000D01*
X618000Y379000D01*
Y378000D01*
Y418000D02*
X619000D01*
X620000Y419000D01*
X621000Y418000D01*
X622000D01*
Y419000D01*
X621000Y420000D01*
X622000Y421000D01*
Y422000D01*
X621000D01*
X620000Y421000D01*
X619000Y422000D01*
X618000D01*
Y421000D01*
X619000Y420000D01*
X618000Y419000D01*
Y418000D01*
X623000Y428000D02*
X624000D01*
X625000Y429000D01*
X626000Y428000D01*
X627000D01*
Y429000D01*
X626000Y430000D01*
X627000Y431000D01*
Y432000D01*
X626000D01*
X625000Y431000D01*
X624000Y432000D01*
X623000D01*
Y431000D01*
X624000Y430000D01*
X623000Y429000D01*
Y428000D01*
X618000Y438000D02*
X619000D01*
X620000Y439000D01*
X621000Y438000D01*
X622000D01*
Y439000D01*
X621000Y440000D01*
X622000Y441000D01*
Y442000D01*
X621000D01*
X620000Y441000D01*
X619000Y442000D01*
X618000D01*
Y441000D01*
X619000Y440000D01*
X618000Y439000D01*
Y438000D01*
X623000Y448000D02*
X624000D01*
X625000Y449000D01*
X626000Y448000D01*
X627000D01*
Y449000D01*
X626000Y450000D01*
X627000Y451000D01*
Y452000D01*
X626000D01*
X625000Y451000D01*
X624000Y452000D01*
X623000D01*
Y451000D01*
X624000Y450000D01*
X623000Y449000D01*
Y448000D01*
X618000Y458000D02*
X619000D01*
X620000Y459000D01*
X621000Y458000D01*
X622000D01*
Y459000D01*
X621000Y460000D01*
X622000Y461000D01*
Y462000D01*
X621000D01*
X620000Y461000D01*
X619000Y462000D01*
X618000D01*
Y461000D01*
X619000Y460000D01*
X618000Y459000D01*
Y458000D01*
Y478000D02*
X619000D01*
X620000Y479000D01*
X621000Y478000D01*
X622000D01*
Y479000D01*
X621000Y480000D01*
X622000Y481000D01*
Y482000D01*
X621000D01*
X620000Y481000D01*
X619000Y482000D01*
X618000D01*
Y481000D01*
X619000Y480000D01*
X618000Y479000D01*
Y478000D01*
X628000Y238000D02*
X629000D01*
X630000Y239000D01*
X631000Y238000D01*
X632000D01*
Y239000D01*
X631000Y240000D01*
X632000Y241000D01*
Y242000D01*
X631000D01*
X630000Y241000D01*
X629000Y242000D01*
X628000D01*
Y241000D01*
X629000Y240000D01*
X628000Y239000D01*
Y238000D01*
X633000Y248000D02*
X634000D01*
X635000Y249000D01*
X636000Y248000D01*
X637000D01*
Y249000D01*
X636000Y250000D01*
X637000Y251000D01*
Y252000D01*
X636000D01*
X635000Y251000D01*
X634000Y252000D01*
X633000D01*
Y251000D01*
X634000Y250000D01*
X633000Y249000D01*
Y248000D01*
X628000Y258000D02*
X629000D01*
X630000Y259000D01*
X631000Y258000D01*
X632000D01*
Y259000D01*
X631000Y260000D01*
X632000Y261000D01*
Y262000D01*
X631000D01*
X630000Y261000D01*
X629000Y262000D01*
X628000D01*
Y261000D01*
X629000Y260000D01*
X628000Y259000D01*
Y258000D01*
X633000Y268000D02*
X634000D01*
X635000Y269000D01*
X636000Y268000D01*
X637000D01*
Y269000D01*
X636000Y270000D01*
X637000Y271000D01*
Y272000D01*
X636000D01*
X635000Y271000D01*
X634000Y272000D01*
X633000D01*
Y271000D01*
X634000Y270000D01*
X633000Y269000D01*
Y268000D01*
Y288000D02*
X634000D01*
X635000Y289000D01*
X636000Y288000D01*
X637000D01*
Y289000D01*
X636000Y290000D01*
X637000Y291000D01*
Y292000D01*
X636000D01*
X635000Y291000D01*
X634000Y292000D01*
X633000D01*
Y291000D01*
X634000Y290000D01*
X633000Y289000D01*
Y288000D01*
Y308000D02*
X634000D01*
X635000Y309000D01*
X636000Y308000D01*
X637000D01*
Y309000D01*
X636000Y310000D01*
X637000Y311000D01*
Y312000D01*
X636000D01*
X635000Y311000D01*
X634000Y312000D01*
X633000D01*
Y311000D01*
X634000Y310000D01*
X633000Y309000D01*
Y308000D01*
Y328000D02*
X634000D01*
X635000Y329000D01*
X636000Y328000D01*
X637000D01*
Y329000D01*
X636000Y330000D01*
X637000Y331000D01*
Y332000D01*
X636000D01*
X635000Y331000D01*
X634000Y332000D01*
X633000D01*
Y331000D01*
X634000Y330000D01*
X633000Y329000D01*
Y328000D01*
X628000Y338000D02*
X629000D01*
X630000Y339000D01*
X631000Y338000D01*
X632000D01*
Y339000D01*
X631000Y340000D01*
X632000Y341000D01*
Y342000D01*
X631000D01*
X630000Y341000D01*
X629000Y342000D01*
X628000D01*
Y341000D01*
X629000Y340000D01*
X628000Y339000D01*
Y338000D01*
X633000Y348000D02*
X634000D01*
X635000Y349000D01*
X636000Y348000D01*
X637000D01*
Y349000D01*
X636000Y350000D01*
X637000Y351000D01*
Y352000D01*
X636000D01*
X635000Y351000D01*
X634000Y352000D01*
X633000D01*
Y351000D01*
X634000Y350000D01*
X633000Y349000D01*
Y348000D01*
Y368000D02*
X634000D01*
X635000Y369000D01*
X636000Y368000D01*
X637000D01*
Y369000D01*
X636000Y370000D01*
X637000Y371000D01*
Y372000D01*
X636000D01*
X635000Y371000D01*
X634000Y372000D01*
X633000D01*
Y371000D01*
X634000Y370000D01*
X633000Y369000D01*
Y368000D01*
X628000Y378000D02*
X629000D01*
X630000Y379000D01*
X631000Y378000D01*
X632000D01*
Y379000D01*
X631000Y380000D01*
X632000Y381000D01*
Y382000D01*
X631000D01*
X630000Y381000D01*
X629000Y382000D01*
X628000D01*
Y381000D01*
X629000Y380000D01*
X628000Y379000D01*
Y378000D01*
X633000Y388000D02*
X634000D01*
X635000Y389000D01*
X636000Y388000D01*
X637000D01*
Y389000D01*
X636000Y390000D01*
X637000Y391000D01*
Y392000D01*
X636000D01*
X635000Y391000D01*
X634000Y392000D01*
X633000D01*
Y391000D01*
X634000Y390000D01*
X633000Y389000D01*
Y388000D01*
X628000Y418000D02*
X629000D01*
X630000Y419000D01*
X631000Y418000D01*
X632000D01*
Y419000D01*
X631000Y420000D01*
X632000Y421000D01*
Y422000D01*
X631000D01*
X630000Y421000D01*
X629000Y422000D01*
X628000D01*
Y421000D01*
X629000Y420000D01*
X628000Y419000D01*
Y418000D01*
X633000Y428000D02*
X634000D01*
X635000Y429000D01*
X636000Y428000D01*
X637000D01*
Y429000D01*
X636000Y430000D01*
X637000Y431000D01*
Y432000D01*
X636000D01*
X635000Y431000D01*
X634000Y432000D01*
X633000D01*
Y431000D01*
X634000Y430000D01*
X633000Y429000D01*
Y428000D01*
X628000Y438000D02*
X629000D01*
X630000Y439000D01*
X631000Y438000D01*
X632000D01*
Y439000D01*
X631000Y440000D01*
X632000Y441000D01*
Y442000D01*
X631000D01*
X630000Y441000D01*
X629000Y442000D01*
X628000D01*
Y441000D01*
X629000Y440000D01*
X628000Y439000D01*
Y438000D01*
X633000Y448000D02*
X634000D01*
X635000Y449000D01*
X636000Y448000D01*
X637000D01*
Y449000D01*
X636000Y450000D01*
X637000Y451000D01*
Y452000D01*
X636000D01*
X635000Y451000D01*
X634000Y452000D01*
X633000D01*
Y451000D01*
X634000Y450000D01*
X633000Y449000D01*
Y448000D01*
X628000Y478000D02*
X629000D01*
X630000Y479000D01*
X631000Y478000D01*
X632000D01*
Y479000D01*
X631000Y480000D01*
X632000Y481000D01*
Y482000D01*
X631000D01*
X630000Y481000D01*
X629000Y482000D01*
X628000D01*
Y481000D01*
X629000Y480000D01*
X628000Y479000D01*
Y478000D01*
X643000Y268000D02*
X644000D01*
X645000Y269000D01*
X646000Y268000D01*
X647000D01*
Y269000D01*
X646000Y270000D01*
X647000Y271000D01*
Y272000D01*
X646000D01*
X645000Y271000D01*
X644000Y272000D01*
X643000D01*
Y271000D01*
X644000Y270000D01*
X643000Y269000D01*
Y268000D01*
X638000Y278000D02*
X639000D01*
X640000Y279000D01*
X641000Y278000D01*
X642000D01*
Y279000D01*
X641000Y280000D01*
X642000Y281000D01*
Y282000D01*
X641000D01*
X640000Y281000D01*
X639000Y282000D01*
X638000D01*
Y281000D01*
X639000Y280000D01*
X638000Y279000D01*
Y278000D01*
Y318000D02*
X639000D01*
X640000Y319000D01*
X641000Y318000D01*
X642000D01*
Y319000D01*
X641000Y320000D01*
X642000Y321000D01*
Y322000D01*
X641000D01*
X640000Y321000D01*
X639000Y322000D01*
X638000D01*
Y321000D01*
X639000Y320000D01*
X638000Y319000D01*
Y318000D01*
X643000Y328000D02*
X644000D01*
X645000Y329000D01*
X646000Y328000D01*
X647000D01*
Y329000D01*
X646000Y330000D01*
X647000Y331000D01*
Y332000D01*
X646000D01*
X645000Y331000D01*
X644000Y332000D01*
X643000D01*
Y331000D01*
X644000Y330000D01*
X643000Y329000D01*
Y328000D01*
X638000Y358000D02*
X639000D01*
X640000Y359000D01*
X641000Y358000D01*
X642000D01*
Y359000D01*
X641000Y360000D01*
X642000Y361000D01*
Y362000D01*
X641000D01*
X640000Y361000D01*
X639000Y362000D01*
X638000D01*
Y361000D01*
X639000Y360000D01*
X638000Y359000D01*
Y358000D01*
Y378000D02*
X639000D01*
X640000Y379000D01*
X641000Y378000D01*
X642000D01*
Y379000D01*
X641000Y380000D01*
X642000Y381000D01*
Y382000D01*
X641000D01*
X640000Y381000D01*
X639000Y382000D01*
X638000D01*
Y381000D01*
X639000Y380000D01*
X638000Y379000D01*
Y378000D01*
X643000Y388000D02*
X644000D01*
X645000Y389000D01*
X646000Y388000D01*
X647000D01*
Y389000D01*
X646000Y390000D01*
X647000Y391000D01*
Y392000D01*
X646000D01*
X645000Y391000D01*
X644000Y392000D01*
X643000D01*
Y391000D01*
X644000Y390000D01*
X643000Y389000D01*
Y388000D01*
X638000Y418000D02*
X639000D01*
X640000Y419000D01*
X641000Y418000D01*
X642000D01*
Y419000D01*
X641000Y420000D01*
X642000Y421000D01*
Y422000D01*
X641000D01*
X640000Y421000D01*
X639000Y422000D01*
X638000D01*
Y421000D01*
X639000Y420000D01*
X638000Y419000D01*
Y418000D01*
X643000Y428000D02*
X644000D01*
X645000Y429000D01*
X646000Y428000D01*
X647000D01*
Y429000D01*
X646000Y430000D01*
X647000Y431000D01*
Y432000D01*
X646000D01*
X645000Y431000D01*
X644000Y432000D01*
X643000D01*
Y431000D01*
X644000Y430000D01*
X643000Y429000D01*
Y428000D01*
X638000Y438000D02*
X639000D01*
X640000Y439000D01*
X641000Y438000D01*
X642000D01*
Y439000D01*
X641000Y440000D01*
X642000Y441000D01*
Y442000D01*
X641000D01*
X640000Y441000D01*
X639000Y442000D01*
X638000D01*
Y441000D01*
X639000Y440000D01*
X638000Y439000D01*
Y438000D01*
X643000Y448000D02*
X644000D01*
X645000Y449000D01*
X646000Y448000D01*
X647000D01*
Y449000D01*
X646000Y450000D01*
X647000Y451000D01*
Y452000D01*
X646000D01*
X645000Y451000D01*
X644000Y452000D01*
X643000D01*
Y451000D01*
X644000Y450000D01*
X643000Y449000D01*
Y448000D01*
X638000Y458000D02*
X639000D01*
X640000Y459000D01*
X641000Y458000D01*
X642000D01*
Y459000D01*
X641000Y460000D01*
X642000Y461000D01*
Y462000D01*
X641000D01*
X640000Y461000D01*
X639000Y462000D01*
X638000D01*
Y461000D01*
X639000Y460000D01*
X638000Y459000D01*
Y458000D01*
X643000Y468000D02*
X644000D01*
X645000Y469000D01*
X646000Y468000D01*
X647000D01*
Y469000D01*
X646000Y470000D01*
X647000Y471000D01*
Y472000D01*
X646000D01*
X645000Y471000D01*
X644000Y472000D01*
X643000D01*
Y471000D01*
X644000Y470000D01*
X643000Y469000D01*
Y468000D01*
X638000Y478000D02*
X639000D01*
X640000Y479000D01*
X641000Y478000D01*
X642000D01*
Y479000D01*
X641000Y480000D01*
X642000Y481000D01*
Y482000D01*
X641000D01*
X640000Y481000D01*
X639000Y482000D01*
X638000D01*
Y481000D01*
X639000Y480000D01*
X638000Y479000D01*
Y478000D01*
X653000Y268000D02*
X654000D01*
X655000Y269000D01*
X656000Y268000D01*
X657000D01*
Y269000D01*
X656000Y270000D01*
X657000Y271000D01*
Y272000D01*
X656000D01*
X655000Y271000D01*
X654000Y272000D01*
X653000D01*
Y271000D01*
X654000Y270000D01*
X653000Y269000D01*
Y268000D01*
Y288000D02*
X654000D01*
X655000Y289000D01*
X656000Y288000D01*
X657000D01*
Y289000D01*
X656000Y290000D01*
X657000Y291000D01*
Y292000D01*
X656000D01*
X655000Y291000D01*
X654000Y292000D01*
X653000D01*
Y291000D01*
X654000Y290000D01*
X653000Y289000D01*
Y288000D01*
Y308000D02*
X654000D01*
X655000Y309000D01*
X656000Y308000D01*
X657000D01*
Y309000D01*
X656000Y310000D01*
X657000Y311000D01*
Y312000D01*
X656000D01*
X655000Y311000D01*
X654000Y312000D01*
X653000D01*
Y311000D01*
X654000Y310000D01*
X653000Y309000D01*
Y308000D01*
X648000Y418000D02*
X649000D01*
X650000Y419000D01*
X651000Y418000D01*
X652000D01*
Y419000D01*
X651000Y420000D01*
X652000Y421000D01*
Y422000D01*
X651000D01*
X650000Y421000D01*
X649000Y422000D01*
X648000D01*
Y421000D01*
X649000Y420000D01*
X648000Y419000D01*
Y418000D01*
X653000Y428000D02*
X654000D01*
X655000Y429000D01*
X656000Y428000D01*
X657000D01*
Y429000D01*
X656000Y430000D01*
X657000Y431000D01*
Y432000D01*
X656000D01*
X655000Y431000D01*
X654000Y432000D01*
X653000D01*
Y431000D01*
X654000Y430000D01*
X653000Y429000D01*
Y428000D01*
X648000Y438000D02*
X649000D01*
X650000Y439000D01*
X651000Y438000D01*
X652000D01*
Y439000D01*
X651000Y440000D01*
X652000Y441000D01*
Y442000D01*
X651000D01*
X650000Y441000D01*
X649000Y442000D01*
X648000D01*
Y441000D01*
X649000Y440000D01*
X648000Y439000D01*
Y438000D01*
X653000Y448000D02*
X654000D01*
X655000Y449000D01*
X656000Y448000D01*
X657000D01*
Y449000D01*
X656000Y450000D01*
X657000Y451000D01*
Y452000D01*
X656000D01*
X655000Y451000D01*
X654000Y452000D01*
X653000D01*
Y451000D01*
X654000Y450000D01*
X653000Y449000D01*
Y448000D01*
X648000Y458000D02*
X649000D01*
X650000Y459000D01*
X651000Y458000D01*
X652000D01*
Y459000D01*
X651000Y460000D01*
X652000Y461000D01*
Y462000D01*
X651000D01*
X650000Y461000D01*
X649000Y462000D01*
X648000D01*
Y461000D01*
X649000Y460000D01*
X648000Y459000D01*
Y458000D01*
X653000Y468000D02*
X654000D01*
X655000Y469000D01*
X656000Y468000D01*
X657000D01*
Y469000D01*
X656000Y470000D01*
X657000Y471000D01*
Y472000D01*
X656000D01*
X655000Y471000D01*
X654000Y472000D01*
X653000D01*
Y471000D01*
X654000Y470000D01*
X653000Y469000D01*
Y468000D01*
X648000Y478000D02*
X649000D01*
X650000Y479000D01*
X651000Y478000D01*
X652000D01*
Y479000D01*
X651000Y480000D01*
X652000Y481000D01*
Y482000D01*
X651000D01*
X650000Y481000D01*
X649000Y482000D01*
X648000D01*
Y481000D01*
X649000Y480000D01*
X648000Y479000D01*
Y478000D01*
X663000Y248000D02*
X664000D01*
X665000Y249000D01*
X666000Y248000D01*
X667000D01*
Y249000D01*
X666000Y250000D01*
X667000Y251000D01*
Y252000D01*
X666000D01*
X665000Y251000D01*
X664000Y252000D01*
X663000D01*
Y251000D01*
X664000Y250000D01*
X663000Y249000D01*
Y248000D01*
Y268000D02*
X664000D01*
X665000Y269000D01*
X666000Y268000D01*
X667000D01*
Y269000D01*
X666000Y270000D01*
X667000Y271000D01*
Y272000D01*
X666000D01*
X665000Y271000D01*
X664000Y272000D01*
X663000D01*
Y271000D01*
X664000Y270000D01*
X663000Y269000D01*
Y268000D01*
Y288000D02*
X664000D01*
X665000Y289000D01*
X666000Y288000D01*
X667000D01*
Y289000D01*
X666000Y290000D01*
X667000Y291000D01*
Y292000D01*
X666000D01*
X665000Y291000D01*
X664000Y292000D01*
X663000D01*
Y291000D01*
X664000Y290000D01*
X663000Y289000D01*
Y288000D01*
X658000Y298000D02*
X659000D01*
X660000Y299000D01*
X661000Y298000D01*
X662000D01*
Y299000D01*
X661000Y300000D01*
X662000Y301000D01*
Y302000D01*
X661000D01*
X660000Y301000D01*
X659000Y302000D01*
X658000D01*
Y301000D01*
X659000Y300000D01*
X658000Y299000D01*
Y298000D01*
X663000Y308000D02*
X664000D01*
X665000Y309000D01*
X666000Y308000D01*
X667000D01*
Y309000D01*
X666000Y310000D01*
X667000Y311000D01*
Y312000D01*
X666000D01*
X665000Y311000D01*
X664000Y312000D01*
X663000D01*
Y311000D01*
X664000Y310000D01*
X663000Y309000D01*
Y308000D01*
Y328000D02*
X664000D01*
X665000Y329000D01*
X666000Y328000D01*
X667000D01*
Y329000D01*
X666000Y330000D01*
X667000Y331000D01*
Y332000D01*
X666000D01*
X665000Y331000D01*
X664000Y332000D01*
X663000D01*
Y331000D01*
X664000Y330000D01*
X663000Y329000D01*
Y328000D01*
X658000Y418000D02*
X659000D01*
X660000Y419000D01*
X661000Y418000D01*
X662000D01*
Y419000D01*
X661000Y420000D01*
X662000Y421000D01*
Y422000D01*
X661000D01*
X660000Y421000D01*
X659000Y422000D01*
X658000D01*
Y421000D01*
X659000Y420000D01*
X658000Y419000D01*
Y418000D01*
X663000Y428000D02*
X664000D01*
X665000Y429000D01*
X666000Y428000D01*
X667000D01*
Y429000D01*
X666000Y430000D01*
X667000Y431000D01*
Y432000D01*
X666000D01*
X665000Y431000D01*
X664000Y432000D01*
X663000D01*
Y431000D01*
X664000Y430000D01*
X663000Y429000D01*
Y428000D01*
X658000Y438000D02*
X659000D01*
X660000Y439000D01*
X661000Y438000D01*
X662000D01*
Y439000D01*
X661000Y440000D01*
X662000Y441000D01*
Y442000D01*
X661000D01*
X660000Y441000D01*
X659000Y442000D01*
X658000D01*
Y441000D01*
X659000Y440000D01*
X658000Y439000D01*
Y438000D01*
X663000Y448000D02*
X664000D01*
X665000Y449000D01*
X666000Y448000D01*
X667000D01*
Y449000D01*
X666000Y450000D01*
X667000Y451000D01*
Y452000D01*
X666000D01*
X665000Y451000D01*
X664000Y452000D01*
X663000D01*
Y451000D01*
X664000Y450000D01*
X663000Y449000D01*
Y448000D01*
X658000Y458000D02*
X659000D01*
X660000Y459000D01*
X661000Y458000D01*
X662000D01*
Y459000D01*
X661000Y460000D01*
X662000Y461000D01*
Y462000D01*
X661000D01*
X660000Y461000D01*
X659000Y462000D01*
X658000D01*
Y461000D01*
X659000Y460000D01*
X658000Y459000D01*
Y458000D01*
X663000Y468000D02*
X664000D01*
X665000Y469000D01*
X666000Y468000D01*
X667000D01*
Y469000D01*
X666000Y470000D01*
X667000Y471000D01*
Y472000D01*
X666000D01*
X665000Y471000D01*
X664000Y472000D01*
X663000D01*
Y471000D01*
X664000Y470000D01*
X663000Y469000D01*
Y468000D01*
X658000Y478000D02*
X659000D01*
X660000Y479000D01*
X661000Y478000D01*
X662000D01*
Y479000D01*
X661000Y480000D01*
X662000Y481000D01*
Y482000D01*
X661000D01*
X660000Y481000D01*
X659000Y482000D01*
X658000D01*
Y481000D01*
X659000Y480000D01*
X658000Y479000D01*
Y478000D01*
X668000Y238000D02*
X669000D01*
X670000Y239000D01*
X671000Y238000D01*
X672000D01*
Y239000D01*
X671000Y240000D01*
X672000Y241000D01*
Y242000D01*
X671000D01*
X670000Y241000D01*
X669000Y242000D01*
X668000D01*
Y241000D01*
X669000Y240000D01*
X668000Y239000D01*
Y238000D01*
X673000Y248000D02*
X674000D01*
X675000Y249000D01*
X676000Y248000D01*
X677000D01*
Y249000D01*
X676000Y250000D01*
X677000Y251000D01*
Y252000D01*
X676000D01*
X675000Y251000D01*
X674000Y252000D01*
X673000D01*
Y251000D01*
X674000Y250000D01*
X673000Y249000D01*
Y248000D01*
Y268000D02*
X674000D01*
X675000Y269000D01*
X676000Y268000D01*
X677000D01*
Y269000D01*
X676000Y270000D01*
X677000Y271000D01*
Y272000D01*
X676000D01*
X675000Y271000D01*
X674000Y272000D01*
X673000D01*
Y271000D01*
X674000Y270000D01*
X673000Y269000D01*
Y268000D01*
Y288000D02*
X674000D01*
X675000Y289000D01*
X676000Y288000D01*
X677000D01*
Y289000D01*
X676000Y290000D01*
X677000Y291000D01*
Y292000D01*
X676000D01*
X675000Y291000D01*
X674000Y292000D01*
X673000D01*
Y291000D01*
X674000Y290000D01*
X673000Y289000D01*
Y288000D01*
X668000Y298000D02*
X669000D01*
X670000Y299000D01*
X671000Y298000D01*
X672000D01*
Y299000D01*
X671000Y300000D01*
X672000Y301000D01*
Y302000D01*
X671000D01*
X670000Y301000D01*
X669000Y302000D01*
X668000D01*
Y301000D01*
X669000Y300000D01*
X668000Y299000D01*
Y298000D01*
X673000Y308000D02*
X674000D01*
X675000Y309000D01*
X676000Y308000D01*
X677000D01*
Y309000D01*
X676000Y310000D01*
X677000Y311000D01*
Y312000D01*
X676000D01*
X675000Y311000D01*
X674000Y312000D01*
X673000D01*
Y311000D01*
X674000Y310000D01*
X673000Y309000D01*
Y308000D01*
Y328000D02*
X674000D01*
X675000Y329000D01*
X676000Y328000D01*
X677000D01*
Y329000D01*
X676000Y330000D01*
X677000Y331000D01*
Y332000D01*
X676000D01*
X675000Y331000D01*
X674000Y332000D01*
X673000D01*
Y331000D01*
X674000Y330000D01*
X673000Y329000D01*
Y328000D01*
Y348000D02*
X674000D01*
X675000Y349000D01*
X676000Y348000D01*
X677000D01*
Y349000D01*
X676000Y350000D01*
X677000Y351000D01*
Y352000D01*
X676000D01*
X675000Y351000D01*
X674000Y352000D01*
X673000D01*
Y351000D01*
X674000Y350000D01*
X673000Y349000D01*
Y348000D01*
X668000Y418000D02*
X669000D01*
X670000Y419000D01*
X671000Y418000D01*
X672000D01*
Y419000D01*
X671000Y420000D01*
X672000Y421000D01*
Y422000D01*
X671000D01*
X670000Y421000D01*
X669000Y422000D01*
X668000D01*
Y421000D01*
X669000Y420000D01*
X668000Y419000D01*
Y418000D01*
X673000Y428000D02*
X674000D01*
X675000Y429000D01*
X676000Y428000D01*
X677000D01*
Y429000D01*
X676000Y430000D01*
X677000Y431000D01*
Y432000D01*
X676000D01*
X675000Y431000D01*
X674000Y432000D01*
X673000D01*
Y431000D01*
X674000Y430000D01*
X673000Y429000D01*
Y428000D01*
X668000Y438000D02*
X669000D01*
X670000Y439000D01*
X671000Y438000D01*
X672000D01*
Y439000D01*
X671000Y440000D01*
X672000Y441000D01*
Y442000D01*
X671000D01*
X670000Y441000D01*
X669000Y442000D01*
X668000D01*
Y441000D01*
X669000Y440000D01*
X668000Y439000D01*
Y438000D01*
X673000Y448000D02*
X674000D01*
X675000Y449000D01*
X676000Y448000D01*
X677000D01*
Y449000D01*
X676000Y450000D01*
X677000Y451000D01*
Y452000D01*
X676000D01*
X675000Y451000D01*
X674000Y452000D01*
X673000D01*
Y451000D01*
X674000Y450000D01*
X673000Y449000D01*
Y448000D01*
X668000Y458000D02*
X669000D01*
X670000Y459000D01*
X671000Y458000D01*
X672000D01*
Y459000D01*
X671000Y460000D01*
X672000Y461000D01*
Y462000D01*
X671000D01*
X670000Y461000D01*
X669000Y462000D01*
X668000D01*
Y461000D01*
X669000Y460000D01*
X668000Y459000D01*
Y458000D01*
X673000Y468000D02*
X674000D01*
X675000Y469000D01*
X676000Y468000D01*
X677000D01*
Y469000D01*
X676000Y470000D01*
X677000Y471000D01*
Y472000D01*
X676000D01*
X675000Y471000D01*
X674000Y472000D01*
X673000D01*
Y471000D01*
X674000Y470000D01*
X673000Y469000D01*
Y468000D01*
X668000Y478000D02*
X669000D01*
X670000Y479000D01*
X671000Y478000D01*
X672000D01*
Y479000D01*
X671000Y480000D01*
X672000Y481000D01*
Y482000D01*
X671000D01*
X670000Y481000D01*
X669000Y482000D01*
X668000D01*
Y481000D01*
X669000Y480000D01*
X668000Y479000D01*
Y478000D01*
X683000Y268000D02*
X684000D01*
X685000Y269000D01*
X686000Y268000D01*
X687000D01*
Y269000D01*
X686000Y270000D01*
X687000Y271000D01*
Y272000D01*
X686000D01*
X685000Y271000D01*
X684000Y272000D01*
X683000D01*
Y271000D01*
X684000Y270000D01*
X683000Y269000D01*
Y268000D01*
Y288000D02*
X684000D01*
X685000Y289000D01*
X686000Y288000D01*
X687000D01*
Y289000D01*
X686000Y290000D01*
X687000Y291000D01*
Y292000D01*
X686000D01*
X685000Y291000D01*
X684000Y292000D01*
X683000D01*
Y291000D01*
X684000Y290000D01*
X683000Y289000D01*
Y288000D01*
X678000Y298000D02*
X679000D01*
X680000Y299000D01*
X681000Y298000D01*
X682000D01*
Y299000D01*
X681000Y300000D01*
X682000Y301000D01*
Y302000D01*
X681000D01*
X680000Y301000D01*
X679000Y302000D01*
X678000D01*
Y301000D01*
X679000Y300000D01*
X678000Y299000D01*
Y298000D01*
X683000Y308000D02*
X684000D01*
X685000Y309000D01*
X686000Y308000D01*
X687000D01*
Y309000D01*
X686000Y310000D01*
X687000Y311000D01*
Y312000D01*
X686000D01*
X685000Y311000D01*
X684000Y312000D01*
X683000D01*
Y311000D01*
X684000Y310000D01*
X683000Y309000D01*
Y308000D01*
Y328000D02*
X684000D01*
X685000Y329000D01*
X686000Y328000D01*
X687000D01*
Y329000D01*
X686000Y330000D01*
X687000Y331000D01*
Y332000D01*
X686000D01*
X685000Y331000D01*
X684000Y332000D01*
X683000D01*
Y331000D01*
X684000Y330000D01*
X683000Y329000D01*
Y328000D01*
Y348000D02*
X684000D01*
X685000Y349000D01*
X686000Y348000D01*
X687000D01*
Y349000D01*
X686000Y350000D01*
X687000Y351000D01*
Y352000D01*
X686000D01*
X685000Y351000D01*
X684000Y352000D01*
X683000D01*
Y351000D01*
X684000Y350000D01*
X683000Y349000D01*
Y348000D01*
X678000Y418000D02*
X679000D01*
X680000Y419000D01*
X681000Y418000D01*
X682000D01*
Y419000D01*
X681000Y420000D01*
X682000Y421000D01*
Y422000D01*
X681000D01*
X680000Y421000D01*
X679000Y422000D01*
X678000D01*
Y421000D01*
X679000Y420000D01*
X678000Y419000D01*
Y418000D01*
X683000Y428000D02*
X684000D01*
X685000Y429000D01*
X686000Y428000D01*
X687000D01*
Y429000D01*
X686000Y430000D01*
X687000Y431000D01*
Y432000D01*
X686000D01*
X685000Y431000D01*
X684000Y432000D01*
X683000D01*
Y431000D01*
X684000Y430000D01*
X683000Y429000D01*
Y428000D01*
X678000Y438000D02*
X679000D01*
X680000Y439000D01*
X681000Y438000D01*
X682000D01*
Y439000D01*
X681000Y440000D01*
X682000Y441000D01*
Y442000D01*
X681000D01*
X680000Y441000D01*
X679000Y442000D01*
X678000D01*
Y441000D01*
X679000Y440000D01*
X678000Y439000D01*
Y438000D01*
X683000Y448000D02*
X684000D01*
X685000Y449000D01*
X686000Y448000D01*
X687000D01*
Y449000D01*
X686000Y450000D01*
X687000Y451000D01*
Y452000D01*
X686000D01*
X685000Y451000D01*
X684000Y452000D01*
X683000D01*
Y451000D01*
X684000Y450000D01*
X683000Y449000D01*
Y448000D01*
X678000Y458000D02*
X679000D01*
X680000Y459000D01*
X681000Y458000D01*
X682000D01*
Y459000D01*
X681000Y460000D01*
X682000Y461000D01*
Y462000D01*
X681000D01*
X680000Y461000D01*
X679000Y462000D01*
X678000D01*
Y461000D01*
X679000Y460000D01*
X678000Y459000D01*
Y458000D01*
X683000Y468000D02*
X684000D01*
X685000Y469000D01*
X686000Y468000D01*
X687000D01*
Y469000D01*
X686000Y470000D01*
X687000Y471000D01*
Y472000D01*
X686000D01*
X685000Y471000D01*
X684000Y472000D01*
X683000D01*
Y471000D01*
X684000Y470000D01*
X683000Y469000D01*
Y468000D01*
X678000Y478000D02*
X679000D01*
X680000Y479000D01*
X681000Y478000D01*
X682000D01*
Y479000D01*
X681000Y480000D01*
X682000Y481000D01*
Y482000D01*
X681000D01*
X680000Y481000D01*
X679000Y482000D01*
X678000D01*
Y481000D01*
X679000Y480000D01*
X678000Y479000D01*
Y478000D01*
X693000Y268000D02*
X694000D01*
X695000Y269000D01*
X696000Y268000D01*
X697000D01*
Y269000D01*
X696000Y270000D01*
X697000Y271000D01*
Y272000D01*
X696000D01*
X695000Y271000D01*
X694000Y272000D01*
X693000D01*
Y271000D01*
X694000Y270000D01*
X693000Y269000D01*
Y268000D01*
X688000Y298000D02*
X689000D01*
X690000Y299000D01*
X691000Y298000D01*
X692000D01*
Y299000D01*
X691000Y300000D01*
X692000Y301000D01*
Y302000D01*
X691000D01*
X690000Y301000D01*
X689000Y302000D01*
X688000D01*
Y301000D01*
X689000Y300000D01*
X688000Y299000D01*
Y298000D01*
X693000Y328000D02*
X694000D01*
X695000Y329000D01*
X696000Y328000D01*
X697000D01*
Y329000D01*
X696000Y330000D01*
X697000Y331000D01*
Y332000D01*
X696000D01*
X695000Y331000D01*
X694000Y332000D01*
X693000D01*
Y331000D01*
X694000Y330000D01*
X693000Y329000D01*
Y328000D01*
X688000Y358000D02*
X689000D01*
X690000Y359000D01*
X691000Y358000D01*
X692000D01*
Y359000D01*
X691000Y360000D01*
X692000Y361000D01*
Y362000D01*
X691000D01*
X690000Y361000D01*
X689000Y362000D01*
X688000D01*
Y361000D01*
X689000Y360000D01*
X688000Y359000D01*
Y358000D01*
X693000Y368000D02*
X694000D01*
X695000Y369000D01*
X696000Y368000D01*
X697000D01*
Y369000D01*
X696000Y370000D01*
X697000Y371000D01*
Y372000D01*
X696000D01*
X695000Y371000D01*
X694000Y372000D01*
X693000D01*
Y371000D01*
X694000Y370000D01*
X693000Y369000D01*
Y368000D01*
X688000Y418000D02*
X689000D01*
X690000Y419000D01*
X691000Y418000D01*
X692000D01*
Y419000D01*
X691000Y420000D01*
X692000Y421000D01*
Y422000D01*
X691000D01*
X690000Y421000D01*
X689000Y422000D01*
X688000D01*
Y421000D01*
X689000Y420000D01*
X688000Y419000D01*
Y418000D01*
X693000Y428000D02*
X694000D01*
X695000Y429000D01*
X696000Y428000D01*
X697000D01*
Y429000D01*
X696000Y430000D01*
X697000Y431000D01*
Y432000D01*
X696000D01*
X695000Y431000D01*
X694000Y432000D01*
X693000D01*
Y431000D01*
X694000Y430000D01*
X693000Y429000D01*
Y428000D01*
X688000Y438000D02*
X689000D01*
X690000Y439000D01*
X691000Y438000D01*
X692000D01*
Y439000D01*
X691000Y440000D01*
X692000Y441000D01*
Y442000D01*
X691000D01*
X690000Y441000D01*
X689000Y442000D01*
X688000D01*
Y441000D01*
X689000Y440000D01*
X688000Y439000D01*
Y438000D01*
X693000Y448000D02*
X694000D01*
X695000Y449000D01*
X696000Y448000D01*
X697000D01*
Y449000D01*
X696000Y450000D01*
X697000Y451000D01*
Y452000D01*
X696000D01*
X695000Y451000D01*
X694000Y452000D01*
X693000D01*
Y451000D01*
X694000Y450000D01*
X693000Y449000D01*
Y448000D01*
X688000Y458000D02*
X689000D01*
X690000Y459000D01*
X691000Y458000D01*
X692000D01*
Y459000D01*
X691000Y460000D01*
X692000Y461000D01*
Y462000D01*
X691000D01*
X690000Y461000D01*
X689000Y462000D01*
X688000D01*
Y461000D01*
X689000Y460000D01*
X688000Y459000D01*
Y458000D01*
X693000Y468000D02*
X694000D01*
X695000Y469000D01*
X696000Y468000D01*
X697000D01*
Y469000D01*
X696000Y470000D01*
X697000Y471000D01*
Y472000D01*
X696000D01*
X695000Y471000D01*
X694000Y472000D01*
X693000D01*
Y471000D01*
X694000Y470000D01*
X693000Y469000D01*
Y468000D01*
X688000Y478000D02*
X689000D01*
X690000Y479000D01*
X691000Y478000D01*
X692000D01*
Y479000D01*
X691000Y480000D01*
X692000Y481000D01*
Y482000D01*
X691000D01*
X690000Y481000D01*
X689000Y482000D01*
X688000D01*
Y481000D01*
X689000Y480000D01*
X688000Y479000D01*
Y478000D01*
X703000Y268000D02*
X704000D01*
X705000Y269000D01*
X706000Y268000D01*
X707000D01*
Y269000D01*
X706000Y270000D01*
X707000Y271000D01*
Y272000D01*
X706000D01*
X705000Y271000D01*
X704000Y272000D01*
X703000D01*
Y271000D01*
X704000Y270000D01*
X703000Y269000D01*
Y268000D01*
X698000Y278000D02*
X699000D01*
X700000Y279000D01*
X701000Y278000D01*
X702000D01*
Y279000D01*
X701000Y280000D01*
X702000Y281000D01*
Y282000D01*
X701000D01*
X700000Y281000D01*
X699000Y282000D01*
X698000D01*
Y281000D01*
X699000Y280000D01*
X698000Y279000D01*
Y278000D01*
Y318000D02*
X699000D01*
X700000Y319000D01*
X701000Y318000D01*
X702000D01*
Y319000D01*
X701000Y320000D01*
X702000Y321000D01*
Y322000D01*
X701000D01*
X700000Y321000D01*
X699000Y322000D01*
X698000D01*
Y321000D01*
X699000Y320000D01*
X698000Y319000D01*
Y318000D01*
X703000Y328000D02*
X704000D01*
X705000Y329000D01*
X706000Y328000D01*
X707000D01*
Y329000D01*
X706000Y330000D01*
X707000Y331000D01*
Y332000D01*
X706000D01*
X705000Y331000D01*
X704000Y332000D01*
X703000D01*
Y331000D01*
X704000Y330000D01*
X703000Y329000D01*
Y328000D01*
Y348000D02*
X704000D01*
X705000Y349000D01*
X706000Y348000D01*
X707000D01*
Y349000D01*
X706000Y350000D01*
X707000Y351000D01*
Y352000D01*
X706000D01*
X705000Y351000D01*
X704000Y352000D01*
X703000D01*
Y351000D01*
X704000Y350000D01*
X703000Y349000D01*
Y348000D01*
Y368000D02*
X704000D01*
X705000Y369000D01*
X706000Y368000D01*
X707000D01*
Y369000D01*
X706000Y370000D01*
X707000Y371000D01*
Y372000D01*
X706000D01*
X705000Y371000D01*
X704000Y372000D01*
X703000D01*
Y371000D01*
X704000Y370000D01*
X703000Y369000D01*
Y368000D01*
X698000Y378000D02*
X699000D01*
X700000Y379000D01*
X701000Y378000D01*
X702000D01*
Y379000D01*
X701000Y380000D01*
X702000Y381000D01*
Y382000D01*
X701000D01*
X700000Y381000D01*
X699000Y382000D01*
X698000D01*
Y381000D01*
X699000Y380000D01*
X698000Y379000D01*
Y378000D01*
X703000Y388000D02*
X704000D01*
X705000Y389000D01*
X706000Y388000D01*
X707000D01*
Y389000D01*
X706000Y390000D01*
X707000Y391000D01*
Y392000D01*
X706000D01*
X705000Y391000D01*
X704000Y392000D01*
X703000D01*
Y391000D01*
X704000Y390000D01*
X703000Y389000D01*
Y388000D01*
X698000Y418000D02*
X699000D01*
X700000Y419000D01*
X701000Y418000D01*
X702000D01*
Y419000D01*
X701000Y420000D01*
X702000Y421000D01*
Y422000D01*
X701000D01*
X700000Y421000D01*
X699000Y422000D01*
X698000D01*
Y421000D01*
X699000Y420000D01*
X698000Y419000D01*
Y418000D01*
X703000Y428000D02*
X704000D01*
X705000Y429000D01*
X706000Y428000D01*
X707000D01*
Y429000D01*
X706000Y430000D01*
X707000Y431000D01*
Y432000D01*
X706000D01*
X705000Y431000D01*
X704000Y432000D01*
X703000D01*
Y431000D01*
X704000Y430000D01*
X703000Y429000D01*
Y428000D01*
X698000Y438000D02*
X699000D01*
X700000Y439000D01*
X701000Y438000D01*
X702000D01*
Y439000D01*
X701000Y440000D01*
X702000Y441000D01*
Y442000D01*
X701000D01*
X700000Y441000D01*
X699000Y442000D01*
X698000D01*
Y441000D01*
X699000Y440000D01*
X698000Y439000D01*
Y438000D01*
X703000Y448000D02*
X704000D01*
X705000Y449000D01*
X706000Y448000D01*
X707000D01*
Y449000D01*
X706000Y450000D01*
X707000Y451000D01*
Y452000D01*
X706000D01*
X705000Y451000D01*
X704000Y452000D01*
X703000D01*
Y451000D01*
X704000Y450000D01*
X703000Y449000D01*
Y448000D01*
X698000Y458000D02*
X699000D01*
X700000Y459000D01*
X701000Y458000D01*
X702000D01*
Y459000D01*
X701000Y460000D01*
X702000Y461000D01*
Y462000D01*
X701000D01*
X700000Y461000D01*
X699000Y462000D01*
X698000D01*
Y461000D01*
X699000Y460000D01*
X698000Y459000D01*
Y458000D01*
Y478000D02*
X699000D01*
X700000Y479000D01*
X701000Y478000D01*
X702000D01*
Y479000D01*
X701000Y480000D01*
X702000Y481000D01*
Y482000D01*
X701000D01*
X700000Y481000D01*
X699000Y482000D01*
X698000D01*
Y481000D01*
X699000Y480000D01*
X698000Y479000D01*
Y478000D01*
X708000Y298000D02*
X709000D01*
X710000Y299000D01*
X711000Y298000D01*
X712000D01*
Y299000D01*
X711000Y300000D01*
X712000Y301000D01*
Y302000D01*
X711000D01*
X710000Y301000D01*
X709000Y302000D01*
X708000D01*
Y301000D01*
X709000Y300000D01*
X708000Y299000D01*
Y298000D01*
Y318000D02*
X709000D01*
X710000Y319000D01*
X711000Y318000D01*
X712000D01*
Y319000D01*
X711000Y320000D01*
X712000Y321000D01*
Y322000D01*
X711000D01*
X710000Y321000D01*
X709000Y322000D01*
X708000D01*
Y321000D01*
X709000Y320000D01*
X708000Y319000D01*
Y318000D01*
X713000Y328000D02*
X714000D01*
X715000Y329000D01*
X716000Y328000D01*
X717000D01*
Y329000D01*
X716000Y330000D01*
X717000Y331000D01*
Y332000D01*
X716000D01*
X715000Y331000D01*
X714000Y332000D01*
X713000D01*
Y331000D01*
X714000Y330000D01*
X713000Y329000D01*
Y328000D01*
X708000Y338000D02*
X709000D01*
X710000Y339000D01*
X711000Y338000D01*
X712000D01*
Y339000D01*
X711000Y340000D01*
X712000Y341000D01*
Y342000D01*
X711000D01*
X710000Y341000D01*
X709000Y342000D01*
X708000D01*
Y341000D01*
X709000Y340000D01*
X708000Y339000D01*
Y338000D01*
Y358000D02*
X709000D01*
X710000Y359000D01*
X711000Y358000D01*
X712000D01*
Y359000D01*
X711000Y360000D01*
X712000Y361000D01*
Y362000D01*
X711000D01*
X710000Y361000D01*
X709000Y362000D01*
X708000D01*
Y361000D01*
X709000Y360000D01*
X708000Y359000D01*
Y358000D01*
Y378000D02*
X709000D01*
X710000Y379000D01*
X711000Y378000D01*
X712000D01*
Y379000D01*
X711000Y380000D01*
X712000Y381000D01*
Y382000D01*
X711000D01*
X710000Y381000D01*
X709000Y382000D01*
X708000D01*
Y381000D01*
X709000Y380000D01*
X708000Y379000D01*
Y378000D01*
Y418000D02*
X709000D01*
X710000Y419000D01*
X711000Y418000D01*
X712000D01*
Y419000D01*
X711000Y420000D01*
X712000Y421000D01*
Y422000D01*
X711000D01*
X710000Y421000D01*
X709000Y422000D01*
X708000D01*
Y421000D01*
X709000Y420000D01*
X708000Y419000D01*
Y418000D01*
X713000Y428000D02*
X714000D01*
X715000Y429000D01*
X716000Y428000D01*
X717000D01*
Y429000D01*
X716000Y430000D01*
X717000Y431000D01*
Y432000D01*
X716000D01*
X715000Y431000D01*
X714000Y432000D01*
X713000D01*
Y431000D01*
X714000Y430000D01*
X713000Y429000D01*
Y428000D01*
X708000Y438000D02*
X709000D01*
X710000Y439000D01*
X711000Y438000D01*
X712000D01*
Y439000D01*
X711000Y440000D01*
X712000Y441000D01*
Y442000D01*
X711000D01*
X710000Y441000D01*
X709000Y442000D01*
X708000D01*
Y441000D01*
X709000Y440000D01*
X708000Y439000D01*
Y438000D01*
X713000Y448000D02*
X714000D01*
X715000Y449000D01*
X716000Y448000D01*
X717000D01*
Y449000D01*
X716000Y450000D01*
X717000Y451000D01*
Y452000D01*
X716000D01*
X715000Y451000D01*
X714000Y452000D01*
X713000D01*
Y451000D01*
X714000Y450000D01*
X713000Y449000D01*
Y448000D01*
X708000Y478000D02*
X709000D01*
X710000Y479000D01*
X711000Y478000D01*
X712000D01*
Y479000D01*
X711000Y480000D01*
X712000Y481000D01*
Y482000D01*
X711000D01*
X710000Y481000D01*
X709000Y482000D01*
X708000D01*
Y481000D01*
X709000Y480000D01*
X708000Y479000D01*
Y478000D01*
X723000Y288000D02*
X724000D01*
X725000Y289000D01*
X726000Y288000D01*
X727000D01*
Y289000D01*
X726000Y290000D01*
X727000Y291000D01*
Y292000D01*
X726000D01*
X725000Y291000D01*
X724000Y292000D01*
X723000D01*
Y291000D01*
X724000Y290000D01*
X723000Y289000D01*
Y288000D01*
Y308000D02*
X724000D01*
X725000Y309000D01*
X726000Y308000D01*
X727000D01*
Y309000D01*
X726000Y310000D01*
X727000Y311000D01*
Y312000D01*
X726000D01*
X725000Y311000D01*
X724000Y312000D01*
X723000D01*
Y311000D01*
X724000Y310000D01*
X723000Y309000D01*
Y308000D01*
Y328000D02*
X724000D01*
X725000Y329000D01*
X726000Y328000D01*
X727000D01*
Y329000D01*
X726000Y330000D01*
X727000Y331000D01*
Y332000D01*
X726000D01*
X725000Y331000D01*
X724000Y332000D01*
X723000D01*
Y331000D01*
X724000Y330000D01*
X723000Y329000D01*
Y328000D01*
X718000Y338000D02*
X719000D01*
X720000Y339000D01*
X721000Y338000D01*
X722000D01*
Y339000D01*
X721000Y340000D01*
X722000Y341000D01*
Y342000D01*
X721000D01*
X720000Y341000D01*
X719000Y342000D01*
X718000D01*
Y341000D01*
X719000Y340000D01*
X718000Y339000D01*
Y338000D01*
X723000Y348000D02*
X724000D01*
X725000Y349000D01*
X726000Y348000D01*
X727000D01*
Y349000D01*
X726000Y350000D01*
X727000Y351000D01*
Y352000D01*
X726000D01*
X725000Y351000D01*
X724000Y352000D01*
X723000D01*
Y351000D01*
X724000Y350000D01*
X723000Y349000D01*
Y348000D01*
X718000Y378000D02*
X719000D01*
X720000Y379000D01*
X721000Y378000D01*
X722000D01*
Y379000D01*
X721000Y380000D01*
X722000Y381000D01*
Y382000D01*
X721000D01*
X720000Y381000D01*
X719000Y382000D01*
X718000D01*
Y381000D01*
X719000Y380000D01*
X718000Y379000D01*
Y378000D01*
X723000Y408000D02*
X724000D01*
X725000Y409000D01*
X726000Y408000D01*
X727000D01*
Y409000D01*
X726000Y410000D01*
X727000Y411000D01*
Y412000D01*
X726000D01*
X725000Y411000D01*
X724000Y412000D01*
X723000D01*
Y411000D01*
X724000Y410000D01*
X723000Y409000D01*
Y408000D01*
X718000Y418000D02*
X719000D01*
X720000Y419000D01*
X721000Y418000D01*
X722000D01*
Y419000D01*
X721000Y420000D01*
X722000Y421000D01*
Y422000D01*
X721000D01*
X720000Y421000D01*
X719000Y422000D01*
X718000D01*
Y421000D01*
X719000Y420000D01*
X718000Y419000D01*
Y418000D01*
X723000Y428000D02*
X724000D01*
X725000Y429000D01*
X726000Y428000D01*
X727000D01*
Y429000D01*
X726000Y430000D01*
X727000Y431000D01*
Y432000D01*
X726000D01*
X725000Y431000D01*
X724000Y432000D01*
X723000D01*
Y431000D01*
X724000Y430000D01*
X723000Y429000D01*
Y428000D01*
X718000Y438000D02*
X719000D01*
X720000Y439000D01*
X721000Y438000D01*
X722000D01*
Y439000D01*
X721000Y440000D01*
X722000Y441000D01*
Y442000D01*
X721000D01*
X720000Y441000D01*
X719000Y442000D01*
X718000D01*
Y441000D01*
X719000Y440000D01*
X718000Y439000D01*
Y438000D01*
X723000Y448000D02*
X724000D01*
X725000Y449000D01*
X726000Y448000D01*
X727000D01*
Y449000D01*
X726000Y450000D01*
X727000Y451000D01*
Y452000D01*
X726000D01*
X725000Y451000D01*
X724000Y452000D01*
X723000D01*
Y451000D01*
X724000Y450000D01*
X723000Y449000D01*
Y448000D01*
X718000Y458000D02*
X719000D01*
X720000Y459000D01*
X721000Y458000D01*
X722000D01*
Y459000D01*
X721000Y460000D01*
X722000Y461000D01*
Y462000D01*
X721000D01*
X720000Y461000D01*
X719000Y462000D01*
X718000D01*
Y461000D01*
X719000Y460000D01*
X718000Y459000D01*
Y458000D01*
X723000Y468000D02*
X724000D01*
X725000Y469000D01*
X726000Y468000D01*
X727000D01*
Y469000D01*
X726000Y470000D01*
X727000Y471000D01*
Y472000D01*
X726000D01*
X725000Y471000D01*
X724000Y472000D01*
X723000D01*
Y471000D01*
X724000Y470000D01*
X723000Y469000D01*
Y468000D01*
X718000Y478000D02*
X719000D01*
X720000Y479000D01*
X721000Y478000D01*
X722000D01*
Y479000D01*
X721000Y480000D01*
X722000Y481000D01*
Y482000D01*
X721000D01*
X720000Y481000D01*
X719000Y482000D01*
X718000D01*
Y481000D01*
X719000Y480000D01*
X718000Y479000D01*
Y478000D01*
X728000Y278000D02*
X729000D01*
X730000Y279000D01*
X731000Y278000D01*
X732000D01*
Y279000D01*
X731000Y280000D01*
X732000Y281000D01*
Y282000D01*
X731000D01*
X730000Y281000D01*
X729000Y282000D01*
X728000D01*
Y281000D01*
X729000Y280000D01*
X728000Y279000D01*
Y278000D01*
X733000Y288000D02*
X734000D01*
X735000Y289000D01*
X736000Y288000D01*
X737000D01*
Y289000D01*
X736000Y290000D01*
X737000Y291000D01*
Y292000D01*
X736000D01*
X735000Y291000D01*
X734000Y292000D01*
X733000D01*
Y291000D01*
X734000Y290000D01*
X733000Y289000D01*
Y288000D01*
X728000Y298000D02*
X729000D01*
X730000Y299000D01*
X731000Y298000D01*
X732000D01*
Y299000D01*
X731000Y300000D01*
X732000Y301000D01*
Y302000D01*
X731000D01*
X730000Y301000D01*
X729000Y302000D01*
X728000D01*
Y301000D01*
X729000Y300000D01*
X728000Y299000D01*
Y298000D01*
X733000Y308000D02*
X734000D01*
X735000Y309000D01*
X736000Y308000D01*
X737000D01*
Y309000D01*
X736000Y310000D01*
X737000Y311000D01*
Y312000D01*
X736000D01*
X735000Y311000D01*
X734000Y312000D01*
X733000D01*
Y311000D01*
X734000Y310000D01*
X733000Y309000D01*
Y308000D01*
X728000Y318000D02*
X729000D01*
X730000Y319000D01*
X731000Y318000D01*
X732000D01*
Y319000D01*
X731000Y320000D01*
X732000Y321000D01*
Y322000D01*
X731000D01*
X730000Y321000D01*
X729000Y322000D01*
X728000D01*
Y321000D01*
X729000Y320000D01*
X728000Y319000D01*
Y318000D01*
X733000Y328000D02*
X734000D01*
X735000Y329000D01*
X736000Y328000D01*
X737000D01*
Y329000D01*
X736000Y330000D01*
X737000Y331000D01*
Y332000D01*
X736000D01*
X735000Y331000D01*
X734000Y332000D01*
X733000D01*
Y331000D01*
X734000Y330000D01*
X733000Y329000D01*
Y328000D01*
X728000Y338000D02*
X729000D01*
X730000Y339000D01*
X731000Y338000D01*
X732000D01*
Y339000D01*
X731000Y340000D01*
X732000Y341000D01*
Y342000D01*
X731000D01*
X730000Y341000D01*
X729000Y342000D01*
X728000D01*
Y341000D01*
X729000Y340000D01*
X728000Y339000D01*
Y338000D01*
X733000Y348000D02*
X734000D01*
X735000Y349000D01*
X736000Y348000D01*
X737000D01*
Y349000D01*
X736000Y350000D01*
X737000Y351000D01*
Y352000D01*
X736000D01*
X735000Y351000D01*
X734000Y352000D01*
X733000D01*
Y351000D01*
X734000Y350000D01*
X733000Y349000D01*
Y348000D01*
Y368000D02*
X734000D01*
X735000Y369000D01*
X736000Y368000D01*
X737000D01*
Y369000D01*
X736000Y370000D01*
X737000Y371000D01*
Y372000D01*
X736000D01*
X735000Y371000D01*
X734000Y372000D01*
X733000D01*
Y371000D01*
X734000Y370000D01*
X733000Y369000D01*
Y368000D01*
X728000Y378000D02*
X729000D01*
X730000Y379000D01*
X731000Y378000D01*
X732000D01*
Y379000D01*
X731000Y380000D01*
X732000Y381000D01*
Y382000D01*
X731000D01*
X730000Y381000D01*
X729000Y382000D01*
X728000D01*
Y381000D01*
X729000Y380000D01*
X728000Y379000D01*
Y378000D01*
X733000Y408000D02*
X734000D01*
X735000Y409000D01*
X736000Y408000D01*
X737000D01*
Y409000D01*
X736000Y410000D01*
X737000Y411000D01*
Y412000D01*
X736000D01*
X735000Y411000D01*
X734000Y412000D01*
X733000D01*
Y411000D01*
X734000Y410000D01*
X733000Y409000D01*
Y408000D01*
X728000Y418000D02*
X729000D01*
X730000Y419000D01*
X731000Y418000D01*
X732000D01*
Y419000D01*
X731000Y420000D01*
X732000Y421000D01*
Y422000D01*
X731000D01*
X730000Y421000D01*
X729000Y422000D01*
X728000D01*
Y421000D01*
X729000Y420000D01*
X728000Y419000D01*
Y418000D01*
X733000Y428000D02*
X734000D01*
X735000Y429000D01*
X736000Y428000D01*
X737000D01*
Y429000D01*
X736000Y430000D01*
X737000Y431000D01*
Y432000D01*
X736000D01*
X735000Y431000D01*
X734000Y432000D01*
X733000D01*
Y431000D01*
X734000Y430000D01*
X733000Y429000D01*
Y428000D01*
X728000Y438000D02*
X729000D01*
X730000Y439000D01*
X731000Y438000D01*
X732000D01*
Y439000D01*
X731000Y440000D01*
X732000Y441000D01*
Y442000D01*
X731000D01*
X730000Y441000D01*
X729000Y442000D01*
X728000D01*
Y441000D01*
X729000Y440000D01*
X728000Y439000D01*
Y438000D01*
X733000Y448000D02*
X734000D01*
X735000Y449000D01*
X736000Y448000D01*
X737000D01*
Y449000D01*
X736000Y450000D01*
X737000Y451000D01*
Y452000D01*
X736000D01*
X735000Y451000D01*
X734000Y452000D01*
X733000D01*
Y451000D01*
X734000Y450000D01*
X733000Y449000D01*
Y448000D01*
X728000Y458000D02*
X729000D01*
X730000Y459000D01*
X731000Y458000D01*
X732000D01*
Y459000D01*
X731000Y460000D01*
X732000Y461000D01*
Y462000D01*
X731000D01*
X730000Y461000D01*
X729000Y462000D01*
X728000D01*
Y461000D01*
X729000Y460000D01*
X728000Y459000D01*
Y458000D01*
X733000Y468000D02*
X734000D01*
X735000Y469000D01*
X736000Y468000D01*
X737000D01*
Y469000D01*
X736000Y470000D01*
X737000Y471000D01*
Y472000D01*
X736000D01*
X735000Y471000D01*
X734000Y472000D01*
X733000D01*
Y471000D01*
X734000Y470000D01*
X733000Y469000D01*
Y468000D01*
X728000Y478000D02*
X729000D01*
X730000Y479000D01*
X731000Y478000D01*
X732000D01*
Y479000D01*
X731000Y480000D01*
X732000Y481000D01*
Y482000D01*
X731000D01*
X730000Y481000D01*
X729000Y482000D01*
X728000D01*
Y481000D01*
X729000Y480000D01*
X728000Y479000D01*
Y478000D01*
X738000Y278000D02*
X739000D01*
X740000Y279000D01*
X741000Y278000D01*
X742000D01*
Y279000D01*
X741000Y280000D01*
X742000Y281000D01*
Y282000D01*
X741000D01*
X740000Y281000D01*
X739000Y282000D01*
X738000D01*
Y281000D01*
X739000Y280000D01*
X738000Y279000D01*
Y278000D01*
X743000Y288000D02*
X744000D01*
X745000Y289000D01*
X746000Y288000D01*
X747000D01*
Y289000D01*
X746000Y290000D01*
X747000Y291000D01*
Y292000D01*
X746000D01*
X745000Y291000D01*
X744000Y292000D01*
X743000D01*
Y291000D01*
X744000Y290000D01*
X743000Y289000D01*
Y288000D01*
X738000Y298000D02*
X739000D01*
X740000Y299000D01*
X741000Y298000D01*
X742000D01*
Y299000D01*
X741000Y300000D01*
X742000Y301000D01*
Y302000D01*
X741000D01*
X740000Y301000D01*
X739000Y302000D01*
X738000D01*
Y301000D01*
X739000Y300000D01*
X738000Y299000D01*
Y298000D01*
X743000Y308000D02*
X744000D01*
X745000Y309000D01*
X746000Y308000D01*
X747000D01*
Y309000D01*
X746000Y310000D01*
X747000Y311000D01*
Y312000D01*
X746000D01*
X745000Y311000D01*
X744000Y312000D01*
X743000D01*
Y311000D01*
X744000Y310000D01*
X743000Y309000D01*
Y308000D01*
X738000Y318000D02*
X739000D01*
X740000Y319000D01*
X741000Y318000D01*
X742000D01*
Y319000D01*
X741000Y320000D01*
X742000Y321000D01*
Y322000D01*
X741000D01*
X740000Y321000D01*
X739000Y322000D01*
X738000D01*
Y321000D01*
X739000Y320000D01*
X738000Y319000D01*
Y318000D01*
X743000Y328000D02*
X744000D01*
X745000Y329000D01*
X746000Y328000D01*
X747000D01*
Y329000D01*
X746000Y330000D01*
X747000Y331000D01*
Y332000D01*
X746000D01*
X745000Y331000D01*
X744000Y332000D01*
X743000D01*
Y331000D01*
X744000Y330000D01*
X743000Y329000D01*
Y328000D01*
X738000Y338000D02*
X739000D01*
X740000Y339000D01*
X741000Y338000D01*
X742000D01*
Y339000D01*
X741000Y340000D01*
X742000Y341000D01*
Y342000D01*
X741000D01*
X740000Y341000D01*
X739000Y342000D01*
X738000D01*
Y341000D01*
X739000Y340000D01*
X738000Y339000D01*
Y338000D01*
X743000Y348000D02*
X744000D01*
X745000Y349000D01*
X746000Y348000D01*
X747000D01*
Y349000D01*
X746000Y350000D01*
X747000Y351000D01*
Y352000D01*
X746000D01*
X745000Y351000D01*
X744000Y352000D01*
X743000D01*
Y351000D01*
X744000Y350000D01*
X743000Y349000D01*
Y348000D01*
Y368000D02*
X744000D01*
X745000Y369000D01*
X746000Y368000D01*
X747000D01*
Y369000D01*
X746000Y370000D01*
X747000Y371000D01*
Y372000D01*
X746000D01*
X745000Y371000D01*
X744000Y372000D01*
X743000D01*
Y371000D01*
X744000Y370000D01*
X743000Y369000D01*
Y368000D01*
X738000Y378000D02*
X739000D01*
X740000Y379000D01*
X741000Y378000D01*
X742000D01*
Y379000D01*
X741000Y380000D01*
X742000Y381000D01*
Y382000D01*
X741000D01*
X740000Y381000D01*
X739000Y382000D01*
X738000D01*
Y381000D01*
X739000Y380000D01*
X738000Y379000D01*
Y378000D01*
X743000Y408000D02*
X744000D01*
X745000Y409000D01*
X746000Y408000D01*
X747000D01*
Y409000D01*
X746000Y410000D01*
X747000Y411000D01*
Y412000D01*
X746000D01*
X745000Y411000D01*
X744000Y412000D01*
X743000D01*
Y411000D01*
X744000Y410000D01*
X743000Y409000D01*
Y408000D01*
X738000Y418000D02*
X739000D01*
X740000Y419000D01*
X741000Y418000D01*
X742000D01*
Y419000D01*
X741000Y420000D01*
X742000Y421000D01*
Y422000D01*
X741000D01*
X740000Y421000D01*
X739000Y422000D01*
X738000D01*
Y421000D01*
X739000Y420000D01*
X738000Y419000D01*
Y418000D01*
X743000Y428000D02*
X744000D01*
X745000Y429000D01*
X746000Y428000D01*
X747000D01*
Y429000D01*
X746000Y430000D01*
X747000Y431000D01*
Y432000D01*
X746000D01*
X745000Y431000D01*
X744000Y432000D01*
X743000D01*
Y431000D01*
X744000Y430000D01*
X743000Y429000D01*
Y428000D01*
X738000Y438000D02*
X739000D01*
X740000Y439000D01*
X741000Y438000D01*
X742000D01*
Y439000D01*
X741000Y440000D01*
X742000Y441000D01*
Y442000D01*
X741000D01*
X740000Y441000D01*
X739000Y442000D01*
X738000D01*
Y441000D01*
X739000Y440000D01*
X738000Y439000D01*
Y438000D01*
X743000Y448000D02*
X744000D01*
X745000Y449000D01*
X746000Y448000D01*
X747000D01*
Y449000D01*
X746000Y450000D01*
X747000Y451000D01*
Y452000D01*
X746000D01*
X745000Y451000D01*
X744000Y452000D01*
X743000D01*
Y451000D01*
X744000Y450000D01*
X743000Y449000D01*
Y448000D01*
X738000Y478000D02*
X739000D01*
X740000Y479000D01*
X741000Y478000D01*
X742000D01*
Y479000D01*
X741000Y480000D01*
X742000Y481000D01*
Y482000D01*
X741000D01*
X740000Y481000D01*
X739000Y482000D01*
X738000D01*
Y481000D01*
X739000Y480000D01*
X738000Y479000D01*
Y478000D01*
X748000Y278000D02*
X749000D01*
X750000Y279000D01*
X751000Y278000D01*
X752000D01*
Y279000D01*
X751000Y280000D01*
X752000Y281000D01*
Y282000D01*
X751000D01*
X750000Y281000D01*
X749000Y282000D01*
X748000D01*
Y281000D01*
X749000Y280000D01*
X748000Y279000D01*
Y278000D01*
Y298000D02*
X749000D01*
X750000Y299000D01*
X751000Y298000D01*
X752000D01*
Y299000D01*
X751000Y300000D01*
X752000Y301000D01*
Y302000D01*
X751000D01*
X750000Y301000D01*
X749000Y302000D01*
X748000D01*
Y301000D01*
X749000Y300000D01*
X748000Y299000D01*
Y298000D01*
X753000Y308000D02*
X754000D01*
X755000Y309000D01*
X756000Y308000D01*
X757000D01*
Y309000D01*
X756000Y310000D01*
X757000Y311000D01*
Y312000D01*
X756000D01*
X755000Y311000D01*
X754000Y312000D01*
X753000D01*
Y311000D01*
X754000Y310000D01*
X753000Y309000D01*
Y308000D01*
X748000Y318000D02*
X749000D01*
X750000Y319000D01*
X751000Y318000D01*
X752000D01*
Y319000D01*
X751000Y320000D01*
X752000Y321000D01*
Y322000D01*
X751000D01*
X750000Y321000D01*
X749000Y322000D01*
X748000D01*
Y321000D01*
X749000Y320000D01*
X748000Y319000D01*
Y318000D01*
X753000Y328000D02*
X754000D01*
X755000Y329000D01*
X756000Y328000D01*
X757000D01*
Y329000D01*
X756000Y330000D01*
X757000Y331000D01*
Y332000D01*
X756000D01*
X755000Y331000D01*
X754000Y332000D01*
X753000D01*
Y331000D01*
X754000Y330000D01*
X753000Y329000D01*
Y328000D01*
X748000Y338000D02*
X749000D01*
X750000Y339000D01*
X751000Y338000D01*
X752000D01*
Y339000D01*
X751000Y340000D01*
X752000Y341000D01*
Y342000D01*
X751000D01*
X750000Y341000D01*
X749000Y342000D01*
X748000D01*
Y341000D01*
X749000Y340000D01*
X748000Y339000D01*
Y338000D01*
X753000Y348000D02*
X754000D01*
X755000Y349000D01*
X756000Y348000D01*
X757000D01*
Y349000D01*
X756000Y350000D01*
X757000Y351000D01*
Y352000D01*
X756000D01*
X755000Y351000D01*
X754000Y352000D01*
X753000D01*
Y351000D01*
X754000Y350000D01*
X753000Y349000D01*
Y348000D01*
Y368000D02*
X754000D01*
X755000Y369000D01*
X756000Y368000D01*
X757000D01*
Y369000D01*
X756000Y370000D01*
X757000Y371000D01*
Y372000D01*
X756000D01*
X755000Y371000D01*
X754000Y372000D01*
X753000D01*
Y371000D01*
X754000Y370000D01*
X753000Y369000D01*
Y368000D01*
X748000Y378000D02*
X749000D01*
X750000Y379000D01*
X751000Y378000D01*
X752000D01*
Y379000D01*
X751000Y380000D01*
X752000Y381000D01*
Y382000D01*
X751000D01*
X750000Y381000D01*
X749000Y382000D01*
X748000D01*
Y381000D01*
X749000Y380000D01*
X748000Y379000D01*
Y378000D01*
X753000Y408000D02*
X754000D01*
X755000Y409000D01*
X756000Y408000D01*
X757000D01*
Y409000D01*
X756000Y410000D01*
X757000Y411000D01*
Y412000D01*
X756000D01*
X755000Y411000D01*
X754000Y412000D01*
X753000D01*
Y411000D01*
X754000Y410000D01*
X753000Y409000D01*
Y408000D01*
X748000Y418000D02*
X749000D01*
X750000Y419000D01*
X751000Y418000D01*
X752000D01*
Y419000D01*
X751000Y420000D01*
X752000Y421000D01*
Y422000D01*
X751000D01*
X750000Y421000D01*
X749000Y422000D01*
X748000D01*
Y421000D01*
X749000Y420000D01*
X748000Y419000D01*
Y418000D01*
X753000Y428000D02*
X754000D01*
X755000Y429000D01*
X756000Y428000D01*
X757000D01*
Y429000D01*
X756000Y430000D01*
X757000Y431000D01*
Y432000D01*
X756000D01*
X755000Y431000D01*
X754000Y432000D01*
X753000D01*
Y431000D01*
X754000Y430000D01*
X753000Y429000D01*
Y428000D01*
X748000Y438000D02*
X749000D01*
X750000Y439000D01*
X751000Y438000D01*
X752000D01*
Y439000D01*
X751000Y440000D01*
X752000Y441000D01*
Y442000D01*
X751000D01*
X750000Y441000D01*
X749000Y442000D01*
X748000D01*
Y441000D01*
X749000Y440000D01*
X748000Y439000D01*
Y438000D01*
Y478000D02*
X749000D01*
X750000Y479000D01*
X751000Y478000D01*
X752000D01*
Y479000D01*
X751000Y480000D01*
X752000Y481000D01*
Y482000D01*
X751000D01*
X750000Y481000D01*
X749000Y482000D01*
X748000D01*
Y481000D01*
X749000Y480000D01*
X748000Y479000D01*
Y478000D01*
X758000Y278000D02*
X759000D01*
X760000Y279000D01*
X761000Y278000D01*
X762000D01*
Y279000D01*
X761000Y280000D01*
X762000Y281000D01*
Y282000D01*
X761000D01*
X760000Y281000D01*
X759000Y282000D01*
X758000D01*
Y281000D01*
X759000Y280000D01*
X758000Y279000D01*
Y278000D01*
X763000Y288000D02*
X764000D01*
X765000Y289000D01*
X766000Y288000D01*
X767000D01*
Y289000D01*
X766000Y290000D01*
X767000Y291000D01*
Y292000D01*
X766000D01*
X765000Y291000D01*
X764000Y292000D01*
X763000D01*
Y291000D01*
X764000Y290000D01*
X763000Y289000D01*
Y288000D01*
X758000Y298000D02*
X759000D01*
X760000Y299000D01*
X761000Y298000D01*
X762000D01*
Y299000D01*
X761000Y300000D01*
X762000Y301000D01*
Y302000D01*
X761000D01*
X760000Y301000D01*
X759000Y302000D01*
X758000D01*
Y301000D01*
X759000Y300000D01*
X758000Y299000D01*
Y298000D01*
X763000Y308000D02*
X764000D01*
X765000Y309000D01*
X766000Y308000D01*
X767000D01*
Y309000D01*
X766000Y310000D01*
X767000Y311000D01*
Y312000D01*
X766000D01*
X765000Y311000D01*
X764000Y312000D01*
X763000D01*
Y311000D01*
X764000Y310000D01*
X763000Y309000D01*
Y308000D01*
X758000Y318000D02*
X759000D01*
X760000Y319000D01*
X761000Y318000D01*
X762000D01*
Y319000D01*
X761000Y320000D01*
X762000Y321000D01*
Y322000D01*
X761000D01*
X760000Y321000D01*
X759000Y322000D01*
X758000D01*
Y321000D01*
X759000Y320000D01*
X758000Y319000D01*
Y318000D01*
Y338000D02*
X759000D01*
X760000Y339000D01*
X761000Y338000D01*
X762000D01*
Y339000D01*
X761000Y340000D01*
X762000Y341000D01*
Y342000D01*
X761000D01*
X760000Y341000D01*
X759000Y342000D01*
X758000D01*
Y341000D01*
X759000Y340000D01*
X758000Y339000D01*
Y338000D01*
Y378000D02*
X759000D01*
X760000Y379000D01*
X761000Y378000D01*
X762000D01*
Y379000D01*
X761000Y380000D01*
X762000Y381000D01*
Y382000D01*
X761000D01*
X760000Y381000D01*
X759000Y382000D01*
X758000D01*
Y381000D01*
X759000Y380000D01*
X758000Y379000D01*
Y378000D01*
Y418000D02*
X759000D01*
X760000Y419000D01*
X761000Y418000D01*
X762000D01*
Y419000D01*
X761000Y420000D01*
X762000Y421000D01*
Y422000D01*
X761000D01*
X760000Y421000D01*
X759000Y422000D01*
X758000D01*
Y421000D01*
X759000Y420000D01*
X758000Y419000D01*
Y418000D01*
Y438000D02*
X759000D01*
X760000Y439000D01*
X761000Y438000D01*
X762000D01*
Y439000D01*
X761000Y440000D01*
X762000Y441000D01*
Y442000D01*
X761000D01*
X760000Y441000D01*
X759000Y442000D01*
X758000D01*
Y441000D01*
X759000Y440000D01*
X758000Y439000D01*
Y438000D01*
Y478000D02*
X759000D01*
X760000Y479000D01*
X761000Y478000D01*
X762000D01*
Y479000D01*
X761000Y480000D01*
X762000Y481000D01*
Y482000D01*
X761000D01*
X760000Y481000D01*
X759000Y482000D01*
X758000D01*
Y481000D01*
X759000Y480000D01*
X758000Y479000D01*
Y478000D01*
X768000Y278000D02*
X769000D01*
X770000Y279000D01*
X771000Y278000D01*
X772000D01*
Y279000D01*
X771000Y280000D01*
X772000Y281000D01*
Y282000D01*
X771000D01*
X770000Y281000D01*
X769000Y282000D01*
X768000D01*
Y281000D01*
X769000Y280000D01*
X768000Y279000D01*
Y278000D01*
X773000Y288000D02*
X774000D01*
X775000Y289000D01*
X776000Y288000D01*
X777000D01*
Y289000D01*
X776000Y290000D01*
X777000Y291000D01*
Y292000D01*
X776000D01*
X775000Y291000D01*
X774000Y292000D01*
X773000D01*
Y291000D01*
X774000Y290000D01*
X773000Y289000D01*
Y288000D01*
X768000Y298000D02*
X769000D01*
X770000Y299000D01*
X771000Y298000D01*
X772000D01*
Y299000D01*
X771000Y300000D01*
X772000Y301000D01*
Y302000D01*
X771000D01*
X770000Y301000D01*
X769000Y302000D01*
X768000D01*
Y301000D01*
X769000Y300000D01*
X768000Y299000D01*
Y298000D01*
X773000Y308000D02*
X774000D01*
X775000Y309000D01*
X776000Y308000D01*
X777000D01*
Y309000D01*
X776000Y310000D01*
X777000Y311000D01*
Y312000D01*
X776000D01*
X775000Y311000D01*
X774000Y312000D01*
X773000D01*
Y311000D01*
X774000Y310000D01*
X773000Y309000D01*
Y308000D01*
X768000Y318000D02*
X769000D01*
X770000Y319000D01*
X771000Y318000D01*
X772000D01*
Y319000D01*
X771000Y320000D01*
X772000Y321000D01*
Y322000D01*
X771000D01*
X770000Y321000D01*
X769000Y322000D01*
X768000D01*
Y321000D01*
X769000Y320000D01*
X768000Y319000D01*
Y318000D01*
Y478000D02*
X769000D01*
X770000Y479000D01*
X771000Y478000D01*
X772000D01*
Y479000D01*
X771000Y480000D01*
X772000Y481000D01*
Y482000D01*
X771000D01*
X770000Y481000D01*
X769000Y482000D01*
X768000D01*
Y481000D01*
X769000Y480000D01*
X768000Y479000D01*
Y478000D01*
X778000Y278000D02*
X779000D01*
X780000Y279000D01*
X781000Y278000D01*
X782000D01*
Y279000D01*
X781000Y280000D01*
X782000Y281000D01*
Y282000D01*
X781000D01*
X780000Y281000D01*
X779000Y282000D01*
X778000D01*
Y281000D01*
X779000Y280000D01*
X778000Y279000D01*
Y278000D01*
X783000Y288000D02*
X784000D01*
X785000Y289000D01*
X786000Y288000D01*
X787000D01*
Y289000D01*
X786000Y290000D01*
X787000Y291000D01*
Y292000D01*
X786000D01*
X785000Y291000D01*
X784000Y292000D01*
X783000D01*
Y291000D01*
X784000Y290000D01*
X783000Y289000D01*
Y288000D01*
X778000Y298000D02*
X779000D01*
X780000Y299000D01*
X781000Y298000D01*
X782000D01*
Y299000D01*
X781000Y300000D01*
X782000Y301000D01*
Y302000D01*
X781000D01*
X780000Y301000D01*
X779000Y302000D01*
X778000D01*
Y301000D01*
X779000Y300000D01*
X778000Y299000D01*
Y298000D01*
X783000Y308000D02*
X784000D01*
X785000Y309000D01*
X786000Y308000D01*
X787000D01*
Y309000D01*
X786000Y310000D01*
X787000Y311000D01*
Y312000D01*
X786000D01*
X785000Y311000D01*
X784000Y312000D01*
X783000D01*
Y311000D01*
X784000Y310000D01*
X783000Y309000D01*
Y308000D01*
X788000Y278000D02*
X789000D01*
X790000Y279000D01*
X791000Y278000D01*
X792000D01*
Y279000D01*
X791000Y280000D01*
X792000Y281000D01*
Y282000D01*
X791000D01*
X790000Y281000D01*
X789000Y282000D01*
X788000D01*
Y281000D01*
X789000Y280000D01*
X788000Y279000D01*
Y278000D01*
X793000Y288000D02*
X794000D01*
X795000Y289000D01*
X796000Y288000D01*
X797000D01*
Y289000D01*
X796000Y290000D01*
X797000Y291000D01*
Y292000D01*
X796000D01*
X795000Y291000D01*
X794000Y292000D01*
X793000D01*
Y291000D01*
X794000Y290000D01*
X793000Y289000D01*
Y288000D01*
X788000Y298000D02*
X789000D01*
X790000Y299000D01*
X791000Y298000D01*
X792000D01*
Y299000D01*
X791000Y300000D01*
X792000Y301000D01*
Y302000D01*
X791000D01*
X790000Y301000D01*
X789000Y302000D01*
X788000D01*
Y301000D01*
X789000Y300000D01*
X788000Y299000D01*
Y298000D01*
X793000Y308000D02*
X794000D01*
X795000Y309000D01*
X796000Y308000D01*
X797000D01*
Y309000D01*
X796000Y310000D01*
X797000Y311000D01*
Y312000D01*
X796000D01*
X795000Y311000D01*
X794000Y312000D01*
X793000D01*
Y311000D01*
X794000Y310000D01*
X793000Y309000D01*
Y308000D01*
X798000Y278000D02*
X799000D01*
X800000Y279000D01*
X801000Y278000D01*
X802000D01*
Y279000D01*
X801000Y280000D01*
X802000Y281000D01*
Y282000D01*
X801000D01*
X800000Y281000D01*
X799000Y282000D01*
X798000D01*
Y281000D01*
X799000Y280000D01*
X798000Y279000D01*
Y278000D01*
X803000Y288000D02*
X804000D01*
X805000Y289000D01*
X806000Y288000D01*
X807000D01*
Y289000D01*
X806000Y290000D01*
X807000Y291000D01*
Y292000D01*
X806000D01*
X805000Y291000D01*
X804000Y292000D01*
X803000D01*
Y291000D01*
X804000Y290000D01*
X803000Y289000D01*
Y288000D01*
X798000Y298000D02*
X799000D01*
X800000Y299000D01*
X801000Y298000D01*
X802000D01*
Y299000D01*
X801000Y300000D01*
X802000Y301000D01*
Y302000D01*
X801000D01*
X800000Y301000D01*
X799000Y302000D01*
X798000D01*
Y301000D01*
X799000Y300000D01*
X798000Y299000D01*
Y298000D01*
X803000Y308000D02*
X804000D01*
X805000Y309000D01*
X806000Y308000D01*
X807000D01*
Y309000D01*
X806000Y310000D01*
X807000Y311000D01*
Y312000D01*
X806000D01*
X805000Y311000D01*
X804000Y312000D01*
X803000D01*
Y311000D01*
X804000Y310000D01*
X803000Y309000D01*
Y308000D01*
X808000Y278000D02*
X809000D01*
X810000Y279000D01*
X811000Y278000D01*
X812000D01*
Y279000D01*
X811000Y280000D01*
X812000Y281000D01*
Y282000D01*
X811000D01*
X810000Y281000D01*
X809000Y282000D01*
X808000D01*
Y281000D01*
X809000Y280000D01*
X808000Y279000D01*
Y278000D01*
X813000Y288000D02*
X814000D01*
X815000Y289000D01*
X816000Y288000D01*
X817000D01*
Y289000D01*
X816000Y290000D01*
X817000Y291000D01*
Y292000D01*
X816000D01*
X815000Y291000D01*
X814000Y292000D01*
X813000D01*
Y291000D01*
X814000Y290000D01*
X813000Y289000D01*
Y288000D01*
X808000Y298000D02*
X809000D01*
X810000Y299000D01*
X811000Y298000D01*
X812000D01*
Y299000D01*
X811000Y300000D01*
X812000Y301000D01*
Y302000D01*
X811000D01*
X810000Y301000D01*
X809000Y302000D01*
X808000D01*
Y301000D01*
X809000Y300000D01*
X808000Y299000D01*
Y298000D01*
X813000Y308000D02*
X814000D01*
X815000Y309000D01*
X816000Y308000D01*
X817000D01*
Y309000D01*
X816000Y310000D01*
X817000Y311000D01*
Y312000D01*
X816000D01*
X815000Y311000D01*
X814000Y312000D01*
X813000D01*
Y311000D01*
X814000Y310000D01*
X813000Y309000D01*
Y308000D01*
X818000Y278000D02*
X819000D01*
X820000Y279000D01*
X821000Y278000D01*
X822000D01*
Y279000D01*
X821000Y280000D01*
X822000Y281000D01*
Y282000D01*
X821000D01*
X820000Y281000D01*
X819000Y282000D01*
X818000D01*
Y281000D01*
X819000Y280000D01*
X818000Y279000D01*
Y278000D01*
X823000Y288000D02*
X824000D01*
X825000Y289000D01*
X826000Y288000D01*
X827000D01*
Y289000D01*
X826000Y290000D01*
X827000Y291000D01*
Y292000D01*
X826000D01*
X825000Y291000D01*
X824000Y292000D01*
X823000D01*
Y291000D01*
X824000Y290000D01*
X823000Y289000D01*
Y288000D01*
X818000Y298000D02*
X819000D01*
X820000Y299000D01*
X821000Y298000D01*
X822000D01*
Y299000D01*
X821000Y300000D01*
X822000Y301000D01*
Y302000D01*
X821000D01*
X820000Y301000D01*
X819000Y302000D01*
X818000D01*
Y301000D01*
X819000Y300000D01*
X818000Y299000D01*
Y298000D01*
X823000Y308000D02*
X824000D01*
X825000Y309000D01*
X826000Y308000D01*
X827000D01*
Y309000D01*
X826000Y310000D01*
X827000Y311000D01*
Y312000D01*
X826000D01*
X825000Y311000D01*
X824000Y312000D01*
X823000D01*
Y311000D01*
X824000Y310000D01*
X823000Y309000D01*
Y308000D01*
X828000Y278000D02*
X829000D01*
X830000Y279000D01*
X831000Y278000D01*
X832000D01*
Y279000D01*
X831000Y280000D01*
X832000Y281000D01*
Y282000D01*
X831000D01*
X830000Y281000D01*
X829000Y282000D01*
X828000D01*
Y281000D01*
X829000Y280000D01*
X828000Y279000D01*
Y278000D01*
Y298000D02*
X829000D01*
X830000Y299000D01*
X831000Y298000D01*
X832000D01*
Y299000D01*
X831000Y300000D01*
X832000Y301000D01*
Y302000D01*
X831000D01*
X830000Y301000D01*
X829000Y302000D01*
X828000D01*
Y301000D01*
X829000Y300000D01*
X828000Y299000D01*
Y298000D01*
D101*
X899842Y477130D02*
G03*
X899842Y477130I-2000J0D01*
G01*
Y455870D02*
G03*
X899842Y455870I-2000J0D01*
G01*
X890000Y477130D02*
G03*
X890000Y477130I-2000J0D01*
G01*
Y455870D02*
G03*
X890000Y455870I-2000J0D01*
G01*
X880157Y477130D02*
G03*
X880157Y477130I-2000J0D01*
G01*
Y455870D02*
G03*
X880157Y455870I-2000J0D01*
G01*
M02*
