%FSLAX25Y25*%
%MOIN*%
G70*
G01*
G75*
G04 Layer_Color=8388736*
%ADD10R,0.03500X0.03200*%
%ADD11R,0.03200X0.03000*%
%ADD12R,0.04500X0.05000*%
%ADD13R,0.05000X0.04500*%
%ADD14R,0.03200X0.03500*%
%ADD15R,0.03000X0.03200*%
%ADD16C,0.03200*%
%ADD17R,0.08200X0.11000*%
%ADD18R,0.07000X0.02500*%
%ADD19C,0.01000*%
%ADD20R,0.04000X0.02000*%
%ADD21R,0.08000X0.05500*%
%ADD22R,0.05000X0.04000*%
%ADD23R,0.04500X0.06000*%
%ADD24R,0.07000X0.05000*%
%ADD25R,0.06000X0.06000*%
%ADD26R,0.08500X0.01200*%
%ADD27R,0.08000X0.10000*%
%ADD28R,0.09000X0.03000*%
%ADD29R,0.03000X0.09000*%
%ADD30R,0.04000X0.04000*%
%ADD31R,0.13000X0.04000*%
%ADD32C,0.04000*%
%ADD33R,0.08000X0.13000*%
%ADD34R,0.04000X0.11000*%
%ADD35R,0.01600X0.07000*%
%ADD36R,0.06000X0.01000*%
%ADD37R,0.01000X0.06000*%
%ADD38C,0.02000*%
%ADD39C,0.01500*%
%ADD40C,0.00600*%
%ADD41C,0.03000*%
%ADD42C,0.02500*%
%ADD43C,0.01000*%
%ADD44C,0.01200*%
%ADD45C,0.02400*%
%ADD46C,0.03500*%
%ADD47C,0.13000*%
%ADD48R,0.05500X0.05500*%
%ADD49C,0.05500*%
%ADD50C,0.06000*%
%ADD51R,0.07000X0.07000*%
%ADD52C,0.07000*%
%ADD53O,0.03000X0.06000*%
%ADD54C,0.02400*%
%ADD55C,0.03937*%
%ADD56C,0.00500*%
%ADD57C,0.00800*%
%ADD58C,0.00200*%
%ADD59C,0.00787*%
%ADD60O,0.03937X0.03937*%
%ADD61C,0.03800*%
%ADD62R,0.03900X0.03600*%
%ADD63R,0.03600X0.03400*%
%ADD64R,0.04900X0.05400*%
%ADD65R,0.05400X0.04900*%
%ADD66R,0.03600X0.03900*%
%ADD67R,0.03400X0.03600*%
%ADD68C,0.03600*%
%ADD69R,0.08600X0.11400*%
%ADD70R,0.07400X0.02900*%
%ADD71C,0.01400*%
%ADD72R,0.04400X0.02400*%
%ADD73R,0.08400X0.05900*%
%ADD74R,0.05400X0.04400*%
%ADD75R,0.04900X0.06400*%
%ADD76R,0.07400X0.05400*%
%ADD77R,0.06400X0.06400*%
%ADD78R,0.08900X0.01600*%
%ADD79R,0.08400X0.10400*%
%ADD80R,0.09400X0.03400*%
%ADD81R,0.03400X0.09400*%
%ADD82R,0.04400X0.04400*%
%ADD83R,0.13400X0.04400*%
%ADD84C,0.12000*%
%ADD85R,0.08400X0.13400*%
%ADD86R,0.04400X0.11400*%
%ADD87R,0.02000X0.07400*%
%ADD88R,0.06400X0.01400*%
%ADD89R,0.01400X0.06400*%
%ADD90C,0.13400*%
%ADD91R,0.05900X0.05900*%
%ADD92C,0.05900*%
%ADD93C,0.06400*%
%ADD94R,0.07400X0.07400*%
%ADD95C,0.07400*%
%ADD96O,0.03400X0.06400*%
%ADD97C,0.02800*%
%ADD98C,0.11937*%
D62*
X914000Y317500D02*
D03*
X920000D02*
D03*
X662500Y370000D02*
D03*
X656500D02*
D03*
X920000Y272500D02*
D03*
X914000D02*
D03*
X838400Y337500D02*
D03*
X832400D02*
D03*
X920000Y277500D02*
D03*
X914000D02*
D03*
X920000Y282500D02*
D03*
X914000D02*
D03*
X890000Y390000D02*
D03*
X884000D02*
D03*
X920000Y312500D02*
D03*
X914000D02*
D03*
X920000Y287500D02*
D03*
X914000D02*
D03*
X807500Y445000D02*
D03*
X801500D02*
D03*
X690500Y370000D02*
D03*
X684500D02*
D03*
X677500D02*
D03*
X671500D02*
D03*
X861000Y420000D02*
D03*
X855000D02*
D03*
X790000Y445000D02*
D03*
X784000D02*
D03*
X965000Y322500D02*
D03*
X959000D02*
D03*
X983000Y397500D02*
D03*
X977000D02*
D03*
X983000Y389000D02*
D03*
X977000D02*
D03*
X790000Y337500D02*
D03*
X784000D02*
D03*
X823400Y372500D02*
D03*
X817400D02*
D03*
X800000D02*
D03*
X794000D02*
D03*
X815000Y337500D02*
D03*
X809000D02*
D03*
X826800D02*
D03*
X820800D02*
D03*
X811700Y372500D02*
D03*
X805700D02*
D03*
X835100D02*
D03*
X829100D02*
D03*
X802500Y337500D02*
D03*
X796500D02*
D03*
X917500Y422500D02*
D03*
X911500D02*
D03*
X930000D02*
D03*
X924000D02*
D03*
X942500D02*
D03*
X936500D02*
D03*
X952500Y321000D02*
D03*
X946500D02*
D03*
X955000Y422500D02*
D03*
X949000D02*
D03*
D63*
X864500Y475400D02*
D03*
Y469600D02*
D03*
X839500Y475400D02*
D03*
Y469600D02*
D03*
X859500Y475400D02*
D03*
Y469600D02*
D03*
X849500Y475400D02*
D03*
Y469600D02*
D03*
X833900Y477300D02*
D03*
Y471300D02*
D03*
X844500Y475500D02*
D03*
Y469500D02*
D03*
X959500Y303000D02*
D03*
Y297000D02*
D03*
X954500Y303000D02*
D03*
Y297000D02*
D03*
X949500Y303000D02*
D03*
Y297000D02*
D03*
X944500Y303000D02*
D03*
Y297000D02*
D03*
X644500Y355500D02*
D03*
Y349500D02*
D03*
X652000Y355500D02*
D03*
Y349500D02*
D03*
X657000Y355500D02*
D03*
Y349500D02*
D03*
X854500Y475500D02*
D03*
Y469500D02*
D03*
X694500Y355500D02*
D03*
Y349500D02*
D03*
X699500Y355500D02*
D03*
Y349500D02*
D03*
X909500Y403000D02*
D03*
Y397000D02*
D03*
X874500Y339000D02*
D03*
Y333000D02*
D03*
X850500Y339000D02*
D03*
Y333000D02*
D03*
X903500Y340500D02*
D03*
Y334500D02*
D03*
D64*
X871900Y372500D02*
D03*
X864900D02*
D03*
X885500D02*
D03*
X878500D02*
D03*
X823000Y441000D02*
D03*
X816000D02*
D03*
X886500Y422500D02*
D03*
X879500D02*
D03*
X920500Y323500D02*
D03*
X913500D02*
D03*
X886500Y415000D02*
D03*
X879500D02*
D03*
X823000Y434000D02*
D03*
X816000D02*
D03*
D65*
X824500Y465000D02*
D03*
Y458000D02*
D03*
X600400Y314500D02*
D03*
Y307500D02*
D03*
X987000Y371000D02*
D03*
Y364000D02*
D03*
X832000Y465000D02*
D03*
Y458000D02*
D03*
X893000Y383500D02*
D03*
Y376500D02*
D03*
D66*
X729500Y258000D02*
D03*
Y252000D02*
D03*
X662000Y355500D02*
D03*
Y349500D02*
D03*
X832200Y437000D02*
D03*
Y431000D02*
D03*
X607000Y314000D02*
D03*
Y308000D02*
D03*
X607500Y277831D02*
D03*
Y271831D02*
D03*
X612000Y314000D02*
D03*
Y308000D02*
D03*
X592500Y277831D02*
D03*
Y271831D02*
D03*
X944500Y288000D02*
D03*
Y282000D02*
D03*
X949500Y288000D02*
D03*
Y282000D02*
D03*
X954500Y288000D02*
D03*
Y282000D02*
D03*
X959500Y288000D02*
D03*
Y282000D02*
D03*
X964500Y288000D02*
D03*
Y282000D02*
D03*
X979500Y370500D02*
D03*
Y364500D02*
D03*
X914500Y344000D02*
D03*
Y338000D02*
D03*
X933500Y404600D02*
D03*
Y398600D02*
D03*
X914500Y370500D02*
D03*
Y364500D02*
D03*
X955500Y400500D02*
D03*
Y394500D02*
D03*
X933500Y393000D02*
D03*
Y387000D02*
D03*
X979500Y383000D02*
D03*
Y377000D02*
D03*
X964500Y423000D02*
D03*
Y417000D02*
D03*
X974500Y423000D02*
D03*
Y417000D02*
D03*
X984500Y268000D02*
D03*
Y262000D02*
D03*
X974500Y268000D02*
D03*
Y262000D02*
D03*
X964500Y268000D02*
D03*
Y262000D02*
D03*
X954500Y268000D02*
D03*
Y262000D02*
D03*
X979500Y340500D02*
D03*
Y334500D02*
D03*
D67*
X618000Y277831D02*
D03*
X612000D02*
D03*
X920000Y307500D02*
D03*
X914000D02*
D03*
X603000Y277831D02*
D03*
X597000D02*
D03*
X920000Y302500D02*
D03*
X914000D02*
D03*
X920000Y297500D02*
D03*
X914000D02*
D03*
X920000Y292500D02*
D03*
X914000D02*
D03*
X901500Y442500D02*
D03*
X895500D02*
D03*
X890000Y395000D02*
D03*
X884000D02*
D03*
X876500D02*
D03*
X870500D02*
D03*
X987500Y357500D02*
D03*
X981500D02*
D03*
X872500Y325000D02*
D03*
X866500D02*
D03*
X903500Y346000D02*
D03*
X897500D02*
D03*
D68*
X872000Y407500D02*
D03*
X893500Y369000D02*
D03*
X649500Y375000D02*
D03*
X839500Y327500D02*
D03*
Y420000D02*
D03*
D69*
X861850Y408500D02*
D03*
X842150D02*
D03*
X861850Y457500D02*
D03*
X842150D02*
D03*
D70*
X862500Y442500D02*
D03*
Y437500D02*
D03*
Y432500D02*
D03*
Y427500D02*
D03*
X841500Y442500D02*
D03*
Y437500D02*
D03*
Y432500D02*
D03*
Y427500D02*
D03*
D71*
X852000Y435000D02*
D03*
D72*
X876618Y388740D02*
D03*
Y381260D02*
D03*
X866382Y388740D02*
D03*
Y385000D02*
D03*
Y381260D02*
D03*
D73*
X855700Y382500D02*
D03*
Y372500D02*
D03*
D74*
X866500Y331000D02*
D03*
Y339000D02*
D03*
X857500Y335000D02*
D03*
X896500Y331000D02*
D03*
Y339000D02*
D03*
X887500Y335000D02*
D03*
D75*
X949400Y405200D02*
D03*
Y389800D02*
D03*
X939600Y405200D02*
D03*
Y389800D02*
D03*
D76*
X969500Y400000D02*
D03*
Y389000D02*
D03*
D77*
X823500Y426417D02*
D03*
Y403583D02*
D03*
X915500Y433000D02*
D03*
Y253000D02*
D03*
X968500Y472500D02*
D03*
X789500Y350000D02*
D03*
X884500Y360000D02*
D03*
D78*
X872504Y315401D02*
D03*
Y312960D02*
D03*
Y310519D02*
D03*
Y308078D02*
D03*
Y305637D02*
D03*
Y303196D02*
D03*
Y300756D02*
D03*
Y298314D02*
D03*
Y295874D02*
D03*
Y293433D02*
D03*
Y290992D02*
D03*
Y288551D02*
D03*
Y286110D02*
D03*
Y283669D02*
D03*
D79*
X742000Y240689D02*
D03*
Y264311D02*
D03*
X767000Y240689D02*
D03*
Y264311D02*
D03*
X792000Y240689D02*
D03*
Y264311D02*
D03*
X817000Y240689D02*
D03*
Y264311D02*
D03*
X842000Y240689D02*
D03*
Y264311D02*
D03*
X867000Y240689D02*
D03*
Y264311D02*
D03*
D80*
X717457Y322319D02*
D03*
Y317988D02*
D03*
Y313657D02*
D03*
Y309327D02*
D03*
Y304996D02*
D03*
Y300665D02*
D03*
Y290823D02*
D03*
Y286492D02*
D03*
Y282161D02*
D03*
Y277831D02*
D03*
Y273500D02*
D03*
X624543Y322319D02*
D03*
Y317988D02*
D03*
Y313657D02*
D03*
Y309327D02*
D03*
Y304996D02*
D03*
Y300665D02*
D03*
Y290823D02*
D03*
Y286492D02*
D03*
Y282161D02*
D03*
Y277831D02*
D03*
Y273500D02*
D03*
D81*
X704465Y259130D02*
D03*
Y337870D02*
D03*
X700134Y259130D02*
D03*
Y337870D02*
D03*
X695803Y259130D02*
D03*
Y337870D02*
D03*
X691472Y259130D02*
D03*
Y337870D02*
D03*
X687142Y259130D02*
D03*
Y337870D02*
D03*
X682811Y259130D02*
D03*
Y337870D02*
D03*
X678480Y259130D02*
D03*
Y337870D02*
D03*
X671787Y259130D02*
D03*
Y337870D02*
D03*
X667457Y259130D02*
D03*
Y337870D02*
D03*
X663126Y259130D02*
D03*
Y337870D02*
D03*
X658795Y259130D02*
D03*
Y337870D02*
D03*
X654465Y259130D02*
D03*
Y337870D02*
D03*
X650134Y259130D02*
D03*
Y337870D02*
D03*
X645803Y259130D02*
D03*
Y337870D02*
D03*
X641472Y259130D02*
D03*
Y337870D02*
D03*
X637142Y259130D02*
D03*
Y337870D02*
D03*
D82*
X701118Y308539D02*
D03*
Y301847D02*
D03*
Y295153D02*
D03*
Y288461D02*
D03*
X694425Y308539D02*
D03*
Y301847D02*
D03*
Y295153D02*
D03*
Y288461D02*
D03*
X687732Y321925D02*
D03*
Y315232D02*
D03*
Y281768D02*
D03*
Y275075D02*
D03*
X681039Y321925D02*
D03*
Y315232D02*
D03*
Y281768D02*
D03*
Y275075D02*
D03*
X674346Y321925D02*
D03*
Y315232D02*
D03*
Y281768D02*
D03*
Y275075D02*
D03*
X667654Y321925D02*
D03*
Y315232D02*
D03*
Y281768D02*
D03*
Y275075D02*
D03*
X660961Y321925D02*
D03*
Y315232D02*
D03*
Y281768D02*
D03*
Y275075D02*
D03*
X654268Y321925D02*
D03*
Y315232D02*
D03*
Y281768D02*
D03*
Y275075D02*
D03*
X647575Y308539D02*
D03*
Y301847D02*
D03*
Y295153D02*
D03*
Y288461D02*
D03*
X640882Y308539D02*
D03*
Y301847D02*
D03*
Y295153D02*
D03*
Y288461D02*
D03*
D83*
X610000Y360000D02*
D03*
X629000D02*
D03*
D84*
X719750Y243550D02*
D03*
D85*
X710205Y464996D02*
D03*
X629299D02*
D03*
D86*
X693000Y383500D02*
D03*
X688000D02*
D03*
X683000D02*
D03*
X678000D02*
D03*
X673000D02*
D03*
X668000D02*
D03*
X663000D02*
D03*
X658000D02*
D03*
D87*
X807118Y466256D02*
D03*
X804559D02*
D03*
X802000D02*
D03*
X799441D02*
D03*
X796882D02*
D03*
D88*
X969638Y369764D02*
D03*
Y367795D02*
D03*
Y365827D02*
D03*
Y363858D02*
D03*
Y361890D02*
D03*
Y359921D02*
D03*
Y357953D02*
D03*
Y355984D02*
D03*
Y354016D02*
D03*
Y352047D02*
D03*
Y350079D02*
D03*
Y348110D02*
D03*
Y346142D02*
D03*
Y344173D02*
D03*
Y342205D02*
D03*
Y340236D02*
D03*
X924362Y369764D02*
D03*
Y367795D02*
D03*
Y365827D02*
D03*
Y363858D02*
D03*
Y361890D02*
D03*
Y359921D02*
D03*
Y357953D02*
D03*
Y355984D02*
D03*
Y354016D02*
D03*
Y352047D02*
D03*
Y350079D02*
D03*
Y348110D02*
D03*
Y346142D02*
D03*
Y344173D02*
D03*
Y342205D02*
D03*
Y340236D02*
D03*
D89*
X961764Y332362D02*
D03*
Y377638D02*
D03*
X959795Y332362D02*
D03*
Y377638D02*
D03*
X957827Y332362D02*
D03*
Y377638D02*
D03*
X955858Y332362D02*
D03*
Y377638D02*
D03*
X953890Y332362D02*
D03*
Y377638D02*
D03*
X951921Y332362D02*
D03*
Y377638D02*
D03*
X949953Y332362D02*
D03*
Y377638D02*
D03*
X947984Y332362D02*
D03*
Y377638D02*
D03*
X946016Y332362D02*
D03*
Y377638D02*
D03*
X944047Y332362D02*
D03*
Y377638D02*
D03*
X942079Y332362D02*
D03*
Y377638D02*
D03*
X940110Y332362D02*
D03*
Y377638D02*
D03*
X938142Y332362D02*
D03*
Y377638D02*
D03*
X936173Y332362D02*
D03*
Y377638D02*
D03*
X934205Y332362D02*
D03*
Y377638D02*
D03*
X932236Y332362D02*
D03*
Y377638D02*
D03*
D90*
X615000Y244500D02*
D03*
X614500Y473000D02*
D03*
X1001500D02*
D03*
Y244500D02*
D03*
D91*
X897843Y477130D02*
D03*
X642000Y242500D02*
D03*
X682000D02*
D03*
X717000Y352500D02*
D03*
D92*
X897843Y455870D02*
D03*
X888000Y477130D02*
D03*
Y455870D02*
D03*
X878158Y477130D02*
D03*
Y455870D02*
D03*
X662000Y242500D02*
D03*
X652000D02*
D03*
X702000D02*
D03*
X692000D02*
D03*
X717000Y372500D02*
D03*
Y362500D02*
D03*
D93*
X985500Y433000D02*
D03*
X975500D02*
D03*
X965500D02*
D03*
X955500D02*
D03*
X945500D02*
D03*
X935500D02*
D03*
X925500D02*
D03*
X985500Y253000D02*
D03*
X975500D02*
D03*
X965500D02*
D03*
X955500D02*
D03*
X945500D02*
D03*
X935500D02*
D03*
X925500D02*
D03*
X968500Y462500D02*
D03*
X958500Y472500D02*
D03*
Y462500D02*
D03*
X948500Y472500D02*
D03*
Y462500D02*
D03*
X938500Y472500D02*
D03*
Y462500D02*
D03*
X928500Y472500D02*
D03*
Y462500D02*
D03*
X829500Y360000D02*
D03*
Y350000D02*
D03*
X819500Y360000D02*
D03*
Y350000D02*
D03*
X809500Y360000D02*
D03*
Y350000D02*
D03*
X799500Y360000D02*
D03*
Y350000D02*
D03*
X789500Y360000D02*
D03*
X884500Y350000D02*
D03*
X874500Y360000D02*
D03*
Y350000D02*
D03*
X864500Y360000D02*
D03*
Y350000D02*
D03*
X854500Y360000D02*
D03*
Y350000D02*
D03*
X844500Y360000D02*
D03*
Y350000D02*
D03*
D94*
X752000Y466083D02*
D03*
D95*
Y288917D02*
D03*
D96*
X816075Y477870D02*
D03*
Y464287D02*
D03*
X787925Y477870D02*
D03*
Y464287D02*
D03*
D97*
X809874Y469484D02*
D03*
X794126D02*
D03*
X995000Y290000D02*
D03*
Y330000D02*
D03*
X1000000Y280000D02*
D03*
X1005000Y290000D02*
D03*
Y310000D02*
D03*
X1000000Y320000D02*
D03*
X1005000Y330000D02*
D03*
X1000000Y340000D02*
D03*
X1005000Y350000D02*
D03*
Y370000D02*
D03*
Y390000D02*
D03*
Y410000D02*
D03*
Y430000D02*
D03*
X991800Y304500D02*
D03*
X981800Y295500D02*
D03*
X600000Y240000D02*
D03*
X605000Y250000D02*
D03*
X600000Y260000D02*
D03*
X605000Y290000D02*
D03*
X600000Y300000D02*
D03*
Y400000D02*
D03*
X605000Y410000D02*
D03*
X600000Y420000D02*
D03*
X605000Y430000D02*
D03*
X600000Y440000D02*
D03*
X605000Y450000D02*
D03*
X600000Y460000D02*
D03*
X605000Y470000D02*
D03*
X600000Y480000D02*
D03*
X610000Y260000D02*
D03*
X615000Y270000D02*
D03*
Y290000D02*
D03*
X610000Y300000D02*
D03*
Y420000D02*
D03*
X615000Y430000D02*
D03*
X610000Y440000D02*
D03*
X615000Y450000D02*
D03*
X610000Y460000D02*
D03*
X625000Y250000D02*
D03*
X620000Y260000D02*
D03*
X625000Y330000D02*
D03*
X620000Y340000D02*
D03*
X625000Y350000D02*
D03*
X620000Y360000D02*
D03*
X625000Y370000D02*
D03*
X620000Y380000D02*
D03*
Y420000D02*
D03*
X625000Y430000D02*
D03*
X620000Y440000D02*
D03*
X625000Y450000D02*
D03*
X620000Y460000D02*
D03*
Y480000D02*
D03*
X630000Y240000D02*
D03*
X635000Y250000D02*
D03*
X630000Y260000D02*
D03*
X635000Y270000D02*
D03*
Y290000D02*
D03*
Y310000D02*
D03*
Y330000D02*
D03*
X630000Y340000D02*
D03*
X635000Y350000D02*
D03*
Y370000D02*
D03*
X630000Y380000D02*
D03*
X635000Y390000D02*
D03*
X630000Y420000D02*
D03*
X635000Y430000D02*
D03*
X630000Y440000D02*
D03*
X635000Y450000D02*
D03*
X630000Y480000D02*
D03*
X645000Y270000D02*
D03*
X640000Y280000D02*
D03*
Y320000D02*
D03*
X645000Y330000D02*
D03*
X640000Y360000D02*
D03*
Y380000D02*
D03*
X645000Y390000D02*
D03*
X640000Y420000D02*
D03*
X645000Y430000D02*
D03*
X640000Y440000D02*
D03*
X645000Y450000D02*
D03*
X640000Y460000D02*
D03*
X645000Y470000D02*
D03*
X640000Y480000D02*
D03*
X655000Y270000D02*
D03*
Y290000D02*
D03*
Y310000D02*
D03*
X650000Y420000D02*
D03*
X655000Y430000D02*
D03*
X650000Y440000D02*
D03*
X655000Y450000D02*
D03*
X650000Y460000D02*
D03*
X655000Y470000D02*
D03*
X650000Y480000D02*
D03*
X665000Y250000D02*
D03*
Y270000D02*
D03*
Y290000D02*
D03*
X660000Y300000D02*
D03*
X665000Y310000D02*
D03*
Y330000D02*
D03*
X660000Y420000D02*
D03*
X665000Y430000D02*
D03*
X660000Y440000D02*
D03*
X665000Y450000D02*
D03*
X660000Y460000D02*
D03*
X665000Y470000D02*
D03*
X660000Y480000D02*
D03*
X670000Y240000D02*
D03*
X675000Y250000D02*
D03*
Y270000D02*
D03*
Y290000D02*
D03*
X670000Y300000D02*
D03*
X675000Y310000D02*
D03*
Y330000D02*
D03*
Y350000D02*
D03*
X670000Y420000D02*
D03*
X675000Y430000D02*
D03*
X670000Y440000D02*
D03*
X675000Y450000D02*
D03*
X670000Y460000D02*
D03*
X675000Y470000D02*
D03*
X670000Y480000D02*
D03*
X685000Y270000D02*
D03*
Y290000D02*
D03*
X680000Y300000D02*
D03*
X685000Y310000D02*
D03*
Y330000D02*
D03*
Y350000D02*
D03*
X680000Y420000D02*
D03*
X685000Y430000D02*
D03*
X680000Y440000D02*
D03*
X685000Y450000D02*
D03*
X680000Y460000D02*
D03*
X685000Y470000D02*
D03*
X680000Y480000D02*
D03*
X695000Y270000D02*
D03*
X690000Y300000D02*
D03*
X695000Y330000D02*
D03*
X690000Y360000D02*
D03*
X695000Y370000D02*
D03*
X690000Y420000D02*
D03*
X695000Y430000D02*
D03*
X690000Y440000D02*
D03*
X695000Y450000D02*
D03*
X690000Y460000D02*
D03*
X695000Y470000D02*
D03*
X690000Y480000D02*
D03*
X705000Y270000D02*
D03*
X700000Y280000D02*
D03*
Y320000D02*
D03*
X705000Y330000D02*
D03*
Y350000D02*
D03*
Y370000D02*
D03*
X700000Y380000D02*
D03*
X705000Y390000D02*
D03*
X700000Y420000D02*
D03*
X705000Y430000D02*
D03*
X700000Y440000D02*
D03*
X705000Y450000D02*
D03*
X700000Y460000D02*
D03*
Y480000D02*
D03*
X710000Y300000D02*
D03*
Y320000D02*
D03*
X715000Y330000D02*
D03*
X710000Y340000D02*
D03*
Y360000D02*
D03*
Y380000D02*
D03*
Y420000D02*
D03*
X715000Y430000D02*
D03*
X710000Y440000D02*
D03*
X715000Y450000D02*
D03*
X710000Y480000D02*
D03*
X725000Y290000D02*
D03*
Y310000D02*
D03*
Y330000D02*
D03*
X720000Y340000D02*
D03*
X725000Y350000D02*
D03*
X720000Y380000D02*
D03*
X725000Y410000D02*
D03*
X720000Y420000D02*
D03*
X725000Y430000D02*
D03*
X720000Y440000D02*
D03*
X725000Y450000D02*
D03*
X720000Y460000D02*
D03*
X725000Y470000D02*
D03*
X720000Y480000D02*
D03*
X730000Y280000D02*
D03*
X735000Y290000D02*
D03*
X730000Y300000D02*
D03*
X735000Y310000D02*
D03*
X730000Y320000D02*
D03*
X735000Y330000D02*
D03*
X730000Y340000D02*
D03*
X735000Y350000D02*
D03*
Y370000D02*
D03*
X730000Y380000D02*
D03*
X735000Y410000D02*
D03*
X730000Y420000D02*
D03*
X735000Y430000D02*
D03*
X730000Y440000D02*
D03*
X735000Y450000D02*
D03*
X730000Y460000D02*
D03*
X735000Y470000D02*
D03*
X730000Y480000D02*
D03*
X740000Y280000D02*
D03*
X745000Y290000D02*
D03*
X740000Y300000D02*
D03*
X745000Y310000D02*
D03*
X740000Y320000D02*
D03*
X745000Y330000D02*
D03*
X740000Y340000D02*
D03*
X745000Y350000D02*
D03*
Y370000D02*
D03*
X740000Y380000D02*
D03*
X745000Y410000D02*
D03*
X740000Y420000D02*
D03*
X745000Y430000D02*
D03*
X740000Y440000D02*
D03*
X745000Y450000D02*
D03*
X740000Y480000D02*
D03*
X750000Y280000D02*
D03*
Y300000D02*
D03*
X755000Y310000D02*
D03*
X750000Y320000D02*
D03*
X755000Y330000D02*
D03*
X750000Y340000D02*
D03*
X755000Y350000D02*
D03*
Y370000D02*
D03*
X750000Y380000D02*
D03*
X755000Y410000D02*
D03*
X750000Y420000D02*
D03*
X755000Y430000D02*
D03*
X750000Y440000D02*
D03*
Y480000D02*
D03*
X760000Y280000D02*
D03*
X765000Y290000D02*
D03*
X760000Y300000D02*
D03*
X765000Y310000D02*
D03*
X760000Y320000D02*
D03*
Y340000D02*
D03*
Y380000D02*
D03*
Y420000D02*
D03*
Y440000D02*
D03*
Y480000D02*
D03*
X770000Y280000D02*
D03*
X775000Y290000D02*
D03*
X770000Y300000D02*
D03*
X775000Y310000D02*
D03*
X770000Y320000D02*
D03*
Y480000D02*
D03*
X780000Y280000D02*
D03*
X785000Y290000D02*
D03*
X780000Y300000D02*
D03*
X785000Y310000D02*
D03*
X790000Y280000D02*
D03*
X795000Y290000D02*
D03*
X790000Y300000D02*
D03*
X795000Y310000D02*
D03*
X800000Y280000D02*
D03*
X805000Y290000D02*
D03*
X800000Y300000D02*
D03*
X805000Y310000D02*
D03*
X810000Y280000D02*
D03*
X815000Y290000D02*
D03*
X810000Y300000D02*
D03*
X815000Y310000D02*
D03*
X820000Y280000D02*
D03*
X825000Y290000D02*
D03*
X820000Y300000D02*
D03*
X825000Y310000D02*
D03*
X830000Y280000D02*
D03*
Y300000D02*
D03*
D98*
X1001200Y264700D02*
D03*
X1001600Y457100D02*
D03*
X534900Y471800D02*
D03*
M02*
