%FSLAX25Y25*%
%MOIN*%
G70*
G01*
G75*
%ADD10R,0.03500X0.03200*%
%ADD11R,0.03200X0.03000*%
%ADD12R,0.04500X0.05000*%
%ADD13R,0.05000X0.04500*%
%ADD14R,0.03200X0.03500*%
%ADD15R,0.03000X0.03200*%
%ADD16C,0.03200*%
%ADD17R,0.08200X0.11000*%
%ADD18R,0.07000X0.02500*%
%ADD19C,0.01000*%
%ADD20R,0.04000X0.02000*%
%ADD21R,0.08000X0.05500*%
%ADD22R,0.05000X0.04000*%
%ADD23R,0.04500X0.06000*%
%ADD24R,0.07000X0.05000*%
%ADD25R,0.06000X0.06000*%
%ADD26R,0.08500X0.01200*%
%ADD27R,0.08000X0.10000*%
%ADD28R,0.09000X0.03000*%
%ADD29R,0.03000X0.09000*%
%ADD30R,0.04000X0.04000*%
%ADD31R,0.13000X0.04000*%
%ADD32C,0.04000*%
%ADD33R,0.08000X0.13000*%
%ADD34R,0.04000X0.11000*%
%ADD35R,0.01600X0.07000*%
%ADD36R,0.06000X0.01000*%
%ADD37R,0.01000X0.06000*%
%ADD38C,0.02000*%
%ADD39C,0.01500*%
%ADD40C,0.00600*%
%ADD41C,0.03000*%
%ADD42C,0.02500*%
%ADD43C,0.01000*%
%ADD44C,0.01200*%
%ADD45C,0.02400*%
%ADD46C,0.03500*%
%ADD47C,0.13000*%
%ADD48R,0.05500X0.05500*%
%ADD49C,0.05500*%
%ADD50C,0.06000*%
%ADD51R,0.07000X0.07000*%
%ADD52C,0.07000*%
%ADD53O,0.03000X0.06000*%
%ADD54C,0.02400*%
%ADD55C,0.03937*%
%ADD56C,0.00500*%
%ADD57C,0.00800*%
%ADD58C,0.00200*%
%ADD59C,0.00787*%
%ADD60O,0.03937X0.03937*%
%ADD61C,0.03800*%
%ADD62R,0.03900X0.03600*%
%ADD63R,0.03600X0.03400*%
%ADD64R,0.04900X0.05400*%
%ADD65R,0.05400X0.04900*%
%ADD66R,0.03600X0.03900*%
%ADD67R,0.03400X0.03600*%
%ADD68C,0.03600*%
%ADD69R,0.08600X0.11400*%
%ADD70R,0.07400X0.02900*%
%ADD71C,0.01400*%
%ADD72R,0.04400X0.02400*%
%ADD73R,0.08400X0.05900*%
%ADD74R,0.05400X0.04400*%
%ADD75R,0.04900X0.06400*%
%ADD76R,0.07400X0.05400*%
%ADD77R,0.06400X0.06400*%
%ADD78R,0.08900X0.01600*%
%ADD79R,0.08400X0.10400*%
%ADD80R,0.09400X0.03400*%
%ADD81R,0.03400X0.09400*%
%ADD82R,0.04400X0.04400*%
%ADD83R,0.13400X0.04400*%
%ADD84C,0.12000*%
%ADD85R,0.08400X0.13400*%
%ADD86R,0.04400X0.11400*%
%ADD87R,0.02000X0.07400*%
%ADD88R,0.06400X0.01400*%
%ADD89R,0.01400X0.06400*%
%ADD90C,0.13400*%
%ADD91R,0.05900X0.05900*%
%ADD92C,0.05900*%
%ADD93C,0.06400*%
%ADD94R,0.07400X0.07400*%
%ADD95C,0.07400*%
%ADD96O,0.03400X0.06400*%
%ADD97C,0.02800*%
%ADD98C,0.11937*%
%ADD99C,0.14000*%
%ADD100C,0.00100*%
%ADD101C,0.00667*%
D100*
X608504Y244500D02*
X621496D01*
X615000Y238004D02*
Y250996D01*
X608004Y473000D02*
X620996D01*
X614500Y466504D02*
Y479496D01*
X995004Y473000D02*
X1007996D01*
X1001500Y466504D02*
Y479496D01*
X995004Y244500D02*
X1007996D01*
X1001500Y238004D02*
Y250996D01*
X896243Y477130D02*
X899442D01*
X897843Y475530D02*
Y478730D01*
X896243Y455870D02*
X899442D01*
X897843Y454270D02*
Y457470D01*
X886400Y477130D02*
X889600D01*
X888000Y475530D02*
Y478730D01*
X886400Y455870D02*
X889600D01*
X888000Y454270D02*
Y457470D01*
X876558Y477130D02*
X879757D01*
X878158Y475530D02*
Y478730D01*
X876558Y455870D02*
X879757D01*
X878158Y454270D02*
Y457470D01*
X983500Y433000D02*
X987500D01*
X985500Y431000D02*
Y435000D01*
X973500Y433000D02*
X977500D01*
X975500Y431000D02*
Y435000D01*
X963500Y433000D02*
X967500D01*
X965500Y431000D02*
Y435000D01*
X953500Y433000D02*
X957500D01*
X955500Y431000D02*
Y435000D01*
X943500Y433000D02*
X947500D01*
X945500Y431000D02*
Y435000D01*
X933500Y433000D02*
X937500D01*
X935500Y431000D02*
Y435000D01*
X923500Y433000D02*
X927500D01*
X925500Y431000D02*
Y435000D01*
X913500Y433000D02*
X917500D01*
X915500Y431000D02*
Y435000D01*
X983500Y253000D02*
X987500D01*
X985500Y251000D02*
Y255000D01*
X973500Y253000D02*
X977500D01*
X975500Y251000D02*
Y255000D01*
X963500Y253000D02*
X967500D01*
X965500Y251000D02*
Y255000D01*
X953500Y253000D02*
X957500D01*
X955500Y251000D02*
Y255000D01*
X943500Y253000D02*
X947500D01*
X945500Y251000D02*
Y255000D01*
X933500Y253000D02*
X937500D01*
X935500Y251000D02*
Y255000D01*
X923500Y253000D02*
X927500D01*
X925500Y251000D02*
Y255000D01*
X913500Y253000D02*
X917500D01*
X915500Y251000D02*
Y255000D01*
X660200Y242500D02*
X663800D01*
X662000Y240700D02*
Y244300D01*
X650200Y242500D02*
X653800D01*
X652000Y240700D02*
Y244300D01*
X640200Y242500D02*
X643800D01*
X642000Y240700D02*
Y244300D01*
X700200Y242500D02*
X703800D01*
X702000Y240700D02*
Y244300D01*
X690200Y242500D02*
X693800D01*
X692000Y240700D02*
Y244300D01*
X680200Y242500D02*
X683800D01*
X682000Y240700D02*
Y244300D01*
X715200Y372500D02*
X718800D01*
X717000Y370700D02*
Y374300D01*
X715200Y362500D02*
X718800D01*
X717000Y360700D02*
Y364300D01*
X715200Y352500D02*
X718800D01*
X717000Y350700D02*
Y354300D01*
X966500Y472500D02*
X970500D01*
X968500Y470500D02*
Y474500D01*
X966500Y462500D02*
X970500D01*
X968500Y460500D02*
Y464500D01*
X956500Y472500D02*
X960500D01*
X958500Y470500D02*
Y474500D01*
X956500Y462500D02*
X960500D01*
X958500Y460500D02*
Y464500D01*
X946500Y472500D02*
X950500D01*
X948500Y470500D02*
Y474500D01*
X946500Y462500D02*
X950500D01*
X948500Y460500D02*
Y464500D01*
X936500Y472500D02*
X940500D01*
X938500Y470500D02*
Y474500D01*
X936500Y462500D02*
X940500D01*
X938500Y460500D02*
Y464500D01*
X926500Y472500D02*
X930500D01*
X928500Y470500D02*
Y474500D01*
X926500Y462500D02*
X930500D01*
X928500Y460500D02*
Y464500D01*
X827500Y360000D02*
X831500D01*
X829500Y358000D02*
Y362000D01*
X827500Y350000D02*
X831500D01*
X829500Y348000D02*
Y352000D01*
X817500Y360000D02*
X821500D01*
X819500Y358000D02*
Y362000D01*
X817500Y350000D02*
X821500D01*
X819500Y348000D02*
Y352000D01*
X807500Y360000D02*
X811500D01*
X809500Y358000D02*
Y362000D01*
X807500Y350000D02*
X811500D01*
X809500Y348000D02*
Y352000D01*
X797500Y360000D02*
X801500D01*
X799500Y358000D02*
Y362000D01*
X797500Y350000D02*
X801500D01*
X799500Y348000D02*
Y352000D01*
X787500Y360000D02*
X791500D01*
X789500Y358000D02*
Y362000D01*
X787500Y350000D02*
X791500D01*
X789500Y348000D02*
Y352000D01*
X882500Y360000D02*
X886500D01*
X884500Y358000D02*
Y362000D01*
X882500Y350000D02*
X886500D01*
X884500Y348000D02*
Y352000D01*
X872500Y360000D02*
X876500D01*
X874500Y358000D02*
Y362000D01*
X872500Y350000D02*
X876500D01*
X874500Y348000D02*
Y352000D01*
X862500Y360000D02*
X866500D01*
X864500Y358000D02*
Y362000D01*
X862500Y350000D02*
X866500D01*
X864500Y348000D02*
Y352000D01*
X852500Y360000D02*
X856500D01*
X854500Y358000D02*
Y362000D01*
X852500Y350000D02*
X856500D01*
X854500Y348000D02*
Y352000D01*
X842500Y360000D02*
X846500D01*
X844500Y358000D02*
Y362000D01*
X842500Y350000D02*
X846500D01*
X844500Y348000D02*
Y352000D01*
X750000Y466083D02*
X754000D01*
X752000Y464083D02*
Y468083D01*
X750000Y288917D02*
X754000D01*
X752000Y286917D02*
Y290917D01*
X813811Y477870D02*
X818339D01*
X816075Y475606D02*
Y480134D01*
X813811Y464287D02*
X818339D01*
X816075Y462024D02*
Y466551D01*
X808674Y469484D02*
X811074D01*
X809874Y468284D02*
Y470684D01*
X792926Y469484D02*
X795326D01*
X794126Y468284D02*
Y470684D01*
X785661Y477870D02*
X790189D01*
X787925Y475606D02*
Y480134D01*
X785661Y464287D02*
X790189D01*
X787925Y462024D02*
Y466551D01*
X1003900Y235800D02*
X1005100D01*
X1004500Y235200D02*
Y236400D01*
X998900Y481700D02*
X1000100D01*
X999500Y481100D02*
Y482300D01*
X993900Y481700D02*
X995100D01*
X994500Y481100D02*
Y482300D01*
X992300Y460200D02*
X993500D01*
X992900Y459600D02*
Y460800D01*
X993900Y342500D02*
X995100D01*
X994500Y341900D02*
Y343100D01*
X991400Y362500D02*
X992600D01*
X992000Y361900D02*
Y363100D01*
X991400Y357500D02*
X992600D01*
X992000Y356900D02*
Y358100D01*
X988900Y377500D02*
X990100D01*
X989500Y376900D02*
Y378100D01*
X983900Y317500D02*
X985100D01*
X984500Y316900D02*
Y318100D01*
X983900Y235800D02*
X985100D01*
X984500Y235200D02*
Y236400D01*
X983900Y481700D02*
X985100D01*
X984500Y481100D02*
Y482300D01*
X983900Y472500D02*
X985100D01*
X984500Y471900D02*
Y473100D01*
X983900Y462500D02*
X985100D01*
X984500Y461900D02*
Y463100D01*
X983900Y402500D02*
X985100D01*
X984500Y401900D02*
Y403100D01*
X983900Y392500D02*
X985100D01*
X984500Y391900D02*
Y393100D01*
X983900Y382500D02*
X985100D01*
X984500Y381900D02*
Y383100D01*
X983900Y377500D02*
X985100D01*
X984500Y376900D02*
Y378100D01*
X983900Y342500D02*
X985100D01*
X984500Y341900D02*
Y343100D01*
X983900Y332500D02*
X985100D01*
X984500Y331900D02*
Y333100D01*
X983900Y242500D02*
X985100D01*
X984500Y241900D02*
Y243100D01*
X973900Y307500D02*
X975100D01*
X974500Y306900D02*
Y308100D01*
X973900Y272500D02*
X975100D01*
X974500Y271900D02*
Y273100D01*
X973900Y235800D02*
X975100D01*
X974500Y235200D02*
Y236400D01*
X973900Y481700D02*
X975100D01*
X974500Y481100D02*
Y482300D01*
X973900Y474200D02*
X975100D01*
X974500Y473600D02*
Y474800D01*
X973900Y467500D02*
X975100D01*
X974500Y466900D02*
Y468100D01*
X973900Y413000D02*
X975100D01*
X974500Y412400D02*
Y413600D01*
X973900Y407500D02*
X975100D01*
X974500Y406900D02*
Y408100D01*
X973900Y382500D02*
X975100D01*
X974500Y381900D02*
Y383100D01*
X973900Y367500D02*
X975100D01*
X974500Y366900D02*
Y368100D01*
X973900Y242500D02*
X975100D01*
X974500Y241900D02*
Y243100D01*
X968900Y307500D02*
X970100D01*
X969500Y306900D02*
Y308100D01*
X968900Y382500D02*
X970100D01*
X969500Y381900D02*
Y383100D01*
X967900Y322500D02*
X969100D01*
X968500Y321900D02*
Y323100D01*
X963900Y319000D02*
X965100D01*
X964500Y318400D02*
Y319600D01*
X963900Y278550D02*
X965100D01*
X964500Y277950D02*
Y279150D01*
X963900Y272500D02*
X965100D01*
X964500Y271900D02*
Y273100D01*
X963900Y235800D02*
X965100D01*
X964500Y235200D02*
Y236400D01*
X963900Y481700D02*
X965100D01*
X964500Y481100D02*
Y482300D01*
X963900Y413000D02*
X965100D01*
X964500Y412400D02*
Y413600D01*
X963900Y407500D02*
X965100D01*
X964500Y406900D02*
Y408100D01*
X963900Y382500D02*
X965100D01*
X964500Y381900D02*
Y383100D01*
X963900Y367500D02*
X965100D01*
X964500Y366900D02*
Y368100D01*
X963900Y242500D02*
X965100D01*
X964500Y241900D02*
Y243100D01*
X958900Y327500D02*
X960100D01*
X959500Y326900D02*
Y328100D01*
X958900Y317500D02*
X960100D01*
X959500Y316900D02*
Y318100D01*
X958900Y312500D02*
X960100D01*
X959500Y311900D02*
Y313100D01*
X958900Y278550D02*
X960100D01*
X959500Y277950D02*
Y279150D01*
X958900Y372500D02*
X960100D01*
X959500Y371900D02*
Y373100D01*
X958900Y337500D02*
X960100D01*
X959500Y336900D02*
Y338100D01*
X957900Y387500D02*
X959100D01*
X958500Y386900D02*
Y388100D01*
X954400Y384000D02*
X955600D01*
X955000Y383400D02*
Y384600D01*
X953900Y317500D02*
X955100D01*
X954500Y316900D02*
Y318100D01*
X953900Y312500D02*
X955100D01*
X954500Y311900D02*
Y313100D01*
X953900Y278550D02*
X955100D01*
X954500Y277950D02*
Y279150D01*
X953900Y235800D02*
X955100D01*
X954500Y235200D02*
Y236400D01*
X953900Y481700D02*
X955100D01*
X954500Y481100D02*
Y482300D01*
X953900Y407500D02*
X955100D01*
X954500Y406900D02*
Y408100D01*
X953900Y390000D02*
X955100D01*
X954500Y389400D02*
Y390600D01*
X953900Y242500D02*
X955100D01*
X954500Y241900D02*
Y243100D01*
X948900Y278550D02*
X950100D01*
X949500Y277950D02*
Y279150D01*
X948900Y267500D02*
X950100D01*
X949500Y266900D02*
Y268100D01*
X948900Y262500D02*
X950100D01*
X949500Y261900D02*
Y263100D01*
X946400Y382800D02*
X947600D01*
X947000Y382200D02*
Y383400D01*
X943900Y317500D02*
X945100D01*
X944500Y316900D02*
Y318100D01*
X943900Y278550D02*
X945100D01*
X944500Y277950D02*
Y279150D01*
X943900Y235800D02*
X945100D01*
X944500Y235200D02*
Y236400D01*
X943900Y481700D02*
X945100D01*
X944500Y481100D02*
Y482300D01*
X943900Y410800D02*
X945100D01*
X944500Y410200D02*
Y411400D01*
X943900Y242500D02*
X945100D01*
X944500Y241900D02*
Y243100D01*
X942900Y426500D02*
X944100D01*
X943500Y425900D02*
Y427100D01*
X941400Y385000D02*
X942600D01*
X942000Y384400D02*
Y385600D01*
X938900Y312500D02*
X940100D01*
X939500Y311900D02*
Y313100D01*
X938900Y267500D02*
X940100D01*
X939500Y266900D02*
Y268100D01*
X941400Y262400D02*
X942600D01*
X942000Y261800D02*
Y263000D01*
X938900Y415000D02*
X940100D01*
X939500Y414400D02*
Y415600D01*
X938900Y372500D02*
X940100D01*
X939500Y371900D02*
Y373100D01*
X933900Y327500D02*
X935100D01*
X934500Y326900D02*
Y328100D01*
X933900Y312500D02*
X935100D01*
X934500Y311900D02*
Y313100D01*
X933900Y235800D02*
X935100D01*
X934500Y235200D02*
Y236400D01*
X933900Y262500D02*
X935100D01*
X934500Y261900D02*
Y263100D01*
X933900Y481700D02*
X935100D01*
X934500Y481100D02*
Y482300D01*
X933900Y410800D02*
X935100D01*
X934500Y410200D02*
Y411400D01*
X929400Y426500D02*
X930600D01*
X930000Y425900D02*
Y427100D01*
X928900Y407500D02*
X930100D01*
X929500Y406900D02*
Y408100D01*
X928900Y397500D02*
X930100D01*
X929500Y396900D02*
Y398100D01*
X928900Y387500D02*
X930100D01*
X929500Y386900D02*
Y388100D01*
X928900Y367500D02*
X930100D01*
X929500Y366900D02*
Y368100D01*
X928462Y342205D02*
X929662D01*
X929062Y341605D02*
Y342805D01*
X923900Y327500D02*
X925100D01*
X924500Y326900D02*
Y328100D01*
X923900Y322500D02*
X925100D01*
X924500Y321900D02*
Y323100D01*
X923900Y317500D02*
X925100D01*
X924500Y316900D02*
Y318100D01*
X923900Y307500D02*
X925100D01*
X924500Y306900D02*
Y308100D01*
X923900Y302500D02*
X925100D01*
X924500Y301900D02*
Y303100D01*
X923900Y292500D02*
X925100D01*
X924500Y291900D02*
Y293100D01*
X923900Y287500D02*
X925100D01*
X924500Y286900D02*
Y288100D01*
X923900Y282500D02*
X925100D01*
X924500Y281900D02*
Y283100D01*
X923900Y235800D02*
X925100D01*
X924500Y235200D02*
Y236400D01*
X923900Y481700D02*
X925100D01*
X924500Y481100D02*
Y482300D01*
X923900Y382500D02*
X925100D01*
X924500Y381900D02*
Y383100D01*
X918900Y372500D02*
X920100D01*
X919500Y371900D02*
Y373100D01*
X918900Y342500D02*
X920100D01*
X919500Y341900D02*
Y343100D01*
X916900Y426500D02*
X918100D01*
X917500Y425900D02*
Y427100D01*
X913900Y235800D02*
X915100D01*
X914500Y235200D02*
Y236400D01*
X913900Y481700D02*
X915100D01*
X914500Y481100D02*
Y482300D01*
X913900Y377500D02*
X915100D01*
X914500Y376900D02*
Y378100D01*
X913900Y360000D02*
X915100D01*
X914500Y359400D02*
Y360600D01*
X913900Y347500D02*
X915100D01*
X914500Y346900D02*
Y348100D01*
X908900Y302500D02*
X910100D01*
X909500Y301900D02*
Y303100D01*
X908900Y297500D02*
X910100D01*
X909500Y296900D02*
Y298100D01*
X908900Y287500D02*
X910100D01*
X909500Y286900D02*
Y288100D01*
X904500Y481500D02*
X905700D01*
X905100Y480900D02*
Y482100D01*
X908900Y392500D02*
X910100D01*
X909500Y391900D02*
Y393100D01*
X908900Y342500D02*
X910100D01*
X909500Y341900D02*
Y343100D01*
X908900Y337500D02*
X910100D01*
X909500Y336900D02*
Y338100D01*
X903900Y235800D02*
X905100D01*
X904500Y235200D02*
Y236400D01*
X901400Y447500D02*
X902600D01*
X902000Y446900D02*
Y448100D01*
X896400Y342500D02*
X897600D01*
X897000Y341900D02*
Y343100D01*
X893900Y235800D02*
X895100D01*
X894500Y235200D02*
Y236400D01*
X893900Y387500D02*
X895100D01*
X894500Y386900D02*
Y388100D01*
X890400Y422500D02*
X891600D01*
X891000Y421900D02*
Y423100D01*
X890400Y417500D02*
X891600D01*
X891000Y416900D02*
Y418100D01*
X890400Y412500D02*
X891600D01*
X891000Y411900D02*
Y413100D01*
X888900Y330500D02*
X890100D01*
X889500Y329900D02*
Y331100D01*
X888100Y384000D02*
X889300D01*
X888700Y383400D02*
Y384600D01*
X883900Y280000D02*
X885100D01*
X884500Y279400D02*
Y280600D01*
X883900Y267500D02*
X885100D01*
X884500Y266900D02*
Y268100D01*
X883900Y235800D02*
X885100D01*
X884500Y235200D02*
Y236400D01*
X883900Y481700D02*
X885100D01*
X884500Y481100D02*
Y482300D01*
X883900Y467800D02*
X885100D01*
X884500Y467200D02*
Y468400D01*
X883900Y462800D02*
X885100D01*
X884500Y462200D02*
Y463400D01*
X881400Y382500D02*
X882600D01*
X882000Y381900D02*
Y383100D01*
X878900Y280000D02*
X880100D01*
X879500Y279400D02*
Y280600D01*
X878900Y267500D02*
X880100D01*
X879500Y266900D02*
Y268100D01*
X878400Y297814D02*
X879600D01*
X879000Y297215D02*
Y298414D01*
X876400Y367500D02*
X877600D01*
X877000Y366900D02*
Y368100D01*
X873900Y329000D02*
X875100D01*
X874500Y328400D02*
Y329600D01*
X873900Y237500D02*
X875100D01*
X874500Y236900D02*
Y238100D01*
X873900Y481700D02*
X875100D01*
X874500Y481100D02*
Y482300D01*
X873900Y242500D02*
X875100D01*
X874500Y241900D02*
Y243100D01*
X872400Y267500D02*
X873600D01*
X873000Y266900D02*
Y268100D01*
X871400Y367500D02*
X872600D01*
X872000Y366900D02*
Y368100D01*
X870900Y390000D02*
X872100D01*
X871500Y389400D02*
Y390600D01*
X870900Y385000D02*
X872100D01*
X871500Y384400D02*
Y385600D01*
X870900Y380000D02*
X872100D01*
X871500Y379400D02*
Y380600D01*
X868900Y476200D02*
X870100D01*
X869500Y475600D02*
Y476800D01*
X867900Y471300D02*
X869100D01*
X868500Y470700D02*
Y471900D01*
X866400Y395000D02*
X867600D01*
X867000Y394400D02*
Y395600D01*
X865400Y297814D02*
X866600D01*
X866000Y297215D02*
Y298414D01*
X863900Y481700D02*
X865100D01*
X864500Y481100D02*
Y482300D01*
X861400Y325000D02*
X862600D01*
X862000Y324400D02*
Y325600D01*
X861400Y390000D02*
X862600D01*
X862000Y389400D02*
Y390600D01*
X858900Y292500D02*
X860100D01*
X859500Y291900D02*
Y293100D01*
X858900Y237500D02*
X860100D01*
X859500Y236900D02*
Y238100D01*
X858900Y267500D02*
X860100D01*
X859500Y266900D02*
Y268100D01*
X858900Y242500D02*
X860100D01*
X859500Y241900D02*
Y243100D01*
X853900Y292500D02*
X855100D01*
X854500Y291900D02*
Y293100D01*
X853900Y267500D02*
X855100D01*
X854500Y266900D02*
Y268100D01*
X853900Y481700D02*
X855100D01*
X854500Y481100D02*
Y482300D01*
X853900Y445000D02*
X855100D01*
X854500Y444400D02*
Y445600D01*
X853900Y435000D02*
X855100D01*
X854500Y434400D02*
Y435600D01*
X853900Y425000D02*
X855100D01*
X854500Y424400D02*
Y425600D01*
X848900Y237500D02*
X850100D01*
X849500Y236900D02*
Y238100D01*
X848900Y445000D02*
X850100D01*
X849500Y444400D02*
Y445600D01*
X848900Y435000D02*
X850100D01*
X849500Y434400D02*
Y435600D01*
X848900Y252500D02*
X850100D01*
X849500Y251900D02*
Y253100D01*
X848900Y425000D02*
X850100D01*
X849500Y424400D02*
Y425600D01*
X848900Y420000D02*
X850100D01*
X849500Y419400D02*
Y420600D01*
X848900Y242500D02*
X850100D01*
X849500Y241900D02*
Y243100D01*
X847400Y267500D02*
X848600D01*
X848000Y266900D02*
Y268100D01*
X843900Y317500D02*
X845100D01*
X844500Y316900D02*
Y318100D01*
X843900Y481700D02*
X845100D01*
X844500Y481100D02*
Y482300D01*
X841200Y252500D02*
X842400D01*
X841800Y251900D02*
Y253100D01*
X841400Y450000D02*
X842600D01*
X842000Y449400D02*
Y450600D01*
X838900Y317500D02*
X840100D01*
X839500Y316900D02*
Y318100D01*
X836400Y450000D02*
X837600D01*
X837000Y449400D02*
Y450600D01*
X833900Y237500D02*
X835100D01*
X834500Y236900D02*
Y238100D01*
X833900Y481700D02*
X835100D01*
X834500Y481100D02*
Y482300D01*
X833900Y252500D02*
X835100D01*
X834500Y251900D02*
Y253100D01*
X833900Y426500D02*
X835100D01*
X834500Y425900D02*
Y427100D01*
X833900Y367500D02*
X835100D01*
X834500Y366900D02*
Y368100D01*
X833900Y242500D02*
X835100D01*
X834500Y241900D02*
Y243100D01*
X831400Y442500D02*
X832600D01*
X832000Y441900D02*
Y443100D01*
X830400Y426500D02*
X831600D01*
X831000Y425900D02*
Y427100D01*
X828900Y317500D02*
X830100D01*
X829500Y316900D02*
Y318100D01*
X828900Y312500D02*
X830100D01*
X829500Y311900D02*
Y313100D01*
X828900Y477500D02*
X830100D01*
X829500Y476900D02*
Y478100D01*
X828900Y470000D02*
X830100D01*
X829500Y469400D02*
Y470600D01*
X828900Y342500D02*
X830100D01*
X829500Y341900D02*
Y343100D01*
X828900Y332500D02*
X830100D01*
X829500Y331900D02*
Y333100D01*
X826400Y442500D02*
X827600D01*
X827000Y441900D02*
Y443100D01*
X826400Y437500D02*
X827600D01*
X827000Y436900D02*
Y438100D01*
X823900Y237500D02*
X825100D01*
X824500Y236900D02*
Y238100D01*
X823900Y267500D02*
X825100D01*
X824500Y266900D02*
Y268100D01*
X823900Y481700D02*
X825100D01*
X824500Y481100D02*
Y482300D01*
X823900Y470000D02*
X825100D01*
X824500Y469400D02*
Y470600D01*
X823900Y252500D02*
X825100D01*
X824500Y251900D02*
Y253100D01*
X823900Y242500D02*
X825100D01*
X824500Y241900D02*
Y243100D01*
X818900Y367500D02*
X820100D01*
X819500Y366900D02*
Y368100D01*
X818900Y332500D02*
X820100D01*
X819500Y331900D02*
Y333100D01*
X816400Y445000D02*
X817600D01*
X817000Y444400D02*
Y445600D01*
X816400Y430000D02*
X817600D01*
X817000Y429400D02*
Y430600D01*
X813900Y252500D02*
X815100D01*
X814500Y251900D02*
Y253100D01*
X813900Y332500D02*
X815100D01*
X814500Y331900D02*
Y333100D01*
X811400Y445000D02*
X812600D01*
X812000Y444400D02*
Y445600D01*
X811400Y440000D02*
X812600D01*
X812000Y439400D02*
Y440600D01*
X811400Y435000D02*
X812600D01*
X812000Y434400D02*
Y435600D01*
X808900Y237500D02*
X810100D01*
X809500Y236900D02*
Y238100D01*
X808900Y481700D02*
X810100D01*
X809500Y481100D02*
Y482300D01*
X808900Y367500D02*
X810100D01*
X809500Y366900D02*
Y368100D01*
X808900Y342500D02*
X810100D01*
X809500Y341900D02*
Y343100D01*
X808900Y242500D02*
X810100D01*
X809500Y241900D02*
Y243100D01*
X803900Y481700D02*
X805100D01*
X804500Y481100D02*
Y482300D01*
X803900Y252500D02*
X805100D01*
X804500Y251900D02*
Y253100D01*
X801400Y448500D02*
X802600D01*
X802000Y447900D02*
Y449100D01*
X798900Y327500D02*
X800100D01*
X799500Y326900D02*
Y328100D01*
X798900Y322500D02*
X800100D01*
X799500Y321900D02*
Y323100D01*
X798900Y237500D02*
X800100D01*
X799500Y236900D02*
Y238100D01*
X798900Y267500D02*
X800100D01*
X799500Y266900D02*
Y268100D01*
X798900Y342500D02*
X800100D01*
X799500Y341900D02*
Y343100D01*
X798900Y242500D02*
X800100D01*
X799500Y241900D02*
Y243100D01*
X796282Y471956D02*
X797482D01*
X796882Y471356D02*
Y472556D01*
X795782Y461556D02*
X796982D01*
X796382Y460956D02*
Y462156D01*
X793900Y481700D02*
X795100D01*
X794500Y481100D02*
Y482300D01*
X793900Y252500D02*
X795100D01*
X794500Y251900D02*
Y253100D01*
X793900Y367500D02*
X795100D01*
X794500Y366900D02*
Y368100D01*
X788900Y327500D02*
X790100D01*
X789500Y326900D02*
Y328100D01*
X788900Y322500D02*
X790100D01*
X789500Y321900D02*
Y323100D01*
X788900Y457800D02*
X790100D01*
X789500Y457200D02*
Y458400D01*
X788900Y452800D02*
X790100D01*
X789500Y452200D02*
Y453400D01*
X788900Y448500D02*
X790100D01*
X789500Y447900D02*
Y449100D01*
X788900Y417500D02*
X790100D01*
X789500Y416900D02*
Y418100D01*
X788900Y412500D02*
X790100D01*
X789500Y411900D02*
Y413100D01*
X783900Y317500D02*
X785100D01*
X784500Y316900D02*
Y318100D01*
X783900Y237500D02*
X785100D01*
X784500Y236900D02*
Y238100D01*
X783900Y481700D02*
X785100D01*
X784500Y481100D02*
Y482300D01*
X783900Y252500D02*
X785100D01*
X784500Y251900D02*
Y253100D01*
X783900Y397500D02*
X785100D01*
X784500Y396900D02*
Y398100D01*
X783900Y392500D02*
X785100D01*
X784500Y391900D02*
Y393100D01*
X783900Y387500D02*
X785100D01*
X784500Y386900D02*
Y388100D01*
X783900Y342500D02*
X785100D01*
X784500Y341900D02*
Y343100D01*
X783900Y242500D02*
X785100D01*
X784500Y241900D02*
Y243100D01*
X778900Y445000D02*
X780100D01*
X779500Y444400D02*
Y445600D01*
X778900Y440000D02*
X780100D01*
X779500Y439400D02*
Y440600D01*
X773900Y237500D02*
X775100D01*
X774500Y236900D02*
Y238100D01*
X773900Y267500D02*
X775100D01*
X774500Y266900D02*
Y268100D01*
X773900Y481700D02*
X775100D01*
X774500Y481100D02*
Y482300D01*
X773900Y472500D02*
X775100D01*
X774500Y471900D02*
Y473100D01*
X773900Y467500D02*
X775100D01*
X774500Y466900D02*
Y468100D01*
X773900Y252500D02*
X775100D01*
X774500Y251900D02*
Y253100D01*
X773900Y367500D02*
X775100D01*
X774500Y366900D02*
Y368100D01*
X773900Y357500D02*
X775100D01*
X774500Y356900D02*
Y358100D01*
X773900Y242500D02*
X775100D01*
X774500Y241900D02*
Y243100D01*
X768900Y272500D02*
X770100D01*
X769500Y271900D02*
Y273100D01*
X768900Y472500D02*
X770100D01*
X769500Y471900D02*
Y473100D01*
X768900Y367500D02*
X770100D01*
X769500Y366900D02*
Y368100D01*
X768900Y357500D02*
X770100D01*
X769500Y356900D02*
Y358100D01*
X763900Y272500D02*
X765100D01*
X764500Y271900D02*
Y273100D01*
X763900Y252500D02*
X765100D01*
X764500Y251900D02*
Y253100D01*
X758900Y237500D02*
X760100D01*
X759500Y236900D02*
Y238100D01*
X758900Y397500D02*
X760100D01*
X759500Y396900D02*
Y398100D01*
X758900Y392500D02*
X760100D01*
X759500Y391900D02*
Y393100D01*
X758900Y387500D02*
X760100D01*
X759500Y386900D02*
Y388100D01*
X758900Y242500D02*
X760100D01*
X759500Y241900D02*
Y243100D01*
X753900Y272500D02*
X755100D01*
X754500Y271900D02*
Y273100D01*
X753900Y262500D02*
X755100D01*
X754500Y261900D02*
Y263100D01*
X753900Y252500D02*
X755100D01*
X754500Y251900D02*
Y253100D01*
X748900Y237500D02*
X750100D01*
X749500Y236900D02*
Y238100D01*
X748900Y242500D02*
X750100D01*
X749500Y241900D02*
Y243100D01*
X743900Y272500D02*
X745100D01*
X744500Y271900D02*
Y273100D01*
X743900Y252500D02*
X745100D01*
X744500Y251900D02*
Y253100D01*
X733900Y237500D02*
X735100D01*
X734500Y236900D02*
Y238100D01*
X733900Y272500D02*
X735100D01*
X734500Y271900D02*
Y273100D01*
X733900Y267500D02*
X735100D01*
X734500Y266900D02*
Y268100D01*
X733900Y252500D02*
X735100D01*
X734500Y251900D02*
Y253100D01*
X733900Y242500D02*
X735100D01*
X734500Y241900D02*
Y243100D01*
X723900Y257500D02*
X725100D01*
X724500Y256900D02*
Y258100D01*
X698900Y252500D02*
X700100D01*
X699500Y251900D02*
Y253100D01*
X683900Y365000D02*
X685100D01*
X684500Y364400D02*
Y365600D01*
X676400Y365000D02*
X677600D01*
X677000Y364400D02*
Y365600D01*
X666400Y375000D02*
X667600D01*
X667000Y374400D02*
Y375600D01*
X666400Y355000D02*
X667600D01*
X667000Y354400D02*
Y355600D01*
X658195Y331240D02*
X659395D01*
X658795Y330640D02*
Y331840D01*
X658195Y344500D02*
X659395D01*
X658795Y343900D02*
Y345100D01*
X651400Y370000D02*
X652600D01*
X652000Y369400D02*
Y370600D01*
X646400Y370000D02*
X647600D01*
X647000Y369400D02*
Y370600D01*
X959400Y397000D02*
X960600D01*
X960000Y396400D02*
Y397600D01*
X994400Y290000D02*
X995600D01*
X995000Y289400D02*
Y290600D01*
X994400Y330000D02*
X995600D01*
X995000Y329400D02*
Y330600D01*
X999400Y280000D02*
X1000600D01*
X1000000Y279400D02*
Y280600D01*
X1004400Y290000D02*
X1005600D01*
X1005000Y289400D02*
Y290600D01*
X1004400Y310000D02*
X1005600D01*
X1005000Y309400D02*
Y310600D01*
X999400Y320000D02*
X1000600D01*
X1000000Y319400D02*
Y320600D01*
X1004400Y330000D02*
X1005600D01*
X1005000Y329400D02*
Y330600D01*
X999400Y340000D02*
X1000600D01*
X1000000Y339400D02*
Y340600D01*
X1004400Y350000D02*
X1005600D01*
X1005000Y349400D02*
Y350600D01*
X1004400Y370000D02*
X1005600D01*
X1005000Y369400D02*
Y370600D01*
X1004400Y390000D02*
X1005600D01*
X1005000Y389400D02*
Y390600D01*
X1004400Y410000D02*
X1005600D01*
X1005000Y409400D02*
Y410600D01*
X1004400Y430000D02*
X1005600D01*
X1005000Y429400D02*
Y430600D01*
X991200Y304500D02*
X992400D01*
X991800Y303900D02*
Y305100D01*
X981200Y295500D02*
X982400D01*
X981800Y294900D02*
Y296100D01*
X599400Y240000D02*
X600600D01*
X600000Y239400D02*
Y240600D01*
X604400Y250000D02*
X605600D01*
X605000Y249400D02*
Y250600D01*
X599400Y260000D02*
X600600D01*
X600000Y259400D02*
Y260600D01*
X604400Y290000D02*
X605600D01*
X605000Y289400D02*
Y290600D01*
X599400Y300000D02*
X600600D01*
X600000Y299400D02*
Y300600D01*
X599400Y400000D02*
X600600D01*
X600000Y399400D02*
Y400600D01*
X604400Y410000D02*
X605600D01*
X605000Y409400D02*
Y410600D01*
X599400Y420000D02*
X600600D01*
X600000Y419400D02*
Y420600D01*
X604400Y430000D02*
X605600D01*
X605000Y429400D02*
Y430600D01*
X599400Y440000D02*
X600600D01*
X600000Y439400D02*
Y440600D01*
X604400Y450000D02*
X605600D01*
X605000Y449400D02*
Y450600D01*
X599400Y460000D02*
X600600D01*
X600000Y459400D02*
Y460600D01*
X604400Y470000D02*
X605600D01*
X605000Y469400D02*
Y470600D01*
X599400Y480000D02*
X600600D01*
X600000Y479400D02*
Y480600D01*
X609400Y260000D02*
X610600D01*
X610000Y259400D02*
Y260600D01*
X614400Y270000D02*
X615600D01*
X615000Y269400D02*
Y270600D01*
X614400Y290000D02*
X615600D01*
X615000Y289400D02*
Y290600D01*
X609400Y300000D02*
X610600D01*
X610000Y299400D02*
Y300600D01*
X609400Y420000D02*
X610600D01*
X610000Y419400D02*
Y420600D01*
X614400Y430000D02*
X615600D01*
X615000Y429400D02*
Y430600D01*
X609400Y440000D02*
X610600D01*
X610000Y439400D02*
Y440600D01*
X614400Y450000D02*
X615600D01*
X615000Y449400D02*
Y450600D01*
X609400Y460000D02*
X610600D01*
X610000Y459400D02*
Y460600D01*
X624400Y250000D02*
X625600D01*
X625000Y249400D02*
Y250600D01*
X619400Y260000D02*
X620600D01*
X620000Y259400D02*
Y260600D01*
X624400Y330000D02*
X625600D01*
X625000Y329400D02*
Y330600D01*
X619400Y340000D02*
X620600D01*
X620000Y339400D02*
Y340600D01*
X624400Y350000D02*
X625600D01*
X625000Y349400D02*
Y350600D01*
X619400Y360000D02*
X620600D01*
X620000Y359400D02*
Y360600D01*
X624400Y370000D02*
X625600D01*
X625000Y369400D02*
Y370600D01*
X619400Y380000D02*
X620600D01*
X620000Y379400D02*
Y380600D01*
X619400Y420000D02*
X620600D01*
X620000Y419400D02*
Y420600D01*
X624400Y430000D02*
X625600D01*
X625000Y429400D02*
Y430600D01*
X619400Y440000D02*
X620600D01*
X620000Y439400D02*
Y440600D01*
X624400Y450000D02*
X625600D01*
X625000Y449400D02*
Y450600D01*
X619400Y460000D02*
X620600D01*
X620000Y459400D02*
Y460600D01*
X619400Y480000D02*
X620600D01*
X620000Y479400D02*
Y480600D01*
X629400Y240000D02*
X630600D01*
X630000Y239400D02*
Y240600D01*
X634400Y250000D02*
X635600D01*
X635000Y249400D02*
Y250600D01*
X629400Y260000D02*
X630600D01*
X630000Y259400D02*
Y260600D01*
X634400Y270000D02*
X635600D01*
X635000Y269400D02*
Y270600D01*
X634400Y290000D02*
X635600D01*
X635000Y289400D02*
Y290600D01*
X634400Y310000D02*
X635600D01*
X635000Y309400D02*
Y310600D01*
X634400Y330000D02*
X635600D01*
X635000Y329400D02*
Y330600D01*
X629400Y340000D02*
X630600D01*
X630000Y339400D02*
Y340600D01*
X634400Y350000D02*
X635600D01*
X635000Y349400D02*
Y350600D01*
X634400Y370000D02*
X635600D01*
X635000Y369400D02*
Y370600D01*
X629400Y380000D02*
X630600D01*
X630000Y379400D02*
Y380600D01*
X634400Y390000D02*
X635600D01*
X635000Y389400D02*
Y390600D01*
X629400Y420000D02*
X630600D01*
X630000Y419400D02*
Y420600D01*
X634400Y430000D02*
X635600D01*
X635000Y429400D02*
Y430600D01*
X629400Y440000D02*
X630600D01*
X630000Y439400D02*
Y440600D01*
X634400Y450000D02*
X635600D01*
X635000Y449400D02*
Y450600D01*
X629400Y480000D02*
X630600D01*
X630000Y479400D02*
Y480600D01*
X644400Y270000D02*
X645600D01*
X645000Y269400D02*
Y270600D01*
X639400Y280000D02*
X640600D01*
X640000Y279400D02*
Y280600D01*
X639400Y320000D02*
X640600D01*
X640000Y319400D02*
Y320600D01*
X644400Y330000D02*
X645600D01*
X645000Y329400D02*
Y330600D01*
X639400Y360000D02*
X640600D01*
X640000Y359400D02*
Y360600D01*
X639400Y380000D02*
X640600D01*
X640000Y379400D02*
Y380600D01*
X644400Y390000D02*
X645600D01*
X645000Y389400D02*
Y390600D01*
X639400Y420000D02*
X640600D01*
X640000Y419400D02*
Y420600D01*
X644400Y430000D02*
X645600D01*
X645000Y429400D02*
Y430600D01*
X639400Y440000D02*
X640600D01*
X640000Y439400D02*
Y440600D01*
X644400Y450000D02*
X645600D01*
X645000Y449400D02*
Y450600D01*
X639400Y460000D02*
X640600D01*
X640000Y459400D02*
Y460600D01*
X644400Y470000D02*
X645600D01*
X645000Y469400D02*
Y470600D01*
X639400Y480000D02*
X640600D01*
X640000Y479400D02*
Y480600D01*
X654400Y270000D02*
X655600D01*
X655000Y269400D02*
Y270600D01*
X654400Y290000D02*
X655600D01*
X655000Y289400D02*
Y290600D01*
X654400Y310000D02*
X655600D01*
X655000Y309400D02*
Y310600D01*
X649400Y420000D02*
X650600D01*
X650000Y419400D02*
Y420600D01*
X654400Y430000D02*
X655600D01*
X655000Y429400D02*
Y430600D01*
X649400Y440000D02*
X650600D01*
X650000Y439400D02*
Y440600D01*
X654400Y450000D02*
X655600D01*
X655000Y449400D02*
Y450600D01*
X649400Y460000D02*
X650600D01*
X650000Y459400D02*
Y460600D01*
X654400Y470000D02*
X655600D01*
X655000Y469400D02*
Y470600D01*
X649400Y480000D02*
X650600D01*
X650000Y479400D02*
Y480600D01*
X664400Y250000D02*
X665600D01*
X665000Y249400D02*
Y250600D01*
X664400Y270000D02*
X665600D01*
X665000Y269400D02*
Y270600D01*
X664400Y290000D02*
X665600D01*
X665000Y289400D02*
Y290600D01*
X659400Y300000D02*
X660600D01*
X660000Y299400D02*
Y300600D01*
X664400Y310000D02*
X665600D01*
X665000Y309400D02*
Y310600D01*
X664400Y330000D02*
X665600D01*
X665000Y329400D02*
Y330600D01*
X659400Y420000D02*
X660600D01*
X660000Y419400D02*
Y420600D01*
X664400Y430000D02*
X665600D01*
X665000Y429400D02*
Y430600D01*
X659400Y440000D02*
X660600D01*
X660000Y439400D02*
Y440600D01*
X664400Y450000D02*
X665600D01*
X665000Y449400D02*
Y450600D01*
X659400Y460000D02*
X660600D01*
X660000Y459400D02*
Y460600D01*
X664400Y470000D02*
X665600D01*
X665000Y469400D02*
Y470600D01*
X659400Y480000D02*
X660600D01*
X660000Y479400D02*
Y480600D01*
X669400Y240000D02*
X670600D01*
X670000Y239400D02*
Y240600D01*
X674400Y250000D02*
X675600D01*
X675000Y249400D02*
Y250600D01*
X674400Y270000D02*
X675600D01*
X675000Y269400D02*
Y270600D01*
X674400Y290000D02*
X675600D01*
X675000Y289400D02*
Y290600D01*
X669400Y300000D02*
X670600D01*
X670000Y299400D02*
Y300600D01*
X674400Y310000D02*
X675600D01*
X675000Y309400D02*
Y310600D01*
X674400Y330000D02*
X675600D01*
X675000Y329400D02*
Y330600D01*
X674400Y350000D02*
X675600D01*
X675000Y349400D02*
Y350600D01*
X669400Y420000D02*
X670600D01*
X670000Y419400D02*
Y420600D01*
X674400Y430000D02*
X675600D01*
X675000Y429400D02*
Y430600D01*
X669400Y440000D02*
X670600D01*
X670000Y439400D02*
Y440600D01*
X674400Y450000D02*
X675600D01*
X675000Y449400D02*
Y450600D01*
X669400Y460000D02*
X670600D01*
X670000Y459400D02*
Y460600D01*
X674400Y470000D02*
X675600D01*
X675000Y469400D02*
Y470600D01*
X669400Y480000D02*
X670600D01*
X670000Y479400D02*
Y480600D01*
X684400Y270000D02*
X685600D01*
X685000Y269400D02*
Y270600D01*
X684400Y290000D02*
X685600D01*
X685000Y289400D02*
Y290600D01*
X679400Y300000D02*
X680600D01*
X680000Y299400D02*
Y300600D01*
X684400Y310000D02*
X685600D01*
X685000Y309400D02*
Y310600D01*
X684400Y330000D02*
X685600D01*
X685000Y329400D02*
Y330600D01*
X684400Y350000D02*
X685600D01*
X685000Y349400D02*
Y350600D01*
X679400Y420000D02*
X680600D01*
X680000Y419400D02*
Y420600D01*
X684400Y430000D02*
X685600D01*
X685000Y429400D02*
Y430600D01*
X679400Y440000D02*
X680600D01*
X680000Y439400D02*
Y440600D01*
X684400Y450000D02*
X685600D01*
X685000Y449400D02*
Y450600D01*
X679400Y460000D02*
X680600D01*
X680000Y459400D02*
Y460600D01*
X684400Y470000D02*
X685600D01*
X685000Y469400D02*
Y470600D01*
X679400Y480000D02*
X680600D01*
X680000Y479400D02*
Y480600D01*
X694400Y270000D02*
X695600D01*
X695000Y269400D02*
Y270600D01*
X689400Y300000D02*
X690600D01*
X690000Y299400D02*
Y300600D01*
X694400Y330000D02*
X695600D01*
X695000Y329400D02*
Y330600D01*
X689400Y360000D02*
X690600D01*
X690000Y359400D02*
Y360600D01*
X694400Y370000D02*
X695600D01*
X695000Y369400D02*
Y370600D01*
X689400Y420000D02*
X690600D01*
X690000Y419400D02*
Y420600D01*
X694400Y430000D02*
X695600D01*
X695000Y429400D02*
Y430600D01*
X689400Y440000D02*
X690600D01*
X690000Y439400D02*
Y440600D01*
X694400Y450000D02*
X695600D01*
X695000Y449400D02*
Y450600D01*
X689400Y460000D02*
X690600D01*
X690000Y459400D02*
Y460600D01*
X694400Y470000D02*
X695600D01*
X695000Y469400D02*
Y470600D01*
X689400Y480000D02*
X690600D01*
X690000Y479400D02*
Y480600D01*
X704400Y270000D02*
X705600D01*
X705000Y269400D02*
Y270600D01*
X699400Y280000D02*
X700600D01*
X700000Y279400D02*
Y280600D01*
X699400Y320000D02*
X700600D01*
X700000Y319400D02*
Y320600D01*
X704400Y330000D02*
X705600D01*
X705000Y329400D02*
Y330600D01*
X704400Y350000D02*
X705600D01*
X705000Y349400D02*
Y350600D01*
X704400Y370000D02*
X705600D01*
X705000Y369400D02*
Y370600D01*
X699400Y380000D02*
X700600D01*
X700000Y379400D02*
Y380600D01*
X704400Y390000D02*
X705600D01*
X705000Y389400D02*
Y390600D01*
X699400Y420000D02*
X700600D01*
X700000Y419400D02*
Y420600D01*
X704400Y430000D02*
X705600D01*
X705000Y429400D02*
Y430600D01*
X699400Y440000D02*
X700600D01*
X700000Y439400D02*
Y440600D01*
X704400Y450000D02*
X705600D01*
X705000Y449400D02*
Y450600D01*
X699400Y460000D02*
X700600D01*
X700000Y459400D02*
Y460600D01*
X699400Y480000D02*
X700600D01*
X700000Y479400D02*
Y480600D01*
X709400Y300000D02*
X710600D01*
X710000Y299400D02*
Y300600D01*
X709400Y320000D02*
X710600D01*
X710000Y319400D02*
Y320600D01*
X714400Y330000D02*
X715600D01*
X715000Y329400D02*
Y330600D01*
X709400Y340000D02*
X710600D01*
X710000Y339400D02*
Y340600D01*
X709400Y360000D02*
X710600D01*
X710000Y359400D02*
Y360600D01*
X709400Y380000D02*
X710600D01*
X710000Y379400D02*
Y380600D01*
X709400Y420000D02*
X710600D01*
X710000Y419400D02*
Y420600D01*
X714400Y430000D02*
X715600D01*
X715000Y429400D02*
Y430600D01*
X709400Y440000D02*
X710600D01*
X710000Y439400D02*
Y440600D01*
X714400Y450000D02*
X715600D01*
X715000Y449400D02*
Y450600D01*
X709400Y480000D02*
X710600D01*
X710000Y479400D02*
Y480600D01*
X724400Y290000D02*
X725600D01*
X725000Y289400D02*
Y290600D01*
X724400Y310000D02*
X725600D01*
X725000Y309400D02*
Y310600D01*
X724400Y330000D02*
X725600D01*
X725000Y329400D02*
Y330600D01*
X719400Y340000D02*
X720600D01*
X720000Y339400D02*
Y340600D01*
X724400Y350000D02*
X725600D01*
X725000Y349400D02*
Y350600D01*
X719400Y380000D02*
X720600D01*
X720000Y379400D02*
Y380600D01*
X724400Y410000D02*
X725600D01*
X725000Y409400D02*
Y410600D01*
X719400Y420000D02*
X720600D01*
X720000Y419400D02*
Y420600D01*
X724400Y430000D02*
X725600D01*
X725000Y429400D02*
Y430600D01*
X719400Y440000D02*
X720600D01*
X720000Y439400D02*
Y440600D01*
X724400Y450000D02*
X725600D01*
X725000Y449400D02*
Y450600D01*
X719400Y460000D02*
X720600D01*
X720000Y459400D02*
Y460600D01*
X724400Y470000D02*
X725600D01*
X725000Y469400D02*
Y470600D01*
X719400Y480000D02*
X720600D01*
X720000Y479400D02*
Y480600D01*
X729400Y280000D02*
X730600D01*
X730000Y279400D02*
Y280600D01*
X734400Y290000D02*
X735600D01*
X735000Y289400D02*
Y290600D01*
X729400Y300000D02*
X730600D01*
X730000Y299400D02*
Y300600D01*
X734400Y310000D02*
X735600D01*
X735000Y309400D02*
Y310600D01*
X729400Y320000D02*
X730600D01*
X730000Y319400D02*
Y320600D01*
X734400Y330000D02*
X735600D01*
X735000Y329400D02*
Y330600D01*
X729400Y340000D02*
X730600D01*
X730000Y339400D02*
Y340600D01*
X734400Y350000D02*
X735600D01*
X735000Y349400D02*
Y350600D01*
X734400Y370000D02*
X735600D01*
X735000Y369400D02*
Y370600D01*
X729400Y380000D02*
X730600D01*
X730000Y379400D02*
Y380600D01*
X734400Y410000D02*
X735600D01*
X735000Y409400D02*
Y410600D01*
X729400Y420000D02*
X730600D01*
X730000Y419400D02*
Y420600D01*
X734400Y430000D02*
X735600D01*
X735000Y429400D02*
Y430600D01*
X729400Y440000D02*
X730600D01*
X730000Y439400D02*
Y440600D01*
X734400Y450000D02*
X735600D01*
X735000Y449400D02*
Y450600D01*
X729400Y460000D02*
X730600D01*
X730000Y459400D02*
Y460600D01*
X734400Y470000D02*
X735600D01*
X735000Y469400D02*
Y470600D01*
X729400Y480000D02*
X730600D01*
X730000Y479400D02*
Y480600D01*
X739400Y280000D02*
X740600D01*
X740000Y279400D02*
Y280600D01*
X744400Y290000D02*
X745600D01*
X745000Y289400D02*
Y290600D01*
X739400Y300000D02*
X740600D01*
X740000Y299400D02*
Y300600D01*
X744400Y310000D02*
X745600D01*
X745000Y309400D02*
Y310600D01*
X739400Y320000D02*
X740600D01*
X740000Y319400D02*
Y320600D01*
X744400Y330000D02*
X745600D01*
X745000Y329400D02*
Y330600D01*
X739400Y340000D02*
X740600D01*
X740000Y339400D02*
Y340600D01*
X744400Y350000D02*
X745600D01*
X745000Y349400D02*
Y350600D01*
X744400Y370000D02*
X745600D01*
X745000Y369400D02*
Y370600D01*
X739400Y380000D02*
X740600D01*
X740000Y379400D02*
Y380600D01*
X744400Y410000D02*
X745600D01*
X745000Y409400D02*
Y410600D01*
X739400Y420000D02*
X740600D01*
X740000Y419400D02*
Y420600D01*
X744400Y430000D02*
X745600D01*
X745000Y429400D02*
Y430600D01*
X739400Y440000D02*
X740600D01*
X740000Y439400D02*
Y440600D01*
X744400Y450000D02*
X745600D01*
X745000Y449400D02*
Y450600D01*
X739400Y480000D02*
X740600D01*
X740000Y479400D02*
Y480600D01*
X749400Y280000D02*
X750600D01*
X750000Y279400D02*
Y280600D01*
X749400Y300000D02*
X750600D01*
X750000Y299400D02*
Y300600D01*
X754400Y310000D02*
X755600D01*
X755000Y309400D02*
Y310600D01*
X749400Y320000D02*
X750600D01*
X750000Y319400D02*
Y320600D01*
X754400Y330000D02*
X755600D01*
X755000Y329400D02*
Y330600D01*
X749400Y340000D02*
X750600D01*
X750000Y339400D02*
Y340600D01*
X754400Y350000D02*
X755600D01*
X755000Y349400D02*
Y350600D01*
X754400Y370000D02*
X755600D01*
X755000Y369400D02*
Y370600D01*
X749400Y380000D02*
X750600D01*
X750000Y379400D02*
Y380600D01*
X754400Y410000D02*
X755600D01*
X755000Y409400D02*
Y410600D01*
X749400Y420000D02*
X750600D01*
X750000Y419400D02*
Y420600D01*
X754400Y430000D02*
X755600D01*
X755000Y429400D02*
Y430600D01*
X749400Y440000D02*
X750600D01*
X750000Y439400D02*
Y440600D01*
X749400Y480000D02*
X750600D01*
X750000Y479400D02*
Y480600D01*
X759400Y280000D02*
X760600D01*
X760000Y279400D02*
Y280600D01*
X764400Y290000D02*
X765600D01*
X765000Y289400D02*
Y290600D01*
X759400Y300000D02*
X760600D01*
X760000Y299400D02*
Y300600D01*
X764400Y310000D02*
X765600D01*
X765000Y309400D02*
Y310600D01*
X759400Y320000D02*
X760600D01*
X760000Y319400D02*
Y320600D01*
X759400Y340000D02*
X760600D01*
X760000Y339400D02*
Y340600D01*
X759400Y380000D02*
X760600D01*
X760000Y379400D02*
Y380600D01*
X759400Y420000D02*
X760600D01*
X760000Y419400D02*
Y420600D01*
X759400Y440000D02*
X760600D01*
X760000Y439400D02*
Y440600D01*
X759400Y480000D02*
X760600D01*
X760000Y479400D02*
Y480600D01*
X769400Y280000D02*
X770600D01*
X770000Y279400D02*
Y280600D01*
X774400Y290000D02*
X775600D01*
X775000Y289400D02*
Y290600D01*
X769400Y300000D02*
X770600D01*
X770000Y299400D02*
Y300600D01*
X774400Y310000D02*
X775600D01*
X775000Y309400D02*
Y310600D01*
X769400Y320000D02*
X770600D01*
X770000Y319400D02*
Y320600D01*
X769400Y480000D02*
X770600D01*
X770000Y479400D02*
Y480600D01*
X779400Y280000D02*
X780600D01*
X780000Y279400D02*
Y280600D01*
X784400Y290000D02*
X785600D01*
X785000Y289400D02*
Y290600D01*
X779400Y300000D02*
X780600D01*
X780000Y299400D02*
Y300600D01*
X784400Y310000D02*
X785600D01*
X785000Y309400D02*
Y310600D01*
X789400Y280000D02*
X790600D01*
X790000Y279400D02*
Y280600D01*
X794400Y290000D02*
X795600D01*
X795000Y289400D02*
Y290600D01*
X789400Y300000D02*
X790600D01*
X790000Y299400D02*
Y300600D01*
X794400Y310000D02*
X795600D01*
X795000Y309400D02*
Y310600D01*
X799400Y280000D02*
X800600D01*
X800000Y279400D02*
Y280600D01*
X804400Y290000D02*
X805600D01*
X805000Y289400D02*
Y290600D01*
X799400Y300000D02*
X800600D01*
X800000Y299400D02*
Y300600D01*
X804400Y310000D02*
X805600D01*
X805000Y309400D02*
Y310600D01*
X809400Y280000D02*
X810600D01*
X810000Y279400D02*
Y280600D01*
X814400Y290000D02*
X815600D01*
X815000Y289400D02*
Y290600D01*
X809400Y300000D02*
X810600D01*
X810000Y299400D02*
Y300600D01*
X814400Y310000D02*
X815600D01*
X815000Y309400D02*
Y310600D01*
X819400Y280000D02*
X820600D01*
X820000Y279400D02*
Y280600D01*
X824400Y290000D02*
X825600D01*
X825000Y289400D02*
Y290600D01*
X819400Y300000D02*
X820600D01*
X820000Y299400D02*
Y300600D01*
X824400Y310000D02*
X825600D01*
X825000Y309400D02*
Y310600D01*
X829400Y280000D02*
X830600D01*
X830000Y279400D02*
Y280600D01*
X829400Y300000D02*
X830600D01*
X830000Y299400D02*
Y300600D01*
M02*
