%FSLAX25Y25*%
%MOIN*%
G70*
G01*
G75*
G04 Layer_Color=8421504*
%ADD10R,0.03500X0.03200*%
%ADD11R,0.03200X0.03000*%
%ADD12R,0.04500X0.05000*%
%ADD13R,0.05000X0.04500*%
%ADD14R,0.03200X0.03500*%
%ADD15R,0.03000X0.03200*%
%ADD16C,0.03200*%
%ADD17R,0.08200X0.11000*%
%ADD18R,0.07000X0.02500*%
%ADD19C,0.01000*%
%ADD20R,0.04000X0.02000*%
%ADD21R,0.08000X0.05500*%
%ADD22R,0.05000X0.04000*%
%ADD23R,0.04500X0.06000*%
%ADD24R,0.07000X0.05000*%
%ADD25R,0.06000X0.06000*%
%ADD26R,0.08500X0.01200*%
%ADD27R,0.08000X0.10000*%
%ADD28R,0.09000X0.03000*%
%ADD29R,0.03000X0.09000*%
%ADD30R,0.04000X0.04000*%
%ADD31R,0.13000X0.04000*%
%ADD32C,0.04000*%
%ADD33R,0.08000X0.13000*%
%ADD34R,0.04000X0.11000*%
%ADD35R,0.01600X0.07000*%
%ADD36R,0.06000X0.01000*%
%ADD37R,0.01000X0.06000*%
%ADD38C,0.02000*%
%ADD39C,0.01500*%
%ADD40C,0.00600*%
%ADD41C,0.03000*%
%ADD42C,0.02500*%
%ADD43C,0.01000*%
%ADD44C,0.01200*%
%ADD45C,0.02400*%
%ADD46C,0.03500*%
%ADD47C,0.13000*%
%ADD48R,0.05500X0.05500*%
%ADD49C,0.05500*%
%ADD50C,0.06000*%
%ADD51R,0.07000X0.07000*%
%ADD52C,0.07000*%
%ADD53O,0.03000X0.06000*%
%ADD54C,0.02400*%
%ADD55C,0.03937*%
%ADD56C,0.00500*%
%ADD57C,0.00800*%
%ADD58C,0.00200*%
%ADD59C,0.00787*%
%ADD60O,0.03937X0.03937*%
%ADD61C,0.03800*%
D10*
X914000Y317500D02*
D03*
X920000D02*
D03*
X662500Y370000D02*
D03*
X656500D02*
D03*
X920000Y272500D02*
D03*
X914000D02*
D03*
X838400Y337500D02*
D03*
X832400D02*
D03*
X920000Y277500D02*
D03*
X914000D02*
D03*
X920000Y282500D02*
D03*
X914000D02*
D03*
X890000Y390000D02*
D03*
X884000D02*
D03*
X920000Y312500D02*
D03*
X914000D02*
D03*
X920000Y287500D02*
D03*
X914000D02*
D03*
X807500Y445000D02*
D03*
X801500D02*
D03*
X690500Y370000D02*
D03*
X684500D02*
D03*
X677500D02*
D03*
X671500D02*
D03*
X861000Y420000D02*
D03*
X855000D02*
D03*
X790000Y445000D02*
D03*
X784000D02*
D03*
X965000Y322500D02*
D03*
X959000D02*
D03*
X983000Y397500D02*
D03*
X977000D02*
D03*
X983000Y389000D02*
D03*
X977000D02*
D03*
X790000Y337500D02*
D03*
X784000D02*
D03*
X823400Y372500D02*
D03*
X817400D02*
D03*
X800000D02*
D03*
X794000D02*
D03*
X815000Y337500D02*
D03*
X809000D02*
D03*
X826800D02*
D03*
X820800D02*
D03*
X811700Y372500D02*
D03*
X805700D02*
D03*
X835100D02*
D03*
X829100D02*
D03*
X802500Y337500D02*
D03*
X796500D02*
D03*
X917500Y422500D02*
D03*
X911500D02*
D03*
X930000D02*
D03*
X924000D02*
D03*
X942500D02*
D03*
X936500D02*
D03*
X952500Y321000D02*
D03*
X946500D02*
D03*
X955000Y422500D02*
D03*
X949000D02*
D03*
D11*
X864500Y475400D02*
D03*
Y469600D02*
D03*
X839500Y475400D02*
D03*
Y469600D02*
D03*
X859500Y475400D02*
D03*
Y469600D02*
D03*
X849500Y475400D02*
D03*
Y469600D02*
D03*
X833900Y477300D02*
D03*
Y471300D02*
D03*
X844500Y475500D02*
D03*
Y469500D02*
D03*
X959500Y303000D02*
D03*
Y297000D02*
D03*
X954500Y303000D02*
D03*
Y297000D02*
D03*
X949500Y303000D02*
D03*
Y297000D02*
D03*
X944500Y303000D02*
D03*
Y297000D02*
D03*
X644500Y355500D02*
D03*
Y349500D02*
D03*
X652000Y355500D02*
D03*
Y349500D02*
D03*
X657000Y355500D02*
D03*
Y349500D02*
D03*
X854500Y475500D02*
D03*
Y469500D02*
D03*
X694500Y355500D02*
D03*
Y349500D02*
D03*
X699500Y355500D02*
D03*
Y349500D02*
D03*
X909500Y403000D02*
D03*
Y397000D02*
D03*
X874500Y339000D02*
D03*
Y333000D02*
D03*
X850500Y339000D02*
D03*
Y333000D02*
D03*
X903500Y340500D02*
D03*
Y334500D02*
D03*
D12*
X871900Y372500D02*
D03*
X864900D02*
D03*
X885500D02*
D03*
X878500D02*
D03*
X823000Y441000D02*
D03*
X816000D02*
D03*
X886500Y422500D02*
D03*
X879500D02*
D03*
X920500Y323500D02*
D03*
X913500D02*
D03*
X886500Y415000D02*
D03*
X879500D02*
D03*
X823000Y434000D02*
D03*
X816000D02*
D03*
D13*
X824500Y465000D02*
D03*
Y458000D02*
D03*
X600400Y314500D02*
D03*
Y307500D02*
D03*
X987000Y371000D02*
D03*
Y364000D02*
D03*
X832000Y465000D02*
D03*
Y458000D02*
D03*
X893000Y383500D02*
D03*
Y376500D02*
D03*
D14*
X729500Y258000D02*
D03*
Y252000D02*
D03*
X662000Y355500D02*
D03*
Y349500D02*
D03*
X832200Y437000D02*
D03*
Y431000D02*
D03*
X607000Y314000D02*
D03*
Y308000D02*
D03*
X607500Y277831D02*
D03*
Y271831D02*
D03*
X612000Y314000D02*
D03*
Y308000D02*
D03*
X592500Y277831D02*
D03*
Y271831D02*
D03*
X944500Y288000D02*
D03*
Y282000D02*
D03*
X949500Y288000D02*
D03*
Y282000D02*
D03*
X954500Y288000D02*
D03*
Y282000D02*
D03*
X959500Y288000D02*
D03*
Y282000D02*
D03*
X964500Y288000D02*
D03*
Y282000D02*
D03*
X979500Y370500D02*
D03*
Y364500D02*
D03*
X914500Y344000D02*
D03*
Y338000D02*
D03*
X933500Y404600D02*
D03*
Y398600D02*
D03*
X914500Y370500D02*
D03*
Y364500D02*
D03*
X955500Y400500D02*
D03*
Y394500D02*
D03*
X933500Y393000D02*
D03*
Y387000D02*
D03*
X979500Y383000D02*
D03*
Y377000D02*
D03*
X964500Y423000D02*
D03*
Y417000D02*
D03*
X974500Y423000D02*
D03*
Y417000D02*
D03*
X984500Y268000D02*
D03*
Y262000D02*
D03*
X974500Y268000D02*
D03*
Y262000D02*
D03*
X964500Y268000D02*
D03*
Y262000D02*
D03*
X954500Y268000D02*
D03*
Y262000D02*
D03*
X979500Y340500D02*
D03*
Y334500D02*
D03*
D15*
X618000Y277831D02*
D03*
X612000D02*
D03*
X920000Y307500D02*
D03*
X914000D02*
D03*
X603000Y277831D02*
D03*
X597000D02*
D03*
X920000Y302500D02*
D03*
X914000D02*
D03*
X920000Y297500D02*
D03*
X914000D02*
D03*
X920000Y292500D02*
D03*
X914000D02*
D03*
X901500Y442500D02*
D03*
X895500D02*
D03*
X890000Y395000D02*
D03*
X884000D02*
D03*
X876500D02*
D03*
X870500D02*
D03*
X987500Y357500D02*
D03*
X981500D02*
D03*
X872500Y325000D02*
D03*
X866500D02*
D03*
X903500Y346000D02*
D03*
X897500D02*
D03*
D16*
X872000Y407500D02*
D03*
X893500Y369000D02*
D03*
X649500Y375000D02*
D03*
X839500Y327500D02*
D03*
Y420000D02*
D03*
D17*
X861850Y408500D02*
D03*
X842150D02*
D03*
X861850Y457500D02*
D03*
X842150D02*
D03*
D18*
X862500Y442500D02*
D03*
Y437500D02*
D03*
Y432500D02*
D03*
Y427500D02*
D03*
X841500Y442500D02*
D03*
Y437500D02*
D03*
Y432500D02*
D03*
Y427500D02*
D03*
D19*
X852000Y435000D02*
D03*
D20*
X876618Y388740D02*
D03*
Y381260D02*
D03*
X866382Y388740D02*
D03*
Y385000D02*
D03*
Y381260D02*
D03*
D21*
X855700Y382500D02*
D03*
Y372500D02*
D03*
D22*
X866500Y331000D02*
D03*
Y339000D02*
D03*
X857500Y335000D02*
D03*
X896500Y331000D02*
D03*
Y339000D02*
D03*
X887500Y335000D02*
D03*
D23*
X949400Y405200D02*
D03*
Y389800D02*
D03*
X939600Y405200D02*
D03*
Y389800D02*
D03*
D24*
X969500Y400000D02*
D03*
Y389000D02*
D03*
D25*
X823500Y426417D02*
D03*
Y403583D02*
D03*
D26*
X872504Y315401D02*
D03*
Y312960D02*
D03*
Y310519D02*
D03*
Y308078D02*
D03*
Y305637D02*
D03*
Y303196D02*
D03*
Y300756D02*
D03*
Y298314D02*
D03*
Y295874D02*
D03*
Y293433D02*
D03*
Y290992D02*
D03*
Y288551D02*
D03*
Y286110D02*
D03*
Y283669D02*
D03*
D27*
X742000Y240689D02*
D03*
Y264311D02*
D03*
X767000Y240689D02*
D03*
Y264311D02*
D03*
X792000Y240689D02*
D03*
Y264311D02*
D03*
X817000Y240689D02*
D03*
Y264311D02*
D03*
X842000Y240689D02*
D03*
Y264311D02*
D03*
X867000Y240689D02*
D03*
Y264311D02*
D03*
D28*
X717457Y322319D02*
D03*
Y317988D02*
D03*
Y313657D02*
D03*
Y309327D02*
D03*
Y304996D02*
D03*
Y300665D02*
D03*
Y290823D02*
D03*
Y286492D02*
D03*
Y282161D02*
D03*
Y277831D02*
D03*
Y273500D02*
D03*
X624543Y322319D02*
D03*
Y317988D02*
D03*
Y313657D02*
D03*
Y309327D02*
D03*
Y304996D02*
D03*
Y300665D02*
D03*
Y290823D02*
D03*
Y286492D02*
D03*
Y282161D02*
D03*
Y277831D02*
D03*
Y273500D02*
D03*
D29*
X704465Y259130D02*
D03*
Y337870D02*
D03*
X700134Y259130D02*
D03*
Y337870D02*
D03*
X695803Y259130D02*
D03*
Y337870D02*
D03*
X691472Y259130D02*
D03*
Y337870D02*
D03*
X687142Y259130D02*
D03*
Y337870D02*
D03*
X682811Y259130D02*
D03*
Y337870D02*
D03*
X678480Y259130D02*
D03*
Y337870D02*
D03*
X671787Y259130D02*
D03*
Y337870D02*
D03*
X667457Y259130D02*
D03*
Y337870D02*
D03*
X663126Y259130D02*
D03*
Y337870D02*
D03*
X658795Y259130D02*
D03*
Y337870D02*
D03*
X654465Y259130D02*
D03*
Y337870D02*
D03*
X650134Y259130D02*
D03*
Y337870D02*
D03*
X645803Y259130D02*
D03*
Y337870D02*
D03*
X641472Y259130D02*
D03*
Y337870D02*
D03*
X637142Y259130D02*
D03*
Y337870D02*
D03*
D30*
X701118Y308539D02*
D03*
Y301847D02*
D03*
Y295153D02*
D03*
Y288461D02*
D03*
X694425Y308539D02*
D03*
Y301847D02*
D03*
Y295153D02*
D03*
Y288461D02*
D03*
X687732Y321925D02*
D03*
Y315232D02*
D03*
Y281768D02*
D03*
Y275075D02*
D03*
X681039Y321925D02*
D03*
Y315232D02*
D03*
Y281768D02*
D03*
Y275075D02*
D03*
X674346Y321925D02*
D03*
Y315232D02*
D03*
Y281768D02*
D03*
Y275075D02*
D03*
X667654Y321925D02*
D03*
Y315232D02*
D03*
Y281768D02*
D03*
Y275075D02*
D03*
X660961Y321925D02*
D03*
Y315232D02*
D03*
Y281768D02*
D03*
Y275075D02*
D03*
X654268Y321925D02*
D03*
Y315232D02*
D03*
Y281768D02*
D03*
Y275075D02*
D03*
X647575Y308539D02*
D03*
Y301847D02*
D03*
Y295153D02*
D03*
Y288461D02*
D03*
X640882Y308539D02*
D03*
Y301847D02*
D03*
Y295153D02*
D03*
Y288461D02*
D03*
D31*
X610000Y360000D02*
D03*
X629000D02*
D03*
D33*
X710205Y464996D02*
D03*
X629299D02*
D03*
D34*
X693000Y383500D02*
D03*
X688000D02*
D03*
X683000D02*
D03*
X678000D02*
D03*
X673000D02*
D03*
X668000D02*
D03*
X663000D02*
D03*
X658000D02*
D03*
D35*
X807118Y466256D02*
D03*
X804559D02*
D03*
X802000D02*
D03*
X799441D02*
D03*
X796882D02*
D03*
D36*
X969638Y369764D02*
D03*
Y367795D02*
D03*
Y365827D02*
D03*
Y363858D02*
D03*
Y361890D02*
D03*
Y359921D02*
D03*
Y357953D02*
D03*
Y355984D02*
D03*
Y354016D02*
D03*
Y352047D02*
D03*
Y350079D02*
D03*
Y348110D02*
D03*
Y346142D02*
D03*
Y344173D02*
D03*
Y342205D02*
D03*
Y340236D02*
D03*
X924362Y369764D02*
D03*
Y367795D02*
D03*
Y365827D02*
D03*
Y363858D02*
D03*
Y361890D02*
D03*
Y359921D02*
D03*
Y357953D02*
D03*
Y355984D02*
D03*
Y354016D02*
D03*
Y352047D02*
D03*
Y350079D02*
D03*
Y348110D02*
D03*
Y346142D02*
D03*
Y344173D02*
D03*
Y342205D02*
D03*
Y340236D02*
D03*
D37*
X961764Y332362D02*
D03*
Y377638D02*
D03*
X959795Y332362D02*
D03*
Y377638D02*
D03*
X957827Y332362D02*
D03*
Y377638D02*
D03*
X955858Y332362D02*
D03*
Y377638D02*
D03*
X953890Y332362D02*
D03*
Y377638D02*
D03*
X951921Y332362D02*
D03*
Y377638D02*
D03*
X949953Y332362D02*
D03*
Y377638D02*
D03*
X947984Y332362D02*
D03*
Y377638D02*
D03*
X946016Y332362D02*
D03*
Y377638D02*
D03*
X944047Y332362D02*
D03*
Y377638D02*
D03*
X942079Y332362D02*
D03*
Y377638D02*
D03*
X940110Y332362D02*
D03*
Y377638D02*
D03*
X938142Y332362D02*
D03*
Y377638D02*
D03*
X936173Y332362D02*
D03*
Y377638D02*
D03*
X934205Y332362D02*
D03*
Y377638D02*
D03*
X932236Y332362D02*
D03*
Y377638D02*
D03*
D60*
X1001200Y264700D02*
D03*
X1001600Y457100D02*
D03*
X534900Y471800D02*
D03*
D61*
X719750Y243550D02*
D03*
M02*
