%FSLAX25Y25*%
%MOIN*%
G70*
G01*
G75*
%ADD10R,0.03500X0.03200*%
%ADD11R,0.03200X0.03000*%
%ADD12R,0.04500X0.05000*%
%ADD13R,0.05000X0.04500*%
%ADD14R,0.03200X0.03500*%
%ADD15R,0.03000X0.03200*%
%ADD16C,0.03200*%
%ADD17R,0.08200X0.11000*%
%ADD18R,0.07000X0.02500*%
%ADD19C,0.01000*%
%ADD20R,0.04000X0.02000*%
%ADD21R,0.08000X0.05500*%
%ADD22R,0.05000X0.04000*%
%ADD23R,0.04500X0.06000*%
%ADD24R,0.07000X0.05000*%
%ADD25R,0.06000X0.06000*%
%ADD26R,0.08500X0.01200*%
%ADD27R,0.08000X0.10000*%
%ADD28R,0.09000X0.03000*%
%ADD29R,0.03000X0.09000*%
%ADD30R,0.04000X0.04000*%
%ADD31R,0.13000X0.04000*%
%ADD32C,0.04000*%
%ADD33R,0.08000X0.13000*%
%ADD34R,0.04000X0.11000*%
%ADD35R,0.01600X0.07000*%
%ADD36R,0.06000X0.01000*%
%ADD37R,0.01000X0.06000*%
%ADD38C,0.02000*%
%ADD39C,0.01500*%
%ADD40C,0.00600*%
%ADD41C,0.03000*%
%ADD42C,0.02500*%
%ADD43C,0.01000*%
%ADD44C,0.01200*%
%ADD45C,0.02400*%
%ADD46C,0.03500*%
%ADD47C,0.13000*%
%ADD48R,0.05500X0.05500*%
%ADD49C,0.05500*%
%ADD50C,0.06000*%
%ADD51R,0.07000X0.07000*%
%ADD52C,0.07000*%
%ADD53O,0.03000X0.06000*%
%ADD54C,0.02400*%
%ADD55C,0.03937*%
%ADD56C,0.00500*%
%ADD57C,0.00800*%
%ADD58C,0.00200*%
%ADD59C,0.00787*%
G36*
X917700Y243400D02*
X912500D01*
X915100Y246000D01*
X917700Y243400D01*
D02*
G37*
G36*
X675000Y242900D02*
X672400Y240300D01*
Y245500D01*
X675000Y242900D01*
D02*
G37*
G36*
X635000D02*
X632400Y240300D01*
Y245500D01*
X635000Y242900D01*
D02*
G37*
G36*
X915500Y440000D02*
X912900Y442600D01*
X918100D01*
X915500Y440000D01*
D02*
G37*
G36*
X894100Y357000D02*
X891500Y359600D01*
X894100Y362200D01*
Y357000D01*
D02*
G37*
G36*
X782500Y350400D02*
X779900Y347800D01*
Y353000D01*
X782500Y350400D01*
D02*
G37*
D40*
X622000Y473000D02*
G03*
X622000Y473000I-7500J0D01*
G01*
X622500Y244500D02*
G03*
X622500Y244500I-7500J0D01*
G01*
X1009000D02*
G03*
X1009000Y244500I-7500J0D01*
G01*
Y473000D02*
G03*
X1009000Y473000I-7500J0D01*
G01*
X875140Y407500D02*
G03*
X875140Y407500I-3140J0D01*
G01*
X896640Y369000D02*
G03*
X896640Y369000I-3140J0D01*
G01*
X652640Y375000D02*
G03*
X652640Y375000I-3140J0D01*
G01*
X842640Y327500D02*
G03*
X842640Y327500I-3140J0D01*
G01*
X854000Y425000D02*
G03*
X850000Y425000I-2000J450D01*
G01*
X862000Y388780D02*
G03*
X862000Y388780I-500J0D01*
G01*
X871040Y331020D02*
G03*
X871040Y331020I-500J0D01*
G01*
X936500Y408500D02*
G03*
X936500Y408500I-500J0D01*
G01*
X638803Y252000D02*
G03*
X638803Y252000I-1803J0D01*
G01*
X619500Y372400D02*
G03*
X607470Y363007I0J-12400D01*
G01*
X631530D02*
G03*
X619500Y372400I-12030J-3007D01*
G01*
X607470Y356993D02*
G03*
X631530Y356993I12030J3007D01*
G01*
X911500Y315000D02*
X922500D01*
X911500D02*
Y320000D01*
X922500D01*
Y315000D02*
Y320000D01*
X862000Y478000D02*
X867000D01*
X862000Y467000D02*
Y478000D01*
Y467000D02*
X867000D01*
Y478000D01*
X862000Y467700D02*
X867000D01*
X837000Y478000D02*
X842000D01*
X837000Y467000D02*
Y478000D01*
Y467000D02*
X842000D01*
Y478000D01*
X837000Y467700D02*
X842000D01*
X857000Y478000D02*
X862000D01*
X857000Y467000D02*
Y478000D01*
Y467000D02*
X862000D01*
Y478000D01*
X857000Y467700D02*
X862000D01*
X847000Y478000D02*
X852000D01*
X847000Y467000D02*
Y478000D01*
Y467000D02*
X852000D01*
Y478000D01*
X847000Y467700D02*
X852000D01*
X861900Y369000D02*
Y376000D01*
Y369000D02*
X874900D01*
Y375500D01*
Y376000D01*
X861900D02*
X874900D01*
X888500Y369000D02*
Y376000D01*
X875500D02*
X888500D01*
X875500Y369500D02*
Y376000D01*
Y369000D02*
Y369500D01*
Y369000D02*
X888500D01*
X821000Y468000D02*
X828000D01*
X821000Y455000D02*
Y468000D01*
Y455000D02*
X827500D01*
X828000D01*
Y468000D01*
X826000Y437500D02*
Y444500D01*
X813000D02*
X826000D01*
X813000Y438000D02*
Y444500D01*
Y437500D02*
Y438000D01*
Y437500D02*
X826000D01*
X596900Y304500D02*
X603900D01*
Y317500D01*
X597400D02*
X603900D01*
X596900D02*
X597400D01*
X596900Y304500D02*
Y317500D01*
X876500Y419000D02*
Y426000D01*
Y419000D02*
X889500D01*
Y425500D01*
Y426000D01*
X876500D02*
X889500D01*
X983500Y374000D02*
X990500D01*
X983500Y361000D02*
Y374000D01*
Y361000D02*
X990000D01*
X990500D01*
Y374000D01*
X828500Y455000D02*
X835500D01*
Y468000D01*
X829000D02*
X835500D01*
X828500D02*
X829000D01*
X828500Y455000D02*
Y468000D01*
X923500Y320000D02*
Y327000D01*
X910500D02*
X923500D01*
X910500Y320500D02*
Y327000D01*
Y320000D02*
Y320500D01*
Y320000D02*
X923500D01*
X889500Y373500D02*
X896500D01*
Y386500D01*
X890000D02*
X896500D01*
X889500D02*
X890000D01*
X889500Y373500D02*
Y386500D01*
X727000Y249500D02*
X732000D01*
Y260500D01*
X727000D02*
X732000D01*
X727000Y249500D02*
Y260500D01*
X654000Y367500D02*
Y372500D01*
Y367500D02*
X665000D01*
Y372500D01*
X654000D02*
X665000D01*
X659500Y358000D02*
X664500D01*
X659500Y347000D02*
Y358000D01*
Y347000D02*
X664500D01*
Y358000D01*
X911500Y270000D02*
Y275000D01*
Y270000D02*
X922500D01*
Y275000D01*
X911500D02*
X922500D01*
X829900Y335000D02*
Y340000D01*
Y335000D02*
X840900D01*
Y340000D01*
X829900D02*
X840900D01*
X911500Y275000D02*
Y280000D01*
Y275000D02*
X922500D01*
Y280000D01*
X911500D02*
X922500D01*
Y285000D01*
X911500D02*
X922500D01*
X911500Y280000D02*
Y285000D01*
Y280000D02*
X922500D01*
X829700Y428500D02*
X834700D01*
Y439500D01*
X829700D02*
X834700D01*
X829700Y428500D02*
Y439500D01*
X892500Y387500D02*
Y392500D01*
X881500D02*
X892500D01*
X881500Y387500D02*
Y392500D01*
Y387500D02*
X892500D01*
X922500Y310000D02*
Y315000D01*
X911500D02*
X922500D01*
X911500Y310000D02*
Y315000D01*
Y310000D02*
X922500D01*
Y285000D02*
Y290000D01*
X911500D02*
X922500D01*
X911500Y285000D02*
Y290000D01*
Y285000D02*
X922500D01*
X799000Y442500D02*
Y447500D01*
Y442500D02*
X810000D01*
Y447500D01*
X799000D02*
X810000D01*
X682000Y367500D02*
Y372500D01*
Y367500D02*
X693000D01*
Y372500D01*
X682000D02*
X693000D01*
X680000Y367500D02*
Y372500D01*
X669000D02*
X680000D01*
X669000Y367500D02*
Y372500D01*
Y367500D02*
X680000D01*
X604500Y305500D02*
X609500D01*
Y316500D01*
X604500D02*
X609500D01*
X604500Y305500D02*
Y316500D01*
X605000Y269331D02*
X610000D01*
Y280331D01*
X605000D02*
X610000D01*
X605000Y269331D02*
Y280331D01*
X609500Y305500D02*
X614500D01*
Y316500D01*
X609500D02*
X614500D01*
X609500Y305500D02*
Y316500D01*
X863500Y417500D02*
Y422500D01*
X852500D02*
X863500D01*
X852500Y417500D02*
Y422500D01*
Y417500D02*
X863500D01*
X590000Y269331D02*
X595000D01*
Y280331D01*
X590000D02*
X595000D01*
X590000Y269331D02*
Y280331D01*
X942000Y290500D02*
X947000D01*
X942000Y279500D02*
Y290500D01*
Y279500D02*
X947000D01*
Y290500D01*
X781500Y442500D02*
Y447500D01*
Y442500D02*
X792500D01*
Y447500D01*
X781500D02*
X792500D01*
X947000Y290500D02*
X952000D01*
X947000Y279500D02*
Y290500D01*
Y279500D02*
X952000D01*
Y290500D01*
X957000D01*
X952000Y279500D02*
Y290500D01*
Y279500D02*
X957000D01*
Y290500D01*
X962000D01*
X957000Y279500D02*
Y290500D01*
Y279500D02*
X962000D01*
Y290500D01*
X967000D01*
X962000Y279500D02*
Y290500D01*
Y279500D02*
X967000D01*
Y290500D01*
X977000Y373000D02*
X982000D01*
X977000Y362000D02*
Y373000D01*
Y362000D02*
X982000D01*
Y373000D01*
X912000Y346500D02*
X917000D01*
X912000Y335500D02*
Y346500D01*
Y335500D02*
X917000D01*
Y346500D01*
X931000Y396100D02*
X936000D01*
Y407100D01*
X931000D02*
X936000D01*
X931000Y396100D02*
Y407100D01*
X912000Y373000D02*
X917000D01*
X912000Y362000D02*
Y373000D01*
Y362000D02*
X917000D01*
Y373000D01*
X953000Y403000D02*
X958000D01*
X953000Y392000D02*
Y403000D01*
Y392000D02*
X958000D01*
Y403000D01*
X956500Y320000D02*
Y325000D01*
Y320000D02*
X967500D01*
Y325000D01*
X956500D02*
X967500D01*
X931000Y384500D02*
X936000D01*
Y395500D01*
X931000D02*
X936000D01*
X931000Y384500D02*
Y395500D01*
X985500Y395000D02*
Y400000D01*
X974500D02*
X985500D01*
X974500Y395000D02*
Y400000D01*
Y395000D02*
X985500D01*
Y386500D02*
Y391500D01*
X974500D02*
X985500D01*
X974500Y386500D02*
Y391500D01*
Y386500D02*
X985500D01*
X977000Y374500D02*
X982000D01*
Y385500D01*
X977000D02*
X982000D01*
X977000Y374500D02*
Y385500D01*
X781500Y335000D02*
Y340000D01*
Y335000D02*
X792500D01*
Y340000D01*
X781500D02*
X792500D01*
X814900Y370000D02*
Y375000D01*
Y370000D02*
X825900D01*
Y375000D01*
X814900D02*
X825900D01*
X791500Y370000D02*
Y375000D01*
Y370000D02*
X802500D01*
Y375000D01*
X791500D02*
X802500D01*
X806500Y335000D02*
Y340000D01*
Y335000D02*
X817500D01*
Y340000D01*
X806500D02*
X817500D01*
X829300Y335000D02*
Y340000D01*
X818300D02*
X829300D01*
X818300Y335000D02*
Y340000D01*
Y335000D02*
X829300D01*
X814200Y370000D02*
Y375000D01*
X803200D02*
X814200D01*
X803200Y370000D02*
Y375000D01*
Y370000D02*
X814200D01*
X837600D02*
Y375000D01*
X826600D02*
X837600D01*
X826600Y370000D02*
Y375000D01*
Y370000D02*
X837600D01*
X805000Y335000D02*
Y340000D01*
X794000D02*
X805000D01*
X794000Y335000D02*
Y340000D01*
Y335000D02*
X805000D01*
X920000Y420000D02*
Y425000D01*
X909000D02*
X920000D01*
X909000Y420000D02*
Y425000D01*
Y420000D02*
X920000D01*
X932500D02*
Y425000D01*
X921500D02*
X932500D01*
X921500Y420000D02*
Y425000D01*
Y420000D02*
X932500D01*
X945000D02*
Y425000D01*
X934000D02*
X945000D01*
X934000Y420000D02*
Y425000D01*
Y420000D02*
X945000D01*
X962000Y414500D02*
X967000D01*
Y425500D01*
X962000D02*
X967000D01*
X962000Y414500D02*
Y425500D01*
X972000Y414500D02*
X977000D01*
Y425500D01*
X972000D02*
X977000D01*
X972000Y414500D02*
Y425500D01*
X982000Y270500D02*
X987000D01*
X982000Y259500D02*
Y270500D01*
Y259500D02*
X987000D01*
Y270500D01*
X972000D02*
X977000D01*
X972000Y259500D02*
Y270500D01*
Y259500D02*
X977000D01*
Y270500D01*
X962000D02*
X967000D01*
X962000Y259500D02*
Y270500D01*
Y259500D02*
X967000D01*
Y270500D01*
X952000D02*
X957000D01*
X952000Y259500D02*
Y270500D01*
Y259500D02*
X957000D01*
Y270500D01*
X944000Y318500D02*
Y323500D01*
Y318500D02*
X955000D01*
Y323500D01*
X944000D02*
X955000D01*
X977000Y332000D02*
X982000D01*
Y343000D01*
X977000D02*
X982000D01*
X977000Y332000D02*
Y343000D01*
X615000Y275731D02*
Y276931D01*
Y278831D02*
Y279931D01*
X614400Y278831D02*
X615000D01*
X614400Y276931D02*
Y278831D01*
Y276931D02*
X615600D01*
Y278831D01*
X614400D02*
X615600D01*
X609500Y275331D02*
Y280331D01*
Y275331D02*
X620500D01*
Y280331D01*
X609500D02*
X620500D01*
X831800Y474300D02*
X833000D01*
X834900D02*
X836000D01*
X834900D02*
Y474900D01*
X833000D02*
X834900D01*
X833000Y473700D02*
Y474900D01*
Y473700D02*
X834900D01*
Y474900D01*
X831400Y479800D02*
X836400D01*
X831400Y468800D02*
Y479800D01*
Y468800D02*
X836400D01*
Y479800D01*
X917000Y308400D02*
Y309600D01*
Y305400D02*
Y306500D01*
X917600D01*
Y308400D01*
X916400D02*
X917600D01*
X916400Y306500D02*
Y308400D01*
Y306500D02*
X917600D01*
X922500Y305000D02*
Y310000D01*
X911500D02*
X922500D01*
X911500Y305000D02*
Y310000D01*
Y305000D02*
X922500D01*
X845400Y472500D02*
X846600D01*
X842400D02*
X843500D01*
Y471900D02*
Y472500D01*
Y471900D02*
X845400D01*
Y473100D01*
X843500D02*
X845400D01*
X843500Y471900D02*
Y473100D01*
X842000Y467000D02*
X847000D01*
Y478000D01*
X842000D02*
X847000D01*
X842000Y467000D02*
Y478000D01*
X960400Y300000D02*
X961600D01*
X957400D02*
X958500D01*
Y299400D02*
Y300000D01*
Y299400D02*
X960400D01*
Y300600D01*
X958500D02*
X960400D01*
X958500Y299400D02*
Y300600D01*
X957000Y294500D02*
X962000D01*
Y305500D01*
X957000D02*
X962000D01*
X957000Y294500D02*
Y305500D01*
X955400Y300000D02*
X956600D01*
X952400D02*
X953500D01*
Y299400D02*
Y300000D01*
Y299400D02*
X955400D01*
Y300600D01*
X953500D02*
X955400D01*
X953500Y299400D02*
Y300600D01*
X952000Y294500D02*
X957000D01*
Y305500D01*
X952000D02*
X957000D01*
X952000Y294500D02*
Y305500D01*
X950400Y300000D02*
X951600D01*
X947400D02*
X948500D01*
Y299400D02*
Y300000D01*
Y299400D02*
X950400D01*
Y300600D01*
X948500D02*
X950400D01*
X948500Y299400D02*
Y300600D01*
X947000Y294500D02*
X952000D01*
Y305500D01*
X947000D02*
X952000D01*
X947000Y294500D02*
Y305500D01*
X945400Y300000D02*
X946600D01*
X942400D02*
X943500D01*
Y299400D02*
Y300000D01*
Y299400D02*
X945400D01*
Y300600D01*
X943500D02*
X945400D01*
X943500Y299400D02*
Y300600D01*
X942000Y294500D02*
X947000D01*
Y305500D01*
X942000D02*
X947000D01*
X942000Y294500D02*
Y305500D01*
X600000Y275731D02*
Y276931D01*
Y278831D02*
Y279931D01*
X599400Y278831D02*
X600000D01*
X599400Y276931D02*
Y278831D01*
Y276931D02*
X600600D01*
Y278831D01*
X599400D02*
X600600D01*
X594500Y275331D02*
Y280331D01*
Y275331D02*
X605500D01*
Y280331D01*
X594500D02*
X605500D01*
X642400Y352500D02*
X643600D01*
X645500D02*
X646600D01*
X645500D02*
Y353100D01*
X643600D02*
X645500D01*
X643600Y351900D02*
Y353100D01*
Y351900D02*
X645500D01*
Y353100D01*
X642000Y358000D02*
X647000D01*
X642000Y347000D02*
Y358000D01*
Y347000D02*
X647000D01*
Y358000D01*
X649900Y352500D02*
X651100D01*
X653000D02*
X654100D01*
X653000D02*
Y353100D01*
X651100D02*
X653000D01*
X651100Y351900D02*
Y353100D01*
Y351900D02*
X653000D01*
Y353100D01*
X649500Y358000D02*
X654500D01*
X649500Y347000D02*
Y358000D01*
Y347000D02*
X654500D01*
Y358000D01*
X654900Y352500D02*
X656100D01*
X658000D02*
X659100D01*
X658000D02*
Y353100D01*
X656100D02*
X658000D01*
X656100Y351900D02*
Y353100D01*
Y351900D02*
X658000D01*
Y353100D01*
X654500Y358000D02*
X659500D01*
X654500Y347000D02*
Y358000D01*
Y347000D02*
X659500D01*
Y358000D01*
X852400Y472500D02*
X853600D01*
X855500D02*
X856600D01*
X855500D02*
Y473100D01*
X853600D02*
X855500D01*
X853600Y471900D02*
Y473100D01*
Y471900D02*
X855500D01*
Y473100D01*
X852000Y478000D02*
X857000D01*
X852000Y467000D02*
Y478000D01*
Y467000D02*
X857000D01*
Y478000D01*
X692400Y352500D02*
X693600D01*
X695500D02*
X696600D01*
X695500D02*
Y353100D01*
X693600D02*
X695500D01*
X693600Y351900D02*
Y353100D01*
Y351900D02*
X695500D01*
Y353100D01*
X692000Y358000D02*
X697000D01*
X692000Y347000D02*
Y358000D01*
Y347000D02*
X697000D01*
Y358000D01*
X697400Y352500D02*
X698600D01*
X700500D02*
X701600D01*
X700500D02*
Y353100D01*
X698600D02*
X700500D01*
X698600Y351900D02*
Y353100D01*
Y351900D02*
X700500D01*
Y353100D01*
X697000Y358000D02*
X702000D01*
X697000Y347000D02*
Y358000D01*
Y347000D02*
X702000D01*
Y358000D01*
X917000Y300400D02*
Y301600D01*
Y303500D02*
Y304600D01*
X916400Y303500D02*
X917000D01*
X916400Y301600D02*
Y303500D01*
Y301600D02*
X917600D01*
Y303500D01*
X916400D02*
X917600D01*
X911500Y300000D02*
Y305000D01*
Y300000D02*
X922500D01*
Y305000D01*
X911500D02*
X922500D01*
X917000Y295400D02*
Y296600D01*
Y298500D02*
Y299600D01*
X916400Y298500D02*
X917000D01*
X916400Y296600D02*
Y298500D01*
Y296600D02*
X917600D01*
Y298500D01*
X916400D02*
X917600D01*
X911500Y295000D02*
Y300000D01*
Y295000D02*
X922500D01*
Y300000D01*
X911500D02*
X922500D01*
X917000Y290400D02*
Y291600D01*
Y293500D02*
Y294600D01*
X916400Y293500D02*
X917000D01*
X916400Y291600D02*
Y293500D01*
Y291600D02*
X917600D01*
Y293500D01*
X916400D02*
X917600D01*
X911500Y290000D02*
Y295000D01*
Y290000D02*
X922500D01*
Y295000D01*
X911500D02*
X922500D01*
X898500Y443400D02*
Y444600D01*
Y440400D02*
Y441500D01*
X899100D01*
Y443400D01*
X897900D02*
X899100D01*
X897900Y441500D02*
Y443400D01*
Y441500D02*
X899100D01*
X904000Y440000D02*
Y445000D01*
X893000D02*
X904000D01*
X893000Y440000D02*
Y445000D01*
Y440000D02*
X904000D01*
X887000Y392900D02*
Y394100D01*
Y396000D02*
Y397100D01*
X886400Y396000D02*
X887000D01*
X886400Y394100D02*
Y396000D01*
Y394100D02*
X887600D01*
Y396000D01*
X886400D02*
X887600D01*
X881500Y392500D02*
Y397500D01*
Y392500D02*
X892500D01*
Y397500D01*
X881500D02*
X892500D01*
X873500Y392900D02*
Y394100D01*
Y396000D02*
Y397100D01*
X872900Y396000D02*
X873500D01*
X872900Y394100D02*
Y396000D01*
Y394100D02*
X874100D01*
Y396000D01*
X872900D02*
X874100D01*
X868000Y392500D02*
Y397500D01*
Y392500D02*
X879000D01*
Y397500D01*
X868000D02*
X879000D01*
X910400Y400000D02*
X911600D01*
X907400D02*
X908500D01*
Y399400D02*
Y400000D01*
Y399400D02*
X910400D01*
Y400600D01*
X908500D02*
X910400D01*
X908500Y399400D02*
Y400600D01*
X907000Y394500D02*
X912000D01*
Y405500D01*
X907000D02*
X912000D01*
X907000Y394500D02*
Y405500D01*
X984500Y358400D02*
Y359600D01*
Y355400D02*
Y356500D01*
X985100D01*
Y358400D01*
X983900D02*
X985100D01*
X983900Y356500D02*
Y358400D01*
Y356500D02*
X985100D01*
X990000Y355000D02*
Y360000D01*
X979000D02*
X990000D01*
X979000Y355000D02*
Y360000D01*
Y355000D02*
X990000D01*
X875400Y336000D02*
X876600D01*
X872400D02*
X873500D01*
Y335400D02*
Y336000D01*
Y335400D02*
X875400D01*
Y336600D01*
X873500D02*
X875400D01*
X873500Y335400D02*
Y336600D01*
X872000Y330500D02*
X877000D01*
Y341500D01*
X872000D02*
X877000D01*
X872000Y330500D02*
Y341500D01*
X869500Y322900D02*
Y324100D01*
Y326000D02*
Y327100D01*
X868900Y326000D02*
X869500D01*
X868900Y324100D02*
Y326000D01*
Y324100D02*
X870100D01*
Y326000D01*
X868900D02*
X870100D01*
X864000Y322500D02*
Y327500D01*
Y322500D02*
X875000D01*
Y327500D01*
X864000D02*
X875000D01*
X844000Y416500D02*
X860000D01*
X844000Y400500D02*
X860000D01*
X849500Y411000D02*
X854500Y408500D01*
X849500Y406000D02*
X854500Y408500D01*
X849500Y406000D02*
Y411000D01*
X854500Y404750D02*
Y412250D01*
X843500Y415500D02*
X860500D01*
X861500Y414500D01*
X843500D02*
Y415500D01*
Y401500D02*
Y402500D01*
Y401500D02*
X860500D01*
X861500Y402500D01*
X866500Y401500D02*
Y415500D01*
X867000Y401500D02*
Y415500D01*
X867500Y401500D02*
Y415500D01*
X868000Y401500D02*
Y415500D01*
X844000Y445000D02*
X860000D01*
X844000Y425000D02*
X860000D01*
X863000Y382000D02*
Y391000D01*
X880000D01*
Y379000D02*
Y391000D01*
X863000Y379000D02*
X880000D01*
X863000D02*
Y382000D01*
X850200Y386500D02*
X861200D01*
X850200Y368500D02*
Y386500D01*
Y368500D02*
X861200D01*
Y386500D01*
X851700Y378500D02*
X852700Y376500D01*
X853700Y378500D01*
X854700Y376500D01*
X855700Y378500D01*
X856700Y376500D01*
X857700Y378500D01*
X858700Y376500D01*
X859700Y378500D01*
X859240Y342000D02*
X864760D01*
X859240Y338940D02*
Y342000D01*
Y328000D02*
Y331060D01*
Y328000D02*
X864760D01*
X951000Y394100D02*
Y400900D01*
X943100Y387300D02*
X945900D01*
X943100Y407700D02*
X945900D01*
X938000Y394100D02*
Y400900D01*
X965500Y403000D02*
X973500D01*
X965500Y386000D02*
Y403000D01*
Y386000D02*
X973500D01*
Y403000D01*
X827437Y403189D02*
X835311Y411063D01*
Y418937D01*
X827437Y426811D02*
X835311Y418937D01*
X819563Y426811D02*
X827437D01*
X811689Y418937D02*
X819563Y426811D01*
X811689Y411063D02*
Y418937D01*
Y411063D02*
X819563Y403189D01*
X827437D01*
X878606Y282448D02*
Y284889D01*
X881047Y283669D01*
X878606Y282448D02*
X881047Y283669D01*
X904236Y277330D02*
Y321740D01*
X780969D02*
X904236D01*
X780969Y277330D02*
Y321740D01*
Y277330D02*
X904236D01*
X904929Y449571D02*
Y483429D01*
X871071D02*
X904929D01*
X871071Y449571D02*
Y483429D01*
Y449571D02*
X904929D01*
X734913Y240689D02*
Y264311D01*
Y240689D02*
X749087D01*
Y264311D01*
X734913D02*
X749087D01*
X774087Y240689D02*
Y264311D01*
X759913D02*
X774087D01*
X759913Y240689D02*
Y264311D01*
Y240689D02*
X774087D01*
X799087D02*
Y264311D01*
X784913D02*
X799087D01*
X784913Y240689D02*
Y264311D01*
Y240689D02*
X799087D01*
X824087D02*
Y264311D01*
X809913D02*
X824087D01*
X809913Y240689D02*
Y264311D01*
Y240689D02*
X824087D01*
X849087D02*
Y264311D01*
X834913D02*
X849087D01*
X834913Y240689D02*
Y264311D01*
Y240689D02*
X849087D01*
X874087D02*
Y264311D01*
X859913D02*
X874087D01*
X859913Y240689D02*
Y264311D01*
Y240689D02*
X874087D01*
X990500Y428000D02*
Y438000D01*
X910500D02*
X990500D01*
X910500Y428000D02*
Y438000D01*
Y428000D02*
X990500D01*
Y248000D02*
Y258000D01*
X910500D02*
X990500D01*
X910500Y248000D02*
Y258000D01*
Y248000D02*
X990500D01*
X647000Y237500D02*
Y247500D01*
X637000Y237500D02*
Y247500D01*
Y237500D02*
X667000D01*
Y247500D01*
X637000D02*
X667000D01*
X687000Y237500D02*
Y247500D01*
X677000Y237500D02*
Y247500D01*
Y237500D02*
X707000D01*
Y247500D01*
X677000D02*
X707000D01*
X717457Y259130D02*
Y337870D01*
X624543D02*
X717457D01*
X624543Y259130D02*
Y337870D01*
Y259130D02*
X717457D01*
X908500Y449784D02*
Y485217D01*
Y449784D02*
X988500D01*
Y485217D01*
X958500D02*
X988500D01*
X958500Y482854D02*
Y485217D01*
X938500Y482854D02*
X958500D01*
X938500D02*
Y485217D01*
X908500D02*
X938500D01*
X834500Y343600D02*
Y366400D01*
X784500D02*
X834500D01*
X784500Y343600D02*
Y366400D01*
Y343600D02*
X834500D01*
X602500Y345500D02*
X607500D01*
X605000Y343000D02*
Y348000D01*
X632500Y347000D02*
Y356500D01*
X609000Y347000D02*
X632500D01*
X606500Y349500D02*
X609000Y347000D01*
X606500Y349500D02*
Y356500D01*
Y363500D02*
Y370500D01*
X609000Y373000D01*
X632500D01*
Y363500D02*
Y373000D01*
X726409Y277106D02*
Y477894D01*
X777591D01*
Y277106D02*
Y477894D01*
X726409Y277106D02*
X777591D01*
X645756Y485272D02*
Y493146D01*
X705598D01*
Y485272D02*
Y493146D01*
X631661Y381335D02*
X653000D01*
Y392161D01*
X698000D01*
Y383500D02*
Y392161D01*
Y383500D02*
X707842D01*
Y484878D01*
X631661D02*
X707842D01*
X631661Y381335D02*
Y484878D01*
D43*
X567902Y321799D02*
Y317800D01*
X573900D01*
Y321799D01*
X570901Y317800D02*
Y319799D01*
X573900Y323798D02*
X567902D01*
X573900Y327797D01*
X567902D01*
X570901Y329796D02*
Y333795D01*
X568902Y339793D02*
X567902Y338793D01*
Y336794D01*
X568902Y335794D01*
X572900D01*
X573900Y336794D01*
Y338793D01*
X572900Y339793D01*
X573900Y345791D02*
Y341792D01*
X569901Y345791D01*
X568902D01*
X567902Y344791D01*
Y342792D01*
X568902Y341792D01*
Y347790D02*
X567902Y348790D01*
Y350789D01*
X568902Y351789D01*
X572900D01*
X573900Y350789D01*
Y348790D01*
X572900Y347790D01*
X568902D01*
Y353788D02*
X567902Y354788D01*
Y356787D01*
X568902Y357787D01*
X572900D01*
X573900Y356787D01*
Y354788D01*
X572900Y353788D01*
X568902D01*
X574900Y359786D02*
Y363785D01*
X573900Y365785D02*
X567902D01*
Y368783D01*
X568902Y369783D01*
X570901D01*
X571901Y368783D01*
Y365785D01*
Y367784D02*
X573900Y369783D01*
Y371782D02*
X569901D01*
X567902Y373782D01*
X569901Y375781D01*
X573900D01*
X570901D01*
Y371782D01*
X573900Y381779D02*
Y377781D01*
X569901Y381779D01*
X568902D01*
X567902Y380780D01*
Y378780D01*
X568902Y377781D01*
X580401Y308500D02*
X583400D01*
X584400Y309500D01*
X583400Y310499D01*
X584400Y311499D01*
X583400Y312499D01*
X580401D01*
Y314498D02*
X583400D01*
X584400Y315498D01*
X583400Y316497D01*
X584400Y317497D01*
X583400Y318497D01*
X580401D01*
Y320496D02*
X583400D01*
X584400Y321496D01*
X583400Y322496D01*
X584400Y323495D01*
X583400Y324495D01*
X580401D01*
X584400Y326494D02*
X583400D01*
Y327494D01*
X584400D01*
Y326494D01*
Y334492D02*
Y332492D01*
X583400Y331493D01*
X581401D01*
X580401Y332492D01*
Y334492D01*
X581401Y335491D01*
X582401D01*
Y331493D01*
X578402Y341489D02*
X584400D01*
Y338490D01*
X583400Y337491D01*
X581401D01*
X580401Y338490D01*
Y341489D01*
Y344488D02*
Y346488D01*
X581401Y347487D01*
X584400D01*
Y344488D01*
X583400Y343489D01*
X582401Y344488D01*
Y347487D01*
X579402Y349487D02*
X578402Y350486D01*
Y352486D01*
X579402Y353485D01*
X580401D01*
X581401Y352486D01*
Y351486D01*
Y352486D01*
X582401Y353485D01*
X583400D01*
X584400Y352486D01*
Y350486D01*
X583400Y349487D01*
X578402Y359484D02*
X579402Y357484D01*
X581401Y355485D01*
X583400D01*
X584400Y356485D01*
Y358484D01*
X583400Y359484D01*
X582401D01*
X581401Y358484D01*
Y355485D01*
X578402Y365482D02*
Y361483D01*
X581401D01*
X580401Y363482D01*
Y364482D01*
X581401Y365482D01*
X583400D01*
X584400Y364482D01*
Y362483D01*
X583400Y361483D01*
X584400Y367481D02*
X583400D01*
Y368481D01*
X584400D01*
Y367481D01*
X580401Y376478D02*
Y373479D01*
X581401Y372479D01*
X583400D01*
X584400Y373479D01*
Y376478D01*
Y379477D02*
Y381476D01*
X583400Y382476D01*
X581401D01*
X580401Y381476D01*
Y379477D01*
X581401Y378477D01*
X583400D01*
X584400Y379477D01*
Y384475D02*
X580401D01*
Y385475D01*
X581401Y386475D01*
X584400D01*
X581401D01*
X580401Y387474D01*
X581401Y388474D01*
X584400D01*
D56*
X842640Y420000D02*
G03*
X842640Y420000I-3140J0D01*
G01*
X876500Y411500D02*
Y418500D01*
Y411500D02*
X889500D01*
Y418000D01*
Y418500D01*
X876500D02*
X889500D01*
X826000Y430500D02*
Y437500D01*
X813000D02*
X826000D01*
X813000Y431000D02*
Y437500D01*
Y430500D02*
Y431000D01*
Y430500D02*
X826000D01*
X957500Y420000D02*
Y425000D01*
X946500D02*
X957500D01*
X946500Y420000D02*
Y425000D01*
Y420000D02*
X957500D01*
X848000Y330500D02*
X853000D01*
Y341500D01*
X848000D02*
X853000D01*
X848000Y330500D02*
Y341500D01*
X901000Y343000D02*
X906000D01*
X901000Y332000D02*
Y343000D01*
Y332000D02*
X906000D01*
Y343000D01*
Y343500D02*
Y348500D01*
X895000D02*
X906000D01*
X895000Y343500D02*
Y348500D01*
Y343500D02*
X906000D01*
X927999Y318499D02*
X927499Y318999D01*
X926500D01*
X926000Y318499D01*
Y316500D01*
X926500Y316000D01*
X927499D01*
X927999Y316500D01*
X930499Y316000D02*
Y318999D01*
X928999Y317499D01*
X930998D01*
X933498Y316000D02*
Y318999D01*
X931998Y317499D01*
X933997D01*
X899001Y428000D02*
X902000D01*
Y429999D01*
X899001Y432998D02*
Y430999D01*
X902000D01*
Y432998D01*
X900500Y430999D02*
Y431999D01*
X899001Y433998D02*
X902000D01*
Y435498D01*
X901500Y435997D01*
X899501D01*
X899001Y435498D01*
Y433998D01*
X902000Y438497D02*
X899001D01*
X900500Y436997D01*
Y438996D01*
X879001Y428000D02*
X882000D01*
Y429999D01*
X879001Y432998D02*
Y430999D01*
X882000D01*
Y432998D01*
X880501Y430999D02*
Y431999D01*
X879001Y433998D02*
X882000D01*
Y435498D01*
X881500Y435997D01*
X879501D01*
X879001Y435498D01*
Y433998D01*
X879501Y436997D02*
X879001Y437497D01*
Y438497D01*
X879501Y438996D01*
X880001D01*
X880501Y438497D01*
Y437997D01*
Y438497D01*
X881000Y438996D01*
X881500D01*
X882000Y438497D01*
Y437497D01*
X881500Y436997D01*
X895001Y428000D02*
X898000D01*
Y429999D01*
X895001Y432998D02*
Y430999D01*
X898000D01*
Y432998D01*
X896500Y430999D02*
Y431999D01*
X895001Y433998D02*
X898000D01*
Y435498D01*
X897500Y435997D01*
X895501D01*
X895001Y435498D01*
Y433998D01*
X898000Y436997D02*
Y437997D01*
Y437497D01*
X895001D01*
X895501Y436997D01*
X887001Y428000D02*
X890000D01*
Y429999D01*
X887001Y432998D02*
Y430999D01*
X890000D01*
Y432998D01*
X888500Y430999D02*
Y431999D01*
X887001Y433998D02*
X890000D01*
Y435498D01*
X889500Y435997D01*
X887501D01*
X887001Y435498D01*
Y433998D01*
X890000Y438996D02*
Y436997D01*
X888001Y438996D01*
X887501D01*
X887001Y438497D01*
Y437497D01*
X887501Y436997D01*
X901499Y374499D02*
X901000Y374999D01*
X900000D01*
X899500Y374499D01*
Y372500D01*
X900000Y372000D01*
X901000D01*
X901499Y372500D01*
X902499D02*
X902999Y372000D01*
X903999D01*
X904498Y372500D01*
Y374499D01*
X903999Y374999D01*
X902999D01*
X902499Y374499D01*
Y373999D01*
X902999Y373499D01*
X904498D01*
X907999Y374499D02*
X907500Y374999D01*
X906500D01*
X906000Y374499D01*
Y372500D01*
X906500Y372000D01*
X907500D01*
X907999Y372500D01*
X908999Y374499D02*
X909499Y374999D01*
X910499D01*
X910998Y374499D01*
Y373999D01*
X910499Y373499D01*
X910998Y373000D01*
Y372500D01*
X910499Y372000D01*
X909499D01*
X908999Y372500D01*
Y373000D01*
X909499Y373499D01*
X908999Y373999D01*
Y374499D01*
X909499Y373499D02*
X910499D01*
X822999Y453499D02*
X822499Y453999D01*
X821500D01*
X821000Y453499D01*
Y451500D01*
X821500Y451000D01*
X822499D01*
X822999Y451500D01*
X825499Y451000D02*
Y453999D01*
X823999Y452499D01*
X825998D01*
X826998Y453999D02*
X828997D01*
Y453499D01*
X826998Y451500D01*
Y451000D01*
X815499Y453499D02*
X814999Y453999D01*
X814000D01*
X813500Y453499D01*
Y451500D01*
X814000Y451000D01*
X814999D01*
X815499Y451500D01*
X817999Y451000D02*
Y453999D01*
X816499Y452499D01*
X818498D01*
X599501Y320499D02*
X599001Y320000D01*
Y319000D01*
X599501Y318500D01*
X601500D01*
X602000Y319000D01*
Y320000D01*
X601500Y320499D01*
X602000Y323498D02*
Y321499D01*
X600001Y323498D01*
X599501D01*
X599001Y322998D01*
Y321999D01*
X599501Y321499D01*
X601500Y324498D02*
X602000Y324998D01*
Y325998D01*
X601500Y326497D01*
X599501D01*
X599001Y325998D01*
Y324998D01*
X599501Y324498D01*
X600001D01*
X600500Y324998D01*
Y326497D01*
X894499Y423499D02*
X893999Y423999D01*
X893000D01*
X892500Y423499D01*
Y421500D01*
X893000Y421000D01*
X893999D01*
X894499Y421500D01*
X897498Y421000D02*
X895499D01*
X897498Y422999D01*
Y423499D01*
X896999Y423999D01*
X895999D01*
X895499Y423499D01*
X996501Y366999D02*
X996001Y366499D01*
Y365500D01*
X996501Y365000D01*
X998500D01*
X999000Y365500D01*
Y366499D01*
X998500Y366999D01*
X999000Y367999D02*
Y368999D01*
Y368499D01*
X996001D01*
X996501Y367999D01*
X999000Y372498D02*
Y370498D01*
X997001Y372498D01*
X996501D01*
X996001Y371998D01*
Y370998D01*
X996501Y370498D01*
X831001Y451999D02*
X830501Y451500D01*
Y450500D01*
X831001Y450000D01*
X833000D01*
X833500Y450500D01*
Y451500D01*
X833000Y451999D01*
X833500Y452999D02*
Y453999D01*
Y453499D01*
X830501D01*
X831001Y452999D01*
X927999Y324499D02*
X927499Y324999D01*
X926500D01*
X926000Y324499D01*
Y322500D01*
X926500Y322000D01*
X927499D01*
X927999Y322500D01*
X930499Y322000D02*
Y324999D01*
X928999Y323499D01*
X930998D01*
X931998Y324499D02*
X932498Y324999D01*
X933498D01*
X933997Y324499D01*
Y323999D01*
X933498Y323499D01*
X933997Y323000D01*
Y322500D01*
X933498Y322000D01*
X932498D01*
X931998Y322500D01*
Y323000D01*
X932498Y323499D01*
X931998Y323999D01*
Y324499D01*
X932498Y323499D02*
X933498D01*
X898001Y380999D02*
X897501Y380500D01*
Y379500D01*
X898001Y379000D01*
X900000D01*
X900500Y379500D01*
Y380500D01*
X900000Y380999D01*
X897501Y381999D02*
Y383998D01*
X898001D01*
X900000Y381999D01*
X900500D01*
X898001Y384998D02*
X897501Y385498D01*
Y386498D01*
X898001Y386997D01*
X900000D01*
X900500Y386498D01*
Y385498D01*
X900000Y384998D01*
X898001D01*
X894499Y415499D02*
X893999Y415999D01*
X893000D01*
X892500Y415499D01*
Y413500D01*
X893000Y413000D01*
X893999D01*
X894499Y413500D01*
X895499Y415999D02*
X897498D01*
Y415499D01*
X895499Y413500D01*
Y413000D01*
X900497Y415999D02*
X899498Y415499D01*
X898498Y414500D01*
Y413500D01*
X898998Y413000D01*
X899998D01*
X900497Y413500D01*
Y414000D01*
X899998Y414500D01*
X898498D01*
X815499Y448999D02*
X814999Y449499D01*
X814000D01*
X813500Y448999D01*
Y447000D01*
X814000Y446500D01*
X814999D01*
X815499Y447000D01*
X816499Y449499D02*
X818498D01*
Y448999D01*
X816499Y447000D01*
Y446500D01*
X819498Y449499D02*
X821497D01*
Y448999D01*
X819498Y447000D01*
Y446500D01*
X728001Y263499D02*
X727501Y263000D01*
Y262000D01*
X728001Y261500D01*
X730000D01*
X730500Y262000D01*
Y263000D01*
X730000Y263499D01*
X728001Y264499D02*
X727501Y264999D01*
Y265999D01*
X728001Y266498D01*
X728501D01*
X729001Y265999D01*
Y265499D01*
Y265999D01*
X729500Y266498D01*
X730000D01*
X730500Y265999D01*
Y264999D01*
X730000Y264499D01*
X727501Y267498D02*
Y269497D01*
X728001D01*
X730000Y267498D01*
X730500D01*
X658499Y375999D02*
X658000Y376499D01*
X657000D01*
X656500Y375999D01*
Y374000D01*
X657000Y373500D01*
X658000D01*
X658499Y374000D01*
X659499Y375999D02*
X659999Y376499D01*
X660998D01*
X661498Y375999D01*
Y375499D01*
X660998Y374999D01*
X660499D01*
X660998D01*
X661498Y374500D01*
Y374000D01*
X660998Y373500D01*
X659999D01*
X659499Y374000D01*
X664497Y376499D02*
X663498Y375999D01*
X662498Y374999D01*
Y374000D01*
X662998Y373500D01*
X663998D01*
X664497Y374000D01*
Y374500D01*
X663998Y374999D01*
X662498D01*
X661001Y360799D02*
X660501Y360299D01*
Y359300D01*
X661001Y358800D01*
X663000D01*
X663500Y359300D01*
Y360299D01*
X663000Y360799D01*
X661001Y361799D02*
X660501Y362299D01*
Y363299D01*
X661001Y363798D01*
X661501D01*
X662001Y363299D01*
Y362799D01*
Y363299D01*
X662500Y363798D01*
X663000D01*
X663500Y363299D01*
Y362299D01*
X663000Y361799D01*
X660501Y366797D02*
Y364798D01*
X662001D01*
X661501Y365798D01*
Y366298D01*
X662001Y366797D01*
X663000D01*
X663500Y366298D01*
Y365298D01*
X663000Y364798D01*
X927999Y273499D02*
X927499Y273999D01*
X926500D01*
X926000Y273499D01*
Y271500D01*
X926500Y271000D01*
X927499D01*
X927999Y271500D01*
X928999Y273499D02*
X929499Y273999D01*
X930499D01*
X930998Y273499D01*
Y272999D01*
X930499Y272499D01*
X929999D01*
X930499D01*
X930998Y272000D01*
Y271500D01*
X930499Y271000D01*
X929499D01*
X928999Y271500D01*
X931998Y273499D02*
X932498Y273999D01*
X933498D01*
X933997Y273499D01*
Y272999D01*
X933498Y272499D01*
X933997Y272000D01*
Y271500D01*
X933498Y271000D01*
X932498D01*
X931998Y271500D01*
Y272000D01*
X932498Y272499D01*
X931998Y272999D01*
Y273499D01*
X932498Y272499D02*
X933498D01*
X831999Y333499D02*
X831499Y333999D01*
X830500D01*
X830000Y333499D01*
Y331500D01*
X830500Y331000D01*
X831499D01*
X831999Y331500D01*
X832999Y333499D02*
X833499Y333999D01*
X834499D01*
X834998Y333499D01*
Y332999D01*
X834499Y332500D01*
X833999D01*
X834499D01*
X834998Y332000D01*
Y331500D01*
X834499Y331000D01*
X833499D01*
X832999Y331500D01*
X835998D02*
X836498Y331000D01*
X837498D01*
X837997Y331500D01*
Y333499D01*
X837498Y333999D01*
X836498D01*
X835998Y333499D01*
Y332999D01*
X836498Y332500D01*
X837997D01*
X927999Y278499D02*
X927499Y278999D01*
X926500D01*
X926000Y278499D01*
Y276500D01*
X926500Y276000D01*
X927499D01*
X927999Y276500D01*
X930499Y276000D02*
Y278999D01*
X928999Y277500D01*
X930998D01*
X931998Y278499D02*
X932498Y278999D01*
X933498D01*
X933997Y278499D01*
Y276500D01*
X933498Y276000D01*
X932498D01*
X931998Y276500D01*
Y278499D01*
X927999Y283499D02*
X927499Y283999D01*
X926500D01*
X926000Y283499D01*
Y281500D01*
X926500Y281000D01*
X927499D01*
X927999Y281500D01*
X930499Y281000D02*
Y283999D01*
X928999Y282500D01*
X930998D01*
X931998Y281000D02*
X932998D01*
X932498D01*
Y283999D01*
X931998Y283499D01*
X831501Y442499D02*
X831001Y441999D01*
Y441000D01*
X831501Y440500D01*
X833500D01*
X834000Y441000D01*
Y441999D01*
X833500Y442499D01*
X831001Y445498D02*
Y443499D01*
X832500D01*
X832001Y444499D01*
Y444999D01*
X832500Y445498D01*
X833500D01*
X834000Y444999D01*
Y443999D01*
X833500Y443499D01*
X895999Y391499D02*
X895500Y391999D01*
X894500D01*
X894000Y391499D01*
Y389500D01*
X894500Y389000D01*
X895500D01*
X895999Y389500D01*
X896999Y391999D02*
X898998D01*
Y391499D01*
X896999Y389500D01*
Y389000D01*
X927999Y313499D02*
X927499Y313999D01*
X926500D01*
X926000Y313499D01*
Y311500D01*
X926500Y311000D01*
X927499D01*
X927999Y311500D01*
X930499Y311000D02*
Y313999D01*
X928999Y312499D01*
X930998D01*
X933997Y311000D02*
X931998D01*
X933997Y312999D01*
Y313499D01*
X933498Y313999D01*
X932498D01*
X931998Y313499D01*
X927999Y288499D02*
X927499Y288999D01*
X926500D01*
X926000Y288499D01*
Y286500D01*
X926500Y286000D01*
X927499D01*
X927999Y286500D01*
X930499Y286000D02*
Y288999D01*
X928999Y287499D01*
X930998D01*
X931998Y288499D02*
X932498Y288999D01*
X933498D01*
X933997Y288499D01*
Y287999D01*
X933498Y287499D01*
X932998D01*
X933498D01*
X933997Y287000D01*
Y286500D01*
X933498Y286000D01*
X932498D01*
X931998Y286500D01*
X805999Y450999D02*
X805499Y451499D01*
X804500D01*
X804000Y450999D01*
Y449000D01*
X804500Y448500D01*
X805499D01*
X805999Y449000D01*
X808498Y448500D02*
Y451499D01*
X806999Y450000D01*
X808998D01*
X811997Y451499D02*
X809998D01*
Y450000D01*
X810998Y450499D01*
X811498D01*
X811997Y450000D01*
Y449000D01*
X811498Y448500D01*
X810498D01*
X809998Y449000D01*
X696299Y375299D02*
X695799Y375799D01*
X694800D01*
X694300Y375299D01*
Y373300D01*
X694800Y372800D01*
X695799D01*
X696299Y373300D01*
X697299Y375299D02*
X697799Y375799D01*
X698799D01*
X699298Y375299D01*
Y374799D01*
X698799Y374300D01*
X698299D01*
X698799D01*
X699298Y373800D01*
Y373300D01*
X698799Y372800D01*
X697799D01*
X697299Y373300D01*
X701798Y372800D02*
Y375799D01*
X700298Y374300D01*
X702297D01*
X675999Y375999D02*
X675499Y376499D01*
X674500D01*
X674000Y375999D01*
Y374000D01*
X674500Y373500D01*
X675499D01*
X675999Y374000D01*
X676999Y375999D02*
X677499Y376499D01*
X678499D01*
X678998Y375999D01*
Y375499D01*
X678499Y374999D01*
X677999D01*
X678499D01*
X678998Y374500D01*
Y374000D01*
X678499Y373500D01*
X677499D01*
X676999Y374000D01*
X679998Y375999D02*
X680498Y376499D01*
X681498D01*
X681997Y375999D01*
Y375499D01*
X681498Y374999D01*
X680998D01*
X681498D01*
X681997Y374500D01*
Y374000D01*
X681498Y373500D01*
X680498D01*
X679998Y374000D01*
X606001Y320499D02*
X605501Y320000D01*
Y319000D01*
X606001Y318500D01*
X608000D01*
X608500Y319000D01*
Y320000D01*
X608000Y320499D01*
X606001Y321499D02*
X605501Y321999D01*
Y322998D01*
X606001Y323498D01*
X606501D01*
X607000Y322998D01*
Y322499D01*
Y322998D01*
X607500Y323498D01*
X608000D01*
X608500Y322998D01*
Y321999D01*
X608000Y321499D01*
X608500Y326497D02*
Y324498D01*
X606501Y326497D01*
X606001D01*
X605501Y325998D01*
Y324998D01*
X606001Y324498D01*
X604101Y262999D02*
X603601Y262499D01*
Y261500D01*
X604101Y261000D01*
X606100D01*
X606600Y261500D01*
Y262499D01*
X606100Y262999D01*
X604101Y263999D02*
X603601Y264499D01*
Y265498D01*
X604101Y265998D01*
X604601D01*
X605100Y265498D01*
Y264999D01*
Y265498D01*
X605600Y265998D01*
X606100D01*
X606600Y265498D01*
Y264499D01*
X606100Y263999D01*
X606600Y266998D02*
Y267998D01*
Y267498D01*
X603601D01*
X604101Y266998D01*
X611001Y320499D02*
X610501Y320000D01*
Y319000D01*
X611001Y318500D01*
X613000D01*
X613500Y319000D01*
Y320000D01*
X613000Y320499D01*
X611001Y321499D02*
X610501Y321999D01*
Y322998D01*
X611001Y323498D01*
X611501D01*
X612001Y322998D01*
Y322499D01*
Y322998D01*
X612500Y323498D01*
X613000D01*
X613500Y322998D01*
Y321999D01*
X613000Y321499D01*
X611001Y324498D02*
X610501Y324998D01*
Y325998D01*
X611001Y326497D01*
X613000D01*
X613500Y325998D01*
Y324998D01*
X613000Y324498D01*
X611001D01*
X867499Y420999D02*
X867000Y421499D01*
X866000D01*
X865500Y420999D01*
Y419000D01*
X866000Y418500D01*
X867000D01*
X867499Y419000D01*
X868499Y420999D02*
X868999Y421499D01*
X869999D01*
X870498Y420999D01*
Y420499D01*
X869999Y420000D01*
X869499D01*
X869999D01*
X870498Y419500D01*
Y419000D01*
X869999Y418500D01*
X868999D01*
X868499Y419000D01*
X591001Y262499D02*
X590501Y262000D01*
Y261000D01*
X591001Y260500D01*
X593000D01*
X593500Y261000D01*
Y262000D01*
X593000Y262499D01*
X593500Y265498D02*
Y263499D01*
X591501Y265498D01*
X591001D01*
X590501Y264999D01*
Y263999D01*
X591001Y263499D01*
Y266498D02*
X590501Y266998D01*
Y267998D01*
X591001Y268497D01*
X591501D01*
X592000Y267998D01*
X592500Y268497D01*
X593000D01*
X593500Y267998D01*
Y266998D01*
X593000Y266498D01*
X592500D01*
X592000Y266998D01*
X591501Y266498D01*
X591001D01*
X592000Y266998D02*
Y267998D01*
X969001Y278499D02*
X968501Y277999D01*
Y277000D01*
X969001Y276500D01*
X971000D01*
X971500Y277000D01*
Y277999D01*
X971000Y278499D01*
X971500Y281498D02*
Y279499D01*
X969501Y281498D01*
X969001D01*
X968501Y280998D01*
Y279999D01*
X969001Y279499D01*
X968501Y284497D02*
X969001Y283498D01*
X970000Y282498D01*
X971000D01*
X971500Y282998D01*
Y283998D01*
X971000Y284497D01*
X970500D01*
X970000Y283998D01*
Y282498D01*
X783999Y450999D02*
X783499Y451499D01*
X782500D01*
X782000Y450999D01*
Y449000D01*
X782500Y448500D01*
X783499D01*
X783999Y449000D01*
X786498Y448500D02*
Y451499D01*
X784999Y450000D01*
X786998D01*
X789997Y451499D02*
X788998Y450999D01*
X787998Y450000D01*
Y449000D01*
X788498Y448500D01*
X789498D01*
X789997Y449000D01*
Y449500D01*
X789498Y450000D01*
X787998D01*
X974001Y278499D02*
X973501Y277999D01*
Y277000D01*
X974001Y276500D01*
X976000D01*
X976500Y277000D01*
Y277999D01*
X976000Y278499D01*
X976500Y281498D02*
Y279499D01*
X974501Y281498D01*
X974001D01*
X973501Y280998D01*
Y279999D01*
X974001Y279499D01*
X973501Y284497D02*
Y282498D01*
X975000D01*
X974501Y283498D01*
Y283998D01*
X975000Y284497D01*
X976000D01*
X976500Y283998D01*
Y282998D01*
X976000Y282498D01*
X979001Y278499D02*
X978501Y277999D01*
Y277000D01*
X979001Y276500D01*
X981000D01*
X981500Y277000D01*
Y277999D01*
X981000Y278499D01*
X981500Y281498D02*
Y279499D01*
X979501Y281498D01*
X979001D01*
X978501Y280998D01*
Y279999D01*
X979001Y279499D01*
X981500Y283998D02*
X978501D01*
X980000Y282498D01*
Y284497D01*
X983001Y285199D02*
X982501Y284700D01*
Y283700D01*
X983001Y283200D01*
X985000D01*
X985500Y283700D01*
Y284700D01*
X985000Y285199D01*
X985500Y288198D02*
Y286199D01*
X983501Y288198D01*
X983001D01*
X982501Y287699D01*
Y286699D01*
X983001Y286199D01*
Y289198D02*
X982501Y289698D01*
Y290698D01*
X983001Y291197D01*
X983501D01*
X984000Y290698D01*
Y290198D01*
Y290698D01*
X984500Y291197D01*
X985000D01*
X985500Y290698D01*
Y289698D01*
X985000Y289198D01*
X989001Y278499D02*
X988501Y277999D01*
Y277000D01*
X989001Y276500D01*
X991000D01*
X991500Y277000D01*
Y277999D01*
X991000Y278499D01*
X991500Y281498D02*
Y279499D01*
X989501Y281498D01*
X989001D01*
X988501Y280998D01*
Y279999D01*
X989001Y279499D01*
X991500Y284497D02*
Y282498D01*
X989501Y284497D01*
X989001D01*
X988501Y283998D01*
Y282998D01*
X989001Y282498D01*
X992001Y366999D02*
X991501Y366499D01*
Y365500D01*
X992001Y365000D01*
X994000D01*
X994500Y365500D01*
Y366499D01*
X994000Y366999D01*
X994500Y369998D02*
Y367999D01*
X992501Y369998D01*
X992001D01*
X991501Y369498D01*
Y368499D01*
X992001Y367999D01*
X994500Y370998D02*
Y371998D01*
Y371498D01*
X991501D01*
X992001Y370998D01*
X911999Y333999D02*
X911500Y334499D01*
X910500D01*
X910000Y333999D01*
Y332000D01*
X910500Y331500D01*
X911500D01*
X911999Y332000D01*
X914998Y331500D02*
X912999D01*
X914998Y333499D01*
Y333999D01*
X914499Y334499D01*
X913499D01*
X912999Y333999D01*
X915998D02*
X916498Y334499D01*
X917498D01*
X917997Y333999D01*
Y332000D01*
X917498Y331500D01*
X916498D01*
X915998Y332000D01*
Y333999D01*
X925501Y399499D02*
X925001Y399000D01*
Y398000D01*
X925501Y397500D01*
X927500D01*
X928000Y398000D01*
Y399000D01*
X927500Y399499D01*
X928000Y400499D02*
Y401499D01*
Y400999D01*
X925001D01*
X925501Y400499D01*
X927500Y402998D02*
X928000Y403498D01*
Y404498D01*
X927500Y404998D01*
X925501D01*
X925001Y404498D01*
Y403498D01*
X925501Y402998D01*
X926001D01*
X926501Y403498D01*
Y404998D01*
X908501Y365499D02*
X908001Y365000D01*
Y364000D01*
X908501Y363500D01*
X910500D01*
X911000Y364000D01*
Y365000D01*
X910500Y365499D01*
X911000Y366499D02*
Y367499D01*
Y366999D01*
X908001D01*
X908501Y366499D01*
Y368998D02*
X908001Y369498D01*
Y370498D01*
X908501Y370998D01*
X909001D01*
X909501Y370498D01*
X910000Y370998D01*
X910500D01*
X911000Y370498D01*
Y369498D01*
X910500Y368998D01*
X910000D01*
X909501Y369498D01*
X909001Y368998D01*
X908501D01*
X909501Y369498D02*
Y370498D01*
X956501Y405999D02*
X956001Y405500D01*
Y404500D01*
X956501Y404000D01*
X958500D01*
X959000Y404500D01*
Y405500D01*
X958500Y405999D01*
X959000Y406999D02*
Y407999D01*
Y407499D01*
X956001D01*
X956501Y406999D01*
X956001Y409498D02*
Y411498D01*
X956501D01*
X958500Y409498D01*
X959000D01*
X965499Y328499D02*
X964999Y328999D01*
X964000D01*
X963500Y328499D01*
Y326500D01*
X964000Y326000D01*
X964999D01*
X965499Y326500D01*
X966499Y326000D02*
X967499D01*
X966999D01*
Y328999D01*
X966499Y328499D01*
X970998Y328999D02*
X969998Y328499D01*
X968998Y327500D01*
Y326500D01*
X969498Y326000D01*
X970498D01*
X970998Y326500D01*
Y327000D01*
X970498Y327500D01*
X968998D01*
X925501Y389499D02*
X925001Y389000D01*
Y388000D01*
X925501Y387500D01*
X927500D01*
X928000Y388000D01*
Y389000D01*
X927500Y389499D01*
X928000Y390499D02*
Y391499D01*
Y390999D01*
X925001D01*
X925501Y390499D01*
X925001Y394998D02*
Y392998D01*
X926501D01*
X926001Y393998D01*
Y394498D01*
X926501Y394998D01*
X927500D01*
X928000Y394498D01*
Y393498D01*
X927500Y392998D01*
X988499Y398499D02*
X988000Y398999D01*
X987000D01*
X986500Y398499D01*
Y396500D01*
X987000Y396000D01*
X988000D01*
X988499Y396500D01*
X989499Y396000D02*
X990499D01*
X989999D01*
Y398999D01*
X989499Y398499D01*
X993498Y396000D02*
Y398999D01*
X991998Y397499D01*
X993998D01*
X988499Y389999D02*
X988000Y390499D01*
X987000D01*
X986500Y389999D01*
Y388000D01*
X987000Y387500D01*
X988000D01*
X988499Y388000D01*
X989499Y387500D02*
X990499D01*
X989999D01*
Y390499D01*
X989499Y389999D01*
X991998D02*
X992498Y390499D01*
X993498D01*
X993998Y389999D01*
Y389499D01*
X993498Y389000D01*
X992998D01*
X993498D01*
X993998Y388500D01*
Y388000D01*
X993498Y387500D01*
X992498D01*
X991998Y388000D01*
X973501Y376999D02*
X973001Y376500D01*
Y375500D01*
X973501Y375000D01*
X975500D01*
X976000Y375500D01*
Y376500D01*
X975500Y376999D01*
X976000Y377999D02*
Y378999D01*
Y378499D01*
X973001D01*
X973501Y377999D01*
X976000Y380498D02*
Y381498D01*
Y380998D01*
X973001D01*
X973501Y380498D01*
X786499Y333499D02*
X785999Y333999D01*
X785000D01*
X784500Y333499D01*
Y331500D01*
X785000Y331000D01*
X785999D01*
X786499Y331500D01*
X788999Y331000D02*
Y333999D01*
X787499Y332500D01*
X789498D01*
X790498Y331500D02*
X790998Y331000D01*
X791998D01*
X792497Y331500D01*
Y333499D01*
X791998Y333999D01*
X790998D01*
X790498Y333499D01*
Y332999D01*
X790998Y332500D01*
X792497D01*
X818999Y378499D02*
X818499Y378999D01*
X817500D01*
X817000Y378499D01*
Y376500D01*
X817500Y376000D01*
X818499D01*
X818999Y376500D01*
X821998Y378999D02*
X819999D01*
Y377500D01*
X820999Y377999D01*
X821499D01*
X821998Y377500D01*
Y376500D01*
X821499Y376000D01*
X820499D01*
X819999Y376500D01*
X822998Y378499D02*
X823498Y378999D01*
X824498D01*
X824997Y378499D01*
Y376500D01*
X824498Y376000D01*
X823498D01*
X822998Y376500D01*
Y378499D01*
X796499D02*
X795999Y378999D01*
X795000D01*
X794500Y378499D01*
Y376500D01*
X795000Y376000D01*
X795999D01*
X796499Y376500D01*
X799498Y378999D02*
X797499D01*
Y377500D01*
X798499Y377999D01*
X798998D01*
X799498Y377500D01*
Y376500D01*
X798998Y376000D01*
X797999D01*
X797499Y376500D01*
X800498Y376000D02*
X801498D01*
X800998D01*
Y378999D01*
X800498Y378499D01*
X808999Y333499D02*
X808500Y333999D01*
X807500D01*
X807000Y333499D01*
Y331500D01*
X807500Y331000D01*
X808500D01*
X808999Y331500D01*
X811998Y333999D02*
X809999D01*
Y332500D01*
X810999Y332999D01*
X811499D01*
X811998Y332500D01*
Y331500D01*
X811499Y331000D01*
X810499D01*
X809999Y331500D01*
X814997Y331000D02*
X812998D01*
X814997Y332999D01*
Y333499D01*
X814498Y333999D01*
X813498D01*
X812998Y333499D01*
X821499D02*
X821000Y333999D01*
X820000D01*
X819500Y333499D01*
Y331500D01*
X820000Y331000D01*
X821000D01*
X821499Y331500D01*
X824498Y333999D02*
X822499D01*
Y332500D01*
X823499Y332999D01*
X823999D01*
X824498Y332500D01*
Y331500D01*
X823999Y331000D01*
X822999D01*
X822499Y331500D01*
X825498Y333499D02*
X825998Y333999D01*
X826998D01*
X827497Y333499D01*
Y332999D01*
X826998Y332500D01*
X826498D01*
X826998D01*
X827497Y332000D01*
Y331500D01*
X826998Y331000D01*
X825998D01*
X825498Y331500D01*
X807499Y378499D02*
X806999Y378999D01*
X806000D01*
X805500Y378499D01*
Y376500D01*
X806000Y376000D01*
X806999D01*
X807499Y376500D01*
X810498Y378999D02*
X808499D01*
Y377500D01*
X809499Y377999D01*
X809999D01*
X810498Y377500D01*
Y376500D01*
X809999Y376000D01*
X808999D01*
X808499Y376500D01*
X812998Y376000D02*
Y378999D01*
X811498Y377500D01*
X813497D01*
X830499Y378499D02*
X830000Y378999D01*
X829000D01*
X828500Y378499D01*
Y376500D01*
X829000Y376000D01*
X830000D01*
X830499Y376500D01*
X833498Y378999D02*
X831499D01*
Y377500D01*
X832499Y377999D01*
X832999D01*
X833498Y377500D01*
Y376500D01*
X832999Y376000D01*
X831999D01*
X831499Y376500D01*
X836497Y378999D02*
X834498D01*
Y377500D01*
X835498Y377999D01*
X835998D01*
X836497Y377500D01*
Y376500D01*
X835998Y376000D01*
X834998D01*
X834498Y376500D01*
X798499Y333499D02*
X797999Y333999D01*
X797000D01*
X796500Y333499D01*
Y331500D01*
X797000Y331000D01*
X797999D01*
X798499Y331500D01*
X801498Y333999D02*
X799499D01*
Y332500D01*
X800499Y332999D01*
X800998D01*
X801498Y332500D01*
Y331500D01*
X800998Y331000D01*
X799999D01*
X799499Y331500D01*
X804497Y333999D02*
X803498Y333499D01*
X802498Y332500D01*
Y331500D01*
X802998Y331000D01*
X803998D01*
X804497Y331500D01*
Y332000D01*
X803998Y332500D01*
X802498D01*
X913999Y418499D02*
X913500Y418999D01*
X912500D01*
X912000Y418499D01*
Y416500D01*
X912500Y416000D01*
X913500D01*
X913999Y416500D01*
X916998Y418999D02*
X914999D01*
Y417499D01*
X915999Y417999D01*
X916499D01*
X916998Y417499D01*
Y416500D01*
X916499Y416000D01*
X915499D01*
X914999Y416500D01*
X917998Y418999D02*
X919997D01*
Y418499D01*
X917998Y416500D01*
Y416000D01*
X925499Y418499D02*
X925000Y418999D01*
X924000D01*
X923500Y418499D01*
Y416500D01*
X924000Y416000D01*
X925000D01*
X925499Y416500D01*
X928498Y418999D02*
X926499D01*
Y417499D01*
X927499Y417999D01*
X927999D01*
X928498Y417499D01*
Y416500D01*
X927999Y416000D01*
X926999D01*
X926499Y416500D01*
X929498Y418499D02*
X929998Y418999D01*
X930998D01*
X931497Y418499D01*
Y417999D01*
X930998Y417499D01*
X931497Y417000D01*
Y416500D01*
X930998Y416000D01*
X929998D01*
X929498Y416500D01*
Y417000D01*
X929998Y417499D01*
X929498Y417999D01*
Y418499D01*
X929998Y417499D02*
X930998D01*
X938499Y418499D02*
X938000Y418999D01*
X937000D01*
X936500Y418499D01*
Y416500D01*
X937000Y416000D01*
X938000D01*
X938499Y416500D01*
X941498Y418999D02*
X939499D01*
Y417499D01*
X940499Y417999D01*
X940999D01*
X941498Y417499D01*
Y416500D01*
X940999Y416000D01*
X939999D01*
X939499Y416500D01*
X942498D02*
X942998Y416000D01*
X943998D01*
X944497Y416500D01*
Y418499D01*
X943998Y418999D01*
X942998D01*
X942498Y418499D01*
Y417999D01*
X942998Y417499D01*
X944497D01*
X968501Y416499D02*
X968001Y416000D01*
Y415000D01*
X968501Y414500D01*
X970500D01*
X971000Y415000D01*
Y416000D01*
X970500Y416499D01*
X968001Y419498D02*
X968501Y418499D01*
X969501Y417499D01*
X970500D01*
X971000Y417999D01*
Y418998D01*
X970500Y419498D01*
X970000D01*
X969501Y418998D01*
Y417499D01*
X971000Y422497D02*
Y420498D01*
X969001Y422497D01*
X968501D01*
X968001Y421998D01*
Y420998D01*
X968501Y420498D01*
X978501Y416499D02*
X978001Y416000D01*
Y415000D01*
X978501Y414500D01*
X980500D01*
X981000Y415000D01*
Y416000D01*
X980500Y416499D01*
X978001Y419498D02*
X978501Y418499D01*
X979500Y417499D01*
X980500D01*
X981000Y417999D01*
Y418998D01*
X980500Y419498D01*
X980000D01*
X979500Y418998D01*
Y417499D01*
X978501Y420498D02*
X978001Y420998D01*
Y421998D01*
X978501Y422497D01*
X979001D01*
X979500Y421998D01*
Y421498D01*
Y421998D01*
X980000Y422497D01*
X980500D01*
X981000Y421998D01*
Y420998D01*
X980500Y420498D01*
X984201Y274599D02*
X983701Y274099D01*
Y273100D01*
X984201Y272600D01*
X986200D01*
X986700Y273100D01*
Y274099D01*
X986200Y274599D01*
X983701Y277598D02*
X984201Y276599D01*
X985201Y275599D01*
X986200D01*
X986700Y276099D01*
Y277098D01*
X986200Y277598D01*
X985700D01*
X985201Y277098D01*
Y275599D01*
X986700Y280098D02*
X983701D01*
X985201Y278598D01*
Y280597D01*
X978501Y261499D02*
X978001Y260999D01*
Y260000D01*
X978501Y259500D01*
X980500D01*
X981000Y260000D01*
Y260999D01*
X980500Y261499D01*
X978001Y264498D02*
X978501Y263499D01*
X979500Y262499D01*
X980500D01*
X981000Y262999D01*
Y263999D01*
X980500Y264498D01*
X980000D01*
X979500Y263999D01*
Y262499D01*
X978001Y267497D02*
Y265498D01*
X979500D01*
X979001Y266498D01*
Y266998D01*
X979500Y267497D01*
X980500D01*
X981000Y266998D01*
Y265998D01*
X980500Y265498D01*
X968501Y261499D02*
X968001Y260999D01*
Y260000D01*
X968501Y259500D01*
X970500D01*
X971000Y260000D01*
Y260999D01*
X970500Y261499D01*
X968001Y264498D02*
X968501Y263499D01*
X969501Y262499D01*
X970500D01*
X971000Y262999D01*
Y263999D01*
X970500Y264498D01*
X970000D01*
X969501Y263999D01*
Y262499D01*
X968001Y267497D02*
X968501Y266498D01*
X969501Y265498D01*
X970500D01*
X971000Y265998D01*
Y266998D01*
X970500Y267497D01*
X970000D01*
X969501Y266998D01*
Y265498D01*
X958501Y261499D02*
X958001Y260999D01*
Y260000D01*
X958501Y259500D01*
X960500D01*
X961000Y260000D01*
Y260999D01*
X960500Y261499D01*
X958001Y264498D02*
X958501Y263499D01*
X959501Y262499D01*
X960500D01*
X961000Y262999D01*
Y263999D01*
X960500Y264498D01*
X960000D01*
X959501Y263999D01*
Y262499D01*
X958001Y265498D02*
Y267497D01*
X958501D01*
X960500Y265498D01*
X961000D01*
X939501Y318999D02*
X939001Y318499D01*
Y317500D01*
X939501Y317000D01*
X941500D01*
X942000Y317500D01*
Y318499D01*
X941500Y318999D01*
X939001Y321998D02*
X939501Y320999D01*
X940501Y319999D01*
X941500D01*
X942000Y320499D01*
Y321498D01*
X941500Y321998D01*
X941000D01*
X940501Y321498D01*
Y319999D01*
X939501Y322998D02*
X939001Y323498D01*
Y324498D01*
X939501Y324997D01*
X940001D01*
X940501Y324498D01*
X941000Y324997D01*
X941500D01*
X942000Y324498D01*
Y323498D01*
X941500Y322998D01*
X941000D01*
X940501Y323498D01*
X940001Y322998D01*
X939501D01*
X940501Y323498D02*
Y324498D01*
X984001Y335999D02*
X983501Y335500D01*
Y334500D01*
X984001Y334000D01*
X986000D01*
X986500Y334500D01*
Y335500D01*
X986000Y335999D01*
X983501Y338998D02*
X984001Y337999D01*
X985001Y336999D01*
X986000D01*
X986500Y337499D01*
Y338498D01*
X986000Y338998D01*
X985500D01*
X985001Y338498D01*
Y336999D01*
X986000Y339998D02*
X986500Y340498D01*
Y341498D01*
X986000Y341997D01*
X984001D01*
X983501Y341498D01*
Y340498D01*
X984001Y339998D01*
X984501D01*
X985001Y340498D01*
Y341997D01*
X950499Y418499D02*
X950000Y418999D01*
X949000D01*
X948500Y418499D01*
Y416500D01*
X949000Y416000D01*
X950000D01*
X950499Y416500D01*
X953498Y418999D02*
X952499Y418499D01*
X951499Y417499D01*
Y416500D01*
X951999Y416000D01*
X952999D01*
X953498Y416500D01*
Y417000D01*
X952999Y417499D01*
X951499D01*
X954498Y418499D02*
X954998Y418999D01*
X955998D01*
X956497Y418499D01*
Y416500D01*
X955998Y416000D01*
X954998D01*
X954498Y416500D01*
Y418499D01*
X610500Y282000D02*
Y284999D01*
X612000D01*
X612499Y284499D01*
Y283500D01*
X612000Y283000D01*
X610500D01*
X611500D02*
X612499Y282000D01*
X615498D02*
X613499D01*
X615498Y283999D01*
Y284499D01*
X614998Y284999D01*
X613999D01*
X613499Y284499D01*
X616498Y282500D02*
X616998Y282000D01*
X617998D01*
X618497Y282500D01*
Y284499D01*
X617998Y284999D01*
X616998D01*
X616498Y284499D01*
Y283999D01*
X616998Y283500D01*
X618497D01*
X877400Y430000D02*
X874401D01*
Y431499D01*
X874901Y431999D01*
X875900D01*
X876400Y431499D01*
Y430000D01*
Y431000D02*
X877400Y431999D01*
X876900Y432999D02*
X877400Y433499D01*
Y434499D01*
X876900Y434998D01*
X874901D01*
X874401Y434499D01*
Y433499D01*
X874901Y432999D01*
X875401D01*
X875900Y433499D01*
Y434998D01*
X926000Y306000D02*
Y308999D01*
X927499D01*
X927999Y308499D01*
Y307500D01*
X927499Y307000D01*
X926000D01*
X927000D02*
X927999Y306000D01*
X930998D02*
X928999D01*
X930998Y307999D01*
Y308499D01*
X930499Y308999D01*
X929499D01*
X928999Y308499D01*
X931998Y308999D02*
X933997D01*
Y308499D01*
X931998Y306500D01*
Y306000D01*
X886000Y428000D02*
X883001D01*
Y429499D01*
X883501Y429999D01*
X884501D01*
X885000Y429499D01*
Y428000D01*
Y429000D02*
X886000Y429999D01*
Y430999D02*
Y431999D01*
Y431499D01*
X883001D01*
X883501Y430999D01*
X961000Y306500D02*
X958001D01*
Y307999D01*
X958501Y308499D01*
X959501D01*
X960000Y307999D01*
Y306500D01*
Y307500D02*
X961000Y308499D01*
Y309499D02*
Y310499D01*
Y309999D01*
X958001D01*
X958501Y309499D01*
X961000Y313998D02*
Y311998D01*
X959001Y313998D01*
X958501D01*
X958001Y313498D01*
Y312498D01*
X958501Y311998D01*
X956000Y306500D02*
X953001D01*
Y307999D01*
X953501Y308499D01*
X954500D01*
X955000Y307999D01*
Y306500D01*
Y307500D02*
X956000Y308499D01*
Y309499D02*
Y310499D01*
Y309999D01*
X953001D01*
X953501Y309499D01*
Y311998D02*
X953001Y312498D01*
Y313498D01*
X953501Y313998D01*
X954001D01*
X954500Y313498D01*
Y312998D01*
Y313498D01*
X955000Y313998D01*
X955500D01*
X956000Y313498D01*
Y312498D01*
X955500Y311998D01*
X951000Y306500D02*
X948001D01*
Y307999D01*
X948501Y308499D01*
X949500D01*
X950000Y307999D01*
Y306500D01*
Y307500D02*
X951000Y308499D01*
Y309499D02*
Y310499D01*
Y309999D01*
X948001D01*
X948501Y309499D01*
X951000Y313498D02*
X948001D01*
X949500Y311998D01*
Y313998D01*
X946000Y306500D02*
X943001D01*
Y307999D01*
X943501Y308499D01*
X944501D01*
X945000Y307999D01*
Y306500D01*
Y307500D02*
X946000Y308499D01*
Y309499D02*
Y310499D01*
Y309999D01*
X943001D01*
X943501Y309499D01*
X943001Y313998D02*
Y311998D01*
X944501D01*
X944001Y312998D01*
Y313498D01*
X944501Y313998D01*
X945500D01*
X946000Y313498D01*
Y312498D01*
X945500Y311998D01*
X596500Y282000D02*
Y284999D01*
X597999D01*
X598499Y284499D01*
Y283500D01*
X597999Y283000D01*
X596500D01*
X597500D02*
X598499Y282000D01*
X599499D02*
X600499D01*
X599999D01*
Y284999D01*
X599499Y284499D01*
X603998Y284999D02*
X602998Y284499D01*
X601998Y283500D01*
Y282500D01*
X602498Y282000D01*
X603498D01*
X603998Y282500D01*
Y283000D01*
X603498Y283500D01*
X601998D01*
X645500Y359000D02*
X642501D01*
Y360500D01*
X643001Y360999D01*
X644000D01*
X644500Y360500D01*
Y359000D01*
Y360000D02*
X645500Y360999D01*
Y361999D02*
Y362999D01*
Y362499D01*
X642501D01*
X643001Y361999D01*
X642501Y364498D02*
Y366498D01*
X643001D01*
X645000Y364498D01*
X645500D01*
X653000Y359000D02*
X650001D01*
Y360500D01*
X650501Y360999D01*
X651501D01*
X652000Y360500D01*
Y359000D01*
Y360000D02*
X653000Y360999D01*
Y361999D02*
Y362999D01*
Y362499D01*
X650001D01*
X650501Y361999D01*
Y364498D02*
X650001Y364998D01*
Y365998D01*
X650501Y366498D01*
X651001D01*
X651501Y365998D01*
X652000Y366498D01*
X652500D01*
X653000Y365998D01*
Y364998D01*
X652500Y364498D01*
X652000D01*
X651501Y364998D01*
X651001Y364498D01*
X650501D01*
X651501Y364998D02*
Y365998D01*
X658500Y359000D02*
X655501D01*
Y360500D01*
X656001Y360999D01*
X657000D01*
X657500Y360500D01*
Y359000D01*
Y360000D02*
X658500Y360999D01*
Y361999D02*
Y362999D01*
Y362499D01*
X655501D01*
X656001Y361999D01*
X658000Y364498D02*
X658500Y364998D01*
Y365998D01*
X658000Y366498D01*
X656001D01*
X655501Y365998D01*
Y364998D01*
X656001Y364498D01*
X656501D01*
X657000Y364998D01*
Y366498D01*
X894000Y428000D02*
X891001D01*
Y429499D01*
X891501Y429999D01*
X892500D01*
X893000Y429499D01*
Y428000D01*
Y429000D02*
X894000Y429999D01*
Y432998D02*
Y430999D01*
X892001Y432998D01*
X891501D01*
X891001Y432499D01*
Y431499D01*
X891501Y430999D01*
X695500Y358700D02*
X692501D01*
Y360199D01*
X693001Y360699D01*
X694000D01*
X694500Y360199D01*
Y358700D01*
Y359700D02*
X695500Y360699D01*
Y363698D02*
Y361699D01*
X693501Y363698D01*
X693001D01*
X692501Y363198D01*
Y362199D01*
X693001Y361699D01*
Y364698D02*
X692501Y365198D01*
Y366198D01*
X693001Y366697D01*
X695000D01*
X695500Y366198D01*
Y365198D01*
X695000Y364698D01*
X693001D01*
X701000Y358700D02*
X698001D01*
Y360199D01*
X698501Y360699D01*
X699501D01*
X700000Y360199D01*
Y358700D01*
Y359700D02*
X701000Y360699D01*
Y363698D02*
Y361699D01*
X699001Y363698D01*
X698501D01*
X698001Y363198D01*
Y362199D01*
X698501Y361699D01*
X701000Y366697D02*
Y364698D01*
X699001Y366697D01*
X698501D01*
X698001Y366198D01*
Y365198D01*
X698501Y364698D01*
X926000Y301000D02*
Y303999D01*
X927499D01*
X927999Y303499D01*
Y302500D01*
X927499Y302000D01*
X926000D01*
X927000D02*
X927999Y301000D01*
X930998D02*
X928999D01*
X930998Y302999D01*
Y303499D01*
X930499Y303999D01*
X929499D01*
X928999Y303499D01*
X933498Y301000D02*
Y303999D01*
X931998Y302500D01*
X933997D01*
X926000Y296000D02*
Y298999D01*
X927499D01*
X927999Y298499D01*
Y297499D01*
X927499Y297000D01*
X926000D01*
X927000D02*
X927999Y296000D01*
X930998D02*
X928999D01*
X930998Y297999D01*
Y298499D01*
X930499Y298999D01*
X929499D01*
X928999Y298499D01*
X933997Y298999D02*
X931998D01*
Y297499D01*
X932998Y297999D01*
X933498D01*
X933997Y297499D01*
Y296500D01*
X933498Y296000D01*
X932498D01*
X931998Y296500D01*
X926000Y291000D02*
Y293999D01*
X927499D01*
X927999Y293499D01*
Y292499D01*
X927499Y292000D01*
X926000D01*
X927000D02*
X927999Y291000D01*
X930998D02*
X928999D01*
X930998Y292999D01*
Y293499D01*
X930499Y293999D01*
X929499D01*
X928999Y293499D01*
X933997Y293999D02*
X932998Y293499D01*
X931998Y292499D01*
Y291500D01*
X932498Y291000D01*
X933498D01*
X933997Y291500D01*
Y292000D01*
X933498Y292499D01*
X931998D01*
X887000Y441000D02*
Y443999D01*
X888500D01*
X888999Y443499D01*
Y442499D01*
X888500Y442000D01*
X887000D01*
X888000D02*
X888999Y441000D01*
X889999Y443499D02*
X890499Y443999D01*
X891499D01*
X891998Y443499D01*
Y442999D01*
X891499Y442499D01*
X890999D01*
X891499D01*
X891998Y442000D01*
Y441500D01*
X891499Y441000D01*
X890499D01*
X889999Y441500D01*
X894000Y394000D02*
Y396999D01*
X895500D01*
X895999Y396499D01*
Y395499D01*
X895500Y395000D01*
X894000D01*
X895000D02*
X895999Y394000D01*
X898499D02*
Y396999D01*
X896999Y395499D01*
X898998D01*
X871500Y398500D02*
Y401499D01*
X872999D01*
X873499Y400999D01*
Y399999D01*
X872999Y399500D01*
X871500D01*
X872500D02*
X873499Y398500D01*
X876498Y401499D02*
X874499D01*
Y399999D01*
X875499Y400499D01*
X875999D01*
X876498Y399999D01*
Y399000D01*
X875999Y398500D01*
X874999D01*
X874499Y399000D01*
X911000Y406500D02*
X908001D01*
Y408000D01*
X908501Y408499D01*
X909501D01*
X910000Y408000D01*
Y406500D01*
Y407500D02*
X911000Y408499D01*
Y411498D02*
Y409499D01*
X909001Y411498D01*
X908501D01*
X908001Y410998D01*
Y409999D01*
X908501Y409499D01*
Y412498D02*
X908001Y412998D01*
Y413998D01*
X908501Y414497D01*
X909001D01*
X909501Y413998D01*
X910000Y414497D01*
X910500D01*
X911000Y413998D01*
Y412998D01*
X910500Y412498D01*
X910000D01*
X909501Y412998D01*
X909001Y412498D01*
X908501D01*
X909501Y412998D02*
Y413998D01*
X982500Y351000D02*
Y353999D01*
X984000D01*
X984499Y353499D01*
Y352500D01*
X984000Y352000D01*
X982500D01*
X983500D02*
X984499Y351000D01*
X985499D02*
X986499D01*
X985999D01*
Y353999D01*
X985499Y353499D01*
X987998D02*
X988498Y353999D01*
X989498D01*
X989998Y353499D01*
Y351500D01*
X989498Y351000D01*
X988498D01*
X987998Y351500D01*
Y353499D01*
X881000Y333500D02*
X878001D01*
Y334999D01*
X878501Y335499D01*
X879500D01*
X880000Y334999D01*
Y333500D01*
Y334500D02*
X881000Y335499D01*
X878501Y336499D02*
X878001Y336999D01*
Y337999D01*
X878501Y338498D01*
X879001D01*
X879500Y337999D01*
Y337499D01*
Y337999D01*
X880000Y338498D01*
X880500D01*
X881000Y337999D01*
Y336999D01*
X880500Y336499D01*
X878001Y341497D02*
Y339498D01*
X879500D01*
X879001Y340498D01*
Y340998D01*
X879500Y341497D01*
X880500D01*
X881000Y340998D01*
Y339998D01*
X880500Y339498D01*
X855000Y323000D02*
Y325999D01*
X856499D01*
X856999Y325499D01*
Y324500D01*
X856499Y324000D01*
X855000D01*
X856000D02*
X856999Y323000D01*
X857999Y325499D02*
X858499Y325999D01*
X859499D01*
X859998Y325499D01*
Y324999D01*
X859499Y324500D01*
X858999D01*
X859499D01*
X859998Y324000D01*
Y323500D01*
X859499Y323000D01*
X858499D01*
X857999Y323500D01*
X862997Y325999D02*
X861998Y325499D01*
X860998Y324500D01*
Y323500D01*
X861498Y323000D01*
X862498D01*
X862997Y323500D01*
Y324000D01*
X862498Y324500D01*
X860998D01*
X847000Y332000D02*
X844001D01*
Y333500D01*
X844501Y333999D01*
X845500D01*
X846000Y333500D01*
Y332000D01*
Y333000D02*
X847000Y333999D01*
X844001Y336998D02*
Y334999D01*
X845500D01*
X845001Y335999D01*
Y336498D01*
X845500Y336998D01*
X846500D01*
X847000Y336498D01*
Y335499D01*
X846500Y334999D01*
X844501Y337998D02*
X844001Y338498D01*
Y339498D01*
X844501Y339997D01*
X845001D01*
X845500Y339498D01*
Y338998D01*
Y339498D01*
X846000Y339997D01*
X846500D01*
X847000Y339498D01*
Y338498D01*
X846500Y337998D01*
X905000Y323000D02*
X902001D01*
Y324500D01*
X902501Y324999D01*
X903500D01*
X904000Y324500D01*
Y323000D01*
Y324000D02*
X905000Y324999D01*
X902001Y327998D02*
Y325999D01*
X903500D01*
X903001Y326999D01*
Y327499D01*
X903500Y327998D01*
X904500D01*
X905000Y327499D01*
Y326499D01*
X904500Y325999D01*
X902501Y328998D02*
X902001Y329498D01*
Y330498D01*
X902501Y330997D01*
X903001D01*
X903500Y330498D01*
X904000Y330997D01*
X904500D01*
X905000Y330498D01*
Y329498D01*
X904500Y328998D01*
X904000D01*
X903500Y329498D01*
X903001Y328998D01*
X902501D01*
X903500Y329498D02*
Y330498D01*
X910000Y342500D02*
X907001D01*
Y344000D01*
X907501Y344499D01*
X908500D01*
X909000Y344000D01*
Y342500D01*
Y343500D02*
X910000Y344499D01*
X907001Y347498D02*
Y345499D01*
X908500D01*
X908001Y346499D01*
Y346999D01*
X908500Y347498D01*
X909500D01*
X910000Y346999D01*
Y345999D01*
X909500Y345499D01*
Y348498D02*
X910000Y348998D01*
Y349998D01*
X909500Y350497D01*
X907501D01*
X907001Y349998D01*
Y348998D01*
X907501Y348498D01*
X908001D01*
X908500Y348998D01*
Y350497D01*
X876600Y407499D02*
X878599D01*
X877600D01*
Y404500D01*
X879599D02*
Y407499D01*
X881099D01*
X881598Y406999D01*
Y406000D01*
X881099Y405500D01*
X879599D01*
X882598Y404500D02*
X883598D01*
X883098D01*
Y407499D01*
X882598Y406999D01*
X897500Y370499D02*
X899499D01*
X898500D01*
Y367500D01*
X900499D02*
Y370499D01*
X901999D01*
X902498Y369999D01*
Y369000D01*
X901999Y368500D01*
X900499D01*
X903498Y369999D02*
X903998Y370499D01*
X904998D01*
X905497Y369999D01*
Y369499D01*
X904998Y369000D01*
X904498D01*
X904998D01*
X905497Y368500D01*
Y368000D01*
X904998Y367500D01*
X903998D01*
X903498Y368000D01*
X642501Y367600D02*
Y369599D01*
Y368600D01*
X645500D01*
Y370599D02*
X642501D01*
Y372098D01*
X643001Y372598D01*
X644000D01*
X644500Y372098D01*
Y370599D01*
X643001Y373598D02*
X642501Y374098D01*
Y375098D01*
X643001Y375597D01*
X643501D01*
X644000Y375098D01*
Y374598D01*
Y375098D01*
X644500Y375597D01*
X645000D01*
X645500Y375098D01*
Y374098D01*
X645000Y373598D01*
X643001Y376597D02*
X642501Y377097D01*
Y378097D01*
X643001Y378596D01*
X645000D01*
X645500Y378097D01*
Y377097D01*
X645000Y376597D01*
X643001D01*
X827000Y328499D02*
X828999D01*
X828000D01*
Y325500D01*
X829999D02*
Y328499D01*
X831499D01*
X831998Y327999D01*
Y326999D01*
X831499Y326500D01*
X829999D01*
X832998Y328499D02*
X834997D01*
Y327999D01*
X832998Y326000D01*
Y325500D01*
X842500Y423499D02*
X844499D01*
X843500D01*
Y420500D01*
X845499D02*
Y423499D01*
X846999D01*
X847498Y422999D01*
Y422000D01*
X846999Y421500D01*
X845499D01*
X850497Y420500D02*
X848498D01*
X850497Y422499D01*
Y422999D01*
X849998Y423499D01*
X848998D01*
X848498Y422999D01*
X838600Y400999D02*
Y398000D01*
X840100D01*
X840599Y398500D01*
Y400499D01*
X840100Y400999D01*
X838600D01*
X841599Y398000D02*
X842599D01*
X842099D01*
Y400999D01*
X841599Y400499D01*
X861100Y449499D02*
Y446500D01*
X862599D01*
X863099Y447000D01*
Y448999D01*
X862599Y449499D01*
X861100D01*
X866098D02*
X864099D01*
Y447999D01*
X865099Y448499D01*
X865599D01*
X866098Y447999D01*
Y447000D01*
X865599Y446500D01*
X864599D01*
X864099Y447000D01*
X845000Y448999D02*
Y446500D01*
X845500Y446000D01*
X846500D01*
X846999Y446500D01*
Y448999D01*
X847999Y446000D02*
X848999D01*
X848499D01*
Y448999D01*
X847999Y448499D01*
X861500Y394999D02*
Y392500D01*
X862000Y392000D01*
X863000D01*
X863499Y392500D01*
Y394999D01*
X866498Y392000D02*
X864499D01*
X866498Y393999D01*
Y394499D01*
X865999Y394999D01*
X864999D01*
X864499Y394499D01*
X854001Y388000D02*
X857000D01*
Y389999D01*
Y392998D02*
Y390999D01*
X855001Y392998D01*
X854501D01*
X854001Y392498D01*
Y391499D01*
X854501Y390999D01*
X855499Y328000D02*
Y329999D01*
X855000Y330499D01*
X854000D01*
X853500Y329999D01*
Y328000D01*
X854000Y327500D01*
X855000D01*
X854500Y328500D02*
X855499Y327500D01*
X855000D02*
X855499Y328000D01*
X858498Y327500D02*
X856499D01*
X858498Y329499D01*
Y329999D01*
X857999Y330499D01*
X856999D01*
X856499Y329999D01*
X885999Y328500D02*
Y330499D01*
X885499Y330999D01*
X884500D01*
X884000Y330499D01*
Y328500D01*
X884500Y328000D01*
X885499D01*
X885000Y329000D02*
X885999Y328000D01*
X885499D02*
X885999Y328500D01*
X886999Y328000D02*
X887999D01*
X887499D01*
Y330999D01*
X886999Y330499D01*
X947500Y412999D02*
Y412499D01*
X948500Y411500D01*
X949499Y412499D01*
Y412999D01*
X948500Y411500D02*
Y410000D01*
X952498D02*
X950499D01*
X952498Y411999D01*
Y412499D01*
X951999Y412999D01*
X950999D01*
X950499Y412499D01*
X974501Y401500D02*
X975001D01*
X976000Y402500D01*
X975001Y403499D01*
X974501D01*
X976000Y402500D02*
X977500D01*
Y404499D02*
Y405499D01*
Y404999D01*
X974501D01*
X975001Y404499D01*
X813000Y403999D02*
Y401000D01*
X814999D01*
X815999D02*
X816999D01*
X816499D01*
Y403999D01*
X815999Y403499D01*
X892999Y274999D02*
X892000D01*
X892500D01*
Y272500D01*
X892000Y272000D01*
X891500D01*
X891000Y272500D01*
X893999Y272000D02*
X894999D01*
X894499D01*
Y274999D01*
X893999Y274499D01*
X898498Y272000D02*
X896498D01*
X898498Y273999D01*
Y274499D01*
X897998Y274999D01*
X896998D01*
X896498Y274499D01*
X720399Y455799D02*
X719400D01*
X719900D01*
Y453300D01*
X719400Y452800D01*
X718900D01*
X718400Y453300D01*
X721399Y452800D02*
X722399D01*
X721899D01*
Y455799D01*
X721399Y455299D01*
X725898Y455799D02*
X723898D01*
Y454299D01*
X724898Y454799D01*
X725398D01*
X725898Y454299D01*
Y453300D01*
X725398Y452800D01*
X724398D01*
X723898Y453300D01*
X876999Y447499D02*
X876499Y447999D01*
X875500D01*
X875000Y447499D01*
Y446999D01*
X875500Y446499D01*
X876499D01*
X876999Y446000D01*
Y445500D01*
X876499Y445000D01*
X875500D01*
X875000Y445500D01*
X877999Y445000D02*
X878999D01*
X878499D01*
Y447999D01*
X877999Y447499D01*
X751999Y254499D02*
X751500Y254999D01*
X750500D01*
X750000Y254499D01*
Y253999D01*
X750500Y253500D01*
X751500D01*
X751999Y253000D01*
Y252500D01*
X751500Y252000D01*
X750500D01*
X750000Y252500D01*
X752999Y254999D02*
X754998D01*
Y254499D01*
X752999Y252500D01*
Y252000D01*
X776999Y254499D02*
X776500Y254999D01*
X775500D01*
X775000Y254499D01*
Y253999D01*
X775500Y253500D01*
X776500D01*
X776999Y253000D01*
Y252500D01*
X776500Y252000D01*
X775500D01*
X775000Y252500D01*
X779998Y254999D02*
X778999Y254499D01*
X777999Y253500D01*
Y252500D01*
X778499Y252000D01*
X779498D01*
X779998Y252500D01*
Y253000D01*
X779498Y253500D01*
X777999D01*
X801999Y254499D02*
X801499Y254999D01*
X800500D01*
X800000Y254499D01*
Y253999D01*
X800500Y253500D01*
X801499D01*
X801999Y253000D01*
Y252500D01*
X801499Y252000D01*
X800500D01*
X800000Y252500D01*
X804998Y254999D02*
X802999D01*
Y253500D01*
X803999Y253999D01*
X804498D01*
X804998Y253500D01*
Y252500D01*
X804498Y252000D01*
X803499D01*
X802999Y252500D01*
X826999Y254499D02*
X826499Y254999D01*
X825500D01*
X825000Y254499D01*
Y253999D01*
X825500Y253500D01*
X826499D01*
X826999Y253000D01*
Y252500D01*
X826499Y252000D01*
X825500D01*
X825000Y252500D01*
X829499Y252000D02*
Y254999D01*
X827999Y253500D01*
X829998D01*
X851999Y254499D02*
X851499Y254999D01*
X850500D01*
X850000Y254499D01*
Y253999D01*
X850500Y253500D01*
X851499D01*
X851999Y253000D01*
Y252500D01*
X851499Y252000D01*
X850500D01*
X850000Y252500D01*
X852999Y254499D02*
X853499Y254999D01*
X854499D01*
X854998Y254499D01*
Y253999D01*
X854499Y253500D01*
X853999D01*
X854499D01*
X854998Y253000D01*
Y252500D01*
X854499Y252000D01*
X853499D01*
X852999Y252500D01*
X876999Y254499D02*
X876499Y254999D01*
X875500D01*
X875000Y254499D01*
Y253999D01*
X875500Y253500D01*
X876499D01*
X876999Y253000D01*
Y252500D01*
X876499Y252000D01*
X875500D01*
X875000Y252500D01*
X879998Y252000D02*
X877999D01*
X879998Y253999D01*
Y254499D01*
X879499Y254999D01*
X878499D01*
X877999Y254499D01*
X906499Y433999D02*
X905500D01*
X905999D01*
Y431500D01*
X905500Y431000D01*
X905000D01*
X904500Y431500D01*
X907499Y433999D02*
X909498D01*
Y433499D01*
X907499Y431500D01*
Y431000D01*
X905999Y253999D02*
X905000D01*
X905499D01*
Y251500D01*
X905000Y251000D01*
X904500D01*
X904000Y251500D01*
X906999Y253499D02*
X907499Y253999D01*
X908499D01*
X908998Y253499D01*
Y252999D01*
X908499Y252500D01*
X908998Y252000D01*
Y251500D01*
X908499Y251000D01*
X907499D01*
X906999Y251500D01*
Y252000D01*
X907499Y252500D01*
X906999Y252999D01*
Y253499D01*
X907499Y252500D02*
X908499D01*
X650999Y251499D02*
X650000D01*
X650499D01*
Y249000D01*
X650000Y248500D01*
X649500D01*
X649000Y249000D01*
X651999Y248500D02*
X652999D01*
X652499D01*
Y251499D01*
X651999Y250999D01*
X654498Y251499D02*
X656498D01*
Y250999D01*
X654498Y249000D01*
Y248500D01*
X690999Y251499D02*
X690000D01*
X690499D01*
Y249000D01*
X690000Y248500D01*
X689500D01*
X689000Y249000D01*
X691999Y248500D02*
X692999D01*
X692499D01*
Y251499D01*
X691999Y250999D01*
X694498D02*
X694998Y251499D01*
X695998D01*
X696498Y250999D01*
Y250499D01*
X695998Y249999D01*
X696498Y249500D01*
Y249000D01*
X695998Y248500D01*
X694998D01*
X694498Y249000D01*
Y249500D01*
X694998Y249999D01*
X694498Y250499D01*
Y250999D01*
X694998Y249999D02*
X695998D01*
X708001Y366799D02*
Y365800D01*
Y366300D01*
X710500D01*
X711000Y365800D01*
Y365300D01*
X710500Y364800D01*
X711000Y369798D02*
Y367799D01*
X709001Y369798D01*
X708501D01*
X708001Y369299D01*
Y368299D01*
X708501Y367799D01*
X708001Y372797D02*
Y370798D01*
X709501D01*
X709001Y371798D01*
Y372298D01*
X709501Y372797D01*
X710500D01*
X711000Y372298D01*
Y371298D01*
X710500Y370798D01*
X626100Y256199D02*
Y253700D01*
X626600Y253200D01*
X627599D01*
X628099Y253700D01*
Y256199D01*
X630598Y253200D02*
Y256199D01*
X629099Y254699D01*
X631098D01*
X991999Y465999D02*
X991000D01*
X991500D01*
Y463500D01*
X991000Y463000D01*
X990500D01*
X990000Y463500D01*
X994998Y465999D02*
X993999Y465499D01*
X992999Y464500D01*
Y463500D01*
X993499Y463000D01*
X994499D01*
X994998Y463500D01*
Y464000D01*
X994499Y464500D01*
X992999D01*
X780799Y359499D02*
X779800D01*
X780300D01*
Y357000D01*
X779800Y356500D01*
X779300D01*
X778800Y357000D01*
X781799Y358999D02*
X782299Y359499D01*
X783298D01*
X783798Y358999D01*
Y358499D01*
X783298Y357999D01*
X782799D01*
X783298D01*
X783798Y357500D01*
Y357000D01*
X783298Y356500D01*
X782299D01*
X781799Y357000D01*
X841499Y370999D02*
X840500D01*
X841000D01*
Y368500D01*
X840500Y368000D01*
X840000D01*
X839500Y368500D01*
X844498Y368000D02*
X842499D01*
X844498Y369999D01*
Y370499D01*
X843999Y370999D01*
X842999D01*
X842499Y370499D01*
X846998Y368000D02*
Y370999D01*
X845498Y369499D01*
X847497D01*
X925000Y378999D02*
Y376500D01*
X925500Y376000D01*
X926499D01*
X926999Y376500D01*
Y378999D01*
X927999Y378499D02*
X928499Y378999D01*
X929499D01*
X929998Y378499D01*
Y377999D01*
X929499Y377500D01*
X928999D01*
X929499D01*
X929998Y377000D01*
Y376500D01*
X929499Y376000D01*
X928499D01*
X927999Y376500D01*
X601501Y354499D02*
Y352500D01*
X604500D01*
Y354499D01*
X603000Y352500D02*
Y353500D01*
X604500Y355499D02*
Y356499D01*
Y355999D01*
X601501D01*
X602001Y355499D01*
X625999Y437499D02*
X625000D01*
X625499D01*
Y435000D01*
X625000Y434500D01*
X624500D01*
X624000Y435000D01*
X626999Y434500D02*
X627999D01*
X627499D01*
Y437499D01*
X626999Y436999D01*
X629498Y434500D02*
X630498D01*
X629998D01*
Y437499D01*
X629498Y436999D01*
X782001Y469499D02*
Y468500D01*
Y468999D01*
X784500D01*
X785000Y468500D01*
Y468000D01*
X784500Y467500D01*
X785000Y470499D02*
Y471499D01*
Y470999D01*
X782001D01*
X782501Y470499D01*
Y472998D02*
X782001Y473498D01*
Y474498D01*
X782501Y474998D01*
X783001D01*
X783500Y474498D01*
Y473998D01*
Y474498D01*
X784000Y474998D01*
X784500D01*
X785000Y474498D01*
Y473498D01*
X784500Y472998D01*
X589300Y283900D02*
X587301D01*
X586301Y284900D01*
X587301Y285899D01*
X589300D01*
X587801D01*
Y283900D01*
X589300Y286899D02*
X586301D01*
X589300Y288898D01*
X586301D01*
Y289898D02*
Y291897D01*
Y290898D01*
X589300D01*
Y292897D02*
Y293897D01*
Y293397D01*
X586301D01*
X586801Y292897D01*
X804501Y456000D02*
X807500D01*
X804501D02*
Y457000D01*
X804644Y457428D01*
X804929Y457714D01*
X805215Y457857D01*
X805643Y458000D01*
X806357D01*
X806786Y457857D01*
X807071Y457714D01*
X807357Y457428D01*
X807500Y457000D01*
Y456000D01*
X806215Y458671D02*
Y461242D01*
X800501Y456000D02*
X803500D01*
X800501D02*
Y457000D01*
X800644Y457428D01*
X800929Y457714D01*
X801215Y457857D01*
X801643Y458000D01*
X802357D01*
X802786Y457857D01*
X803071Y457714D01*
X803357Y457428D01*
X803500Y457000D01*
Y456000D01*
X800929Y459956D02*
X803500D01*
X802215Y458671D02*
Y461242D01*
X793215Y455642D02*
X792929Y455500D01*
X792643Y455214D01*
X792501Y454928D01*
Y454357D01*
X792643Y454071D01*
X792929Y453786D01*
X793215Y453643D01*
X793643Y453500D01*
X794357D01*
X794786Y453643D01*
X795072Y453786D01*
X795357Y454071D01*
X795500Y454357D01*
Y454928D01*
X795357Y455214D01*
X795072Y455500D01*
X794786Y455642D01*
X794357D01*
Y454928D02*
Y455642D01*
X792501Y456328D02*
X795500D01*
X792501D02*
X795500Y458327D01*
X792501D02*
X795500D01*
X792501Y459156D02*
X795500D01*
X792501D02*
Y460156D01*
X792643Y460584D01*
X792929Y460870D01*
X793215Y461013D01*
X793643Y461156D01*
X794357D01*
X794786Y461013D01*
X795072Y460870D01*
X795357Y460584D01*
X795500Y460156D01*
Y459156D01*
X796501Y455500D02*
X799500D01*
X796501Y456128D02*
X799500D01*
X796501D02*
Y457128D01*
X796643Y457557D01*
X796929Y457842D01*
X797215Y457985D01*
X797643Y458128D01*
X798357D01*
X798786Y457985D01*
X799072Y457842D01*
X799357Y457557D01*
X799500Y457128D01*
Y456128D01*
X808501Y453500D02*
X811500Y454643D01*
X808501Y455785D02*
X811500Y454643D01*
X809215Y458313D02*
X808929Y458170D01*
X808644Y457885D01*
X808501Y457599D01*
Y457028D01*
X808644Y456742D01*
X808929Y456457D01*
X809215Y456314D01*
X809643Y456171D01*
X810357D01*
X810786Y456314D01*
X811071Y456457D01*
X811357Y456742D01*
X811500Y457028D01*
Y457599D01*
X811357Y457885D01*
X811071Y458170D01*
X810786Y458313D01*
X809215Y461298D02*
X808929Y461156D01*
X808644Y460870D01*
X808501Y460584D01*
Y460013D01*
X808644Y459727D01*
X808929Y459442D01*
X809215Y459299D01*
X809643Y459156D01*
X810357D01*
X810786Y459299D01*
X811071Y459442D01*
X811357Y459727D01*
X811500Y460013D01*
Y460584D01*
X811357Y460870D01*
X811071Y461156D01*
X810786Y461298D01*
D57*
X901040Y331020D02*
G03*
X901040Y331020I-500J0D01*
G01*
X964249Y370716D02*
G03*
X964249Y370716I-1581J0D01*
G01*
X849500Y460000D02*
X854500Y457500D01*
X849500Y455000D02*
X854500Y457500D01*
X849500Y455000D02*
Y460000D01*
X854500Y453750D02*
Y461250D01*
X843500Y464500D02*
X860500D01*
X861500Y463500D01*
X843500D02*
Y464500D01*
Y450500D02*
Y451500D01*
Y450500D02*
X860500D01*
X861500Y451500D01*
X866500Y450500D02*
Y464500D01*
X867000Y450500D02*
Y464500D01*
X867500Y450500D02*
Y464500D01*
X868000Y450500D02*
Y464500D01*
X889240Y342000D02*
X894760D01*
X889240Y338940D02*
Y342000D01*
Y328000D02*
Y331060D01*
Y328000D02*
X894760D01*
X712000Y357500D02*
X722000D01*
X712000Y347500D02*
X722000D01*
Y377500D01*
X712000D02*
X722000D01*
X712000Y347500D02*
Y377500D01*
X839500Y343600D02*
Y366400D01*
Y343600D02*
X889500D01*
Y366400D01*
X839500D02*
X889500D01*
X813811Y486335D02*
Y487909D01*
X813024Y488697D02*
X813811Y487909D01*
X790976Y488697D02*
X813024D01*
X790189Y487909D02*
X790976Y488697D01*
X790189Y486335D02*
Y487909D01*
X788808Y486338D02*
X790189Y486335D01*
X786445Y488701D02*
X788808Y486338D01*
X785854Y488701D02*
X786445D01*
X785854Y487913D02*
Y488701D01*
Y487913D02*
X787430Y486338D01*
Y462711D02*
Y486338D01*
Y462711D02*
X792551Y462713D01*
Y467043D01*
X811449D01*
Y462713D02*
Y467043D01*
Y462713D02*
X816567D01*
X787433Y482398D02*
X816567D01*
X928496Y336496D02*
X965504D01*
Y373504D01*
X928496D02*
X965504D01*
X928496Y336496D02*
Y373504D01*
X961967D02*
X965504Y369956D01*
D58*
X851400Y336000D02*
X852600D01*
X848400D02*
X849500D01*
Y335400D02*
Y336000D01*
Y335400D02*
X851400D01*
Y336600D01*
X849500D02*
X851400D01*
X849500Y335400D02*
Y336600D01*
X901400Y337500D02*
X902600D01*
X904500D02*
X905600D01*
X904500D02*
Y338100D01*
X902600D02*
X904500D01*
X902600Y336900D02*
Y338100D01*
Y336900D02*
X904500D01*
Y338100D01*
X900500Y346900D02*
Y348100D01*
Y343900D02*
Y345000D01*
X901100D01*
Y346900D01*
X899900D02*
X901100D01*
X899900Y345000D02*
Y346900D01*
Y345000D02*
X901100D01*
X936500Y411928D02*
X936786Y412071D01*
X937214Y412499D01*
Y409500D01*
D59*
X790189Y486335D02*
X815189D01*
X817551Y488697D01*
X818142D01*
Y487909D02*
Y488697D01*
X816567Y486335D02*
X818142Y487909D01*
X816567Y462713D02*
Y486335D01*
M02*
