%FSLAX25Y25*%
%MOIN*%
G70*
G01*
G75*
G04 Layer_Color=32896*
%ADD10R,0.03500X0.03200*%
%ADD11R,0.03200X0.03000*%
%ADD12R,0.04500X0.05000*%
%ADD13R,0.05000X0.04500*%
%ADD14R,0.03200X0.03500*%
%ADD15R,0.03000X0.03200*%
%ADD16C,0.03200*%
%ADD17R,0.08200X0.11000*%
%ADD18R,0.07000X0.02500*%
%ADD19C,0.01000*%
%ADD20R,0.04000X0.02000*%
%ADD21R,0.08000X0.05500*%
%ADD22R,0.05000X0.04000*%
%ADD23R,0.04500X0.06000*%
%ADD24R,0.07000X0.05000*%
%ADD25R,0.06000X0.06000*%
%ADD26R,0.08500X0.01200*%
%ADD27R,0.08000X0.10000*%
%ADD28R,0.09000X0.03000*%
%ADD29R,0.03000X0.09000*%
%ADD30R,0.04000X0.04000*%
%ADD31R,0.13000X0.04000*%
%ADD32C,0.04000*%
%ADD33R,0.08000X0.13000*%
%ADD34R,0.04000X0.11000*%
%ADD35R,0.01600X0.07000*%
%ADD36R,0.06000X0.01000*%
%ADD37R,0.01000X0.06000*%
%ADD38C,0.02000*%
%ADD39C,0.01500*%
%ADD40C,0.00600*%
%ADD41C,0.03000*%
%ADD42C,0.02500*%
%ADD43C,0.01000*%
%ADD44C,0.01200*%
%ADD45C,0.02400*%
%ADD46C,0.03500*%
%ADD47C,0.13000*%
%ADD48R,0.05500X0.05500*%
%ADD49C,0.05500*%
%ADD50C,0.06000*%
%ADD51R,0.07000X0.07000*%
%ADD52C,0.07000*%
%ADD53O,0.03000X0.06000*%
%ADD54C,0.02400*%
%ADD55C,0.03937*%
%ADD56C,0.00500*%
%ADD57C,0.00800*%
%ADD58C,0.00200*%
%ADD59C,0.00787*%
%ADD60O,0.03937X0.03937*%
%ADD61C,0.03800*%
%ADD62R,0.03900X0.03600*%
%ADD63R,0.03600X0.03400*%
%ADD64R,0.04900X0.05400*%
%ADD65R,0.05400X0.04900*%
%ADD66R,0.03600X0.03900*%
%ADD67R,0.03400X0.03600*%
%ADD68C,0.03600*%
%ADD69R,0.08600X0.11400*%
%ADD70R,0.07400X0.02900*%
%ADD71C,0.01400*%
%ADD72R,0.04400X0.02400*%
%ADD73R,0.08400X0.05900*%
%ADD74R,0.05400X0.04400*%
%ADD75R,0.04900X0.06400*%
%ADD76R,0.07400X0.05400*%
%ADD77R,0.06400X0.06400*%
%ADD78R,0.08900X0.01600*%
%ADD79R,0.08400X0.10400*%
%ADD80R,0.09400X0.03400*%
%ADD81R,0.03400X0.09400*%
%ADD82R,0.04400X0.04400*%
%ADD83R,0.13400X0.04400*%
%ADD84C,0.12000*%
%ADD85R,0.08400X0.13400*%
%ADD86R,0.04400X0.11400*%
%ADD87R,0.02000X0.07400*%
%ADD88R,0.06400X0.01400*%
%ADD89R,0.01400X0.06400*%
%ADD90C,0.13400*%
%ADD91R,0.05900X0.05900*%
%ADD92C,0.05900*%
%ADD93C,0.06400*%
%ADD94R,0.07400X0.07400*%
%ADD95C,0.07400*%
%ADD96O,0.03400X0.06400*%
%ADD97C,0.02800*%
%ADD98C,0.11937*%
%ADD99C,0.14000*%
D40*
X802640Y262500D02*
G03*
X802640Y262500I-3140J0D01*
G01*
X777640D02*
G03*
X777640Y262500I-3140J0D01*
G01*
X827640D02*
G03*
X827640Y262500I-3140J0D01*
G01*
X852640D02*
G03*
X852640Y262500I-3140J0D01*
G01*
X877640D02*
G03*
X877640Y262500I-3140J0D01*
G01*
X727640D02*
G03*
X727640Y262500I-3140J0D01*
G01*
X690140Y370000D02*
G03*
X690140Y370000I-3140J0D01*
G01*
X797640Y417500D02*
G03*
X797640Y417500I-3140J0D01*
G01*
Y410000D02*
G03*
X797640Y410000I-3140J0D01*
G01*
X842640Y462500D02*
G03*
X842640Y462500I-3140J0D01*
G01*
X907640Y302500D02*
G03*
X907640Y302500I-3140J0D01*
G01*
Y295000D02*
G03*
X907640Y295000I-3140J0D01*
G01*
D43*
X544097Y454101D02*
Y460099D01*
X542098Y458100D01*
X540099Y460099D01*
Y454101D01*
X535100D02*
Y460099D01*
X538099Y457100D01*
X534101D01*
X528103Y460099D02*
X530102Y459099D01*
X532101Y457100D01*
Y455101D01*
X531102Y454101D01*
X529102D01*
X528103Y455101D01*
Y456100D01*
X529102Y457100D01*
X532101D01*
D56*
X972140Y449000D02*
G03*
X972140Y449000I-3140J0D01*
G01*
X961540Y449300D02*
G03*
X961540Y449300I-3140J0D01*
G01*
X951640Y449784D02*
G03*
X951640Y449784I-3140J0D01*
G01*
X941640D02*
G03*
X941640Y449784I-3140J0D01*
G01*
X832640Y462500D02*
G03*
X832640Y462500I-3140J0D01*
G01*
X675140Y370000D02*
G03*
X675140Y370000I-3140J0D01*
G01*
X682640D02*
G03*
X682640Y370000I-3140J0D01*
G01*
X803000Y257999D02*
X801001D01*
X802000D01*
Y255000D01*
X800001D02*
Y257999D01*
X798501D01*
X798002Y257499D01*
Y256500D01*
X798501Y256000D01*
X800001D01*
X795502Y255000D02*
Y257999D01*
X797002Y256500D01*
X795003D01*
X792004Y257999D02*
X793003Y257499D01*
X794003Y256500D01*
Y255500D01*
X793503Y255000D01*
X792503D01*
X792004Y255500D01*
Y256000D01*
X792503Y256500D01*
X794003D01*
X778500Y257999D02*
X776501D01*
X777500D01*
Y255000D01*
X775501D02*
Y257999D01*
X774002D01*
X773502Y257499D01*
Y256500D01*
X774002Y256000D01*
X775501D01*
X771002Y255000D02*
Y257999D01*
X772502Y256500D01*
X770503D01*
X767504Y257999D02*
X769503D01*
Y256500D01*
X768503Y256999D01*
X768003D01*
X767504Y256500D01*
Y255500D01*
X768003Y255000D01*
X769003D01*
X769503Y255500D01*
X828500Y257999D02*
X826501D01*
X827500D01*
Y255000D01*
X825501D02*
Y257999D01*
X824001D01*
X823502Y257499D01*
Y256500D01*
X824001Y256000D01*
X825501D01*
X821002Y255000D02*
Y257999D01*
X822502Y256500D01*
X820503D01*
X818003Y255000D02*
Y257999D01*
X819503Y256500D01*
X817504D01*
X853500Y257999D02*
X851501D01*
X852500D01*
Y255000D01*
X850501D02*
Y257999D01*
X849001D01*
X848502Y257499D01*
Y256500D01*
X849001Y256000D01*
X850501D01*
X846002Y255000D02*
Y257999D01*
X847502Y256500D01*
X845503D01*
X844503Y257499D02*
X844003Y257999D01*
X843003D01*
X842504Y257499D01*
Y256999D01*
X843003Y256500D01*
X843503D01*
X843003D01*
X842504Y256000D01*
Y255500D01*
X843003Y255000D01*
X844003D01*
X844503Y255500D01*
X878500Y257999D02*
X876501D01*
X877500D01*
Y255000D01*
X875501D02*
Y257999D01*
X874001D01*
X873502Y257499D01*
Y256500D01*
X874001Y256000D01*
X875501D01*
X871002Y255000D02*
Y257999D01*
X872502Y256500D01*
X870503D01*
X867504Y255000D02*
X869503D01*
X867504Y256999D01*
Y257499D01*
X868003Y257999D01*
X869003D01*
X869503Y257499D01*
X729000Y269999D02*
X727001D01*
X728000D01*
Y267000D01*
X726001D02*
Y269999D01*
X724502D01*
X724002Y269499D01*
Y268499D01*
X724502Y268000D01*
X726001D01*
X721003Y267000D02*
X723002D01*
X721003Y268999D01*
Y269499D01*
X721502Y269999D01*
X722502D01*
X723002Y269499D01*
X718004Y269999D02*
X720003D01*
Y268499D01*
X719003Y268999D01*
X718503D01*
X718004Y268499D01*
Y267500D01*
X718503Y267000D01*
X719503D01*
X720003Y267500D01*
X696000Y380499D02*
X694001D01*
X695000D01*
Y377500D01*
X693001D02*
Y380499D01*
X691502D01*
X691002Y379999D01*
Y378999D01*
X691502Y378500D01*
X693001D01*
X688003Y377500D02*
X690002D01*
X688003Y379499D01*
Y379999D01*
X688502Y380499D01*
X689502D01*
X690002Y379999D01*
X685004Y380499D02*
X686003Y379999D01*
X687003Y378999D01*
Y378000D01*
X686503Y377500D01*
X685503D01*
X685004Y378000D01*
Y378500D01*
X685503Y378999D01*
X687003D01*
X798500Y424999D02*
X796501D01*
X797500D01*
Y422000D01*
X795501D02*
Y424999D01*
X794001D01*
X793502Y424499D01*
Y423499D01*
X794001Y423000D01*
X795501D01*
X792502Y424499D02*
X792002Y424999D01*
X791002D01*
X790503Y424499D01*
Y423999D01*
X791002Y423499D01*
X791502D01*
X791002D01*
X790503Y423000D01*
Y422500D01*
X791002Y422000D01*
X792002D01*
X792502Y422500D01*
X787504Y424999D02*
X788503Y424499D01*
X789503Y423499D01*
Y422500D01*
X789003Y422000D01*
X788003D01*
X787504Y422500D01*
Y423000D01*
X788003Y423499D01*
X789503D01*
X798500Y404999D02*
X796501D01*
X797500D01*
Y402000D01*
X795501D02*
Y404999D01*
X794001D01*
X793502Y404499D01*
Y403500D01*
X794001Y403000D01*
X795501D01*
X792502Y404499D02*
X792002Y404999D01*
X791002D01*
X790503Y404499D01*
Y403999D01*
X791002Y403500D01*
X791502D01*
X791002D01*
X790503Y403000D01*
Y402500D01*
X791002Y402000D01*
X792002D01*
X792502Y402500D01*
X787504Y404999D02*
X789503D01*
Y403500D01*
X788503Y403999D01*
X788003D01*
X787504Y403500D01*
Y402500D01*
X788003Y402000D01*
X789003D01*
X789503Y402500D01*
X843800Y457999D02*
X841801D01*
X842800D01*
Y455000D01*
X840801D02*
Y457999D01*
X839301D01*
X838802Y457499D01*
Y456499D01*
X839301Y456000D01*
X840801D01*
X837802Y457499D02*
X837302Y457999D01*
X836302D01*
X835803Y457499D01*
Y456999D01*
X836302Y456499D01*
X836802D01*
X836302D01*
X835803Y456000D01*
Y455500D01*
X836302Y455000D01*
X837302D01*
X837802Y455500D01*
X833303Y455000D02*
Y457999D01*
X834803Y456499D01*
X832804D01*
X899000Y303499D02*
X897001D01*
X898000D01*
Y300500D01*
X896001D02*
Y303499D01*
X894501D01*
X894002Y302999D01*
Y301999D01*
X894501Y301500D01*
X896001D01*
X893002Y302999D02*
X892502Y303499D01*
X891502D01*
X891003Y302999D01*
Y302499D01*
X891502Y301999D01*
X892002D01*
X891502D01*
X891003Y301500D01*
Y301000D01*
X891502Y300500D01*
X892502D01*
X893002Y301000D01*
X888004Y300500D02*
X890003D01*
X888004Y302499D01*
Y302999D01*
X888503Y303499D01*
X889503D01*
X890003Y302999D01*
X899000Y295999D02*
X897001D01*
X898000D01*
Y293000D01*
X896001D02*
Y295999D01*
X894501D01*
X894002Y295499D01*
Y294499D01*
X894501Y294000D01*
X896001D01*
X893002Y295499D02*
X892502Y295999D01*
X891502D01*
X891003Y295499D01*
Y294999D01*
X891502Y294499D01*
X892002D01*
X891502D01*
X891003Y294000D01*
Y293500D01*
X891502Y293000D01*
X892502D01*
X893002Y293500D01*
X890003Y295499D02*
X889503Y295999D01*
X888503D01*
X888004Y295499D01*
Y294999D01*
X888503Y294499D01*
X889003D01*
X888503D01*
X888004Y294000D01*
Y293500D01*
X888503Y293000D01*
X889503D01*
X890003Y293500D01*
X979500Y443999D02*
X977501D01*
X978500D01*
Y441000D01*
X976501D02*
Y443999D01*
X975001D01*
X974502Y443499D01*
Y442499D01*
X975001Y442000D01*
X976501D01*
X972002Y441000D02*
Y443999D01*
X973502Y442499D01*
X971503D01*
X970503Y443999D02*
X968504D01*
Y443499D01*
X970503Y441500D01*
Y441000D01*
X964400Y442799D02*
X962401D01*
X963400D01*
Y439800D01*
X961401D02*
Y442799D01*
X959901D01*
X959402Y442299D01*
Y441299D01*
X959901Y440800D01*
X961401D01*
X956902Y439800D02*
Y442799D01*
X958402Y441299D01*
X956403D01*
X955403Y442299D02*
X954903Y442799D01*
X953903D01*
X953404Y442299D01*
Y441799D01*
X953903Y441299D01*
X953404Y440800D01*
Y440300D01*
X953903Y439800D01*
X954903D01*
X955403Y440300D01*
Y440800D01*
X954903Y441299D01*
X955403Y441799D01*
Y442299D01*
X954903Y441299D02*
X953903D01*
X952500Y445283D02*
X950501D01*
X951500D01*
Y442283D01*
X949501D02*
Y445283D01*
X948001D01*
X947502Y444783D01*
Y443783D01*
X948001Y443283D01*
X949501D01*
X945002Y442283D02*
Y445283D01*
X946502Y443783D01*
X944503D01*
X943503Y442783D02*
X943003Y442283D01*
X942003D01*
X941504Y442783D01*
Y444783D01*
X942003Y445283D01*
X943003D01*
X943503Y444783D01*
Y444283D01*
X943003Y443783D01*
X941504D01*
X932300Y451699D02*
X930301D01*
X931300D01*
Y448700D01*
X929301D02*
Y451699D01*
X927801D01*
X927302Y451199D01*
Y450200D01*
X927801Y449700D01*
X929301D01*
X924303Y451699D02*
X926302D01*
Y450200D01*
X925302Y450699D01*
X924802D01*
X924303Y450200D01*
Y449200D01*
X924802Y448700D01*
X925802D01*
X926302Y449200D01*
X923303Y451199D02*
X922803Y451699D01*
X921803D01*
X921304Y451199D01*
Y449200D01*
X921803Y448700D01*
X922803D01*
X923303Y449200D01*
Y451199D01*
X832500Y457999D02*
X830501D01*
X831500D01*
Y455000D01*
X829501D02*
Y457999D01*
X828001D01*
X827502Y457499D01*
Y456499D01*
X828001Y456000D01*
X829501D01*
X824503Y457999D02*
X826502D01*
Y456499D01*
X825502Y456999D01*
X825002D01*
X824503Y456499D01*
Y455500D01*
X825002Y455000D01*
X826002D01*
X826502Y455500D01*
X823503Y455000D02*
X822503D01*
X823003D01*
Y457999D01*
X823503Y457499D01*
X672000Y380499D02*
X670001D01*
X671000D01*
Y377500D01*
X669001D02*
Y380499D01*
X667501D01*
X667002Y379999D01*
Y378999D01*
X667501Y378500D01*
X669001D01*
X664003Y380499D02*
X665002Y379999D01*
X666002Y378999D01*
Y378000D01*
X665502Y377500D01*
X664502D01*
X664003Y378000D01*
Y378500D01*
X664502Y378999D01*
X666002D01*
X663003Y377500D02*
X662003D01*
X662503D01*
Y380499D01*
X663003Y379999D01*
X683500Y380499D02*
X681501D01*
X682500D01*
Y377500D01*
X680501D02*
Y380499D01*
X679002D01*
X678502Y379999D01*
Y378999D01*
X679002Y378500D01*
X680501D01*
X675503Y380499D02*
X676502Y379999D01*
X677502Y378999D01*
Y378000D01*
X677002Y377500D01*
X676002D01*
X675503Y378000D01*
Y378500D01*
X676002Y378999D01*
X677502D01*
X672504Y377500D02*
X674503D01*
X672504Y379499D01*
Y379999D01*
X673003Y380499D01*
X674003D01*
X674503Y379999D01*
M02*
